<svg width="80" height="80" viewBox="0 0 80 80" fill="none" xmlns="http://www.w3.org/2000/svg">
<g id="Group 36937">
<rect id="Rectangle 117" width="80" height="80" rx="8" fill="#F3F3F3"/>
<g id="Group">
<path id="Vector" d="M28 53.9999H30.8V56.7999C30.8 57.6486 31.1371 58.4625 31.7373 59.0626C32.3374 59.6628 33.1513 59.9999 34 59.9999C34.8487 59.9999 35.6626 59.6628 36.2627 59.0626C36.8629 58.4625 37.2 57.6486 37.2 56.7999V53.9999H42.8V56.7999C42.8 57.6486 43.1371 58.4625 43.7373 59.0626C44.3374 59.6628 45.1513 59.9999 46 59.9999C46.8487 59.9999 47.6626 59.6628 48.2627 59.0626C48.8629 58.4625 49.2 57.6486 49.2 56.7999V53.9999H52V36.3999H28V53.9999Z" fill="#051100"/>
<path id="Vector_2" d="M52.4921 20.216C52.2495 20.0738 51.9733 19.9992 51.6921 20C51.4115 20.0003 51.1359 20.0744 50.893 20.2148C50.6501 20.3552 50.4484 20.557 50.3081 20.8L47.9081 24.972C45.7209 23.0591 42.9138 22.0047 40.0081 22.0047C37.1024 22.0047 34.2953 23.0591 32.1081 24.972L29.6921 20.8C29.5518 20.557 29.3501 20.3552 29.1072 20.2148C28.8642 20.0744 28.5887 20.0003 28.3081 20C28.0269 19.9992 27.7506 20.0738 27.5081 20.216C27.1406 20.4278 26.8723 20.7768 26.7621 21.1863C26.6518 21.5958 26.7086 22.0324 26.9201 22.4L29.8921 27.544C28.6528 29.4688 27.9958 31.7107 28.0001 34H52.0001C52.0044 31.7107 51.3474 29.4688 50.1081 27.544L53.0801 22.4C53.2915 22.0324 53.3484 21.5958 53.2381 21.1863C53.1279 20.7768 52.8595 20.4278 52.4921 20.216ZM35.4001 30.8C35.1628 30.8 34.9307 30.7296 34.7334 30.5978C34.5361 30.4659 34.3823 30.2785 34.2914 30.0592C34.2006 29.84 34.1769 29.5987 34.2232 29.3659C34.2695 29.1331 34.3837 28.9193 34.5516 28.7515C34.7194 28.5837 34.9332 28.4694 35.166 28.4231C35.3988 28.3768 35.64 28.4005 35.8593 28.4914C36.0786 28.5822 36.266 28.736 36.3979 28.9333C36.5297 29.1307 36.6001 29.3627 36.6001 29.6C36.6001 29.9183 36.4737 30.2235 36.2486 30.4485C36.0236 30.6736 35.7184 30.8 35.4001 30.8ZM44.6001 30.8C44.3628 30.8 44.1307 30.7296 43.9334 30.5978C43.7361 30.4659 43.5823 30.2785 43.4914 30.0592C43.4006 29.84 43.3769 29.5987 43.4232 29.3659C43.4695 29.1331 43.5837 28.9193 43.7516 28.7515C43.9194 28.5837 44.1332 28.4694 44.366 28.4231C44.5988 28.3768 44.84 28.4005 45.0593 28.4914C45.2786 28.5822 45.466 28.736 45.5979 28.9333C45.7297 29.1307 45.8001 29.3627 45.8001 29.6C45.8001 29.9183 45.6737 30.2235 45.4486 30.4485C45.2236 30.6736 44.9184 30.8 44.6001 30.8Z" fill="#051100"/>
<path id="Vector_3" d="M57.5992 36.3999C56.9627 36.3999 56.3523 36.6528 55.9022 37.1028C55.4521 37.5529 55.1992 38.1634 55.1992 38.7999V46.7999C55.1992 47.4364 55.4521 48.0469 55.9022 48.497C56.3523 48.947 56.9627 49.1999 57.5992 49.1999C58.2357 49.1999 58.8462 48.947 59.2963 48.497C59.7464 48.0469 59.9992 47.4364 59.9992 46.7999V38.7999C59.9992 38.1634 59.7464 37.5529 59.2963 37.1028C58.8462 36.6528 58.2357 36.3999 57.5992 36.3999Z" fill="#051100"/>
<path id="Vector_4" d="M22.4 36.3999C21.7635 36.3999 21.153 36.6528 20.7029 37.1028C20.2529 37.5529 20 38.1634 20 38.7999V46.7999C20 47.4364 20.2529 48.0469 20.7029 48.497C21.153 48.947 21.7635 49.1999 22.4 49.1999C23.0365 49.1999 23.647 48.947 24.0971 48.497C24.5471 48.0469 24.8 47.4364 24.8 46.7999V38.7999C24.8 38.1634 24.5471 37.5529 24.0971 37.1028C23.647 36.6528 23.0365 36.3999 22.4 36.3999Z" fill="#051100"/>
</g>
</g>
</svg>
