<svg xmlns="http://www.w3.org/2000/svg" width="29" height="26" fill="none" viewBox="0 0 29 26"><g id="Group"><path id="Vector" fill="#051100" stroke="#051100" d="M25.7869 18.2149V18.215C25.7869 18.2828 25.76 18.3478 25.712 18.3957C25.6641 18.4436 25.5991 18.4705 25.5314 18.4705H3.26653C3.19876 18.4705 3.13377 18.4436 3.08586 18.3957C3.03794 18.3478 3.01102 18.2828 3.01102 18.215V3.26653C3.01102 3.19876 3.03794 3.13377 3.08585 3.08585C3.13377 3.03794 3.19876 3.01102 3.26653 3.01102H25.5339C25.6017 3.01102 25.6666 3.03794 25.7146 3.08585C25.7625 3.13375 25.7894 3.19871 25.7894 3.26644C25.7894 3.26647 25.7894 3.2665 25.7894 3.26653L25.7869 18.2149ZM25.5314 0.5H3.26653C2.5328 0.5 1.82912 0.791472 1.3103 1.3103C0.791472 1.82912 0.5 2.5328 0.5 3.26653V18.215C0.5 18.9488 0.791472 19.6524 1.3103 20.1713C1.82912 20.6901 2.5328 20.9816 3.26653 20.9816H10.6692V22.989H9.96537C9.63239 22.989 9.31305 23.1213 9.07759 23.3567C8.84214 23.5922 8.70986 23.9115 8.70986 24.2445C8.70986 24.5775 8.84214 24.8968 9.07759 25.1323C9.31305 25.3677 9.63239 25.5 9.96537 25.5H18.83C19.163 25.5 19.4823 25.3677 19.7178 25.1323C19.9532 24.8968 20.0855 24.5775 20.0855 24.2445C20.0855 23.9115 19.9532 23.5922 19.7178 23.3567C19.4823 23.1213 19.163 22.989 18.83 22.989H18.1287V20.9816H25.5314C26.2651 20.9816 26.9688 20.6901 27.4876 20.1713C28.0064 19.6524 28.2979 18.9488 28.2979 18.215V3.26653C28.2979 2.5328 28.0064 1.82912 27.4876 1.3103C26.9688 0.791472 26.2651 0.5 25.5314 0.5ZM15.6177 22.989H13.1776V20.9816H15.6177V22.989Z"/></g></svg>