<svg width="80" height="80" viewBox="0 0 80 80" fill="none" xmlns="http://www.w3.org/2000/svg">
<g id="Group 36936">
<rect id="Rectangle 117" width="80" height="80" rx="8" fill="#F3F3F3"/>
<path id="Vector" d="M40.5457 31.4929C38.9657 31.4929 36.5199 29.6965 33.9443 29.7614C30.5462 29.8047 27.4294 31.731 25.6763 34.7828C22.1483 40.908 24.7672 49.9552 28.2086 54.9333C29.8969 57.3574 31.8881 60.0846 34.5287 59.998C37.061 59.8898 38.0133 58.3531 41.0868 58.3531C44.1386 58.3531 45.0043 59.998 47.6882 59.9331C50.4153 59.8898 52.1468 57.4657 53.8134 55.0199C55.7397 52.2062 56.5405 49.479 56.5838 49.3275C56.5189 49.3059 51.2811 47.293 51.2161 41.2327C51.1728 36.168 55.3501 33.7439 55.5449 33.6357C53.1641 30.151 49.5063 29.7614 48.2293 29.6748C44.8961 29.4151 42.104 31.4929 40.5457 31.4929ZM46.1731 26.385C47.5799 24.6967 48.5106 22.3375 48.2509 20C46.238 20.0866 43.8139 21.3419 42.3638 23.0302C41.0651 24.5236 39.9396 26.9261 40.2427 29.2203C42.472 29.3935 44.7662 28.0732 46.1731 26.385Z" fill="#051100"/>
</g>
</svg>
