<svg width="80" height="80" viewBox="0 0 80 80" fill="none" xmlns="http://www.w3.org/2000/svg">
<g id="Group 36937">
<rect id="Rectangle 117" width="80" height="80" rx="8" fill="#F3F3F3"/>
<path id="Vector" fill-rule="evenodd" clip-rule="evenodd" d="M38.2008 20.0775C36.5329 20.2223 34.8532 20.582 33.2224 21.1435C32.0879 21.5341 29.9861 22.5632 28.986 23.2178C27.3613 24.2812 25.5184 25.9591 24.3007 27.4836C22.0674 30.2798 20.6147 33.7672 20.1053 37.5556C19.9664 38.5882 19.9645 41.3762 20.1019 42.4416C20.9859 49.2952 25.0028 54.9947 31.0351 57.9542C33.6903 59.2569 36.2576 59.8905 39.2723 59.9871C42.9671 60.1056 46.0995 59.4085 49.3014 57.7549C54.5427 55.0483 58.3685 49.9978 59.5468 44.2298C61.024 36.9992 58.5711 29.5495 53.1864 24.9124C49.0235 21.3274 43.6755 19.602 38.2008 20.0775ZM32.4577 32.7553V34.8983H32.8434H33.2291V33.5241C33.2291 31.9076 33.3055 31.622 33.7921 31.4187C34.1279 31.2784 34.4528 31.3135 34.7292 31.5199C34.887 31.6378 34.9041 31.7753 34.9435 33.2517L34.9864 34.8554H35.3721H35.7578L35.8007 33.3356L35.8436 31.8158L36.0813 31.5784C36.3967 31.2632 36.9831 31.2425 37.2769 31.536C37.4639 31.7228 37.4733 31.7986 37.499 33.3192L37.5258 34.9072L37.9276 34.8813L38.3294 34.8554V33.1686C38.3294 31.5913 38.3177 31.466 38.1501 31.2399C37.5658 30.452 36.4758 30.3909 35.8689 31.1121L35.6452 31.3781L35.504 31.1626C35.0503 30.4701 33.9113 30.433 33.4181 31.0947L33.2345 31.341L33.2319 30.9767L33.2291 30.6123H32.8434H32.4577V32.7553ZM40.2974 30.7681C39.8757 30.9662 39.4866 31.4088 39.4866 31.6904C39.4866 31.8783 39.5221 31.8981 39.8585 31.8981C40.173 31.8981 40.2458 31.8647 40.329 31.6821C40.4454 31.4266 40.7403 31.2981 41.2105 31.2981C41.6608 31.2981 41.9725 31.5938 41.9725 32.0211C41.9725 32.3702 41.9503 32.3793 40.9374 32.4423C39.7807 32.5143 39.1622 33.0085 39.2653 33.7784C39.3331 34.2845 39.5122 34.5364 39.9433 34.7322C40.6052 35.0327 41.2731 34.915 41.8225 34.401L42.0582 34.1805V34.5443V34.9082L42.4225 34.8818L42.7868 34.8554V33.1839C42.7868 31.571 42.7798 31.5026 42.5872 31.2325C42.3063 30.8386 41.9377 30.6755 41.2439 30.6379C40.7828 30.6129 40.5636 30.643 40.2974 30.7681ZM44.8228 30.7882C44.0898 31.1602 43.747 31.7857 43.7446 32.7553C43.7414 34.1154 44.4789 34.8963 45.7683 34.8978C46.6255 34.8988 47.4585 34.2675 47.4585 33.6168C47.4585 33.4664 47.4044 33.4411 47.082 33.4411C46.7508 33.4411 46.6991 33.4671 46.6512 33.658C46.5286 34.1462 45.6937 34.3641 45.1697 34.0445C44.77 33.8009 44.5983 33.4135 44.5983 32.7553C44.5983 32.0972 44.77 31.7097 45.1697 31.4661C45.6725 31.1594 46.4054 31.3395 46.6038 31.8184C46.6964 32.0421 46.7489 32.0696 47.0831 32.0696C47.4154 32.0696 47.4585 32.0474 47.4581 31.8767C47.4576 31.5788 47.1593 31.158 46.7624 30.8953C46.2641 30.5655 45.3597 30.5156 44.8228 30.7882ZM41.1153 33.0091C40.4531 33.0781 40.1927 33.2017 40.1228 33.4802C39.9968 33.982 40.3887 34.2684 41.0925 34.1891C41.6268 34.1289 41.9725 33.7672 41.9725 33.2683C41.9725 32.9955 41.9423 32.9292 41.8225 32.9389C41.74 32.9456 41.4217 32.9773 41.1153 33.0091ZM32.7148 37.6889C31.1834 38.0178 29.7491 39.14 29.0507 40.5558C28.4733 41.7261 28.3059 42.5613 28.3119 44.2417C28.3179 45.914 28.4567 46.5653 29.0754 47.822C29.7508 49.194 31.0073 50.2212 32.5005 50.622C34.3484 51.118 36.6 50.7117 38.0036 49.6289C39.2727 48.6497 40.0882 46.845 40.2246 44.7136C40.4545 41.1183 38.6415 38.2825 35.7308 37.6844C34.9588 37.5258 33.4638 37.528 32.7148 37.6889ZM44.9033 37.7292C42.9534 38.24 41.792 39.6886 41.9062 41.4678C41.9793 42.6072 42.5829 43.5051 43.6379 44.0442C44.2449 44.3544 44.5842 44.4662 46.2084 44.8913C48.3289 45.4462 48.9182 45.7586 49.2675 46.5132C49.6876 47.4207 49.2126 48.4231 48.1282 48.9175C47.6606 49.1307 47.4588 49.1687 46.6442 49.1973C45.8509 49.225 45.6205 49.2018 45.1926 49.0513C44.2481 48.719 43.6243 48.136 43.4262 47.4001L43.3374 47.0704H42.4309H41.5244L41.583 47.4776C41.7949 48.9495 43.0026 50.1631 44.7312 50.6413C45.4863 50.8502 47.3723 50.8514 48.1442 50.6434C49.9613 50.154 51.0061 49.0971 51.2536 47.4976C51.4208 46.4181 51.0935 45.3534 50.3926 44.6968C49.7335 44.0791 49.0149 43.7778 46.8641 43.2167C45.9721 42.9841 45.0563 42.6987 44.8289 42.5828C43.8239 42.0701 43.5233 41.2611 43.9897 40.3251C44.225 39.8529 44.6064 39.5384 45.2298 39.3024C45.6964 39.1257 47.0752 39.0948 47.5921 39.2494C48.4204 39.4971 49.1136 40.2101 49.2312 40.935L49.281 41.2415H50.1819H51.0827L51.035 40.78C50.9334 39.7946 50.1159 38.6673 49.115 38.132C48.0448 37.5597 46.2174 37.3849 44.9033 37.7292ZM33.1964 39.2796C32.2365 39.5049 31.1901 40.3867 30.742 41.3479C30.2988 42.2986 30.187 42.8754 30.1899 44.1988C30.1935 45.9512 30.5293 47.0146 31.3871 47.9894C32.1587 48.8664 33.5936 49.3466 34.8578 49.151C36.5201 48.8936 37.6857 47.7631 38.1778 45.9308C38.3812 45.1734 38.3793 43.1985 38.1744 42.4416C37.5981 40.312 36.2091 39.1685 34.2287 39.1928C33.8439 39.1976 33.3794 39.2366 33.1964 39.2796Z" fill="black"/>
</g>
</svg>
