<svg xmlns="http://www.w3.org/2000/svg" width="41.228" height="23" fill="none"><g transform="translate(-1 -11.001)"><mask id="a" width="17" height="18" x="26" y="15" maskUnits="userSpaceOnUse"><path fill="#fff" d="m31.469 16.564-4.998 5.95 8.66 9.264c.854.915 1.878.867 2.712-.127l4.105-4.887c.383-.456.371-1.622-.022-2.042l-4.555-4.873-3.19-3.412c-.408-.436-.854-.653-1.3-.653-.488 0-.976.26-1.412.78z"/></mask><g mask="url(#a)"><path fill="#cfdc3c" d="m25.593 39.503-.38-.668L49.594 24.99v14.513z"/><path fill="#cfdc3c" d="m25.215 38.835-.063-.11 24.444-13.88v.145ZM25.15 38.724l-.062-.11 24.506-13.916v.145z"/><path fill="#cedc3d" d="m25.09 38.616-.063-.11 24.569-13.951v.145Z"/><path fill="#cddc3d" d="m25.028 38.506-.062-.11 24.63-13.986v.145z"/><path fill="#ccdb3d" d="m24.964 38.396-.063-.11 24.694-14.022v.146z"/><path fill="#cbdb3e" d="m24.903 38.287-.062-.11 24.755-14.058v.146z"/><path fill="#cadb3d" d="m24.837 38.177-.063-.11 24.818-14.093v.145z"/><path fill="#c9da3d" d="m24.782 38.066-.062-.11L49.6 23.828v.145z"/><path fill="#c8da3d" d="m24.712 37.956-.063-.11 24.943-14.163v.145z"/><path fill="#c7da3e" d="m24.651 37.847-.062-.11 25.005-14.199v.145z"/><path fill="#c6d93e" d="m24.59 37.737-.063-.11 25.068-14.234v.145z"/><path fill="#c5d93d" d="m24.525 37.627-.062-.11 25.13-14.27v.146z"/><path fill="#c4d93e" d="m24.465 37.516-.063-.11 25.192-14.305v.145z"/><path fill="#c3d83e" d="m24.403 37.407-.062-.11 25.254-14.34v.145z"/><path fill="#c2d83e" d="m24.344 37.297-.063-.11 25.317-14.376v.145zM24.278 37.188l-.062-.11 25.379-14.41v.144z"/><path fill="#c1d73d" d="m24.219 37.08-.063-.11 25.442-14.447v.145z"/><path fill="#c0d73e" d="m24.152 36.97-.062-.11 25.503-14.483v.145z"/><path fill="#c0d73e" d="m24.092 36.86-.063-.11 25.566-14.517v.145z"/><path fill="#bfd63e" d="m24.032 36.749-.062-.11 25.628-14.553v.145z"/><path fill="#bed63f" d="m23.965 36.638-.063-.11L49.593 21.94v.145z"/><path fill="#bdd63e" d="m23.905 36.53-.062-.11 25.753-14.624v.145z"/><path fill="#bcd53e" d="m23.84 36.42-.063-.11 25.816-14.66v.146z"/><path fill="#bbd53f" d="m23.784 36.309-.062-.11 25.877-14.695v.145z"/><path fill="#bad53f" d="m23.719 36.2-.063-.11 25.94-14.73v.145z"/><path fill="#b9d43e" d="m23.653 36.09-.062-.11 26.002-14.766v.145z"/><path fill="#b8d43e" d="m23.592 35.98-.063-.11 26.065-14.8v.145z"/><path fill="#b7d43f" d="m23.527 35.87-.062-.11 26.127-14.836v.145z"/><path fill="#b6d33f" d="m23.471 35.762-.062-.11L49.6 20.78v.145z"/><path fill="#b5d33f" d="m23.401 35.652-.062-.11L49.59 20.635v.146z"/><path fill="#b4d33f" d="m23.346 35.541-.063-.11L49.597 20.49v.145z"/><path fill="#b3d23f" d="m23.28 35.432-.062-.11 26.376-14.978v.145z"/><path fill="#b2d23f" d="m23.22 35.32-.062-.109 26.434-15.01.005.008v.134Z"/><path fill="#b1d23f" d="m23.159 35.21-.062-.109 26.434-15.01.062.11z"/><path fill="#b0d140" d="m23.094 35.102-.063-.11 26.434-15.01.063.11Z"/><path fill="#afd13f" d="m23.034 34.992-.062-.11 26.434-15.01.062.11z"/><path fill="#aed13f" d="m22.969 34.882-.063-.11 26.434-15.01.063.11Z"/><path fill="#add040" d="m22.912 34.773-.062-.11 26.434-15.01.062.109Z"/><path fill="#acd040" d="m22.842 34.662-.063-.11 26.434-15.01.063.11z"/><path fill="#abd03f" d="m22.782 34.552-.062-.11 26.434-15.01.062.11z"/><path fill="#aacf40" d="m22.72 34.443-.062-.11 26.434-15.01.063.11Z"/><path fill="#a9cf40" d="m22.655 34.334-.062-.11 26.434-15.01.062.11z"/><path fill="#a8ce40" d="m22.596 34.224-.063-.11 26.434-15.01.063.11z"/><path fill="#a7ce41" d="m22.534 34.115-.062-.11 26.434-15.01.062.11z"/><path fill="#a6ce40" d="m22.474 34.005-.063-.11 26.434-15.01.063.11z"/><path fill="#a5cd40" d="m22.409 33.894-.062-.11 26.434-15.01.062.11z"/><path fill="#a4cd40" d="m22.349 33.784-.063-.11 26.434-15.01.063.11z"/><path fill="#a3cd41" d="m22.282 33.674-.062-.11 26.434-15.01.062.11Z"/><path fill="#a2cc41" d="m22.221 33.565-.062-.11 26.434-15.01.063.109z"/><path fill="#a1cc40" d="m22.162 33.455-.062-.11 26.434-15.01.062.11z"/><path fill="#a0cc41" d="m22.096 33.344-.063-.11 26.434-15.01.063.11z"/><path fill="#9fcb41" d="m22.035 33.235-.062-.11 26.434-15.01.062.11Z"/><path fill="#9ecb41" d="m21.97 33.125-.062-.11 26.434-15.01.063.11z"/><path fill="#9dcb41" d="m21.91 33.017-.062-.11 26.434-15.01.062.11z"/><path fill="#9ccb41" d="m21.849 32.907-.063-.11 26.434-15.01.063.11z"/><path fill="#9bca41" d="m21.784 32.797-.062-.11 26.434-15.01.062.11Z"/><path fill="#9aca41" d="m21.724 32.687-.063-.11 26.434-15.01.063.109Z"/><path fill="#99ca41" d="m21.662 32.577-.062-.11 26.434-15.01.062.11z"/><path fill="#98c941" d="m21.598 32.466-.063-.11 26.434-15.01.063.11Z"/><path fill="#97c941" d="m21.532 32.357-.062-.11 26.434-15.01.062.11z"/><path fill="#96c941" d="m21.471 32.248-.062-.11 26.434-15.01.063.11z"/><path fill="#95c842" d="m21.41 32.137-.062-.11 26.434-15.01.062.11z"/><path fill="#94c841" d="m21.35 32.027-.062-.11 26.434-15.01.063.11Z"/><path fill="#93c841" d="m21.285 31.918-.062-.11 26.434-15.01.062.109Z"/><path fill="#92c742" d="m21.224 31.808-.063-.11 26.434-15.01.063.11z"/><path fill="#91c742" d="m21.164 31.698-.062-.11 26.434-15.01.062.11Z"/><path fill="#90c742" d="m21.099 31.59-.063-.11L47.47 16.47l.063.11z"/><path fill="#8fc742" d="m21.037 31.48-.062-.11 26.434-15.01.062.11Z"/><path fill="#8ec642" d="m20.971 31.37-.062-.11 26.434-15.011.063.11z"/><path fill="#8dc642" d="m20.912 31.26-.062-.11 26.434-15.01.062.11z"/><path fill="#8bc542" d="m20.852 31.15-.062-.11 26.434-15.01.063.11z"/><path fill="#8ac542" d="m20.785 31.04-.062-.11 26.434-15.011.062.11z"/><path fill="#89c542" d="m20.726 30.93-.063-.11 26.434-15.01.063.11z"/><path fill="#88c442" d="m20.66 30.82-.062-.11L47.032 15.7l.062.11z"/><path fill="#87c443" d="m20.604 30.71-.062-.11 26.434-15.01.063.11Z"/><path fill="#86c443" d="m20.539 30.6-.062-.11L46.91 15.48l.062.11Z"/><path fill="#85c442" d="m20.474 30.49-.063-.11 26.434-15.01.063.11z"/><path fill="#84c343" d="m20.414 30.38-.062-.11 26.434-15.01.062.11Z"/><path fill="#83c343" d="m20.352 30.271-.062-.11 26.434-15.01.063.11Z"/><path fill="#82c343" d="m20.292 30.162-.063-.11 26.435-15.01.062.11Z"/><path fill="#81c243" d="m20.221 30.052-.062-.11 26.434-15.01.063.11z"/><path fill="#80c243" d="m20.166 29.942-.063-.11 26.435-15.01.062.11ZM20.1 29.832l-.062-.11 26.434-15.01.063.11z"/><path fill="#7fc143" d="m20.035 29.722-.062-.11 26.434-15.01.062.11z"/><path fill="#7ec143" d="m19.98 29.612-.063-.11 26.434-15.01.063.11z"/><path fill="#7dc143" d="m19.909 29.503-.062-.11 26.434-15.01.062.11z"/><path fill="#7cc143" d="m19.854 29.393-.062-.11 26.434-15.01.063.11Z"/><path fill="#7bc043" d="m19.787 29.282-.062-.11 26.434-15.01.062.11z"/><path fill="#7ac044" d="m19.732 29.172-.062-.11 26.434-15.01.062.11z"/><path fill="#77bf44" d="m19.662 29.063-.062-.11 26.434-15.01.062.11z"/><path fill="#77bf44" d="m19.6 28.953-.39-.686V8.973h24.003l2.822 4.97z"/></g></g><g transform="translate(-1 -11.001)"><mask id="b" width="16" height="23" x="22" y="11" maskUnits="userSpaceOnUse"><path fill="#fff" d="M29.77 11.962c-.32 0-.64.17-.926.511l-.402.479-4.695 5.589c-.832.991-1.37 2.817-1.417 4.822l-.293 9.152c-.035 1.106.43 1.482.99 1.303l8.367-9.963 1.666-1.983 1.592-1.894c.834-.994 1.858-1.042 2.712-.128l-6.718-7.435c-.274-.302-.575-.453-.875-.453z"/></mask><g mask="url(#b)"><path fill="#cfdc3c" d="m46.832 34.8-3.694 2.098L25.231 5.364h21.601zM43.136 36.9l-.143.08L25.04 5.366h.189z"/><path fill="#cfdc3c" d="m43 36.979-.143.081L24.858 5.363h.19z"/><path fill="#cedc3d" d="m42.855 37.062-.143.082L24.667 5.366h.189z"/><path fill="#cddc3d" d="m42.709 37.142-.143.081L24.475 5.364h.188z"/><path fill="#ccdb3d" d="m42.568 37.224-.143.081-18.137-31.94h.189z"/><path fill="#cbdb3e" d="m42.428 37.304-.143.08-18.183-32.02h.189z"/><path fill="#cadb3d" d="m42.282 37.386-.142.08L23.91 5.365h.19z"/><path fill="#c9da3d" d="m42.142 37.467-.143.08L23.724 5.365h.189z"/><path fill="#c8da3d" d="m41.998 37.549-.143.08L23.533 5.366h.19z"/><path fill="#c7da3e" d="m41.85 37.63-.143.08L23.34 5.366h.189z"/><path fill="#c6d93e" d="m41.71 37.709-.142.081L23.154 5.363h.19z"/><path fill="#c5d93d" d="m41.565 37.793-.142.081-18.46-32.508h.189z"/><path fill="#c4d93e" d="m41.42 37.872-.144.081L22.77 5.363h.19z"/><path fill="#c3d83e" d="m41.283 37.954-.143.081L22.627 5.433l.12-.068h.03z"/><path fill="#c2d83e" d="m41.135 38.034-.142.081L22.479 5.513l.143-.081Z"/><path fill="#c2d83e" d="m40.994 38.116-.143.081L22.338 5.595l.143-.081Z"/><path fill="#c1d73d" d="m40.856 38.196-.143.08L22.2 5.676l.143-.081Z"/><path fill="#c0d73e" d="m40.714 38.278-.143.081L22.058 5.757l.143-.08ZM40.566 38.359l-.143.08L21.91 5.839l.143-.081Z"/><path fill="#bfd63e" d="m40.422 38.44-.142.08L21.767 5.919l.143-.08Z"/><path fill="#bed63f" d="m40.285 38.522-.143.081L21.629 6.001l.143-.081Z"/><path fill="#bdd63e" d="m40.137 38.602-.143.08L21.481 6.08l.143-.08Z"/><path fill="#bcd53e" d="m39.99 38.684-.143.08L21.334 6.164l.143-.082Z"/><path fill="#bbd53f" d="m39.852 38.765-.143.08L21.196 6.245l.143-.082Z"/><path fill="#bad53f" d="m39.715 38.847-.143.08L21.059 6.327l.142-.082Z"/><path fill="#b9d43e" d="m39.567 38.928-.143.08L20.911 6.408l.143-.081Z"/><path fill="#b8d43e" d="m39.425 39.008-.142.081L20.768 6.487l.143-.08Z"/><path fill="#b7d43f" d="m39.283 39.09-.143.081L20.627 6.57l.143-.08Z"/><path fill="#b6d33f" d="m39.14 39.17-.144.081L20.483 6.649l.143-.081Z"/><path fill="#b5d33f" d="m38.998 39.252-.143.081L20.342 6.731l.143-.081Z"/><path fill="#b4d33f" d="m38.85 39.332-.143.081L20.194 6.811l.143-.081Z"/><path fill="#b3d23f" d="m38.712 39.414-.143.081L20.056 6.893l.142-.081Z"/><path fill="#b2d23f" d="m38.564 39.494-.143.08L19.908 6.974l.143-.082Z"/><path fill="#b1d23f" d="m38.422 39.576-.143.081L19.766 7.055l.143-.081Z"/><path fill="#b0d140" d="m38.285 39.657-.143.08L19.629 7.137l.143-.081Z"/><path fill="#afd13f" d="m38.137 39.738-.143.08L19.481 7.218l.143-.081Z"/><path fill="#aed13f" d="m37.994 39.82-.143.08L19.338 7.3l.143-.081Z"/><path fill="#add040" d="m37.852 39.9-.143.082L19.196 7.38l.143-.081Z"/><path fill="#acd040" d="m37.71 39.981-.143.081L19.054 7.46l.143-.08Z"/><path fill="#abd03f" d="m37.567 40.062-.143.082L18.911 7.54l.143-.08Z"/><path fill="#aacf40" d="m37.423 40.145-.142.08L18.768 7.624l.142-.08Z"/><path fill="#a9cf40" d="m37.282 40.224-.143.08L18.626 7.704l.143-.082Z"/><path fill="#a8ce40" d="m37.14 40.306-.144.081L18.483 7.785l.143-.081Z"/><path fill="#a7ce41" d="m36.996 40.387-.143.081L18.34 7.866l.143-.081Z"/><path fill="#a6ce40" d="m36.853 40.468-.143.08L18.197 7.948l.143-.081Z"/><path fill="#a5cd40" d="m36.712 40.548-.077.044h-.088L18.056 8.027l.142-.08Z"/><path fill="#a4cd40" d="M36.359 40.592 17.913 8.109l.143-.082 18.491 32.565Z"/><path fill="#a3cd41" d="M36.169 40.592 17.769 8.19l.143-.081 18.446 32.483Z"/><path fill="#a2cc41" d="M35.975 40.592 17.622 8.27l.143-.081 18.4 32.402Z"/><path fill="#a1cc40" d="M35.793 40.592 17.485 8.352l.143-.081 18.354 32.32Z"/><path fill="#a0cc41" d="M35.6 40.592 17.337 8.433l.143-.081 18.307 32.24Z"/><path fill="#9fcb41" d="M35.414 40.592 17.2 8.514l.143-.081 18.261 32.159Z"/><path fill="#9ecb41" d="M35.227 40.592 17.057 8.595l.144-.08 18.215 32.077Z"/><path fill="#9dcb41" d="M35.033 40.592 16.91 8.676l.143-.08 18.17 31.996Z"/><path fill="#9ccb41" d="M34.844 40.592 16.767 8.758l.143-.082 18.122 31.916Z"/><path fill="#9bca41" d="M34.655 40.592 16.624 8.839l.143-.081 18.077 31.834Z"/><path fill="#9aca41" d="M34.472 40.592 16.487 8.92l.143-.081 18.031 31.753Z"/><path fill="#99ca41" d="M34.279 40.592 16.339 9l.144-.081 17.985 31.672Z"/><path fill="#98c941" d="M34.089 40.592 16.196 9.082l.143-.081 17.939 31.59Z"/><path fill="#97c941" d="M33.906 40.592 16.06 9.163l.142-.081 17.893 31.51Z"/><path fill="#96c941" d="m33.713 40.592-17.8-31.348.142-.08 17.847 31.428Z"/><path fill="#95c842" d="M33.524 40.592 15.769 9.325l.143-.08 17.801 31.347Z"/><path fill="#94c841" d="M33.33 40.592 15.623 9.407l.143-.082 17.754 31.267Z"/><path fill="#93c841" d="M33.146 40.592 15.483 9.488l.143-.081 17.709 31.185Z"/><path fill="#92c742" d="M32.958 40.592 15.342 9.569l.143-.081 17.662 31.104Z"/><path fill="#91c742" d="M32.765 40.592 15.195 9.65l.142-.081 17.616 31.023Z"/><path fill="#90c742" d="M32.576 40.592 15.052 9.73l.143-.081 17.57 30.942Z"/><path fill="#8fc742" d="M32.392 40.592 14.914 9.812l.143-.081 17.524 30.86Z"/><path fill="#8ec642" d="M32.199 40.592 14.767 9.893l.143-.08 17.478 30.779Z"/><path fill="#8dc642" d="M32.01 40.592 14.624 9.974l.143-.08 17.432 30.698Z"/><path fill="#8bc542" d="m31.821 40.592-17.34-30.536.143-.082L32.01 40.592Z"/><path fill="#8ac542" d="M31.638 40.592 14.344 10.137l.143-.082 17.34 30.537Z"/><path fill="#89c542" d="M31.444 40.592 14.196 10.218l.143-.081 17.294 30.455Z"/><path fill="#88c442" d="M31.25 40.592 14.05 10.299l.143-.081 17.247 30.374Z"/><path fill="#87c443" d="M31.068 40.592 13.912 10.38l.143-.081 17.202 30.293Z"/><path fill="#86c443" d="m30.878 40.592-17.11-30.13.143-.082 17.156 30.212Z"/><path fill="#85c442" d="M30.685 40.592 13.62 10.542l.143-.08 17.11 30.13Z"/><path fill="#84c343" d="M30.5 40.592 13.484 10.623l.143-.08L30.69 40.591Z"/><path fill="#83c343" d="M30.311 40.592 13.34 10.705l.143-.082L30.5 40.592Z"/><path fill="#82c343" d="M30.124 40.592 13.198 10.786l.143-.082 16.971 29.888Z"/><path fill="#81c243" d="M29.93 40.592 13.05 10.867l.144-.081 16.925 29.806Z"/><path fill="#80c243" d="M29.746 40.592 12.913 10.948l.143-.081 16.88 29.725ZM29.557 40.592 12.77 11.029l.142-.081 16.834 29.644Z"/><path fill="#7fc143" d="M29.369 40.592 12.628 11.11l.143-.081 16.787 29.563Z"/><path fill="#7ec143" d="M29.182 40.592 12.55 11.304v-.15l.078-.044 16.742 29.482z"/><path fill="#7dc143" d="M28.993 40.592 12.55 11.637v-.333l16.63 29.288z"/><path fill="#7cc143" d="M28.804 40.592 12.55 11.97v-.333l16.442 28.955z"/><path fill="#7bc043" d="M28.615 40.592 12.55 12.302v-.332l16.253 28.622z"/><path fill="#7ac044" d="M28.426 40.592 12.55 12.635v-.333l16.064 28.29z"/><path fill="#77bf44" d="M28.237 40.592 12.551 12.968v-.333l15.875 27.957z"/><path fill="#77bf44" d="m12.55 12.968 15.687 27.624H12.551Z"/></g></g><g transform="translate(-1 -11.001)"><mask id="c" width="17" height="18" x="9" y="13" maskUnits="userSpaceOnUse"><path fill="#fff" d="M15.759 13.528c-.489 0-.977.26-1.413.78l-4.105 4.887c-.383.456-.37 1.622.022 2.042l4.555 4.874 3.19 3.411c.855.915 1.878.867 2.712-.126l4.999-5.951-8.66-9.264c-.408-.436-.854-.653-1.3-.653z"/></mask><g mask="url(#c)"><path fill="#60c9e5" d="m26.6 6.718.268.472L2.598 20.97V6.718Z"/><path fill="#60c9e5" d="m26.868 7.19.048.084L2.599 21.083v-.111z"/><path fill="#60c8e5" d="m26.916 7.274.047.084L2.6 21.193v-.11z"/><path fill="#61c7e4" d="m26.963 7.357.048.084L2.599 21.303v-.11z"/><path fill="#60c6e4" d="m27.01 7.441.048.084-24.46 13.89v-.112z"/><path fill="#61c5e3" d="m27.058 7.525.048.084L2.599 21.525v-.11z"/><path fill="#60c4e3" d="m27.106 7.609.047.083L2.6 21.636v-.111Z"/><path fill="#60c4e3" d="m27.154 7.691.047.084-24.602 13.97v-.11z"/><path fill="#5fc3e2" d="m27.201 7.777.047.084-24.65 13.997v-.11z"/><path fill="#5fc2e2" d="m27.248 7.86.048.084L2.599 21.97v-.111Z"/><path fill="#5ec1e1" d="m27.296 7.943.048.083L2.599 22.078v-.111z"/><path fill="#5ec0e1" d="m27.344 8.027.047.084L2.6 22.189v-.11z"/><path fill="#5ebfe0" d="m27.391 8.112.048.083-24.84 14.106v-.111Z"/><path fill="#5ebee0" d="m27.439 8.195.047.083L2.6 22.411V22.3z"/><path fill="#5dbee0" d="m27.486 8.278.048.084-24.935 14.16v-.111z"/><path fill="#5dbddf" d="m27.534 8.364.047.083L2.6 22.634v-.11z"/><path fill="#5ebddf" d="m27.581 8.446.048.084-25.03 14.213v-.11z"/><path fill="#5dbcdf" d="m27.629 8.529.047.084L2.6 22.853v-.11z"/><path fill="#5dbbde" d="m27.677 8.613.047.083L2.599 22.964v-.11z"/><path fill="#5cbade" d="m27.724 8.698.048.084L2.599 23.076v-.11z"/><path fill="#5cbade" d="m27.772 8.78.047.085L2.6 23.186v-.11z"/><path fill="#5bb9de" d="m27.82 8.865.047.083L2.599 23.297v-.11z"/><path fill="#5bb8dd" d="m27.867 8.948.047.083L2.6 23.407v-.111Z"/><path fill="#5ab8dd" d="m27.914 9.032.048.084L2.599 23.518v-.11z"/><path fill="#5bb6dc" d="m27.962 9.116.047.083L2.6 23.63v-.11z"/><path fill="#5ab6db" d="m28.01 9.201.047.084L2.599 23.74v-.11z"/><path fill="#5ab5dc" d="m28.057 9.284.047.084L2.6 23.85v-.11z"/><path fill="#5ab5db" d="m28.104 9.368.048.083-25.553 14.51v-.11z"/><path fill="#59b4db" d="m28.152 9.45.048.084L2.599 24.07v-.11z"/><path fill="#5ab3da" d="m28.2 9.534.047.084L2.6 24.182v-.11z"/><path fill="#59b2da" d="m28.247 9.617.048.084L2.599 24.292v-.11zM28.295 9.702l.047.084L2.6 24.404v-.11z"/><path fill="#58b1da" d="m28.342 9.786.048.084L2.599 24.516v-.111z"/><path fill="#58b1d9" d="m28.39 9.87.047.083L2.6 24.625v-.11z"/><path fill="#57b0d9" d="m28.437 9.953.048.084-25.886 14.7v-.111z"/><path fill="#57afd9" d="m28.485 10.037.047.084L2.6 24.847v-.11Z"/><path fill="#56aed8" d="m28.532 10.12.048.085L2.599 24.957v-.11z"/><path fill="#57aed8" d="m28.58 10.204.047.083L2.6 25.067v-.11Z"/><path fill="#57add8" d="m28.628 10.289.047.084L2.6 25.18v-.11Z"/><path fill="#56acd7" d="m28.675 10.373.048.084L2.599 25.29v-.11z"/><path fill="#57abd7" d="m28.723 10.455.047.083L2.6 25.4v-.11Z"/><path fill="#56abd6" d="m28.77 10.539.048.083-26.22 14.889V25.4Z"/><path fill="#56aad6" d="m28.818 10.623.047.084L2.6 25.623v-.111Z"/><path fill="#55a9d5" d="m28.865 10.707.048.083L2.599 25.733v-.11Z"/><path fill="#55a9d6" d="m28.913 10.79.047.084L2.6 25.844v-.111Z"/><path fill="#54a8d5" d="m28.96 10.876.048.084-26.41 14.996v-.11Z"/><path fill="#55a7d5" d="m29.008 10.958.047.084-26.434 15.01-.022-.04v-.058z"/><path fill="#55a7d4" d="m29.06 11.041.048.084-26.434 15.01-.048-.083Z"/><path fill="#54a6d4" d="m29.1 11.125.047.084-26.434 15.01-.048-.084ZM29.153 11.21l.047.084-26.434 15.01-.047-.083Z"/><path fill="#53a5d4" d="m29.197 11.293.047.084L2.81 26.387l-.047-.083Z"/><path fill="#54a4d3" d="m29.247 11.377.047.084L2.86 26.47l-.047-.084Z"/><path fill="#52a3d3" d="m29.292 11.46.047.084-26.434 15.01-.048-.083Z"/><path fill="#53a3d2" d="m29.34 11.544.048.084-26.434 15.01-.048-.083Z"/><path fill="#52a2d2" d="m29.39 11.627.047.084-26.434 15.01-.048-.083ZM29.44 11.712l.047.084-26.435 15.01-.047-.083Z"/><path fill="#53a1d1" d="m29.483 11.796.047.084L3.096 26.89l-.047-.083Z"/><path fill="#51a0d1" d="m29.533 11.878.047.084-26.434 15.01-.047-.083Z"/><path fill="#52a0d1" d="m29.58 11.963.048.084-26.434 15.01-.048-.083Z"/><path fill="#519fd1" d="m29.626 12.047.047.084L3.24 27.141l-.048-.083Z"/><path fill="#529ed0" d="m29.67 12.13.047.084L3.283 27.225l-.048-.084Z"/><path fill="#519dcf" d="m29.723 12.214.048.084-26.434 15.01-.048-.083Z"/><path fill="#519dcf" d="m29.767 12.298.048.084L3.38 27.392l-.048-.083Z"/><path fill="#509ccf" d="m29.817 12.382.047.084L3.43 27.476l-.047-.084Z"/><path fill="#509bcf" d="m29.86 12.465.049.084-26.435 15.01-.047-.083Z"/><path fill="#519bce" d="m29.91 12.549.047.084-26.434 15.01-.047-.084Z"/><path fill="#509ace" d="m29.96 12.634.047.083L3.573 27.728l-.048-.084Z"/><path fill="#5099cd" d="m30.008 12.717.048.084-26.434 15.01-.048-.083Z"/><path fill="#4f99cd" d="m30.053 12.801.048.084-26.434 15.01-.048-.083Z"/><path fill="#4f98cd" d="m30.101 12.885.048.083L3.715 27.98l-.048-.084Z"/><path fill="#4e97cd" d="m30.151 12.968.047.084-26.434 15.01-.047-.083Z"/><path fill="#4f97cc" d="m30.195 13.052.047.084-26.434 15.01-.047-.083Z"/><path fill="#4f96cc" d="m30.245 13.135.047.084-26.434 15.01-.047-.083Z"/><path fill="#4e96cb" d="m30.294 13.22.047.083-26.434 15.01-.048-.083Z"/><path fill="#4f95cb" d="m30.337 13.303.048.083L3.951 28.397l-.048-.084Z"/><path fill="#4e94cb" d="m30.387 13.388.048.083L4 28.481l-.048-.083ZM30.437 13.47l.048.083L4.05 28.564l-.048-.084Z"/><path fill="#4d93ca" d="m30.485 13.554.047.083-26.434 15.01-.047-.083Z"/><path fill="#4d92ca" d="m30.529 13.638.047.084-26.434 15.01-.047-.083Z"/><path fill="#4e92c9" d="m30.579 13.722.047.083-26.434 15.01-.047-.083Z"/><path fill="#4d91c9" d="m30.624 13.804.047.084-26.434 15.01-.048-.083ZM30.672 13.89l.047.083-26.434 15.01-.048-.083Z"/><path fill="#4c90c9" d="m30.721 13.973.048.083-26.434 15.01-.048-.083Z"/><path fill="#4d8fc8" d="m30.765 14.056.048.084L4.379 29.15l-.048-.083ZM30.815 14.142l.048.083-26.435 15.01-.047-.083Z"/><path fill="#4c8ec8" d="m30.863 14.225.047.084-26.434 15.01-.047-.083Z"/><path fill="#4c8dc7" d="m30.913 14.307.047.084L4.526 29.4l-.047-.083Z"/><path fill="#4b8dc7" d="m30.958 14.392.047.084-26.434 15.01-.048-.083Z"/><path fill="#4c8cc6" d="m31.006 14.476.048.084L4.62 29.57l-.048-.083Z"/><path fill="#4b8bc7" d="m31.055 14.559.048.084-26.434 15.01-.048-.083Z"/><path fill="#4b8bc6" d="m31.105 14.643.048.084-26.434 15.01-.048-.083Z"/><path fill="#4b8ac6" d="m31.149 14.726.047.084L4.762 29.82l-.047-.083Z"/><path fill="#4b8ac5" d="m31.194 14.81.047.084-26.434 15.01-.047-.083Z"/><path fill="#4b8ac5" d="m31.242 14.893.047.083-26.434 15.01-.047-.083Z"/><path fill="#4a89c5" d="m31.292 14.979.047.084-26.434 15.01-.048-.084Z"/><path fill="#4a88c5" d="m31.335 15.061.048.084L4.95 30.155l-.048-.083Z"/><path fill="#4a88c5" d="m31.38 15.145.048.084-26.434 15.01-.048-.084Z"/><path fill="#4987c5" d="m31.433 15.23.048.083-26.434 15.01-.048-.083Z"/><path fill="#4a87c4" d="m31.478 15.312.048.083-26.434 15.01-.048-.083Z"/><path fill="#4986c4" d="m31.528 15.396.047.083L5.141 30.49l-.047-.083Z"/><path fill="#4986c3" d="m31.577 15.48.047.084L5.19 30.574l-.047-.083Z"/><path fill="#4a85c3" d="m31.626 15.564.047.084L5.24 30.658l-.048-.084Z"/><path fill="#4984c3" d="m31.67 15.646.047.084L5.283 30.74l-.048-.083ZM31.72 15.732l.047.084-26.434 15.01-.048-.083Z"/><path fill="#4883c3" d="m31.763 15.816.048.084L5.377 30.91l-.048-.084Z"/><path fill="#4883c2" d="m31.813 15.898.048.084-26.434 15.01-.048-.083Z"/><path fill="#4982c2" d="m31.862 15.983.047.084-26.434 15.01-.047-.083Z"/><path fill="#4782c2" d="m31.91 16.067.048.084L5.524 31.16l-.047-.084Z"/><path fill="#4881c1" d="m31.956 16.15.047.083L5.57 31.243l-.048-.083Z"/><path fill="#4881c1" d="m32.004 16.233.047.084-26.434 15.01-.048-.084Z"/><path fill="#4780c2" d="m32.053 16.318.048.083L5.667 31.412l-.048-.084Z"/><path fill="#4780c1" d="m32.097 16.4.048.084L5.71 31.494l-.048-.084Z"/><path fill="#4680c1" d="m32.147 16.484.048.084L5.76 31.578l-.047-.084Z"/><path fill="#4780c1" d="m32.196 16.57.047.084L5.81 31.663l-.047-.084Z"/><path fill="#477fc0" d="m32.24 16.652.047.084-26.434 15.01-.047-.083Z"/><path fill="#467fc0" d="m32.29 16.736.047.084L5.903 31.83l-.048-.084Z"/><path fill="#467ec0" d="m32.334 16.82.047.084L5.947 31.915l-.048-.084Z"/><path fill="#477ebf" d="m32.387 16.903.048.084L6 31.997l-.048-.083Z"/><path fill="#467dbf" d="m32.431 16.987.048.084L6.045 32.08l-.048-.084ZM32.481 17.072l.502.883v19.294H8.98l-2.934-5.167Z"/></g></g><g transform="translate(-1 -11.001)"><mask id="d" width="17" height="18" x="10" y="14" maskUnits="userSpaceOnUse"><path fill="#fff" d="m15.483 15.6-4.999 5.951 8.66 9.264c.855.915 1.879.867 2.713-.127l4.105-4.887c.383-.456.371-1.622-.022-2.042l-4.555-4.873-3.19-3.412c-.408-.436-.854-.653-1.3-.653-.488 0-.976.26-1.412.78z"/></mask><g mask="url(#d)"><path fill="#cfdc3c" d="m9.603 38.541-.38-.669 24.382-13.845v14.514Z"/><path fill="#cfdc3c" d="m9.225 37.872-.062-.11 24.444-13.88v.145z"/><path fill="#cfdc3c" d="m9.165 37.763-.062-.11 24.506-13.916v.145z"/><path fill="#cedc3d" d="m9.104 37.653-.062-.11 24.569-13.95v.145z"/><path fill="#cddc3d" d="m9.039 37.542-.062-.11 24.63-13.986v.145z"/><path fill="#ccdb3d" d="m8.974 37.434-.062-.11 24.693-14.022v.145z"/><path fill="#cbdb3e" d="m8.918 37.324-.063-.11 24.756-14.057v.145z"/><path fill="#cadb3d" d="m8.848 37.214-.063-.11 24.818-14.092v.145z"/><path fill="#c9da3d" d="m8.793 37.103-.063-.11 24.88-14.128v.146z"/><path fill="#c8da3d" d="m8.726 36.994-.062-.11 24.943-14.163v.145z"/><path fill="#c7da3e" d="m8.672 36.884-.063-.11 25.005-14.198v.145z"/><path fill="#c6d93e" d="m8.6 36.774-.062-.11L33.605 22.43v.145z"/><path fill="#c5d93d" d="m8.54 36.665-.062-.11 25.13-14.27v.146z"/><path fill="#c4d93e" d="m8.48 36.554-.063-.11 25.192-14.305v.145z"/><path fill="#c3d83e" d="m8.415 36.444-.062-.11 25.254-14.34v.145z"/><path fill="#c2d83e" d="m8.354 36.334-.062-.11L33.609 21.85v.145z"/><path fill="#c2d83e" d="m8.293 36.225-.063-.11 25.38-14.411v.145z"/><path fill="#c1d73d" d="m8.233 36.115-.062-.11L33.612 21.56v.145z"/><path fill="#c0d73e" d="m8.168 36.005-.063-.11L33.61 21.413v.145zM8.102 35.896l-.062-.11L33.606 21.27v.145z"/><path fill="#bfd63e" d="m8.047 35.786-.063-.11 25.629-14.553v.145z"/><path fill="#bed63f" d="m7.975 35.677-.062-.11 25.69-14.588v.145z"/><path fill="#bdd63e" d="m7.916 35.567-.062-.11 25.753-14.623v.145z"/><path fill="#bcd53e" d="m7.854 35.456-.062-.11 25.816-14.659v.145z"/><path fill="#bbd53f" d="m7.795 35.347-.063-.11L33.61 20.542v.145z"/><path fill="#bad53f" d="m7.73 35.238-.063-.11 25.94-14.73v.146z"/><path fill="#b9d43e" d="m7.668 35.127-.063-.11 26.003-14.765v.145z"/><path fill="#b8d43e" d="m7.608 35.018-.062-.11L33.61 20.107v.145z"/><path fill="#b7d43f" d="m7.538 34.908-.062-.11 26.127-14.836v.145z"/><path fill="#b6d33f" d="m7.477 34.798-.062-.11 26.19-14.871v.145z"/><path fill="#b5d33f" d="m7.416 34.688-.062-.11 26.251-14.906v.145z"/><path fill="#b4d33f" d="m7.356 34.579-.062-.11 26.314-14.943v.146z"/><path fill="#b3d23f" d="m7.29 34.47-.061-.11 26.376-14.978v.145z"/><path fill="#b2d23f" d="m7.235 34.36-.062-.11 26.434-15.011.005.008v.135z"/><path fill="#b1d23f" d="m7.17 34.248-.063-.11 26.435-15.01.062.11Z"/><path fill="#b0d140" d="m7.104 34.14-.062-.11 26.434-15.011.062.11z"/><path fill="#afd13f" d="m7.045 34.03-.063-.11 26.435-15.011.062.11Z"/><path fill="#aed13f" d="m6.977 33.92-.062-.11L33.349 18.8l.063.11z"/><path fill="#add040" d="m6.923 33.81-.063-.11 26.434-15.01.063.11z"/><path fill="#acd040" d="m6.852 33.7-.062-.11 26.434-15.011.063.11z"/><path fill="#abd03f" d="m6.797 33.59-.063-.11 26.434-15.01.063.11z"/><path fill="#aacf40" d="m6.731 33.48-.062-.11 26.434-15.01.062.11z"/><path fill="#a9cf40" d="m6.666 33.37-.062-.11 26.434-15.01.062.11Z"/><path fill="#a8ce40" d="m6.61 33.262-.062-.11 26.434-15.01.062.11z"/><path fill="#a7ce41" d="m6.545 33.152-.063-.11 26.435-15.01.062.11Z"/><path fill="#a6ce40" d="m6.485 33.041-.062-.11 26.434-15.01.062.11z"/><path fill="#a5cd40" d="m6.42 32.932-.063-.11 26.435-15.01.062.11Z"/><path fill="#a4cd40" d="m6.363 32.822-.062-.11 26.434-15.01.062.11z"/><path fill="#a3cd41" d="m6.298 32.712-.063-.11 26.434-15.01.063.11z"/><path fill="#a2cc41" d="m6.227 32.602-.062-.11 26.434-15.01.063.11Z"/><path fill="#a1cc40" d="m6.173 32.493-.063-.11 26.434-15.01.063.11z"/><path fill="#a0cc41" d="m6.106 32.383-.062-.11 26.434-15.01.062.11z"/><path fill="#9fcb41" d="m6.052 32.273-.063-.11 26.434-15.01.063.109z"/><path fill="#9ecb41" d="m5.985 32.163-.062-.11 26.434-15.01.062.11z"/><path fill="#9dcb41" d="m5.925 32.053-.063-.11 26.434-15.01.063.11z"/><path fill="#9ccb41" d="m5.86 31.943-.063-.11 26.434-15.01.062.11z"/><path fill="#9bca41" d="m5.795 31.834-.063-.11 26.435-15.01.062.11Z"/><path fill="#9aca41" d="m5.738 31.724-.062-.11 26.434-15.01.062.11z"/><path fill="#99ca41" d="m5.673 31.614-.063-.11 26.434-15.01.063.11z"/><path fill="#98c941" d="m5.613 31.503-.062-.11 26.434-15.01.062.11z"/><path fill="#97c941" d="m5.548 31.394-.063-.11 26.434-15.01.063.11z"/><path fill="#96c941" d="m5.492 31.285-.062-.11 26.434-15.01.062.11z"/><path fill="#95c842" d="m5.42 31.175-.062-.11 26.435-15.01.062.11z"/><path fill="#94c841" d="m5.36 31.065-.062-.11 26.434-15.01.062.11z"/><path fill="#93c841" d="m5.306 30.955-.063-.11 26.434-15.01.063.11z"/><path fill="#92c742" d="m5.234 30.844-.062-.11 26.434-15.01.062.11z"/><path fill="#91c742" d="m5.175 30.735-.063-.11 26.434-15.01.063.11z"/><path fill="#90c742" d="m5.113 30.626-.062-.11 26.434-15.01.062.11z"/><path fill="#8fc742" d="m5.054 30.517-.063-.11 26.434-15.01.063.109Z"/><path fill="#8ec642" d="m4.988 30.407-.062-.11 26.434-15.01.062.11z"/><path fill="#8dc642" d="m4.922 30.296-.063-.11 26.434-15.01.063.11z"/><path fill="#8bc542" d="m4.867 30.188-.062-.11 26.434-15.01.062.109z"/><path fill="#8ac542" d="m4.796 30.077-.063-.11 26.435-15.01.062.11z"/><path fill="#89c542" d="m4.736 29.967-.062-.11 26.434-15.01.062.11z"/><path fill="#88c442" d="m4.675 29.857-.063-.11 26.434-15.01.063.11z"/><path fill="#87c443" d="m4.615 29.748-.062-.11 26.434-15.01.062.109Z"/><path fill="#86c443" d="m4.55 29.638-.063-.11 26.434-15.01.063.11z"/><path fill="#85c442" d="m4.488 29.528-.062-.11 26.434-15.01.062.11z"/><path fill="#84c343" d="m4.423 29.418-.063-.11 26.434-15.01.063.11z"/><path fill="#83c343" d="m4.358 29.308-.062-.11 26.434-15.01.062.11z"/><path fill="#82c343" d="m4.303 29.2-.063-.11 26.434-15.011.063.11z"/><path fill="#81c243" d="m4.236 29.09-.062-.11 26.434-15.01.062.11z"/><path fill="#80c243" d="m4.177 28.98-.063-.11 26.434-15.01.063.11zM4.111 28.87l-.062-.11 26.434-15.011.062.11z"/><path fill="#7fc143" d="m4.05 28.76-.063-.11 26.434-15.01.063.11z"/><path fill="#7ec143" d="m3.99 28.649-.062-.11 26.434-15.01.062.11z"/><path fill="#7dc143" d="m3.925 28.54-.063-.11 26.434-15.01.063.11z"/><path fill="#7cc143" d="m3.865 28.43-.062-.11 26.434-15.01.062.11z"/><path fill="#7bc043" d="m3.798 28.32-.063-.11L30.17 13.198l.063.11z"/><path fill="#7ac044" d="m3.743 28.21-.062-.11 26.434-15.01.062.11z"/><path fill="#77bf44" d="m3.673 28.1-.063-.11 26.434-15.01.063.11Z"/><path fill="#77bf44" d="m3.615 27.99-.39-.685V8.01h24.002l2.822 4.97z"/></g></g><g transform="translate(-1 -11.001)"><mask id="e" width="21" height="22" x="1" y="11" maskUnits="userSpaceOnUse"><path fill="#fff" d="M13.786 11.001c-.32 0-.64.17-.927.512l-.401.478-8.823 11.158c-.367.436-1.482 1.843-2.28 2.854-.5.633-.468 1.533.073 2.13l3.82 4.037a1.65 1.65 0 0 0 2.446-.003l7.716-9.273 1.666-1.983 1.591-1.894c.835-.993 1.858-1.041 2.712-.127l-6.718-7.435c-.273-.303-.574-.454-.875-.454z"/></mask><g mask="url(#e)"><path fill="#cfdc3c" d="m30.78 34.363-3.725 2.115L7.583 2.188H30.78ZM27.049 36.478l-.158.09L7.368 2.186h.208z"/><path fill="#cfdc3c" d="m26.896 36.567-.157.09L7.165 2.186h.208z"/><path fill="#cedc3d" d="m26.734 36.657-.157.09L6.952 2.187h.208z"/><path fill="#cddc3d" d="m26.582 36.747-.158.089L6.75 2.187h.208z"/><path fill="#ccdb3d" d="m26.423 36.836-.157.09L6.54 2.186h.208z"/><path fill="#cbdb3e" d="m26.261 36.925-.157.09L6.327 2.186h.208z"/><path fill="#cadb3d" d="m26.109 37.014-.157.089L6.124 2.186h.208z"/><path fill="#c9da3d" d="m25.956 37.104-.158.09L5.92 2.186h.208z"/><path fill="#c8da3d" d="m25.794 37.193-.157.09L5.708 2.187h.208z"/><path fill="#c7da3e" d="m25.636 37.284-.157.09L5.499 2.188h.208z"/><path fill="#c6d93e" d="m25.478 37.373-.157.089L5.29 2.187h.208z"/><path fill="#c5d93d" d="m25.322 37.46-.158.09L5.083 2.186h.208z"/><path fill="#c4d93e" d="m25.164 37.551-.158.09L4.874 2.187h.208z"/><path fill="#c3d83e" d="m25.005 37.64-.157.09L4.665 2.187h.208z"/><path fill="#c2d83e" d="m24.843 37.73-.157.09L4.452 2.188h.208z"/><path fill="#c2d83e" d="m24.69 37.82-.157.09L4.281 2.244l.102-.057h.074z"/><path fill="#c1d73d" d="m24.533 37.909-.157.089L4.124 2.334l.157-.09Z"/><path fill="#c0d73e" d="m24.379 37.998-.158.09L3.97 2.422l.157-.089ZM24.22 38.087l-.158.09L3.811 2.511l.157-.09Z"/><path fill="#bfd63e" d="m24.06 38.176-.157.09L3.651 2.602l.158-.09Z"/><path fill="#bed63f" d="m23.906 38.266-.157.09L3.497 2.691l.157-.09Z"/><path fill="#bdd63e" d="m23.747 38.355-.157.09L3.338 2.78l.157-.09Z"/><path fill="#bcd53e" d="m23.59 38.446-.158.09L3.181 2.87l.157-.09Z"/><path fill="#bbd53f" d="m23.43 38.535-.157.089L3.021 2.96l.158-.09Z"/><path fill="#bad53f" d="m23.276 38.623-.157.09L2.867 3.047l.158-.089Z"/><path fill="#b9d43e" d="m23.117 38.713-.157.09L2.708 3.139l.157-.09Z"/><path fill="#b8d43e" d="m22.959 38.802-.157.09L2.55 3.228l.157-.09Z"/><path fill="#b7d43f" d="m22.8 38.893-.158.09L2.391 3.317l.157-.089Z"/><path fill="#b6d33f" d="m22.64 38.982-.157.09L2.231 3.406l.158-.09Z"/><path fill="#b5d33f" d="m22.487 39.07-.157.09L2.078 3.496l.158-.09Z"/><path fill="#b4d33f" d="m22.333 39.16-.157.09L1.924 3.585l.157-.09Z"/><path fill="#b3d23f" d="m22.17 39.249-.158.09L1.761 3.673l.157-.089Z"/><path fill="#b2d23f" d="m22.016 39.34-.158.089L1.606 3.765l.158-.09Z"/><path fill="#b1d23f" d="m21.856 39.428-.157.09L1.447 3.854l.158-.09Z"/><path fill="#b0d140" d="M-35.496 6.846 1.446 3.854l20.252 35.664-36.942 2.992"/><path fill="#afd13f" d="m21.545 39.608-.158.09L1.136 4.032l.157-.09Z"/><path fill="#aed13f" d="m21.38 39.696-.157.09L.972 4.12l.157-.09Z"/><path fill="#add040" d="m21.227 39.787-.158.089L.817 4.212l.158-.09Z"/><path fill="#acd040" d="m21.067 39.876-.157.09L.658 4.302l.158-.09Z"/><path fill="#abd03f" d="m20.913 39.964-.157.09L.504 4.39.66 4.3Z"/><path fill="#aacf40" d="m20.754 40.055-.158.09L.345 4.48l.157-.09Z"/><path fill="#a9cf40" d="m20.597 40.144-.158.09L.187 4.568l.158-.089Z"/><path fill="#a8ce40" d="m20.442 40.233-.157.09L.033 4.659l.158-.09Z"/><path fill="#a7ce41" d="m20.283 40.322-.157.09L-.126 4.748l.157-.09Z"/><path fill="#a6ce40" d="m20.124 40.412-.157.089L-.285 4.837l.157-.09Z"/><path fill="#a5cd40" d="m19.97 40.5-.158.09L-.439 4.926l.157-.09Z"/><path fill="#a4cd40" d="m19.813 40.59-.158.09L-.597 5.016l.158-.09Z"/><path fill="#a3cd41" d="m19.653 40.68-.157.089L-.756 5.105l.158-.09Z"/><path fill="#a2cc41" d="m19.494 40.77-.157.09L-.915 5.196l.157-.09Z"/><path fill="#a1cc40" d="m19.34 40.858-.158.09L-1.069 5.284l.157-.09Z"/><path fill="#a0cc41" d="m19.18 40.947-.157.09L-1.229 5.373l.158-.09Z"/><path fill="#9fcb41" d="m19.022 41.038-.157.089L-1.387 5.463l.158-.09Z"/><path fill="#9ecb41" d="m18.863 41.128-.157.09L-1.546 5.554l.158-.09Z"/><path fill="#9dcb41" d="m18.71 41.217-.158.09L-1.699 5.643l.157-.09Z"/><path fill="#9ccb41" d="m18.55 41.306-.157.09L-1.858 5.731l.157-.09Z"/><path fill="#9bca41" d="m18.392 41.395-.157.09L-2.017 5.82l.158-.09Z"/><path fill="#9aca41" d="m18.233 41.484-.157.09L-2.176 5.91l.158-.09Z"/><path fill="#99ca41" d="m18.08 41.575-.157.09L-2.33 6l.157-.09Z"/><path fill="#98c941" d="m17.92 41.663-.073.042h-.11L-2.489 6.09l.157-.09Z"/><path fill="#97c941" d="M17.531 41.706-2.643 6.179l.158-.09 20.224 35.617Z"/><path fill="#96c941" d="M17.317 41.706-2.806 6.268l.158-.09 20.174 35.528Z"/><path fill="#95c842" d="M17.112 41.706-2.96 6.358l.158-.09L17.32 41.706Z"/><path fill="#94c841" d="M16.902 41.705-3.119 6.446l.157-.089 20.073 35.348Z"/><path fill="#93c841" d="m16.698 41.705-19.97-35.17.157-.089 20.022 35.26Z"/><path fill="#92c742" d="m16.488 41.705-19.92-35.08.158-.09 19.97 35.17Z"/><path fill="#91c742" d="M16.28 41.706-3.59 6.716l.158-.09 19.92 35.08Z"/><path fill="#90c742" d="M16.074 41.705-3.744 6.804l.157-.09 19.87 34.991Z"/><path fill="#8fc742" d="M15.86 41.706-3.909 6.894l.157-.09 19.819 34.902Z"/><path fill="#8ec642" d="M15.654 41.706-4.063 6.983l.158-.089 19.768 34.812Z"/><path fill="#8dc642" d="M15.444 41.706-4.222 7.073l.158-.09 19.717 34.723Z"/><path fill="#8bc542" d="M15.236 41.705-4.378 7.162l.158-.09 19.666 34.633Z"/><path fill="#8ac542" d="M15.036 41.705-4.528 7.251l.157-.09 19.616 34.544Z"/><path fill="#89c542" d="M14.821 41.705-4.692 7.341l.157-.09L15.03 41.705Z"/><path fill="#88c442" d="M14.616 41.705-4.847 7.43l.158-.09 19.514 34.365Z"/><path fill="#87c443" d="M14.406 41.705-5.005 7.52l.158-.09 19.463 34.276Z"/><path fill="#86c443" d="M14.198 41.705-5.163 7.61l.157-.09 19.413 34.186Z"/><path fill="#85c442" d="M13.989 41.705-5.322 7.698l.157-.09 19.362 34.097Z"/><path fill="#84c343" d="M13.779 41.705-5.481 7.787l.157-.089 19.31 34.007Z"/><path fill="#83c343" d="M13.573 41.706-5.636 7.877l.158-.089 19.26 33.918Z"/><path fill="#82c343" d="M13.364 41.705-5.794 7.966l.157-.09 19.21 33.83Z"/><path fill="#81c243" d="M13.155 41.705-5.953 8.055l.157-.089 19.159 33.74Z"/><path fill="#80c243" d="M12.945 41.705-6.112 8.145l.157-.09 19.108 33.65Z"/><path fill="#80c243" d="M12.74 41.705-6.265 8.235l.158-.09 19.057 33.56Z"/><path fill="#7fc143" d="M12.53 41.705-6.424 8.324l.158-.09 19.006 33.471Z"/><path fill="#7ec143" d="M12.326 41.705-6.578 8.413l.157-.09 18.956 33.382Z"/><path fill="#7dc143" d="M12.112 41.706-6.742 8.503l.157-.09L12.32 41.707Z"/><path fill="#7cc143" d="M11.907 41.705-6.896 8.592l.157-.09 18.854 33.203Z"/><path fill="#7bc043" d="M11.697 41.705-7.056 8.682l.158-.09 18.803 33.113Z"/><path fill="#7ac044" d="M11.493 41.705-7.21 8.771l.158-.09L11.7 41.706Z"/><path fill="#77bf44" d="M11.279 41.705-7.372 8.86l.157-.089 18.702 32.934Z"/><path fill="#77bf44" d="m-8.541 9.53 1.178-.67 18.65 32.845H-8.54Z"/></g></g><g transform="translate(-1 -11.001)"><mask id="f" width="17" height="24" x="14" y="11" maskUnits="userSpaceOnUse"><path fill="#fff" d="M29.475 11.961c-.109 0-.22.058-.327.184l-8.368 9.963-1.666 1.983-1.591 1.894c-.834.994-1.858 1.041-2.712.127l6.718 7.435c.565.625 1.247.603 1.802-.057l.402-.479 4.695-5.59c.832-.99 1.369-2.817 1.417-4.821l.293-9.152c.027-.85-.301-1.487-.663-1.487z"/></mask><g mask="url(#f)"><path fill="#60c9e5" d="M5.27 11.19 9.04 9.05l18.009 31.715H5.27ZM9.047 9.05l.109-.062L27.2 40.765h-.144Z"/><path fill="#60c8e5" d="m9.15 8.988.11-.062 18.079 31.839h-.144z"/><path fill="#61c7e4" d="m9.26 8.926.11-.062 18.115 31.9h-.145z"/><path fill="#60c6e4" d="m9.37 8.864.11-.062 18.15 31.963h-.145z"/><path fill="#61c5e3" d="m9.48 8.802.109-.062 18.185 32.025h-.145z"/><path fill="#60c4e3" d="m9.589 8.74.109-.062 18.22 32.087h-.144z"/><path fill="#60c4e3" d="m9.693 8.678.11-.062 18.255 32.149h-.144z"/><path fill="#5fc3e2" d="m9.803 8.616.109-.062 18.29 32.21h-.144z"/><path fill="#5fc2e2" d="m9.914 8.554.11-.062 18.325 32.273h-.144z"/><path fill="#5ec1e1" d="m10.023 8.492.11-.062 18.36 32.335h-.144z"/><path fill="#5ec0e1" d="m10.132 8.43.109-.062 18.396 32.397h-.144z"/><path fill="#5ebfe0" d="m10.243 8.368.11-.062 18.43 32.459h-.144z"/><path fill="#5ebee0" d="m10.352 8.306.109-.062 18.466 32.52h-.144z"/><path fill="#5dbee0" d="m10.462 8.244.109-.062 18.502 32.583h-.145z"/><path fill="#5dbddf" d="m10.566 8.182.11-.062 18.536 32.645h-.144Z"/><path fill="#5ebddf" d="m10.676 8.12.109-.062 18.572 32.707h-.144z"/><path fill="#5dbcdf" d="m10.786 8.059.11-.062L29.488 40.74l-.04.024h-.09z"/><path fill="#5dbbde" d="m10.896 7.997.109-.062L29.599 40.68l-.11.062z"/><path fill="#5cbade" d="m11.005 7.935.109-.062 18.594 32.745-.11.062Z"/><path fill="#5cbade" d="m11.114 7.873.11-.062 18.593 32.745-.109.062z"/><path fill="#5bb9de" d="m11.219 7.81.109-.062 18.594 32.745-.11.062z"/><path fill="#5bb8dd" d="m11.334 7.748.11-.062 18.593 32.745-.109.062Z"/><path fill="#5ab8dd" d="m11.438 7.687.11-.062L30.142 40.37l-.11.062Z"/><path fill="#5bb6dc" d="m11.553 7.625.109-.062 18.594 32.745-.11.062z"/><path fill="#5ab6db" d="m11.657 7.563.11-.062L30.36 40.246l-.109.062z"/><path fill="#5ab5dc" d="m11.773 7.5.109-.062 18.594 32.745-.11.062z"/><path fill="#5ab5db" d="m11.876 7.439.11-.062 18.593 32.745-.109.062Z"/><path fill="#59b4db" d="m11.991 7.377.11-.062L30.693 40.06l-.109.062z"/><path fill="#5ab3da" d="m12.09 7.314.11-.062 18.594 32.745-.11.062Z"/><path fill="#59b2da" d="m12.205 7.254.11-.062 18.593 32.745-.109.062Z"/><path fill="#59b2da" d="m12.315 7.192.109-.062 18.594 32.745-.11.062z"/><path fill="#58b1da" d="m12.425 7.13.109-.063 18.594 32.745-.11.062Z"/><path fill="#58b1d9" d="m12.528 7.067.11-.062L31.23 39.75l-.109.062Z"/><path fill="#57b0d9" d="m12.644 7.005.109-.062 18.594 32.745-.11.062Z"/><path fill="#57afd9" d="m12.748 6.944.11-.062L31.45 39.627l-.109.061z"/><path fill="#56aed8" d="m12.863 6.882.11-.062 18.593 32.745-.109.062Z"/><path fill="#57aed8" d="m12.967 6.82.109-.063L31.67 39.502l-.11.062Z"/><path fill="#57add8" d="m13.077 6.757.11-.062L31.78 39.44l-.109.062Z"/><path fill="#56acd7" d="m13.187 6.695.109-.062L31.89 39.378l-.11.061z"/><path fill="#57abd7" d="m13.296 6.633.109-.062 18.594 32.745-.109.062Z"/><path fill="#56abd6" d="m13.405 6.572.11-.062 18.593 32.745-.109.061z"/><path fill="#56aad6" d="m13.516 6.51.109-.063 18.594 32.745-.11.062Z"/><path fill="#55a9d5" d="m13.62 6.448.108-.062L32.322 39.13l-.109.062z"/><path fill="#55a9d6" d="m13.734 6.386.11-.062 18.594 32.744-.11.062z"/><path fill="#54a8d5" d="m13.839 6.323.109-.062 18.594 32.745-.11.062Z"/><path fill="#55a7d5" d="m13.953 6.261.11-.062 18.593 32.745-.109.062z"/><path fill="#55a7d4" d="m14.058 6.2.109-.062L32.76 38.882l-.11.062Z"/><path fill="#54a6d4" d="m14.173 6.138.109-.062 18.594 32.745-.11.062Z"/><path fill="#54a6d4" d="m14.277 6.075.11-.062L32.98 38.758l-.109.062z"/><path fill="#53a5d4" d="m14.392 6.014.109-.062 18.594 32.745-.11.062z"/><path fill="#54a4d3" d="m14.496 5.953.11-.062 18.593 32.745-.109.062z"/><path fill="#52a3d3" d="m14.611 5.89.11-.062 18.593 32.745-.109.062z"/><path fill="#53a3d2" d="m14.716 5.828.109-.062 18.594 32.745-.11.062Z"/><path fill="#52a2d2" d="m14.83 5.767.11-.062L33.532 38.45l-.109.062Z"/><path fill="#52a2d2" d="m14.935 5.703.109-.062 18.594 32.745-.11.062z"/><path fill="#53a1d1" d="m15.044 5.642.11-.062 18.593 32.745-.109.062Z"/><path fill="#51a0d1" d="m15.154 5.58.11-.062 18.593 32.745-.109.062z"/><path fill="#52a0d1" d="m15.264 5.518.109-.062 18.594 32.745-.11.062z"/><path fill="#519fd1" d="m15.368 5.456.11-.062L34.07 38.14l-.109.062z"/><path fill="#529ed0" d="m15.482 5.395.047-.027h.083l18.574 32.71-.11.062z"/><path fill="#519dcf" d="m15.754 5.367 18.538 32.648-.109.062L15.61 5.367ZM15.901 5.368l18.504 32.585-.11.062L15.757 5.368Z"/><path fill="#509ccf" d="m16.039 5.368 18.468 32.524-.109.062L15.894 5.368Z"/><path fill="#509bcf" d="M16.186 5.367 34.62 37.83l-.11.062L16.042 5.367Z"/><path fill="#519bce" d="m16.334 5.368 18.398 32.4-.11.061L16.19 5.368Z"/><path fill="#509ace" d="m16.471 5.368 18.363 32.338-.109.062-18.398-32.4Z"/><path fill="#5099cd" d="m16.62 5.368 18.327 32.276-.109.062L16.476 5.368Z"/><path fill="#4f99cd" d="M16.767 5.368 35.06 37.582l-.11.062L16.624 5.368Z"/><path fill="#4f98cd" d="M16.904 5.368 35.161 37.52l-.109.062L16.76 5.368Z"/><path fill="#4e97cd" d="m17.048 5.367 18.222 32.09-.11.062L16.904 5.367Z"/><path fill="#4f97cc" d="m17.201 5.368 18.187 32.028-.11.062-18.221-32.09Z"/><path fill="#4f96cc" d="m17.338 5.368 18.151 31.966-.109.062L17.193 5.368Z"/><path fill="#4e96cb" d="m17.481 5.367 18.117 31.904-.11.062L17.338 5.367Z"/><path fill="#4f95cb" d="M17.629 5.367 35.71 37.21l-.11.062L17.485 5.367Z"/><path fill="#4e94cb" d="m17.77 5.368 18.046 31.78-.109.061L17.626 5.368Z"/><path fill="#4e94cb" d="m17.914 5.368 18.01 31.718-.108.062-18.047-31.78Z"/><path fill="#4d93ca" d="m18.067 5.367 17.976 31.656-.11.062-18.01-31.718Z"/><path fill="#4d92ca" d="m18.209 5.367 17.94 31.594-.109.062L18.064 5.367Z"/><path fill="#4e92c9" d="M18.348 5.368 36.252 36.9l-.11.061-17.94-31.593Z"/><path fill="#4d91c9" d="m18.495 5.368 17.87 31.47-.11.062L18.352 5.368ZM18.642 5.368l17.835 31.408-.109.062-17.87-31.47Z"/><path fill="#4c90c9" d="m18.785 5.368 17.8 31.346-.11.062L18.642 5.368Z"/><path fill="#4d8fc8" d="m18.923 5.368 17.764 31.284-.109.062-17.8-31.346ZM19.075 5.369l17.73 31.222-.11.062L18.931 5.369Z"/><path fill="#4c8ec8" d="m19.218 5.368 17.694 31.16-.11.062L19.074 5.368Z"/><path fill="#4c8dc7" d="m19.361 5.368 17.66 31.098-.11.062-17.694-31.16Z"/><path fill="#4b8dc7" d="m19.509 5.368 17.623 31.036-.109.062L19.364 5.368Z"/><path fill="#4c8cc6" d="M19.651 5.369 37.24 36.343l-.11.062L19.508 5.369Z"/><path fill="#4b8bc7" d="M19.789 5.367 37.342 36.28l-.109.062L19.645 5.368Z"/><path fill="#4b8bc6" d="m19.936 5.367 17.519 30.85-.11.062L19.793 5.367Z"/><path fill="#4b8ac6" d="m20.084 5.368 17.483 30.788-.11.062L19.94 5.368Z"/><path fill="#4b8ac5" d="M20.223 5.368 37.67 36.095l-.109.062L20.078 5.368ZM20.37 5.367l17.413 30.665-.11.062L20.226 5.367Z"/><path fill="#4a89c5" d="M20.517 5.368 37.895 35.97l-.11.062L20.374 5.368Z"/><path fill="#4a88c5" d="m20.659 5.368 17.342 30.54-.109.063L20.515 5.368ZM20.808 5.368l17.308 30.479-.11.062-17.342-30.54Z"/><path fill="#4987c5" d="m20.95 5.369 17.272 30.416-.11.062L20.807 5.37Z"/><path fill="#4a87c4" d="m21.093 5.368 17.236 30.354-.109.062L20.948 5.368Z"/><path fill="#4986c4" d="m21.236 5.368 17.202 30.293-.11.062L21.093 5.368Z"/><path fill="#4986c3" d="m21.384 5.368 17.166 30.23-.11.063-17.2-30.293Z"/><path fill="#4a85c3" d="m21.526 5.368 17.131 30.169-.109.062L21.382 5.368Z"/><path fill="#4984c3" d="M21.664 5.368 38.76 35.475l-.11.062L21.52 5.368ZM21.817 5.368l17.061 30.045-.11.062L21.674 5.368Z"/><path fill="#4883c3" d="M21.954 5.368 38.98 35.35l-.11.062L21.81 5.368Z"/><path fill="#4883c2" d="m22.101 5.368 16.99 29.921-.108.062L21.957 5.368Z"/><path fill="#4982c2" d="m22.25 5.367 16.955 29.86-.109.061-16.99-29.92Z"/><path fill="#4782c2" d="m22.392 5.368 16.92 29.797-.109.062-16.955-29.86Z"/><path fill="#4881c1" d="m22.534 5.368 16.885 29.735-.11.062L22.39 5.368Z"/><path fill="#4881c1" d="m22.677 5.368 16.85 29.673-.109.062L22.533 5.367Z"/><path fill="#4780c2" d="m22.825 5.368 16.814 29.611-.109.062L22.68 5.368Z"/><path fill="#4780c1" d="M22.968 5.368 39.7 34.837v.107l-.063.035L22.823 5.37Z"/><path fill="#4680c1" d="m23.111 5.369 16.59 29.214v.254L22.966 5.369Z"/><path fill="#4780c1" d="m23.259 5.368 16.444 28.96v.254L23.114 5.368Z"/><path fill="#477fc0" d="m23.401 5.368 16.3 28.706v.254L23.258 5.368Z"/><path fill="#467fc0" d="M23.544 5.367 39.7 33.82v.254L23.4 5.367Z"/><path fill="#467ec0" d="m23.691 5.368 16.012 28.198v.254L23.547 5.368Z"/><path fill="#477ebf" d="m23.834 5.369 15.868 27.943v.254L23.69 5.37Z"/><path fill="#467dbf" d="M23.976 5.368 39.7 33.058v.254L23.832 5.368ZM39.704 33.058 23.98 5.368h15.724z"/></g></g></svg>