<svg width="41" height="40" viewBox="0 0 41 40" fill="none" xmlns="http://www.w3.org/2000/svg">
<path fill-rule="evenodd" clip-rule="evenodd" d="M16.4849 3.36741C16.2282 3.39017 15.9929 3.43416 15.9619 3.46523C15.9308 3.49629 15.8569 3.52247 15.7977 3.52346C15.7384 3.52446 15.5953 3.57093 15.4796 3.6268C15.364 3.68268 15.2399 3.72914 15.2037 3.73014C15.1676 3.73114 15.138 3.75558 15.138 3.78449C15.138 3.8134 15.1085 3.8371 15.0723 3.83721C14.9459 3.83753 14.3882 4.24956 14.0659 4.58065C13.7459 4.90933 13.3509 5.45014 13.3509 5.55952C13.3509 5.59027 13.3306 5.62328 13.3058 5.63295C13.281 5.64257 13.1804 5.87516 13.0824 6.1498C12.9061 6.64346 12.9041 6.65939 12.9041 7.5478C12.9041 8.13955 12.9244 8.47164 12.9637 8.52021C12.9965 8.56078 13.0398 8.67075 13.0598 8.76457C13.0997 8.95117 13.3842 9.54517 13.5635 9.81603L13.6765 9.98686H9.56648C5.08627 9.98686 5.21973 9.97871 4.59923 10.2897C4.28233 10.4486 3.72349 11.0059 3.57205 11.3142C3.27881 11.9108 3.28517 11.8478 3.28517 14.1656C3.28517 15.8537 3.30062 16.3605 3.35644 16.5046C3.50214 16.8808 3.65284 17.1879 3.69179 17.1879C3.71387 17.1879 3.73195 17.22 3.73195 17.2591C3.73195 17.4153 4.61163 18.134 4.8028 18.134C4.84364 18.134 4.89142 18.1715 4.90898 18.2172C4.92653 18.2629 4.94088 21.8976 4.94088 26.2943C4.94088 32.0122 4.95786 34.3857 5.00044 34.6303C5.09762 35.1885 5.24759 35.4649 5.70304 35.9251C6.12711 36.3537 6.56727 36.5756 7.11923 36.6391C7.68359 36.704 33.0523 36.704 33.6167 36.6391C34.1686 36.5756 34.6088 36.3537 35.0329 35.9251C35.4883 35.4649 35.6383 35.1885 35.7355 34.6303C35.778 34.3857 35.795 32.0122 35.795 26.2943C35.795 21.8976 35.8094 18.2629 35.8269 18.2172C35.8445 18.1715 35.8923 18.134 35.9331 18.134C36.1243 18.134 37.004 17.4153 37.004 17.2591C37.004 17.22 37.022 17.1879 37.0441 17.1879C37.1016 17.1879 37.3 16.7406 37.3992 16.3877C37.5224 15.9491 37.4882 12.0691 37.3583 11.7477C37.0936 11.093 36.6261 10.5351 36.1367 10.2897C35.5162 9.97871 35.6496 9.98686 31.1694 9.98686H27.0594L27.1727 9.81603C27.3488 9.55069 27.6291 8.94202 27.7354 8.59395C27.8729 8.14423 27.8709 6.83747 27.7321 6.38633C27.5069 5.6544 27.0478 4.88746 26.6022 4.49871C26.5331 4.43837 26.4384 4.35106 26.392 4.30481C26.2587 4.17198 25.7377 3.83705 25.6643 3.83705C25.6278 3.83705 25.5979 3.8134 25.5979 3.78449C25.5979 3.75558 25.5684 3.73114 25.5322 3.73014C25.4961 3.72914 25.3719 3.68268 25.2563 3.6268C25.1406 3.57093 24.9975 3.52446 24.9383 3.52346C24.879 3.52247 24.8062 3.49739 24.7765 3.4677C24.6923 3.38349 23.7277 3.319 23.2326 3.36446C22.8042 3.40378 22.2628 3.53976 22.1577 3.63442C22.1302 3.65913 22.0752 3.67936 22.0355 3.67936C21.8723 3.67936 21.1819 4.15248 20.7888 4.5335C20.5578 4.75758 20.3684 4.94086 20.368 4.94086C20.3675 4.94086 20.1781 4.75758 19.947 4.5335C19.5516 4.15027 19.0332 3.78927 18.7563 3.70423C18.6887 3.68346 18.6097 3.64935 18.5808 3.62838C18.4498 3.5334 17.909 3.40194 17.4772 3.3601C17.2169 3.33492 16.9921 3.31695 16.9777 3.32021C16.9632 3.32341 16.7415 3.3447 16.4849 3.36741ZM16.4831 5.07679C16.3412 5.11542 16.1484 5.18344 16.0547 5.22791C15.961 5.27243 15.8676 5.3088 15.8472 5.3088C15.7186 5.3088 15.0127 5.98212 14.9517 6.16294C14.9346 6.21356 14.8986 6.25492 14.8717 6.25492C14.8447 6.25492 14.8225 6.28452 14.8223 6.32063C14.8221 6.35679 14.7911 6.44546 14.7534 6.51774C14.6953 6.62922 14.6504 6.81513 14.5355 7.42134C14.4879 7.67285 14.7212 8.49529 14.9425 8.85613C15.0707 9.06507 15.6208 9.56867 15.8366 9.67453C16.4026 9.95232 16.3945 9.95122 17.9924 9.97324L19.5065 9.99411L19.4904 8.42675C19.4798 7.3817 19.4545 6.82438 19.4147 6.75427C19.3818 6.69645 19.3009 6.52499 19.2349 6.37319C19.1688 6.22139 19.0952 6.09724 19.0712 6.09724C19.0472 6.09724 19.0276 6.074 19.0276 6.04562C19.0276 5.91106 18.3914 5.38386 18.0552 5.23984C17.4944 4.99958 16.9672 4.94491 16.4831 5.07679ZM23.1012 5.09356C22.9277 5.14239 22.6626 5.24951 22.5119 5.33166C22.2239 5.48867 21.7083 5.94339 21.7083 6.04036C21.7083 6.07164 21.6888 6.09724 21.665 6.09724C21.6118 6.09724 21.3929 6.52688 21.3929 6.63127C21.3929 6.6729 21.3634 6.7365 21.3272 6.77256C21.2783 6.82144 21.2574 7.24184 21.2455 8.41618L21.2295 9.99411L22.7435 9.97324C24.3439 9.95117 24.3322 9.95279 24.9057 9.67148C25.2112 9.52163 25.6947 9.02544 25.8801 8.67148C26.4589 7.56641 26.1576 6.2482 25.1511 5.48273C25.0355 5.39479 24.8818 5.30496 24.8095 5.2831C24.7372 5.26123 24.6544 5.22517 24.6255 5.20289C24.5236 5.12446 23.9045 4.99348 23.662 4.99915C23.527 5.00226 23.2747 5.04478 23.1012 5.09356ZM5.70304 11.7031C5.64522 11.7154 5.54992 11.7356 5.49126 11.7479C5.4326 11.7601 5.30251 11.8434 5.20217 11.933L5.01973 12.0958L5.00538 14.0768C4.98903 16.3403 4.98546 16.319 5.41941 16.5413L5.65048 16.6596L10.9067 16.6478L16.163 16.636V14.1656V11.6951L10.9856 11.688C8.13799 11.684 5.76086 11.6909 5.70304 11.7031ZM17.8712 14.1656V16.6623H20.368H22.8647V14.1656V11.6689H20.368H17.8712V14.1656ZM24.5713 11.7331C24.5571 11.77 24.5517 12.8883 24.5592 14.2181L24.5729 16.636L29.8292 16.6478L35.0854 16.6596L35.3165 16.5413C35.7503 16.3191 35.7469 16.3392 35.7305 14.0854C35.7146 11.8935 35.7395 12.044 35.3506 11.7947C35.2012 11.6989 34.9932 11.6946 29.8962 11.6805C25.6338 11.6688 24.592 11.6791 24.5713 11.7331ZM6.62288 26.3301C6.62288 31.0942 6.64249 34.368 6.6715 34.4443C6.73878 34.6212 6.93095 34.8145 7.14346 34.9187C7.3063 34.9987 7.71996 35.0066 11.756 35.0066H16.1896L16.1763 26.6886L16.163 18.3706L11.3929 18.3572L6.62288 18.3437V26.3301ZM17.8712 26.6754V35.0066H20.368H22.8647V26.6754V18.3443H20.368H17.8712V26.6754ZM24.5817 18.3793C24.5624 18.3986 24.5467 22.1476 24.5467 26.7105V35.0066H28.9801C33.0159 35.0066 33.4296 34.9987 33.5924 34.9187C33.805 34.8145 33.9971 34.6212 34.0644 34.4443C34.0934 34.368 34.113 31.0943 34.113 26.3304V18.3443H29.3649C26.7534 18.3443 24.601 18.36 24.5817 18.3793Z" fill="black"/>
</svg>
