<svg width="41" height="40" viewBox="0 0 41 40" fill="none" xmlns="http://www.w3.org/2000/svg">
<g clip-path="url(#clip0_1063_1252)">
<path fill-rule="evenodd" clip-rule="evenodd" d="M3.73435 0.0498479C2.84192 0.187006 1.86629 0.796059 1.19182 1.63701C1.08492 1.77027 0.997503 1.90643 0.997503 1.93964C0.997503 1.97285 0.97903 2.00001 0.956398 2.00001C0.933819 2.00001 0.887398 2.06516 0.853293 2.14474C0.613872 2.70332 0.557398 2.85943 0.467872 3.21053C0.369766 3.59511 0.367188 4.02622 0.367188 20C0.367188 35.9738 0.369766 36.4049 0.467872 36.7895C0.557398 37.1406 0.613872 37.2967 0.853293 37.8553C0.887398 37.9348 0.933819 38 0.956398 38C0.97903 38 0.997503 38.0256 0.997503 38.057C0.997503 38.0883 1.08566 38.2244 1.19335 38.3596C1.77966 39.0951 2.3785 39.5137 3.33961 39.86L3.6554 39.9737H20.3922H37.1291L37.4449 39.86C38.406 39.5137 39.0048 39.0951 39.5911 38.3596C39.6988 38.2244 39.787 38.0883 39.787 38.057C39.787 38.0256 39.8055 38 39.8281 38C39.8507 38 39.8971 37.9348 39.9312 37.8553C39.9653 37.7756 40.0438 37.5921 40.1056 37.4474C40.2188 37.1822 40.2971 36.9072 40.3492 36.5921C40.3647 36.498 40.3986 36.4211 40.4243 36.4211C40.4516 36.4211 40.4709 29.5407 40.4704 19.9342C40.4699 10.6772 40.4497 3.4788 40.4242 3.51901C40.392 3.56985 40.3704 3.53927 40.3499 3.41374C40.2977 3.09474 40.2197 2.82006 40.1056 2.55264C40.0438 2.4079 39.9653 2.22437 39.9312 2.14474C39.8971 2.06516 39.8507 2.00001 39.8281 2.00001C39.8055 2.00001 39.787 1.97437 39.787 1.94306C39.787 1.86822 39.4565 1.4558 39.1569 1.1569C38.8667 0.867269 38.2751 0.470795 37.9186 0.326953C37.7738 0.268585 37.5488 0.177058 37.4186 0.123585C37.1901 0.0297427 36.5968 0.0261111 20.5765 0.0198479C11.4436 0.0163216 3.86461 0.0297953 3.73435 0.0498479ZM4.31329 1.66701C3.96461 1.70211 3.49703 1.85416 3.27119 2.0059C3.14671 2.08948 3.03366 2.1579 3.01998 2.1579C3.00635 2.1579 2.88198 2.27653 2.74371 2.42153C2.41008 2.77127 2.17182 3.25074 2.10303 3.71053C2.06614 3.95743 2.05266 6.56153 2.06219 11.6053L2.07645 19.1316L10.8001 19.1449L19.5238 19.1582V10.3949V1.63158L12.0107 1.64001C7.8784 1.64464 4.41461 1.6568 4.31329 1.66701ZM21.2607 10.3932V19.1582L29.9843 19.1449L38.708 19.1316L38.7223 11.6053C38.7318 6.56153 38.7183 3.95743 38.6815 3.71053C38.6127 3.25074 38.3744 2.77127 38.0408 2.42153C37.9025 2.27653 37.7781 2.1579 37.7645 2.1579C37.7508 2.1579 37.6378 2.09053 37.5133 2.00822C37.3888 1.9259 37.1686 1.81453 37.0238 1.76069C36.7725 1.66727 36.4117 1.66211 29.0107 1.64558L21.2607 1.62827V10.3932ZM0.391924 20C0.391924 29.075 0.397977 32.7875 0.405398 28.25C0.412819 23.7125 0.412819 16.2875 0.405398 11.75C0.397977 7.21253 0.391924 10.925 0.391924 20ZM10.1117 6.66927C9.93229 6.70348 9.5985 7.06069 9.55835 7.26153C9.53935 7.35648 9.52382 8.01043 9.52382 8.71469V9.99516L8.11592 10.0107C6.74808 10.0259 6.70324 10.0297 6.54019 10.1461C6.09156 10.4661 6.0945 11.1561 6.54603 11.5004L6.71798 11.6316H8.12087H9.52382V12.9789C9.52382 14.5037 9.53966 14.5806 9.90903 14.8482C10.1516 15.0239 10.4816 15.0517 10.7398 14.9183C11.2039 14.6782 11.2607 14.4568 11.2607 12.8854V11.6316L12.6422 11.6312C13.907 11.6309 14.0366 11.6225 14.1743 11.5317C14.4246 11.3666 14.5231 11.1671 14.5235 10.8239C14.5239 10.4863 14.4414 10.3001 14.2168 10.1316C14.086 10.0335 13.9811 10.0253 12.6711 10.0107L11.2657 9.99522L11.25 8.66864C11.2352 7.41548 11.2278 7.3288 11.1157 7.10132C10.9366 6.73785 10.573 6.58143 10.1117 6.66927ZM26.7326 10.0426C26.4021 10.1913 26.2606 10.423 26.261 10.8144C26.2614 11.1677 26.3575 11.3651 26.6102 11.5317C26.7539 11.6265 26.9238 11.6309 30.4136 11.6312L34.0665 11.6316L34.2385 11.5004C34.69 11.1561 34.6929 10.4661 34.2443 10.1461L34.0765 10.0263L30.4449 10.0163C28.4475 10.0108 26.777 10.0226 26.7326 10.0426ZM2.05056 28.4079C2.05077 33.3218 2.06987 36.0936 2.10492 36.3158C2.17356 36.7503 2.42177 37.241 2.74371 37.5785C2.88198 37.7235 3.01156 37.8421 3.03166 37.8421C3.05171 37.8421 3.10929 37.8793 3.15956 37.9248C3.20982 37.9703 3.42487 38.0828 3.6374 38.1748L4.02382 38.3421L11.7738 38.357L19.5238 38.3717V29.607V20.8421H10.787H2.05013L2.05056 28.4079ZM21.2607 29.6066V38.3714L28.9843 38.3555C36.4458 38.3401 36.7179 38.3361 36.9975 38.2384C37.1567 38.1827 37.3888 38.0708 37.5133 37.9897C37.6378 37.9085 37.7508 37.8421 37.7645 37.8421C37.7781 37.8421 37.9025 37.7235 38.0408 37.5785C38.3744 37.2287 38.6127 36.7493 38.6815 36.2895C38.7183 36.0426 38.7318 33.4385 38.7223 28.3947L38.708 20.8684L29.9843 20.8551L21.2607 20.8418V29.6066ZM7.65882 26.7032C7.39787 26.775 7.1565 27.0254 7.07182 27.3122C6.9505 27.7232 7.03829 27.8577 8.15635 28.9746C8.70582 29.5235 9.1554 29.9882 9.1554 30.0071C9.1554 30.0261 8.6995 30.5016 8.14224 31.0638C7.28203 31.9317 7.11998 32.1203 7.06882 32.313C6.98724 32.62 7.09698 32.9442 7.35408 33.1561C7.57777 33.3405 7.76561 33.3902 8.05435 33.3414C8.24256 33.3096 8.38413 33.1888 9.29413 32.2843C9.85919 31.7227 10.3493 31.2632 10.3833 31.2632C10.4174 31.2632 10.8596 31.6794 11.3661 32.1882C11.8726 32.697 12.3576 33.1644 12.4439 33.2268C12.6721 33.3919 13.1209 33.3848 13.3529 33.2124C13.6081 33.0228 13.7543 32.6851 13.7098 32.3881C13.6701 32.1237 13.4967 31.9225 12.2475 30.6919C11.9073 30.3568 11.6291 30.0522 11.6291 30.015C11.6291 29.9778 12.0541 29.5243 12.5735 29.0072C13.0936 28.4896 13.5692 27.9688 13.632 27.8484C13.9448 27.2481 13.344 26.5264 12.6785 26.7029C12.4851 26.7542 12.2985 26.9145 11.4298 27.7763C10.8681 28.3335 10.393 28.7892 10.3741 28.7889C10.3551 28.7886 9.90145 28.3479 9.36592 27.8096C8.25456 26.6926 8.0884 26.5849 7.65882 26.7032ZM26.8396 26.7122C26.6941 26.7574 26.5368 26.8598 26.4317 26.9776C26.2786 27.1495 26.2607 27.203 26.2607 27.4894C26.2607 27.88 26.3945 28.1092 26.7137 28.265C26.9246 28.368 27.0183 28.3703 30.481 28.3564L34.0321 28.3421L34.2259 28.1942C34.5661 27.9347 34.6682 27.4915 34.475 27.1128C34.345 26.858 34.2791 26.806 33.9655 26.7108C33.5954 26.5985 27.2014 26.5998 26.8396 26.7122ZM26.7607 31.74C26.6738 31.7656 26.5258 31.8728 26.4317 31.9781C26.2789 32.1492 26.2607 32.2033 26.2607 32.4864C26.2607 32.8841 26.3889 33.1086 26.7026 33.2605C26.9273 33.3693 26.971 33.3704 30.481 33.3564L34.0321 33.3421L34.2212 33.1978C34.5641 32.9362 34.6699 32.5242 34.4893 32.1528C34.3741 31.9157 34.2394 31.7911 34.0348 31.7324C33.8186 31.6704 26.9718 31.6775 26.7607 31.74Z" fill="black"/>
</g>
<defs>
<clipPath id="clip0_1063_1252">
<rect width="40.0526" height="40" fill="white" transform="translate(0.367188)"/>
</clipPath>
</defs>
</svg>
