<svg width="41" height="40" viewBox="0 0 41 40" fill="none" xmlns="http://www.w3.org/2000/svg">
<g clip-path="url(#clip0_1063_1258)">
<path fill-rule="evenodd" clip-rule="evenodd" d="M19.181 0.702948C19.1655 0.718559 18.8469 0.756142 18.4731 0.78647C17.8395 0.837929 17.5112 0.884657 16.9229 1.00723C16.7928 1.03435 16.5327 1.08792 16.3448 1.12634C16.1568 1.16476 15.873 1.23572 15.714 1.28403C15.555 1.33228 15.3195 1.39451 15.1905 1.42227C15.0616 1.45002 14.9327 1.49617 14.9041 1.52481C14.8754 1.55346 14.8071 1.5769 14.7522 1.5769C14.6973 1.5769 14.5778 1.60918 14.4867 1.6486C14.3956 1.68802 14.2265 1.75677 14.1108 1.80135C13.7014 1.95909 13.0049 2.2537 12.8494 2.33491C12.7626 2.38022 12.6621 2.41738 12.626 2.41759C12.5899 2.41774 12.5603 2.44156 12.5603 2.47046C12.5603 2.49937 12.5307 2.52319 12.4946 2.52334C12.4241 2.52371 12.3659 2.5523 11.7981 2.86568C11.189 3.20182 11.1418 3.23104 11.1414 3.27204C11.1412 3.29375 11.1165 3.31146 11.0865 3.31146C10.9915 3.31146 9.47495 4.36418 9.35395 4.51409C9.33949 4.53202 9.2094 4.64124 9.06486 4.75677C8.41755 5.27425 7.21193 6.49096 6.88746 6.95425C6.84541 7.01422 6.77413 7.10206 6.72903 7.14947C6.59358 7.29175 6.4421 7.48192 6.34838 7.62736C6.29976 7.70279 6.2279 7.7974 6.18864 7.83761C6.06459 7.96466 5.32588 9.10321 5.10112 9.51383C4.91416 9.85527 4.39185 10.9095 4.25471 11.2221C4.22932 11.2799 4.15999 11.4383 4.1006 11.574C4.0412 11.7097 3.99258 11.8529 3.99258 11.892C3.99258 11.9312 3.97229 11.9857 3.94754 12.0132C3.92278 12.0406 3.84846 12.2405 3.78244 12.4573C3.71642 12.6741 3.63022 12.9261 3.59095 13.0172C3.55169 13.1083 3.51952 13.2328 3.51952 13.2939C3.51952 13.3549 3.49681 13.446 3.46906 13.4962C3.38938 13.6404 3.17676 14.6344 3.06733 15.3745C2.94039 16.2328 2.89461 16.6677 2.89161 17.0441L2.88877 17.3996L2.65224 17.5145C2.52215 17.5777 2.41571 17.6483 2.41571 17.6715C2.41571 17.6946 2.39111 17.7136 2.36104 17.7136C2.27127 17.7136 1.99274 17.9301 1.65098 18.2655C1.21508 18.6932 0.68115 19.5422 0.68115 19.8073C0.68115 19.8584 0.658968 19.9226 0.631793 19.9501C0.604671 19.9775 0.545539 20.2304 0.500387 20.5119C0.434895 20.9205 0.418285 21.4991 0.41797 23.3766C0.417812 24.7499 0.440992 25.9044 0.473791 26.1498C0.61429 27.2022 1.00756 27.9886 1.73024 28.6623C2.04451 28.9554 2.55663 29.3262 2.75737 29.4062C3.92798 29.8727 4.92846 29.9131 5.68924 29.5247C6.37681 29.1736 6.78254 28.7059 7.05398 27.9514L7.17261 27.6216V23.4166V19.2116L7.05082 18.8962C6.76062 18.1446 6.32373 17.6504 5.67458 17.3395C5.42969 17.2222 4.9961 17.0828 4.87616 17.0828C4.79558 17.0828 4.7837 17.0505 4.80373 16.8857C4.91652 15.9575 4.954 15.6854 5.02286 15.2957C5.06627 15.05 5.13608 14.7129 5.17797 14.5467C5.37287 13.773 5.42612 13.5783 5.47642 13.456C5.50617 13.3837 5.54906 13.2536 5.57171 13.1669C5.59437 13.0802 5.66428 12.8791 5.72704 12.7201C5.7898 12.5611 5.85377 12.3837 5.86922 12.3259C5.88467 12.2681 6.08294 11.8374 6.3099 11.3688C6.71668 10.5288 7.1796 9.72303 7.47059 9.34857C7.55243 9.24324 7.61939 9.14184 7.61939 9.12329C7.61939 9.08986 8.12851 8.40813 8.19127 8.35746C8.20919 8.343 8.31794 8.21291 8.433 8.06836C8.67363 7.76597 9.62354 6.80313 10.011 6.46889C10.1555 6.34421 10.3329 6.19057 10.4052 6.1275C11.1085 5.51383 12.4327 4.66195 13.4275 4.18326C13.9348 3.93916 14.0491 3.88676 14.4571 3.71115C14.6835 3.61375 15.9913 3.1922 16.3973 3.08581C17.0838 2.90584 17.397 2.8384 17.5458 2.8384C17.6331 2.8384 17.7663 2.81491 17.8418 2.78621C17.9174 2.75751 18.4807 2.6999 19.0936 2.65827C20.618 2.55472 22.2175 2.65491 23.2953 2.9215C23.4611 2.96255 23.6436 2.99609 23.7009 2.99609C23.7581 2.99609 23.9181 3.03162 24.0564 3.07499C24.1948 3.1184 24.4262 3.18915 24.5708 3.2322C26.1266 3.69585 27.0152 4.10968 28.7221 5.16566C28.8871 5.26768 30.07 6.15414 30.2734 6.32818C30.5856 6.5953 32.1135 8.14994 32.1135 8.20056C32.1135 8.22679 32.1566 8.29054 32.2092 8.34226C32.4094 8.5388 33.2992 9.79903 33.4459 10.0938C33.467 10.1362 33.5651 10.3128 33.6639 10.4862C33.9473 10.9838 34.3437 11.8124 34.5316 12.2996C34.6263 12.5454 34.7233 12.7937 34.7471 12.8515C34.8482 13.0963 35.0273 13.7136 35.2389 14.5467C35.329 14.9013 35.4531 15.6224 35.5261 16.2155C35.5546 16.4468 35.5911 16.7365 35.6071 16.8594C35.6323 17.0516 35.623 17.0828 35.54 17.0828C35.4201 17.0828 34.9865 17.2222 34.7416 17.3395C34.0925 17.6504 33.6556 18.1446 33.3654 18.8962L33.2436 19.2116V23.4166C33.2436 27.9907 33.2269 27.6991 33.525 28.3312C33.8487 29.0173 34.668 29.6356 35.3784 29.7299L35.6352 29.7639L35.6345 30.9529C35.634 31.9395 35.6171 32.2091 35.5352 32.5362C35.1959 33.892 34.2753 34.8663 32.8985 35.3269C32.5861 35.4314 32.424 35.4419 30.7731 35.4652L28.986 35.4904L28.8355 35.1619C28.6252 34.7029 28.0031 34.0806 27.5405 33.8661C26.937 33.5864 26.5113 33.5349 24.804 33.5349C22.9677 33.5349 22.688 33.5747 21.9176 33.9461C21.6098 34.0944 20.9556 34.7848 20.7881 35.138C20.3259 36.1126 20.359 36.9658 20.8979 37.9632C20.9409 38.0428 20.9984 38.1078 21.0257 38.1078C21.053 38.1078 21.0754 38.1325 21.0754 38.1629C21.0754 38.2346 21.5793 38.7385 21.651 38.7385C21.6814 38.7385 21.7061 38.7576 21.7061 38.781C21.7061 38.8586 22.3587 39.1496 22.7216 39.2338C23.0094 39.3005 23.4217 39.3167 24.8326 39.3167C26.6482 39.3167 26.8833 39.2945 27.4245 39.0715C27.6312 38.9864 28.381 38.447 28.3824 38.3825C28.3829 38.3615 28.4508 38.2677 28.5333 38.1741C28.6158 38.0805 28.751 37.8748 28.8337 37.7168L28.984 37.4297L30.667 37.4095C32.2325 37.3907 33.107 37.3254 33.2416 37.2173C33.2716 37.1933 33.3965 37.157 33.5193 37.1367C33.6419 37.1165 33.7557 37.0784 33.772 37.052C33.7883 37.0256 33.8417 37.0037 33.8906 37.0033C34.0136 37.0024 34.8992 36.5453 35.0044 36.4284C35.0189 36.4123 35.1355 36.3283 35.2637 36.2417C35.4965 36.0842 36.0195 35.589 36.2642 35.2942C36.4537 35.066 36.981 34.2135 37.0274 34.0605C37.0493 33.9882 37.0851 33.9054 37.107 33.8765C37.1288 33.8476 37.1981 33.6584 37.2608 33.456C37.3236 33.2536 37.4016 33.0171 37.4342 32.9304C37.4709 32.8327 37.505 32.1438 37.5236 31.1207L37.5537 29.4688L37.9479 29.2298C38.6077 28.8299 39.3025 28.0731 39.5934 27.4376C39.9688 26.6173 40.0128 26.135 39.9839 23.1538C39.9608 20.7843 39.9177 20.0828 39.7868 19.9519C39.7583 19.9234 39.735 19.8503 39.735 19.7893C39.735 19.7283 39.7003 19.6326 39.6579 19.5764C39.6154 19.5203 39.5799 19.4436 39.579 19.4059C39.5757 19.2694 39.0791 18.5735 38.7652 18.2655C38.4234 17.9301 38.1449 17.7136 38.0551 17.7136C38.0251 17.7136 38.0005 17.6946 38.0005 17.6715C38.0005 17.6483 37.894 17.5777 37.7639 17.5145L37.5274 17.3996L37.5246 17.0441C37.5204 16.5233 37.3531 15.2265 37.194 14.481C37.0231 13.6809 36.7408 12.6548 36.6367 12.4556C36.6136 12.4113 36.578 12.2992 36.5576 12.2065C36.5373 12.1139 36.4988 12.0245 36.4721 12.008C36.4454 11.9916 36.4236 11.9416 36.4236 11.8971C36.4236 11.8218 36.3631 11.6631 36.1864 11.2747C36.1469 11.1879 36.065 10.9987 36.0045 10.8542C35.8588 10.5065 35.5085 9.8229 35.2872 9.45438C35.1895 9.29159 35.1095 9.13196 35.1095 9.09958C35.1095 9.06726 35.0859 9.04077 35.057 9.04077C35.0281 9.04077 35.0044 9.0178 35.0044 8.98978C35.0044 8.94148 34.5143 8.18805 34.4007 8.06169C34.3713 8.02905 34.3119 7.94999 34.2685 7.88592C33.7513 7.12182 32.4254 5.6455 31.7407 5.07131C31.6711 5.01291 31.4599 4.83551 31.2714 4.67709C30.8534 4.32576 30.7188 4.22237 30.2475 3.8907C30.0451 3.74826 29.8559 3.61181 29.827 3.58747C29.6675 3.45322 28.2795 2.66027 27.8296 2.44644C26.9774 2.0414 26.628 1.89228 26.5313 1.89228C26.4908 1.89228 26.4353 1.8702 26.4078 1.84319C26.3583 1.79451 25.4677 1.49112 24.9124 1.33375C24.7534 1.2887 24.547 1.22905 24.4537 1.20113C24.3604 1.17328 24.1711 1.13039 24.0332 1.10584C23.7126 1.04891 23.218 0.952935 22.9151 0.888967C22.3456 0.768704 19.2685 0.615432 19.181 0.702948ZM13.5493 9.90905C13.046 9.98237 12.7458 10.0772 12.2712 10.3129C11.9871 10.4539 11.4527 10.8324 11.2466 11.0385C11.0405 11.2446 10.662 11.7791 10.5209 12.0631C10.0481 13.0154 10.0369 13.1523 10.0389 17.9629C10.0408 22.6418 10.052 22.7999 10.4453 23.7057C10.6716 24.2269 11.1772 24.8554 11.696 25.2603C12.205 25.6576 13.3602 26.071 13.9612 26.071H14.1371V27.2454C14.1371 28.4744 14.1634 28.6502 14.4215 29.1521C14.6395 29.5757 15.1639 29.9447 15.7534 30.0889C16.1171 30.1779 16.152 30.178 16.5156 30.0903C16.729 30.0388 17.0074 29.925 17.1484 29.8316C17.2868 29.74 18.2143 28.8563 19.2094 27.8679L21.0188 26.071H23.8249C26.9377 26.071 27.1807 26.05 27.9126 25.7173C28.8378 25.2968 29.4115 24.7551 29.8988 23.8419C29.9894 23.6721 30.0637 23.5069 30.0639 23.4749C30.0641 23.4428 30.0981 23.3515 30.1397 23.2719C30.1812 23.1924 30.252 22.8622 30.297 22.5382C30.3653 22.0469 30.3789 21.2829 30.3789 17.9387C30.3789 13.1551 30.3673 13.0139 29.8952 12.0631C29.7542 11.7791 29.3757 11.2446 29.1696 11.0385C28.8367 10.7056 27.8582 10.0931 27.6581 10.0923C27.6215 10.0921 27.5506 10.0689 27.5004 10.0407C27.4502 10.0124 27.1542 9.95325 26.8425 9.90926C26.3588 9.84092 25.3773 9.8302 20.1408 9.83583C15.4976 9.84087 13.8947 9.85869 13.5493 9.90905ZM13.7224 11.8283C13.1237 11.9152 12.5204 12.3599 12.2274 12.93C12.1219 13.1352 12.0642 13.3515 12.0277 13.6787C11.9971 13.9528 11.9828 15.8334 11.9923 18.3309L12.0084 22.523L12.2148 22.9339C12.4397 23.3815 12.7692 23.7245 13.1527 23.9102C13.4878 24.0723 14.1456 24.1787 14.8133 24.1787C15.3222 24.1787 15.4396 24.195 15.6065 24.2888C15.997 24.5083 15.9999 24.523 16.0294 26.4346C16.0484 27.6661 16.0727 28.1442 16.117 28.1589C16.1507 28.1702 16.8762 27.4862 17.729 26.639C18.5819 25.7918 19.4856 24.8975 19.7372 24.6518L20.1946 24.205L23.3551 24.1742C25.4833 24.1535 26.6005 24.1233 26.7757 24.0819C27.4242 23.9284 27.8902 23.5533 28.2014 22.9339L28.4078 22.523L28.4239 18.2958C28.4336 15.7148 28.4195 13.9024 28.3877 13.642C28.2697 12.6778 27.5851 11.9612 26.6529 11.8264C26.2349 11.7659 14.1394 11.7677 13.7224 11.8283ZM15.2455 16.7498C14.927 16.818 14.5232 17.1664 14.3515 17.521C14.0346 18.1756 14.3084 18.9779 14.982 19.3686C15.2398 19.5181 15.9741 19.5151 16.2472 19.3635C16.7382 19.0908 16.9988 18.6553 16.9988 18.1078C16.9988 17.3372 16.4798 16.7824 15.7206 16.7415C15.5291 16.7311 15.3153 16.7349 15.2455 16.7498ZM19.8341 16.7581C19.5591 16.818 19.211 17.0778 19.0233 17.3634C18.8534 17.6218 18.8449 17.6576 18.8444 18.1155C18.8439 18.5756 18.8515 18.6074 19.0215 18.8565C19.1192 18.9997 19.3162 19.1967 19.4594 19.2944C19.709 19.4648 19.7396 19.472 20.2081 19.472C20.6766 19.472 20.7072 19.4648 20.9568 19.2944C21.1 19.1967 21.297 18.9997 21.3947 18.8565C21.5647 18.6074 21.5723 18.5756 21.5718 18.1155C21.5713 17.6586 21.5625 17.6214 21.3947 17.3662C21.1359 16.9724 20.8052 16.7747 20.3569 16.7457C20.1595 16.7329 19.9241 16.7385 19.8341 16.7581ZM24.4131 16.7604C24.068 16.8509 23.7876 17.0816 23.548 17.4721C23.3689 17.764 23.3629 18.3746 23.536 18.7058C23.68 18.9815 23.9084 19.2187 24.169 19.3635C24.442 19.5151 25.1764 19.5181 25.4342 19.3686C25.9204 19.0866 26.1871 18.64 26.1871 18.1078C26.1871 17.577 25.969 17.2047 25.4731 16.8889C25.2537 16.7492 24.7081 16.683 24.4131 16.7604ZM3.8473 19.087C3.2616 19.2943 2.85461 19.6583 2.56231 20.2364L2.38943 20.5782V23.4207C2.38943 25.9807 2.39826 26.281 2.47805 26.443C2.52683 26.542 2.57986 26.6584 2.596 26.7017C2.6884 26.9504 3.19589 27.4756 3.46696 27.6029C3.56814 27.6504 3.71957 27.7214 3.80341 27.7606C3.89461 27.8032 4.13765 27.8318 4.40788 27.8318C4.78401 27.8318 4.88041 27.8142 4.98228 27.7267C5.26386 27.4849 5.25408 27.6395 5.25408 23.4205C5.25408 19.6646 5.24998 19.4965 5.15421 19.339C4.9314 18.9726 4.43873 18.8777 3.8473 19.087ZM35.5118 19.0785C35.4295 19.1312 35.3172 19.2483 35.2621 19.3387C35.1661 19.4965 35.1621 19.6625 35.1621 23.4205C35.1621 27.6395 35.1523 27.4849 35.4339 27.7267C35.5369 27.8152 35.6313 27.8317 36.0294 27.8309C36.4436 27.83 36.5414 27.8109 36.8164 27.677C37.2331 27.4739 37.6201 27.0773 37.8448 26.6229L38.0268 26.255V23.4166V20.5782L37.8539 20.2364C37.5577 19.6506 37.1415 19.2867 36.5344 19.0821C36.141 18.9496 35.7156 18.9481 35.5118 19.0785ZM23.1123 35.528C22.9312 35.565 22.8354 35.6254 22.5996 35.8513C22.5523 35.8966 22.4829 36.0431 22.4455 36.1767C22.298 36.7034 22.5901 37.2223 23.1097 37.357C23.2811 37.4015 23.8248 37.4224 24.8073 37.4224C26.6159 37.4224 26.7767 37.3878 27.0865 36.9309C27.3116 36.599 27.2598 36.0943 26.9699 35.7944C26.6913 35.5063 26.6938 35.5066 24.9411 35.4969C24.0436 35.4919 23.2207 35.5059 23.1123 35.528Z" fill="black"/>
</g>
<defs>
<clipPath id="clip0_1063_1258">
<rect width="40.3154" height="40" fill="white" transform="translate(0.0507812)"/>
</clipPath>
</defs>
</svg>
