<svg width="41" height="40" viewBox="0 0 41 40" fill="none" xmlns="http://www.w3.org/2000/svg">
<path fill-rule="evenodd" clip-rule="evenodd" d="M21.295 1.36235C20.4724 1.84046 20.4249 2.87731 21.2024 3.3818C21.3532 3.47967 22.1378 3.62443 22.5234 3.62548C22.8543 3.62643 23.8145 3.80603 24.6785 4.02858C25.1711 4.15547 26.6177 4.63005 26.6732 4.68298C26.7007 4.70916 26.7556 4.7306 26.7953 4.7306C26.8923 4.7306 28.5163 5.52782 28.7675 5.6987C28.8772 5.77334 28.9795 5.83441 28.9947 5.83441C29.0783 5.83441 30.339 6.70711 30.8808 7.14012C31.5931 7.70926 32.8537 8.94721 33.2444 9.46122C33.3872 9.64913 33.5181 9.8147 33.5354 9.82916C33.5525 9.84361 33.6234 9.93823 33.6928 10.0394C33.7623 10.1406 33.8498 10.2423 33.8874 10.2654C33.925 10.2886 33.9557 10.3398 33.9557 10.3793C33.9557 10.4188 33.9737 10.459 33.9955 10.4687C34.0373 10.4871 34.5388 11.2175 34.603 11.3535C34.6235 11.3968 34.6859 11.5033 34.7418 11.59C34.7977 11.6767 34.8762 11.8068 34.9163 11.8791C35.6006 13.1132 36.0497 14.175 36.406 15.4008C36.5958 16.0539 36.663 16.3431 36.846 17.2956C37.0404 18.3071 37.1185 20.4127 37.0015 21.4879C36.91 22.3297 36.7635 23.2857 36.69 23.5204C36.6627 23.6078 36.5898 23.8922 36.528 24.1524C36.4303 24.5637 36.1622 25.3942 35.8746 26.1761C35.7528 26.5074 35.0412 27.9514 34.8904 28.1734C34.8216 28.2746 34.7498 28.398 34.7308 28.4478C34.6525 28.6522 33.592 30.1732 33.4012 30.3548C33.3708 30.3837 33.2534 30.5256 33.1402 30.6702C32.8741 31.0102 31.5888 32.2955 31.2488 32.5616C31.1042 32.6747 30.9623 32.7922 30.9334 32.8225C30.7504 33.0149 29.2537 34.0549 28.9925 34.1711C28.9325 34.1978 28.8125 34.2652 28.7258 34.3207C28.4897 34.472 27.026 35.1968 26.7547 35.2968C25.7358 35.6724 24.7108 35.9784 23.9426 36.1363C23.7113 36.1838 23.4157 36.2452 23.2856 36.2727C22.4873 36.4411 20.2255 36.5283 19.1857 36.4306C18.2018 36.3382 17.6671 36.2467 16.505 35.9719C15.99 35.85 14.8448 35.4831 14.4551 35.315C14.3828 35.2838 14.2527 35.229 14.166 35.1933C13.007 34.715 10.7981 33.3867 10.1904 32.8027C10.1431 32.7573 9.99633 32.6373 9.86413 32.5361C9.73199 32.4349 9.2214 31.946 8.72947 31.4495C7.85699 30.5689 7.82792 30.5453 7.54119 30.4858C6.78014 30.3278 6.14377 30.8351 6.14445 31.5995C6.14482 32.0325 6.29793 32.26 7.20148 33.1694C8.14776 34.1218 8.95176 34.8079 9.72406 35.3219C9.78918 35.3653 9.86913 35.4253 9.90177 35.4553C9.93436 35.4853 10.0556 35.5672 10.1713 35.6373C10.2869 35.7074 10.4128 35.7952 10.4509 35.8325C10.4892 35.8697 10.5542 35.9001 10.5955 35.9001C10.6368 35.9001 10.6706 35.9184 10.6706 35.9406C10.6706 35.9629 10.7829 36.0398 10.9203 36.1115C11.0576 36.1831 11.1818 36.2549 11.1962 36.2709C11.2478 36.328 12.6488 37.036 13.0622 37.2139C13.2067 37.276 13.3995 37.3607 13.4906 37.4019C13.5817 37.4432 13.6894 37.477 13.7298 37.477C13.7703 37.477 13.8258 37.4972 13.8533 37.5218C13.9071 37.5702 14.8085 37.8803 15.3224 38.0273C15.4958 38.0768 15.71 38.1388 15.7982 38.1648C15.8864 38.1908 16.0638 38.2345 16.1924 38.2617C16.321 38.289 16.5208 38.3332 16.6364 38.36C16.8315 38.4053 17.3082 38.4891 18.2133 38.6373C19.0828 38.7796 22.1626 38.7824 22.9439 38.6416C23.5972 38.5239 23.9506 38.4633 24.2054 38.4252C24.35 38.4036 24.5865 38.3557 24.731 38.3187C24.8756 38.2818 25.124 38.2183 25.283 38.1777C25.442 38.1371 25.6816 38.0693 25.8156 38.027C25.9496 37.9846 26.0879 37.9501 26.1231 37.9501C26.1582 37.9501 26.2615 37.918 26.3525 37.8788C26.4436 37.8396 26.6837 37.7534 26.8861 37.6872C27.0885 37.6211 27.2765 37.5467 27.304 37.5219C27.3315 37.4972 27.387 37.477 27.4274 37.477C27.4679 37.477 27.5873 37.4381 27.6929 37.3907C28.5301 37.0142 29.3379 36.6284 29.3828 36.5834C29.3973 36.569 29.5274 36.498 29.6719 36.4257C29.8165 36.3535 29.9426 36.2766 29.9522 36.2549C29.9619 36.2332 29.9898 36.2155 30.0143 36.2155C30.0549 36.2155 30.8989 35.6999 30.9597 35.6378C30.9741 35.6231 31.0254 35.5874 31.0736 35.5585C31.2445 35.456 31.7237 35.1206 31.8533 35.0128C31.9255 34.9526 32.0086 34.8852 32.0377 34.863C32.1164 34.8031 32.596 34.4183 32.7429 34.2971C33.1151 33.9899 33.7589 33.3649 34.3762 32.7111C34.7788 32.2848 34.825 32.2316 35.1911 31.774C35.3067 31.6295 35.4249 31.4843 35.4538 31.4513C35.4827 31.4184 35.5459 31.3355 35.5943 31.2673C35.6427 31.199 35.7899 30.9963 35.9213 30.8168C36.2514 30.3656 36.8895 29.3352 37.0701 28.9619C37.105 28.8896 37.1459 28.8186 37.161 28.8042C37.2062 28.7607 37.5858 27.9672 37.9693 27.1143C38.0168 27.0087 38.0556 26.8892 38.0556 26.8488C38.0556 26.8083 38.0771 26.7528 38.1033 26.7253C38.1295 26.6979 38.1749 26.5926 38.2042 26.4914C38.2552 26.3151 38.3083 26.1569 38.4515 25.7556C38.5511 25.4764 38.6591 25.0878 38.897 24.1524C38.9338 24.0079 38.9814 23.7559 39.0027 23.5926C39.0241 23.4293 39.0558 23.2727 39.0732 23.2446C39.0905 23.2165 39.1279 23.0072 39.1563 22.7794C39.1847 22.5516 39.2331 22.1879 39.264 21.9711C39.3356 21.467 39.3368 18.5999 39.2656 18.0815C39.2358 17.8646 39.1895 17.5098 39.1627 17.293C39.1359 17.0762 39.0902 16.7924 39.0611 16.6623C39.032 16.5322 38.9687 16.2365 38.9204 16.0052C38.7761 15.3147 38.4504 14.1664 38.2942 13.7974C38.2574 13.7106 38.2105 13.563 38.19 13.4695C38.1695 13.376 38.1308 13.286 38.1041 13.2695C38.0774 13.253 38.0548 13.1995 38.0538 13.1506C38.0528 13.1017 38.0064 12.9671 37.9505 12.8515C37.8946 12.7359 37.8482 12.6117 37.8472 12.5755C37.8462 12.5394 37.8217 12.5098 37.7928 12.5098C37.7639 12.5098 37.7402 12.4758 37.7402 12.4342C37.7402 12.3926 37.6576 12.1975 37.5565 12.0006C37.4555 11.8037 37.3727 11.615 37.3726 11.5812C37.3724 11.5475 37.3546 11.512 37.3329 11.5024C37.3112 11.4928 37.2283 11.3548 37.1488 11.1958C36.9861 10.8709 36.8141 10.5628 36.6646 10.3285C36.2342 9.65434 35.9638 9.24551 35.8258 9.05991C35.7368 8.94033 35.6285 8.78963 35.5852 8.72493C35.5418 8.66028 35.4827 8.58064 35.4538 8.548C35.4249 8.51536 35.3067 8.37045 35.1911 8.22595C35.0754 8.08141 34.9335 7.90406 34.8757 7.83179C34.7394 7.66148 32.9207 5.84246 32.7401 5.6957C32.6642 5.63399 32.4395 5.45717 32.2408 5.30275C32.0421 5.14832 31.8677 5.00819 31.8533 4.99137C31.8388 4.97449 31.6377 4.83205 31.4065 4.67484C31.1752 4.51762 30.9741 4.37628 30.9597 4.36077C30.8934 4.28971 29.8078 3.63773 29.5405 3.50853C29.4682 3.47357 29.3973 3.43268 29.3828 3.41759C29.3393 3.37239 28.5458 2.99279 27.6929 2.60929C27.5873 2.56183 27.4679 2.52298 27.4274 2.52298C27.387 2.52298 27.3315 2.50154 27.304 2.47531C27.2765 2.44908 27.1713 2.40346 27.0701 2.37392C26.9689 2.34438 26.7205 2.26217 26.5182 2.19126C26.3158 2.1203 26.0083 2.0218 25.8349 1.97234C25.6614 1.92288 25.413 1.84903 25.283 1.80824C25.1529 1.7674 24.9917 1.73413 24.9247 1.73428C24.8578 1.73444 24.757 1.70995 24.7009 1.67988C24.6447 1.64982 24.4511 1.60346 24.2707 1.57686C23.8749 1.51846 23.3621 1.43557 22.9702 1.36656C22.8112 1.33859 22.4091 1.30301 22.0766 1.2875C21.5405 1.26254 21.4522 1.271 21.295 1.36235ZM15.191 2.00135C14.4292 2.26443 13.762 2.4874 13.601 2.53281C13.4926 2.56335 13.4038 2.60913 13.4038 2.63452C13.4038 2.65991 13.3779 2.68067 13.3461 2.68067C13.231 2.68067 11.4975 3.51589 11.4678 3.58564C11.4581 3.60829 11.426 3.62679 11.3963 3.62679C11.3271 3.62679 10.4764 4.1398 10.3106 4.28146C10.0382 4.51431 9.91459 4.78595 9.91507 5.1511C9.91559 5.64214 10.1256 5.97796 10.5758 6.20766C10.9751 6.41134 11.3408 6.33728 12.001 5.91904C12.2561 5.75741 12.7324 5.48855 13.2199 5.23095C13.3355 5.16982 13.643 5.02895 13.9032 4.91794C14.1634 4.80687 14.4475 4.6854 14.5345 4.64798C14.6215 4.61055 15.0282 4.46853 15.4383 4.33234C16.0241 4.13775 16.221 4.04771 16.3575 3.91205C16.6884 3.58322 16.689 3.58164 16.689 3.0762C16.689 2.64577 16.6768 2.58774 16.5576 2.44982C16.3259 2.1818 16.1667 2.04992 16.075 2.04992C16.0259 2.04992 15.971 2.02627 15.9531 1.99736C15.9142 1.93444 15.3766 1.93723 15.191 2.00135ZM6.20022 8.32766C6.06876 8.36398 5.8973 8.43552 5.81925 8.48666C5.66934 8.58485 5.15155 9.21407 5.15155 9.29802C5.15155 9.32514 5.13378 9.3552 5.11212 9.36487C5.05225 9.39147 4.83617 9.71226 4.83617 9.77449C4.83617 9.80456 4.81409 9.82916 4.78713 9.82916C4.76017 9.82916 4.72153 9.88235 4.70124 9.94742C4.6809 10.0125 4.64852 10.0775 4.62918 10.092C4.51249 10.1793 3.65804 11.7926 3.36258 12.4836C3.33783 12.5414 3.26902 12.6998 3.20963 12.8355C3.15023 12.9712 3.10161 13.1045 3.10161 13.1317C3.10161 13.1589 3.06629 13.2489 3.02308 13.3317C2.97546 13.4231 2.94445 13.6265 2.94424 13.8491C2.94398 14.1764 2.96232 14.2431 3.11475 14.4683C3.23654 14.6483 3.36384 14.7579 3.55827 14.8505C3.83812 14.9836 4.27543 15.0271 4.33683 14.9277C4.3547 14.8988 4.41352 14.8752 4.4676 14.8752C4.52164 14.8752 4.60132 14.8397 4.64469 14.7963C4.68805 14.7529 4.74298 14.7174 4.76674 14.7174C4.8327 14.7172 5.1414 14.237 5.18082 14.0731C5.20006 13.9933 5.2368 13.915 5.2625 13.8992C5.28821 13.8832 5.30923 13.8366 5.30923 13.7955C5.30923 13.7544 5.40269 13.5214 5.51685 13.2776C5.63107 13.0338 5.76001 12.7555 5.80342 12.659C5.97036 12.2882 6.56216 11.2851 6.93026 10.749C7.08905 10.5177 7.285 10.2319 7.36568 10.114C7.83018 9.43457 7.54729 8.58506 6.77635 8.34411C6.61483 8.2936 6.47291 8.25439 6.46098 8.25696C6.44905 8.25959 6.33173 8.29139 6.20022 8.32766ZM20.197 13.7364C19.9242 13.8353 19.6595 14.0781 19.5365 14.3421C19.4269 14.5774 19.4222 14.6612 19.4067 16.699L19.3905 18.8119L17.2776 18.8281C15.2488 18.8436 15.1553 18.8487 14.9282 18.9561C14.6257 19.0993 14.4278 19.3108 14.3257 19.6C14.1174 20.1905 14.3615 20.7757 14.9282 21.0438C15.1553 21.1513 15.2488 21.1564 17.2776 21.1719L19.3905 21.1881L19.4067 23.301C19.4222 25.3322 19.4272 25.4233 19.5354 25.6553C19.7925 26.2067 20.3984 26.4576 20.9786 26.2529C21.2678 26.1508 21.4793 25.9529 21.6225 25.6504C21.7299 25.4233 21.735 25.3298 21.7505 23.301L21.7667 21.1881L23.8796 21.1719C25.9108 21.1564 26.0019 21.1514 26.2339 21.0432C26.7853 20.7861 27.0362 20.1802 26.8315 19.6C26.7295 19.3108 26.5316 19.0993 26.2291 18.9561C26.002 18.8487 25.9084 18.8436 23.8796 18.8281L21.7667 18.8119L21.7505 16.699C21.735 14.6702 21.7299 14.5766 21.6225 14.3495C21.4793 14.047 21.2678 13.8491 20.9786 13.7471C20.7111 13.6527 20.438 13.649 20.197 13.7364ZM2.52342 18.9365C2.3107 19.0329 1.9978 19.2932 1.9978 19.3737C1.9978 19.4146 1.97672 19.4481 1.95091 19.4481C1.92516 19.4481 1.8871 19.5132 1.86634 19.5926C1.81331 19.7957 1.83396 21.4845 1.89504 21.9369C1.92295 22.1436 1.96879 22.502 1.99691 22.7332C2.04542 23.1319 2.07018 23.2672 2.20847 23.8896C2.24059 24.0342 2.28495 24.247 2.30702 24.3627C2.3291 24.4783 2.37278 24.6557 2.40416 24.7569C2.43554 24.8581 2.50177 25.0742 2.55139 25.2371C2.71628 25.7787 3.11365 26.0841 3.65352 26.0841C4.02639 26.0841 4.23402 25.992 4.4993 25.7089C4.80216 25.3858 4.84737 25.0358 4.67317 24.3627C4.51181 23.7392 4.41583 23.299 4.35953 22.9243C4.33189 22.7403 4.29725 22.5703 4.28258 22.5465C4.23911 22.4762 4.15307 21.5366 4.10103 20.564C4.04842 19.5809 4.01367 19.4581 3.70608 19.1679C3.61935 19.0861 3.46865 18.9856 3.37115 18.9445C3.16201 18.8565 2.70955 18.8522 2.52342 18.9365Z" fill="black"/>
</svg>
