<svg width="41" height="40" viewBox="0 0 41 40" fill="none" xmlns="http://www.w3.org/2000/svg">
<path fill-rule="evenodd" clip-rule="evenodd" d="M18.7267 3.04584C18.567 3.06331 18.212 3.10026 17.9377 3.12801C17.6635 3.15571 17.4111 3.18917 17.3767 3.20235C17.3423 3.21558 17.1445 3.25423 16.937 3.28827C16.7295 3.32236 16.4291 3.38062 16.2694 3.4178C16.1096 3.45492 15.8784 3.508 15.7555 3.53571C15.6327 3.56341 15.4919 3.6038 15.4428 3.62551C15.3936 3.64722 15.2837 3.67877 15.1985 3.69561C15.1133 3.71246 15.0128 3.74159 14.9751 3.76031C14.9375 3.77907 14.7558 3.84069 14.5715 3.89725C14.3872 3.95381 14.1862 4.02628 14.1247 4.05827C14.0633 4.09027 13.9876 4.11654 13.9566 4.11672C13.9255 4.11685 13.8652 4.13611 13.8225 4.15952C13.739 4.20531 13.5962 4.2672 13.1421 4.45445C12.7035 4.63531 11.9518 5.01669 11.4361 5.32002C10.9525 5.60445 10.6599 5.79081 10.6472 5.82239C10.639 5.84281 10.6131 5.85948 10.5895 5.85948C10.5524 5.85948 10.3013 6.01903 10.2376 6.08301C10.2253 6.09534 10.1332 6.16111 10.0328 6.22915C9.93247 6.29716 9.81183 6.38763 9.76474 6.43021C9.71765 6.47275 9.63651 6.53771 9.58441 6.57448C9.21755 6.83362 8.49933 7.47142 7.92667 8.04667C7.4167 8.559 7.29119 8.69778 6.87563 9.20904C6.68525 9.44325 6.51185 9.65651 6.49022 9.68291C6.46864 9.70932 6.37365 9.84 6.27916 9.97333C6.18466 10.1067 6.09673 10.2258 6.08373 10.2381C6.02252 10.2959 5.85904 10.5519 5.85904 10.5899C5.85904 10.6135 5.84398 10.6394 5.82553 10.6476C5.78429 10.6659 5.59096 10.9384 5.59096 10.9781C5.59096 10.994 5.53471 11.0903 5.46599 11.1922C5.39723 11.294 5.32659 11.4075 5.30903 11.4444C5.29143 11.4813 5.22481 11.6019 5.16101 11.7125C5.00137 11.9891 4.54608 12.8928 4.42938 13.1645C4.13137 13.8587 4.14544 13.8235 3.99251 14.2592C3.84649 14.6753 3.7209 15.0744 3.60598 15.4879C3.56497 15.6353 3.51171 15.8263 3.48758 15.9123C3.40015 16.2242 3.27647 16.8808 3.18037 17.5431C3.15186 17.7397 3.1074 18.0413 3.08158 18.2133C3.0558 18.3853 3.02412 18.9184 3.01125 19.3981C2.98914 20.22 2.99325 20.2815 3.08243 20.4704C3.21499 20.7511 3.30882 20.8476 3.5613 20.9626C3.86168 21.0994 4.3096 21.0985 4.57499 20.9605C4.7983 20.8443 5.00253 20.6294 5.04024 20.4709C5.05503 20.4088 5.08179 20.3378 5.09966 20.3132C5.11758 20.2887 5.14577 19.8706 5.16239 19.3843C5.17897 18.898 5.21181 18.3953 5.2354 18.2673C5.25895 18.1393 5.29746 17.8939 5.32096 17.7218C5.38517 17.252 5.48681 16.77 5.68376 16.0017C5.71209 15.8911 5.76315 15.7346 5.79716 15.6539C5.8312 15.5732 5.85917 15.4727 5.8593 15.4305C5.85948 15.3883 5.88964 15.2962 5.92632 15.2259C5.96305 15.1555 5.99316 15.075 5.9933 15.0472C5.99352 14.9859 6.19176 14.4924 6.23238 14.4518C6.24819 14.4359 6.26115 14.3967 6.26115 14.3644C6.26115 14.2693 6.61671 13.5129 6.94068 12.9188C7.02781 12.7591 7.13674 12.5592 7.18276 12.4747C7.22878 12.3901 7.2827 12.2996 7.30259 12.2736C7.32247 12.2476 7.44141 12.0654 7.56687 11.8688C7.90294 11.3424 8.45121 10.6275 8.92767 10.0947C9.14142 9.8556 10.0057 8.99516 10.1526 8.87533C10.2127 8.82619 10.3822 8.68419 10.5291 8.55976C10.9466 8.20613 11.8932 7.51261 11.9584 7.51261C11.9679 7.51261 12.0621 7.45502 12.1678 7.38461C12.7196 7.0169 13.8782 6.44375 14.7279 6.11804C15.4427 5.84406 16.4761 5.54846 17.0443 5.45549C17.1879 5.43203 17.3224 5.40227 17.3432 5.38936C17.4253 5.33865 18.4334 5.22718 19.1959 5.18455C20.3398 5.12057 21.6883 5.20193 22.6585 5.39343C23.4197 5.54368 23.6144 5.59162 24.3563 5.81167C24.7116 5.91707 25.4036 6.15856 25.5083 6.21374C25.5505 6.23595 25.7613 6.32705 25.9769 6.41609C26.3848 6.58471 27.3682 7.08235 27.4392 7.15607C27.4515 7.16889 27.5118 7.20392 27.5733 7.23395C27.7147 7.30311 27.8428 7.38523 27.9208 7.45676C27.9543 7.4875 28.0088 7.51261 28.0419 7.51261C28.0749 7.51261 28.1087 7.52767 28.1169 7.54612C28.1384 7.59451 28.411 7.78069 28.4603 7.78069C28.4832 7.78069 28.5135 7.81085 28.5277 7.84771C28.5418 7.88457 28.5842 7.91473 28.6219 7.91473C28.6595 7.91473 28.6903 7.92983 28.6903 7.94824C28.6904 7.96664 28.7809 8.03889 28.8914 8.10872C29.0019 8.17856 29.0924 8.25393 29.0924 8.27627C29.0924 8.29857 29.1209 8.31684 29.1557 8.31684C29.1905 8.31684 29.2256 8.3319 29.2339 8.35035C29.242 8.36876 29.3591 8.47434 29.4939 8.58492C29.9382 8.94919 30.595 9.57926 30.9637 9.99495L31.1595 10.2157L28.484 10.2381C25.4801 10.2631 25.6261 10.2464 25.3236 10.5999C25.1337 10.8217 25.0485 11.1577 25.0945 11.5032C25.1292 11.7645 25.2282 11.9512 25.4246 12.1263C25.7231 12.3923 25.5823 12.3828 29.2207 12.381C32.9101 12.3792 33.6091 12.3533 33.8408 12.2101C34.046 12.0833 34.2235 11.8737 34.3304 11.632C34.42 11.4296 34.4207 11.383 34.3889 7.67154C34.3531 3.50255 34.3629 3.63114 34.0582 3.3363C33.8095 3.09561 33.5974 3 33.3123 3C32.9036 3 32.5305 3.22349 32.3236 3.59231C32.2489 3.72537 32.2404 3.91785 32.2199 5.94732L32.1976 8.15747L31.8812 7.84619C31.5065 7.47758 31.3079 7.2973 30.9466 6.99768C30.7991 6.87544 30.6684 6.76298 30.6562 6.74779C30.6326 6.71862 29.9313 6.19707 29.7622 6.08287C29.7076 6.04601 29.6168 5.98065 29.5605 5.93767C29.5041 5.89464 29.4378 5.85948 29.413 5.85948C29.3882 5.85948 29.3612 5.84442 29.353 5.82597C29.3357 5.78696 29.0633 5.5914 29.0263 5.5914C29.0125 5.5914 28.9162 5.53662 28.8122 5.4697C28.7083 5.40272 28.5812 5.3252 28.5299 5.29737C28.4786 5.26953 28.3077 5.17606 28.1501 5.0897C27.6799 4.83185 27.1673 4.57933 26.8584 4.45328C26.4303 4.27863 26.2643 4.20701 26.1777 4.15952C26.135 4.13611 26.0777 4.11698 26.0504 4.11698C26.023 4.11698 25.9373 4.08875 25.8599 4.05425C25.7824 4.01976 25.5783 3.94617 25.4063 3.89073C25.2343 3.83532 25.0533 3.7734 25.0042 3.7532C24.9551 3.73301 24.8344 3.69691 24.7361 3.673C24.6378 3.6491 24.4368 3.59669 24.2893 3.55662C23.9557 3.46587 23.5229 3.37021 23.1723 3.30972C23.0249 3.28429 22.8138 3.24408 22.7032 3.22045C22.5176 3.18068 22.2407 3.14775 21.2288 3.04495C20.7821 2.99955 19.1444 3.00013 18.7267 3.04584ZM35.699 18.9509C35.3207 19.0156 35.0245 19.28 34.925 19.6418C34.89 19.769 34.8512 20.215 34.8354 20.6707C34.8201 21.113 34.7883 21.5855 34.7649 21.7206C34.7414 21.8558 34.7023 22.1071 34.6779 22.2791C34.6114 22.748 34.4965 23.2943 34.3163 23.9993C34.288 24.1099 34.237 24.2664 34.203 24.3471C34.169 24.4278 34.1412 24.5253 34.1412 24.5637C34.1412 24.6022 34.1133 24.697 34.0792 24.7744C34.0451 24.8519 33.9717 25.0459 33.9159 25.2056C33.8601 25.3654 33.7975 25.5152 33.7768 25.5385C33.756 25.5619 33.739 25.6066 33.739 25.638C33.739 25.6992 33.5047 26.2252 33.2897 26.6469C32.674 27.8543 31.9374 28.9373 31.0725 29.9067C30.8456 30.1611 30.1428 30.8627 29.9188 31.0586C29.2111 31.6773 28.4995 32.2187 28.011 32.51C27.9692 32.535 27.7882 32.6449 27.6089 32.7543C26.6177 33.3593 25.0701 34.0202 23.9542 34.3152C23.4785 34.4409 23.2021 34.5053 22.9802 34.542C22.8499 34.5636 22.6488 34.6022 22.5334 34.6279C21.5098 34.8554 19.3215 34.9015 18.0342 34.7227C17.0454 34.5854 15.9952 34.3292 15.063 33.998C14.6526 33.8522 14.6155 33.8374 14.013 33.5799C13.5847 33.3969 12.6244 32.9108 12.561 32.8449C12.5487 32.8321 12.4884 32.7971 12.4269 32.767C12.2855 32.6979 12.1574 32.6157 12.0794 32.5442C12.0458 32.5135 11.9914 32.4884 11.9583 32.4884C11.9253 32.4884 11.8915 32.4733 11.8833 32.4549C11.8618 32.4065 11.5892 32.2203 11.5399 32.2203C11.517 32.2203 11.4866 32.1901 11.4725 32.1533C11.4584 32.1164 11.416 32.0862 11.3783 32.0862C11.3407 32.0862 11.3099 32.0702 11.3099 32.0505C11.3099 32.0308 11.2195 31.9575 11.1089 31.8876C10.9983 31.8177 10.9078 31.7433 10.9078 31.7223C10.9078 31.7013 10.8793 31.6841 10.8445 31.6841C10.8097 31.6841 10.7745 31.6687 10.7663 31.6498C10.7581 31.6309 10.6418 31.5253 10.5078 31.4152C10.0465 31.0361 9.4061 30.4227 9.03651 30.006L8.84072 29.7853L11.5162 29.7629C14.5201 29.7379 14.3741 29.7546 14.6766 29.4011C14.8665 29.1793 14.9517 28.8432 14.9057 28.4978C14.871 28.2365 14.772 28.0497 14.5756 27.8747C14.2771 27.6087 14.4179 27.6182 10.7795 27.62C7.09014 27.6218 6.39112 27.6477 6.15942 27.7909C5.9542 27.9177 5.77669 28.1273 5.66986 28.3687C5.5805 28.5708 5.57979 28.619 5.61151 32.3292C5.64717 36.4931 5.6372 36.362 5.94125 36.6663C6.47494 37.2006 7.30107 37.0779 7.6766 36.4087C7.75126 36.2756 7.75975 36.0832 7.78025 34.055L7.80259 31.8464L8.11937 32.1562C8.73568 32.759 9.66953 33.5357 10.2378 33.9181C10.2925 33.955 10.3834 34.0203 10.4397 34.0633C10.4961 34.1063 10.5624 34.1415 10.5872 34.1415C10.612 34.1415 10.639 34.1566 10.6472 34.175C10.6645 34.214 10.9369 34.4096 10.9739 34.4096C10.9877 34.4096 11.084 34.4642 11.188 34.531C11.5278 34.7492 12.7947 35.4032 13.2088 35.5741C13.5805 35.7276 13.7557 35.8037 13.8225 35.8409C13.8652 35.8646 13.9225 35.884 13.9498 35.884C13.9772 35.884 14.0629 35.9122 14.1403 35.9467C14.2178 35.9812 14.4219 36.0548 14.5939 36.1102C14.7659 36.1657 14.9468 36.2276 14.996 36.2478C15.0451 36.268 15.1758 36.3068 15.2864 36.334C15.397 36.3613 15.588 36.4084 15.7109 36.4388C15.8337 36.4692 15.9644 36.5067 16.0013 36.5222C16.0707 36.5514 16.3055 36.5994 16.8055 36.6868C16.9652 36.7147 17.1864 36.7569 17.297 36.7807C17.4886 36.8219 17.7201 36.8489 18.8384 36.9608C19.3954 37.0165 21.2772 36.9871 21.6979 36.9161C21.8454 36.8912 22.1369 36.8496 22.3458 36.8235C22.8145 36.7651 23.3477 36.6726 23.7308 36.5833C23.8906 36.5461 24.1218 36.493 24.2446 36.4653C24.3675 36.4376 24.5083 36.3972 24.5574 36.3755C24.6066 36.3538 24.7165 36.3222 24.8017 36.3054C24.8869 36.2885 24.9874 36.2594 25.0251 36.2407C25.0627 36.2219 25.2444 36.1603 25.4287 36.1037C25.613 36.0472 25.814 35.9747 25.8754 35.9427C25.9369 35.9107 26.0126 35.8844 26.0436 35.8843C26.0747 35.8841 26.135 35.8649 26.1777 35.8415C26.2642 35.794 26.4298 35.7226 26.8584 35.5476C27.2495 35.3881 28.0953 34.9595 28.5417 34.6948C29.0932 34.3678 29.3401 34.2107 29.353 34.1786C29.3612 34.1582 29.3932 34.1415 29.4242 34.1415C29.4553 34.1415 29.517 34.1013 29.5615 34.0521C29.606 34.003 29.6678 33.9628 29.6988 33.9628C29.7298 33.9628 29.7618 33.9475 29.77 33.9287C29.7782 33.91 29.894 33.817 30.0273 33.7221C30.3232 33.5115 30.3232 33.5114 30.5445 33.3258C30.6427 33.2434 30.7835 33.1301 30.8572 33.0742C31.3413 32.707 32.3916 31.6662 32.9804 30.9703C33.115 30.8112 33.2453 30.6578 33.2699 30.6296C33.2945 30.6012 33.3447 30.5336 33.3816 30.4791C33.4185 30.4247 33.4859 30.3367 33.5315 30.2837C33.5771 30.2308 33.6764 30.0969 33.752 29.9863C33.8276 29.8757 33.9009 29.7752 33.9148 29.7629C33.9734 29.7111 34.1412 29.4503 34.1412 29.411C34.1412 29.3875 34.1562 29.3616 34.1747 29.3533C34.2137 29.336 34.4092 29.0636 34.4092 29.0267C34.4092 29.0128 34.4641 28.9166 34.5312 28.8126C34.8674 28.2916 35.2782 27.4901 35.7044 26.5237C35.8852 26.1137 36.217 25.146 36.3938 24.5131C36.435 24.3657 36.4885 24.1747 36.5126 24.0886C36.6016 23.7713 36.728 23.0977 36.8186 22.4579C36.8465 22.2613 36.8908 21.9597 36.9171 21.7877C36.9435 21.6156 36.9757 21.0825 36.9887 20.6029C37.0109 19.7868 37.0065 19.7181 36.9197 19.5306C36.8131 19.3 36.6247 19.0846 36.5297 19.0846C36.4938 19.0846 36.4645 19.0667 36.4645 19.0448C36.4645 19.009 36.3413 18.9778 36.0177 18.9315C35.9563 18.9227 35.8128 18.9314 35.699 18.9509Z" fill="black"/>
</svg>
