<svg width="41" height="40" viewBox="0 0 41 40" fill="none" xmlns="http://www.w3.org/2000/svg">
<path fill-rule="evenodd" clip-rule="evenodd" d="M7.55308 0.103909C7.43729 0.127645 7.21092 0.171224 7.04998 0.200751C6.3664 0.326066 5.46861 0.638382 4.79382 0.985698C4.34345 1.21749 3.56756 1.71859 3.53556 1.79838C3.52587 1.82243 3.49487 1.84212 3.46666 1.84212C3.37477 1.84212 2.4845 2.68954 2.08435 3.15791C1.8434 3.43991 1.26361 4.29054 1.26361 4.36201C1.26361 4.3897 1.24587 4.42017 1.22413 4.42986C1.17398 4.45212 0.947819 4.9127 0.947819 4.99265C0.947819 5.02565 0.924135 5.05265 0.895187 5.05265C0.86624 5.05265 0.841766 5.08228 0.840766 5.11843C0.839766 5.15465 0.79324 5.27896 0.737293 5.39475C0.681345 5.51054 0.634819 5.63522 0.633819 5.6718C0.632819 5.70838 0.61003 5.77943 0.583187 5.8297C0.513977 5.95917 0.387188 6.39686 0.320398 6.73686C0.289082 6.89607 0.237293 7.14475 0.20524 7.28949C0.129503 7.63191 0.129503 9.68391 0.20524 10.0263C0.237293 10.1711 0.289082 10.4197 0.320398 10.579C0.387188 10.919 0.513977 11.3566 0.583187 11.4861C0.61003 11.5364 0.632819 11.6074 0.633819 11.644C0.634819 11.6806 0.681345 11.8053 0.737293 11.9211C0.79324 12.0369 0.839766 12.1612 0.840766 12.1974C0.841766 12.2336 0.86624 12.2632 0.895187 12.2632C0.924135 12.2632 0.947819 12.2902 0.947819 12.3232C0.947819 12.4031 1.17398 12.8637 1.22413 12.886C1.24587 12.8956 1.26361 12.9261 1.26361 12.9538C1.26361 13.008 1.84261 13.8852 1.95798 14.0059C1.99645 14.0461 2.14435 14.2167 2.28666 14.385C2.5025 14.6403 2.99787 15.1007 3.50377 15.5161C3.96208 15.8925 5.00803 16.4788 5.5794 16.6795C5.76756 16.7456 5.96887 16.8207 6.02677 16.8463C6.08466 16.8719 6.22677 16.9155 6.34256 16.9433C6.45835 16.971 6.64782 17.0169 6.76361 17.0452C7.47387 17.2191 7.65456 17.2369 8.71098 17.2369C9.44045 17.2369 9.92361 17.213 10.132 17.1665C10.9507 16.9843 11.3467 16.8808 11.3926 16.8371C11.4201 16.8109 11.4875 16.7895 11.5425 16.7895C11.7863 16.7895 13.4549 15.9292 13.7685 15.6417C13.8237 15.5912 13.9518 15.4932 14.0531 15.424C14.1544 15.3549 14.3011 15.2312 14.3791 15.1491C14.457 15.0671 14.534 15 14.5502 15C14.6053 15 15.269 14.2811 15.4986 13.9728C15.5843 13.8575 15.6791 13.7344 15.7091 13.6992C15.8707 13.5097 15.8952 13.4739 15.8952 13.4271C15.8952 13.399 15.9295 13.3417 15.9713 13.2999C16.0131 13.258 16.1352 13.061 16.2425 12.8619C16.3498 12.6629 16.4568 12.4645 16.4803 12.4211C16.6257 12.1525 16.8522 11.5178 17.1178 10.6352C17.1828 10.419 17.2411 10.0192 17.3228 9.22959C17.3687 8.78633 17.3686 8.50401 17.3225 8.0717C17.2373 7.27301 17.181 6.89054 17.1174 6.68065C16.8797 5.89554 16.7089 5.37443 16.6529 5.26317C16.6164 5.1908 16.5317 5.01317 16.4647 4.86843C16.3976 4.7237 16.3291 4.59343 16.3125 4.57896C16.2958 4.56449 16.2659 4.50854 16.246 4.45465C16.2131 4.36559 15.749 3.64143 15.6848 3.57896C15.6699 3.56449 15.5872 3.45791 15.501 3.34212C15.0004 2.66954 14.0779 1.8278 13.3952 1.42059C13.2794 1.35154 13.1728 1.28107 13.1583 1.26401C13.1319 1.23286 12.1941 0.770488 11.8346 0.611382C11.7289 0.564593 11.6093 0.52633 11.5688 0.52633C11.5283 0.52633 11.4727 0.505119 11.4452 0.479224C11.3972 0.434014 11.2285 0.387751 10.6583 0.26333C10.5136 0.231751 10.2886 0.179172 10.1583 0.146593C9.87498 0.0755928 7.85235 0.0424349 7.55308 0.103909ZM28.1902 0.943277C27.9467 1.1038 27.835 1.32628 27.835 1.65101C27.835 1.80901 27.8722 2.00996 27.9178 2.09801C27.9632 2.18596 28.0004 2.29386 28.0004 2.3377C28.0004 2.38159 28.0329 2.49528 28.0725 2.59033C28.1813 2.85112 28.2672 3.10812 28.3239 3.34212C28.352 3.45791 28.3972 3.57512 28.4245 3.60265C28.4518 3.63012 28.4743 3.70117 28.4744 3.76054C28.4747 3.81986 28.5102 3.93628 28.5534 4.01917C28.5967 4.10212 28.6322 4.2087 28.6323 4.25601C28.6326 4.30338 28.6681 4.40996 28.7113 4.49286C28.7546 4.5758 28.7899 4.6788 28.7899 4.72175C28.7899 4.76475 28.8273 4.87859 28.8729 4.9748C28.9409 5.11796 28.9441 5.1717 28.891 5.27096C28.8553 5.3377 28.8082 5.46391 28.7863 5.55138C28.7408 5.7337 28.6463 6.00433 28.5444 6.2448C28.5058 6.33601 28.4741 6.45565 28.4741 6.51059C28.4741 6.56559 28.4518 6.63301 28.4245 6.66054C28.3972 6.68801 28.3515 6.80528 28.3229 6.92107C28.2942 7.03686 28.1708 7.4158 28.0484 7.76317C27.7628 8.57401 27.7511 8.84312 27.9885 9.14286C28.1133 9.30038 28.2179 9.37091 28.3915 9.41464C28.5537 9.45549 29.7626 9.4737 32.3137 9.4737H36.0013L35.9878 12.3495C35.9759 14.8425 35.9636 15.2311 35.8952 15.2678C35.8518 15.2911 35.4042 15.5151 34.9006 15.7656C34.3969 16.0161 33.9416 16.2613 33.8888 16.3105C33.6196 16.5613 33.632 15.9924 33.632 28.0319C33.632 40.5564 33.5972 39.4914 34.0162 39.7949L34.2268 39.9474L36.811 39.947C39.1807 39.9467 39.4066 39.9391 39.5319 39.8549C39.7707 39.6947 39.857 39.5768 39.9007 39.3512C39.9648 39.0204 39.9568 14.6025 39.8924 14.3238C39.8103 13.9675 39.5294 13.7377 39.1753 13.7372C39.0102 13.737 38.8004 13.8156 38.3339 14.0526C37.9921 14.2263 37.6943 14.3684 37.6722 14.3684C37.6501 14.3684 37.632 11.4794 37.632 7.94843C37.632 0.791066 37.6556 1.24538 37.27 0.978119L37.0737 0.842119L32.7081 0.842487C28.5009 0.842803 28.337 0.846435 28.1902 0.943277ZM8.00045 1.66701C7.70082 1.69728 6.93003 1.84433 6.81624 1.89296C6.75835 1.9177 6.58071 1.97738 6.4215 2.02554C6.16492 2.10317 5.11187 2.59265 4.97413 2.69828C4.94519 2.72049 4.75571 2.86107 4.55308 3.0107C3.88861 3.50138 3.50471 3.9098 2.80403 4.87133C2.61798 5.1267 2.15135 6.09191 2.08029 6.36843C2.06166 6.4408 2.02566 6.54738 2.00019 6.60528C1.94713 6.72601 1.85529 7.11691 1.78987 7.50001C1.73171 7.84086 1.73171 9.47496 1.78987 9.8158C1.8614 10.235 1.94824 10.5982 1.99898 10.6909C2.02477 10.738 2.06198 10.8623 2.08166 10.9672C2.10135 11.0721 2.13592 11.1579 2.1585 11.1579C2.18108 11.1579 2.2154 11.2231 2.23482 11.3026C2.28166 11.4952 2.64798 12.23 2.80398 12.4445C3.2275 13.0268 3.45677 13.3048 3.78692 13.6364C4.1634 14.0146 4.78845 14.5263 4.87387 14.5263C4.8955 14.5263 4.95061 14.5596 4.99629 14.6004C5.10924 14.7011 5.92087 15.1144 6.21198 15.2194C6.87292 15.4581 7.24166 15.5457 7.97413 15.6384C8.44008 15.6973 9.65471 15.6631 9.91371 15.5838C10.0049 15.5559 10.1978 15.5069 10.3426 15.4749C10.8148 15.3706 11.025 15.3148 11.132 15.2651C11.1899 15.2382 11.3676 15.1624 11.5268 15.0966C11.686 15.0309 12.0057 14.8633 12.2373 14.7242C12.8128 14.3784 12.865 14.346 12.8952 14.3158C12.9097 14.3013 13.0755 14.1611 13.2636 14.0041C14.2195 13.2065 14.9867 12.0791 15.3896 10.8797C15.4361 10.7412 15.4741 10.5861 15.4741 10.535C15.4741 10.4839 15.4949 10.4196 15.5204 10.3921C15.695 10.2033 15.7766 8.1837 15.6405 7.42107C15.4438 6.3198 15.0117 5.34607 14.3026 4.40654C13.9389 3.92475 13.7276 3.70238 13.2636 3.31322C13.0755 3.15543 12.9136 3.00859 12.904 2.98686C12.8943 2.96512 12.8622 2.94738 12.8326 2.94738C12.803 2.94738 12.689 2.87633 12.5794 2.78949C12.4698 2.70265 12.3667 2.63159 12.3505 2.63159C12.3342 2.63159 12.2073 2.56538 12.0686 2.48443C11.9298 2.40349 11.686 2.2838 11.5268 2.21843C11.3676 2.15312 11.1899 2.07901 11.132 2.05386C10.4263 1.74686 8.97998 1.56822 8.00045 1.66701ZM29.7373 2.48175C29.7373 2.5488 30.2371 4.06922 30.3143 4.23686C30.3409 4.29475 30.3787 4.42501 30.3982 4.52633C30.4177 4.62765 30.4597 4.74275 30.4915 4.78217C30.5661 4.87449 30.5667 5.38765 30.4923 5.48101C30.4609 5.52043 30.4194 5.64043 30.4001 5.7478C30.3808 5.85512 30.3304 6.00907 30.2883 6.08991C30.2461 6.1707 30.2115 6.27559 30.2113 6.32296C30.2111 6.37028 30.1756 6.47686 30.1323 6.5598C30.0891 6.6427 30.0536 6.74928 30.0534 6.79665C30.0532 6.84396 30.0177 6.95054 29.9744 7.03349C29.9312 7.11638 29.8957 7.22296 29.8955 7.27033C29.8953 7.31764 29.8598 7.42422 29.8166 7.50717C29.7733 7.59007 29.7378 7.69933 29.7376 7.75001C29.7373 7.8367 29.9214 7.84212 32.8689 7.84212H36.0004V5.13159V2.42107H32.8689C30.5389 2.42107 29.7373 2.43659 29.7373 2.48175ZM8.39919 3.24543C8.0164 3.4527 7.89519 3.73701 7.89519 4.4277C7.89519 4.72717 7.87477 4.89475 7.83829 4.89475C7.76977 4.89475 7.27935 5.21607 7.13203 5.35754C6.53824 5.92775 6.29519 6.64765 6.41366 7.48543C6.44708 7.7217 6.49619 7.92849 6.52277 7.94491C6.54929 7.96133 6.58735 8.03964 6.60724 8.11896C6.62713 8.19828 6.66456 8.26317 6.69035 8.26317C6.71619 8.26317 6.73729 8.28822 6.73729 8.31891C6.73729 8.41949 7.06682 8.78722 7.33887 8.99033C7.68071 9.24549 7.98598 9.35822 8.57503 9.4467C9.07645 9.52207 9.24356 9.6068 9.38835 9.85907C9.48177 10.0218 9.50682 10.5263 9.4215 10.5263C9.39256 10.5263 9.36887 10.5606 9.36887 10.6026C9.36887 10.6445 9.28198 10.7452 9.17582 10.8263L8.98271 10.9737L7.9205 11C6.81671 11.0274 6.81135 11.0284 6.56108 11.2781C6.34103 11.4976 6.32629 12.0321 6.53366 12.2711C6.75903 12.531 6.89345 12.5782 7.40835 12.5786L7.89519 12.579V12.9671C7.89519 13.3794 7.99719 13.756 8.14656 13.895C8.28029 14.0193 8.57861 14.1579 8.71266 14.1579C8.92282 14.1579 9.20171 14.0052 9.3525 13.8075C9.49077 13.6261 9.5015 13.5754 9.51919 13.0174C9.53203 12.6124 9.55766 12.4211 9.59892 12.4211C9.68829 12.4211 10.2125 12.0587 10.3952 11.8706C10.658 11.6001 10.85 11.2841 10.9881 10.8947C11.0842 10.6238 11.1045 9.73259 11.017 9.62186C10.9869 9.5838 10.9463 9.48554 10.9267 9.40354C10.8515 9.08933 10.3067 8.4038 10.0005 8.23801C9.6055 8.02422 9.3785 7.94801 8.91787 7.87449C8.14535 7.75122 7.97387 7.59328 8.00924 7.03759C8.02535 6.7847 8.05771 6.67959 8.14698 6.59033C8.21113 6.52617 8.28529 6.4737 8.31187 6.4737C8.3384 6.4737 8.36992 6.44407 8.38198 6.40791C8.39808 6.35933 8.68471 6.33522 9.47845 6.3158C10.6525 6.28707 10.6937 6.27707 10.9325 5.96391C11.1373 5.69543 11.1371 5.35691 10.9319 5.08796C10.7101 4.79717 10.5506 4.73686 10.0031 4.73686H9.52677V4.32859C9.52677 4.10407 9.50366 3.83975 9.4754 3.74122C9.34445 3.28475 8.79456 3.03138 8.39919 3.24543ZM18.8843 10.6652C18.4318 10.904 18.3465 11.539 18.7172 11.9097C18.9162 12.1087 18.9313 12.1127 20.3689 12.3401C20.6439 12.3835 21.0347 12.4454 21.2373 12.4775C21.4399 12.5096 21.8426 12.5709 22.132 12.6137C23.0857 12.7548 23.0187 12.7347 22.916 12.8482C22.8667 12.9027 22.7944 12.9474 22.7555 12.9474C22.7165 12.9474 22.6845 12.9652 22.6843 12.9869C22.6841 13.0085 22.5953 13.0852 22.4869 13.1571C22.3786 13.229 21.9228 13.5612 21.4741 13.8953C21.0255 14.2294 20.5966 14.5419 20.521 14.5899C20.4455 14.6378 20.3507 14.7083 20.3105 14.7466C20.2702 14.785 20.1011 14.909 19.9347 15.0222C19.7682 15.1354 19.632 15.2478 19.632 15.2719C19.632 15.2961 19.6099 15.3158 19.5828 15.3158C19.5319 15.3158 19.2675 15.505 17.7433 16.6316C17.2538 16.9934 16.8012 17.325 16.7377 17.3684C16.6742 17.4119 16.5735 17.4889 16.5138 17.5395C16.4542 17.5901 16.3912 17.632 16.374 17.6324C16.3567 17.6329 16.268 17.698 16.1769 17.7772C16.0858 17.8563 15.9587 17.9566 15.8944 18C15.8302 18.0434 15.5264 18.2639 15.2194 18.4899C14.9123 18.7158 14.5835 18.9486 14.4887 19.0073C14.3938 19.0659 14.3162 19.1356 14.3162 19.1622C14.3162 19.1888 14.2928 19.2105 14.2642 19.2105C14.2356 19.2105 14.1705 19.2445 14.1195 19.286C14.0685 19.3275 13.7189 19.5875 13.3426 19.8638C12.9662 20.14 12.6187 20.3962 12.5702 20.433C12.5217 20.4699 12.4296 20.5355 12.3656 20.579C12.3015 20.6224 11.9065 20.9125 11.4877 21.2237C11.069 21.5349 10.7172 21.7895 10.7061 21.7895C10.695 21.7895 10.6441 21.8234 10.5931 21.8648C10.5422 21.9062 10.1452 22.2014 9.71098 22.5207C9.27677 22.8401 8.89666 23.1224 8.86635 23.1481C8.83598 23.1738 8.68319 23.2848 8.52677 23.3947C8.37035 23.5047 8.21756 23.6154 8.18719 23.6408C8.15687 23.6662 7.88892 23.8658 7.59182 24.0844C6.97182 24.5404 6.87335 24.6831 6.90608 25.0781C6.92845 25.3479 7.07366 25.6267 7.19345 25.63C7.22719 25.6309 7.26392 25.6589 7.27503 25.6922C7.28613 25.7255 7.4315 25.7641 7.59808 25.7779C7.88213 25.8014 7.91961 25.7903 8.20071 25.5989C8.36556 25.4866 8.50834 25.377 8.51798 25.3553C8.52766 25.3335 8.55919 25.3158 8.58808 25.3158C8.64424 25.3158 9.12019 24.9477 9.14956 24.8816C9.15924 24.8599 9.18666 24.8421 9.21061 24.8421C9.2345 24.8421 9.45456 24.6941 9.69961 24.5132C9.94461 24.3323 10.1971 24.1487 10.2606 24.1053C10.3241 24.0619 10.4278 23.9866 10.4909 23.9382C10.5541 23.8897 10.9136 23.6242 11.2899 23.3481C11.6662 23.0721 11.999 22.8252 12.0293 22.7994C12.0597 22.7736 12.2136 22.6623 12.3714 22.5521C12.5292 22.4419 12.6662 22.3318 12.6759 22.3074C12.6856 22.2831 12.7191 22.2632 12.7504 22.2632C12.7818 22.2632 12.8449 22.2272 12.8908 22.1832C13.0381 22.0419 13.903 21.4211 13.9526 21.4211C13.9789 21.4211 14.0006 21.4033 14.0008 21.3816C14.001 21.3599 14.0898 21.2832 14.1982 21.2111C14.3066 21.139 14.8249 20.7601 15.35 20.369C15.8751 19.9779 16.3575 19.6224 16.4218 19.579C16.6788 19.4056 17.0278 19.134 17.0443 19.0945C17.054 19.0715 17.0917 19.0526 17.1282 19.0526C17.1648 19.0526 17.2376 19.0053 17.2899 18.9474C17.3423 18.8895 17.417 18.8421 17.456 18.8421C17.4949 18.8421 17.5268 18.8224 17.5268 18.7982C17.5268 18.7741 17.6629 18.6616 17.8294 18.5482C17.9959 18.4349 18.1557 18.3238 18.1847 18.3013C18.2136 18.2789 18.6044 17.9893 19.0531 17.6579C19.5018 17.3265 19.8937 17.0346 19.924 17.0092C19.9544 16.9838 20.1083 16.8729 20.2661 16.7626C20.424 16.6524 20.561 16.5423 20.5706 16.518C20.5803 16.4936 20.6092 16.4737 20.6349 16.4737C20.6607 16.4737 20.8835 16.3198 21.1301 16.1316C21.3767 15.9434 21.6023 15.7895 21.6316 15.7895C21.6608 15.7895 21.6847 15.7697 21.6847 15.7456C21.6847 15.7215 21.8208 15.609 21.9873 15.4957C22.1538 15.3824 22.665 15.0094 23.1233 14.6669C23.5817 14.3243 23.9632 14.0519 23.9712 14.0615C23.9791 14.0711 23.9658 14.2092 23.9417 14.3684C23.8671 14.8589 23.7471 15.6338 23.6646 16.1579C23.3226 18.3293 23.3423 18.1272 23.4503 18.3548C23.5012 18.4622 23.5689 18.5746 23.6007 18.6046C23.9632 18.9479 24.5262 18.9168 24.8121 18.5378C24.9239 18.3894 24.968 18.2125 25.0837 17.4474C25.1275 17.1579 25.1959 16.7079 25.2359 16.4474C25.2758 16.1869 25.335 15.7842 25.3675 15.5526C25.3999 15.3211 25.4506 15.0132 25.4801 14.8684C25.5096 14.7237 25.5539 14.4395 25.5786 14.2369C25.6484 13.6629 25.7365 13.1113 25.8193 12.7293C25.8611 12.537 25.8952 12.3156 25.8952 12.2373C25.8952 11.8757 25.5575 11.5073 25.1838 11.4613C24.7721 11.4107 24.1281 11.3097 23.8952 11.2593C23.7649 11.2311 23.4807 11.1862 23.2636 11.1595C22.8663 11.1108 22.5309 11.0612 21.6583 10.9224C21.3978 10.8809 20.936 10.8089 20.632 10.7623C20.3281 10.7157 19.9511 10.6554 19.7943 10.6283C19.4052 10.561 19.055 10.5752 18.8843 10.6652ZM37.7899 16.1084C37.5149 16.2519 37.2533 16.3824 37.2086 16.3985C37.1638 16.4146 36.7138 16.6344 36.2086 16.887L35.2899 17.3463L35.2767 27.8574L35.2633 38.3684H36.7898H38.3162V27.1053C38.3162 20.9105 38.3103 15.8433 38.3031 15.8449C38.2958 15.8463 38.0649 15.965 37.7899 16.1084ZM27.632 19.3973C26.5754 19.9311 25.6814 20.368 25.6452 20.3682C25.609 20.3683 25.5794 20.3902 25.5794 20.4169C25.5794 20.4435 25.5083 20.481 25.4215 20.5C25.3347 20.5191 25.2636 20.5539 25.2636 20.5774C25.2636 20.601 25.1987 20.6365 25.1194 20.6564C25.0401 20.6763 24.9631 20.7084 24.9483 20.7279C24.9336 20.7473 24.831 20.8093 24.7204 20.8656C24.6098 20.9219 24.4677 21.0403 24.4046 21.1288L24.2899 21.2895L24.2762 30.2848L24.2624 39.2801L24.372 39.5065C24.4323 39.631 24.5597 39.7812 24.6551 39.8401C24.8236 39.9442 24.9045 39.9474 27.4245 39.9474C30.0053 39.9474 30.0212 39.9467 30.1877 39.8326C30.2798 39.7695 30.3997 39.6352 30.4541 39.5341C30.55 39.3561 30.5531 39.0342 30.5531 29.1579V18.9655L30.4056 18.7722C30.3245 18.6659 30.1895 18.5433 30.1056 18.5C29.7777 18.3304 29.6576 18.3739 27.632 19.3973ZM27.4215 21.2802L25.9215 22.0324L25.9082 30.2004L25.8949 38.3684H27.4213H28.9478V29.4474C28.9478 24.5408 28.9419 20.5267 28.9347 20.5272C28.9274 20.5276 28.2465 20.8665 27.4215 21.2802ZM20.0268 23.1998C19.911 23.2461 19.8041 23.3012 19.7894 23.3221C19.7746 23.343 19.6977 23.3764 19.6183 23.3963C19.539 23.4162 19.4741 23.4517 19.4741 23.4752C19.4741 23.4987 19.4031 23.5336 19.3162 23.5526C19.2294 23.5717 19.1583 23.6065 19.1583 23.6301C19.1583 23.6536 19.0935 23.6891 19.0141 23.709C18.9348 23.7289 18.8579 23.7611 18.8431 23.7805C18.8283 23.7999 18.0152 24.2152 17.0362 24.7033C16.0572 25.1914 15.1977 25.6451 15.1261 25.7114C15.0546 25.7777 14.9733 25.9111 14.9456 26.0077C14.8788 26.2407 14.8774 39.1755 14.9442 39.4084C14.9967 39.5914 15.093 39.7086 15.3111 39.8549C15.4365 39.9391 15.6623 39.9467 18.032 39.947L20.6162 39.9474L20.8317 39.7913C20.9809 39.6832 21.0641 39.574 21.1025 39.4361C21.1842 39.1416 21.1798 23.8686 21.0979 23.6263C21.0264 23.4148 20.9326 23.3156 20.6897 23.1945C20.4734 23.0868 20.3059 23.0881 20.0268 23.1998ZM17.961 26.01L16.4741 26.7551V32.5617V38.3684H18.0268H19.5794V31.8158C19.5794 26.6083 19.5659 25.2633 19.5136 25.2641C19.4775 25.2645 18.7788 25.6002 17.961 26.01ZM10.6847 27.89C10.5544 27.9426 9.97413 28.2254 9.39519 28.5186C8.81624 28.8117 8.31298 29.0518 8.27677 29.0521C8.24061 29.0524 8.21098 29.0744 8.21098 29.1011C8.21098 29.1277 8.13992 29.1652 8.05308 29.1842C7.96624 29.2033 7.89519 29.2388 7.89519 29.2632C7.89519 29.2875 7.82413 29.3231 7.73729 29.3421C7.65045 29.3612 7.57919 29.3927 7.57892 29.4121C7.57861 29.4315 7.46961 29.4947 7.33666 29.5526C6.57182 29.8857 5.80619 30.3177 5.65835 30.4996L5.50045 30.694L5.4864 34.9819C5.47061 39.7938 5.44761 39.4973 5.85935 39.7956L6.06887 39.9474L8.65308 39.947C11.0228 39.9467 11.2487 39.9391 11.374 39.8549C11.6128 39.6947 11.6991 39.5768 11.7428 39.3512C11.8014 39.0487 11.799 28.655 11.7402 28.402C11.6806 28.1448 11.4737 27.9271 11.2154 27.8496C10.9655 27.7747 10.9712 27.7743 10.6847 27.89ZM8.56624 30.7004L7.10571 31.4388V34.9036V38.3684H8.63203H10.1583V34.1579C10.1583 30.8206 10.1447 29.9489 10.0926 29.9547C10.0564 29.9587 9.3695 30.2943 8.56624 30.7004Z" fill="black"/>
</svg>
