<svg width="132" height="90" viewBox="0 0 132 90" fill="none" xmlns="http://www.w3.org/2000/svg">
<g id="Payment Method/ApplePay">
<path id="ApplePay" fill-rule="evenodd" clip-rule="evenodd" d="M31.2983 33.4986C33.0609 33.6473 34.8236 32.6065 35.9253 31.2868C37.0085 29.9301 37.7246 28.1086 37.541 26.25C35.9803 26.3243 34.0524 27.2908 32.9508 28.6476C31.9409 29.8185 31.078 31.7143 31.2983 33.4986ZM52.2665 57.4375V28.4617H63.0077C68.5527 28.4617 72.4269 32.3277 72.4269 37.9778C72.4269 43.628 68.4793 47.5311 62.8608 47.5311H56.7099V57.4375H52.2665ZM37.5225 33.8517C35.9696 33.7612 34.5527 34.3244 33.4082 34.7794C32.6717 35.0721 32.048 35.32 31.5736 35.32C31.0411 35.32 30.3916 35.0589 29.6625 34.7656C28.707 34.3814 27.6147 33.9421 26.4692 33.9632C23.8436 34.0004 21.4016 35.5059 20.0612 37.9035C17.3071 42.6987 19.3451 49.7986 22.0075 53.7017C23.3111 55.6346 24.8718 57.7535 26.9282 57.6791C27.8329 57.6446 28.4837 57.365 29.1572 57.0757C29.9326 56.7427 30.7381 56.3967 31.9959 56.3967C33.21 56.3967 33.9803 56.7337 34.7197 57.0571C35.4227 57.3647 36.0979 57.6601 37.1002 57.6419C39.2301 57.6048 40.5704 55.709 41.8741 53.776C43.2809 51.7015 43.8991 49.6768 43.9929 49.3695C43.9983 49.3519 44.0019 49.34 44.0039 49.334C44.0034 49.3334 44.002 49.3326 43.9998 49.3314C43.9963 49.3294 43.9905 49.3266 43.9827 49.323L43.9536 49.3094C43.4833 49.0915 39.8888 47.4257 39.8544 42.9589C39.8197 39.2097 42.7054 37.3101 43.1597 37.011C43.1873 36.9928 43.206 36.9806 43.2144 36.9742C41.3783 34.2234 38.514 33.9261 37.5225 33.8517ZM80.5426 57.6605C83.3335 57.6605 85.9224 56.2294 87.0975 53.9619H87.1893V57.4375H91.3022V43.0147C91.3022 38.8328 87.9972 36.1378 82.9112 36.1378C78.1924 36.1378 74.7038 38.87 74.5753 42.6244H78.578C78.9085 40.8401 80.5426 39.6692 82.7827 39.6692C85.5001 39.6692 87.0241 40.9516 87.0241 43.3121V44.9105L81.479 45.245C76.3196 45.561 73.5287 47.6984 73.5287 51.4156C73.5287 55.17 76.4114 57.6605 80.5426 57.6605ZM81.7358 54.2221C79.3672 54.2221 77.8616 53.0698 77.8616 51.3041C77.8616 49.4827 79.3122 48.4233 82.0847 48.256L87.0238 47.94V49.5756C87.0238 52.2892 84.747 54.2221 81.7358 54.2221ZM104.944 58.5713C103.163 63.6453 101.125 65.318 96.7919 65.318C96.4614 65.318 95.3598 65.2809 95.1027 65.2065V61.7309C95.3781 61.7681 96.0575 61.8053 96.4063 61.8053C98.371 61.8053 99.4726 60.9689 100.152 58.7943L100.556 57.5119L93.0279 36.4166H97.6732L102.906 53.5344H102.998L108.231 36.4166H112.748L104.944 58.5713ZM56.7095 32.2533H61.8322C65.688 32.2533 67.8913 34.335 67.8913 37.9964C67.8913 41.6579 65.688 43.7581 61.8138 43.7581H56.7095V32.2533Z" fill="black"/>
</g>
</svg>
