<svg width="132" height="90" viewBox="0 0 132 90" fill="none" xmlns="http://www.w3.org/2000/svg">
<g id="Payment Method/Discover">
<g id="Discover">
<path id="Stripe" d="M55.2539 88.125L129.316 66.5625V83.125C129.316 85.8864 127.078 88.125 124.316 88.125H55.2539Z" fill="#FD6020"/>
<path id="DISC-VER" fill-rule="evenodd" clip-rule="evenodd" d="M115.258 36.0407C119.333 36.0407 121.574 37.854 121.574 41.2791C121.778 43.8983 119.944 46.1145 117.499 46.5175L123 53.9721H118.722L114.036 46.7189H113.628V53.9721H110.165V36.0407H115.258ZM113.628 44.3012H114.647C116.888 44.3012 117.907 43.2938 117.907 41.4805C117.907 39.8687 116.888 38.8613 114.647 38.8613H113.628V44.3012ZM98.145 53.972H107.924V50.9499H101.608V46.1145H107.72V43.0923H101.608V39.0628H107.924V36.0407H98.145V53.972ZM87.9586 48.1292L83.2728 36.0407H79.6057L87.1436 54.375H88.9772L96.5152 36.0407H92.8481L87.9586 48.1292ZM46.6015 45.1071C46.6015 50.144 50.6761 54.375 55.7693 54.375C57.3992 54.375 58.8253 53.972 60.2514 53.3676V49.3381C59.2327 50.547 57.8066 51.3529 56.1768 51.3529C52.9171 51.3529 50.2686 48.9351 50.2686 45.7115V45.3086C50.0649 42.085 52.7134 39.2643 55.9731 39.0628C57.6029 39.0628 59.2327 39.8687 60.2514 41.0776V37.0481C59.029 36.2422 57.3992 36.0407 55.9731 36.0407C50.6761 35.6377 46.6015 39.8687 46.6015 45.1071ZM40.2859 42.8909C38.2486 42.085 37.6374 41.682 37.6374 40.6746C37.8412 39.4658 38.8598 38.4584 40.0822 38.6599C41.1008 38.6599 42.1195 39.2643 42.9344 40.0702L44.768 37.6525C43.3419 36.4436 41.5083 35.6377 39.6747 35.6377C36.8225 35.4363 34.3778 37.6525 34.174 40.4732V40.6746C34.174 43.0923 35.1927 44.5027 38.4523 45.5101C39.2673 45.7115 40.0822 46.1145 40.8971 46.5174C41.5083 46.9204 41.9157 47.5248 41.9157 48.3307C41.9157 49.7411 40.6934 50.9499 39.471 50.9499H39.2673C37.6374 50.9499 36.2113 49.9425 35.6001 48.5322L33.3591 50.7484C34.5815 52.9647 37.0262 54.1735 39.471 54.1735C42.7307 54.375 45.3791 51.9573 45.5829 48.7337V48.1292C45.3791 45.7115 44.3605 44.5027 40.2859 42.8909ZM28.4696 53.972H31.933V36.0407H28.4696V53.972ZM12.375 36.0407H17.4682H18.4869C23.3764 36.2422 27.2472 40.2717 27.0435 45.1071C27.0435 47.7263 25.8211 50.144 23.7838 51.9573C21.9503 53.3676 19.7093 54.1735 17.4682 53.9721H12.375V36.0407ZM16.857 50.9499C18.4869 51.1514 20.3204 50.547 21.5428 49.5396C22.7652 48.3307 23.3764 46.7189 23.3764 44.9056C23.3764 43.2938 22.7652 41.682 21.5428 40.4732C20.3204 39.4658 18.4869 38.8614 16.857 39.0628H15.8384V50.9499H16.857Z" fill="black"/>
<path id="O" fill-rule="evenodd" clip-rule="evenodd" d="M70.6411 35.625C65.5478 35.625 61.2695 39.6545 61.2695 44.8929C61.2695 49.9298 65.3441 54.1608 70.6411 54.3623C75.938 54.5637 80.0126 50.3328 80.2164 45.0944C80.0126 39.856 75.938 35.625 70.6411 35.625V35.625Z" fill="#FD6020"/>
</g>
</g>
</svg>
