<svg width="84" height="34" viewBox="0 0 84 34" fill="none" xmlns="http://www.w3.org/2000/svg">
<g id="Giropay">
<path id="Subtract" fill-rule="evenodd" clip-rule="evenodd" d="M6.2681 2.50548C4.28642 2.50881 2.6831 4.00819 2.67924 5.86111V28.1394C2.67973 28.371 2.7052 28.597 2.75328 28.8153C3.08984 30.3434 4.53413 31.4919 6.2681 31.4951H43.6085V2.50548H6.2681ZM6.26798 0H77.732C81.194 0.000555016 83.9988 2.62273 84 5.86097V28.1393C83.9988 31.3764 81.194 33.9989 77.732 34H6.26798C2.80573 33.9989 0.00118611 31.3764 0 28.1393V5.86097C0.00118611 2.62273 2.80573 0.000555016 6.26798 0Z" fill="#0F3365"/>
<path id="Union" fill-rule="evenodd" clip-rule="evenodd" d="M49.7208 24.4947H46.5859V12.5877H49.4774V14.119H49.5124C50.1392 12.9299 51.4635 12.3923 52.8919 12.3923C55.4005 12.3923 56.7755 14.6241 56.7755 16.6759C56.7755 19.1846 55.3299 21.2695 52.63 21.2695C51.5329 21.2695 50.3483 20.8955 49.7558 19.8856H49.7208V24.4947ZM51.6381 19.0215C52.8218 19.0215 53.5361 18.0935 53.5361 16.7412C53.5361 15.6167 52.8568 14.6399 51.6381 14.6399C50.4878 14.6399 49.7207 15.5848 49.7207 16.855C49.7207 18.0935 50.5925 19.0215 51.6381 19.0215ZM68.7884 24.4946C69.4334 24.6253 70.0774 24.6905 70.7396 24.6905C73.4513 24.6905 74.2091 22.849 75.0315 20.8503C75.0809 20.7302 75.1306 20.6094 75.1809 20.4885L78.5086 12.5876H75.3731L73.5088 18.1255H73.4741L71.523 12.5876H68.145L71.8186 21.2694C71.5936 22.0187 71.0011 22.4424 70.2358 22.4424C69.799 22.4424 69.4156 22.3944 68.9984 22.2629L68.7884 24.4946ZM67.6201 21.3499C67.4811 20.6822 67.4455 20.0148 67.4455 19.3465V16.1866C67.4455 13.5966 65.4427 12.6686 63.126 12.6686C61.7842 12.6686 60.6174 12.847 59.5027 13.2713L59.5543 15.2583C60.4261 14.8026 61.4361 14.6231 62.4457 14.6231C63.5785 14.6231 64.5022 14.9325 64.5194 16.0894C64.1187 16.0237 63.5619 15.9743 63.0566 15.9743C61.3842 15.9743 58.3709 16.2848 58.3709 18.8745C58.3709 20.7158 59.9733 21.5463 61.7676 21.5463C63.0566 21.5463 63.9275 21.0732 64.6412 20.0148H64.6753C64.6753 20.273 64.6937 20.5314 64.7123 20.7929L64.7123 20.7929L64.7123 20.793C64.7254 20.9768 64.7386 21.1621 64.7456 21.3499H67.6201ZM61.2967 18.6631C61.2967 17.8486 62.1326 17.5392 63.1954 17.5392C63.5286 17.5392 63.8529 17.5555 64.156 17.5707C64.281 17.577 64.4024 17.5831 64.5194 17.5878C64.5194 18.581 63.7709 19.5922 62.5854 19.5922C61.8542 19.5922 61.2967 19.2487 61.2967 18.6631Z" fill="#FFFFFE"/>
<path id="Union_2" fill-rule="evenodd" clip-rule="evenodd" d="M19.3369 21.0735H22.472V12.5876H19.3369V21.0735ZM19.3369 11.2031H22.472V9.05298H19.3369V11.2031ZM41.8779 16.8396C41.8779 19.6413 39.5958 21.2697 36.6006 21.2697C33.6048 21.2697 31.3228 19.6413 31.3228 16.8396C31.3228 14.0209 33.6048 12.3925 36.6006 12.3925C39.5958 12.3925 41.8779 14.0209 41.8779 16.8396ZM34.5625 16.8395C34.5625 18.0939 35.1547 19.2172 36.6005 19.2172C38.0461 19.2172 38.6386 18.0939 38.6386 16.8395C38.6386 15.5688 38.0461 14.4449 36.6005 14.4449C35.1547 14.4449 34.5625 15.5688 34.5625 16.8395ZM30.1399 12.3925C30.5052 12.3925 30.8884 12.4414 31.2021 12.4894L31.0449 14.9329C30.6971 14.8354 30.3484 14.8354 29.9831 14.8354C28.52 14.8354 27.701 15.8292 27.701 17.4912V21.0738H24.5658V12.5879H27.4226V14.1511H27.457C27.9972 13.0766 28.7812 12.3925 30.1399 12.3925ZM14.3337 12.5879H17.1735V20.0812C17.1735 23.5664 15.362 24.6909 11.7041 24.6909C10.2063 24.6909 8.96952 24.397 8.23769 24.1536L8.39485 21.8403C9.35263 22.2802 10.1538 22.5405 11.4603 22.5405C13.2721 22.5405 14.2471 21.7426 14.2471 20.0812V19.6241H14.2118C13.4634 20.619 12.4184 21.0738 11.1644 21.0738C8.67329 21.0738 7.12305 19.3161 7.12305 16.8066C7.12305 14.2815 8.39485 12.3925 11.2163 12.3925C12.5572 12.3925 13.6374 13.0766 14.2996 14.1186H14.3337V12.5879ZM12.1398 14.6401C10.9727 14.6401 10.363 15.6011 10.363 16.7572C10.363 18.0762 11.1992 18.8263 12.1398 18.8263C13.2542 18.8263 14.1429 17.9469 14.1429 16.6431C14.1429 15.6979 13.5504 14.6401 12.1398 14.6401Z" fill="#D8232A"/>
</g>
</svg>
