<svg width="132" height="90" viewBox="0 0 132 90" fill="none" xmlns="http://www.w3.org/2000/svg">
<g id="Payment Method/GooglePay">
<g id="GooglePay">
<g id="Pay">
<path id="Union" fill-rule="evenodd" clip-rule="evenodd" d="M62.2381 59.0925V47.7639H68.085C70.481 47.7639 72.5032 46.9611 74.1518 45.3778L74.5474 44.9764C77.5588 41.6982 77.361 36.5914 74.1518 33.5586C72.5472 31.953 70.3491 31.0833 68.085 31.1279H58.6992V59.0925H62.2381ZM62.2385 44.3296V34.5621H68.1743C69.4494 34.5621 70.6586 35.0527 71.5599 35.9447C73.4725 37.8179 73.5165 40.94 71.6698 42.8801C70.7685 43.839 69.4934 44.3742 68.1743 44.3296H62.2385ZM91.0551 41.4529C89.5384 40.048 87.4722 39.3344 84.8565 39.3344C81.4934 39.3344 78.9656 40.5832 77.2951 43.0586L80.4164 45.0433C81.5594 43.3485 83.12 42.5011 85.0983 42.5011C86.3512 42.5011 87.5601 42.9694 88.5053 43.8168C89.4285 44.6196 89.9561 45.7792 89.9561 47.0057V47.8308C88.5932 47.0726 86.8787 46.6712 84.7686 46.6712C82.3067 46.6712 80.3284 47.251 78.8557 48.433C77.383 49.6149 76.6357 51.1759 76.6357 53.1606C76.5917 54.967 77.361 56.6841 78.7238 57.8437C80.1086 59.0925 81.8671 59.7169 83.9333 59.7169C86.3732 59.7169 88.3075 58.6242 89.7802 56.4388H89.9341V59.0925H93.3191V47.2956C93.3191 44.8203 92.5718 42.8579 91.0551 41.4529ZM81.4501 55.569C80.7246 55.0338 80.2849 54.1641 80.2849 53.2275C80.2849 52.1794 80.7686 51.3097 81.7139 50.6184C82.6812 49.9271 83.8904 49.5703 85.3193 49.5703C87.2979 49.548 88.8368 49.994 89.936 50.886C89.936 52.4024 89.3425 53.7181 88.1773 54.8331C87.122 55.9036 85.6931 56.5057 84.1981 56.5057C83.2088 56.528 82.2415 56.1935 81.4501 55.569ZM100.925 67.4998L112.75 39.9588H108.904L103.43 53.6958H103.364L97.7593 39.9588H93.9127L101.672 57.866L97.2757 67.4998H100.925Z" fill="#3C4043"/>
</g>
<g id="G">
<path id="Blue" d="M50.0208 45.311C50.0208 44.2183 49.9329 43.1256 49.757 42.0552H34.832V48.2324H43.3826C43.0309 50.2171 41.8879 52.0011 40.2173 53.1162V57.1302H45.3169C48.3063 54.3427 50.0208 50.2171 50.0208 45.311Z" fill="#4285F4"/>
<path id="Green" d="M34.8329 61.0105C39.0972 61.0105 42.702 59.5833 45.3178 57.1303L40.2182 53.1162C38.7895 54.0974 36.965 54.6549 34.8329 54.6549C30.7005 54.6549 27.2055 51.8228 25.9526 48.0317H20.6992V52.1796C23.3809 57.5986 28.8541 61.0105 34.8329 61.0105Z" fill="#34A853"/>
<path id="Yellow" d="M25.9525 48.0317C25.293 46.047 25.293 43.8838 25.9525 41.8768V37.7512H20.6983C18.4339 42.2782 18.4339 47.6303 20.6983 52.1572L25.9525 48.0317Z" fill="#FBBC04"/>
<path id="Red" d="M34.8329 35.2535C37.0969 35.2089 39.273 36.0787 40.8996 37.662L45.4277 33.0681C42.5482 30.3475 38.7675 28.8533 34.8329 28.8979C28.8541 28.8979 23.3809 32.3322 20.6992 37.7512L25.9526 41.899C27.2055 38.0857 30.7005 35.2535 34.8329 35.2535Z" fill="#EA4335"/>
</g>
</g>
</g>
</svg>
