<svg width="132" height="90" viewBox="0 0 132 90" fill="none" xmlns="http://www.w3.org/2000/svg">
<g id="Payment Method/Interac">
<g id="Interac">
<path id="Vector" fill-rule="evenodd" clip-rule="evenodd" d="M96.4153 70.6587C96.4153 72.0183 95.8752 73.3222 94.9138 74.2836C93.9524 75.245 92.6485 75.7851 91.2889 75.7851H39.9721C39.2984 75.7859 38.6312 75.6538 38.0085 75.3966C37.3859 75.1393 36.8201 74.7618 36.3434 74.2857C35.8667 73.8096 35.4886 73.2442 35.2306 72.6218C34.9726 71.9995 34.8398 71.3324 34.8398 70.6587V19.3442C34.8398 18.6705 34.9726 18.0034 35.2306 17.3811C35.4886 16.7587 35.8667 16.1933 36.3434 15.7172C36.8201 15.2411 37.3859 14.8636 38.0085 14.6063C38.6312 14.349 39.2984 14.217 39.9721 14.2178H91.2854C92.645 14.2178 93.9489 14.7579 94.9103 15.7193C95.8717 16.6807 96.4118 17.9846 96.4118 19.3442L96.4153 70.6587Z" fill="#EDAA00"/>
<path id="Vector_2" d="M69.2214 45.6662V34.6409L72.1003 33.9593V35.4028C72.1003 35.4028 72.8448 33.5026 74.5738 33.061C75.1063 32.927 75.3743 33.0074 75.3743 33.0074V35.8199C74.8562 35.827 74.3443 35.9338 73.8666 36.1345C72.7994 36.5551 72.2634 37.4755 72.2634 38.8737V44.9613L69.2214 45.6662ZM54.0506 49.2512C54.0506 49.2512 53.5846 48.5521 53.5846 46.0681V40.5794L52.1026 40.9289V38.6698L53.5857 38.3202V35.8549L56.6465 35.1325V37.5921L58.8089 37.0794V39.3397L56.6465 39.8535V45.446C56.6465 47.9871 57.321 48.4752 57.321 48.4752L54.0506 49.2512ZM59.1281 42.6929C59.1281 40.732 59.4077 39.3024 60.0066 38.2049C60.7185 36.9023 61.8894 36.0541 63.5928 35.6661C66.9494 34.903 68.16 36.8907 68.1122 39.5541C68.097 40.506 68.1005 40.9708 68.1005 40.9708L62.1865 42.3608V42.4563C62.1865 44.3205 62.578 45.2025 63.7571 44.9508C64.7754 44.7364 65.0585 44.098 65.1389 43.3104C65.1528 43.181 65.1575 42.8583 65.1575 42.8583L67.9293 42.1942C67.9293 42.1942 67.9363 42.4214 67.9293 42.6742C67.9036 43.7333 67.5961 46.3594 63.7454 47.2682C60.0986 48.1339 59.1246 45.9062 59.1246 42.6929H59.1281ZM63.7116 37.719C62.7318 37.9416 62.218 38.9028 62.197 40.4955L65.1726 39.7871C65.1785 39.7149 65.1785 39.5541 65.1785 39.3071C65.1727 38.1059 64.801 37.472 63.7128 37.719H63.7116ZM85.7273 36.2452C85.6108 32.8874 86.4823 30.2216 90.2281 29.3711C92.6189 28.8282 93.5242 29.448 93.9832 30.048C94.4248 30.6213 94.5949 31.3937 94.5949 32.4761V32.6765L91.6612 33.3756V32.9666C91.6612 31.685 91.3116 31.1957 90.3796 31.4287C89.2716 31.7071 88.8242 32.7581 88.8242 34.8506V35.8258C88.8242 37.9521 89.1154 38.9261 90.3912 38.6581C91.5004 38.4251 91.6519 37.4557 91.6728 36.6029C91.6728 36.4689 91.681 36.0401 91.681 36.0401L94.61 35.3504V35.806C94.6019 38.5929 93.1327 40.3498 90.3784 40.9906C86.5883 41.8808 85.845 39.6869 85.7285 36.2452H85.7273ZM75.5945 40.9452C75.5945 38.3913 77.0928 37.5839 79.3449 36.653C81.3687 35.8153 81.4118 35.3993 81.4211 34.6723C81.4316 34.0606 81.1485 33.5352 80.1395 33.7927C79.2133 34.0257 78.9674 34.6991 78.9185 35.2351C78.9015 35.4233 78.8952 35.6123 78.8998 35.8013L76.0605 36.4712C76.0414 35.9053 76.1074 35.3398 76.2562 34.7935C76.7106 33.266 78.0586 32.2384 80.3819 31.7013C83.4018 31.0023 84.4096 32.3305 84.4143 34.3927V39.2756C84.4143 41.6373 84.8523 41.9821 84.8523 41.9821L82.0643 42.6428C81.9101 42.3204 81.7846 41.9851 81.6891 41.6408C81.6891 41.6408 81.0798 43.1775 78.9756 43.6739C76.7619 44.1935 75.5968 42.8257 75.5968 40.9464L75.5945 40.9452ZM81.4048 37.4592C80.9346 37.7887 80.4382 38.0791 79.9205 38.3272C78.9884 38.7828 78.5701 39.342 78.5701 40.2042C78.5701 40.951 79.0362 41.4427 79.875 41.233C80.778 41.007 81.4048 40.1646 81.4048 38.996V37.4592ZM38.0515 56.9793C37.7333 56.9786 37.4212 56.8922 37.148 56.7291C36.8748 56.566 36.6506 56.3323 36.499 56.0526C36.3475 55.7728 36.2741 55.4574 36.2867 55.1394C36.2993 54.8215 36.3974 54.5129 36.5706 54.246L36.5893 54.2215L36.6231 54.2134L40.7825 53.2312V56.3921L40.7172 56.4072C39.7735 56.6344 38.6457 56.8919 38.4127 56.9397C38.2933 56.9664 38.1714 56.9797 38.0491 56.9793H38.0515ZM38.0515 61.0234C37.584 61.0234 37.1356 60.8381 36.8046 60.5081C36.4735 60.1781 36.2867 59.7303 36.2852 59.2629C36.2833 58.9217 36.3827 58.5876 36.5706 58.3029L36.5893 58.2714L36.6231 58.2644L40.7825 57.2822V60.4431L40.7172 60.4606C39.7735 60.6866 38.6457 60.9488 38.4127 60.9942C38.2929 61.0177 38.1712 61.0294 38.0491 61.0292L38.0515 61.0234ZM38.0515 65.0744C37.5829 65.0741 37.1337 64.8878 36.8024 64.5563C36.4712 64.2249 36.2852 63.7755 36.2852 63.307C36.2833 62.9658 36.3827 62.6317 36.5706 62.3469L36.5893 62.3143L40.7836 61.3263V64.4872L40.7184 64.5035C39.7222 64.7435 38.6142 64.994 38.4138 65.0395C38.294 65.0623 38.1723 65.074 38.0503 65.0744" fill="#231F20"/>
<path id="Vector_3" d="M37.5617 53.1052L37.5605 35.4202L40.7844 34.6582V52.3421L37.5617 53.1052Z" fill="#231F20"/>
<path id="Vector_4" d="M45.5921 51.6011C45.5795 51.0819 45.3644 50.5881 44.9927 50.2252C44.621 49.8624 44.1221 49.6593 43.6027 49.6593C43.0832 49.6593 42.5844 49.8624 42.2127 50.2252C41.841 50.5881 41.6258 51.0819 41.6133 51.6011V68.1316C41.6157 69.5591 42.1839 70.9275 43.1932 71.9371C44.2025 72.9466 45.5708 73.5151 46.9984 73.5178C48.5037 73.5178 52.6281 73.5108 52.6281 73.5108V58.925C52.6289 58.4962 52.5237 58.0739 52.3218 57.6956C52.12 57.3173 51.8278 56.9948 51.4712 56.7567L46.4519 53.3476V61.0886C46.455 61.1465 46.4462 61.2045 46.4261 61.2589C46.406 61.3133 46.375 61.3631 46.3351 61.4052C46.2951 61.4473 46.247 61.4808 46.1937 61.5037C46.1404 61.5266 46.083 61.5385 46.0249 61.5385C45.9669 61.5385 45.9095 61.5266 45.8562 61.5037C45.8028 61.4808 45.7547 61.4473 45.7148 61.4052C45.6748 61.3631 45.6439 61.3133 45.6238 61.2589C45.6037 61.2045 45.5949 61.1465 45.5979 61.0886C45.5979 61.0058 45.5874 52.6229 45.5874 51.6011H45.5921ZM48.2788 39.2686C47.6693 39.4094 47.0973 39.6801 46.6019 40.0622C46.1064 40.4442 45.6992 40.9286 45.408 41.4823V40.2438L42.5057 40.9312V48.869C43.0148 48.6681 43.5695 48.6118 44.1085 48.7061C44.6476 48.8005 45.1501 49.0419 45.5606 49.4038V44.2773C45.5606 43.0505 46.1735 42.0695 47.045 41.8772C47.7033 41.7328 48.2508 41.9681 48.2508 43.1367V50.6155L51.3069 49.8978V41.9879C51.3069 40.069 50.5706 38.7256 48.2776 39.2686H48.2788ZM92.7099 27.9496C92.3359 27.9499 91.9702 27.8392 91.6591 27.6316C91.348 27.424 91.1055 27.1288 90.9621 26.7834C90.8188 26.438 90.7811 26.0578 90.8539 25.6909C90.9266 25.3241 91.1065 24.987 91.3708 24.7224C91.6351 24.4578 91.9719 24.2775 92.3387 24.2043C92.7054 24.1311 93.0857 24.1683 93.4313 24.3112C93.7769 24.4541 94.0724 24.6963 94.2803 25.0072C94.4883 25.318 94.5994 25.6835 94.5997 26.0575C94.5987 26.5583 94.3993 27.0383 94.0451 27.3924C93.6908 27.7464 93.2107 27.9455 92.7099 27.9461V27.9496ZM92.7099 24.4031C92.3829 24.4031 92.0633 24.5 91.7915 24.6816C91.5196 24.8632 91.3077 25.1214 91.1826 25.4234C91.0574 25.7254 91.0246 26.0578 91.0883 26.3785C91.152 26.6991 91.3093 26.9937 91.5404 27.225C91.7715 27.4562 92.066 27.6138 92.3866 27.6777C92.7072 27.7416 93.0396 27.7091 93.3417 27.5841C93.6439 27.4592 93.9022 27.2474 94.084 26.9757C94.2658 26.704 94.3629 26.3845 94.3631 26.0575C94.3625 25.6191 94.1882 25.1988 93.8783 24.8887C93.5684 24.5786 93.1483 24.404 92.7099 24.4031Z" fill="#231F20"/>
<path id="Vector_5" d="M92.0215 24.9331H92.8371C93.1621 24.9331 93.4196 25.0951 93.4196 25.525C93.4196 25.8244 93.2868 26.0551 93.0351 26.0947C93.2681 26.118 93.3847 26.2438 93.3951 26.5689C93.3951 26.7145 93.4021 26.8963 93.4091 27.0349C93.409 27.0745 93.4191 27.1135 93.4382 27.1482C93.4574 27.1828 93.4851 27.212 93.5186 27.233H93.1039C93.0622 27.1733 93.0402 27.102 93.0409 27.0291C93.027 26.8905 93.0293 26.7611 93.0246 26.5934C93.0246 26.3417 92.9419 26.231 92.6879 26.231H92.3955V27.233H92.0261L92.0215 24.9331ZM92.6844 25.9607C92.7345 25.9654 92.7851 25.9588 92.8323 25.9415C92.8796 25.9241 92.9224 25.8965 92.9576 25.8606C92.9929 25.8247 93.0197 25.7814 93.0361 25.7338C93.0525 25.6862 93.0582 25.6356 93.0526 25.5856C93.0526 25.3397 92.9477 25.2116 92.7031 25.2116H92.3955V25.9607H92.6844Z" fill="#231F20"/>
</g>
</g>
</svg>
