<svg width="132" height="90" viewBox="0 0 132 90" fill="none" xmlns="http://www.w3.org/2000/svg">
<g id="Payment Method/Mastercard">
<g id="Mastercard">
<path id="Left" fill-rule="evenodd" clip-rule="evenodd" d="M66.5625 64.3385C62.0941 68.1946 56.2978 70.5224 49.9641 70.5224C35.8316 70.5224 24.375 58.9327 24.375 44.6362C24.375 30.3396 35.8316 18.75 49.9641 18.75C56.2978 18.75 62.0941 21.0778 66.5625 24.9339C71.0309 21.0778 76.8271 18.75 83.1609 18.75C97.2933 18.75 108.75 30.3396 108.75 44.6362C108.75 58.9327 97.2933 70.5224 83.1609 70.5224C76.8271 70.5224 71.0309 68.1946 66.5625 64.3385Z" fill="#ED0006"/>
<path id="Right" fill-rule="evenodd" clip-rule="evenodd" d="M66.5625 64.3385C72.0645 59.5905 75.5533 52.5255 75.5533 44.6362C75.5533 36.7469 72.0645 29.6819 66.5625 24.9339C71.0309 21.0778 76.8271 18.75 83.1609 18.75C97.2933 18.75 108.75 30.3396 108.75 44.6362C108.75 58.9327 97.2933 70.5224 83.1609 70.5224C76.8271 70.5224 71.0309 68.1946 66.5625 64.3385Z" fill="#F9A000"/>
<path id="Middle" fill-rule="evenodd" clip-rule="evenodd" d="M66.5629 64.3386C72.0649 59.5905 75.5536 52.5256 75.5536 44.6363C75.5536 36.7471 72.0649 29.6821 66.5629 24.9341C61.061 29.6821 57.5723 36.7471 57.5723 44.6363C57.5723 52.5256 61.061 59.5905 66.5629 64.3386Z" fill="#FF5E00"/>
</g>
</g>
</svg>
