<svg width="132" height="90" viewBox="0 0 132 90" fill="none" xmlns="http://www.w3.org/2000/svg">
<g id="Payment Method/PayPal">
<g id="PayPal">
<path id="Vector" fill-rule="evenodd" clip-rule="evenodd" d="M37.375 57.1536H31.5415C31.1423 57.1536 30.8028 57.4437 30.7405 57.8376L28.3811 72.7966C28.3342 73.0919 28.5628 73.3579 28.8622 73.3579H31.6472C32.0464 73.3579 32.3859 73.0678 32.4482 72.6731L33.0845 68.6385C33.1459 68.2433 33.4863 67.9536 33.8846 67.9536H35.7313C39.5741 67.9536 41.7917 66.094 42.3712 62.4091C42.6321 60.797 42.3823 59.5303 41.6271 58.6429C40.7982 57.6691 39.3274 57.1536 37.375 57.1536ZM38.0481 62.6171C37.7291 64.7104 36.1297 64.7104 34.5832 64.7104H33.7029L34.3205 60.8009C34.3572 60.5649 34.5619 60.3908 34.8007 60.3908H35.2042C36.2576 60.3908 37.2515 60.3908 37.765 60.9912C38.0709 61.3496 38.1649 61.8817 38.0481 62.6171ZM54.813 62.55H52.0194C51.7814 62.55 51.5757 62.7241 51.539 62.9606L51.4155 63.7417L51.2201 63.4587C50.6153 62.5808 49.2669 62.2875 47.9208 62.2875C44.8336 62.2875 42.1971 64.6256 41.6836 67.9054C41.4167 69.5412 41.7961 71.1056 42.7241 72.1966C43.5756 73.1997 44.7937 73.6177 46.2428 73.6177C48.7301 73.6177 50.1097 72.0182 50.1097 72.0182L49.9849 72.7947C49.938 73.0915 50.1665 73.3575 50.4641 73.3575H52.9806C53.3809 73.3575 53.7184 73.0674 53.7815 72.6727L55.2914 63.1113C55.3391 62.8173 55.1114 62.55 54.813 62.55ZM50.9189 67.9871C50.6493 69.5831 49.3826 70.6544 47.7673 70.6544C46.9561 70.6544 46.3075 70.3943 45.8915 69.9012C45.4786 69.4118 45.3215 68.7146 45.4529 67.9386C45.7048 66.3561 46.9928 65.25 48.5836 65.25C49.3766 65.25 50.0216 65.5133 50.4464 66.0107C50.8719 66.5132 51.0408 67.2142 50.9189 67.9871ZM66.8837 62.5496H69.691C70.0842 62.5496 70.3135 62.9906 70.0901 63.3131L60.7534 76.7902C60.6022 77.0085 60.3531 77.1383 60.0871 77.1383H57.2832C56.8885 77.1383 56.658 76.6939 56.8865 76.3706L59.7938 72.2669L56.7018 63.1927C56.5948 62.8773 56.8277 62.5496 57.1632 62.5496H59.9217C60.2801 62.5496 60.5963 62.7849 60.6997 63.1279L62.3406 68.6085L66.2126 62.9053C66.3642 62.6827 66.616 62.5496 66.8837 62.5496Z" fill="#253B80"/>
<path id="Vector_2" fill-rule="evenodd" clip-rule="evenodd" d="M97.3198 72.7964L99.7139 57.5639C99.7506 57.3275 99.9555 57.1534 100.193 57.1526H102.889C103.186 57.1526 103.415 57.4194 103.368 57.7147L101.007 72.6729C100.945 73.0676 100.606 73.3578 100.206 73.3578H97.799C97.5014 73.3578 97.2728 73.0917 97.3198 72.7964ZM78.9846 57.1534H73.15C72.7517 57.1534 72.4122 57.4435 72.3499 57.8375L69.9905 72.7964C69.9435 73.0917 70.1721 73.3578 70.4701 73.3578H73.4638C73.7421 73.3578 73.9801 73.1549 74.0236 72.8785L74.693 68.6383C74.7546 68.2431 75.0949 67.9534 75.4932 67.9534H77.339C81.1825 67.9534 83.3998 66.0938 83.9796 62.4089C84.2413 60.7968 83.9899 59.5301 83.2352 58.6427C82.4066 57.6689 80.937 57.1534 78.9846 57.1534ZM79.6576 62.6169C79.3395 64.7102 77.74 64.7102 76.1926 64.7102H75.3132L75.9317 60.8008C75.9684 60.5647 76.1713 60.3906 76.4109 60.3906H76.8143C77.8671 60.3906 78.8619 60.3906 79.375 60.991C79.6813 61.3494 79.7745 61.8815 79.6576 62.6169ZM96.421 62.5498H93.6294C93.3894 62.5498 93.1857 62.7239 93.1498 62.9604L93.0262 63.7416L92.83 63.4585C92.2253 62.5806 90.8777 62.2873 89.5316 62.2873C86.4444 62.2873 83.8087 64.6254 83.2952 67.9052C83.0291 69.541 83.4069 71.1054 84.3349 72.1964C85.1879 73.1995 86.4045 73.6175 87.8536 73.6175C90.3408 73.6175 91.72 72.018 91.72 72.018L91.5957 72.7945C91.5487 73.0913 91.7773 73.3574 92.0769 73.3574H94.5922C94.9904 73.3574 95.3299 73.0672 95.3923 72.6725L96.9029 63.1112C96.9491 62.8171 96.7206 62.5498 96.421 62.5498ZM92.5273 67.987C92.2593 69.5829 90.991 70.6542 89.3753 70.6542C88.5657 70.6542 87.916 70.3941 87.4995 69.901C87.0866 69.4116 86.9315 68.7145 87.0613 67.9384C87.3144 66.3559 88.6008 65.2498 90.1916 65.2498C90.985 65.2498 91.6297 65.5131 92.0548 66.0105C92.4819 66.513 92.6508 67.2141 92.5273 67.987Z" fill="#179BD7"/>
<path id="Vector_3" d="M58.9637 51.802L59.6809 47.2468L58.0834 47.2097H50.4551L55.7564 13.5953C55.7726 13.4938 55.8263 13.3992 55.9044 13.332C55.9826 13.2648 56.0829 13.2278 56.1871 13.2278H69.0496C73.3199 13.2278 76.2666 14.1164 77.8053 15.8702C78.5265 16.693 78.9859 17.5528 79.2082 18.499C79.4411 19.4918 79.4454 20.678 79.2176 22.1247L79.2011 22.2303V23.1573L79.9226 23.5659C80.5301 23.8882 81.0125 24.257 81.3828 24.6794C82.0002 25.3829 82.3992 26.2769 82.5678 27.3369C82.7419 28.4271 82.6842 29.7243 82.3992 31.193C82.07 32.8824 81.5379 34.3538 80.8195 35.5578C80.1583 36.6672 79.3163 37.5871 78.3169 38.3004C77.3624 38.9778 76.2283 39.4921 74.9462 39.8213C73.7036 40.1446 72.2872 40.3081 70.7335 40.3081H69.7325C69.0168 40.3081 68.3213 40.5658 67.7758 41.0281C67.2287 41.4998 66.8663 42.144 66.7554 42.849L66.68 43.2591L65.4129 51.2877L65.3552 51.5826C65.3402 51.6761 65.3142 51.7227 65.2759 51.7543C65.2416 51.7827 65.1922 51.802 65.1441 51.802H58.9637Z" fill="#253B80"/>
<path id="Vector_4" d="M80.6058 22.3376C80.5675 22.5831 80.5237 22.834 80.4743 23.0918C78.7778 31.8009 72.9747 34.8095 65.5627 34.8095H61.789C60.8827 34.8095 60.1189 35.4677 59.9776 36.3618L58.0453 48.6157L57.4982 52.089C57.4063 52.676 57.859 53.2053 58.4511 53.2053H65.1447C65.9373 53.2053 66.6104 52.6294 66.7351 51.8478L66.801 51.5076L68.0614 43.5102L68.1423 43.0716C68.2655 42.2873 68.9401 41.7114 69.7327 41.7114H70.7338C77.2185 41.7114 82.2953 39.0785 83.7791 31.4594C84.3988 28.2767 84.0779 25.6191 82.4378 23.7501C81.9416 23.1865 81.3258 22.7188 80.6058 22.3376Z" fill="#179BD7"/>
<path id="Vector_5" d="M78.8304 21.6306C78.5715 21.5551 78.3038 21.4866 78.0295 21.4249C77.754 21.3646 77.4713 21.3111 77.1808 21.2645C76.1632 21.0999 75.0484 21.0217 73.854 21.0217H63.7724C63.5241 21.0217 63.2884 21.0779 63.0772 21.1794C62.6122 21.4029 62.2668 21.8431 62.1831 22.382L60.0381 35.966L59.9766 36.3623C60.1179 35.4682 60.8817 34.81 61.788 34.81H65.5617C72.9737 34.81 78.7771 31.8 80.4733 23.0924C80.5239 22.8346 80.5665 22.5836 80.6048 22.3382C80.1757 22.1105 79.7107 21.9158 79.2102 21.7499C79.087 21.7087 78.9595 21.669 78.8304 21.6306Z" fill="#222D65"/>
<path id="Vector_6" d="M62.1834 22.3818C62.2671 21.8428 62.6129 21.4027 63.0775 21.1805C63.2902 21.079 63.5247 21.0228 63.7726 21.0228H73.8546C75.0491 21.0228 76.1638 21.101 77.181 21.2655C77.472 21.3121 77.7546 21.3656 78.0301 21.4259C78.3045 21.4877 78.5717 21.5562 78.831 21.6316C78.9597 21.67 79.0872 21.7098 79.212 21.7496C79.7125 21.9155 80.1775 22.1116 80.6066 22.3379C81.1115 19.1194 80.6026 16.9281 78.8626 14.9439C76.9442 12.7594 73.4816 11.8242 69.051 11.8242H56.1881C55.283 11.8242 54.5113 12.4824 54.3711 13.3779L49.0137 47.3378C48.908 48.0096 49.4262 48.616 50.1036 48.616H58.045L60.0388 35.9657L62.1834 22.3818Z" fill="#253B80"/>
</g>
</g>
</svg>
