<svg width="132" height="90" viewBox="0 0 132 90" fill="none" xmlns="http://www.w3.org/2000/svg">
<g id="Payment Method/Verifone">
<g id="Verifone">
<path id="Verifone_2" fill-rule="evenodd" clip-rule="evenodd" d="M56.4602 39.7812H60.7321L61.4188 36.2645H57.1462L56.4602 39.7812ZM56.017 42.0431H60.29L57.5757 55.9284C57.3776 55.9987 56.766 56.2456 55.9214 56.2456C54.7816 56.2456 53.736 55.7942 53.736 54.1937C53.736 53.8926 53.7701 53.5498 53.8464 53.1602C54.6953 48.8273 56.017 42.0431 56.017 42.0431ZM98.4427 41.7259C95.599 41.7259 94.4685 43.4182 93.9378 44.4484H93.8875L94.0514 42.046H89.8291C89.8014 42.5743 89.6188 44.2395 89.348 45.6757C89.348 45.6757 88.3729 50.7158 88.1885 51.6808C88.0479 52.4179 87.7908 53.5077 87.7908 54.1403C87.7908 55.4869 88.4632 56.246 89.9632 56.246C90.8046 56.246 91.4112 56.0122 91.6319 55.9284L93.0439 48.6971C93.4355 46.7004 94.8568 45.3937 96.5468 45.3937C97.9102 45.3937 98.5621 46.4041 98.5621 47.2301C98.5621 47.949 98.3845 48.7458 98.2471 49.4504L97.6398 52.5471C97.5675 52.9188 97.4129 53.6329 97.4129 54.1929C97.4129 55.5619 98.1727 56.246 99.6156 56.246C100.403 56.246 100.903 56.0459 101.257 55.9284L102.524 49.446C102.798 47.9808 102.9 47.2093 102.9 46.2768C102.9 43.5924 101.355 41.7259 98.4427 41.7259ZM79.4639 45.0835C77.0757 45.0835 75.7529 47.5642 75.7529 49.7756C75.7529 51.6406 76.582 52.8895 78.4664 52.8895C80.5968 52.8895 82.2641 51.0476 82.2641 47.9036C82.2641 46.4652 81.5105 45.0835 79.4639 45.0835ZM78.2043 56.2463C73.6296 56.2463 71.4406 53.4587 71.4406 49.9054C71.4406 45.0301 74.7352 41.7259 79.8266 41.7259C84.2441 41.7259 86.5899 44.4436 86.5899 47.934C86.5899 53.1642 83.0709 56.2463 78.2043 56.2463ZM62.2051 52.903C62.1076 53.4028 62.0461 53.7529 62.0461 54.1831C62.0461 55.7748 63.0932 56.246 64.2028 56.246C65.0902 56.246 65.6392 55.9994 65.8402 55.9284L67.8944 45.4032L71.2163 45.4028L71.8722 42.0431L68.5505 42.0434L68.712 41.2159C69.0126 39.6641 69.7313 38.9818 70.9747 38.9818C71.8049 38.9818 72.4766 39.1318 72.7099 39.1936L73.3352 35.9989C73.0688 35.9305 71.8412 35.625 70.0244 35.625C67.1292 35.625 65.2325 37.4117 64.6716 40.2893L64.3283 42.0431H62.1655L61.5093 45.4028H63.6735C63.6735 45.4028 62.8199 49.7547 62.2051 52.903ZM52.3692 41.7263C50.2248 41.7263 49.0454 43.2393 48.5841 44.4462H48.5349L48.6999 42.0431H44.4758C44.4384 42.8761 44.2669 44.2845 43.8365 46.4989C43.4004 48.7428 42.9754 50.9813 42.5367 53.1598C42.4616 53.5323 42.4281 53.8966 42.4281 54.205C42.4281 55.346 42.9829 56.2449 44.6225 56.2449C45.4347 56.2449 45.9989 56.0305 46.2696 55.9284L47.5263 49.4913C47.979 47.0286 48.8013 45.4003 51.187 45.4003C52.2721 45.4003 53.303 45.6355 53.5191 45.6999L54.2421 41.9963C54.0861 41.9414 53.4597 41.7263 52.3692 41.7263ZM114.341 47.671C114.569 46.3979 113.841 45.0835 112.194 45.0835C110.182 45.0835 109.299 46.4798 108.904 47.671H114.341ZM116.247 52.8379C116.247 54.7691 114.407 56.25 111.148 56.25C106.644 56.25 104.442 53.3991 104.442 49.9091C104.442 46.4447 106.705 41.7296 112.229 41.7296C115.871 41.7296 118.594 43.5682 118.594 47.7774C118.594 48.8127 118.367 49.938 118.27 50.3887H108.589C108.573 51.3988 109.41 53.1492 112.776 53.1492C114.275 53.1492 115.973 52.6107 116.247 52.4736C116.247 52.5786 116.247 52.7684 116.247 52.8379ZM37.142 47.671C37.3703 46.3979 36.6415 45.0835 34.9944 45.0835C32.983 45.0835 32.0999 46.4798 31.7051 47.671H37.142ZM39.0485 52.8379C39.0485 54.7691 37.2083 56.25 33.95 56.25C29.4458 56.25 27.2439 53.3991 27.2439 49.9091C27.2439 46.4447 29.5066 41.7296 35.0308 41.7296C38.6728 41.7296 41.3961 43.5682 41.3961 47.7774C41.3961 48.8127 41.1692 49.938 41.0714 50.3887H31.3907C31.3745 51.3988 32.2119 53.1492 35.577 53.1492C37.0767 53.1492 38.7749 52.6107 39.0485 52.4736C39.0485 52.5786 39.0485 52.7684 39.0485 52.8379ZM13.375 37.3184H17.6732V51.1244C17.6732 53.2005 18.69 54.2603 20.3224 54.2603C20.4889 54.2603 20.587 54.2387 20.6194 54.2306C19.9039 55.3311 18.9762 56.2336 16.8462 56.2336C14.5925 56.2336 13.375 54.6437 13.375 52.2577V37.3184Z" fill="#1A1919"/>
<path id="V" fill-rule="evenodd" clip-rule="evenodd" d="M19.0251 49.454C18.9245 49.6136 18.8711 49.7985 18.8711 49.9872V51.1474C18.8711 52.547 19.615 53.0486 20.4273 53.0486C21.2575 53.0486 21.7019 52.4764 22.1096 51.826C22.7928 50.7369 31.141 37.3184 31.141 37.3184H26.6735L19.0251 49.454Z" fill="#00A3DA"/>
</g>
</g>
</svg>
