<svg width="132" height="90" viewBox="0 0 132 90" fill="none" xmlns="http://www.w3.org/2000/svg">
<g id="Payment Method/Visa">
<path id="visa-logo" fill-rule="evenodd" clip-rule="evenodd" d="M39.8447 60.9684H31.8935L25.9311 38.2214C25.6481 37.175 25.0472 36.25 24.1633 35.814C21.9574 34.7184 19.5267 33.8464 16.875 33.4066V32.5308H29.6838C31.4516 32.5308 32.7774 33.8464 32.9984 35.3742L36.092 51.7824L44.0394 32.5308H51.7696L39.8447 60.9684ZM56.1891 60.9684H48.6798L54.8632 32.5308H62.3725L56.1891 60.9684ZM72.0876 40.4089C72.3086 38.8773 73.6344 38.0015 75.1813 38.0015C77.612 37.7816 80.2598 38.2214 82.4695 39.3133L83.7954 33.1905C81.5856 32.3148 79.1549 31.875 76.9491 31.875C69.6608 31.875 64.3574 35.814 64.3574 41.2809C64.3574 45.4398 68.1139 47.6235 70.7656 48.9391C73.6344 50.2508 74.7393 51.1266 74.5183 52.4383C74.5183 54.4059 72.3086 55.2817 70.1027 55.2817C67.451 55.2817 64.7993 54.6258 62.3725 53.5302L61.0466 59.6567C63.6983 60.7486 66.5671 61.1883 69.2188 61.1883C77.391 61.4044 82.4695 57.4692 82.4695 51.5625C82.4695 44.1243 72.0876 43.6883 72.0876 40.4089ZM108.75 60.9684L102.788 32.5308H96.3832C95.0573 32.5308 93.7315 33.4066 93.2895 34.7184L82.2486 60.9684H89.9788L91.5217 56.8133H101.02L101.904 60.9684H108.75ZM97.4881 40.189L99.6939 50.9067H93.5105L97.4881 40.189Z" fill="#172B85"/>
</g>
</svg>
