<svg width="18" height="17" viewBox="0 0 18 17" fill="none" xmlns="http://www.w3.org/2000/svg">
<g id="2 User">
<path id="Stroke 1" fill-rule="evenodd" clip-rule="evenodd" d="M6.99268 11.1724C10.0668 11.1724 12.6943 11.6382 12.6943 13.499C12.6943 15.3599 10.0843 15.839 6.99268 15.839C3.91768 15.839 1.29102 15.3774 1.29102 13.5157C1.29102 11.654 3.90018 11.1724 6.99268 11.1724Z" stroke="#A4A4A4" stroke-width="1.5" stroke-linecap="round" stroke-linejoin="round"/>
<path id="Stroke 3" fill-rule="evenodd" clip-rule="evenodd" d="M6.99289 8.51634C4.97456 8.51634 3.33789 6.88051 3.33789 4.86217C3.33789 2.84384 4.97456 1.20801 6.99289 1.20801C9.01039 1.20801 10.6471 2.84384 10.6471 4.86217C10.6546 6.87301 9.02956 8.50884 7.01872 8.51634H6.99289Z" stroke="#A4A4A4" stroke-width="1.5" stroke-linecap="round" stroke-linejoin="round"/>
<path id="Stroke 5" d="M12.7363 7.5679C14.0705 7.3804 15.098 6.2354 15.1005 4.84956C15.1005 3.48373 14.1047 2.3504 12.7988 2.13623" stroke="#A4A4A4" stroke-width="1.5" stroke-linecap="round" stroke-linejoin="round"/>
<path id="Stroke 7" d="M14.4961 10.7769C15.7886 10.9694 16.6911 11.4227 16.6911 12.356C16.6911 12.9985 16.2661 13.4152 15.5794 13.676" stroke="#A4A4A4" stroke-width="1.5" stroke-linecap="round" stroke-linejoin="round"/>
</g>
</svg>
