<svg xmlns="http://www.w3.org/2000/svg" width="20" height="16" fill="none" viewBox="0 0 20 16"><g id="Education"><path id="Vector" fill="#A4A4A4" fill-rule="evenodd" d="M6.85959 0.97954L8.74957 0.304485C9.2244 0.134455 9.59987 -2.80979e-07 9.99922 0C10.3986 0 10.774 0.134456 11.2489 0.304489L13.1388 0.979536C14.9285 1.61868 16.335 2.12101 17.2893 2.61466C17.5199 2.73394 17.7422 2.86173 17.9461 3.00169C18.1999 3.17595 18.4249 3.36907 18.6014 3.58812C18.8502 3.89688 19.0024 4.25714 19.0024 4.68869C19.0024 4.72192 19.0015 4.75474 18.9997 4.78716C18.9744 5.24594 18.7733 5.62176 18.4684 5.94026C18.3635 6.05039 18.2469 6.15306 18.1219 6.24904C17.7036 6.57014 17.1373 6.86056 16.4575 7.15143L16.4575 8.9903C16.4578 10.4122 16.4579 11.2799 16.223 12.0028C15.749 13.4615 14.6053 14.6052 13.1466 15.0792C12.4236 15.3141 11.5559 15.314 10.134 15.3138H9.86432C8.44242 15.314 7.57474 15.3141 6.85181 15.0792C5.39304 14.6052 4.24935 13.4615 3.77537 12.0028C3.54047 11.2799 3.54061 10.4122 3.54083 8.99028L3.54085 7.15037C3.23407 7.01907 2.95645 6.89059 2.70919 6.76268C2.56571 6.68846 2.42542 6.61095 2.2908 6.52926V10.522C2.2908 10.8672 2.01098 11.147 1.6658 11.147C1.32062 11.147 0.996094 10.8769 0.996094 10.5317V4.68865C0.996094 3.70507 1.78678 3.09178 2.70914 2.61466C3.66345 2.12101 5.06997 1.61868 6.85959 0.97954ZM2.47806 5.12149C2.50935 5.15161 2.5447 5.18292 2.58458 5.21544C2.73951 5.34178 2.96291 5.48657 3.28346 5.65239C4.15351 6.10245 5.47936 6.57748 7.33213 7.23919L9.0883 7.8664C9.68417 8.07922 9.8438 8.1273 9.99922 8.1273C10.1546 8.1273 10.3143 8.07922 10.9101 7.8664L12.6663 7.23919C14.5191 6.57748 15.8449 6.10245 16.715 5.65239C17.6262 5.18101 17.7523 4.8796 17.7523 4.68865C17.7523 4.60398 17.7276 4.4976 17.6205 4.36432C17.5314 4.25336 17.3853 4.12376 17.1491 3.97253C17.0291 3.89571 16.8859 3.81333 16.715 3.72496C15.845 3.27489 14.5191 2.79986 12.6664 2.13815L10.9102 1.51094C10.3143 1.29812 10.1547 1.25004 9.99927 1.25004C9.84385 1.25004 9.68422 1.29812 9.08835 1.51094L7.33219 2.13815C5.47941 2.79986 4.15356 3.27489 3.28351 3.72496C2.37226 4.19633 2.24614 4.49774 2.24614 4.68869L2.24615 4.68984L2.24766 4.72434C2.25638 4.82605 2.30613 4.956 2.47806 5.12149ZM4.79085 8.85541V7.64722C5.40771 7.87926 6.09907 8.12617 6.85962 8.39779L8.74962 9.07285C9.22445 9.24289 9.59992 9.37734 9.99927 9.37734C10.3986 9.37734 10.7741 9.24289 11.2489 9.07285L13.1652 8.38839C13.9188 8.11929 14.6013 7.87552 15.2075 7.64782V8.85541C15.2075 10.4551 15.1998 11.1068 15.0342 11.6165C14.6838 12.6947 13.8385 13.5401 12.7603 13.8904C12.2505 14.056 11.5989 14.0637 9.99918 14.0637C8.39947 14.0637 7.74784 14.056 7.23808 13.8904C6.15986 13.5401 5.31452 12.6947 4.96419 11.6165C4.79856 11.1068 4.79085 10.4551 4.79085 8.85541Z" clip-rule="evenodd"/></g></svg>