<svg xmlns="http://www.w3.org/2000/svg" width="20" height="21" fill="none" viewBox="0 0 20 21"><g id="grid"><g id="Icon"><path fill="#A4A4A4" fill-rule="evenodd" d="M1.66602 2.99984C1.66602 2.5396 2.03911 2.1665 2.49935 2.1665H8.33268C8.79292 2.1665 9.16602 2.5396 9.16602 2.99984V8.83317C9.16602 9.29341 8.79292 9.6665 8.33268 9.6665H2.49935C2.03911 9.6665 1.66602 9.29341 1.66602 8.83317V2.99984ZM3.33268 3.83317V7.99984H7.49935V3.83317H3.33268Z" clip-rule="evenodd"/><path fill="#A4A4A4" fill-rule="evenodd" d="M10.8327 2.99984C10.8327 2.5396 11.2058 2.1665 11.666 2.1665H17.4993C17.9596 2.1665 18.3327 2.5396 18.3327 2.99984V8.83317C18.3327 9.29341 17.9596 9.6665 17.4993 9.6665H11.666C11.2058 9.6665 10.8327 9.29341 10.8327 8.83317V2.99984ZM12.4993 3.83317V7.99984H16.666V3.83317H12.4993Z" clip-rule="evenodd"/><path fill="#A4A4A4" fill-rule="evenodd" d="M10.8327 12.1665C10.8327 11.7063 11.2058 11.3332 11.666 11.3332H17.4993C17.9596 11.3332 18.3327 11.7063 18.3327 12.1665V17.9998C18.3327 18.4601 17.9596 18.8332 17.4993 18.8332H11.666C11.2058 18.8332 10.8327 18.4601 10.8327 17.9998V12.1665ZM12.4993 12.9998V17.1665H16.666V12.9998H12.4993Z" clip-rule="evenodd"/><path fill="#A4A4A4" fill-rule="evenodd" d="M1.66602 12.1665C1.66602 11.7063 2.03911 11.3332 2.49935 11.3332H8.33268C8.79292 11.3332 9.16602 11.7063 9.16602 12.1665V17.9998C9.16602 18.4601 8.79292 18.8332 8.33268 18.8332H2.49935C2.03911 18.8332 1.66602 18.4601 1.66602 17.9998V12.1665ZM3.33268 12.9998V17.1665H7.49935V12.9998H3.33268Z" clip-rule="evenodd"/></g></g></svg>