<svg xmlns="http://www.w3.org/2000/svg" width="20" height="21" fill="none" viewBox="0 0 20 21"><g id="server"><g id="Icon"><path fill="#A4A4A4" fill-rule="evenodd" d="M3.33398 3.00016C2.87375 3.00016 2.50065 3.37326 2.50065 3.8335V7.16683C2.50065 7.62707 2.87375 8.00016 3.33398 8.00016H16.6673C17.1276 8.00016 17.5006 7.62707 17.5006 7.16683V3.8335C17.5006 3.37326 17.1276 3.00016 16.6673 3.00016H3.33398ZM0.833984 3.8335C0.833984 2.45278 1.95327 1.3335 3.33398 1.3335H16.6673C18.048 1.3335 19.1673 2.45278 19.1673 3.8335V7.16683C19.1673 8.54754 18.048 9.66683 16.6673 9.66683H3.33398C1.95327 9.66683 0.833984 8.54754 0.833984 7.16683V3.8335Z" clip-rule="evenodd"/><path fill="#A4A4A4" fill-rule="evenodd" d="M3.33398 13.0002C2.87375 13.0002 2.50065 13.3733 2.50065 13.8335V17.1668C2.50065 17.6271 2.87375 18.0002 3.33398 18.0002H16.6673C17.1276 18.0002 17.5006 17.6271 17.5006 17.1668V13.8335C17.5006 13.3733 17.1276 13.0002 16.6673 13.0002H3.33398ZM0.833984 13.8335C0.833984 12.4528 1.95327 11.3335 3.33398 11.3335H16.6673C18.048 11.3335 19.1673 12.4528 19.1673 13.8335V17.1668C19.1673 18.5475 18.048 19.6668 16.6673 19.6668H3.33398C1.95327 19.6668 0.833984 18.5475 0.833984 17.1668V13.8335Z" clip-rule="evenodd"/><path fill="#A4A4A4" fill-rule="evenodd" d="M4.16732 5.50016C4.16732 5.03993 4.54041 4.66683 5.00065 4.66683H5.00898C5.46922 4.66683 5.84232 5.03993 5.84232 5.50016C5.84232 5.9604 5.46922 6.3335 5.00898 6.3335H5.00065C4.54041 6.3335 4.16732 5.9604 4.16732 5.50016Z" clip-rule="evenodd"/><path fill="#A4A4A4" fill-rule="evenodd" d="M4.16732 15.5002C4.16732 15.0399 4.54041 14.6668 5.00065 14.6668H5.00898C5.46922 14.6668 5.84232 15.0399 5.84232 15.5002C5.84232 15.9604 5.46922 16.3335 5.00898 16.3335H5.00065C4.54041 16.3335 4.16732 15.9604 4.16732 15.5002Z" clip-rule="evenodd"/></g></g></svg>