<svg xmlns="http://www.w3.org/2000/svg" width="20" height="21" fill="none" viewBox="0 0 20 21"><g id="user-check"><g id="Icon"><path fill="#A4A4A4" fill-rule="evenodd" d="M1.22039 13.3869C2.00179 12.6055 3.0616 12.1665 4.16667 12.1665H10C11.1051 12.1665 12.1649 12.6055 12.9463 13.3869C13.7277 14.1683 14.1667 15.2281 14.1667 16.3332V17.9998C14.1667 18.4601 13.7936 18.8332 13.3333 18.8332C12.8731 18.8332 12.5 18.4601 12.5 17.9998V16.3332C12.5 15.6701 12.2366 15.0342 11.7678 14.5654C11.2989 14.0966 10.663 13.8332 10 13.8332H4.16667C3.50363 13.8332 2.86774 14.0966 2.3989 14.5654C1.93006 15.0342 1.66667 15.6701 1.66667 16.3332V17.9998C1.66667 18.4601 1.29357 18.8332 0.833333 18.8332C0.373096 18.8332 0 18.4601 0 17.9998V16.3332C0 15.2281 0.438987 14.1683 1.22039 13.3869Z" clip-rule="evenodd"/><path fill="#A4A4A4" fill-rule="evenodd" d="M7.08333 3.83317C5.70262 3.83317 4.58333 4.95246 4.58333 6.33317C4.58333 7.71388 5.70262 8.83317 7.08333 8.83317C8.46404 8.83317 9.58333 7.71388 9.58333 6.33317C9.58333 4.95246 8.46404 3.83317 7.08333 3.83317ZM2.91667 6.33317C2.91667 4.03198 4.78215 2.1665 7.08333 2.1665C9.38452 2.1665 11.25 4.03198 11.25 6.33317C11.25 8.63436 9.38452 10.4998 7.08333 10.4998C4.78215 10.4998 2.91667 8.63436 2.91667 6.33317Z" clip-rule="evenodd"/><path fill="#A4A4A4" fill-rule="evenodd" d="M19.7559 7.41058C20.0814 7.73602 20.0814 8.26366 19.7559 8.58909L16.4226 11.9224C16.0972 12.2479 15.5695 12.2479 15.2441 11.9224L13.5774 10.2558C13.252 9.93032 13.252 9.40269 13.5774 9.07725C13.9028 8.75181 14.4305 8.75181 14.7559 9.07725L15.8333 10.1547L18.5774 7.41058C18.9028 7.08514 19.4305 7.08514 19.7559 7.41058Z" clip-rule="evenodd"/></g></g></svg>