<svg xmlns="http://www.w3.org/2000/svg" width="18" height="17" fill="none" viewBox="0 0 18 17"><g id="Work"><path id="Stroke 1" stroke="#A4A4A4" stroke-linecap="round" stroke-linejoin="round" stroke-width="1.5" d="M8.99479 12.3974V10.2832"/><g id="Group 8"><path id="Stroke 2" fill-rule="evenodd" stroke="#A4A4A4" stroke-linecap="round" stroke-linejoin="round" stroke-width="1.5" d="M14.1577 2.94189C15.566 2.94189 16.6993 4.08356 16.6993 5.49189V8.35856C14.6493 9.55856 11.941 10.2836 8.99102 10.2836C6.04102 10.2836 3.34102 9.55856 1.29102 8.35856V5.48356C1.29102 4.07523 2.43268 2.94189 3.84102 2.94189H14.1577Z" clip-rule="evenodd"/><path id="Stroke 4" stroke="#A4A4A4" stroke-linecap="round" stroke-linejoin="round" stroke-width="1.5" d="M11.9115 2.93817V2.63317C11.9115 1.6165 11.0865 0.791504 10.0698 0.791504H7.91979C6.90313 0.791504 6.07812 1.6165 6.07812 2.63317V2.93817"/><path id="Stroke 6" stroke="#A4A4A4" stroke-linecap="round" stroke-linejoin="round" stroke-width="1.5" d="M1.31055 11.4023L1.46805 13.4932C1.57471 14.9023 2.74888 15.9915 4.16138 15.9915H13.8272C15.2397 15.9915 16.4139 14.9023 16.5205 13.4932L16.678 11.4023"/></g></g></svg>