<svg width="40" height="40" viewBox="0 0 40 40" fill="none" xmlns="http://www.w3.org/2000/svg">
<path fill-rule="evenodd" clip-rule="evenodd" d="M4.71458 3.09645C4.27264 3.23403 3.72666 3.64556 3.43922 4.05776C2.98196 4.71343 2.98614 4.66719 3.00709 8.81555L3.02579 12.5279L3.23433 12.9264C3.51156 13.4564 3.92605 13.8608 4.45141 14.1139L4.88241 14.3215H10.7506H16.6189L17.0167 14.1612C17.2971 14.0482 17.5337 13.8816 17.8183 13.5966C18.1027 13.3115 18.2691 13.0745 18.3819 12.7936L18.5418 12.395V8.6417V4.8884L18.3349 4.45661C18.0853 3.9356 17.6411 3.47988 17.1299 3.22041L16.7515 3.02836L10.8833 3.01567C5.99824 3.00511 4.9647 3.01866 4.71458 3.09645ZM23.2165 3.05739C22.5274 3.2687 21.9165 3.79755 21.6003 4.45661L21.393 4.8884V12.8932V20.8981L21.553 21.2966C21.7718 21.8418 22.3739 22.4451 22.9181 22.6643L23.316 22.8245H29.1842H35.0524L35.4503 22.6385C36.0995 22.3351 36.5781 21.7965 36.8461 21.0678C36.9195 20.868 36.9327 21.3578 36.9319 24.2528C36.9313 26.1344 36.908 27.5992 36.8801 27.5079C36.6692 26.8175 36.1413 26.2055 35.4834 25.8886L35.0524 25.681H29.1842H23.316L22.9181 25.8413C22.3739 26.0605 21.7718 26.6637 21.553 27.2089L21.393 27.6075V31.3608V35.1141L21.6003 35.5459C21.8529 36.0722 22.2565 36.4875 22.7855 36.7652L23.1834 36.9741L28.9521 36.9948C33.0272 37.0094 34.8218 36.9937 35.0646 36.9413C35.7766 36.7873 36.5276 36.1192 36.7822 35.413C36.8414 35.2486 36.9207 35.0485 36.9584 34.9685C37.0052 34.8688 37.0123 30.1322 36.9807 19.9553C36.9421 7.4902 36.9195 5.03375 36.8414 4.75381C36.6412 4.03644 35.9196 3.30962 35.1929 3.09339C34.9118 3.00976 34.0076 2.99601 29.1224 3.00086C25.9654 3.00398 23.3077 3.02942 23.2165 3.05739ZM5.2471 5.25377C5.11807 5.38304 5.11449 5.47518 5.11449 8.64609C5.11449 10.7659 5.13849 11.9505 5.18312 12.034C5.25015 12.1594 5.38177 12.1625 10.7397 12.1625C14.9197 12.1625 16.2466 12.1435 16.3072 12.0828C16.367 12.0229 16.3868 11.1651 16.3868 8.63074C16.3868 5.36464 16.3828 5.25629 16.2586 5.18966C16.1732 5.14389 14.3335 5.12091 10.755 5.12091C5.46811 5.12091 5.37753 5.1231 5.2471 5.25377ZM23.6641 5.19265C23.5546 5.25649 23.548 5.69347 23.548 12.8833C23.548 18.7236 23.5667 20.5248 23.6276 20.5858C23.6882 20.6466 25.0152 20.6656 29.1952 20.6656C34.5531 20.6656 34.6847 20.6625 34.7517 20.5371C34.7979 20.4507 34.8204 17.948 34.8204 12.8976C34.8204 5.47518 34.8188 5.38503 34.6878 5.25377C34.5573 5.12303 34.4681 5.12091 29.1676 5.1229C25.6318 5.12423 23.7403 5.14821 23.6641 5.19265ZM4.89872 17.216C4.23578 17.3749 3.57681 17.9076 3.24275 18.5547L3.0618 18.9052L3.0604 27.0796L3.05895 35.2541L3.23864 35.6159C3.4745 36.091 3.92718 36.5369 4.41912 36.7788L4.8161 36.9741L10.6464 36.9921C15.9542 37.0086 16.5068 37.0002 16.813 36.8988C17.4866 36.6757 18.05 36.1696 18.3561 35.5127L18.5418 35.1141V27.1093V19.1044L18.3819 18.7059C18.1631 18.1607 17.5609 17.5574 17.0167 17.3382L16.6189 17.178L10.8833 17.1671C7.67881 17.1611 5.03777 17.1826 4.89872 17.216ZM5.18312 19.4654C5.13696 19.5519 5.11449 22.0545 5.11449 27.1049C5.11449 34.5273 5.11608 34.6175 5.2471 34.7487C5.37753 34.8794 5.46811 34.8816 10.755 34.8816C14.3335 34.8816 16.1732 34.8586 16.2586 34.8128C16.3842 34.7455 16.3868 34.5897 16.3868 27.1202C16.3868 21.2792 16.3682 19.4777 16.3072 19.4167C16.2466 19.3559 14.9197 19.3369 10.7397 19.3369C5.38177 19.3369 5.25015 19.34 5.18312 19.4654ZM23.6276 27.9197C23.5678 27.9796 23.548 28.8374 23.548 31.3718C23.548 34.6379 23.5521 34.7462 23.6763 34.8128C23.7617 34.8586 25.6013 34.8816 29.1798 34.8816C34.4668 34.8816 34.5573 34.8794 34.6878 34.7487C34.8168 34.6195 34.8204 34.5273 34.8204 31.3564C34.8204 29.2366 34.7964 28.052 34.7517 27.9685C34.6847 27.8431 34.5531 27.84 29.1952 27.84C25.0152 27.84 23.6882 27.859 23.6276 27.9197Z" fill="black"/>
</svg>
