<svg width="41" height="40" viewBox="0 0 41 40" fill="none" xmlns="http://www.w3.org/2000/svg">
<path fill-rule="evenodd" clip-rule="evenodd" d="M7.55308 0.104031C7.43729 0.127767 7.21092 0.171346 7.04998 0.200873C6.3664 0.326188 5.46861 0.638504 4.79382 0.98582C4.34345 1.21761 3.56756 1.71871 3.53556 1.7985C3.52587 1.82255 3.49487 1.84224 3.46666 1.84224C3.37477 1.84224 2.4845 2.68966 2.08435 3.15803C1.8434 3.44003 1.26361 4.29066 1.26361 4.36213C1.26361 4.38982 1.24587 4.42029 1.22413 4.42998C1.17398 4.45224 0.947819 4.91282 0.947819 4.99277C0.947819 5.02577 0.924135 5.05277 0.895187 5.05277C0.86624 5.05277 0.841766 5.0824 0.840766 5.11855C0.839766 5.15477 0.79324 5.27908 0.737293 5.39487C0.681345 5.51066 0.634819 5.63534 0.633819 5.67192C0.632819 5.7085 0.61003 5.77955 0.583187 5.82982C0.513977 5.95929 0.387188 6.39698 0.320398 6.73698C0.289082 6.89619 0.237293 7.14487 0.20524 7.28961C0.129503 7.63203 0.129503 9.68403 0.20524 10.0264C0.237293 10.1712 0.289082 10.4198 0.320398 10.5791C0.387188 10.9191 0.513977 11.3567 0.583187 11.4862C0.61003 11.5365 0.632819 11.6075 0.633819 11.6441C0.634819 11.6807 0.681345 11.8054 0.737293 11.9212C0.79324 12.037 0.839766 12.1613 0.840766 12.1975C0.841766 12.2337 0.86624 12.2633 0.895187 12.2633C0.924135 12.2633 0.947819 12.2903 0.947819 12.3233C0.947819 12.4032 1.17398 12.8638 1.22413 12.8861C1.24587 12.8957 1.26361 12.9262 1.26361 12.9539C1.26361 13.0081 1.84261 13.8853 1.95798 14.006C1.99645 14.0462 2.14435 14.2168 2.28666 14.3851C2.5025 14.6404 2.99787 15.1008 3.50377 15.5162C3.96208 15.8926 5.00803 16.4789 5.5794 16.6796C5.76756 16.7457 5.96887 16.8208 6.02677 16.8464C6.08466 16.872 6.22677 16.9156 6.34256 16.9434C6.45835 16.9711 6.64782 17.017 6.76361 17.0453C7.47387 17.2192 7.65456 17.237 8.71098 17.237C9.44045 17.237 9.92361 17.2131 10.132 17.1666C10.9507 16.9844 11.3467 16.8809 11.3926 16.8372C11.4201 16.811 11.4875 16.7896 11.5425 16.7896C11.7863 16.7896 13.4549 15.9293 13.7685 15.6418C13.8237 15.5913 13.9518 15.4933 14.0531 15.4241C14.1544 15.355 14.3011 15.2313 14.3791 15.1492C14.457 15.0672 14.534 15.0001 14.5502 15.0001C14.6053 15.0001 15.269 14.2812 15.4986 13.9729C15.5843 13.8576 15.6791 13.7345 15.7091 13.6993C15.8707 13.5098 15.8952 13.474 15.8952 13.4272C15.8952 13.3991 15.9295 13.3418 15.9713 13.3C16.0131 13.2581 16.1352 13.0611 16.2425 12.862C16.3498 12.663 16.4568 12.4646 16.4803 12.4212C16.6257 12.1526 16.8522 11.5179 17.1178 10.6353C17.1828 10.4191 17.2411 10.0193 17.3228 9.22971C17.3687 8.78645 17.3686 8.50413 17.3225 8.07182C17.2373 7.27313 17.181 6.89066 17.1174 6.68077C16.8797 5.89566 16.7089 5.37455 16.6529 5.26329C16.6164 5.19092 16.5317 5.01329 16.4647 4.86855C16.3976 4.72382 16.3291 4.59355 16.3125 4.57908C16.2958 4.56461 16.2659 4.50866 16.246 4.45477C16.2131 4.36571 15.749 3.64155 15.6848 3.57908C15.6699 3.56461 15.5872 3.45803 15.501 3.34224C15.0004 2.66966 14.0779 1.82792 13.3952 1.42071C13.2794 1.35166 13.1728 1.28119 13.1583 1.26413C13.1319 1.23298 12.1941 0.77061 11.8346 0.611504C11.7289 0.564715 11.6093 0.526452 11.5688 0.526452C11.5283 0.526452 11.4727 0.505241 11.4452 0.479346C11.3972 0.434136 11.2285 0.387873 10.6583 0.263452C10.5136 0.231873 10.2886 0.179294 10.1583 0.146715C9.87498 0.0757148 7.85235 0.0425569 7.55308 0.104031ZM28.1902 0.943399C27.9467 1.10392 27.835 1.3264 27.835 1.65113C27.835 1.80913 27.8722 2.01008 27.9178 2.09813C27.9632 2.18608 28.0004 2.29398 28.0004 2.33782C28.0004 2.38171 28.0329 2.4954 28.0725 2.59045C28.1813 2.85124 28.2672 3.10824 28.3239 3.34224C28.352 3.45803 28.3972 3.57524 28.4245 3.60277C28.4518 3.63024 28.4743 3.70129 28.4744 3.76066C28.4747 3.81998 28.5102 3.9364 28.5534 4.01929C28.5967 4.10224 28.6322 4.20882 28.6323 4.25613C28.6326 4.3035 28.6681 4.41008 28.7113 4.49298C28.7546 4.57592 28.7899 4.67892 28.7899 4.72187C28.7899 4.76487 28.8273 4.87871 28.8729 4.97492C28.9409 5.11808 28.9441 5.17182 28.891 5.27108C28.8553 5.33782 28.8082 5.46403 28.7863 5.5515C28.7408 5.73382 28.6463 6.00445 28.5444 6.24492C28.5058 6.33613 28.4741 6.45577 28.4741 6.51071C28.4741 6.56571 28.4518 6.63313 28.4245 6.66066C28.3972 6.68813 28.3515 6.8054 28.3229 6.92119C28.2942 7.03698 28.1708 7.41592 28.0484 7.76329C27.7628 8.57413 27.7511 8.84324 27.9885 9.14298C28.1133 9.3005 28.2179 9.37103 28.3915 9.41476C28.5537 9.45561 29.7626 9.47382 32.3137 9.47382H36.0013L35.9878 12.3496C35.9759 14.8426 35.9636 15.2312 35.8952 15.2679C35.8518 15.2912 35.4042 15.5152 34.9006 15.7657C34.3969 16.0162 33.9416 16.2614 33.8888 16.3106C33.6196 16.5614 33.632 15.9925 33.632 28.032C33.632 40.5565 33.5972 39.4915 34.0162 39.795L34.2268 39.9475L36.811 39.9471C39.1807 39.9468 39.4066 39.9392 39.5319 39.855C39.7707 39.6948 39.857 39.5769 39.9007 39.3513C39.9648 39.0205 39.9568 14.6026 39.8924 14.3239C39.8103 13.9676 39.5294 13.7378 39.1753 13.7373C39.0102 13.7371 38.8004 13.8157 38.3339 14.0527C37.9921 14.2264 37.6943 14.3685 37.6722 14.3685C37.6501 14.3685 37.632 11.4795 37.632 7.94855C37.632 0.791188 37.6556 1.2455 37.27 0.978241L37.0737 0.842241L32.7081 0.842609C28.5009 0.842925 28.337 0.846557 28.1902 0.943399ZM8.00045 1.66713C7.70082 1.6974 6.93003 1.84445 6.81624 1.89308C6.75835 1.91782 6.58071 1.9775 6.4215 2.02566C6.16492 2.10329 5.11187 2.59277 4.97413 2.6984C4.94519 2.72061 4.75571 2.86119 4.55308 3.01082C3.88861 3.5015 3.50471 3.90992 2.80403 4.87145C2.61798 5.12682 2.15135 6.09203 2.08029 6.36855C2.06166 6.44092 2.02566 6.5475 2.00019 6.6054C1.94713 6.72613 1.85529 7.11703 1.78987 7.50013C1.73171 7.84098 1.73171 9.47508 1.78987 9.81592C1.8614 10.2351 1.94824 10.5983 1.99898 10.691C2.02477 10.7381 2.06198 10.8624 2.08166 10.9673C2.10135 11.0722 2.13592 11.158 2.1585 11.158C2.18108 11.158 2.2154 11.2232 2.23482 11.3027C2.28166 11.4953 2.64798 12.2301 2.80398 12.4446C3.2275 13.0269 3.45677 13.3049 3.78692 13.6365C4.1634 14.0147 4.78845 14.5264 4.87387 14.5264C4.8955 14.5264 4.95061 14.5597 4.99629 14.6005C5.10924 14.7012 5.92087 15.1145 6.21198 15.2195C6.87292 15.4582 7.24166 15.5458 7.97413 15.6385C8.44008 15.6974 9.65471 15.6632 9.91371 15.5839C10.0049 15.556 10.1978 15.507 10.3426 15.475C10.8148 15.3707 11.025 15.3149 11.132 15.2652C11.1899 15.2383 11.3676 15.1625 11.5268 15.0967C11.686 15.031 12.0057 14.8634 12.2373 14.7243C12.8128 14.3785 12.865 14.3461 12.8952 14.3159C12.9097 14.3014 13.0755 14.1612 13.2636 14.0042C14.2195 13.2066 14.9867 12.0792 15.3896 10.8798C15.4361 10.7413 15.4741 10.5862 15.4741 10.5351C15.4741 10.484 15.4949 10.4197 15.5204 10.3922C15.695 10.2034 15.7766 8.18382 15.6405 7.42119C15.4438 6.31992 15.0117 5.34619 14.3026 4.40666C13.9389 3.92487 13.7276 3.7025 13.2636 3.31334C13.0755 3.15555 12.9136 3.00871 12.904 2.98698C12.8943 2.96524 12.8622 2.9475 12.8326 2.9475C12.803 2.9475 12.689 2.87645 12.5794 2.78961C12.4698 2.70277 12.3667 2.63171 12.3505 2.63171C12.3342 2.63171 12.2073 2.5655 12.0686 2.48455C11.9298 2.40361 11.686 2.28392 11.5268 2.21855C11.3676 2.15324 11.1899 2.07913 11.132 2.05398C10.4263 1.74698 8.97998 1.56834 8.00045 1.66713ZM29.7373 2.48187C29.7373 2.54892 30.2371 4.06934 30.3143 4.23698C30.3409 4.29487 30.3787 4.42513 30.3982 4.52645C30.4177 4.62777 30.4597 4.74287 30.4915 4.78229C30.5661 4.87461 30.5667 5.38777 30.4923 5.48113C30.4609 5.52055 30.4194 5.64055 30.4001 5.74792C30.3808 5.85524 30.3304 6.00919 30.2883 6.09003C30.2461 6.17082 30.2115 6.27571 30.2113 6.32308C30.2111 6.3704 30.1756 6.47698 30.1323 6.55992C30.0891 6.64282 30.0536 6.7494 30.0534 6.79677C30.0532 6.84408 30.0177 6.95066 29.9744 7.03361C29.9312 7.1165 29.8957 7.22308 29.8955 7.27045C29.8953 7.31776 29.8598 7.42434 29.8166 7.50729C29.7733 7.59019 29.7378 7.69945 29.7376 7.75013C29.7373 7.83682 29.9214 7.84224 32.8689 7.84224H36.0004V5.13171V2.42119H32.8689C30.5389 2.42119 29.7373 2.43671 29.7373 2.48187ZM8.39919 3.24555C8.0164 3.45282 7.89519 3.73713 7.89519 4.42782C7.89519 4.72729 7.87477 4.89487 7.83829 4.89487C7.76977 4.89487 7.27935 5.21619 7.13203 5.35766C6.53824 5.92787 6.29519 6.64777 6.41366 7.48555C6.44708 7.72182 6.49619 7.92861 6.52277 7.94503C6.54929 7.96145 6.58735 8.03976 6.60724 8.11908C6.62713 8.1984 6.66456 8.26329 6.69035 8.26329C6.71619 8.26329 6.73729 8.28834 6.73729 8.31903C6.73729 8.41961 7.06682 8.78734 7.33887 8.99045C7.68071 9.24561 7.98598 9.35834 8.57503 9.44682C9.07645 9.52219 9.24356 9.60692 9.38835 9.85919C9.48177 10.0219 9.50682 10.5264 9.4215 10.5264C9.39256 10.5264 9.36887 10.5607 9.36887 10.6027C9.36887 10.6446 9.28198 10.7453 9.17582 10.8264L8.98271 10.9738L7.9205 11.0001C6.81671 11.0275 6.81135 11.0285 6.56108 11.2782C6.34103 11.4977 6.32629 12.0322 6.53366 12.2712C6.75903 12.5311 6.89345 12.5783 7.40835 12.5787L7.89519 12.5791V12.9672C7.89519 13.3795 7.99719 13.7561 8.14656 13.8951C8.28029 14.0194 8.57861 14.158 8.71266 14.158C8.92282 14.158 9.20171 14.0053 9.3525 13.8076C9.49077 13.6262 9.5015 13.5755 9.51919 13.0175C9.53203 12.6125 9.55766 12.4212 9.59892 12.4212C9.68829 12.4212 10.2125 12.0588 10.3952 11.8707C10.658 11.6002 10.85 11.2842 10.9881 10.8948C11.0842 10.6239 11.1045 9.73271 11.017 9.62198C10.9869 9.58392 10.9463 9.48566 10.9267 9.40366C10.8515 9.08945 10.3067 8.40392 10.0005 8.23813C9.6055 8.02434 9.3785 7.94813 8.91787 7.87461C8.14535 7.75134 7.97387 7.5934 8.00924 7.03771C8.02535 6.78482 8.05771 6.67971 8.14698 6.59045C8.21113 6.52629 8.28529 6.47382 8.31187 6.47382C8.3384 6.47382 8.36992 6.44419 8.38198 6.40803C8.39808 6.35945 8.68471 6.33534 9.47845 6.31592C10.6525 6.28719 10.6937 6.27719 10.9325 5.96403C11.1373 5.69555 11.1371 5.35703 10.9319 5.08808C10.7101 4.79729 10.5506 4.73698 10.0031 4.73698H9.52677V4.32871C9.52677 4.10419 9.50366 3.83987 9.4754 3.74134C9.34445 3.28487 8.79456 3.0315 8.39919 3.24555ZM18.8843 10.6653C18.4318 10.9041 18.3465 11.5391 18.7172 11.9098C18.9162 12.1088 18.9313 12.1128 20.3689 12.3402C20.6439 12.3836 21.0347 12.4455 21.2373 12.4776C21.4399 12.5097 21.8426 12.571 22.132 12.6138C23.0857 12.7549 23.0187 12.7348 22.916 12.8483C22.8667 12.9028 22.7944 12.9475 22.7555 12.9475C22.7165 12.9475 22.6845 12.9653 22.6843 12.987C22.6841 13.0086 22.5953 13.0853 22.4869 13.1572C22.3786 13.2291 21.9228 13.5613 21.4741 13.8954C21.0255 14.2295 20.5966 14.542 20.521 14.59C20.4455 14.6379 20.3507 14.7084 20.3105 14.7467C20.2702 14.7851 20.1011 14.9091 19.9347 15.0223C19.7682 15.1355 19.632 15.2479 19.632 15.272C19.632 15.2962 19.6099 15.3159 19.5828 15.3159C19.5319 15.3159 19.2675 15.5051 17.7433 16.6317C17.2538 16.9935 16.8012 17.3251 16.7377 17.3685C16.6742 17.412 16.5735 17.489 16.5138 17.5396C16.4542 17.5902 16.3912 17.6321 16.374 17.6325C16.3567 17.633 16.268 17.6981 16.1769 17.7773C16.0858 17.8564 15.9587 17.9567 15.8944 18.0001C15.8302 18.0435 15.5264 18.264 15.2194 18.49C14.9123 18.7159 14.5835 18.9487 14.4887 19.0074C14.3938 19.066 14.3162 19.1357 14.3162 19.1623C14.3162 19.1889 14.2928 19.2106 14.2642 19.2106C14.2356 19.2106 14.1705 19.2446 14.1195 19.2861C14.0685 19.3276 13.7189 19.5876 13.3426 19.8639C12.9662 20.1401 12.6187 20.3963 12.5702 20.4331C12.5217 20.47 12.4296 20.5356 12.3656 20.5791C12.3015 20.6225 11.9065 20.9126 11.4877 21.2238C11.069 21.535 10.7172 21.7896 10.7061 21.7896C10.695 21.7896 10.6441 21.8235 10.5931 21.8649C10.5422 21.9063 10.1452 22.2015 9.71098 22.5208C9.27677 22.8402 8.89666 23.1225 8.86635 23.1482C8.83598 23.1739 8.68319 23.2849 8.52677 23.3948C8.37035 23.5048 8.21756 23.6155 8.18719 23.6409C8.15687 23.6663 7.88892 23.8659 7.59182 24.0845C6.97182 24.5405 6.87335 24.6832 6.90608 25.0782C6.92845 25.348 7.07366 25.6268 7.19345 25.6301C7.22719 25.631 7.26392 25.659 7.27503 25.6923C7.28613 25.7256 7.4315 25.7642 7.59808 25.778C7.88213 25.8015 7.91961 25.7904 8.20071 25.599C8.36556 25.4867 8.50834 25.3771 8.51798 25.3554C8.52766 25.3336 8.55919 25.3159 8.58808 25.3159C8.64424 25.3159 9.12019 24.9478 9.14956 24.8817C9.15924 24.86 9.18666 24.8422 9.21061 24.8422C9.2345 24.8422 9.45456 24.6942 9.69961 24.5133C9.94461 24.3324 10.1971 24.1488 10.2606 24.1054C10.3241 24.062 10.4278 23.9867 10.4909 23.9383C10.5541 23.8898 10.9136 23.6243 11.2899 23.3482C11.6662 23.0722 11.999 22.8253 12.0293 22.7995C12.0597 22.7737 12.2136 22.6624 12.3714 22.5522C12.5292 22.442 12.6662 22.3319 12.6759 22.3075C12.6856 22.2832 12.7191 22.2633 12.7504 22.2633C12.7818 22.2633 12.8449 22.2273 12.8908 22.1833C13.0381 22.042 13.903 21.4212 13.9526 21.4212C13.9789 21.4212 14.0006 21.4034 14.0008 21.3817C14.001 21.36 14.0898 21.2833 14.1982 21.2112C14.3066 21.1391 14.8249 20.7602 15.35 20.3691C15.8751 19.978 16.3575 19.6225 16.4218 19.5791C16.6788 19.4057 17.0278 19.1341 17.0443 19.0946C17.054 19.0716 17.0917 19.0527 17.1282 19.0527C17.1648 19.0527 17.2376 19.0054 17.2899 18.9475C17.3423 18.8896 17.417 18.8422 17.456 18.8422C17.4949 18.8422 17.5268 18.8225 17.5268 18.7983C17.5268 18.7742 17.6629 18.6617 17.8294 18.5483C17.9959 18.435 18.1557 18.3239 18.1847 18.3014C18.2136 18.279 18.6044 17.9894 19.0531 17.658C19.5018 17.3266 19.8937 17.0347 19.924 17.0093C19.9544 16.9839 20.1083 16.873 20.2661 16.7627C20.424 16.6525 20.561 16.5424 20.5706 16.5181C20.5803 16.4937 20.6092 16.4738 20.6349 16.4738C20.6607 16.4738 20.8835 16.3199 21.1301 16.1317C21.3767 15.9435 21.6023 15.7896 21.6316 15.7896C21.6608 15.7896 21.6847 15.7698 21.6847 15.7457C21.6847 15.7216 21.8208 15.6091 21.9873 15.4958C22.1538 15.3825 22.665 15.0095 23.1233 14.667C23.5817 14.3244 23.9632 14.052 23.9712 14.0616C23.9791 14.0712 23.9658 14.2093 23.9417 14.3685C23.8671 14.859 23.7471 15.6339 23.6646 16.158C23.3226 18.3294 23.3423 18.1273 23.4503 18.3549C23.5012 18.4623 23.5689 18.5747 23.6007 18.6047C23.9632 18.948 24.5262 18.9169 24.8121 18.5379C24.9239 18.3895 24.968 18.2126 25.0837 17.4475C25.1275 17.158 25.1959 16.708 25.2359 16.4475C25.2758 16.187 25.335 15.7843 25.3675 15.5527C25.3999 15.3212 25.4506 15.0133 25.4801 14.8685C25.5096 14.7238 25.5539 14.4396 25.5786 14.237C25.6484 13.663 25.7365 13.1114 25.8193 12.7294C25.8611 12.5371 25.8952 12.3157 25.8952 12.2374C25.8952 11.8758 25.5575 11.5074 25.1838 11.4614C24.7721 11.4108 24.1281 11.3098 23.8952 11.2594C23.7649 11.2312 23.4807 11.1863 23.2636 11.1596C22.8663 11.1109 22.5309 11.0613 21.6583 10.9225C21.3978 10.881 20.936 10.809 20.632 10.7624C20.3281 10.7158 19.9511 10.6555 19.7943 10.6284C19.4052 10.5611 19.055 10.5753 18.8843 10.6653ZM37.7899 16.1085C37.5149 16.252 37.2533 16.3825 37.2086 16.3986C37.1638 16.4147 36.7138 16.6345 36.2086 16.8871L35.2899 17.3464L35.2767 27.8575L35.2633 38.3685H36.7898H38.3162V27.1054C38.3162 20.9106 38.3103 15.8434 38.3031 15.845C38.2958 15.8464 38.0649 15.9651 37.7899 16.1085ZM27.632 19.3974C26.5754 19.9312 25.6814 20.3681 25.6452 20.3683C25.609 20.3684 25.5794 20.3903 25.5794 20.417C25.5794 20.4436 25.5083 20.4811 25.4215 20.5001C25.3347 20.5192 25.2636 20.554 25.2636 20.5775C25.2636 20.6011 25.1987 20.6366 25.1194 20.6565C25.0401 20.6764 24.9631 20.7085 24.9483 20.728C24.9336 20.7474 24.831 20.8094 24.7204 20.8657C24.6098 20.922 24.4677 21.0404 24.4046 21.1289L24.2899 21.2896L24.2762 30.2849L24.2624 39.2802L24.372 39.5066C24.4323 39.6311 24.5597 39.7813 24.6551 39.8402C24.8236 39.9443 24.9045 39.9475 27.4245 39.9475C30.0053 39.9475 30.0212 39.9468 30.1877 39.8327C30.2798 39.7696 30.3997 39.6353 30.4541 39.5342C30.55 39.3562 30.5531 39.0343 30.5531 29.158V18.9656L30.4056 18.7723C30.3245 18.666 30.1895 18.5434 30.1056 18.5001C29.7777 18.3305 29.6576 18.374 27.632 19.3974ZM27.4215 21.2803L25.9215 22.0325L25.9082 30.2005L25.8949 38.3685H27.4213H28.9478V29.4475C28.9478 24.5409 28.9419 20.5268 28.9347 20.5273C28.9274 20.5277 28.2465 20.8666 27.4215 21.2803ZM20.0268 23.1999C19.911 23.2462 19.8041 23.3013 19.7894 23.3222C19.7746 23.3431 19.6977 23.3765 19.6183 23.3964C19.539 23.4163 19.4741 23.4518 19.4741 23.4753C19.4741 23.4988 19.4031 23.5337 19.3162 23.5527C19.2294 23.5718 19.1583 23.6066 19.1583 23.6302C19.1583 23.6537 19.0935 23.6892 19.0141 23.7091C18.9348 23.729 18.8579 23.7612 18.8431 23.7806C18.8283 23.8 18.0152 24.2153 17.0362 24.7034C16.0572 25.1915 15.1977 25.6452 15.1261 25.7115C15.0546 25.7778 14.9733 25.9112 14.9456 26.0078C14.8788 26.2408 14.8774 39.1756 14.9442 39.4085C14.9967 39.5915 15.093 39.7087 15.3111 39.855C15.4365 39.9392 15.6623 39.9468 18.032 39.9471L20.6162 39.9475L20.8317 39.7914C20.9809 39.6833 21.0641 39.5741 21.1025 39.4362C21.1842 39.1417 21.1798 23.8687 21.0979 23.6264C21.0264 23.4149 20.9326 23.3157 20.6897 23.1946C20.4734 23.0869 20.3059 23.0882 20.0268 23.1999ZM17.961 26.0101L16.4741 26.7552V32.5618V38.3685H18.0268H19.5794V31.8159C19.5794 26.6084 19.5659 25.2634 19.5136 25.2642C19.4775 25.2646 18.7788 25.6003 17.961 26.0101ZM10.6847 27.8901C10.5544 27.9427 9.97413 28.2255 9.39519 28.5187C8.81624 28.8118 8.31298 29.0519 8.27677 29.0522C8.24061 29.0525 8.21098 29.0745 8.21098 29.1012C8.21098 29.1278 8.13992 29.1653 8.05308 29.1843C7.96624 29.2034 7.89519 29.2389 7.89519 29.2633C7.89519 29.2876 7.82413 29.3232 7.73729 29.3422C7.65045 29.3613 7.57919 29.3928 7.57892 29.4122C7.57861 29.4316 7.46961 29.4948 7.33666 29.5527C6.57182 29.8858 5.80619 30.3178 5.65835 30.4997L5.50045 30.6941L5.4864 34.982C5.47061 39.7939 5.44761 39.4974 5.85935 39.7957L6.06887 39.9475L8.65308 39.9471C11.0228 39.9468 11.2487 39.9392 11.374 39.855C11.6128 39.6948 11.6991 39.5769 11.7428 39.3513C11.8014 39.0488 11.799 28.6551 11.7402 28.4021C11.6806 28.1449 11.4737 27.9272 11.2154 27.8497C10.9655 27.7748 10.9712 27.7744 10.6847 27.8901ZM8.56624 30.7005L7.10571 31.4389V34.9037V38.3685H8.63203H10.1583V34.158C10.1583 30.8207 10.1447 29.949 10.0926 29.9548C10.0564 29.9588 9.3695 30.2944 8.56624 30.7005Z" fill="black"/>
</svg>
