<svg width="41" height="40" viewBox="0 0 41 40" fill="none" xmlns="http://www.w3.org/2000/svg">
<mask id="mask0_1063_1345" style="mask-type:luminance" maskUnits="userSpaceOnUse" x="0" y="0" width="41" height="40">
<path d="M40.3662 0H0.0507812V40H40.3662V0Z" fill="white"/>
</mask>
<g mask="url(#mask0_1063_1345)">
<path fill-rule="evenodd" clip-rule="evenodd" d="M19.181 0.702826C19.1655 0.718437 18.8469 0.75602 18.4731 0.786348C17.8395 0.837807 17.5112 0.884535 16.9229 1.00711C16.7928 1.03423 16.5327 1.0878 16.3448 1.12622C16.1568 1.16464 15.873 1.2356 15.714 1.28391C15.555 1.33216 15.3195 1.39439 15.1905 1.42215C15.0616 1.4499 14.9327 1.49605 14.9041 1.52469C14.8754 1.55334 14.8071 1.57678 14.7522 1.57678C14.6973 1.57678 14.5778 1.60906 14.4867 1.64848C14.3956 1.6879 14.2265 1.75665 14.1108 1.80123C13.7014 1.95897 13.0049 2.25358 12.8494 2.33479C12.7626 2.3801 12.6621 2.41726 12.626 2.41747C12.5899 2.41762 12.5603 2.44144 12.5603 2.47034C12.5603 2.49925 12.5307 2.52307 12.4946 2.52322C12.4241 2.52359 12.3659 2.55218 11.7981 2.86556C11.189 3.2017 11.1418 3.23092 11.1414 3.27192C11.1412 3.29363 11.1165 3.31134 11.0865 3.31134C10.9915 3.31134 9.47495 4.36406 9.35395 4.51397C9.33949 4.5319 9.2094 4.64112 9.06486 4.75665C8.41755 5.27413 7.21193 6.49084 6.88746 6.95413C6.84541 7.0141 6.77413 7.10194 6.72903 7.14935C6.59358 7.29163 6.4421 7.4818 6.34838 7.62724C6.29976 7.70267 6.2279 7.79728 6.18864 7.83749C6.06459 7.96454 5.32588 9.10309 5.10112 9.51371C4.91416 9.85515 4.39185 10.9094 4.25471 11.222C4.22932 11.2798 4.15999 11.4382 4.1006 11.5739C4.0412 11.7096 3.99258 11.8528 3.99258 11.8919C3.99258 11.9311 3.97229 11.9856 3.94754 12.0131C3.92278 12.0405 3.84846 12.2404 3.78244 12.4572C3.71642 12.674 3.63022 12.926 3.59095 13.0171C3.55169 13.1082 3.51952 13.2327 3.51952 13.2938C3.51952 13.3548 3.49681 13.4459 3.46906 13.4961C3.38938 13.6403 3.17676 14.6343 3.06733 15.3744C2.94039 16.2327 2.89461 16.6676 2.89161 17.044L2.88877 17.3995L2.65224 17.5144C2.52215 17.5776 2.41571 17.6482 2.41571 17.6714C2.41571 17.6945 2.39111 17.7135 2.36104 17.7135C2.27127 17.7135 1.99274 17.93 1.65098 18.2654C1.21508 18.6931 0.68115 19.5421 0.68115 19.8072C0.68115 19.8583 0.658968 19.9225 0.631793 19.95C0.604671 19.9774 0.545539 20.2303 0.500387 20.5118C0.434895 20.9204 0.418285 21.499 0.41797 23.3765C0.417812 24.7498 0.440992 25.9043 0.473791 26.1497C0.61429 27.2021 1.00756 27.9885 1.73024 28.6622C2.04451 28.9553 2.55663 29.3261 2.75737 29.4061C3.92798 29.8726 4.92846 29.913 5.68924 29.5246C6.37681 29.1735 6.78254 28.7058 7.05398 27.9513L7.17261 27.6215V23.4165V19.2115L7.05082 18.8961C6.76062 18.1445 6.32373 17.6503 5.67458 17.3394C5.42969 17.2221 4.9961 17.0827 4.87616 17.0827C4.79558 17.0827 4.7837 17.0504 4.80373 16.8856C4.91652 15.9574 4.954 15.6853 5.02286 15.2956C5.06627 15.0499 5.13608 14.7128 5.17797 14.5466C5.37287 13.7729 5.42612 13.5782 5.47642 13.4559C5.50617 13.3836 5.54906 13.2535 5.57171 13.1668C5.59437 13.0801 5.66428 12.879 5.72704 12.72C5.7898 12.561 5.85377 12.3836 5.86922 12.3258C5.88467 12.268 6.08294 11.8373 6.3099 11.3687C6.71668 10.5287 7.1796 9.72291 7.47059 9.34845C7.55243 9.24312 7.61939 9.14172 7.61939 9.12317C7.61939 9.08974 8.12851 8.40801 8.19127 8.35734C8.20919 8.34288 8.31794 8.21279 8.433 8.06824C8.67363 7.76585 9.62354 6.80301 10.011 6.46877C10.1555 6.34409 10.3329 6.19045 10.4052 6.12738C11.1085 5.51371 12.4327 4.66183 13.4275 4.18314C13.9348 3.93904 14.0491 3.88664 14.4571 3.71103C14.6835 3.61363 15.9913 3.19208 16.3973 3.08569C17.0838 2.90572 17.397 2.83828 17.5458 2.83828C17.6331 2.83828 17.7663 2.81479 17.8418 2.78609C17.9174 2.75739 18.4807 2.69978 19.0936 2.65815C20.618 2.5546 22.2175 2.65479 23.2953 2.92138C23.4611 2.96243 23.6436 2.99597 23.7009 2.99597C23.7581 2.99597 23.9181 3.0315 24.0564 3.07487C24.1948 3.11828 24.4262 3.18903 24.5708 3.23208C26.1266 3.69573 27.0152 4.10956 28.7221 5.16554C28.8871 5.26756 30.07 6.15402 30.2734 6.32806C30.5856 6.59518 32.1135 8.14982 32.1135 8.20044C32.1135 8.22667 32.1566 8.29042 32.2092 8.34214C32.4094 8.53868 33.2992 9.79891 33.4459 10.0937C33.467 10.1361 33.5651 10.3127 33.6639 10.4861C33.9473 10.9837 34.3437 11.8123 34.5316 12.2995C34.6263 12.5453 34.7233 12.7936 34.7471 12.8514C34.8482 13.0962 35.0273 13.7135 35.2389 14.5466C35.329 14.9012 35.4531 15.6223 35.5261 16.2154C35.5546 16.4467 35.5911 16.7364 35.6071 16.8593C35.6323 17.0515 35.623 17.0827 35.54 17.0827C35.4201 17.0827 34.9865 17.2221 34.7416 17.3394C34.0925 17.6503 33.6556 18.1445 33.3654 18.8961L33.2436 19.2115V23.4165C33.2436 27.9906 33.2269 27.699 33.525 28.3311C33.8487 29.0172 34.668 29.6355 35.3784 29.7298L35.6352 29.7638L35.6345 30.9528C35.634 31.9394 35.6171 32.209 35.5352 32.5361C35.1959 33.8919 34.2753 34.8662 32.8985 35.3268C32.5861 35.4313 32.424 35.4418 30.7731 35.4651L28.986 35.4903L28.8355 35.1618C28.6252 34.7028 28.0031 34.0805 27.5405 33.866C26.937 33.5863 26.5113 33.5348 24.804 33.5348C22.9677 33.5348 22.688 33.5746 21.9176 33.946C21.6098 34.0943 20.9556 34.7847 20.7881 35.1379C20.3259 36.1125 20.359 36.9657 20.8979 37.9631C20.9409 38.0427 20.9984 38.1077 21.0257 38.1077C21.053 38.1077 21.0754 38.1324 21.0754 38.1628C21.0754 38.2345 21.5793 38.7384 21.651 38.7384C21.6814 38.7384 21.7061 38.7575 21.7061 38.7809C21.7061 38.8585 22.3587 39.1495 22.7216 39.2337C23.0094 39.3004 23.4217 39.3166 24.8326 39.3166C26.6482 39.3166 26.8833 39.2944 27.4245 39.0714C27.6312 38.9863 28.381 38.4469 28.3824 38.3824C28.3829 38.3614 28.4508 38.2676 28.5333 38.174C28.6158 38.0804 28.751 37.8747 28.8337 37.7167L28.984 37.4296L30.667 37.4094C32.2325 37.3906 33.107 37.3253 33.2416 37.2172C33.2716 37.1932 33.3965 37.1569 33.5193 37.1366C33.6419 37.1164 33.7557 37.0783 33.772 37.0519C33.7883 37.0255 33.8417 37.0036 33.8906 37.0032C34.0136 37.0023 34.8992 36.5452 35.0044 36.4283C35.0189 36.4122 35.1355 36.3282 35.2637 36.2416C35.4965 36.0841 36.0195 35.5889 36.2642 35.2941C36.4537 35.0659 36.981 34.2134 37.0274 34.0604C37.0493 33.9881 37.0851 33.9053 37.107 33.8764C37.1288 33.8475 37.1981 33.6583 37.2608 33.4559C37.3236 33.2535 37.4016 33.017 37.4342 32.9303C37.4709 32.8326 37.505 32.1437 37.5236 31.1206L37.5537 29.4687L37.9479 29.2297C38.6077 28.8298 39.3025 28.073 39.5934 27.4375C39.9688 26.6172 40.0128 26.1349 39.9839 23.1537C39.9608 20.7842 39.9177 20.0827 39.7868 19.9518C39.7583 19.9233 39.735 19.8502 39.735 19.7892C39.735 19.7282 39.7003 19.6325 39.6579 19.5763C39.6154 19.5202 39.5799 19.4435 39.579 19.4058C39.5757 19.2693 39.0791 18.5734 38.7652 18.2654C38.4234 17.93 38.1449 17.7135 38.0551 17.7135C38.0251 17.7135 38.0005 17.6945 38.0005 17.6714C38.0005 17.6482 37.894 17.5776 37.7639 17.5144L37.5274 17.3995L37.5246 17.044C37.5204 16.5232 37.3531 15.2264 37.194 14.4809C37.0231 13.6808 36.7408 12.6547 36.6367 12.4555C36.6136 12.4112 36.578 12.2991 36.5576 12.2064C36.5373 12.1138 36.4988 12.0244 36.4721 12.0079C36.4454 11.9915 36.4236 11.9415 36.4236 11.897C36.4236 11.8217 36.3631 11.663 36.1864 11.2746C36.1469 11.1878 36.065 10.9986 36.0045 10.8541C35.8588 10.5064 35.5085 9.82278 35.2872 9.45426C35.1895 9.29147 35.1095 9.13184 35.1095 9.09946C35.1095 9.06714 35.0859 9.04065 35.057 9.04065C35.0281 9.04065 35.0044 9.01768 35.0044 8.98966C35.0044 8.94136 34.5143 8.18793 34.4007 8.06157C34.3713 8.02893 34.3119 7.94987 34.2685 7.8858C33.7513 7.1217 32.4254 5.64538 31.7407 5.07119C31.6711 5.01279 31.4599 4.83539 31.2714 4.67697C30.8534 4.32564 30.7188 4.22225 30.2475 3.89058C30.0451 3.74814 29.8559 3.61169 29.827 3.58735C29.6675 3.4531 28.2795 2.66015 27.8296 2.44632C26.9774 2.04128 26.628 1.89216 26.5313 1.89216C26.4908 1.89216 26.4353 1.87008 26.4078 1.84307C26.3583 1.79439 25.4677 1.491 24.9124 1.33363C24.7534 1.28858 24.547 1.22893 24.4537 1.20101C24.3604 1.17316 24.1711 1.13027 24.0332 1.10572C23.7126 1.04879 23.218 0.952813 22.9151 0.888845C22.3456 0.768582 19.2685 0.61531 19.181 0.702826ZM13.5493 9.90893C13.046 9.98225 12.7458 10.0771 12.2712 10.3128C11.9871 10.4538 11.4527 10.8323 11.2466 11.0384C11.0405 11.2445 10.662 11.779 10.5209 12.063C10.0481 13.0153 10.0369 13.1522 10.0389 17.9628C10.0408 22.6417 10.052 22.7998 10.4453 23.7056C10.6716 24.2268 11.1772 24.8553 11.696 25.2602C12.205 25.6575 13.3602 26.0709 13.9612 26.0709H14.1371V27.2453C14.1371 28.4743 14.1634 28.6501 14.4215 29.152C14.6395 29.5756 15.1639 29.9446 15.7534 30.0888C16.1171 30.1778 16.152 30.1779 16.5156 30.0902C16.729 30.0387 17.0074 29.9249 17.1484 29.8315C17.2868 29.7399 18.2143 28.8562 19.2094 27.8678L21.0188 26.0709H23.8249C26.9377 26.0709 27.1807 26.0499 27.9126 25.7172C28.8378 25.2967 29.4115 24.755 29.8988 23.8418C29.9894 23.672 30.0637 23.5068 30.0639 23.4748C30.0641 23.4427 30.0981 23.3514 30.1397 23.2718C30.1812 23.1923 30.252 22.8621 30.297 22.5381C30.3653 22.0468 30.3789 21.2828 30.3789 17.9386C30.3789 13.155 30.3673 13.0138 29.8952 12.063C29.7542 11.779 29.3757 11.2445 29.1696 11.0384C28.8367 10.7055 27.8582 10.093 27.6581 10.0922C27.6215 10.092 27.5506 10.0688 27.5004 10.0406C27.4502 10.0123 27.1542 9.95313 26.8425 9.90914C26.3588 9.8408 25.3773 9.83008 20.1408 9.83571C15.4976 9.84075 13.8947 9.85857 13.5493 9.90893ZM13.7224 11.8282C13.1237 11.9151 12.5204 12.3598 12.2274 12.9299C12.1219 13.1351 12.0642 13.3514 12.0277 13.6786C11.9971 13.9527 11.9828 15.8333 11.9923 18.3308L12.0084 22.5229L12.2148 22.9338C12.4397 23.3814 12.7692 23.7244 13.1527 23.9101C13.4878 24.0722 14.1456 24.1786 14.8133 24.1786C15.3222 24.1786 15.4396 24.1949 15.6065 24.2887C15.997 24.5082 15.9999 24.5229 16.0294 26.4345C16.0484 27.666 16.0727 28.1441 16.117 28.1588C16.1507 28.1701 16.8762 27.4861 17.729 26.6389C18.5819 25.7917 19.4856 24.8974 19.7372 24.6517L20.1946 24.2049L23.3551 24.1741C25.4833 24.1534 26.6005 24.1232 26.7757 24.0818C27.4242 23.9283 27.8902 23.5532 28.2014 22.9338L28.4078 22.5229L28.4239 18.2957C28.4336 15.7147 28.4195 13.9023 28.3877 13.6419C28.2697 12.6777 27.5851 11.9611 26.6529 11.8263C26.2349 11.7658 14.1394 11.7676 13.7224 11.8282ZM15.2455 16.7497C14.927 16.8179 14.5232 17.1663 14.3515 17.5209C14.0346 18.1755 14.3084 18.9778 14.982 19.3685C15.2398 19.518 15.9741 19.515 16.2472 19.3634C16.7382 19.0907 16.9988 18.6552 16.9988 18.1077C16.9988 17.3371 16.4798 16.7823 15.7206 16.7414C15.5291 16.731 15.3153 16.7348 15.2455 16.7497ZM19.8341 16.758C19.5591 16.8179 19.211 17.0777 19.0233 17.3633C18.8534 17.6217 18.8449 17.6575 18.8444 18.1154C18.8439 18.5755 18.8515 18.6073 19.0215 18.8564C19.1192 18.9996 19.3162 19.1966 19.4594 19.2943C19.709 19.4647 19.7396 19.4719 20.2081 19.4719C20.6766 19.4719 20.7072 19.4647 20.9568 19.2943C21.1 19.1966 21.297 18.9996 21.3947 18.8564C21.5647 18.6073 21.5723 18.5755 21.5718 18.1154C21.5713 17.6585 21.5625 17.6213 21.3947 17.3661C21.1359 16.9723 20.8052 16.7746 20.3569 16.7456C20.1595 16.7328 19.9241 16.7384 19.8341 16.758ZM24.4131 16.7603C24.068 16.8508 23.7876 17.0815 23.548 17.472C23.3689 17.7639 23.3629 18.3745 23.536 18.7057C23.68 18.9814 23.9084 19.2186 24.169 19.3634C24.442 19.515 25.1764 19.518 25.4342 19.3685C25.9204 19.0865 26.1871 18.6399 26.1871 18.1077C26.1871 17.5769 25.969 17.2046 25.4731 16.8888C25.2537 16.7491 24.7081 16.6829 24.4131 16.7603ZM3.8473 19.0869C3.2616 19.2942 2.85461 19.6582 2.56231 20.2363L2.38943 20.5781V23.4206C2.38943 25.9806 2.39826 26.2809 2.47805 26.4429C2.52683 26.5419 2.57986 26.6583 2.596 26.7016C2.6884 26.9503 3.19589 27.4755 3.46696 27.6028C3.56814 27.6503 3.71957 27.7213 3.80341 27.7605C3.89461 27.8031 4.13765 27.8317 4.40788 27.8317C4.78401 27.8317 4.88041 27.8141 4.98228 27.7266C5.26386 27.4848 5.25408 27.6394 5.25408 23.4204C5.25408 19.6645 5.24998 19.4964 5.15421 19.3389C4.9314 18.9725 4.43873 18.8776 3.8473 19.0869ZM35.5118 19.0784C35.4295 19.1311 35.3172 19.2482 35.2621 19.3386C35.1661 19.4964 35.1621 19.6624 35.1621 23.4204C35.1621 27.6394 35.1523 27.4848 35.4339 27.7266C35.5369 27.8151 35.6313 27.8316 36.0294 27.8308C36.4436 27.8299 36.5414 27.8108 36.8164 27.6769C37.2331 27.4738 37.6201 27.0772 37.8448 26.6228L38.0268 26.2549V23.4165V20.5781L37.8539 20.2363C37.5577 19.6505 37.1415 19.2866 36.5344 19.082C36.141 18.9495 35.7156 18.948 35.5118 19.0784ZM23.1123 35.5279C22.9312 35.5649 22.8354 35.6253 22.5996 35.8512C22.5523 35.8965 22.4829 36.043 22.4455 36.1766C22.298 36.7033 22.5901 37.2222 23.1097 37.3569C23.2811 37.4014 23.8248 37.4223 24.8073 37.4223C26.6159 37.4223 26.7767 37.3877 27.0865 36.9308C27.3116 36.5989 27.2598 36.0942 26.9699 35.7943C26.6913 35.5062 26.6938 35.5065 24.9411 35.4968C24.0436 35.4918 23.2207 35.5058 23.1123 35.5279Z" fill="black"/>
</g>
</svg>
