<svg width="40" height="40" viewBox="0 0 40 40" fill="none" xmlns="http://www.w3.org/2000/svg">
<path fill-rule="evenodd" clip-rule="evenodd" d="M30.4053 1.75925C29.8754 1.98949 29.6716 2.22542 28.8241 3.59058L27.9591 4.98386L26.4602 5.35503C25.6359 5.55909 24.8384 5.78816 24.688 5.86402C24.3276 6.04566 23.9439 6.45316 23.7935 6.81386C23.6503 7.15722 23.6354 7.83949 23.7632 8.20597C23.8131 8.34925 24.3398 9.04699 24.9335 9.75644C25.9494 10.9703 26.0109 11.0628 25.9766 11.3239C25.879 12.0685 25.7723 14.1831 25.8196 14.4354C25.9301 15.0243 26.2968 15.5184 26.8364 15.8056C27.0726 15.9313 27.2823 15.9709 27.6958 15.9679C28.1962 15.9643 28.3648 15.9131 29.6823 15.3637L31.1219 14.7633L32.7219 15.3991C34.191 15.9828 34.3554 16.0314 34.7294 15.9928C35.2571 15.9384 35.6975 15.7092 36.0375 15.3119C36.4795 14.7955 36.5268 14.4918 36.419 12.8584C36.3677 12.0812 36.3267 11.3398 36.3279 11.2109C36.3296 11.0262 36.5392 10.728 37.3165 9.80464C37.8591 9.16011 38.3735 8.47574 38.4598 8.28378C38.6923 7.76605 38.6683 7.20464 38.3905 6.66785C38.0288 5.96886 37.7805 5.83831 35.9219 5.37003L34.3127 4.96464L33.5943 3.8116C32.59 2.19988 32.4955 2.0816 32.0235 1.84644C31.5468 1.60886 30.8393 1.57081 30.4053 1.75925ZM30.3587 5.42488C29.9448 6.08753 29.5 6.71917 29.3701 6.82839C29.1148 7.04324 29.0999 7.04808 27.4296 7.45714C26.8106 7.6087 26.2915 7.74542 26.276 7.76089C26.2605 7.77636 26.6536 8.27214 27.1494 8.86269C27.6451 9.45316 28.1084 10.0474 28.1786 10.183C28.2943 10.4063 28.2971 10.5725 28.2077 11.9384C28.1535 12.7682 28.1241 13.4621 28.1425 13.4806C28.1609 13.4989 28.7869 13.2683 29.5337 12.9679C30.2804 12.6676 31.0098 12.4218 31.1548 12.4218C31.3008 12.4218 32.0177 12.6657 32.7631 12.9687C33.5028 13.2695 34.1251 13.5156 34.1462 13.5156C34.1673 13.5156 34.1378 12.8739 34.0807 12.0898C34.0237 11.3057 33.9982 10.5484 34.0241 10.4071C34.0561 10.2322 34.3839 9.77464 35.0501 8.97472C35.5884 8.32824 36.0118 7.78206 35.9907 7.76105C35.9697 7.74003 35.3002 7.55706 34.503 7.35449C33.4448 7.08566 33.0023 6.93808 32.8636 6.80769C32.7591 6.70956 32.3467 6.10238 31.9473 5.45847C31.5477 4.81464 31.1962 4.27253 31.1661 4.25394C31.1359 4.23527 30.7726 4.76222 30.3587 5.42488ZM5.58765 7.78581C3.63163 8.20495 2.01335 9.78035 1.50757 11.7578C1.37749 12.2662 1.36765 12.8788 1.36765 20.4687C1.36765 29.6478 1.32874 29.0095 1.96733 30.3125C2.22882 30.8459 2.4246 31.1074 2.96304 31.642C3.64515 32.3192 4.16944 32.6563 5.0571 32.9882C5.47616 33.145 5.69437 33.16 8.12546 33.1996L10.7426 33.2421L10.7159 34.7656C10.6914 36.1693 10.7024 36.3239 10.8565 36.7334C11.0776 37.3213 11.623 37.8965 12.227 38.179C12.8387 38.4652 13.7453 38.4882 14.3037 38.2317C14.5005 38.1413 16.1187 36.9743 17.8997 35.6385L21.1377 33.2096L25.2761 33.1868L29.4145 33.164L29.9853 32.9439C31.6937 32.2853 32.7902 31.1414 33.3691 29.414L33.5523 28.8671L33.5769 23.7304C33.5993 19.0619 33.5896 18.5686 33.471 18.3187C33.0927 17.5215 32.0018 17.4528 31.5059 18.1951L31.3286 18.4606V23.3154C31.3286 27.451 31.3106 28.2393 31.2073 28.6359C30.968 29.5551 30.3963 30.2444 29.5317 30.6564L29.0239 30.8984L24.727 30.9375C21.249 30.9691 20.3936 30.9973 20.2383 31.0856C20.1327 31.1455 18.5749 32.2988 16.7765 33.6484C14.978 34.998 13.4587 36.1206 13.4003 36.1431C13.3418 36.1655 13.2176 36.1431 13.1244 36.0932L12.9551 36.0025L13.0068 33.8801C13.0831 30.7518 13.404 30.991 9.06101 30.9375L5.89499 30.8984L5.38093 30.6452C4.76179 30.3402 4.21304 29.7811 3.92077 29.1576L3.7114 28.7109V20.4296V12.1484L3.93249 11.698C4.19421 11.1647 4.7678 10.5507 5.21929 10.3203C6.00991 9.91706 5.90913 9.92183 13.6131 9.92183C21.4961 9.92183 21.1351 9.94378 21.4927 9.44238C21.746 9.08738 21.7519 8.4991 21.5059 8.1541C21.1308 7.62824 21.5768 7.6555 13.4652 7.66261C7.26835 7.66792 6.04882 7.68706 5.58765 7.78581ZM10.9617 16.6371C10.2051 17.0985 10.2344 18.145 11.0164 18.5845C11.3096 18.7493 11.3372 18.75 17.6894 18.75C24.6486 18.75 24.3845 18.7668 24.7795 18.2974C25.0848 17.9346 25.1258 17.5601 24.9076 17.1271C24.5613 16.4394 25.0647 16.4843 17.697 16.4846C11.4063 16.4849 11.2039 16.4895 10.9617 16.6371ZM10.8405 22.426C10.4682 22.7328 10.3287 23.1557 10.4578 23.5864C10.5801 23.9949 10.9958 24.351 11.423 24.4133C11.6074 24.4402 13.2524 24.4514 15.0786 24.4382C18.3726 24.4142 18.4012 24.4126 18.6836 24.237C19.3933 23.7957 19.3805 22.7411 18.6603 22.3112C18.479 22.203 17.9934 22.1875 14.7914 22.1875H11.1298L10.8405 22.426Z" fill="black"/>
</svg>
