<svg width="41" height="40" viewBox="0 0 41 40" fill="none" xmlns="http://www.w3.org/2000/svg">
<g clip-path="url(#clip0_1070_1351)">
<mask id="mask0_1070_1351" style="mask-type:luminance" maskUnits="userSpaceOnUse" x="-1" y="-1" width="42" height="42">
<path d="M40.1758 0H0.175781V40H40.1758V0Z" fill="white" stroke="white" stroke-width="0.5"/>
</mask>
<g mask="url(#mask0_1070_1351)">
<path fill-rule="evenodd" clip-rule="evenodd" d="M18.3706 0.03107C18.3316 0.0567342 18.1139 0.0781051 17.8867 0.0785297C17.6433 0.0789543 17.4737 0.098627 17.4737 0.126414C17.4737 0.154154 17.3084 0.173591 17.0724 0.173591C16.8517 0.173591 16.6712 0.192179 16.6712 0.214918C16.6712 0.237657 16.5596 0.267897 16.4233 0.282145C16.2871 0.296392 16.0374 0.342909 15.8687 0.385556C15.6999 0.428157 15.4821 0.474438 15.3845 0.488402C15.287 0.502367 15.1955 0.532796 15.1811 0.556007C15.1668 0.579218 15.0713 0.598183 14.969 0.598183C14.8666 0.598183 14.7829 0.619412 14.7829 0.645359C14.7829 0.671307 14.7086 0.692536 14.6177 0.692536C14.5268 0.692536 14.4525 0.713766 14.4525 0.739713C14.4525 0.76566 14.3981 0.78689 14.3315 0.78689C14.1848 0.78689 13.753 0.923561 13.7173 0.981258C13.7032 1.00409 13.6292 1.02277 13.5528 1.02277C13.4764 1.02277 13.414 1.044 13.414 1.06995C13.414 1.0959 13.3502 1.11713 13.2723 1.11713C13.1945 1.11713 13.1307 1.13836 13.1307 1.1643C13.1307 1.19025 13.0776 1.21148 13.0127 1.21148C12.9478 1.21148 12.8947 1.2303 12.8947 1.25333C12.8947 1.2763 12.8363 1.30659 12.7649 1.32055C12.5578 1.36113 12.281 1.46723 12.281 1.5061C12.281 1.52568 12.2279 1.54172 12.163 1.54172C12.0981 1.54172 12.045 1.56295 12.045 1.5889C12.045 1.61484 12.0025 1.63607 11.9506 1.63607C11.8987 1.63607 11.8562 1.6573 11.8562 1.68325C11.8562 1.7092 11.8031 1.73043 11.7382 1.73043C11.6732 1.73043 11.6201 1.75166 11.6201 1.7776C11.6201 1.80355 11.5862 1.82478 11.5448 1.82478C11.4615 1.82478 11.1807 1.96952 11.156 2.02528C11.1473 2.04472 11.1101 2.06066 11.0734 2.06066C11.0365 2.06066 11.0065 2.08189 11.0065 2.10784C11.0065 2.13379 10.9534 2.15502 10.8885 2.15502C10.8235 2.15502 10.7704 2.17625 10.7704 2.2022C10.7704 2.22814 10.728 2.24937 10.676 2.24937C10.6241 2.24937 10.5816 2.2706 10.5816 2.29655C10.5816 2.3225 10.5391 2.34373 10.4872 2.34373C10.4353 2.34373 10.3928 2.36453 10.3928 2.39001C10.3928 2.41543 10.3397 2.44959 10.2748 2.46587C10.2099 2.48214 10.1568 2.51441 10.1568 2.53753C10.1568 2.56069 10.1143 2.57961 10.0623 2.57961C10.0104 2.57961 9.96794 2.60084 9.96794 2.62679C9.96794 2.65273 9.93607 2.67396 9.89713 2.67396C9.85818 2.67396 9.82609 2.68991 9.8258 2.70935C9.82547 2.72878 9.7405 2.7853 9.63698 2.83488C9.53341 2.88447 9.44867 2.94282 9.44867 2.96462C9.44867 2.98637 9.41681 3.0042 9.37787 3.0042C9.33892 3.0042 9.30706 3.02543 9.30706 3.05138C9.30706 3.07733 9.27236 3.09856 9.22997 3.09856C9.18758 3.09856 9.11856 3.13601 9.07655 3.18178C9.03458 3.22754 8.92058 3.30665 8.8232 3.3576C8.72586 3.40855 8.64617 3.46663 8.64617 3.48668C8.64617 3.50673 8.61898 3.52315 8.5858 3.52315C8.55257 3.52315 8.49479 3.56561 8.45735 3.6175C8.41992 3.6694 8.36049 3.71185 8.32527 3.71185C8.29005 3.71185 8.19885 3.77422 8.12261 3.85041C8.04638 3.9266 7.94177 4.00237 7.89022 4.01869C7.83867 4.03506 7.79647 4.06823 7.79647 4.09243C7.79647 4.11663 7.77447 4.13645 7.74756 4.13645C7.70206 4.13645 7.65334 4.17541 7.34962 4.45489C7.28622 4.51329 7.22197 4.56104 7.20696 4.56104C7.19195 4.56104 7.10925 4.63006 7.02324 4.71436C6.82724 4.90651 6.62284 5.07998 6.59244 5.07998C6.55212 5.07998 4.96412 6.68201 4.96412 6.72268C4.96412 6.744 4.86853 6.86119 4.75169 6.98305C4.63486 7.10491 4.53927 7.21582 4.53927 7.2295C4.53927 7.24318 4.4915 7.30631 4.43305 7.36966C4.15341 7.6732 4.11442 7.72189 4.11442 7.76736C4.11442 7.79426 4.09459 7.81624 4.07037 7.81624C4.04616 7.81624 4.01297 7.85842 3.99659 7.90993C3.98026 7.96145 3.90444 8.06599 3.82821 8.14218C3.75197 8.21838 3.68956 8.30952 3.68956 8.34471C3.68956 8.37991 3.64708 8.4393 3.59515 8.47672C3.54322 8.51413 3.50074 8.57187 3.50074 8.60508C3.50074 8.63825 3.48478 8.6658 3.46533 8.66632C3.44589 8.66679 3.3662 8.77256 3.28831 8.90131C3.21042 9.03005 3.13074 9.13582 3.11129 9.13629C3.09184 9.13681 3.07589 9.17965 3.07589 9.23155C3.07589 9.28344 3.05464 9.3259 3.02868 9.3259C3.00272 9.3259 2.98148 9.35595 2.98148 9.39275C2.98148 9.4295 2.96557 9.46663 2.94607 9.47531C2.89514 9.49791 2.65103 9.88093 2.65103 9.93821C2.65103 9.96467 2.62979 9.98637 2.60383 9.98637C2.57787 9.98637 2.55662 10.0288 2.55662 10.0807C2.55662 10.1326 2.53769 10.1751 2.51452 10.1751C2.49138 10.1751 2.4591 10.2282 2.44281 10.293C2.42652 10.3579 2.39235 10.411 2.3669 10.411C2.34141 10.411 2.32059 10.4534 2.32059 10.5053C2.32059 10.5572 2.29935 10.5997 2.27339 10.5997C2.24742 10.5997 2.22618 10.6421 2.22618 10.694C2.22618 10.7459 2.20494 10.7884 2.17898 10.7884C2.15301 10.7884 2.13177 10.8202 2.13177 10.8591C2.13177 10.8981 2.11053 10.9299 2.08456 10.9299C2.0586 10.9299 2.03736 10.9812 2.03736 11.0439C2.03736 11.1066 2.02145 11.165 2.00195 11.1737C1.94616 11.1984 1.80133 11.479 1.80133 11.5623C1.80133 11.6037 1.78009 11.6376 1.75412 11.6376C1.72816 11.6376 1.70692 11.6906 1.70692 11.7555C1.70692 11.8204 1.68568 11.8734 1.65971 11.8734C1.63375 11.8734 1.61251 11.9159 1.61251 11.9678C1.61251 12.0197 1.59126 12.0622 1.5653 12.0622C1.53934 12.0622 1.51809 12.1152 1.51809 12.1801C1.51809 12.245 1.50204 12.298 1.48245 12.298C1.44356 12.298 1.33739 12.5746 1.29679 12.7816C1.28282 12.853 1.25251 12.9113 1.22953 12.9113C1.20649 12.9113 1.18765 12.9644 1.18765 13.0293C1.18765 13.0942 1.16641 13.1472 1.14045 13.1472C1.11448 13.1472 1.09324 13.2109 1.09324 13.2888C1.09324 13.3666 1.07441 13.4303 1.05137 13.4303C1.02838 13.4303 0.998783 13.4887 0.98566 13.56C0.972489 13.6314 0.916409 13.8171 0.861037 13.9728C0.698176 14.4303 0.66839 14.5385 0.66839 14.672C0.66839 14.7415 0.649366 14.7984 0.62614 14.7984C0.602915 14.7984 0.57242 14.878 0.5584 14.9753C0.529227 15.1776 0.470361 15.4437 0.357539 15.8835C0.314251 16.0521 0.268934 16.3016 0.256802 16.4378C0.244718 16.574 0.215544 16.6855 0.191941 16.6855C0.168386 16.6855 0.149126 16.8553 0.149126 17.0629C0.149126 17.2705 0.129299 17.4403 0.105035 17.4403C0.0359731 17.4403 0.00170169 18.272 4.9483e-05 19.9879C-0.00155551 21.6667 0.0359263 22.5826 0.106216 22.5826C0.129819 22.5826 0.149126 22.7524 0.149126 22.96C0.149126 23.1802 0.168811 23.3374 0.196332 23.3374C0.222295 23.3374 0.243537 23.4332 0.243537 23.5504C0.243537 23.6675 0.262514 23.8002 0.285739 23.8452C0.308965 23.8903 0.352252 24.0439 0.381992 24.1866C0.411684 24.3293 0.457804 24.5416 0.484429 24.6584C0.5111 24.7751 0.54438 24.9503 0.5584 25.0476C0.57242 25.1449 0.602915 25.2245 0.62614 25.2245C0.649366 25.2245 0.66839 25.2814 0.66839 25.3509C0.66839 25.4844 0.698176 25.5926 0.861037 26.0501C0.916409 26.2058 0.972489 26.3915 0.98566 26.4629C0.998783 26.5343 1.02838 26.5926 1.05137 26.5926C1.07441 26.5926 1.09324 26.6563 1.09324 26.7342C1.09324 26.812 1.11448 26.8757 1.14045 26.8757C1.16641 26.8757 1.18765 26.9288 1.18765 26.9936C1.18765 27.0585 1.20649 27.1116 1.22953 27.1116C1.25251 27.1116 1.28282 27.17 1.29679 27.2413C1.33739 27.4483 1.44356 27.7249 1.48245 27.7249C1.50204 27.7249 1.51809 27.7779 1.51809 27.8428C1.51809 27.9077 1.53934 27.9608 1.5653 27.9608C1.59126 27.9608 1.61251 28.0032 1.61251 28.0551C1.61251 28.107 1.63375 28.1495 1.65971 28.1495C1.68568 28.1495 1.70692 28.2025 1.70692 28.2674C1.70692 28.3323 1.72816 28.3853 1.75412 28.3853C1.78009 28.3853 1.80133 28.4192 1.80133 28.4606C1.80133 28.5439 1.94616 28.8245 2.00195 28.8492C2.02145 28.8579 2.03736 28.9163 2.03736 28.979C2.03736 29.0417 2.0586 29.093 2.08456 29.093C2.11053 29.093 2.13177 29.1248 2.13177 29.1638C2.13177 29.2027 2.15301 29.2345 2.17898 29.2345C2.20494 29.2345 2.22618 29.277 2.22618 29.3289C2.22618 29.3808 2.24742 29.4232 2.27339 29.4232C2.29935 29.4232 2.32059 29.4657 2.32059 29.5176C2.32059 29.5695 2.34141 29.6119 2.3669 29.6119C2.39235 29.6119 2.42652 29.665 2.44281 29.7299C2.4591 29.7948 2.49138 29.8478 2.51452 29.8478C2.53769 29.8478 2.55662 29.8903 2.55662 29.9422C2.55662 29.9941 2.57787 30.0365 2.60383 30.0365C2.62979 30.0365 2.65103 30.0582 2.65103 30.0847C2.65103 30.142 2.89514 30.525 2.94607 30.5476C2.96552 30.5563 2.98148 30.5934 2.98148 30.6302C2.98148 30.667 3.00272 30.697 3.02868 30.697C3.05464 30.697 3.07589 30.7395 3.07589 30.7914C3.07589 30.8433 3.09184 30.8861 3.11129 30.8866C3.13074 30.8871 3.21042 30.9929 3.28831 31.1216C3.3662 31.2503 3.44589 31.3561 3.46533 31.3566C3.48478 31.3571 3.50074 31.3847 3.50074 31.4178C3.50074 31.451 3.54322 31.5088 3.59515 31.5462C3.64708 31.5836 3.68956 31.643 3.68956 31.6782C3.68956 31.7134 3.75197 31.8045 3.82821 31.8807C3.90444 31.9569 3.98026 32.0615 3.99659 32.113C4.01297 32.1645 4.04616 32.2067 4.07037 32.2067C4.09459 32.2067 4.11442 32.2288 4.11442 32.256C4.11442 32.2831 4.16219 32.3572 4.22063 32.4206C4.48847 32.7113 4.53927 32.7712 4.53927 32.7963C4.53927 32.8111 4.60833 32.8935 4.69269 32.9794C4.88689 33.1773 5.05853 33.3797 5.05853 33.4108C5.05853 33.4402 6.56515 34.9429 6.59461 34.9429C6.62308 34.9429 6.83267 35.1217 7.02324 35.3085C7.10925 35.3929 7.19195 35.4619 7.20696 35.4619C7.22197 35.4619 7.28622 35.5096 7.34962 35.568C7.65334 35.8475 7.70206 35.8865 7.74756 35.8865C7.77447 35.8865 7.79647 35.9063 7.79647 35.9305C7.79647 35.9547 7.83551 35.9869 7.88323 36.002C7.93091 36.0171 8.04095 36.0929 8.12776 36.1703C8.21453 36.2477 8.30889 36.3111 8.3374 36.3111C8.36596 36.3111 8.41992 36.3535 8.45735 36.4054C8.49479 36.4573 8.54336 36.4998 8.56531 36.4998C8.58731 36.4998 8.67488 36.5528 8.75999 36.6177C8.8451 36.6826 8.93456 36.7356 8.95887 36.7356C8.98313 36.7356 9.03359 36.7781 9.07103 36.83C9.10846 36.8819 9.17686 36.9244 9.22308 36.9244C9.26925 36.9244 9.30706 36.9456 9.30706 36.9715C9.30706 36.9975 9.33892 37.0187 9.37787 37.0187C9.41681 37.0187 9.44867 37.0355 9.44867 37.0559C9.44867 37.0764 9.56551 37.1542 9.70831 37.2289C9.8511 37.3036 9.96794 37.3823 9.96794 37.404C9.96794 37.4256 10.0119 37.4433 10.0657 37.4433C10.1195 37.4433 10.1931 37.4698 10.2293 37.5023C10.393 37.649 10.4407 37.6792 10.5088 37.6792C10.5489 37.6792 10.5816 37.7004 10.5816 37.7264C10.5816 37.7523 10.6241 37.7735 10.676 37.7735C10.728 37.7735 10.7704 37.7948 10.7704 37.8207C10.7704 37.8467 10.8235 37.8679 10.8885 37.8679C10.9534 37.8679 11.0065 37.8891 11.0065 37.9151C11.0065 37.941 11.0383 37.9622 11.0773 37.9622C11.1162 37.9622 11.1481 37.9835 11.1481 38.0094C11.1481 38.0354 11.1815 38.0566 11.2222 38.0566C11.2631 38.0566 11.3283 38.0884 11.3673 38.1274C11.4062 38.1663 11.4778 38.1981 11.5263 38.1981C11.5749 38.1981 11.6277 38.2194 11.6437 38.2453C11.6598 38.2713 11.7141 38.2925 11.7645 38.2925C11.815 38.2925 11.8562 38.3137 11.8562 38.3397C11.8562 38.3656 11.8987 38.3868 11.9506 38.3868C12.0025 38.3868 12.045 38.4081 12.045 38.434C12.045 38.46 12.0882 38.4812 12.141 38.4812C12.1938 38.4812 12.3418 38.5343 12.4698 38.5991C12.5979 38.664 12.7459 38.7171 12.7987 38.7171C12.8515 38.7171 12.8947 38.7383 12.8947 38.7642C12.8947 38.7902 12.9478 38.8114 13.0127 38.8114C13.0776 38.8114 13.1307 38.8327 13.1307 38.8586C13.1307 38.8846 13.1945 38.9058 13.2723 38.9058C13.3502 38.9058 13.414 38.927 13.414 38.953C13.414 38.9789 13.4764 39.0001 13.5528 39.0001C13.6292 39.0001 13.7032 39.0188 13.7173 39.0416C13.753 39.0993 14.1848 39.236 14.3315 39.236C14.3981 39.236 14.4525 39.2572 14.4525 39.2832C14.4525 39.3091 14.5268 39.3304 14.6177 39.3304C14.7086 39.3304 14.7829 39.3516 14.7829 39.3775C14.7829 39.4035 14.8666 39.4247 14.969 39.4247C15.0713 39.4247 15.1668 39.4437 15.1811 39.4669C15.1955 39.4901 15.287 39.5206 15.3845 39.5346C15.6773 39.5766 16.0757 39.6678 16.163 39.7128C16.2081 39.736 16.3515 39.755 16.4817 39.755C16.6119 39.755 16.7184 39.7762 16.7184 39.8021C16.7184 39.8296 16.8757 39.8493 17.096 39.8493C17.3037 39.8493 17.4737 39.8686 17.4737 39.8921C17.4737 39.9627 18.3516 40.0002 19.9992 40C21.6632 39.9998 22.5719 39.9617 22.5719 39.8922C22.5719 39.8686 22.7312 39.8493 22.9259 39.8493C23.1207 39.8493 23.28 39.8301 23.28 39.8065C23.28 39.7829 23.3915 39.753 23.5278 39.74C23.8683 39.7074 24.3132 39.6196 24.4159 39.5647C24.4628 39.5396 24.5756 39.5191 24.6667 39.5191C24.7577 39.5191 24.8453 39.4978 24.8614 39.4719C24.8774 39.446 24.9636 39.4247 25.053 39.4247C25.1423 39.4247 25.2154 39.4035 25.2154 39.3775C25.2154 39.3516 25.2724 39.3304 25.3419 39.3304C25.4755 39.3304 25.5837 39.3006 26.0415 39.1378C26.1973 39.0825 26.3832 39.0265 26.4546 39.0133C26.526 39.0002 26.5844 38.9706 26.5844 38.9476C26.5844 38.9246 26.6481 38.9058 26.726 38.9058C26.8039 38.9058 26.8676 38.8846 26.8676 38.8586C26.8676 38.8327 26.9095 38.8114 26.9607 38.8114C27.0119 38.8114 27.1738 38.7584 27.3206 38.6935C27.4674 38.6286 27.6167 38.5755 27.6524 38.5755C27.6881 38.5755 27.7173 38.5543 27.7173 38.5284C27.7173 38.5024 27.7704 38.4812 27.8353 38.4812C27.9003 38.4812 27.9534 38.46 27.9534 38.434C27.9534 38.4081 27.9958 38.3868 28.0478 38.3868C28.0997 38.3868 28.1422 38.3656 28.1422 38.3397C28.1422 38.3137 28.1953 38.2925 28.2602 38.2925C28.3251 38.2925 28.3782 38.2713 28.3782 38.2453C28.3782 38.2194 28.4116 38.1981 28.4524 38.1981C28.4932 38.1981 28.5584 38.1663 28.5974 38.1274C28.6363 38.0884 28.7092 38.0566 28.7592 38.0566C28.8093 38.0566 28.8503 38.0354 28.8503 38.0094C28.8503 37.9835 28.9034 37.9622 28.9683 37.9622C29.0332 37.9622 29.0863 37.945 29.0863 37.9239C29.0863 37.9028 29.1606 37.8563 29.2515 37.8207C29.3424 37.7851 29.4167 37.7387 29.4167 37.7175C29.4167 37.6964 29.4592 37.6792 29.5112 37.6792C29.5631 37.6792 29.6056 37.6584 29.6056 37.6329C29.6056 37.6075 29.6587 37.5733 29.7236 37.557C29.7885 37.5408 29.8416 37.5085 29.8416 37.4854C29.8416 37.4622 29.8841 37.4433 29.936 37.4433C29.9879 37.4433 30.0304 37.4221 30.0304 37.3961C30.0304 37.3702 30.0521 37.3489 30.0786 37.3489C30.1359 37.3489 30.5192 37.105 30.5418 37.0541C30.5505 37.0346 30.5876 37.0187 30.6244 37.0187C30.6612 37.0187 30.6913 36.9975 30.6913 36.9715C30.6913 36.9456 30.7241 36.9244 30.7641 36.9244C30.8041 36.9244 30.8626 36.9028 30.8939 36.8765C31.0634 36.7342 31.3991 36.4998 31.4333 36.4998C31.4551 36.4998 31.5036 36.4573 31.541 36.4054C31.5784 36.3535 31.6379 36.3111 31.6731 36.3111C31.7083 36.3111 31.7995 36.2487 31.8757 36.1725C31.952 36.0963 32.0566 36.0205 32.1081 36.0042C32.1597 35.9878 32.2019 35.9547 32.2019 35.9305C32.2019 35.9063 32.2241 35.8865 32.2512 35.8865C32.2784 35.8865 32.3525 35.8387 32.4159 35.7803C32.7068 35.5126 32.7667 35.4619 32.7919 35.4619C32.8066 35.4619 32.8891 35.3929 32.9751 35.3085C33.1677 35.1197 33.3754 34.9429 33.4045 34.9429C33.433 34.9429 34.9398 33.437 34.9398 33.4086C34.9398 33.3794 35.1167 33.1719 35.3057 32.9794C35.3901 32.8935 35.4591 32.8108 35.4591 32.7958C35.4591 32.7808 35.5069 32.7166 35.5653 32.6532C35.8449 32.3497 35.8839 32.301 35.8839 32.2555C35.8839 32.2287 35.9038 32.2067 35.928 32.2067C35.9522 32.2067 35.9854 32.1645 36.0018 32.113C36.0181 32.0615 36.0939 31.9569 36.1701 31.8807C36.2464 31.8045 36.3088 31.7134 36.3088 31.6782C36.3088 31.643 36.3513 31.5836 36.4032 31.5462C36.4551 31.5088 36.4976 31.4602 36.4976 31.4383C36.4976 31.4163 36.5507 31.3288 36.6156 31.2437C36.6805 31.1587 36.7336 31.0693 36.7336 31.045C36.7336 31.0207 36.7761 30.9703 36.8281 30.9329C36.88 30.8955 36.9225 30.8271 36.9225 30.7809C36.9225 30.7348 36.9437 30.697 36.9697 30.697C36.9956 30.697 37.0169 30.6652 37.0169 30.6262C37.0169 30.5873 37.0336 30.5555 37.0541 30.5555C37.0746 30.5555 37.1525 30.4387 37.2272 30.296C37.3019 30.1533 37.3807 30.0365 37.4024 30.0365C37.424 30.0365 37.4417 29.9941 37.4417 29.9422C37.4417 29.8903 37.4607 29.8478 37.4838 29.8478C37.507 29.8478 37.5393 29.7948 37.5555 29.7299C37.5718 29.665 37.606 29.6119 37.6314 29.6119C37.6569 29.6119 37.6778 29.5695 37.6778 29.5176C37.6778 29.4657 37.699 29.4232 37.725 29.4232C37.7509 29.4232 37.7722 29.3808 37.7722 29.3289C37.7722 29.277 37.7934 29.2345 37.8194 29.2345C37.8453 29.2345 37.8666 29.1815 37.8666 29.1166C37.8666 29.0517 37.8878 28.9986 37.9138 28.9986C37.9398 28.9986 37.961 28.9668 37.961 28.9279C37.961 28.889 37.9822 28.8571 38.0082 28.8571C38.0342 28.8571 38.0554 28.8162 38.0554 28.7661C38.0554 28.7161 38.0873 28.6433 38.1262 28.6044C38.1652 28.5655 38.197 28.5015 38.197 28.4622C38.197 28.423 38.2183 28.3778 38.2442 28.3618C38.2702 28.3457 38.2914 28.2914 38.2914 28.241C38.2914 28.1906 38.3127 28.1495 38.3386 28.1495C38.3646 28.1495 38.3858 28.107 38.3858 28.0551C38.3858 28.0032 38.4071 27.9608 38.4331 27.9608C38.459 27.9608 38.4803 27.9077 38.4803 27.8428C38.4803 27.7779 38.4963 27.7249 38.5159 27.7249C38.5548 27.7249 38.661 27.4483 38.7016 27.2413C38.7155 27.17 38.7458 27.1116 38.7688 27.1116C38.7919 27.1116 38.8107 27.0585 38.8107 26.9936C38.8107 26.9288 38.8319 26.8757 38.8579 26.8757C38.8839 26.8757 38.9051 26.812 38.9051 26.7342C38.9051 26.6563 38.9239 26.5926 38.947 26.5926C38.97 26.5926 38.9994 26.5343 39.0125 26.4629C39.0254 26.3915 39.081 26.2167 39.1358 26.0743C39.1907 25.932 39.2356 25.7568 39.2356 25.6851C39.2356 25.6134 39.2568 25.5547 39.2828 25.5547C39.3087 25.5547 39.33 25.4804 39.33 25.3896C39.33 25.2988 39.3512 25.2245 39.3772 25.2245C39.4031 25.2245 39.4244 25.1409 39.4244 25.0386C39.4244 24.9363 39.4434 24.8409 39.4666 24.8266C39.4898 24.8122 39.5198 24.7207 39.5333 24.6233C39.5615 24.4198 39.6461 24.041 39.7106 23.8294C39.7349 23.7497 39.7548 23.5958 39.7548 23.4874C39.7548 23.379 39.7761 23.2902 39.802 23.2902C39.8295 23.2902 39.8492 23.133 39.8492 22.9128C39.8492 22.7053 39.8685 22.5354 39.892 22.5354C39.9627 22.5354 40.0002 21.6581 40 20.0115C39.9998 18.3485 39.9617 17.4403 39.8921 17.4403C39.8685 17.4403 39.8492 17.2811 39.8492 17.0865C39.8492 16.8821 39.8293 16.7327 39.802 16.7327C39.7761 16.7327 39.7548 16.6439 39.7548 16.5355C39.7548 16.4271 39.7349 16.2732 39.7106 16.1935C39.6461 15.9819 39.5615 15.6031 39.5333 15.3996C39.5198 15.3022 39.4898 15.2107 39.4666 15.1964C39.4434 15.182 39.4244 15.0866 39.4244 14.9843C39.4244 14.8821 39.4031 14.7984 39.3772 14.7984C39.3512 14.7984 39.33 14.7241 39.33 14.6333C39.33 14.5425 39.3087 14.4682 39.2828 14.4682C39.2568 14.4682 39.2356 14.4095 39.2356 14.3378C39.2356 14.2661 39.1907 14.0909 39.1358 13.9486C39.081 13.8062 39.0254 13.6314 39.0125 13.56C38.9994 13.4887 38.97 13.4303 38.947 13.4303C38.9239 13.4303 38.9051 13.3666 38.9051 13.2888C38.9051 13.2109 38.8839 13.1472 38.8579 13.1472C38.8319 13.1472 38.8107 13.0942 38.8107 13.0293C38.8107 12.9644 38.7919 12.9113 38.7688 12.9113C38.7458 12.9113 38.7155 12.853 38.7016 12.7816C38.661 12.5746 38.5548 12.298 38.5159 12.298C38.4963 12.298 38.4803 12.245 38.4803 12.1801C38.4803 12.1152 38.459 12.0622 38.4331 12.0622C38.4071 12.0622 38.3858 12.0197 38.3858 11.9678C38.3858 11.9159 38.3646 11.8734 38.3386 11.8734C38.3127 11.8734 38.2914 11.8204 38.2914 11.7555C38.2914 11.6906 38.2702 11.6376 38.2442 11.6376C38.2183 11.6376 38.197 11.5966 38.197 11.5466C38.197 11.4966 38.1652 11.4238 38.1262 11.3848C38.0873 11.3459 38.0554 11.2807 38.0554 11.2399C38.0554 11.1992 38.0342 11.1658 38.0082 11.1658C37.9822 11.1658 37.961 11.1127 37.961 11.0479C37.961 10.983 37.9398 10.9299 37.9138 10.9299C37.8878 10.9299 37.8666 10.8981 37.8666 10.8591C37.8666 10.8202 37.8453 10.7884 37.8194 10.7884C37.7934 10.7884 37.7722 10.7459 37.7722 10.694C37.7722 10.6421 37.7509 10.5997 37.725 10.5997C37.699 10.5997 37.6778 10.5572 37.6778 10.5053C37.6778 10.4534 37.6569 10.411 37.6314 10.411C37.606 10.411 37.5718 10.3579 37.5555 10.293C37.5393 10.2282 37.507 10.1751 37.4838 10.1751C37.4607 10.1751 37.4417 10.1326 37.4417 10.0807C37.4417 10.0288 37.4205 9.98637 37.3945 9.98637C37.3686 9.98637 37.3473 9.95453 37.3473 9.91561C37.3473 9.87669 37.3314 9.84461 37.3119 9.84433C37.2924 9.844 37.2359 9.75908 37.1863 9.65562C37.1367 9.55211 37.0783 9.46743 37.0565 9.46743C37.0347 9.46743 37.0169 9.43559 37.0169 9.39666C37.0169 9.35774 36.9956 9.3259 36.9697 9.3259C36.9437 9.3259 36.9225 9.28811 36.9225 9.24197C36.9225 9.19579 36.88 9.12743 36.8281 9.09001C36.7761 9.0526 36.7336 9.00217 36.7336 8.97792C36.7336 8.95363 36.6805 8.86423 36.6156 8.77917C36.5507 8.69411 36.4976 8.60659 36.4976 8.58461C36.4976 8.56267 36.4551 8.51413 36.4032 8.47672C36.3513 8.4393 36.3088 8.37991 36.3088 8.34471C36.3088 8.30952 36.2464 8.21838 36.1701 8.14218C36.0939 8.06599 36.0181 7.96145 36.0018 7.90993C35.9854 7.85842 35.9522 7.81624 35.928 7.81624C35.9038 7.81624 35.8839 7.79407 35.8839 7.76694C35.8839 7.73981 35.8361 7.6657 35.7777 7.60234C35.5099 7.31159 35.4591 7.25172 35.4591 7.22662C35.4591 7.21186 35.3901 7.12944 35.3057 7.04348C35.1134 6.8476 34.9398 6.64333 34.9398 6.61295C34.9398 6.57266 33.3368 4.98563 33.2961 4.98563C33.2748 4.98563 33.1575 4.8901 33.0356 4.77333C32.9137 4.65657 32.8027 4.56104 32.789 4.56104C32.7753 4.56104 32.7121 4.51329 32.6487 4.45489C32.345 4.17541 32.2963 4.13645 32.2508 4.13645C32.2239 4.13645 32.2019 4.11663 32.2019 4.09243C32.2019 4.06823 32.1597 4.03506 32.1081 4.01869C32.0566 4.00237 31.952 3.9266 31.8757 3.85041C31.7995 3.77422 31.7083 3.71185 31.6731 3.71185C31.6379 3.71185 31.5784 3.6694 31.541 3.6175C31.5036 3.56561 31.4458 3.52315 31.4126 3.52315C31.3794 3.52315 31.3518 3.5072 31.3513 3.48776C31.3508 3.46833 31.245 3.38869 31.1161 3.31085C30.9873 3.23301 30.8815 3.15337 30.881 3.13394C30.8805 3.1145 30.8376 3.09856 30.7857 3.09856C30.7338 3.09856 30.6913 3.07733 30.6913 3.05138C30.6913 3.02543 30.6612 3.0042 30.6244 3.0042C30.5876 3.0042 30.5505 2.98826 30.5418 2.96882C30.5192 2.91792 30.1359 2.67396 30.0786 2.67396C30.0521 2.67396 30.0304 2.65273 30.0304 2.62679C30.0304 2.60084 29.9879 2.57961 29.936 2.57961C29.8841 2.57961 29.8416 2.55838 29.8416 2.53243C29.8416 2.50649 29.8112 2.48526 29.7741 2.48526C29.7371 2.48526 29.6786 2.4586 29.6443 2.426C29.61 2.39345 29.4757 2.31382 29.3459 2.24909C29.2161 2.18436 29.1028 2.11548 29.0942 2.09605C29.0855 2.07661 29.0491 2.06066 29.0132 2.06066C28.9773 2.06066 28.8529 2.00759 28.7366 1.94272C28.6204 1.87785 28.4922 1.82478 28.4518 1.82478C28.4113 1.82478 28.3782 1.80355 28.3782 1.7776C28.3782 1.75166 28.3251 1.73043 28.2602 1.73043C28.1953 1.73043 28.1422 1.7092 28.1422 1.68325C28.1422 1.6573 28.0997 1.63607 28.0478 1.63607C27.9958 1.63607 27.9534 1.61484 27.9534 1.5889C27.9534 1.56295 27.9003 1.54172 27.8353 1.54172C27.7704 1.54172 27.7173 1.52049 27.7173 1.49454C27.7173 1.4686 27.6881 1.44737 27.6524 1.44737C27.6167 1.44737 27.4674 1.39429 27.3206 1.32942C27.1738 1.26456 27.0119 1.21148 26.9607 1.21148C26.9095 1.21148 26.8676 1.19025 26.8676 1.1643C26.8676 1.13836 26.8039 1.11713 26.726 1.11713C26.6481 1.11713 26.5844 1.0983 26.5844 1.07528C26.5844 1.05231 26.526 1.02273 26.4546 1.00961C26.3832 0.996449 26.1973 0.940403 26.0415 0.885065C25.5837 0.722305 25.4755 0.692536 25.3419 0.692536C25.2724 0.692536 25.2154 0.671307 25.2154 0.645359C25.2154 0.619412 25.1453 0.598183 25.0596 0.598183C24.974 0.598183 24.8837 0.579123 24.859 0.555818C24.8344 0.53256 24.7292 0.502083 24.6253 0.488166C24.3359 0.44934 23.9266 0.357109 23.8353 0.310121C23.7902 0.28691 23.6574 0.267945 23.5403 0.267945C23.4231 0.267945 23.3272 0.246715 23.3272 0.220768C23.3272 0.1935 23.1777 0.173591 22.9731 0.173591C22.7784 0.173591 22.6191 0.153729 22.6191 0.129433C22.6191 0.068009 21.8689 0.0324851 20.0228 0.00653779C19.0189 -0.00756809 18.4155 0.00139572 18.3706 0.03107ZM18.6774 3.38237C18.5736 3.40492 18.3346 3.42459 18.1463 3.42606C17.9515 3.42761 17.8041 3.44913 17.8041 3.47597C17.8041 3.50291 17.6625 3.52315 17.4737 3.52315C17.2848 3.52315 17.1432 3.54339 17.1432 3.57032C17.1432 3.59627 17.0277 3.6175 16.8864 3.6175C16.7451 3.6175 16.6178 3.63647 16.6034 3.65968C16.5891 3.68289 16.4975 3.71237 16.4 3.72525C16.3025 3.73808 16.0953 3.7847 15.9395 3.82885C15.7837 3.87301 15.5766 3.92005 15.4792 3.9334C15.3819 3.94675 15.3022 3.97666 15.3022 3.99987C15.3022 4.02308 15.2278 4.04209 15.137 4.04209C15.0461 4.04209 14.9718 4.06332 14.9718 4.08927C14.9718 4.11522 14.908 4.13645 14.8301 4.13645C14.7522 4.13645 14.6885 4.15768 14.6885 4.18362C14.6885 4.20957 14.6467 4.2308 14.5957 4.2308C14.512 4.2308 14.2826 4.31463 14.0637 4.42526C14.0186 4.44805 13.9496 4.46668 13.9103 4.46668C13.871 4.46668 13.8388 4.48791 13.8388 4.51386C13.8388 4.53981 13.7645 4.56104 13.6736 4.56104C13.5827 4.56104 13.5084 4.58227 13.5084 4.60821C13.5084 4.63416 13.4676 4.65539 13.4179 4.65539C13.3681 4.65539 13.3204 4.67134 13.3117 4.69077C13.2856 4.74941 12.9879 4.89128 12.8909 4.89128C12.8411 4.89128 12.8003 4.91251 12.8003 4.93845C12.8003 4.9644 12.7684 4.98563 12.7295 4.98563C12.6905 4.98563 12.6587 5.00686 12.6587 5.03281C12.6587 5.05875 12.5949 5.07998 12.5171 5.07998C12.4392 5.07998 12.3754 5.09862 12.3754 5.12136C12.3754 5.14414 12.2586 5.22373 12.1159 5.29827C11.9732 5.37281 11.8564 5.44971 11.8563 5.46919C11.8562 5.48868 11.8137 5.50457 11.7618 5.50457C11.7098 5.50457 11.6673 5.52156 11.6673 5.54227C11.6673 5.56303 11.593 5.60685 11.5021 5.63969C11.4113 5.67252 11.3369 5.71442 11.3369 5.73277C11.3369 5.75117 11.2626 5.80618 11.1717 5.8551C11.0808 5.90402 11.0065 5.96191 11.0065 5.98375C11.0065 6.00564 10.964 6.02352 10.9121 6.02352C10.8601 6.02352 10.8176 6.04475 10.8176 6.0707C10.8176 6.09664 10.7911 6.1183 10.7586 6.11877C10.7262 6.11929 10.6149 6.19359 10.5113 6.28389C10.4078 6.37423 10.2962 6.44811 10.2635 6.44811C10.2307 6.44811 10.204 6.46934 10.204 6.49529C10.204 6.52124 10.1818 6.54247 10.1546 6.54247C10.1275 6.54247 10.0541 6.59021 9.99168 6.64861C9.82207 6.80708 9.73904 6.8727 9.70816 6.8727C9.69292 6.8727 9.63094 6.92045 9.57046 6.97885C9.51004 7.03726 9.40147 7.12746 9.32924 7.17935C9.25702 7.23125 9.05786 7.40608 8.88664 7.5679C8.71543 7.72972 8.56163 7.86238 8.54482 7.86276C8.50522 7.86361 7.84401 8.52413 7.84268 8.56413C7.84212 8.58093 7.67222 8.77511 7.46509 8.99566C7.25795 9.21621 7.08843 9.41162 7.08843 9.42992C7.08838 9.44818 7.03528 9.51621 6.97037 9.58108C6.90546 9.64595 6.85235 9.71157 6.85235 9.7269C6.85235 9.74223 6.80453 9.80588 6.74614 9.86829C6.56907 10.0576 6.52191 10.1217 6.52191 10.1731C6.52191 10.2001 6.50067 10.2223 6.47471 10.2223C6.44874 10.2223 6.4275 10.249 6.4275 10.2817C6.4275 10.3144 6.35358 10.4259 6.26318 10.5294C6.17283 10.6329 6.09848 10.7442 6.09796 10.7766C6.09749 10.809 6.07582 10.8356 6.04985 10.8356C6.02389 10.8356 6.00265 10.878 6.00265 10.9299C6.00265 10.9818 5.98476 11.0243 5.96285 11.0243C5.941 11.0243 5.88308 11.0986 5.83412 11.1894C5.78517 11.2802 5.73013 11.3545 5.71172 11.3545C5.69336 11.3545 5.65144 11.4288 5.61858 11.5196C5.58573 11.6104 5.54187 11.6847 5.5211 11.6847C5.50038 11.6847 5.48338 11.7272 5.48338 11.7791C5.48338 11.831 5.46748 11.8737 5.44798 11.874C5.42848 11.8743 5.37231 11.9585 5.32312 12.0611C5.27393 12.1638 5.1943 12.29 5.1461 12.3417C5.09795 12.3933 5.05853 12.479 5.05853 12.5319C5.05853 12.5849 5.03729 12.6283 5.01133 12.6283C4.98536 12.6283 4.96412 12.6707 4.96412 12.7226C4.96412 12.7745 4.94288 12.817 4.91691 12.817C4.89095 12.817 4.86971 12.8481 4.86971 12.8861C4.86971 12.9714 4.71761 13.3065 4.66908 13.3281C4.64963 13.3367 4.63368 13.3845 4.63368 13.4342C4.63368 13.4839 4.61244 13.5246 4.58647 13.5246C4.56051 13.5246 4.53927 13.5989 4.53927 13.6898C4.53927 13.7806 4.51802 13.8549 4.49206 13.8549C4.4661 13.8549 4.44486 13.887 4.44486 13.9263C4.44486 13.9656 4.42578 14.0346 4.40251 14.0796C4.37919 14.1247 4.32391 14.2571 4.27964 14.3738C4.23536 14.4906 4.18008 14.623 4.15676 14.668C4.13349 14.7131 4.11442 14.8033 4.11442 14.8685C4.11442 14.9338 4.09317 14.9871 4.06721 14.9871C4.04125 14.9871 4.02 15.0614 4.02 15.1522C4.02 15.2431 3.99876 15.3174 3.9728 15.3174C3.94683 15.3174 3.92559 15.3881 3.92559 15.4746C3.92559 15.5611 3.91101 15.6465 3.89316 15.6643C3.84657 15.7108 3.69551 16.3082 3.6923 16.4586C3.69079 16.5284 3.66832 16.5987 3.64236 16.6147C3.61639 16.6308 3.59515 16.7594 3.59515 16.9006C3.59515 17.0418 3.57391 17.1573 3.54795 17.1573C3.52099 17.1573 3.50074 17.2988 3.50074 17.4875C3.50074 17.6691 3.48256 17.8177 3.46033 17.8177C3.39292 17.8177 3.3417 18.765 3.3417 20.0115C3.3417 21.2579 3.39292 22.2052 3.46033 22.2052C3.48256 22.2052 3.50074 22.3538 3.50074 22.5354C3.50074 22.7241 3.52099 22.8657 3.54795 22.8657C3.57391 22.8657 3.59515 22.9811 3.59515 23.1223C3.59515 23.2635 3.61639 23.3921 3.64236 23.4082C3.66832 23.4242 3.68956 23.4894 3.68956 23.5531C3.68956 23.6168 3.73483 23.8225 3.79011 24.0103C3.84544 24.1981 3.90076 24.4314 3.91308 24.5286C3.9254 24.626 3.95453 24.7055 3.97775 24.7055C4.00098 24.7055 4.02 24.7799 4.02 24.8707C4.02 24.9615 4.04125 25.0358 4.06721 25.0358C4.09317 25.0358 4.11442 25.0995 4.11442 25.1773C4.11442 25.2552 4.13566 25.3188 4.16162 25.3188C4.18758 25.3188 4.20883 25.3606 4.20883 25.4116C4.20883 25.4952 4.29271 25.7245 4.40341 25.9433C4.42621 25.9883 4.44486 26.0574 4.44486 26.0966C4.44486 26.1359 4.4661 26.168 4.49206 26.168C4.51802 26.168 4.53927 26.2423 4.53927 26.3332C4.53927 26.424 4.56051 26.4983 4.58647 26.4983C4.61244 26.4983 4.63368 26.5389 4.63368 26.5887C4.63368 26.6384 4.64963 26.6862 4.66908 26.6949C4.71761 26.7164 4.86971 27.0515 4.86971 27.1368C4.86971 27.1748 4.89095 27.2059 4.91691 27.2059C4.94288 27.2059 4.96412 27.2484 4.96412 27.3003C4.96412 27.3522 4.98536 27.3946 5.01133 27.3946C5.03729 27.3946 5.05853 27.4477 5.05853 27.5126C5.05853 27.5774 5.07718 27.6305 5.09993 27.6305C5.12273 27.6305 5.20237 27.7472 5.27695 27.8899C5.35154 28.0325 5.42848 28.1493 5.44798 28.1494C5.46748 28.1494 5.48338 28.1919 5.48338 28.2438C5.48338 28.2957 5.50038 28.3382 5.5211 28.3382C5.54187 28.3382 5.58573 28.4125 5.61858 28.5033C5.65144 28.5941 5.69336 28.6684 5.71172 28.6684C5.73013 28.6684 5.78517 28.7427 5.83412 28.8335C5.88308 28.9243 5.941 28.9986 5.96285 28.9986C5.98476 28.9986 6.00265 29.0411 6.00265 29.093C6.00265 29.1449 6.02389 29.1874 6.04985 29.1874C6.07582 29.1874 6.09749 29.2139 6.09796 29.2463C6.09848 29.2788 6.17283 29.39 6.26318 29.4935C6.35358 29.597 6.4275 29.7085 6.4275 29.7412C6.4275 29.7739 6.44874 29.8006 6.47471 29.8006C6.50067 29.8006 6.52191 29.8228 6.52191 29.8499C6.52191 29.8771 6.56969 29.9504 6.62813 30.0128C6.78669 30.1823 6.85235 30.2653 6.85235 30.2961C6.85235 30.3114 6.90013 30.3738 6.95857 30.4349C7.01701 30.496 7.11085 30.6065 7.16717 30.6804C7.22349 30.7544 7.39815 30.9529 7.5553 31.1216C7.71249 31.2903 7.84165 31.4415 7.84235 31.4577C7.84405 31.4959 8.4405 32.0983 8.49771 32.1197C8.52165 32.1286 8.72609 32.3057 8.95212 32.5133C9.17814 32.7209 9.39826 32.9103 9.44126 32.9341C9.48427 32.958 9.55385 33.0164 9.59581 33.0639C9.63783 33.1114 9.6865 33.1502 9.70406 33.1502C9.73885 33.1502 9.81702 33.2111 9.99168 33.3743C10.0541 33.4327 10.1275 33.4804 10.1546 33.4804C10.1818 33.4804 10.204 33.5017 10.204 33.5276C10.204 33.5536 10.2358 33.5748 10.2747 33.5748C10.3135 33.5748 10.4242 33.6491 10.5205 33.7399C10.6169 33.8307 10.7231 33.905 10.7567 33.905C10.7902 33.905 10.8176 33.9263 10.8176 33.9522C10.8176 33.9782 10.8601 33.9994 10.9121 33.9994C10.964 33.9994 11.0065 34.0173 11.0065 34.0392C11.0065 34.061 11.0808 34.1189 11.1717 34.1678C11.2626 34.2167 11.3369 34.2717 11.3369 34.2901C11.3369 34.3085 11.4113 34.3504 11.5021 34.3832C11.593 34.4161 11.6673 34.4599 11.6673 34.4806C11.6673 34.5013 11.7098 34.5183 11.7618 34.5183C11.8137 34.5183 11.8562 34.5396 11.8562 34.5655C11.8562 34.5915 11.8778 34.6127 11.9043 34.6127C11.9308 34.6127 12.0366 34.6658 12.1394 34.7306C12.2422 34.7955 12.3586 34.8486 12.3981 34.8486C12.4376 34.8486 12.4698 34.8698 12.4698 34.8957C12.4698 34.9217 12.5123 34.9429 12.5643 34.9429C12.6162 34.9429 12.659 34.9588 12.6594 34.9783C12.6598 34.9978 12.8081 35.0774 12.9891 35.1552C13.1701 35.2331 13.3185 35.3127 13.3188 35.3321C13.3192 35.3516 13.362 35.3675 13.414 35.3675C13.4659 35.3675 13.5084 35.3887 13.5084 35.4147C13.5084 35.4406 13.5827 35.4619 13.6736 35.4619C13.7645 35.4619 13.8388 35.4831 13.8388 35.509C13.8388 35.535 13.871 35.5562 13.9103 35.5562C13.9496 35.5562 14.0186 35.5749 14.0637 35.5976C14.2826 35.7083 14.512 35.7921 14.5957 35.7921C14.6467 35.7921 14.6885 35.8133 14.6885 35.8393C14.6885 35.8652 14.7522 35.8865 14.8301 35.8865C14.908 35.8865 14.9718 35.9077 14.9718 35.9336C14.9718 35.9596 15.0461 35.9808 15.137 35.9808C15.2278 35.9808 15.3022 35.9998 15.3022 36.023C15.3022 36.0463 15.3818 36.0757 15.4792 36.0886C15.5766 36.1014 15.7837 36.148 15.9395 36.1922C16.0953 36.2363 16.3025 36.2834 16.4 36.2967C16.4975 36.3101 16.5891 36.34 16.6034 36.3632C16.6178 36.3864 16.7557 36.4054 16.91 36.4054C17.0655 36.4054 17.1904 36.4264 17.1904 36.4526C17.1904 36.4792 17.3242 36.4998 17.4973 36.4998C17.666 36.4998 17.8041 36.5178 17.8041 36.5399C17.8041 36.606 18.7944 36.6604 19.9992 36.6604C21.2039 36.6604 22.1942 36.606 22.1942 36.5399C22.1942 36.5178 22.3536 36.4998 22.5483 36.4998C22.7528 36.4998 22.9023 36.4799 22.9023 36.4526C22.9023 36.4266 23.0073 36.4054 23.1356 36.4054C23.2639 36.4054 23.3819 36.3842 23.398 36.3582C23.414 36.3323 23.4793 36.3111 23.543 36.3111C23.6067 36.3111 23.8126 36.2658 24.0005 36.2106C24.1884 36.1553 24.4218 36.1 24.5191 36.0877C24.6165 36.0754 24.6962 36.0463 24.6962 36.023C24.6962 35.9998 24.7705 35.9808 24.8614 35.9808C24.9522 35.9808 25.0266 35.9596 25.0266 35.9336C25.0266 35.9077 25.08 35.8865 25.1453 35.8865C25.2105 35.8865 25.3008 35.8674 25.3459 35.8441C25.391 35.8208 25.5234 35.7656 25.6403 35.7213C25.7571 35.6771 25.8896 35.6218 25.9346 35.5985C25.9797 35.5753 26.0488 35.5562 26.0881 35.5562C26.1274 35.5562 26.1595 35.535 26.1595 35.509C26.1595 35.4831 26.2339 35.4619 26.3248 35.4619C26.4156 35.4619 26.49 35.4406 26.49 35.4147C26.49 35.3887 26.5307 35.3675 26.5805 35.3675C26.6302 35.3675 26.678 35.3516 26.6867 35.3321C26.7088 35.2823 27.2328 35.0373 27.3171 35.0373C27.3555 35.0373 27.3869 35.016 27.3869 34.9901C27.3869 34.9642 27.4188 34.9429 27.4577 34.9429C27.4966 34.9429 27.5285 34.9217 27.5285 34.8957C27.5285 34.8698 27.5577 34.8486 27.5934 34.8486C27.6708 34.8486 28.1118 34.6101 28.1343 34.5561C28.143 34.5353 28.1908 34.5183 28.2405 34.5183C28.2903 34.5183 28.331 34.5013 28.331 34.4806C28.331 34.4599 28.4054 34.4161 28.4962 34.3832C28.5871 34.3504 28.6614 34.3085 28.6614 34.2901C28.6614 34.2717 28.7358 34.2167 28.8267 34.1678C28.9175 34.1189 28.9919 34.061 28.9919 34.0392C28.9919 34.0173 29.0344 33.9994 29.0863 33.9994C29.1382 33.9994 29.1807 33.9782 29.1807 33.9522C29.1807 33.9263 29.2073 33.9046 29.2397 33.9041C29.2722 33.9036 29.3835 33.8293 29.487 33.739C29.5906 33.6487 29.7021 33.5748 29.7349 33.5748C29.7676 33.5748 29.7944 33.5536 29.7944 33.5276C29.7944 33.5017 29.8166 33.4804 29.8437 33.4804C29.8709 33.4804 29.9442 33.4327 30.0067 33.3743C30.1763 33.2158 30.2593 33.1502 30.2902 33.1502C30.3054 33.1502 30.3679 33.1025 30.429 33.0441C30.4902 32.9857 30.6007 32.8918 30.6747 32.8353C30.7487 32.779 30.9474 32.6039 31.1161 32.4464C31.2849 32.2888 31.4363 32.1598 31.4525 32.1597C31.4987 32.1594 32.0686 31.5833 32.222 31.3818C32.298 31.282 32.4838 31.0711 32.6349 30.9133C32.7859 30.7554 32.9096 30.6113 32.9097 30.593C32.9099 30.5747 32.9631 30.5067 33.028 30.4418C33.0929 30.377 33.146 30.3114 33.146 30.2961C33.146 30.2653 33.2117 30.1823 33.3702 30.0128C33.4286 29.9504 33.4764 29.8771 33.4764 29.8499C33.4764 29.8228 33.4977 29.8006 33.5236 29.8006C33.5496 29.8006 33.5709 29.7739 33.5709 29.7412C33.5709 29.7085 33.6448 29.597 33.7352 29.4935C33.8255 29.39 33.8999 29.2788 33.9004 29.2463C33.9009 29.2139 33.9225 29.1874 33.9485 29.1874C33.9745 29.1874 33.9957 29.1449 33.9957 29.093C33.9957 29.0411 34.0136 28.9986 34.0355 28.9986C34.0574 28.9986 34.1153 28.9243 34.1642 28.8335C34.2132 28.7427 34.2682 28.6684 34.2866 28.6684C34.305 28.6684 34.3469 28.5941 34.3798 28.5033C34.4126 28.4125 34.4565 28.3382 34.4773 28.3382C34.498 28.3382 34.515 28.2957 34.515 28.2438C34.515 28.1919 34.5362 28.1495 34.5622 28.1495C34.5881 28.1495 34.6094 28.1278 34.6094 28.1013C34.6094 28.0749 34.6625 27.9691 34.7274 27.8664C34.7923 27.7636 34.8454 27.6473 34.8454 27.6079C34.8454 27.5684 34.8667 27.5362 34.8926 27.5362C34.9186 27.5362 34.9398 27.5043 34.9398 27.4654C34.9398 27.4265 34.9611 27.3946 34.987 27.3946C35.013 27.3946 35.0342 27.3633 35.0342 27.3249C35.0342 27.2406 35.2794 26.717 35.3293 26.6949C35.3488 26.6862 35.3647 26.6384 35.3647 26.5887C35.3647 26.539 35.3859 26.4983 35.4119 26.4983C35.4378 26.4983 35.4591 26.424 35.4591 26.3332C35.4591 26.2423 35.4803 26.168 35.5063 26.168C35.5323 26.168 35.5535 26.1359 35.5535 26.0966C35.5535 26.0574 35.5721 25.9883 35.5949 25.9433C35.7056 25.7245 35.7895 25.4952 35.7895 25.4116C35.7895 25.3606 35.8108 25.3188 35.8367 25.3188C35.8627 25.3188 35.8839 25.2552 35.8839 25.1773C35.8839 25.0995 35.9052 25.0358 35.9311 25.0358C35.9571 25.0358 35.9783 24.9615 35.9783 24.8707C35.9783 24.7799 35.9974 24.7055 36.0206 24.7055C36.0438 24.7055 36.0738 24.626 36.0871 24.5286C36.1005 24.4314 36.1475 24.2243 36.1917 24.0687C36.2359 23.913 36.2825 23.7059 36.2954 23.6084C36.3083 23.5109 36.3378 23.4195 36.361 23.4051C36.3842 23.3908 36.4032 23.2635 36.4032 23.1223C36.4032 22.9811 36.4244 22.8657 36.4504 22.8657C36.4774 22.8657 36.4976 22.7241 36.4976 22.5354C36.4976 22.3538 36.5156 22.2052 36.5376 22.2052C36.6033 22.2052 36.66 21.1706 36.6592 19.9879C36.6583 18.8019 36.6033 17.8177 36.5377 17.8177C36.5157 17.8177 36.4976 17.6691 36.4976 17.4875C36.4976 17.2988 36.4774 17.1573 36.4504 17.1573C36.4244 17.1573 36.4032 17.0418 36.4032 16.9006C36.4032 16.7594 36.382 16.6308 36.356 16.6147C36.33 16.5987 36.3088 16.5335 36.3088 16.4698C36.3088 16.4062 36.2635 16.2004 36.2082 16.0126C36.1529 15.8248 36.0976 15.5916 36.0853 15.4943C36.073 15.397 36.0438 15.3174 36.0206 15.3174C35.9974 15.3174 35.9783 15.2431 35.9783 15.1522C35.9783 15.0614 35.9571 14.9871 35.9311 14.9871C35.9052 14.9871 35.8839 14.9234 35.8839 14.8456C35.8839 14.7677 35.8627 14.7041 35.8367 14.7041C35.8108 14.7041 35.7895 14.6623 35.7895 14.6113C35.7895 14.5277 35.7056 14.2984 35.5949 14.0796C35.5721 14.0346 35.5535 13.9656 35.5535 13.9263C35.5535 13.887 35.5323 13.8549 35.5063 13.8549C35.4803 13.8549 35.4591 13.7806 35.4591 13.6898C35.4591 13.5989 35.4378 13.5246 35.4119 13.5246C35.3859 13.5246 35.3647 13.4839 35.3647 13.4342C35.3647 13.3845 35.3488 13.3367 35.3293 13.3281C35.2794 13.3059 35.0342 12.7823 35.0342 12.698C35.0342 12.6597 35.013 12.6283 34.987 12.6283C34.9611 12.6283 34.9398 12.5964 34.9398 12.5575C34.9398 12.5186 34.9186 12.4867 34.8926 12.4867C34.8667 12.4867 34.8454 12.4576 34.8454 12.4219C34.8454 12.3446 34.6068 11.9038 34.5528 11.8813C34.532 11.8726 34.515 11.8249 34.515 11.7752C34.515 11.7255 34.498 11.6847 34.4773 11.6847C34.4565 11.6847 34.4126 11.6104 34.3798 11.5196C34.3469 11.4288 34.305 11.3545 34.2866 11.3545C34.2682 11.3545 34.2132 11.2802 34.1642 11.1894C34.1153 11.0986 34.0574 11.0243 34.0355 11.0243C34.0136 11.0243 33.9957 10.9818 33.9957 10.9299C33.9957 10.878 33.9745 10.8356 33.9485 10.8356C33.9225 10.8356 33.9009 10.809 33.9004 10.7766C33.8999 10.7442 33.8255 10.6329 33.7352 10.5294C33.6448 10.4259 33.5709 10.3144 33.5709 10.2817C33.5709 10.249 33.5496 10.2223 33.5236 10.2223C33.4977 10.2223 33.4764 10.2001 33.4764 10.1731C33.4764 10.1217 33.4293 10.0576 33.2522 9.86829C33.1938 9.80588 33.146 9.74223 33.146 9.7269C33.146 9.71157 33.0982 9.64906 33.0398 9.58801C32.9814 9.52692 32.8871 9.41643 32.8303 9.34246C32.7735 9.26849 32.6388 9.11242 32.531 8.99566C32.4231 8.8789 32.2784 8.71052 32.2093 8.6215C32.0649 8.4352 31.5618 7.9355 31.3667 7.78444C31.2938 7.72807 31.0961 7.55299 30.9273 7.39547C30.7586 7.2379 30.6055 7.10892 30.5872 7.10878C30.5689 7.10868 30.5009 7.05551 30.436 6.99065C30.3711 6.92578 30.3054 6.8727 30.29 6.8727C30.2747 6.8727 30.211 6.82496 30.1486 6.76656C29.9592 6.58959 29.895 6.54247 29.8436 6.54247C29.8165 6.54247 29.7944 6.52124 29.7944 6.49529C29.7944 6.46934 29.7676 6.44811 29.7349 6.44811C29.7021 6.44811 29.5906 6.37423 29.487 6.28389C29.3835 6.19359 29.2722 6.11929 29.2397 6.11877C29.2073 6.1183 29.1807 6.09664 29.1807 6.0707C29.1807 6.04475 29.1382 6.02352 29.0863 6.02352C29.0344 6.02352 28.9919 6.00564 28.9919 5.98375C28.9919 5.96191 28.9175 5.90402 28.8267 5.8551C28.7358 5.80618 28.6614 5.75117 28.6614 5.73277C28.6614 5.71442 28.5871 5.67252 28.4962 5.63969C28.4054 5.60685 28.331 5.56303 28.331 5.54227C28.331 5.52156 28.2885 5.50457 28.2366 5.50457C28.1847 5.50457 28.1422 5.48334 28.1422 5.4574C28.1422 5.43145 28.1205 5.41022 28.094 5.41022C28.0367 5.41022 27.6534 5.16627 27.6308 5.11537C27.6221 5.09593 27.5637 5.07998 27.501 5.07998C27.4382 5.07998 27.3869 5.05875 27.3869 5.03281C27.3869 5.00686 27.3444 4.98563 27.2925 4.98563C27.2406 4.98563 27.1981 4.9644 27.1981 4.93845C27.1981 4.91251 27.1669 4.89128 27.1289 4.89128C27.0435 4.89128 26.7082 4.73927 26.6867 4.69077C26.678 4.67134 26.6302 4.65539 26.5805 4.65539C26.5307 4.65539 26.49 4.63416 26.49 4.60821C26.49 4.58227 26.4156 4.56104 26.3248 4.56104C26.2339 4.56104 26.1595 4.53981 26.1595 4.51386C26.1595 4.48791 26.1274 4.46668 26.0881 4.46668C26.0488 4.46668 25.9797 4.44762 25.9346 4.42437C25.8896 4.40106 25.7571 4.34582 25.6403 4.30156C25.5234 4.25731 25.391 4.20207 25.3459 4.17876C25.3008 4.15551 25.2105 4.13645 25.1453 4.13645C25.08 4.13645 25.0266 4.11522 25.0266 4.08927C25.0266 4.06332 24.9522 4.04209 24.8614 4.04209C24.7705 4.04209 24.6962 4.02086 24.6962 3.99492C24.6962 3.96897 24.6253 3.94774 24.5388 3.94774C24.4522 3.94774 24.3655 3.93184 24.3461 3.9124C24.3017 3.86801 23.884 3.75908 23.634 3.72667C23.5302 3.71322 23.425 3.68312 23.4004 3.65987C23.3757 3.63656 23.2535 3.6175 23.1289 3.6175C23.0043 3.6175 22.9023 3.59627 22.9023 3.57032C22.9023 3.54306 22.7528 3.52315 22.5483 3.52315C22.3536 3.52315 22.1942 3.50347 22.1942 3.47941C22.1942 3.4554 22.0084 3.42365 21.7812 3.40893C21.0176 3.35935 18.8681 3.34095 18.6774 3.38237ZM19.5507 10.0336C19.5507 10.0595 19.487 10.0807 19.4091 10.0807C19.3312 10.0807 19.2675 10.1005 19.2675 10.1247C19.2675 10.1489 19.225 10.1822 19.1729 10.1987C19.0502 10.2376 18.5748 10.7128 18.5358 10.8354C18.5193 10.8874 18.486 10.9299 18.4618 10.9299C18.4376 10.9299 18.4178 10.9936 18.4178 11.0714C18.4178 11.1493 18.3965 11.213 18.3706 11.213C18.3426 11.213 18.3234 11.385 18.3234 11.6348C18.3234 11.8668 18.3446 12.0697 18.3706 12.0857C18.3965 12.1018 18.4178 12.1773 18.4178 12.2536C18.4178 12.33 18.4376 12.3924 18.4618 12.3924C18.486 12.3924 18.5184 12.4321 18.5338 12.4805C18.5692 12.592 18.9575 13.0057 19.0268 13.0057C19.0553 13.0057 19.0787 13.0237 19.0787 13.0457C19.0787 13.0677 19.169 13.123 19.2793 13.1685C19.3896 13.214 19.5168 13.2703 19.5619 13.2936C19.6069 13.3169 19.8037 13.3359 19.9992 13.3359C20.1946 13.3359 20.3914 13.3169 20.4365 13.2936C20.4816 13.2703 20.6087 13.214 20.7191 13.1685C20.8294 13.123 20.9197 13.0677 20.9197 13.0457C20.9197 13.0237 20.9416 13.0057 20.9685 13.0057C21.02 13.0057 21.3445 12.6988 21.3445 12.6501C21.3445 12.6344 21.3711 12.592 21.4036 12.5558C21.5564 12.3854 21.5806 12.3413 21.5806 12.232C21.5806 12.1676 21.6018 12.1018 21.6278 12.0857C21.6537 12.0697 21.675 11.8786 21.675 11.6612C21.675 11.4437 21.6537 11.2526 21.6278 11.2366C21.6018 11.2205 21.5806 11.145 21.5806 11.0687C21.5806 10.9923 21.5607 10.9299 21.5365 10.9299C21.5123 10.9299 21.4799 10.8902 21.4645 10.8418C21.4355 10.7502 21.0463 10.3166 20.9932 10.3166C20.9643 10.3166 20.9004 10.2689 20.7562 10.1397C20.72 10.1073 20.637 10.0807 20.5718 10.0807C20.5066 10.0807 20.4401 10.0595 20.424 10.0336C20.408 10.0076 20.2049 9.98637 19.9728 9.98637C19.7229 9.98637 19.5507 10.0056 19.5507 10.0336ZM19.5271 16.7327C19.5111 16.7586 19.4461 16.7798 19.3827 16.7798C19.3193 16.7798 19.2675 16.8011 19.2675 16.827C19.2675 16.853 19.225 16.8742 19.1731 16.8742C19.1211 16.8742 19.0787 16.8918 19.0787 16.9134C19.0787 16.935 19.0256 16.981 18.9606 17.0157C18.8957 17.0504 18.8426 17.0972 18.8426 17.1196C18.8426 17.1421 18.7683 17.2347 18.6774 17.3255C18.5865 17.4164 18.5122 17.5218 18.5122 17.5598C18.5122 17.5979 18.491 17.629 18.465 17.629C18.439 17.629 18.4178 17.6927 18.4178 17.7706C18.4178 17.8484 18.3965 17.9121 18.3706 17.9121C18.3394 17.9121 18.3234 19.751 18.3234 23.3346C18.3234 26.8988 18.3396 28.7672 18.3706 28.7863C18.3965 28.8024 18.4178 28.8779 18.4178 28.9543C18.4178 29.0306 18.4376 29.093 18.4618 29.093C18.486 29.093 18.5184 29.1327 18.5338 29.1811C18.5633 29.2741 18.9524 29.7063 19.0065 29.7063C19.024 29.7063 19.0678 29.7329 19.104 29.7653C19.2745 29.9181 19.3187 29.9422 19.4279 29.9422C19.4924 29.9422 19.5583 29.9634 19.5743 29.9894C19.5904 30.0153 19.7816 30.0365 19.9992 30.0365C20.2168 30.0365 20.408 30.0153 20.424 29.9894C20.4401 29.9634 20.5066 29.9422 20.5718 29.9422C20.637 29.9422 20.72 29.9157 20.7562 29.8832C20.9004 29.754 20.9643 29.7063 20.9932 29.7063C21.0463 29.7063 21.4355 29.2727 21.4645 29.1811C21.4799 29.1327 21.5123 29.093 21.5365 29.093C21.5607 29.093 21.5806 29.0306 21.5806 28.9543C21.5806 28.8779 21.6018 28.8024 21.6278 28.7863C21.6588 28.7672 21.675 26.8988 21.675 23.3346C21.675 19.751 21.659 17.9121 21.6278 17.9121C21.6018 17.9121 21.5806 17.8484 21.5806 17.7706C21.5806 17.6927 21.5593 17.629 21.5334 17.629C21.5074 17.629 21.4862 17.5979 21.4862 17.5598C21.4862 17.5218 21.4118 17.4164 21.3209 17.3255C21.2301 17.2347 21.1557 17.1421 21.1557 17.1196C21.1557 17.0972 21.1026 17.0504 21.0377 17.0157C20.9728 16.981 20.9197 16.935 20.9197 16.9134C20.9197 16.8918 20.8772 16.8742 20.8253 16.8742C20.7734 16.8742 20.7309 16.853 20.7309 16.827C20.7309 16.8011 20.679 16.7798 20.6156 16.7798C20.5522 16.7798 20.4873 16.7586 20.4712 16.7327C20.4551 16.7066 20.2435 16.6855 19.9992 16.6855C19.7548 16.6855 19.5432 16.7066 19.5271 16.7327Z" fill="black" stroke="#F0F8FF" stroke-width="1.3"/>
</g>
</g>
<defs>
<clipPath id="clip0_1070_1351">
<rect width="41" height="40" fill="white"/>
</clipPath>
</defs>
</svg>
