<svg width="40" height="40" viewBox="0 0 40 40" fill="none" xmlns="http://www.w3.org/2000/svg">
<g clip-path="url(#clip0_1070_1357)">
<mask id="mask0_1070_1357" style="mask-type:luminance" maskUnits="userSpaceOnUse" x="-1" y="-1" width="42" height="42">
<path d="M40 0H0V40H40V0Z" fill="white" stroke="white" stroke-width="0.5"/>
</mask>
<g mask="url(#mask0_1070_1357)">
<path fill-rule="evenodd" clip-rule="evenodd" d="M18.6761 0.0332215C18.6761 0.0515093 18.4894 0.0743866 18.2613 0.0840953C17.5894 0.112692 16.7992 0.212109 16.6554 0.286178C16.6217 0.303548 16.4985 0.317741 16.3818 0.317741C16.2638 0.317741 16.1695 0.333416 16.1695 0.353045C16.1695 0.372462 16.098 0.38835 16.0106 0.38835C15.9232 0.38835 15.8517 0.404237 15.8517 0.423654C15.8517 0.443071 15.7933 0.458959 15.7218 0.458959C15.5922 0.458959 15.5355 0.471809 15.1939 0.578747C15.0942 0.609956 14.971 0.635481 14.9202 0.635481C14.8694 0.635481 14.8279 0.651368 14.8279 0.670786C14.8279 0.690203 14.7643 0.70609 14.6867 0.70609C14.609 0.70609 14.5455 0.721977 14.5455 0.741395C14.5455 0.760812 14.4899 0.776699 14.4219 0.776699C14.3539 0.776699 14.2983 0.792586 14.2983 0.812004C14.2983 0.831421 14.2656 0.847308 14.2255 0.847308C14.1368 0.847308 13.7993 0.951809 13.7529 0.993645C13.7344 1.01024 13.6748 1.02383 13.6205 1.02383C13.5661 1.02383 13.5216 1.03972 13.5216 1.05914C13.5216 1.07855 13.474 1.09444 13.4157 1.09444C13.3575 1.09444 13.3098 1.11033 13.3098 1.12974C13.3098 1.14916 13.2778 1.16505 13.2387 1.16505C13.1996 1.16505 13.14 1.17899 13.1063 1.19605C12.958 1.27103 12.7737 1.34157 12.7261 1.34157C12.6976 1.34157 12.6743 1.35746 12.6743 1.37688C12.6743 1.39629 12.6346 1.41218 12.5861 1.41218C12.5375 1.41218 12.4978 1.42807 12.4978 1.44748C12.4978 1.4669 12.4501 1.48279 12.3919 1.48279C12.3336 1.48279 12.286 1.49868 12.286 1.51809C12.286 1.53751 12.2476 1.5534 12.2006 1.5534C12.1537 1.5534 12.11 1.5653 12.1035 1.57988C12.087 1.61716 11.6951 1.80053 11.6321 1.80053C11.6034 1.80053 11.5799 1.81642 11.5799 1.83583C11.5799 1.85525 11.5402 1.87114 11.4916 1.87114C11.4431 1.87114 11.4034 1.88572 11.4034 1.90351C11.4034 1.92134 11.3319 1.96321 11.2445 1.99658C11.1571 2.02994 11.0856 2.071 11.0856 2.08777C11.0856 2.10454 11.0538 2.11827 11.015 2.11827C10.9762 2.11827 10.9444 2.13416 10.9444 2.15357C10.9444 2.17299 10.9126 2.18888 10.8738 2.18888C10.835 2.18888 10.8032 2.20477 10.8032 2.22418C10.8032 2.2436 10.7648 2.25949 10.7178 2.25949C10.6709 2.25949 10.6273 2.27142 10.6208 2.28597C10.6038 2.32406 10.3172 2.50662 10.2744 2.50662C10.2545 2.50662 10.2383 2.52251 10.2383 2.54192C10.2383 2.56134 10.2078 2.57723 10.1706 2.57723C10.1334 2.57723 10.0977 2.58913 10.0912 2.60371C10.0847 2.61825 9.9881 2.67728 9.87643 2.73486C9.7648 2.79244 9.67343 2.852 9.67343 2.86725C9.67343 2.88251 9.64515 2.89497 9.61063 2.89497C9.57606 2.89497 9.52491 2.92674 9.49691 2.96558C9.46891 3.00441 9.42171 3.03622 9.39202 3.03622C9.34521 3.03626 9.28378 3.07831 9.08357 3.24731C9.06012 3.26711 9.01642 3.28332 8.98648 3.28332C8.95654 3.28332 8.93204 3.29921 8.93204 3.31862C8.93204 3.33804 8.91545 3.35393 8.89518 3.35393C8.87492 3.35393 8.8155 3.39365 8.76318 3.44219C8.71082 3.49073 8.65147 3.53045 8.63128 3.53045C8.61109 3.53045 8.57169 3.56222 8.54369 3.60106C8.51569 3.63989 8.46454 3.67167 8.42997 3.67167C8.39545 3.67167 8.36717 3.68413 8.36717 3.69935C8.36717 3.7146 8.32321 3.75301 8.26948 3.78475C8.21578 3.81649 8.1206 3.8914 8.05801 3.95124C7.99538 4.01105 7.92812 4.06002 7.90853 4.06002C7.88893 4.06002 7.8729 4.07202 7.8729 4.08671C7.8729 4.10139 7.82524 4.13447 7.76699 4.16028C7.70874 4.18605 7.66108 4.22966 7.66108 4.25716C7.66108 4.28466 7.63725 4.30715 7.60812 4.30715C7.57899 4.30715 7.55516 4.32304 7.55516 4.34245C7.55516 4.36187 7.53133 4.37776 7.50221 4.37776C7.47308 4.37776 7.44925 4.39365 7.44925 4.41306C7.44925 4.43248 7.43195 4.44837 7.4108 4.44837C7.38966 4.44837 7.30288 4.51986 7.21793 4.60724C7.13303 4.69462 7.0466 4.76611 7.02588 4.76611C7.00515 4.76611 6.88646 4.86937 6.76212 4.99559C6.63774 5.1218 6.52858 5.22507 6.51954 5.22507C6.48914 5.22507 6.2489 5.47891 6.2489 5.51103C6.2489 5.52851 6.22711 5.54281 6.20049 5.54281C6.17384 5.54281 6.01497 5.67989 5.84745 5.84745C5.67989 6.01497 5.54281 6.17384 5.54281 6.20049C5.54281 6.22711 5.52851 6.2489 5.51103 6.2489C5.47891 6.2489 5.22507 6.48914 5.22507 6.51954C5.22507 6.52858 5.1218 6.63774 4.99559 6.76212C4.86937 6.88646 4.76611 7.00515 4.76611 7.02588C4.76611 7.0466 4.69462 7.13303 4.60724 7.21793C4.51986 7.30288 4.44837 7.38966 4.44837 7.4108C4.44837 7.43195 4.43248 7.44925 4.41306 7.44925C4.39365 7.44925 4.37776 7.47308 4.37776 7.50221C4.37776 7.53133 4.36187 7.55516 4.34245 7.55516C4.32304 7.55516 4.30715 7.57899 4.30715 7.60812C4.30715 7.63725 4.29013 7.66108 4.26934 7.66108C4.21306 7.66108 4.13063 7.75403 4.13063 7.81744C4.13063 7.84794 4.11474 7.8729 4.09532 7.8729C4.0759 7.8729 4.06002 7.88893 4.06002 7.90853C4.06002 7.92812 4.01105 7.99538 3.95124 8.05801C3.8914 8.1206 3.81649 8.21578 3.78475 8.26948C3.75301 8.32321 3.7146 8.36717 3.69935 8.36717C3.68413 8.36717 3.67167 8.39545 3.67167 8.42997C3.67167 8.46454 3.63989 8.51569 3.60106 8.54369C3.56222 8.57169 3.53045 8.61109 3.53045 8.63128C3.53045 8.65147 3.49073 8.71082 3.44219 8.76318C3.39365 8.8155 3.35393 8.87492 3.35393 8.89518C3.35393 8.91545 3.33804 8.93204 3.31862 8.93204C3.29921 8.93204 3.28332 8.95654 3.28332 8.98648C3.28332 9.01642 3.26711 9.06012 3.24731 9.08357C3.07831 9.28378 3.03626 9.34521 3.03622 9.39202C3.03622 9.42171 3.00441 9.46891 2.96558 9.49691C2.92674 9.52491 2.89497 9.57606 2.89497 9.61063C2.89497 9.64515 2.88251 9.67343 2.86725 9.67343C2.852 9.67343 2.79244 9.76477 2.73486 9.87643C2.67728 9.9881 2.61829 10.0847 2.60371 10.0912C2.58916 10.0977 2.57723 10.1334 2.57723 10.1706C2.57723 10.2078 2.56134 10.2383 2.54192 10.2383C2.52251 10.2383 2.50662 10.2545 2.50662 10.2744C2.50662 10.3172 2.32406 10.6038 2.28597 10.6208C2.27142 10.6273 2.25949 10.6709 2.25949 10.7178C2.25949 10.7648 2.2436 10.8032 2.22418 10.8032C2.20477 10.8032 2.18888 10.835 2.18888 10.8738C2.18888 10.9126 2.17299 10.9444 2.15357 10.9444C2.13416 10.9444 2.11827 10.9762 2.11827 11.015C2.11827 11.0538 2.10454 11.0856 2.08777 11.0856C2.071 11.0856 2.02994 11.1571 1.99658 11.2445C1.96321 11.3319 1.92134 11.4034 1.90351 11.4034C1.88572 11.4034 1.87114 11.4431 1.87114 11.4916C1.87114 11.5402 1.85525 11.5799 1.83583 11.5799C1.81642 11.5799 1.80053 11.6034 1.80053 11.6321C1.80053 11.6951 1.61716 12.087 1.57988 12.1035C1.56533 12.11 1.5534 12.1537 1.5534 12.2006C1.5534 12.2476 1.53751 12.286 1.51809 12.286C1.49868 12.286 1.48279 12.3336 1.48279 12.3919C1.48279 12.4501 1.4669 12.4978 1.44748 12.4978C1.42807 12.4978 1.41218 12.5375 1.41218 12.5861C1.41218 12.6346 1.39629 12.6743 1.37688 12.6743C1.35746 12.6743 1.34157 12.6976 1.34157 12.7261C1.34157 12.7737 1.27103 12.958 1.19605 13.1063C1.17899 13.14 1.16505 13.1996 1.16505 13.2387C1.16505 13.2778 1.14916 13.3098 1.12974 13.3098C1.11033 13.3098 1.09444 13.3575 1.09444 13.4157C1.09444 13.474 1.07855 13.5216 1.05914 13.5216C1.03972 13.5216 1.02383 13.5661 1.02383 13.6205C1.02383 13.6748 1.01024 13.7344 0.993645 13.7529C0.951809 13.7993 0.847308 14.1368 0.847308 14.2255C0.847308 14.2656 0.831421 14.2983 0.812004 14.2983C0.792586 14.2983 0.776699 14.3539 0.776699 14.4219C0.776699 14.4899 0.760812 14.5455 0.741395 14.5455C0.721977 14.5455 0.70609 14.609 0.70609 14.6867C0.70609 14.7643 0.690203 14.8279 0.670786 14.8279C0.651368 14.8279 0.635481 14.8694 0.635481 14.9202C0.635481 14.971 0.609956 15.0942 0.578747 15.1939C0.471809 15.5355 0.458959 15.5922 0.458959 15.7218C0.458959 15.7933 0.443071 15.8517 0.423654 15.8517C0.404237 15.8517 0.38835 15.9232 0.38835 16.0106C0.38835 16.098 0.372462 16.1695 0.353045 16.1695C0.333416 16.1695 0.317741 16.2638 0.317741 16.3818C0.317741 16.4985 0.303548 16.6217 0.286178 16.6554C0.212109 16.7992 0.112692 17.5894 0.0840953 18.2613C0.0743866 18.4894 0.0515093 18.6761 0.0332215 18.6761C0.0130627 18.6761 0 19.196 0 20C0 20.804 0.0130627 21.3239 0.0332215 21.3239C0.0515093 21.3239 0.0743866 21.5106 0.0840953 21.7387C0.112692 22.4106 0.212109 23.2008 0.286178 23.3446C0.303548 23.3783 0.317741 23.5015 0.317741 23.6182C0.317741 23.7362 0.333416 23.8305 0.353045 23.8305C0.372462 23.8305 0.38835 23.902 0.38835 23.9894C0.38835 24.0768 0.404237 24.1483 0.423654 24.1483C0.443071 24.1483 0.458959 24.2067 0.458959 24.2782C0.458959 24.4078 0.471809 24.4645 0.578747 24.8061C0.609956 24.9058 0.635481 25.029 0.635481 25.0798C0.635481 25.1306 0.651368 25.1721 0.670786 25.1721C0.690203 25.1721 0.70609 25.2357 0.70609 25.3133C0.70609 25.391 0.721977 25.4545 0.741395 25.4545C0.760812 25.4545 0.776699 25.5102 0.776699 25.5781C0.776699 25.6461 0.792586 25.7017 0.812004 25.7017C0.831421 25.7017 0.847308 25.7344 0.847308 25.7745C0.847308 25.8632 0.951809 26.2007 0.993645 26.2471C1.01024 26.2656 1.02383 26.3252 1.02383 26.3795C1.02383 26.4339 1.03972 26.4784 1.05914 26.4784C1.07855 26.4784 1.09444 26.526 1.09444 26.5843C1.09444 26.6425 1.11033 26.6902 1.12974 26.6902C1.14916 26.6902 1.16505 26.7222 1.16505 26.7613C1.16505 26.8004 1.17899 26.86 1.19605 26.8937C1.27103 27.042 1.34157 27.2263 1.34157 27.2739C1.34157 27.3024 1.35746 27.3257 1.37688 27.3257C1.39629 27.3257 1.41218 27.3654 1.41218 27.4139C1.41218 27.4625 1.42807 27.5022 1.44748 27.5022C1.4669 27.5022 1.48279 27.5499 1.48279 27.6081C1.48279 27.6664 1.49868 27.714 1.51809 27.714C1.53751 27.714 1.5534 27.7524 1.5534 27.7994C1.5534 27.8463 1.56533 27.89 1.57988 27.8965C1.61716 27.913 1.80053 28.3049 1.80053 28.3679C1.80053 28.3966 1.81642 28.4201 1.83583 28.4201C1.85525 28.4201 1.87114 28.4598 1.87114 28.5084C1.87114 28.5569 1.88572 28.5966 1.90351 28.5966C1.92134 28.5966 1.96321 28.6681 1.99658 28.7555C2.02994 28.8429 2.071 28.9144 2.08777 28.9144C2.10454 28.9144 2.11827 28.9462 2.11827 28.985C2.11827 29.0238 2.13416 29.0556 2.15357 29.0556C2.17299 29.0556 2.18888 29.0874 2.18888 29.1262C2.18888 29.165 2.20477 29.1968 2.22418 29.1968C2.2436 29.1968 2.25949 29.2352 2.25949 29.2822C2.25949 29.3291 2.27142 29.3727 2.28597 29.3792C2.32406 29.3962 2.50662 29.6828 2.50662 29.7256C2.50662 29.7455 2.52251 29.7617 2.54192 29.7617C2.56134 29.7617 2.57723 29.7922 2.57723 29.8294C2.57723 29.8666 2.58916 29.9023 2.60371 29.9088C2.61829 29.9153 2.67728 30.0119 2.73486 30.1236C2.79244 30.2352 2.852 30.3266 2.86725 30.3266C2.88251 30.3266 2.89497 30.3548 2.89497 30.3894C2.89497 30.4239 2.92674 30.4751 2.96558 30.5031C3.00441 30.5311 3.03622 30.5783 3.03622 30.608C3.03626 30.6548 3.07831 30.7162 3.24731 30.9164C3.26711 30.9399 3.28332 30.9836 3.28332 31.0135C3.28332 31.0435 3.29921 31.068 3.31862 31.068C3.33804 31.068 3.35393 31.0846 3.35393 31.1048C3.35393 31.1251 3.39365 31.1845 3.44219 31.2368C3.49073 31.2892 3.53045 31.3485 3.53045 31.3687C3.53045 31.3889 3.56222 31.4283 3.60106 31.4563C3.63989 31.4843 3.67167 31.5355 3.67167 31.57C3.67167 31.6046 3.68413 31.6328 3.69935 31.6328C3.7146 31.6328 3.75301 31.6768 3.78475 31.7305C3.81649 31.7842 3.8914 31.8794 3.95124 31.942C4.01105 32.0046 4.06002 32.0719 4.06002 32.0915C4.06002 32.1111 4.07202 32.1271 4.08671 32.1271C4.10139 32.1271 4.13447 32.1748 4.16028 32.233C4.18605 32.2913 4.22966 32.3389 4.25716 32.3389C4.28466 32.3389 4.30715 32.3628 4.30715 32.3919C4.30715 32.421 4.32304 32.4448 4.34245 32.4448C4.36187 32.4448 4.37776 32.4687 4.37776 32.4978C4.37776 32.5269 4.39365 32.5508 4.41306 32.5508C4.43248 32.5508 4.44837 32.568 4.44837 32.5892C4.44837 32.6103 4.51986 32.6971 4.60724 32.7821C4.69462 32.867 4.76611 32.9534 4.76611 32.9741C4.76611 32.9948 4.86937 33.1135 4.99559 33.2379C5.1218 33.3623 5.22507 33.4714 5.22507 33.4805C5.22507 33.5109 5.47891 33.7511 5.51103 33.7511C5.52851 33.7511 5.54281 33.7729 5.54281 33.7995C5.54281 33.8627 6.13733 34.4572 6.20049 34.4572C6.22711 34.4572 6.2489 34.4715 6.2489 34.489C6.2489 34.5211 6.48914 34.7749 6.51954 34.7749C6.52858 34.7749 6.63774 34.8782 6.76212 35.0044C6.88646 35.1306 7.00515 35.2339 7.02588 35.2339C7.0466 35.2339 7.13303 35.3054 7.21793 35.3928C7.30288 35.4801 7.38966 35.5516 7.4108 35.5516C7.43195 35.5516 7.44925 35.5675 7.44925 35.5869C7.44925 35.6064 7.47308 35.6222 7.50221 35.6222C7.53133 35.6222 7.55516 35.6381 7.55516 35.6575C7.55516 35.677 7.57899 35.6929 7.60812 35.6929C7.63725 35.6929 7.66108 35.7153 7.66108 35.7428C7.66108 35.7703 7.70874 35.8139 7.76699 35.8397C7.82524 35.8655 7.8729 35.8986 7.8729 35.9133C7.8729 35.928 7.88893 35.94 7.90853 35.94C7.92812 35.94 7.99538 35.9889 8.05801 36.0488C8.1206 36.1086 8.21578 36.1835 8.26948 36.2153C8.32321 36.247 8.36717 36.2854 8.36717 36.3007C8.36717 36.3159 8.39545 36.3283 8.42997 36.3283C8.46454 36.3283 8.51569 36.3601 8.54369 36.3989C8.57169 36.4378 8.61109 36.4696 8.63128 36.4696C8.65147 36.4696 8.71082 36.5093 8.76318 36.5578C8.8155 36.6064 8.87492 36.6461 8.89518 36.6461C8.91545 36.6461 8.93204 36.662 8.93204 36.6814C8.93204 36.7008 8.95654 36.7167 8.98648 36.7167C9.01642 36.7167 9.06012 36.7329 9.08357 36.7527C9.28378 36.9217 9.34521 36.9637 9.39202 36.9638C9.42171 36.9638 9.46891 36.9956 9.49691 37.0344C9.52491 37.0733 9.57606 37.105 9.61063 37.105C9.64515 37.105 9.67343 37.1175 9.67343 37.1327C9.67343 37.148 9.76477 37.2076 9.87643 37.2651C9.9881 37.3227 10.0847 37.3817 10.0912 37.3963C10.0977 37.4108 10.1334 37.4228 10.1706 37.4228C10.2078 37.4228 10.2384 37.4347 10.2384 37.4493C10.2385 37.4638 10.3259 37.5228 10.4326 37.5804C10.5393 37.638 10.6267 37.6975 10.6267 37.7128C10.6267 37.728 10.6664 37.7405 10.7149 37.7405C10.7635 37.7405 10.8032 37.7564 10.8032 37.7758C10.8032 37.7952 10.835 37.8111 10.8738 37.8111C10.9126 37.8111 10.9444 37.827 10.9444 37.8464C10.9444 37.8658 10.9762 37.8817 11.015 37.8817C11.0538 37.8817 11.0856 37.8955 11.0856 37.9122C11.0856 37.929 11.1571 37.9701 11.2445 38.0034C11.3319 38.0368 11.4034 38.0787 11.4034 38.0965C11.4034 38.1143 11.4431 38.1289 11.4916 38.1289C11.5402 38.1289 11.5799 38.1447 11.5799 38.1642C11.5799 38.1836 11.6034 38.1995 11.6321 38.1995C11.6951 38.1995 12.087 38.3828 12.1035 38.4201C12.11 38.4347 12.1537 38.4466 12.2006 38.4466C12.2476 38.4466 12.286 38.4625 12.286 38.4819C12.286 38.5013 12.3336 38.5172 12.3919 38.5172C12.4501 38.5172 12.4978 38.5331 12.4978 38.5525C12.4978 38.5719 12.5375 38.5878 12.5861 38.5878C12.6346 38.5878 12.6743 38.6037 12.6743 38.6231C12.6743 38.6425 12.6976 38.6584 12.7261 38.6584C12.7737 38.6584 12.958 38.729 13.1063 38.804C13.14 38.821 13.1996 38.835 13.2387 38.835C13.2778 38.835 13.3098 38.8508 13.3098 38.8703C13.3098 38.8897 13.3575 38.9056 13.4157 38.9056C13.474 38.9056 13.5216 38.9214 13.5216 38.9409C13.5216 38.9603 13.5661 38.9762 13.6205 38.9762C13.6748 38.9762 13.7344 38.9898 13.7529 39.0064C13.7993 39.0482 14.1368 39.1527 14.2255 39.1527C14.2656 39.1527 14.2983 39.1686 14.2983 39.188C14.2983 39.2074 14.3539 39.2233 14.4219 39.2233C14.4899 39.2233 14.5455 39.2392 14.5455 39.2586C14.5455 39.278 14.609 39.2939 14.6867 39.2939C14.7643 39.2939 14.8279 39.3098 14.8279 39.3292C14.8279 39.3486 14.8694 39.3645 14.9202 39.3645C14.971 39.3645 15.0942 39.39 15.1939 39.4213C15.5355 39.5282 15.5922 39.541 15.7218 39.541C15.7933 39.541 15.8517 39.5569 15.8517 39.5763C15.8517 39.5958 15.9232 39.6117 16.0106 39.6117C16.098 39.6117 16.1695 39.6275 16.1695 39.647C16.1695 39.6666 16.2638 39.6823 16.3818 39.6823C16.4985 39.6823 16.6217 39.6965 16.6554 39.7138C16.7992 39.7879 17.5894 39.8873 18.2613 39.9159C18.4894 39.9256 18.6761 39.9485 18.6761 39.9668C18.6761 39.9869 19.196 40 20 40C20.804 40 21.3239 39.9869 21.3239 39.9668C21.3239 39.9485 21.5106 39.9256 21.7387 39.9159C22.4106 39.8873 23.2008 39.7879 23.3446 39.7138C23.3783 39.6965 23.5015 39.6823 23.6182 39.6823C23.7362 39.6823 23.8305 39.6666 23.8305 39.647C23.8305 39.6275 23.902 39.6117 23.9894 39.6117C24.0768 39.6117 24.1483 39.5958 24.1483 39.5763C24.1483 39.5569 24.2067 39.541 24.2782 39.541C24.4078 39.541 24.4645 39.5282 24.8061 39.4213C24.9058 39.39 25.029 39.3645 25.0798 39.3645C25.1306 39.3645 25.1721 39.3486 25.1721 39.3292C25.1721 39.3098 25.2357 39.2939 25.3133 39.2939C25.391 39.2939 25.4545 39.278 25.4545 39.2586C25.4545 39.2392 25.5102 39.2233 25.5781 39.2233C25.6461 39.2233 25.7017 39.2074 25.7017 39.188C25.7017 39.1686 25.7344 39.1527 25.7745 39.1527C25.8632 39.1527 26.2007 39.0482 26.2471 39.0064C26.2656 38.9898 26.3252 38.9762 26.3795 38.9762C26.4339 38.9762 26.4784 38.9603 26.4784 38.9409C26.4784 38.9214 26.526 38.9056 26.5843 38.9056C26.6425 38.9056 26.6902 38.8897 26.6902 38.8703C26.6902 38.8508 26.7222 38.835 26.7613 38.835C26.8004 38.835 26.86 38.821 26.8937 38.804C27.042 38.729 27.2263 38.6584 27.2739 38.6584C27.3024 38.6584 27.3257 38.6425 27.3257 38.6231C27.3257 38.6037 27.3654 38.5878 27.4139 38.5878C27.4625 38.5878 27.5022 38.5719 27.5022 38.5525C27.5022 38.5331 27.5499 38.5172 27.6081 38.5172C27.6664 38.5172 27.714 38.5013 27.714 38.4819C27.714 38.4625 27.7524 38.4466 27.7994 38.4466C27.8463 38.4466 27.89 38.4347 27.8965 38.4201C27.913 38.3828 28.3049 38.1995 28.3679 38.1995C28.3966 38.1995 28.4201 38.1836 28.4201 38.1642C28.4201 38.1447 28.4598 38.1289 28.5084 38.1289C28.5569 38.1289 28.5966 38.1143 28.5966 38.0965C28.5966 38.0787 28.6681 38.0368 28.7555 38.0034C28.8429 37.9701 28.9144 37.929 28.9144 37.9122C28.9144 37.8955 28.9462 37.8817 28.985 37.8817C29.0238 37.8817 29.0556 37.8658 29.0556 37.8464C29.0556 37.827 29.0874 37.8111 29.1262 37.8111C29.165 37.8111 29.1968 37.7952 29.1968 37.7758C29.1968 37.7564 29.2365 37.7405 29.2851 37.7405C29.3336 37.7405 29.3733 37.728 29.3733 37.7128C29.3733 37.6975 29.4607 37.638 29.5674 37.5804C29.6741 37.5228 29.7615 37.4638 29.7616 37.4493C29.7616 37.4347 29.7921 37.4228 29.8294 37.4228C29.8666 37.4228 29.9023 37.4108 29.9088 37.3963C29.9153 37.3817 30.0119 37.3227 30.1236 37.2651C30.2352 37.2076 30.3266 37.148 30.3266 37.1327C30.3266 37.1175 30.3548 37.105 30.3894 37.105C30.4239 37.105 30.4751 37.0733 30.5031 37.0344C30.5311 36.9956 30.5783 36.9638 30.608 36.9638C30.6548 36.9637 30.7162 36.9217 30.9164 36.7527C30.9399 36.7329 30.9836 36.7167 31.0135 36.7167C31.0435 36.7167 31.068 36.7008 31.068 36.6814C31.068 36.662 31.0846 36.6461 31.1048 36.6461C31.1251 36.6461 31.1845 36.6064 31.2368 36.5578C31.2892 36.5093 31.3485 36.4696 31.3687 36.4696C31.3889 36.4696 31.4283 36.4378 31.4563 36.3989C31.4843 36.3601 31.5355 36.3283 31.57 36.3283C31.6046 36.3283 31.6328 36.3159 31.6328 36.3007C31.6328 36.2854 31.6768 36.247 31.7305 36.2153C31.7842 36.1835 31.8794 36.1086 31.942 36.0488C32.0046 35.9889 32.0719 35.94 32.0915 35.94C32.1111 35.94 32.1271 35.928 32.1271 35.9133C32.1271 35.8986 32.1748 35.8655 32.233 35.8397C32.2913 35.8139 32.3389 35.7703 32.3389 35.7428C32.3389 35.7153 32.3628 35.6929 32.3919 35.6929C32.421 35.6929 32.4448 35.677 32.4448 35.6575C32.4448 35.6381 32.4687 35.6222 32.4978 35.6222C32.5269 35.6222 32.5508 35.6064 32.5508 35.5869C32.5508 35.5675 32.568 35.5516 32.5892 35.5516C32.6103 35.5516 32.6971 35.4801 32.7821 35.3928C32.867 35.3054 32.9534 35.2339 32.9741 35.2339C32.9948 35.2339 33.1135 35.1306 33.2379 35.0044C33.3623 34.8782 33.4714 34.7749 33.4805 34.7749C33.5109 34.7749 33.7511 34.5211 33.7511 34.489C33.7511 34.4715 33.7729 34.4572 33.7995 34.4572C33.8627 34.4572 34.4572 33.8627 34.4572 33.7995C34.4572 33.7729 34.4715 33.7511 34.489 33.7511C34.5211 33.7511 34.7749 33.5109 34.7749 33.4805C34.7749 33.4714 34.8782 33.3623 35.0044 33.2379C35.1306 33.1135 35.2339 32.9948 35.2339 32.9741C35.2339 32.9534 35.3054 32.867 35.3928 32.7821C35.4801 32.6971 35.5516 32.6103 35.5516 32.5892C35.5516 32.568 35.5675 32.5508 35.5869 32.5508C35.6064 32.5508 35.6222 32.5269 35.6222 32.4978C35.6222 32.4687 35.6381 32.4448 35.6575 32.4448C35.677 32.4448 35.6929 32.421 35.6929 32.3919C35.6929 32.3628 35.7153 32.3389 35.7428 32.3389C35.7703 32.3389 35.8139 32.2913 35.8397 32.233C35.8655 32.1748 35.8986 32.1271 35.9133 32.1271C35.928 32.1271 35.94 32.1111 35.94 32.0915C35.94 32.0719 35.9889 32.0046 36.0488 31.942C36.1086 31.8794 36.1835 31.7842 36.2153 31.7305C36.247 31.6768 36.2854 31.6328 36.3007 31.6328C36.3159 31.6328 36.3283 31.6046 36.3283 31.57C36.3283 31.5355 36.3601 31.4843 36.3989 31.4563C36.4378 31.4283 36.4696 31.3889 36.4696 31.3687C36.4696 31.3485 36.5093 31.2892 36.5578 31.2368C36.6064 31.1845 36.6461 31.1251 36.6461 31.1048C36.6461 31.0846 36.662 31.068 36.6814 31.068C36.7008 31.068 36.7167 31.0435 36.7167 31.0135C36.7167 30.9836 36.7329 30.9399 36.7527 30.9164C36.9217 30.7162 36.9637 30.6548 36.9638 30.608C36.9638 30.5783 36.9956 30.5311 37.0344 30.5031C37.0733 30.4751 37.105 30.4239 37.105 30.3894C37.105 30.3548 37.1175 30.3266 37.1327 30.3266C37.148 30.3266 37.2076 30.2352 37.2651 30.1236C37.3227 30.0119 37.3817 29.9153 37.3963 29.9088C37.4108 29.9023 37.4228 29.8666 37.4228 29.8294C37.4228 29.7922 37.4347 29.7616 37.4493 29.7616C37.4638 29.7615 37.5228 29.6741 37.5804 29.5674C37.638 29.4607 37.6975 29.3733 37.7128 29.3733C37.728 29.3733 37.7405 29.3336 37.7405 29.2851C37.7405 29.2365 37.7564 29.1968 37.7758 29.1968C37.7952 29.1968 37.8111 29.165 37.8111 29.1262C37.8111 29.0874 37.827 29.0556 37.8464 29.0556C37.8658 29.0556 37.8817 29.0238 37.8817 28.985C37.8817 28.9462 37.8955 28.9144 37.9122 28.9144C37.929 28.9144 37.9701 28.8429 38.0034 28.7555C38.0368 28.6681 38.0787 28.5966 38.0965 28.5966C38.1143 28.5966 38.1289 28.5569 38.1289 28.5084C38.1289 28.4598 38.1447 28.4201 38.1642 28.4201C38.1836 28.4201 38.1995 28.3966 38.1995 28.3679C38.1995 28.3049 38.3828 27.913 38.4201 27.8965C38.4347 27.89 38.4466 27.8463 38.4466 27.7994C38.4466 27.7524 38.4625 27.714 38.4819 27.714C38.5013 27.714 38.5172 27.6664 38.5172 27.6081C38.5172 27.5499 38.5331 27.5022 38.5525 27.5022C38.5719 27.5022 38.5878 27.4625 38.5878 27.4139C38.5878 27.3654 38.6037 27.3257 38.6231 27.3257C38.6425 27.3257 38.6584 27.3024 38.6584 27.2739C38.6584 27.2263 38.729 27.042 38.804 26.8937C38.821 26.86 38.835 26.8004 38.835 26.7613C38.835 26.7222 38.8508 26.6902 38.8703 26.6902C38.8897 26.6902 38.9056 26.6425 38.9056 26.5843C38.9056 26.526 38.9214 26.4784 38.9409 26.4784C38.9603 26.4784 38.9762 26.4339 38.9762 26.3795C38.9762 26.3252 38.9898 26.2656 39.0064 26.2471C39.0482 26.2007 39.1527 25.8632 39.1527 25.7745C39.1527 25.7344 39.1686 25.7017 39.188 25.7017C39.2074 25.7017 39.2233 25.6461 39.2233 25.5781C39.2233 25.5102 39.2392 25.4545 39.2586 25.4545C39.278 25.4545 39.2939 25.391 39.2939 25.3133C39.2939 25.2357 39.3098 25.1721 39.3292 25.1721C39.3486 25.1721 39.3645 25.1306 39.3645 25.0798C39.3645 25.029 39.39 24.9058 39.4213 24.8061C39.5282 24.4645 39.541 24.4078 39.541 24.2782C39.541 24.2067 39.5569 24.1483 39.5763 24.1483C39.5958 24.1483 39.6117 24.0768 39.6117 23.9894C39.6117 23.902 39.6275 23.8305 39.647 23.8305C39.6666 23.8305 39.6823 23.7362 39.6823 23.6182C39.6823 23.5015 39.6965 23.3783 39.7138 23.3446C39.787 23.2025 39.8865 22.4173 39.916 21.7477C39.9294 21.446 39.947 21.3345 39.9846 21.3135C40.0609 21.2708 40.0607 18.6332 39.9845 18.6625C39.9426 18.6786 39.9305 18.6086 39.9159 18.2642C39.8874 17.5901 39.7881 16.7995 39.7138 16.6554C39.6965 16.6217 39.6823 16.4985 39.6823 16.3818C39.6823 16.2638 39.6666 16.1695 39.647 16.1695C39.6275 16.1695 39.6117 16.098 39.6117 16.0106C39.6117 15.9232 39.5958 15.8517 39.5763 15.8517C39.5569 15.8517 39.541 15.7933 39.541 15.7218C39.541 15.5922 39.5282 15.5355 39.4213 15.1939C39.39 15.0942 39.3645 14.971 39.3645 14.9202C39.3645 14.8694 39.3486 14.8279 39.3292 14.8279C39.3098 14.8279 39.2939 14.7643 39.2939 14.6867C39.2939 14.609 39.278 14.5455 39.2586 14.5455C39.2392 14.5455 39.2233 14.4899 39.2233 14.4219C39.2233 14.3539 39.2074 14.2983 39.188 14.2983C39.1686 14.2983 39.1527 14.2656 39.1527 14.2255C39.1527 14.1368 39.0482 13.7993 39.0064 13.7529C38.9898 13.7344 38.9762 13.6748 38.9762 13.6205C38.9762 13.5661 38.9603 13.5216 38.9409 13.5216C38.9214 13.5216 38.9056 13.474 38.9056 13.4157C38.9056 13.3575 38.8897 13.3098 38.8703 13.3098C38.8508 13.3098 38.835 13.2778 38.835 13.2387C38.835 13.1996 38.821 13.14 38.804 13.1063C38.729 12.958 38.6584 12.7737 38.6584 12.7261C38.6584 12.6976 38.6425 12.6743 38.6231 12.6743C38.6037 12.6743 38.5878 12.6346 38.5878 12.5861C38.5878 12.5375 38.5719 12.4978 38.5525 12.4978C38.5331 12.4978 38.5172 12.4501 38.5172 12.3919C38.5172 12.3336 38.5013 12.286 38.4819 12.286C38.4625 12.286 38.4466 12.2476 38.4466 12.2006C38.4466 12.1537 38.4347 12.11 38.4201 12.1035C38.3828 12.087 38.1995 11.6951 38.1995 11.6321C38.1995 11.6034 38.1836 11.5799 38.1642 11.5799C38.1447 11.5799 38.1289 11.5402 38.1289 11.4916C38.1289 11.4431 38.1143 11.4034 38.0965 11.4034C38.0787 11.4034 38.0368 11.3319 38.0034 11.2445C37.9701 11.1571 37.929 11.0856 37.9122 11.0856C37.8955 11.0856 37.8817 11.0538 37.8817 11.015C37.8817 10.9762 37.8658 10.9444 37.8464 10.9444C37.827 10.9444 37.8111 10.9126 37.8111 10.8738C37.8111 10.835 37.7952 10.8032 37.7758 10.8032C37.7564 10.8032 37.7405 10.7635 37.7405 10.7149C37.7405 10.6664 37.728 10.6267 37.7128 10.6267C37.6975 10.6267 37.638 10.5393 37.5804 10.4326C37.5228 10.3259 37.4638 10.2385 37.4493 10.2384C37.4347 10.2384 37.4228 10.2078 37.4228 10.1706C37.4228 10.1334 37.4108 10.0977 37.3963 10.0912C37.3817 10.0847 37.3227 9.9881 37.2651 9.87643C37.2076 9.7648 37.148 9.67343 37.1327 9.67343C37.1175 9.67343 37.105 9.64515 37.105 9.61063C37.105 9.57606 37.0733 9.52491 37.0344 9.49691C36.9956 9.46891 36.9638 9.42171 36.9638 9.39202C36.9637 9.34521 36.9217 9.28378 36.7527 9.08357C36.7329 9.06012 36.7167 9.01642 36.7167 8.98648C36.7167 8.95654 36.7008 8.93204 36.6814 8.93204C36.662 8.93204 36.6461 8.91545 36.6461 8.89518C36.6461 8.87492 36.6064 8.8155 36.5578 8.76318C36.5093 8.71082 36.4696 8.65147 36.4696 8.63128C36.4696 8.61109 36.4378 8.57169 36.3989 8.54369C36.3601 8.51569 36.3283 8.46454 36.3283 8.42997C36.3283 8.39545 36.3159 8.36717 36.3007 8.36717C36.2854 8.36717 36.247 8.32321 36.2153 8.26948C36.1835 8.21578 36.1086 8.1206 36.0488 8.05801C35.9889 7.99538 35.94 7.92812 35.94 7.90853C35.94 7.88893 35.928 7.8729 35.9133 7.8729C35.8986 7.8729 35.8655 7.82524 35.8397 7.76699C35.8139 7.70874 35.7703 7.66108 35.7428 7.66108C35.7153 7.66108 35.6929 7.63725 35.6929 7.60812C35.6929 7.57899 35.677 7.55516 35.6575 7.55516C35.6381 7.55516 35.6222 7.53133 35.6222 7.50221C35.6222 7.47308 35.6064 7.44925 35.5869 7.44925C35.5675 7.44925 35.5516 7.43195 35.5516 7.4108C35.5516 7.38966 35.4801 7.30288 35.3928 7.21793C35.3054 7.13303 35.2339 7.0466 35.2339 7.02588C35.2339 7.00515 35.1306 6.88646 35.0044 6.76212C34.8782 6.63774 34.7749 6.52858 34.7749 6.51954C34.7749 6.48914 34.5211 6.2489 34.489 6.2489C34.4715 6.2489 34.4572 6.22711 34.4572 6.20049C34.4572 6.13733 33.8627 5.54281 33.7995 5.54281C33.7729 5.54281 33.7511 5.52851 33.7511 5.51103C33.7511 5.47891 33.5109 5.22507 33.4805 5.22507C33.4714 5.22507 33.3623 5.1218 33.2379 4.99559C33.1135 4.86937 32.9948 4.76611 32.9741 4.76611C32.9534 4.76611 32.867 4.69462 32.7821 4.60724C32.6971 4.51986 32.6103 4.44837 32.5892 4.44837C32.568 4.44837 32.5508 4.43248 32.5508 4.41306C32.5508 4.39365 32.5269 4.37776 32.4978 4.37776C32.4687 4.37776 32.4448 4.36187 32.4448 4.34245C32.4448 4.32304 32.421 4.30715 32.3919 4.30715C32.3628 4.30715 32.3389 4.28466 32.3389 4.25716C32.3389 4.22966 32.2913 4.18605 32.233 4.16028C32.1748 4.13447 32.1271 4.10139 32.1271 4.08671C32.1271 4.07202 32.1111 4.06002 32.0915 4.06002C32.0719 4.06002 32.0046 4.01105 31.942 3.95124C31.8794 3.8914 31.7842 3.81649 31.7305 3.78475C31.6768 3.75301 31.6328 3.7146 31.6328 3.69935C31.6328 3.68413 31.6046 3.67167 31.57 3.67167C31.5355 3.67167 31.4843 3.63989 31.4563 3.60106C31.4283 3.56222 31.3889 3.53045 31.3687 3.53045C31.3485 3.53045 31.2892 3.49073 31.2368 3.44219C31.1845 3.39365 31.1251 3.35393 31.1048 3.35393C31.0846 3.35393 31.068 3.33804 31.068 3.31862C31.068 3.29921 31.0435 3.28332 31.0135 3.28332C30.9836 3.28332 30.9399 3.26711 30.9164 3.24731C30.7162 3.07831 30.6548 3.03626 30.608 3.03622C30.5783 3.03622 30.5311 3.00441 30.5031 2.96558C30.4751 2.92674 30.4239 2.89497 30.3894 2.89497C30.3548 2.89497 30.3266 2.88251 30.3266 2.86725C30.3266 2.852 30.2352 2.79244 30.1236 2.73486C30.0119 2.67728 29.9153 2.61825 29.9088 2.60371C29.9023 2.58913 29.8666 2.57723 29.8294 2.57723C29.7921 2.57723 29.7617 2.56134 29.7617 2.54192C29.7617 2.52251 29.7455 2.50662 29.7256 2.50662C29.6828 2.50662 29.3962 2.32406 29.3792 2.28597C29.3727 2.27142 29.3291 2.25949 29.2822 2.25949C29.2352 2.25949 29.1968 2.2436 29.1968 2.22418C29.1968 2.20477 29.165 2.18888 29.1262 2.18888C29.0874 2.18888 29.0556 2.17299 29.0556 2.15357C29.0556 2.13416 29.0238 2.11827 28.985 2.11827C28.9462 2.11827 28.9144 2.10454 28.9144 2.08777C28.9144 2.071 28.8429 2.02994 28.7555 1.99658C28.6681 1.96321 28.5966 1.92134 28.5966 1.90351C28.5966 1.88572 28.5569 1.87114 28.5084 1.87114C28.4598 1.87114 28.4201 1.85525 28.4201 1.83583C28.4201 1.81642 28.3966 1.80053 28.3679 1.80053C28.3049 1.80053 27.913 1.61716 27.8965 1.57988C27.89 1.5653 27.8463 1.5534 27.7994 1.5534C27.7524 1.5534 27.714 1.53751 27.714 1.51809C27.714 1.49868 27.6664 1.48279 27.6081 1.48279C27.5499 1.48279 27.5022 1.4669 27.5022 1.44748C27.5022 1.42807 27.4625 1.41218 27.4139 1.41218C27.3654 1.41218 27.3257 1.39629 27.3257 1.37688C27.3257 1.35746 27.3024 1.34157 27.2739 1.34157C27.2263 1.34157 27.042 1.27103 26.8937 1.19605C26.86 1.17899 26.8004 1.16505 26.7613 1.16505C26.7222 1.16505 26.6902 1.14916 26.6902 1.12974C26.6902 1.11033 26.6425 1.09444 26.5843 1.09444C26.526 1.09444 26.4784 1.07855 26.4784 1.05914C26.4784 1.03972 26.4339 1.02383 26.3795 1.02383C26.3252 1.02383 26.2656 1.01024 26.2471 0.993645C26.2007 0.951809 25.8632 0.847308 25.7745 0.847308C25.7344 0.847308 25.7017 0.831421 25.7017 0.812004C25.7017 0.792586 25.6461 0.776699 25.5781 0.776699C25.5102 0.776699 25.4545 0.760812 25.4545 0.741395C25.4545 0.721977 25.391 0.70609 25.3133 0.70609C25.2357 0.70609 25.1721 0.690203 25.1721 0.670786C25.1721 0.651368 25.1306 0.635481 25.0798 0.635481C25.029 0.635481 24.9058 0.609956 24.8061 0.578747C24.4645 0.471809 24.4078 0.458959 24.2782 0.458959C24.2067 0.458959 24.1483 0.443071 24.1483 0.423654C24.1483 0.404237 24.0768 0.38835 23.9894 0.38835C23.902 0.38835 23.8305 0.372462 23.8305 0.353045C23.8305 0.333416 23.7362 0.317741 23.6182 0.317741C23.5015 0.317741 23.3783 0.303548 23.3446 0.286178C23.2008 0.212109 22.4106 0.112692 21.7387 0.0840953C21.5106 0.0743866 21.3239 0.0515093 21.3239 0.0332215C21.3239 0.0130627 20.804 0 20 0C19.196 0 18.6761 0.0130627 18.6761 0.0332215ZM18.8526 2.40102C18.7652 2.41737 18.5468 2.43195 18.3672 2.4334C18.1747 2.43495 18.0406 2.45052 18.0406 2.47132C18.0406 2.49207 17.917 2.50662 17.7405 2.50662C17.564 2.50662 17.4404 2.52117 17.4404 2.54192C17.4404 2.56208 17.3345 2.57723 17.1933 2.57723C17.0521 2.57723 16.9462 2.59237 16.9462 2.61253C16.9462 2.63195 16.8816 2.64784 16.8026 2.64784C16.7237 2.64784 16.6304 2.6632 16.5954 2.68194C16.534 2.71478 16.2605 2.77335 15.9841 2.81285C15.9113 2.82327 15.8517 2.846 15.8517 2.86337C15.8517 2.88074 15.7802 2.89497 15.6929 2.89497C15.6055 2.89497 15.534 2.91086 15.534 2.93027C15.534 2.94969 15.4704 2.96558 15.3928 2.96558C15.3151 2.96558 15.2515 2.98147 15.2515 3.00088C15.2515 3.0203 15.1959 3.03619 15.128 3.03619C15.06 3.03619 15.0044 3.05109 15.0044 3.06934C15.0044 3.08756 14.9329 3.11319 14.8455 3.12628C14.7582 3.13938 14.6867 3.1642 14.6867 3.18143C14.6867 3.19862 14.639 3.21271 14.5808 3.21271C14.5225 3.21271 14.4748 3.2286 14.4748 3.24801C14.4748 3.26743 14.4192 3.28332 14.3513 3.28332C14.2833 3.28332 14.2277 3.29921 14.2277 3.31862C14.2277 3.33804 14.1984 3.35393 14.1625 3.35393C14.1031 3.35393 13.9531 3.4126 13.7957 3.49741C13.762 3.51559 13.7024 3.53045 13.6633 3.53045C13.6242 3.53045 13.5922 3.54634 13.5922 3.56575C13.5922 3.58517 13.5525 3.60106 13.504 3.60106C13.4554 3.60106 13.4157 3.61695 13.4157 3.63636C13.4157 3.65578 13.368 3.67167 13.3098 3.67167C13.2515 3.67167 13.2039 3.68756 13.2039 3.70697C13.2039 3.72639 13.1806 3.74228 13.1522 3.74228C13.1237 3.74228 13.0293 3.78199 12.9424 3.83054C12.8554 3.87908 12.7595 3.9188 12.7293 3.9188C12.6991 3.9188 12.6743 3.93469 12.6743 3.9541C12.6743 3.97352 12.6346 3.98941 12.5861 3.98941C12.5375 3.98941 12.4978 4.0053 12.4978 4.02471C12.4978 4.04413 12.466 4.06002 12.4272 4.06002C12.3883 4.06002 12.3566 4.0759 12.3566 4.09532C12.3566 4.11474 12.334 4.13063 12.3065 4.13063C12.2435 4.13063 12.0394 4.24515 12.039 4.28067C12.0389 4.29522 12.008 4.30715 11.9703 4.30715C11.9326 4.30715 11.892 4.32304 11.88 4.34245C11.868 4.36187 11.8273 4.37776 11.7896 4.37776C11.7519 4.37776 11.7211 4.39365 11.7211 4.41306C11.7211 4.43248 11.6893 4.44837 11.6505 4.44837C11.6117 4.44837 11.5799 4.46425 11.5799 4.48367C11.5799 4.50309 11.556 4.51898 11.5269 4.51898C11.4978 4.51898 11.474 4.53232 11.474 4.5486C11.474 4.56491 11.4106 4.60858 11.3331 4.64568C11.2557 4.68279 11.1922 4.72508 11.1919 4.73963C11.1917 4.75417 11.1518 4.76611 11.1033 4.76611C11.0547 4.76611 11.015 4.77949 11.015 4.79587C11.015 4.81222 10.9594 4.85553 10.8914 4.89215C10.8235 4.92876 10.7679 4.97094 10.7679 4.98595C10.7679 5.00095 10.7396 5.01324 10.7051 5.01324C10.6705 5.01324 10.6193 5.04501 10.5914 5.08385C10.5634 5.12268 10.5122 5.15446 10.4776 5.15446C10.4431 5.15446 10.4148 5.17034 10.4148 5.18976C10.4148 5.20918 10.3978 5.22507 10.377 5.22507C10.3562 5.22507 10.317 5.24494 10.29 5.2692C10.1731 5.37398 10.1332 5.40159 10.0986 5.40159C10.0783 5.40159 10.0618 5.41748 10.0618 5.43689C10.0618 5.45631 10.0372 5.4722 10.0072 5.4722C9.97723 5.4722 9.91294 5.51192 9.8644 5.56046C9.81585 5.609 9.76332 5.64872 9.74768 5.64872C9.732 5.64872 9.66934 5.69638 9.60837 5.75463C9.54743 5.81289 9.48039 5.86055 9.45942 5.86055C9.43841 5.86055 9.40078 5.88042 9.37575 5.90468C9.35068 5.92897 9.26959 5.99647 9.19548 6.05472C9.12138 6.11297 9.04088 6.18051 9.01659 6.20477C8.99227 6.22906 8.96258 6.2489 8.95061 6.2489C8.93864 6.2489 8.88999 6.28466 8.84258 6.32833C8.6239 6.52967 8.58012 6.56664 8.56028 6.56664C8.5486 6.56664 8.43728 6.6699 8.3129 6.79612C8.18856 6.92233 8.07703 7.0256 8.0651 7.0256C8.02337 7.0256 7.31449 7.72173 7.14916 7.92501C7.09091 7.99665 6.93599 8.16459 6.80494 8.29825C6.67386 8.43192 6.56664 8.55033 6.56664 8.56138C6.56664 8.58019 6.52868 8.62496 6.32833 8.84258C6.28462 8.88999 6.2489 8.93864 6.2489 8.95061C6.2489 8.96258 6.22902 8.99227 6.20477 9.01659C6.18048 9.04088 6.11297 9.12138 6.05472 9.19548C5.99647 9.26959 5.92897 9.35068 5.90468 9.37575C5.88042 9.40078 5.86055 9.43841 5.86055 9.45942C5.86055 9.48039 5.81289 9.54743 5.75463 9.60837C5.69638 9.66934 5.64872 9.732 5.64872 9.74768C5.64872 9.76332 5.609 9.81585 5.56046 9.8644C5.51192 9.91294 5.4722 9.97723 5.4722 10.0072C5.4722 10.0372 5.45631 10.0618 5.43689 10.0618C5.41748 10.0618 5.40159 10.0788 5.40159 10.0996C5.40159 10.1204 5.38175 10.1596 5.35746 10.1867C5.25267 10.3035 5.22507 10.3434 5.22507 10.378C5.22507 10.3983 5.20918 10.4148 5.18976 10.4148C5.17034 10.4148 5.15446 10.4431 5.15446 10.4776C5.15446 10.5122 5.12268 10.5634 5.08385 10.5914C5.04501 10.6193 5.01324 10.6705 5.01324 10.7051C5.01324 10.7396 5.00095 10.7679 4.98595 10.7679C4.97094 10.7679 4.92876 10.8235 4.89215 10.8914C4.85553 10.9594 4.81222 11.015 4.79587 11.015C4.77949 11.015 4.76611 11.0547 4.76611 11.1033C4.76611 11.1518 4.75417 11.1917 4.73963 11.1919C4.72508 11.1922 4.68304 11.2552 4.64625 11.332C4.60946 11.4088 4.5499 11.5033 4.51386 11.5419C4.47785 11.5806 4.44837 11.6367 4.44837 11.6667C4.44837 11.6966 4.43248 11.7211 4.41306 11.7211C4.39365 11.7211 4.37776 11.7519 4.37776 11.7896C4.37776 11.8273 4.36187 11.868 4.34245 11.88C4.32304 11.892 4.30715 11.9326 4.30715 11.9703C4.30715 12.008 4.29522 12.0389 4.28067 12.039C4.24515 12.0394 4.13063 12.2435 4.13063 12.3065C4.13063 12.334 4.11474 12.3566 4.09532 12.3566C4.0759 12.3566 4.06002 12.3883 4.06002 12.4272C4.06002 12.466 4.04413 12.4978 4.02471 12.4978C4.0053 12.4978 3.98941 12.5375 3.98941 12.5861C3.98941 12.6346 3.97352 12.6743 3.9541 12.6743C3.93469 12.6743 3.9188 12.6991 3.9188 12.7293C3.9188 12.7595 3.87908 12.8554 3.83054 12.9424C3.78199 13.0293 3.74228 13.1237 3.74228 13.1522C3.74228 13.1806 3.72639 13.2039 3.70697 13.2039C3.68756 13.2039 3.67167 13.2515 3.67167 13.3098C3.67167 13.368 3.65578 13.4157 3.63636 13.4157C3.61695 13.4157 3.60106 13.4554 3.60106 13.504C3.60106 13.5525 3.58517 13.5922 3.56575 13.5922C3.54634 13.5922 3.53045 13.6216 3.53045 13.6574C3.53045 13.7168 3.47177 13.8669 3.38697 14.0242C3.36879 14.0579 3.35393 14.1175 3.35393 14.1566C3.35393 14.1957 3.33804 14.2277 3.31862 14.2277C3.29921 14.2277 3.28332 14.2833 3.28332 14.3513C3.28332 14.4192 3.26743 14.4748 3.24801 14.4748C3.2286 14.4748 3.21271 14.5225 3.21271 14.5808C3.21271 14.639 3.19862 14.6867 3.18143 14.6867C3.1642 14.6867 3.13938 14.7582 3.12628 14.8455C3.11319 14.9329 3.08756 15.0044 3.06934 15.0044C3.05109 15.0044 3.03619 15.06 3.03619 15.128C3.03619 15.1959 3.0203 15.2515 3.00088 15.2515C2.98147 15.2515 2.96558 15.3151 2.96558 15.3928C2.96558 15.4704 2.94969 15.534 2.93027 15.534C2.91086 15.534 2.89497 15.6055 2.89497 15.6929C2.89497 15.7802 2.88074 15.8517 2.86337 15.8517C2.846 15.8517 2.82327 15.9113 2.81285 15.9841C2.77335 16.2605 2.71478 16.534 2.68194 16.5954C2.6632 16.6304 2.64784 16.7237 2.64784 16.8026C2.64784 16.8816 2.63195 16.9462 2.61253 16.9462C2.59237 16.9462 2.57723 17.0521 2.57723 17.1933C2.57723 17.3345 2.56208 17.4404 2.54192 17.4404C2.52117 17.4404 2.50662 17.564 2.50662 17.7405C2.50662 17.9056 2.49289 18.0406 2.47608 18.0406C2.42196 18.0406 2.33875 19.8193 2.36957 20.3177C2.38157 20.5119 2.40385 20.9449 2.4191 21.2798C2.43432 21.6147 2.46023 21.8888 2.47668 21.8888C2.49317 21.8888 2.50662 22.0079 2.50662 22.1536C2.50662 22.3065 2.52152 22.4184 2.54192 22.4184C2.56251 22.4184 2.57723 22.536 2.57723 22.7008C2.57723 22.8561 2.5917 22.9832 2.60939 22.9832C2.62708 22.9832 2.64904 23.0746 2.65822 23.1862C2.66736 23.2979 2.70242 23.4846 2.73613 23.6011C2.76985 23.7176 2.80508 23.8804 2.81444 23.9629C2.8238 24.0454 2.84575 24.113 2.86323 24.113C2.88067 24.113 2.89497 24.1845 2.89497 24.2718C2.89497 24.3592 2.91086 24.4307 2.93027 24.4307C2.94969 24.4307 2.96558 24.5013 2.96558 24.5875C2.96558 24.6738 2.98147 24.7541 3.00088 24.7661C3.0203 24.7781 3.03619 24.8346 3.03619 24.8918C3.03619 24.9489 3.04879 24.9956 3.06422 24.9956C3.0938 24.9956 3.21271 25.3501 3.21271 25.4383C3.21271 25.4667 3.2286 25.4899 3.24801 25.4899C3.26743 25.4899 3.28332 25.5375 3.28332 25.5958C3.28332 25.654 3.29921 25.7017 3.31862 25.7017C3.33804 25.7017 3.35393 25.7573 3.35393 25.8252C3.35393 25.8932 3.36981 25.9488 3.38923 25.9488C3.40865 25.9488 3.42464 25.9766 3.42475 26.0106C3.42489 26.0446 3.44872 26.1179 3.47771 26.1735C3.50673 26.2291 3.53045 26.3046 3.53045 26.3412C3.53045 26.3778 3.54634 26.4078 3.56575 26.4078C3.58517 26.4078 3.60106 26.4395 3.60106 26.4784C3.60106 26.5172 3.61695 26.549 3.63636 26.549C3.65578 26.549 3.67167 26.5887 3.67167 26.6372C3.67167 26.6858 3.68756 26.7255 3.70697 26.7255C3.72639 26.7255 3.74228 26.7483 3.74228 26.7761C3.74228 26.8433 3.92618 27.2694 3.96166 27.2845C3.97691 27.291 3.98941 27.3426 3.98941 27.3992C3.98941 27.4559 4.0053 27.5022 4.02471 27.5022C4.04413 27.5022 4.06002 27.534 4.06002 27.5728C4.06002 27.6117 4.0759 27.6434 4.09532 27.6434C4.11474 27.6434 4.13063 27.666 4.13063 27.6935C4.13063 27.7565 4.24515 27.9606 4.28067 27.961C4.29522 27.9611 4.30715 27.9929 4.30715 28.0318C4.30715 28.0706 4.32304 28.1024 4.34245 28.1024C4.36187 28.1024 4.37776 28.1262 4.37776 28.1553C4.37776 28.1845 4.39365 28.2083 4.41306 28.2083C4.43248 28.2083 4.44837 28.2401 4.44837 28.2789C4.44837 28.3177 4.4603 28.3496 4.47485 28.3497C4.48939 28.3497 4.5307 28.4212 4.5666 28.5085C4.60251 28.5958 4.64621 28.6673 4.66369 28.6673C4.6812 28.6673 4.6955 28.699 4.6955 28.7379C4.6955 28.7767 4.71139 28.8085 4.7308 28.8085C4.75022 28.8085 4.76611 28.8468 4.76611 28.8938C4.76611 28.9407 4.77938 28.9844 4.79562 28.9909C4.81183 28.9974 4.88328 29.09 4.95435 29.1968C5.02545 29.3036 5.09956 29.4102 5.11905 29.4336C5.1385 29.4571 5.15446 29.4929 5.15446 29.5131C5.15446 29.5333 5.17034 29.5499 5.18976 29.5499C5.20918 29.5499 5.22507 29.5676 5.22507 29.5893C5.22507 29.6109 5.28067 29.7044 5.34863 29.797C5.41659 29.8896 5.4722 29.9838 5.4722 30.0063C5.4722 30.0289 5.51192 30.0871 5.56046 30.1356C5.609 30.1841 5.64872 30.2367 5.64872 30.2523C5.64872 30.268 5.69638 30.3307 5.75463 30.3916C5.81289 30.4526 5.86055 30.5185 5.86055 30.5381C5.86055 30.5577 5.87643 30.5737 5.89585 30.5737C5.91527 30.5737 5.93116 30.5899 5.93116 30.6096C5.93116 30.6294 5.98676 30.6996 6.05472 30.7655C6.12268 30.8316 6.17829 30.9107 6.17829 30.9415C6.17829 30.9722 6.19417 30.9974 6.21359 30.9974C6.23301 30.9974 6.2489 31.0138 6.2489 31.0338C6.2489 31.0539 6.30051 31.1245 6.36364 31.1908C6.53144 31.367 6.56664 31.4134 6.56664 31.4586C6.56664 31.4811 6.59153 31.4896 6.62249 31.4777C6.6532 31.4659 6.68498 31.4563 6.6931 31.4563C6.70122 31.4563 6.70786 31.4217 6.70786 31.3794C6.70786 31.2954 6.75944 31.1158 6.83566 30.9344C6.86245 30.8706 6.88438 30.7792 6.88438 30.7314C6.88438 30.6835 6.90026 30.6443 6.91968 30.6443C6.9391 30.6443 6.95499 30.5887 6.95499 30.5207C6.95499 30.4528 6.97087 30.3972 6.99029 30.3972C7.00971 30.3972 7.0256 30.3575 7.0256 30.3089C7.0256 30.2604 7.04148 30.2207 7.0609 30.2207C7.08032 30.2207 7.0962 30.173 7.0962 30.1147C7.0962 30.0565 7.11139 30.0088 7.12992 30.0088C7.14846 30.0088 7.17405 29.9532 7.1868 29.8853C7.19954 29.8173 7.22411 29.7617 7.24134 29.7617C7.25861 29.7617 7.27273 29.722 7.27273 29.6734C7.27273 29.6249 7.28861 29.5852 7.30803 29.5852C7.32745 29.5852 7.34334 29.5389 7.34334 29.4822C7.34334 29.4256 7.35527 29.3739 7.36981 29.3674C7.40399 29.3523 7.66108 28.8326 7.66108 28.7788C7.66108 28.7563 7.67696 28.7379 7.69638 28.7379C7.7158 28.7379 7.73169 28.7061 7.73169 28.6673C7.73169 28.6284 7.74757 28.5966 7.76699 28.5966C7.78641 28.5966 7.80229 28.5741 7.80229 28.5465C7.80229 28.4836 7.91682 28.2794 7.95234 28.2791C7.96688 28.279 7.97882 28.2471 7.97882 28.2083C7.97882 28.1695 7.9947 28.1377 8.01412 28.1377C8.03354 28.1377 8.04943 28.1059 8.04943 28.0671C8.04943 28.0282 8.06531 27.9965 8.08473 27.9965C8.10415 27.9965 8.12004 27.9726 8.12004 27.9435C8.12004 27.9144 8.13592 27.8906 8.15534 27.8906C8.17476 27.8906 8.19064 27.8588 8.19064 27.8199C8.19064 27.7811 8.20402 27.7493 8.22041 27.7493C8.23675 27.7493 8.28007 27.6937 8.31668 27.6258C8.35329 27.5578 8.39548 27.5022 8.41049 27.5022C8.42549 27.5022 8.43778 27.4704 8.43778 27.4316C8.43778 27.3928 8.45366 27.361 8.47308 27.361C8.4925 27.361 8.50838 27.344 8.50838 27.3232C8.50838 27.3023 8.52826 27.2632 8.55252 27.2361C8.6573 27.1193 8.68491 27.0794 8.68491 27.0447C8.68491 27.0245 8.70079 27.0079 8.72021 27.0079C8.73963 27.0079 8.75552 26.9841 8.75552 26.955C8.75552 26.9259 8.7714 26.902 8.79082 26.902C8.81024 26.902 8.82613 26.8854 8.82613 26.8651C8.82613 26.8448 8.86584 26.7885 8.91439 26.7399C8.96293 26.6914 9.00265 26.6389 9.00265 26.6232C9.00265 26.6076 9.05031 26.5449 9.10856 26.4839C9.16681 26.423 9.21458 26.3611 9.21469 26.3463C9.21479 26.3316 9.28628 26.2441 9.37356 26.152C9.46083 26.0598 9.53222 25.9758 9.53222 25.9653C9.53222 25.946 9.59933 25.8685 9.80583 25.6493C9.86895 25.5823 9.92056 25.5183 9.92056 25.5071C9.92056 25.4797 10.0881 25.3133 10.1157 25.3133C10.1437 25.3133 10.2383 25.2191 10.2383 25.1911C10.2383 25.1633 10.4766 24.925 10.5043 24.925C10.516 24.925 10.5941 24.8535 10.6778 24.7661C10.7615 24.6787 10.8478 24.6072 10.8696 24.6072C10.8913 24.6072 10.9091 24.5914 10.9091 24.5719C10.9091 24.5525 10.9261 24.5366 10.9469 24.5366C10.9958 24.5366 11.0856 24.4468 11.0856 24.3979C11.0856 24.3771 11.1059 24.3601 11.1308 24.3601C11.1556 24.3601 11.1988 24.3283 11.2268 24.2895C11.2548 24.2507 11.296 24.2189 11.3183 24.2189C11.3405 24.2189 11.4468 24.1315 11.5545 24.0247C11.6622 23.9179 11.7755 23.8305 11.8063 23.8305C11.8371 23.8305 11.8623 23.8147 11.8623 23.7952C11.8623 23.7758 11.8789 23.7599 11.8991 23.7599C11.9193 23.7599 11.9551 23.7437 11.9785 23.7239C12.1751 23.558 12.2389 23.5129 12.2771 23.5128C12.3014 23.5128 12.3213 23.4969 12.3213 23.4775C12.3213 23.4581 12.3383 23.4422 12.3591 23.4422C12.3799 23.4422 12.4191 23.4223 12.4461 23.3981C12.563 23.2933 12.6029 23.2657 12.6375 23.2657C12.6578 23.2657 12.6743 23.2498 12.6743 23.2304C12.6743 23.2109 12.7026 23.1951 12.7371 23.1951C12.7717 23.1951 12.8228 23.1633 12.8508 23.1244C12.8788 23.0856 12.9208 23.0538 12.944 23.0538C13.0011 23.0538 13.2034 22.9369 13.2037 22.9038C13.2038 22.8892 13.2357 22.8773 13.2745 22.8773C13.3133 22.8773 13.3451 22.8614 13.3451 22.842C13.3451 22.8226 13.3813 22.8067 13.4256 22.8067C13.4698 22.8067 13.5289 22.7749 13.5569 22.7361C13.5849 22.6973 13.6269 22.6655 13.6501 22.6655C13.7072 22.6655 13.9095 22.5486 13.9098 22.5154C13.9099 22.5009 13.9408 22.489 13.9785 22.489C14.0162 22.489 14.0568 22.4731 14.0688 22.4537C14.0808 22.4342 14.1215 22.4184 14.1592 22.4184C14.1969 22.4184 14.2277 22.4025 14.2277 22.3831C14.2277 22.3636 14.2741 22.3477 14.3307 22.3477C14.3873 22.3477 14.4389 22.3359 14.4454 22.3213C14.4615 22.285 14.7123 22.1712 14.7761 22.1712C14.8046 22.1712 14.8279 22.1553 14.8279 22.1359C14.8279 22.1165 14.8676 22.1006 14.9162 22.1006C14.9647 22.1006 15.0044 22.0847 15.0044 22.0653C15.0044 22.0459 15.0424 22.03 15.0889 22.03C15.2054 22.03 15.2373 21.9285 15.1432 21.8572C15.1021 21.826 15.0309 21.7648 14.9851 21.7211C14.9392 21.6774 14.8919 21.6417 14.8799 21.6417C14.868 21.6417 14.8372 21.6218 14.8116 21.5975C14.7861 21.5733 14.7202 21.5216 14.6653 21.4828C14.5456 21.3981 13.5216 20.389 13.5216 20.3557C13.5216 20.3302 13.4755 20.2711 13.3539 20.1411C13.3102 20.0944 13.2745 20.0454 13.2745 20.0322C13.2745 20.0191 13.2465 19.9826 13.2122 19.9512C13.1341 19.8795 12.9568 19.6077 12.9568 19.5594C12.9568 19.5396 12.9409 19.5234 12.9214 19.5234C12.902 19.5234 12.8861 19.4951 12.8861 19.4606C12.8861 19.426 12.8544 19.3749 12.8155 19.3469C12.7767 19.3189 12.7449 19.2781 12.7449 19.2562C12.7449 19.2344 12.7127 19.1793 12.6734 19.1339C12.634 19.0885 12.5926 19.0146 12.5813 18.9697C12.57 18.9247 12.5466 18.8879 12.5293 18.8879C12.512 18.8879 12.4978 18.8561 12.4978 18.8173C12.4978 18.7785 12.4819 18.7467 12.4625 18.7467C12.4431 18.7467 12.4272 18.7202 12.4272 18.6879C12.4272 18.6086 12.3148 18.3583 12.2792 18.3583C12.2635 18.3583 12.2507 18.3275 12.2507 18.2898C12.2507 18.2521 12.2348 18.2115 12.2154 18.1995C12.1959 18.1875 12.1801 18.1468 12.1801 18.1091C12.1801 18.0714 12.1642 18.0406 12.1447 18.0406C12.1253 18.0406 12.1094 17.985 12.1094 17.917C12.1094 17.8491 12.0936 17.7935 12.0741 17.7935C12.0547 17.7935 12.0388 17.7458 12.0388 17.6876C12.0388 17.6293 12.0247 17.5816 12.0075 17.5816C11.9903 17.5816 11.9683 17.538 11.9586 17.4846C11.9397 17.3801 11.8718 17.1785 11.8223 17.079C11.8055 17.0453 11.7917 16.9381 11.7917 16.8407C11.7917 16.7434 11.7773 16.6637 11.7597 16.6637C11.7283 16.6637 11.719 16.6 11.652 15.9223C11.5798 15.1905 11.5698 14.776 11.6123 14.2682C11.6361 13.9838 11.6703 13.7235 11.6883 13.6898C11.7064 13.6561 11.7211 13.533 11.7211 13.4162C11.7211 13.2982 11.7368 13.2039 11.7564 13.2039C11.7758 13.2039 11.7917 13.1492 11.7917 13.0824C11.7917 13.0156 11.8076 12.9511 11.827 12.9391C11.8464 12.9271 11.8623 12.8635 11.8623 12.7979C11.8623 12.7322 11.8768 12.6695 11.8945 12.6586C11.9123 12.6476 11.9375 12.5753 11.9506 12.4978C11.9637 12.4203 11.9889 12.348 12.0066 12.337C12.0243 12.3261 12.0388 12.2863 12.0388 12.2486C12.0388 12.2109 12.0547 12.1801 12.0741 12.1801C12.0936 12.1801 12.1094 12.1244 12.1094 12.0565C12.1094 11.9885 12.1253 11.9329 12.1447 11.9329C12.1642 11.9329 12.1801 11.8853 12.1801 11.827C12.1801 11.7688 12.1959 11.7211 12.2154 11.7211C12.2348 11.7211 12.2507 11.6985 12.2507 11.671C12.2507 11.608 12.3652 11.4039 12.4007 11.4036C12.4153 11.4035 12.4272 11.3636 12.4272 11.3151C12.4272 11.2665 12.4431 11.2268 12.4625 11.2268C12.4819 11.2268 12.4978 11.1951 12.4978 11.1562C12.4978 11.1174 12.5137 11.0856 12.5331 11.0856C12.5525 11.0856 12.5684 11.0538 12.5684 11.015C12.5684 10.9762 12.5809 10.9444 12.5961 10.9444C12.6114 10.9444 12.6709 10.8571 12.7285 10.7503C12.7861 10.6436 12.8451 10.5562 12.8597 10.5562C12.8742 10.5561 12.8861 10.5243 12.8861 10.4854C12.8861 10.4466 12.902 10.4148 12.9214 10.4148C12.9409 10.4148 12.9568 10.3978 12.9568 10.377C12.9568 10.3562 12.9766 10.317 13.0009 10.29C13.102 10.1773 13.1333 10.1338 13.1333 10.1064C13.1333 10.0904 13.165 10.0545 13.2039 10.0265C13.2427 9.99848 13.2745 9.95531 13.2745 9.93052C13.2745 9.9057 13.3301 9.82648 13.3981 9.75442C13.466 9.68237 13.5216 9.60985 13.5216 9.59326C13.5216 9.55004 14.5802 8.50838 14.6241 8.50838C14.6443 8.50838 14.6864 8.48042 14.7178 8.44621C14.7492 8.412 14.8385 8.33737 14.9162 8.28032C14.9938 8.2233 15.0812 8.15188 15.1103 8.12162C15.1395 8.09137 15.2109 8.04286 15.2692 8.01387C15.3274 7.98489 15.3944 7.94528 15.418 7.92586C15.4416 7.90644 15.4813 7.87379 15.5063 7.85327C15.5312 7.8328 15.6032 7.79315 15.6664 7.76523C15.7295 7.7373 15.7811 7.70245 15.7811 7.68777C15.7811 7.67308 15.8129 7.66108 15.8517 7.66108C15.8906 7.66108 15.9224 7.64914 15.9225 7.6346C15.9229 7.59908 16.127 7.48455 16.19 7.48455C16.2175 7.48455 16.2401 7.46867 16.2401 7.44925C16.2401 7.42983 16.2718 7.41395 16.3107 7.41395C16.3495 7.41395 16.3813 7.39806 16.3813 7.37864C16.3813 7.35922 16.4197 7.34334 16.4666 7.34334C16.5135 7.34334 16.5572 7.33077 16.5637 7.31545C16.5819 7.27223 16.9748 7.0962 17.053 7.0962C17.0913 7.0962 17.1227 7.08032 17.1227 7.0609C17.1227 7.04148 17.1703 7.0256 17.2286 7.0256C17.2868 7.0256 17.3345 7.00971 17.3345 6.99029C17.3345 6.97087 17.3901 6.95499 17.4581 6.95499C17.526 6.95499 17.5816 6.9391 17.5816 6.91968C17.5816 6.90026 17.6219 6.88438 17.671 6.88438C17.7202 6.88438 17.8175 6.86055 17.8872 6.83142C17.9569 6.80229 18.0508 6.77846 18.0958 6.77846C18.1408 6.77846 18.1875 6.76258 18.1995 6.74316C18.2115 6.72374 18.3077 6.70786 18.4134 6.70786C18.519 6.70786 18.6055 6.69197 18.6055 6.67255C18.6055 6.65214 18.7173 6.63725 18.8703 6.63725C19.0232 6.63725 19.135 6.62235 19.135 6.60194C19.135 6.57938 19.4469 6.56664 20 6.56664C20.5531 6.56664 20.865 6.57938 20.865 6.60194C20.865 6.62235 20.9768 6.63725 21.1297 6.63725C21.2827 6.63725 21.3945 6.65214 21.3945 6.67255C21.3945 6.69197 21.481 6.70786 21.5866 6.70786C21.6923 6.70786 21.7885 6.72374 21.8005 6.74316C21.8125 6.76258 21.8592 6.77846 21.9042 6.77846C21.9492 6.77846 22.0431 6.80229 22.1128 6.83142C22.1825 6.86055 22.2798 6.88438 22.329 6.88438C22.3781 6.88438 22.4184 6.90026 22.4184 6.91968C22.4184 6.9391 22.474 6.95499 22.5419 6.95499C22.6099 6.95499 22.6655 6.97087 22.6655 6.99029C22.6655 7.00971 22.7132 7.0256 22.7714 7.0256C22.8297 7.0256 22.8773 7.04148 22.8773 7.0609C22.8773 7.08032 22.9087 7.0962 22.947 7.0962C23.0252 7.0962 23.4181 7.27223 23.4363 7.31545C23.4428 7.33077 23.4865 7.34334 23.5334 7.34334C23.5803 7.34334 23.6187 7.35922 23.6187 7.37864C23.6187 7.39806 23.6505 7.41395 23.6893 7.41395C23.7282 7.41395 23.7599 7.42983 23.7599 7.44925C23.7599 7.46867 23.7825 7.48455 23.81 7.48455C23.873 7.48455 24.0771 7.59908 24.0775 7.6346C24.0776 7.64914 24.1094 7.66108 24.1483 7.66108C24.1871 7.66108 24.2189 7.67308 24.2189 7.68777C24.2189 7.70245 24.2705 7.73719 24.3336 7.76501C24.3968 7.79283 24.4677 7.83248 24.4913 7.8531C24.5798 7.93038 24.6278 7.96261 24.7308 8.01387C24.7891 8.04286 24.8605 8.09137 24.8897 8.12162C24.9188 8.15188 25.0062 8.2233 25.0838 8.28032C25.1615 8.33737 25.2508 8.412 25.2822 8.44621C25.3136 8.48042 25.3557 8.50838 25.3759 8.50838C25.4198 8.50838 26.4784 9.55004 26.4784 9.59326C26.4784 9.60985 26.534 9.68237 26.6019 9.75442C26.6699 9.82648 26.7255 9.9057 26.7255 9.93052C26.7255 9.95531 26.7573 9.99848 26.7961 10.0265C26.835 10.0545 26.8667 10.0909 26.8667 10.1074C26.8667 10.1239 26.8866 10.1596 26.9109 10.1867C27.0156 10.3035 27.0432 10.3434 27.0432 10.378C27.0432 10.3983 27.0591 10.4148 27.0786 10.4148C27.098 10.4148 27.1139 10.4466 27.1139 10.4854C27.1139 10.5243 27.1258 10.5561 27.1403 10.5562C27.1549 10.5562 27.2139 10.6436 27.2715 10.7503C27.3291 10.8571 27.3886 10.9444 27.4039 10.9444C27.4191 10.9444 27.4316 10.9762 27.4316 11.015C27.4316 11.0538 27.4475 11.0856 27.4669 11.0856C27.4863 11.0856 27.5022 11.1174 27.5022 11.1562C27.5022 11.1951 27.5181 11.2268 27.5375 11.2268C27.5569 11.2268 27.5728 11.2665 27.5728 11.3151C27.5728 11.3636 27.5847 11.4035 27.5993 11.4036C27.6348 11.4039 27.7493 11.608 27.7493 11.671C27.7493 11.6985 27.7652 11.7211 27.7846 11.7211C27.8041 11.7211 27.8199 11.7688 27.8199 11.827C27.8199 11.8853 27.8358 11.9329 27.8553 11.9329C27.8747 11.9329 27.8906 11.9885 27.8906 12.0565C27.8906 12.1244 27.9064 12.1801 27.9259 12.1801C27.9453 12.1801 27.9612 12.2041 27.9612 12.2335C27.9612 12.2629 27.9759 12.3145 27.9939 12.3482C28.0439 12.4417 28.1377 12.7669 28.1377 12.8466C28.1377 12.8855 28.1536 12.9271 28.173 12.9391C28.1924 12.9511 28.2083 13.0156 28.2083 13.0824C28.2083 13.1492 28.2242 13.2039 28.2436 13.2039C28.2632 13.2039 28.2789 13.2982 28.2789 13.4162C28.2789 13.533 28.2936 13.6561 28.3117 13.6898C28.3676 13.7944 28.4313 14.7568 28.4081 15.1461C28.3527 16.0778 28.338 16.243 28.3094 16.2607C28.2926 16.271 28.2789 16.366 28.2789 16.4716C28.2789 16.5773 28.263 16.6637 28.2436 16.6637C28.2242 16.6637 28.2083 16.7434 28.2083 16.8407C28.2083 16.9381 28.1945 17.0453 28.1777 17.079C28.1282 17.1785 28.0603 17.3801 28.0414 17.4846C28.0317 17.5379 28.0097 17.5816 27.9925 17.5816C27.9753 17.5816 27.9612 17.6293 27.9612 17.6876C27.9612 17.7458 27.9453 17.7935 27.9259 17.7935C27.9064 17.7935 27.8906 17.8491 27.8906 17.917C27.8906 17.985 27.8747 18.0406 27.8553 18.0406C27.8358 18.0406 27.8199 18.0714 27.8199 18.1091C27.8199 18.1468 27.8041 18.1875 27.7846 18.1995C27.7652 18.2115 27.7493 18.2521 27.7493 18.2898C27.7493 18.3275 27.7365 18.3583 27.7208 18.3583C27.6852 18.3583 27.5728 18.6086 27.5728 18.6879C27.5728 18.7202 27.5569 18.7467 27.5375 18.7467C27.5181 18.7467 27.5022 18.7785 27.5022 18.8173C27.5022 18.8561 27.4895 18.8879 27.474 18.8879C27.4585 18.8879 27.4257 18.9435 27.4011 19.0115C27.3765 19.0794 27.3452 19.135 27.3314 19.135C27.3177 19.135 27.2765 19.1906 27.2399 19.2586C27.2033 19.3266 27.16 19.3822 27.1436 19.3822C27.1272 19.3822 27.1139 19.4139 27.1139 19.4528C27.1139 19.4916 27.098 19.5234 27.0786 19.5234C27.0591 19.5234 27.0432 19.5396 27.0432 19.5594C27.0432 19.6077 26.8659 19.8795 26.7878 19.9512C26.7535 19.9826 26.7255 20.0191 26.7255 20.0322C26.7255 20.0454 26.6897 20.0944 26.6461 20.1411C26.528 20.2674 26.4784 20.33 26.4784 20.3527C26.4784 20.3639 26.4245 20.4298 26.3586 20.4993C26.2928 20.5687 26.2252 20.6401 26.2086 20.6579C26.0694 20.8069 25.4117 21.427 25.3337 21.4828C25.2793 21.5216 25.2139 21.5733 25.1884 21.5975C25.1628 21.6218 25.132 21.6417 25.1201 21.6417C25.1081 21.6417 25.0608 21.6774 25.0149 21.7211C24.9691 21.7648 24.8962 21.8274 24.8531 21.8602C24.782 21.9143 24.7797 21.9251 24.8296 21.975C24.8599 22.0052 24.9175 22.03 24.9578 22.03C24.998 22.03 25.0309 22.0459 25.0309 22.0653C25.0309 22.0847 25.0629 22.1006 25.102 22.1006C25.173 22.1006 25.1983 22.1104 25.407 22.2191C25.4683 22.2511 25.5438 22.2771 25.5747 22.2771C25.6057 22.2771 25.6311 22.293 25.6311 22.3124C25.6311 22.3319 25.6628 22.3477 25.7017 22.3477C25.7405 22.3477 25.7723 22.3636 25.7723 22.3831C25.7723 22.4025 25.812 22.4184 25.8605 22.4184C25.9091 22.4184 25.9488 22.4342 25.9488 22.4537C25.9488 22.4731 25.9806 22.489 26.0194 22.489C26.0583 22.489 26.09 22.5031 26.09 22.5205C26.09 22.5378 26.1297 22.5619 26.1783 22.5741C26.2268 22.5863 26.2665 22.6118 26.2665 22.6309C26.2665 22.6499 26.2983 22.6655 26.3372 22.6655C26.376 22.6655 26.4078 22.6814 26.4078 22.7008C26.4078 22.7202 26.4395 22.7361 26.4784 22.7361C26.5172 22.7361 26.549 22.752 26.549 22.7714C26.549 22.7908 26.5808 22.8067 26.6196 22.8067C26.6584 22.8067 26.6902 22.8226 26.6902 22.842C26.6902 22.8614 26.714 22.8773 26.7432 22.8773C26.7723 22.8773 26.7961 22.8929 26.7961 22.912C26.7961 22.931 26.8358 22.9565 26.8844 22.9687C26.9329 22.9809 26.9726 23.005 26.9726 23.0223C26.9726 23.0397 27.0009 23.0538 27.0354 23.0538C27.07 23.0538 27.1212 23.0856 27.1492 23.1244C27.1772 23.1633 27.2228 23.1951 27.2507 23.1951C27.3024 23.1951 27.5456 23.3636 27.5669 23.4143C27.5734 23.4296 27.6091 23.4422 27.6464 23.4422C27.6836 23.4422 27.714 23.4581 27.714 23.4775C27.714 23.4969 27.7344 23.5128 27.7592 23.5128C27.784 23.5128 27.8273 23.5446 27.8553 23.5834C27.8832 23.6222 27.9226 23.654 27.9428 23.654C27.963 23.654 28.0224 23.6937 28.0747 23.7423C28.1271 23.7908 28.1864 23.8305 28.2067 23.8305C28.2269 23.8305 28.3109 23.8941 28.3934 23.9718C28.4758 24.0494 28.5536 24.113 28.5662 24.113C28.5789 24.113 28.6371 24.1566 28.6957 24.2101C28.7542 24.2634 28.8604 24.3548 28.9316 24.4131C29.0028 24.4713 29.0988 24.5547 29.145 24.5984C29.1911 24.6421 29.2455 24.6778 29.2658 24.6778C29.2861 24.6778 29.3027 24.6944 29.3027 24.7147C29.3027 24.7533 29.461 24.925 29.4965 24.925C29.5237 24.925 29.7617 25.1638 29.7617 25.1911C29.7617 25.2191 29.8563 25.3133 29.8843 25.3133C29.9119 25.3133 30.0794 25.4797 30.0794 25.5071C30.0794 25.5183 30.1311 25.5802 30.1942 25.6445C30.3417 25.7948 30.4678 25.9441 30.4678 25.9683C30.4678 25.9788 30.5035 26.024 30.5472 26.0688C30.6627 26.1872 30.7855 26.3349 30.7855 26.3554C30.7855 26.3652 30.8332 26.423 30.8914 26.4839C30.9497 26.5449 30.9974 26.6076 30.9974 26.6232C30.9974 26.6389 31.0371 26.6914 31.0856 26.7399C31.1342 26.7885 31.1739 26.846 31.1739 26.8676C31.1739 26.8893 31.1937 26.9271 31.218 26.9517C31.2423 26.9762 31.2939 27.0404 31.3327 27.0943C31.3716 27.1482 31.4232 27.2132 31.4475 27.2388C31.4717 27.2644 31.4916 27.3023 31.4916 27.3232C31.4916 27.344 31.5075 27.361 31.5269 27.361C31.5463 27.361 31.5622 27.3855 31.5622 27.4154C31.5622 27.4454 31.5783 27.4891 31.598 27.5125C31.6721 27.6007 31.8094 27.8244 31.8094 27.8568C31.8094 27.8754 31.8252 27.8906 31.8447 27.8906C31.8641 27.8906 31.88 27.9223 31.88 27.9612C31.88 28 31.8959 28.0318 31.9153 28.0318C31.9347 28.0318 31.9506 28.0556 31.9506 28.0847C31.9506 28.1139 31.9665 28.1377 31.9859 28.1377C32.0053 28.1377 32.0212 28.1695 32.0212 28.2083C32.0212 28.2471 32.0368 28.2789 32.0558 28.2789C32.0748 28.2789 32.1004 28.3186 32.1126 28.3672C32.1248 28.4157 32.1489 28.4554 32.1662 28.4554C32.1835 28.4554 32.1977 28.4872 32.1977 28.526C32.1977 28.5649 32.2136 28.5966 32.233 28.5966C32.2524 28.5966 32.2683 28.6284 32.2683 28.6673C32.2683 28.7061 32.2842 28.7379 32.3036 28.7379C32.323 28.7379 32.3389 28.755 32.3389 28.7759C32.3389 28.7969 32.3945 28.9296 32.4625 29.0709C32.5305 29.2122 32.5861 29.3539 32.5861 29.3859C32.5861 29.4178 32.6019 29.444 32.6214 29.444C32.6408 29.444 32.6567 29.4837 32.6567 29.5322C32.6567 29.5808 32.6726 29.6205 32.692 29.6205C32.7114 29.6205 32.7273 29.6523 32.7273 29.6911C32.7273 29.7299 32.7392 29.7617 32.7538 29.7617C32.7683 29.7617 32.8114 29.865 32.8495 29.9912C32.8876 30.1174 32.9313 30.2207 32.9466 30.2207C32.9619 30.2207 32.9744 30.2604 32.9744 30.3089C32.9744 30.3575 32.9903 30.3972 33.0097 30.3972C33.0291 30.3972 33.045 30.4528 33.045 30.5207C33.045 30.5887 33.0609 30.6443 33.0803 30.6443C33.0997 30.6443 33.1156 30.6774 33.1156 30.7178C33.1156 30.7582 33.1543 30.9052 33.2016 31.0444C33.2488 31.1835 33.2925 31.337 33.2986 31.3853C33.3095 31.471 33.4334 31.5373 33.4334 31.4574C33.4334 31.4134 33.4693 31.3661 33.6364 31.1908C33.6995 31.1245 33.7511 31.0539 33.7511 31.0338C33.7511 31.0138 33.767 30.9974 33.7864 30.9974C33.8058 30.9974 33.8217 30.9722 33.8217 30.9415C33.8217 30.9107 33.8773 30.8316 33.9453 30.7655C34.0132 30.6996 34.0688 30.6294 34.0688 30.6096C34.0688 30.5899 34.0847 30.5737 34.1041 30.5737C34.1236 30.5737 34.1395 30.5577 34.1395 30.5381C34.1395 30.5185 34.1871 30.4526 34.2454 30.3916C34.3036 30.3307 34.3513 30.268 34.3513 30.2523C34.3513 30.2367 34.391 30.1841 34.4395 30.1356C34.4881 30.0871 34.5278 30.0282 34.5278 30.0049C34.5278 29.9594 34.7007 29.7165 34.747 29.697C34.7624 29.6905 34.7749 29.6548 34.7749 29.6175C34.7749 29.5803 34.7908 29.5499 34.8102 29.5499C34.8297 29.5499 34.8455 29.526 34.8455 29.4969C34.8455 29.4678 34.8595 29.444 34.8766 29.444C34.8936 29.444 34.9273 29.3963 34.9515 29.338C34.9756 29.2798 35.0057 29.2321 35.0183 29.2321C35.031 29.2321 35.0712 29.1765 35.1079 29.1086C35.1445 29.0406 35.1878 28.985 35.2041 28.985C35.2205 28.985 35.2339 28.9453 35.2339 28.8967C35.2339 28.8482 35.2498 28.8085 35.2692 28.8085C35.2886 28.8085 35.3045 28.778 35.3045 28.7408C35.3045 28.7036 35.3172 28.6679 35.3328 28.6614C35.3732 28.6446 35.5516 28.3147 35.5516 28.2568C35.5516 28.2301 35.5675 28.2083 35.5869 28.2083C35.6064 28.2083 35.6222 28.1845 35.6222 28.1553C35.6222 28.1262 35.6381 28.1024 35.6575 28.1024C35.677 28.1024 35.6929 28.0706 35.6929 28.0318C35.6929 27.9929 35.7047 27.9611 35.7193 27.961C35.7548 27.9606 35.8694 27.7565 35.8694 27.6935C35.8694 27.666 35.8853 27.6434 35.9047 27.6434C35.9241 27.6434 35.94 27.6117 35.94 27.5728C35.94 27.534 35.9559 27.5022 35.9753 27.5022C35.9947 27.5022 36.0106 27.4559 36.0106 27.3992C36.0106 27.3426 36.0231 27.291 36.0383 27.2845C36.0738 27.2694 36.2577 26.8433 36.2577 26.7761C36.2577 26.7483 36.2736 26.7255 36.293 26.7255C36.3124 26.7255 36.3283 26.6858 36.3283 26.6372C36.3283 26.5887 36.3442 26.549 36.3636 26.549C36.3831 26.549 36.3989 26.5172 36.3989 26.4784C36.3989 26.4395 36.4148 26.4078 36.4342 26.4078C36.4537 26.4078 36.4696 26.3778 36.4696 26.3412C36.4696 26.3046 36.4933 26.2291 36.5223 26.1735C36.5513 26.1179 36.5751 26.0446 36.5753 26.0106C36.5754 25.9766 36.5914 25.9488 36.6108 25.9488C36.6302 25.9488 36.6461 25.8932 36.6461 25.8252C36.6461 25.7573 36.662 25.7017 36.6814 25.7017C36.7008 25.7017 36.7167 25.654 36.7167 25.5958C36.7167 25.5375 36.7326 25.4899 36.752 25.4899C36.7714 25.4899 36.7873 25.4667 36.7873 25.4383C36.7873 25.3501 36.9062 24.9956 36.9358 24.9956C36.9512 24.9956 36.9638 24.9489 36.9638 24.8918C36.9638 24.8346 36.9797 24.7781 36.9991 24.7661C37.0185 24.7541 37.0344 24.6738 37.0344 24.5875C37.0344 24.5013 37.0503 24.4307 37.0697 24.4307C37.0891 24.4307 37.105 24.3602 37.105 24.2739C37.105 24.1877 37.1209 24.1073 37.1403 24.0953C37.1598 24.0833 37.1756 24.0319 37.1756 23.981C37.1756 23.8877 37.1919 23.8213 37.2954 23.4904C37.3266 23.3907 37.3522 23.2358 37.3522 23.1462C37.3522 23.0566 37.368 22.9832 37.3875 22.9832C37.408 22.9832 37.4228 22.8656 37.4228 22.7008C37.4228 22.5455 37.4374 22.4184 37.4552 22.4184C37.4897 22.4184 37.5015 22.3047 37.5704 21.3063C37.6264 20.4951 37.6259 19.1188 37.5694 18.4819C37.5452 18.2101 37.517 17.8645 37.5067 17.714C37.4965 17.5636 37.4733 17.4404 37.4554 17.4404C37.4375 17.4404 37.4228 17.3292 37.4228 17.1933C37.4228 17.0521 37.4076 16.9462 37.3875 16.9462C37.368 16.9462 37.3522 16.8816 37.3522 16.8026C37.3522 16.7237 37.3368 16.6304 37.3181 16.5954C37.2852 16.534 37.2267 16.2605 37.1872 15.9841C37.1767 15.9113 37.154 15.8517 37.1366 15.8517C37.1193 15.8517 37.105 15.7802 37.105 15.6929C37.105 15.6055 37.0891 15.534 37.0697 15.534C37.0503 15.534 37.0344 15.4793 37.0344 15.4125C37.0344 15.3457 37.0185 15.2812 36.9991 15.2692C36.9797 15.2572 36.9638 15.1927 36.9638 15.1259C36.9638 15.0591 36.9489 15.0044 36.9307 15.0044C36.9124 15.0044 36.8868 14.9329 36.8737 14.8455C36.8606 14.7582 36.8358 14.6867 36.8186 14.6867C36.8014 14.6867 36.7873 14.639 36.7873 14.5808C36.7873 14.5225 36.7714 14.4748 36.752 14.4748C36.7326 14.4748 36.7167 14.4192 36.7167 14.3513C36.7167 14.2833 36.7008 14.2277 36.6814 14.2277C36.662 14.2277 36.6461 14.1984 36.6461 14.1625C36.6461 14.1031 36.5874 13.9531 36.5026 13.7957C36.4844 13.762 36.4696 13.7024 36.4696 13.6633C36.4696 13.6242 36.4537 13.5922 36.4342 13.5922C36.4148 13.5922 36.3989 13.5525 36.3989 13.504C36.3989 13.4554 36.3831 13.4157 36.3636 13.4157C36.3442 13.4157 36.3283 13.368 36.3283 13.3098C36.3283 13.2515 36.3124 13.2039 36.293 13.2039C36.2736 13.2039 36.2577 13.1806 36.2577 13.1522C36.2577 13.1237 36.218 13.0293 36.1695 12.9424C36.1209 12.8554 36.0812 12.7595 36.0812 12.7293C36.0812 12.6991 36.0653 12.6743 36.0459 12.6743C36.0265 12.6743 36.0106 12.6346 36.0106 12.5861C36.0106 12.5375 35.9947 12.4978 35.9753 12.4978C35.9559 12.4978 35.94 12.466 35.94 12.4272C35.94 12.3883 35.9241 12.3566 35.9047 12.3566C35.8853 12.3566 35.8694 12.334 35.8694 12.3065C35.8694 12.2435 35.7548 12.0394 35.7193 12.039C35.7047 12.0389 35.6929 12.008 35.6929 11.9703C35.6929 11.9326 35.677 11.892 35.6575 11.88C35.6381 11.868 35.6222 11.8273 35.6222 11.7896C35.6222 11.7519 35.6064 11.7211 35.5869 11.7211C35.5675 11.7211 35.5516 11.6893 35.5516 11.6505C35.5516 11.6117 35.5357 11.5799 35.5163 11.5799C35.4969 11.5799 35.481 11.556 35.481 11.5269C35.481 11.4978 35.4677 11.474 35.4514 11.474C35.4351 11.474 35.3914 11.4106 35.3543 11.3331C35.3172 11.2557 35.275 11.1922 35.2604 11.1919C35.2458 11.1917 35.2339 11.1518 35.2339 11.1033C35.2339 11.0547 35.2205 11.015 35.2041 11.015C35.1878 11.015 35.1445 10.9594 35.1079 10.8914C35.0712 10.8235 35.0291 10.7679 35.0141 10.7679C34.999 10.7679 34.9868 10.7396 34.9868 10.7051C34.9868 10.6705 34.955 10.6193 34.9162 10.5914C34.8773 10.5634 34.8455 10.5122 34.8455 10.4776C34.8455 10.4431 34.8297 10.4148 34.8102 10.4148C34.7908 10.4148 34.7749 10.3978 34.7749 10.377C34.7749 10.3562 34.7551 10.317 34.7308 10.29C34.626 10.1731 34.5984 10.1332 34.5984 10.0986C34.5984 10.0783 34.5825 10.0618 34.5631 10.0618C34.5437 10.0618 34.5278 10.0372 34.5278 10.0072C34.5278 9.97723 34.4881 9.91294 34.4395 9.8644C34.391 9.81585 34.3513 9.76332 34.3513 9.74768C34.3513 9.732 34.3036 9.66934 34.2454 9.60837C34.1871 9.54743 34.1395 9.48039 34.1395 9.45942C34.1395 9.43841 34.1196 9.40078 34.0953 9.37575C34.0711 9.35068 34.0035 9.26959 33.9453 9.19548C33.887 9.12138 33.8195 9.04088 33.7952 9.01659C33.771 8.99227 33.7511 8.96275 33.7511 8.95096C33.7511 8.93094 33.7143 8.88731 33.5128 8.66846C33.4691 8.62104 33.4334 8.5725 33.4334 8.5606C33.4334 8.54874 33.3301 8.43728 33.2039 8.3129C33.0777 8.18856 32.9744 8.07703 32.9744 8.0651C32.9744 8.02337 32.2783 7.31449 32.075 7.14916C32.0034 7.09091 31.8354 6.93603 31.7017 6.80494C31.5681 6.67386 31.4495 6.56664 31.4383 6.56664C31.427 6.56664 31.379 6.53091 31.3315 6.4872C31.1127 6.28572 31.0691 6.2489 31.049 6.2489C31.0372 6.2489 31.0077 6.22906 30.9834 6.20477C30.9591 6.18051 30.8786 6.11297 30.8045 6.05472C30.7304 5.99647 30.6493 5.92897 30.6243 5.90468C30.5992 5.88042 30.5616 5.86055 30.5406 5.86055C30.5196 5.86055 30.4526 5.81289 30.3916 5.75463C30.3307 5.69638 30.268 5.64872 30.2523 5.64872C30.2367 5.64872 30.1841 5.609 30.1356 5.56046C30.0871 5.51192 30.0228 5.4722 29.9928 5.4722C29.9628 5.4722 29.9382 5.45631 29.9382 5.43689C29.9382 5.41748 29.9212 5.40159 29.9004 5.40159C29.8796 5.40159 29.8404 5.38171 29.8133 5.35746C29.6965 5.25267 29.6566 5.22507 29.622 5.22507C29.6017 5.22507 29.5852 5.20918 29.5852 5.18976C29.5852 5.17034 29.5569 5.15446 29.5224 5.15446C29.4878 5.15446 29.4366 5.12268 29.4086 5.08385C29.3807 5.04501 29.3295 5.01324 29.2949 5.01324C29.2604 5.01324 29.2321 5.00095 29.2321 4.98595C29.2321 4.97094 29.1765 4.92876 29.1086 4.89215C29.0406 4.85553 28.985 4.81222 28.985 4.79587C28.985 4.77949 28.9453 4.76611 28.8967 4.76611C28.8482 4.76611 28.8083 4.75417 28.8081 4.73963C28.8078 4.72508 28.7448 4.68304 28.668 4.64625C28.5912 4.60946 28.4967 4.5499 28.4581 4.51386C28.4194 4.47785 28.3633 4.44837 28.3333 4.44837C28.3034 4.44837 28.2789 4.43248 28.2789 4.41306C28.2789 4.39365 28.2481 4.37776 28.2104 4.37776C28.1727 4.37776 28.132 4.36187 28.12 4.34245C28.108 4.32304 28.0674 4.30715 28.0297 4.30715C27.992 4.30715 27.9611 4.29522 27.961 4.28067C27.9606 4.24515 27.7565 4.13063 27.6935 4.13063C27.666 4.13063 27.6434 4.11474 27.6434 4.09532C27.6434 4.0759 27.6117 4.06002 27.5728 4.06002C27.534 4.06002 27.5022 4.04413 27.5022 4.02471C27.5022 4.0053 27.4625 3.98941 27.4139 3.98941C27.3654 3.98941 27.3257 3.97352 27.3257 3.9541C27.3257 3.93469 27.3009 3.9188 27.2707 3.9188C27.2405 3.9188 27.1446 3.87908 27.0576 3.83054C26.9707 3.78199 26.8763 3.74228 26.8478 3.74228C26.8194 3.74228 26.7961 3.72639 26.7961 3.70697C26.7961 3.68756 26.7485 3.67167 26.6902 3.67167C26.632 3.67167 26.5843 3.65578 26.5843 3.63636C26.5843 3.61695 26.5446 3.60106 26.496 3.60106C26.4475 3.60106 26.4078 3.58517 26.4078 3.56575C26.4078 3.54634 26.3784 3.53045 26.3426 3.53045C26.2832 3.53045 26.1331 3.47177 25.9758 3.38697C25.9421 3.36879 25.8825 3.35393 25.8434 3.35393C25.8043 3.35393 25.7723 3.33804 25.7723 3.31862C25.7723 3.29921 25.7167 3.28332 25.6487 3.28332C25.5808 3.28332 25.5252 3.26743 25.5252 3.24801C25.5252 3.2286 25.4775 3.21271 25.4192 3.21271C25.361 3.21271 25.3133 3.19862 25.3133 3.18143C25.3133 3.1642 25.2418 3.13938 25.1545 3.12628C25.0671 3.11319 24.9956 3.08756 24.9956 3.06934C24.9956 3.05109 24.94 3.03619 24.872 3.03619C24.8041 3.03619 24.7485 3.0203 24.7485 3.00088C24.7485 2.98147 24.6849 2.96558 24.6072 2.96558C24.5296 2.96558 24.466 2.94969 24.466 2.93027C24.466 2.91086 24.3945 2.89497 24.3071 2.89497C24.2198 2.89497 24.1483 2.88074 24.1483 2.86337C24.1483 2.846 24.0887 2.82327 24.0159 2.81285C23.7395 2.77335 23.466 2.71478 23.4046 2.68194C23.3696 2.6632 23.2763 2.64784 23.1974 2.64784C23.1184 2.64784 23.0538 2.63195 23.0538 2.61253C23.0538 2.59237 22.9479 2.57723 22.8067 2.57723C22.6655 2.57723 22.5596 2.56208 22.5596 2.54192C22.5596 2.52117 22.436 2.50662 22.2595 2.50662C22.0944 2.50662 21.9594 2.49176 21.9594 2.47357C21.9594 2.45543 21.7886 2.43192 21.5799 2.42132C20.8638 2.38507 19.0115 2.37126 18.8526 2.40102ZM19.2939 8.97395C19.0415 9.01162 18.7674 9.05094 18.6849 9.06139C18.6024 9.07181 18.5349 9.09465 18.5349 9.11213C18.5349 9.12957 18.4634 9.14387 18.376 9.14387C18.2886 9.14387 18.2171 9.15975 18.2171 9.17917C18.2171 9.19859 18.1873 9.21447 18.1509 9.21447C18.1145 9.21447 17.9949 9.25419 17.8851 9.30274C17.7754 9.35128 17.6622 9.391 17.6336 9.391C17.605 9.391 17.5816 9.40688 17.5816 9.4263C17.5816 9.44572 17.5499 9.46161 17.511 9.46161C17.4722 9.46161 17.4404 9.47749 17.4404 9.49691C17.4404 9.51633 17.4007 9.53222 17.3522 9.53222C17.3036 9.53222 17.2639 9.5481 17.2639 9.56752C17.2639 9.58694 17.2321 9.60282 17.1933 9.60282C17.1545 9.60282 17.1227 9.61871 17.1227 9.63813C17.1227 9.65755 17.1027 9.67343 17.0782 9.67343C17.0537 9.67343 16.9909 9.71315 16.9385 9.76169C16.8862 9.81024 16.8188 9.84996 16.7888 9.84996C16.7589 9.84996 16.7343 9.86584 16.7343 9.88526C16.7343 9.90468 16.7026 9.92056 16.6637 9.92056C16.6249 9.92056 16.5931 9.93645 16.5931 9.95587C16.5931 9.97529 16.5779 9.99117 16.5594 9.99117C16.5409 9.99117 16.4868 10.0269 16.4392 10.0706C16.3127 10.1868 16.2458 10.2383 16.2216 10.2383C16.2098 10.2383 16.0984 10.3416 15.974 10.4678C15.8496 10.594 15.7315 10.6973 15.7115 10.6973C15.6915 10.6973 15.6752 10.7097 15.6752 10.7248C15.6752 10.74 15.5958 10.8357 15.4987 10.9375C15.4016 11.0393 15.3222 11.13 15.3222 11.1391C15.3222 11.1581 15.1982 11.3073 15.0904 11.418C15.0504 11.4592 14.9948 11.5442 14.9671 11.607C14.9393 11.6698 14.9071 11.7211 14.8956 11.7211C14.884 11.7211 14.8442 11.7845 14.8071 11.8619C14.77 11.9393 14.7277 12.0029 14.7132 12.0031C14.6986 12.0034 14.6867 12.0274 14.6867 12.0565C14.6867 12.0856 14.6708 12.1094 14.6514 12.1094C14.632 12.1094 14.6161 12.1492 14.6161 12.1977C14.6161 12.2462 14.6002 12.286 14.5808 12.286C14.5613 12.286 14.5455 12.3109 14.5455 12.3414C14.5455 12.372 14.5216 12.4208 14.4925 12.4499C14.4634 12.479 14.4395 12.5335 14.4395 12.5709C14.4395 12.6084 14.4237 12.639 14.4042 12.639C14.3848 12.639 14.3689 12.6787 14.3689 12.7273C14.3689 12.7758 14.353 12.8155 14.3336 12.8155C14.3142 12.8155 14.2983 12.8632 14.2983 12.9214C14.2983 12.9797 14.2824 13.0274 14.263 13.0274C14.2436 13.0274 14.2277 13.083 14.2277 13.1509C14.2277 13.2189 14.2151 13.2745 14.1997 13.2745C14.1731 13.2745 14.1224 13.4637 14.0436 13.857C14.0241 13.9541 14.001 14.1964 13.9921 14.3954C13.9833 14.5945 13.9612 14.7573 13.943 14.7573C13.9248 14.7573 13.91 14.8526 13.91 14.9691C13.91 15.0868 13.9256 15.1809 13.9453 15.1809C13.9666 15.1809 13.9806 15.3273 13.9806 15.5496C13.9806 15.7572 13.996 15.9277 14.0159 15.94C14.0353 15.952 14.0516 16.0125 14.0521 16.0745C14.0531 16.1983 14.1639 16.647 14.2031 16.6862C14.2166 16.6997 14.2277 16.7637 14.2277 16.8285C14.2277 16.8932 14.2436 16.9462 14.263 16.9462C14.2824 16.9462 14.2983 16.9859 14.2983 17.0344C14.2983 17.083 14.3142 17.1227 14.3336 17.1227C14.353 17.1227 14.3689 17.169 14.3689 17.2257C14.3689 17.2823 14.3808 17.3339 14.3954 17.3404C14.4315 17.3564 14.6173 17.7296 14.6166 17.7846C14.6163 17.8089 14.632 17.8288 14.6514 17.8288C14.6708 17.8288 14.6867 17.8605 14.6867 17.8994C14.6867 17.9382 14.6986 17.97 14.7132 17.97C14.7277 17.9701 14.7861 18.0535 14.8429 18.1554C14.8997 18.2573 14.9752 18.3664 15.0106 18.3978C15.046 18.4292 15.075 18.4727 15.075 18.4945C15.075 18.5373 15.1614 18.6526 15.2604 18.7419C15.2944 18.7726 15.3222 18.8145 15.3222 18.835C15.3222 18.8555 15.3539 18.8952 15.3928 18.9232C15.4316 18.9512 15.4634 18.9944 15.4634 19.0193C15.4634 19.0441 15.4834 19.0644 15.508 19.0644C15.5325 19.0644 15.5841 19.1066 15.6227 19.1582C15.7214 19.2901 15.8759 19.4528 15.9024 19.4528C15.9146 19.4528 15.9789 19.5044 16.0452 19.5675C16.2118 19.7262 16.2677 19.7705 16.3014 19.7705C16.3174 19.7705 16.3533 19.8023 16.3813 19.8411C16.4093 19.88 16.4532 19.9117 16.4789 19.9117C16.5046 19.9117 16.5684 19.9515 16.6208 20C16.6731 20.0485 16.736 20.0883 16.7605 20.0883C16.7849 20.0883 16.8049 20.1041 16.8049 20.1236C16.8049 20.143 16.8367 20.1589 16.8756 20.1589C16.9144 20.1589 16.9462 20.1723 16.9462 20.1887C16.9462 20.205 17.0693 20.2805 17.2198 20.3564C17.3702 20.4322 17.4987 20.5062 17.5051 20.5207C17.5116 20.5353 17.5553 20.5472 17.6022 20.5472C17.6492 20.5472 17.6876 20.5631 17.6876 20.5825C17.6876 20.6019 17.7339 20.6178 17.7905 20.6178C17.8472 20.6178 17.8988 20.6302 17.9053 20.6452C17.9227 20.6858 18.4756 20.865 18.5833 20.865C18.6343 20.865 18.6761 20.8808 18.6761 20.9003C18.6761 20.9202 18.7761 20.9356 18.9056 20.9356C19.035 20.9356 19.135 20.951 19.135 20.9709C19.135 20.9934 19.4469 21.0062 20 21.0062C20.5531 21.0062 20.865 20.9934 20.865 20.9709C20.865 20.951 20.965 20.9356 21.0944 20.9356C21.2239 20.9356 21.3239 20.9202 21.3239 20.9003C21.3239 20.8808 21.3657 20.865 21.4167 20.865C21.5244 20.865 22.0773 20.6858 22.0947 20.6452C22.1012 20.6302 22.1528 20.6178 22.2095 20.6178C22.2661 20.6178 22.3124 20.6019 22.3124 20.5825C22.3124 20.5631 22.3508 20.5472 22.3978 20.5472C22.4447 20.5472 22.4884 20.5353 22.4949 20.5207C22.5013 20.5062 22.6297 20.4322 22.7802 20.3564C22.9307 20.2805 23.0538 20.205 23.0538 20.1887C23.0538 20.1723 23.0856 20.1589 23.1244 20.1589C23.1633 20.1589 23.1951 20.143 23.1951 20.1236C23.1951 20.1041 23.2151 20.0883 23.2395 20.0883C23.264 20.0883 23.3269 20.0485 23.3792 20C23.4316 19.9515 23.4954 19.9117 23.5211 19.9117C23.5468 19.9117 23.5907 19.88 23.6187 19.8411C23.6467 19.8023 23.6826 19.7705 23.6986 19.7705C23.7323 19.7705 23.7882 19.7262 23.9548 19.5675C24.0211 19.5044 24.0845 19.4528 24.0957 19.4528C24.1226 19.4528 24.2895 19.2855 24.2895 19.2586C24.2895 19.2228 24.4609 19.0644 24.4997 19.0644C24.52 19.0644 24.5366 19.0441 24.5366 19.0193C24.5366 18.9944 24.5684 18.9512 24.6072 18.9232C24.6461 18.8952 24.6778 18.8542 24.6778 18.8321C24.6778 18.81 24.7176 18.762 24.7661 18.7256C24.8147 18.6891 24.8544 18.6393 24.8544 18.6148C24.8544 18.5902 24.8703 18.5702 24.8897 18.5702C24.9091 18.5702 24.925 18.5442 24.925 18.5125C24.925 18.4808 24.954 18.4292 24.9894 18.3978C25.0248 18.3664 25.1003 18.2573 25.1571 18.1554C25.2139 18.0535 25.2723 17.9701 25.2868 17.97C25.3014 17.97 25.3133 17.9382 25.3133 17.8994C25.3133 17.8605 25.3292 17.8288 25.3486 17.8288C25.368 17.8288 25.3839 17.7891 25.3839 17.7405C25.3839 17.692 25.3963 17.6523 25.4113 17.6523C25.4264 17.6523 25.4701 17.5809 25.5084 17.4937C25.5468 17.4065 25.59 17.335 25.6046 17.3348C25.6192 17.3347 25.6311 17.2868 25.6311 17.2286C25.6311 17.1703 25.647 17.1227 25.6664 17.1227C25.6858 17.1227 25.7017 17.083 25.7017 17.0344C25.7017 16.9859 25.7176 16.9462 25.737 16.9462C25.7564 16.9462 25.7723 16.8932 25.7723 16.8285C25.7723 16.7637 25.7834 16.6997 25.7969 16.6862C25.8361 16.647 25.9469 16.1983 25.9479 16.0745C25.9484 16.0125 25.9647 15.952 25.9841 15.94C26.004 15.9277 26.0194 15.7572 26.0194 15.5496C26.0194 15.3273 26.0334 15.1809 26.0547 15.1809C26.0744 15.1809 26.09 15.0868 26.09 14.9691C26.09 14.8526 26.0752 14.7573 26.057 14.7573C26.0388 14.7573 26.0167 14.5944 26.0079 14.3954C25.999 14.1964 25.9759 13.9541 25.9564 13.857C25.8776 13.4637 25.8269 13.2745 25.8003 13.2745C25.7849 13.2745 25.7723 13.2189 25.7723 13.1509C25.7723 13.083 25.7564 13.0274 25.737 13.0274C25.7176 13.0274 25.7017 12.9797 25.7017 12.9214C25.7017 12.8632 25.6858 12.8155 25.6664 12.8155C25.647 12.8155 25.6311 12.7758 25.6311 12.7273C25.6311 12.6787 25.6152 12.639 25.5958 12.639C25.5763 12.639 25.5605 12.6084 25.5605 12.5709C25.5605 12.5335 25.5366 12.479 25.5075 12.4499C25.4784 12.4208 25.4545 12.3729 25.4545 12.3435C25.4545 12.3142 25.4387 12.2803 25.4192 12.2683C25.3998 12.2563 25.3839 12.2157 25.3839 12.178C25.3839 12.1403 25.368 12.1094 25.3486 12.1094C25.3292 12.1094 25.3133 12.0856 25.3133 12.0565C25.3133 12.0274 25.3014 12.0034 25.2868 12.0031C25.2723 12.0029 25.23 11.9393 25.1929 11.8619C25.1558 11.7845 25.116 11.7211 25.1044 11.7211C25.0929 11.7211 25.0607 11.6698 25.0329 11.607C25.0052 11.5442 24.9496 11.4592 24.9096 11.418C24.8018 11.3073 24.6778 11.1581 24.6778 11.1391C24.6778 11.13 24.5984 11.0393 24.5013 10.9375C24.4042 10.8357 24.3248 10.74 24.3248 10.7248C24.3248 10.7097 24.3085 10.6973 24.2885 10.6973C24.2685 10.6973 24.1504 10.594 24.026 10.4678C23.9016 10.3416 23.7902 10.2383 23.7784 10.2383C23.7542 10.2383 23.6873 10.1868 23.5608 10.0706C23.5132 10.0269 23.4591 9.99117 23.4406 9.99117C23.4221 9.99117 23.4069 9.97529 23.4069 9.95587C23.4069 9.93645 23.3751 9.92056 23.3363 9.92056C23.2974 9.92056 23.2657 9.90468 23.2657 9.88526C23.2657 9.86584 23.2411 9.84996 23.2112 9.84996C23.1812 9.84996 23.1138 9.81024 23.0615 9.76169C23.0091 9.71315 22.9463 9.67343 22.9218 9.67343C22.8973 9.67343 22.8773 9.65755 22.8773 9.63813C22.8773 9.61871 22.8455 9.60282 22.8067 9.60282C22.7679 9.60282 22.7361 9.58694 22.7361 9.56752C22.7361 9.5481 22.6964 9.53222 22.6478 9.53222C22.5993 9.53222 22.5596 9.51633 22.5596 9.49691C22.5596 9.47749 22.5278 9.46161 22.489 9.46161C22.4501 9.46161 22.4184 9.44572 22.4184 9.4263C22.4184 9.40688 22.395 9.391 22.3664 9.391C22.3378 9.391 22.2246 9.35128 22.1149 9.30274C22.0051 9.25419 21.8855 9.21447 21.8491 9.21447C21.8127 9.21447 21.7829 9.19859 21.7829 9.17917C21.7829 9.15975 21.7114 9.14387 21.624 9.14387C21.5366 9.14387 21.4651 9.12957 21.4651 9.11213C21.4651 9.09465 21.3976 9.07199 21.3151 9.06175C21.2326 9.05151 20.9426 9.01084 20.6708 8.97137C20.0745 8.8848 19.8894 8.88515 19.2939 8.97395ZM0.0160282 20C0.0159929 20.7379 0.0206884 21.0447 0.0264078 20.6819C0.0321624 20.3192 0.0321624 19.7154 0.0264431 19.3404C0.0207237 18.9653 0.0160282 19.2621 0.0160282 20ZM18.8026 23.5393C18.7881 23.5539 18.6623 23.5765 18.5231 23.5896C18.1753 23.6224 17.8234 23.6843 17.7498 23.7255C17.7161 23.7445 17.6247 23.7599 17.5468 23.7599C17.4689 23.7599 17.4051 23.7758 17.4051 23.7952C17.4051 23.8147 17.3336 23.8305 17.2462 23.8305C17.1589 23.8305 17.0874 23.8464 17.0874 23.8658C17.0874 23.8853 17.0238 23.9011 16.9462 23.9011C16.8685 23.9011 16.8049 23.913 16.8049 23.9276C16.8049 23.9422 16.7003 23.9857 16.5723 24.0243C16.4444 24.0629 16.3323 24.1066 16.3231 24.1214C16.314 24.1362 16.2598 24.1483 16.2027 24.1483C16.1456 24.1483 16.0989 24.1642 16.0989 24.1836C16.0989 24.203 16.0512 24.2189 15.9929 24.2189C15.9347 24.2189 15.887 24.2348 15.887 24.2542C15.887 24.2736 15.8487 24.2895 15.8017 24.2895C15.7548 24.2895 15.7111 24.3014 15.7046 24.316C15.6885 24.3523 15.4377 24.466 15.3739 24.466C15.3455 24.466 15.3222 24.4819 15.3222 24.5013C15.3222 24.5207 15.2824 24.5366 15.2339 24.5366C15.1853 24.5366 15.1456 24.5525 15.1456 24.5719C15.1456 24.5914 15.1139 24.6072 15.075 24.6072C15.0362 24.6072 15.0044 24.6231 15.0044 24.6425C15.0044 24.662 14.9726 24.6778 14.9338 24.6778C14.895 24.6778 14.8632 24.6934 14.8632 24.7125C14.8632 24.7315 14.8235 24.7571 14.7749 24.7692C14.7264 24.7814 14.6867 24.8056 14.6867 24.8229C14.6867 24.8402 14.6549 24.8544 14.6161 24.8544C14.5772 24.8544 14.5455 24.8703 14.5455 24.8897C14.5455 24.9091 14.5216 24.925 14.4925 24.925C14.4634 24.925 14.4395 24.9409 14.4395 24.9603C14.4395 24.9797 14.4078 24.9956 14.3689 24.9956C14.3301 24.9956 14.2983 25.0091 14.2983 25.0255C14.2983 25.042 14.2308 25.0852 14.1483 25.1216C14.0658 25.1579 13.9725 25.216 13.9411 25.2505C13.9097 25.285 13.8581 25.3133 13.8264 25.3133C13.7947 25.3133 13.7688 25.3258 13.7688 25.341C13.7688 25.3563 13.7171 25.3988 13.654 25.4356C13.5909 25.4724 13.5136 25.5314 13.4822 25.5668C13.4508 25.6022 13.4071 25.6311 13.3851 25.6311C13.3631 25.6311 13.3451 25.647 13.3451 25.6664C13.3451 25.6858 13.3213 25.7017 13.2922 25.7017C13.2632 25.7017 13.1804 25.7573 13.1083 25.8252C13.0363 25.8932 12.9632 25.9488 12.9459 25.9488C12.9286 25.9488 12.8723 25.9926 12.8209 26.046C12.7694 26.0995 12.6639 26.1906 12.5864 26.2484C12.3656 26.4133 11.4034 27.3922 11.4034 27.4518C11.4034 27.4626 11.316 27.5575 11.2092 27.6626C11.1024 27.7677 11.015 27.8744 11.015 27.8996C11.015 27.9249 10.9832 27.9685 10.9444 27.9965C10.9056 28.0245 10.8738 28.0609 10.8738 28.0774C10.8738 28.0939 10.8539 28.1296 10.8297 28.1566C10.7249 28.2735 10.6973 28.3134 10.6973 28.348C10.6973 28.3683 10.6814 28.3848 10.662 28.3848C10.6425 28.3848 10.6267 28.4086 10.6267 28.4378C10.6267 28.4669 10.6108 28.4907 10.5914 28.4907C10.5719 28.4907 10.556 28.5146 10.556 28.5437C10.556 28.5728 10.5427 28.5966 10.5263 28.5966C10.5099 28.5966 10.4666 28.6523 10.43 28.7202C10.3934 28.7882 10.3512 28.8438 10.3362 28.8438C10.3212 28.8438 10.3089 28.8756 10.3089 28.9144C10.3089 28.9532 10.293 28.985 10.2736 28.985C10.2542 28.985 10.2383 29.0012 10.2383 29.021C10.2383 29.0639 10.0557 29.3505 10.0177 29.3674C10.0031 29.3739 9.99117 29.4097 9.99117 29.4469C9.99117 29.4841 9.97529 29.5146 9.95587 29.5146C9.93645 29.5146 9.92056 29.5463 9.92056 29.5852C9.92056 29.624 9.90468 29.6558 9.88526 29.6558C9.86584 29.6558 9.84996 29.6955 9.84996 29.744C9.84996 29.7926 9.83806 29.8324 9.82348 29.8324C9.8089 29.8325 9.76763 29.904 9.73172 29.9913C9.69582 30.0786 9.65211 30.15 9.63463 30.15C9.61712 30.15 9.60282 30.1898 9.60282 30.2383C9.60282 30.2868 9.58694 30.3266 9.56752 30.3266C9.5481 30.3266 9.53222 30.3583 9.53222 30.3972C9.53222 30.436 9.51633 30.4678 9.49691 30.4678C9.47749 30.4678 9.46161 30.5154 9.46161 30.5737C9.46161 30.632 9.44572 30.6796 9.4263 30.6796C9.40688 30.6796 9.391 30.7094 9.391 30.7458C9.391 30.7822 9.35128 30.9019 9.30274 31.0116C9.25419 31.1214 9.21447 31.2346 9.21447 31.2632C9.21447 31.2917 9.19859 31.3151 9.17917 31.3151C9.15975 31.3151 9.14387 31.3707 9.14387 31.4387C9.14387 31.5066 9.12964 31.5622 9.11227 31.5622C9.0949 31.5622 9.07252 31.6218 9.06259 31.6946C9.03432 31.9014 8.96311 32.1766 8.92833 32.2136C8.91096 32.232 8.89673 32.2996 8.89673 32.3636C8.89673 32.4277 8.88085 32.4801 8.86143 32.4801C8.84152 32.4801 8.82613 32.5802 8.82613 32.7096C8.82613 32.8391 8.81073 32.9391 8.79082 32.9391C8.7714 32.9391 8.75552 33.0257 8.75552 33.1316C8.75552 33.2375 8.73684 33.3651 8.71403 33.4151C8.67619 33.4983 8.68385 33.5169 8.80237 33.6287C8.87379 33.696 8.94807 33.7511 8.96741 33.7511C8.9868 33.7511 9.00265 33.767 9.00265 33.7864C9.00265 33.8058 9.02782 33.8217 9.05854 33.8217C9.08929 33.8217 9.16844 33.8773 9.23446 33.9453C9.30044 34.0132 9.37063 34.0688 9.39036 34.0688C9.41013 34.0688 9.4263 34.0847 9.4263 34.1041C9.4263 34.1236 9.4429 34.1395 9.4632 34.1395C9.4835 34.1395 9.53984 34.1792 9.58839 34.2277C9.63693 34.2763 9.68946 34.316 9.7051 34.316C9.72078 34.316 9.78344 34.3636 9.84441 34.4219C9.90535 34.4801 9.97921 34.5278 10.0085 34.5278C10.0378 34.5278 10.0618 34.5437 10.0618 34.5631C10.0618 34.5825 10.0788 34.5984 10.0996 34.5984C10.1204 34.5984 10.1596 34.6183 10.1867 34.6425C10.3091 34.7524 10.3447 34.7749 10.3957 34.7749C10.4256 34.7749 10.4501 34.7908 10.4501 34.8102C10.4501 34.8297 10.474 34.8455 10.5031 34.8455C10.5322 34.8455 10.556 34.8614 10.556 34.8808C10.556 34.9003 10.5878 34.9162 10.6267 34.9162C10.6655 34.9162 10.6973 34.9286 10.6973 34.9438C10.6973 34.9591 10.7489 35.0016 10.812 35.0384C10.8751 35.0752 10.9524 35.1342 10.9838 35.1696C11.0153 35.205 11.0748 35.2339 11.1162 35.2339C11.1576 35.2339 11.1915 35.2498 11.1915 35.2692C11.1915 35.2886 11.222 35.3045 11.2592 35.3045C11.2964 35.3045 11.3321 35.3172 11.3386 35.3328C11.3554 35.3732 11.6853 35.5516 11.7432 35.5516C11.7699 35.5516 11.7917 35.5675 11.7917 35.5869C11.7917 35.6064 11.8155 35.6222 11.8447 35.6222C11.8738 35.6222 11.8976 35.6381 11.8976 35.6575C11.8976 35.677 11.9294 35.6929 11.9682 35.6929C12.0071 35.6929 12.0388 35.7087 12.0388 35.7282C12.0388 35.7476 12.0687 35.7635 12.1051 35.7635C12.1416 35.7635 12.1912 35.7873 12.2154 35.8164C12.2395 35.8455 12.2812 35.8694 12.3079 35.8694C12.3347 35.8694 12.3566 35.8853 12.3566 35.9047C12.3566 35.9241 12.3883 35.94 12.4272 35.94C12.466 35.94 12.4978 35.9559 12.4978 35.9753C12.4978 35.9947 12.5266 36.0106 12.5618 36.0106C12.597 36.0106 12.7075 36.05 12.8074 36.0982C12.9073 36.1464 13.0533 36.2059 13.1318 36.2304C13.2103 36.2549 13.2745 36.2869 13.2745 36.3016C13.2745 36.3163 13.3142 36.3283 13.3628 36.3283C13.4113 36.3283 13.451 36.3442 13.451 36.3636C13.451 36.3831 13.4828 36.3989 13.5216 36.3989C13.5605 36.3989 13.5922 36.4148 13.5922 36.4342C13.5922 36.4537 13.6222 36.4696 13.6588 36.4696C13.6954 36.4696 13.7709 36.4933 13.8265 36.5223C13.8821 36.5513 13.9554 36.5751 13.9894 36.5753C14.0234 36.5754 14.0512 36.5914 14.0512 36.6108C14.0512 36.6302 14.1068 36.6461 14.1748 36.6461C14.2427 36.6461 14.2983 36.662 14.2983 36.6814C14.2983 36.7008 14.346 36.7167 14.4042 36.7167C14.4625 36.7167 14.5102 36.7326 14.5102 36.752C14.5102 36.7714 14.5644 36.7873 14.6308 36.7873C14.6971 36.7873 14.7567 36.7992 14.7632 36.8138C14.7776 36.8462 15.1156 36.9638 15.1945 36.9638C15.2259 36.9638 15.2515 36.9797 15.2515 36.9991C15.2515 37.0185 15.3151 37.0344 15.3928 37.0344C15.4704 37.0344 15.534 37.0503 15.534 37.0697C15.534 37.0891 15.6045 37.105 15.6908 37.105C15.777 37.105 15.8574 37.1209 15.8694 37.1403C15.8814 37.1598 15.9408 37.1756 16.0013 37.1756C16.0619 37.1756 16.1603 37.1903 16.2199 37.2082C16.5807 37.3165 16.7373 37.3522 16.8522 37.3522C16.9233 37.3522 16.9815 37.368 16.9815 37.3875C16.9815 37.4082 17.105 37.4228 17.2816 37.4228C17.4466 37.4228 17.5816 37.4374 17.5816 37.4552C17.5816 37.4886 17.6543 37.4965 18.6408 37.5694C19.6548 37.6445 20.7196 37.6257 22.1801 37.507C22.3111 37.4963 22.4184 37.473 22.4184 37.4552C22.4184 37.4374 22.5534 37.4228 22.7184 37.4228C22.895 37.4228 23.0185 37.4082 23.0185 37.3875C23.0185 37.368 23.0767 37.3522 23.1478 37.3522C23.2627 37.3522 23.4193 37.3165 23.7801 37.2082C23.8397 37.1903 23.9381 37.1756 23.9987 37.1756C24.0592 37.1756 24.1186 37.1598 24.1306 37.1403C24.1426 37.1209 24.223 37.105 24.3092 37.105C24.3955 37.105 24.466 37.0891 24.466 37.0697C24.466 37.0503 24.5296 37.0344 24.6072 37.0344C24.6849 37.0344 24.7485 37.0185 24.7485 36.9991C24.7485 36.9797 24.7741 36.9638 24.8055 36.9638C24.8844 36.9638 25.2224 36.8462 25.2368 36.8138C25.2433 36.7992 25.3029 36.7873 25.3692 36.7873C25.4356 36.7873 25.4899 36.7714 25.4899 36.752C25.4899 36.7326 25.5375 36.7167 25.5958 36.7167C25.654 36.7167 25.7017 36.7008 25.7017 36.6814C25.7017 36.662 25.7573 36.6461 25.8252 36.6461C25.8932 36.6461 25.9488 36.6302 25.9488 36.6108C25.9488 36.5914 25.9766 36.5754 26.0106 36.5753C26.0446 36.5751 26.1179 36.5513 26.1735 36.5223C26.2291 36.4933 26.3046 36.4696 26.3412 36.4696C26.3778 36.4696 26.4078 36.4537 26.4078 36.4342C26.4078 36.4148 26.4395 36.3989 26.4784 36.3989C26.5172 36.3989 26.549 36.3831 26.549 36.3636C26.549 36.3442 26.5887 36.3283 26.6372 36.3283C26.6858 36.3283 26.7255 36.3163 26.7255 36.3016C26.7255 36.2869 26.7897 36.2549 26.8682 36.2304C26.9467 36.2059 27.0927 36.1464 27.1926 36.0982C27.2925 36.05 27.403 36.0106 27.4382 36.0106C27.4734 36.0106 27.5022 35.9947 27.5022 35.9753C27.5022 35.9559 27.534 35.94 27.5728 35.94C27.6117 35.94 27.6434 35.9241 27.6434 35.9047C27.6434 35.8853 27.6653 35.8694 27.6921 35.8694C27.7188 35.8694 27.7605 35.8455 27.7846 35.8164C27.8088 35.7873 27.8584 35.7635 27.8949 35.7635C27.9313 35.7635 27.9612 35.7476 27.9612 35.7282C27.9612 35.7087 27.9929 35.6929 28.0318 35.6929C28.0706 35.6929 28.1024 35.677 28.1024 35.6575C28.1024 35.6381 28.1262 35.6222 28.1553 35.6222C28.1845 35.6222 28.2083 35.6064 28.2083 35.5869C28.2083 35.5675 28.2306 35.5516 28.2579 35.5516C28.2851 35.5516 28.4058 35.496 28.526 35.4281C28.6463 35.3601 28.759 35.3045 28.7766 35.3045C28.7941 35.3045 28.8085 35.2886 28.8085 35.2692C28.8085 35.2498 28.8424 35.2339 28.8838 35.2339C28.9252 35.2339 28.9847 35.205 29.0162 35.1696C29.0476 35.1342 29.1249 35.0752 29.188 35.0384C29.2511 35.0016 29.3027 34.9591 29.3027 34.9438C29.3027 34.9286 29.3345 34.9162 29.3733 34.9162C29.4122 34.9162 29.444 34.9003 29.444 34.8808C29.444 34.8614 29.4678 34.8455 29.4969 34.8455C29.526 34.8455 29.55 34.8336 29.5503 34.8191C29.5505 34.8045 29.6141 34.7622 29.6915 34.7251C29.7689 34.688 29.8323 34.6443 29.8323 34.628C29.8323 34.6118 29.8561 34.5984 29.8853 34.5984C29.9144 34.5984 29.9382 34.5825 29.9382 34.5631C29.9382 34.5437 29.9622 34.5278 29.9915 34.5278C30.0208 34.5278 30.0947 34.4801 30.1556 34.4219C30.2166 34.3636 30.2792 34.316 30.2949 34.316C30.3105 34.316 30.3631 34.2763 30.4116 34.2277C30.4602 34.1792 30.5165 34.1395 30.5368 34.1395C30.5571 34.1395 30.5737 34.1236 30.5737 34.1041C30.5737 34.0847 30.5899 34.0688 30.6096 34.0688C30.6294 34.0688 30.6996 34.0132 30.7655 33.9453C30.8316 33.8773 30.9107 33.8217 30.9415 33.8217C30.9722 33.8217 30.9974 33.8058 30.9974 33.7864C30.9974 33.767 31.0127 33.7511 31.0315 33.7511C31.1026 33.7511 31.3151 33.5198 31.3151 33.4424C31.3151 33.3986 31.2992 33.3628 31.2798 33.3628C31.2599 33.3628 31.2445 33.2627 31.2445 33.1333C31.2445 33.0038 31.2291 32.9038 31.2092 32.9038C31.1896 32.9038 31.1739 32.8096 31.1739 32.692C31.1739 32.5755 31.1596 32.4801 31.1423 32.4801C31.1249 32.4801 31.1029 32.4206 31.0934 32.3477C31.0839 32.275 31.0486 32.128 31.015 32.0212C30.9814 31.9144 30.9461 31.7674 30.9366 31.6946C30.9271 31.6218 30.9051 31.5622 30.8877 31.5622C30.8704 31.5622 30.8561 31.5146 30.8561 31.4563C30.8561 31.3981 30.8402 31.3504 30.8208 31.3504C30.8014 31.3504 30.7855 31.2948 30.7855 31.2268C30.7855 31.1589 30.7716 31.1033 30.7546 31.1033C30.7377 31.1033 30.7142 31.0557 30.7026 30.9976C30.691 30.9394 30.6493 30.8252 30.6099 30.7438C30.5706 30.6624 30.5384 30.567 30.5384 30.5318C30.5384 30.4966 30.5225 30.4678 30.5031 30.4678C30.4837 30.4678 30.4678 30.436 30.4678 30.3972C30.4678 30.3583 30.4519 30.3266 30.4325 30.3266C30.4131 30.3266 30.3972 30.2868 30.3972 30.2383C30.3972 30.1898 30.3813 30.15 30.3619 30.15C30.3425 30.15 30.3266 30.1261 30.3266 30.0968C30.3266 30.0359 30.1458 29.6794 30.1059 29.6617C30.0913 29.6552 30.0794 29.6195 30.0794 29.5822C30.0794 29.545 30.0635 29.5146 30.0441 29.5146C30.0247 29.5146 30.0088 29.4828 30.0088 29.444C30.0088 29.4051 29.9969 29.3732 29.9823 29.3731C29.9492 29.3729 29.8323 29.1706 29.8323 29.1135C29.8323 29.0902 29.8005 29.0483 29.7617 29.0203C29.7229 28.9923 29.6911 28.9411 29.6911 28.9066C29.6911 28.8721 29.6788 28.8438 29.6638 28.8438C29.6488 28.8438 29.6066 28.7882 29.57 28.7202C29.5334 28.6523 29.4901 28.5966 29.4737 28.5966C29.4573 28.5966 29.444 28.5649 29.444 28.526C29.444 28.4872 29.4281 28.4554 29.4086 28.4554C29.3892 28.4554 29.3733 28.4384 29.3733 28.4176C29.3733 28.3968 29.3535 28.3588 29.3292 28.3332C29.305 28.3077 29.2533 28.2424 29.2145 28.1882C29.1756 28.134 29.1081 28.0535 29.0644 28.0094C29.0208 27.9652 28.985 27.9123 28.985 27.8918C28.985 27.8714 28.9373 27.8047 28.8791 27.7438C28.8208 27.6828 28.7732 27.6194 28.7732 27.6029C28.7732 27.5863 28.6461 27.4457 28.4907 27.2904C28.3354 27.135 28.2083 26.9993 28.2083 26.9887C28.2083 26.9646 28.0413 26.7961 28.0174 26.7961C28.0077 26.7961 27.8748 26.673 27.722 26.5225C27.4296 26.2344 27.2672 26.09 27.2356 26.09C27.2251 26.09 27.1807 26.0543 27.1367 26.0106C27.0929 25.9669 26.9983 25.8914 26.9268 25.8429C26.8552 25.7944 26.7965 25.7427 26.7964 25.7282C26.7962 25.7136 26.7723 25.7017 26.7432 25.7017C26.714 25.7017 26.6902 25.6858 26.6902 25.6664C26.6902 25.647 26.6664 25.6311 26.6372 25.6311C26.6081 25.6311 26.5843 25.6152 26.5843 25.5958C26.5843 25.5763 26.5677 25.5605 26.5474 25.5605C26.5271 25.5605 26.4722 25.5247 26.4255 25.481C26.2754 25.3407 26.2353 25.3133 26.1798 25.3133C26.1498 25.3133 26.1253 25.2974 26.1253 25.278C26.1253 25.2586 26.1015 25.2427 26.0724 25.2427C26.0432 25.2427 26.0192 25.2308 26.019 25.2162C26.0188 25.2017 25.9513 25.1583 25.869 25.1198C25.7867 25.0813 25.6936 25.0217 25.6622 24.9874C25.6308 24.9531 25.5887 24.925 25.5685 24.925C25.5484 24.925 25.4336 24.8694 25.3133 24.8014C25.1931 24.7335 25.0724 24.6778 25.0452 24.6778C25.0179 24.6778 24.9956 24.662 24.9956 24.6425C24.9956 24.6231 24.9638 24.6072 24.925 24.6072C24.8861 24.6072 24.8544 24.5914 24.8544 24.5719C24.8544 24.5525 24.8147 24.5366 24.7661 24.5366C24.7176 24.5366 24.6778 24.5207 24.6778 24.5013C24.6778 24.4819 24.6529 24.466 24.6224 24.466C24.5918 24.466 24.5451 24.4442 24.5184 24.4175C24.4918 24.3909 24.3976 24.3477 24.3091 24.3216C24.2207 24.2955 24.1483 24.2617 24.1483 24.2465C24.1483 24.2313 24.0927 24.2189 24.0247 24.2189C23.9568 24.2189 23.9011 24.203 23.9011 24.1836C23.9011 24.1642 23.8624 24.1483 23.815 24.1483C23.7676 24.1483 23.719 24.1324 23.707 24.113C23.695 24.0936 23.6464 24.0777 23.599 24.0777C23.5516 24.0777 23.5128 24.0632 23.5128 24.0455C23.5128 24.0278 23.4493 24.0025 23.3718 23.9894C23.2942 23.9763 23.2218 23.9511 23.2108 23.9334C23.1999 23.9157 23.1283 23.9011 23.0518 23.9011C22.9752 23.9011 22.9126 23.8853 22.9126 23.8658C22.9126 23.8464 22.85 23.8305 22.7735 23.8305C22.6969 23.8305 22.6256 23.8163 22.6148 23.799C22.6041 23.7816 22.5356 23.7587 22.4627 23.7481C22.3898 23.7374 22.1951 23.7025 22.03 23.6704C21.865 23.6383 21.6227 23.6043 21.4916 23.5948C21.3606 23.5854 21.2533 23.563 21.2533 23.5452C21.2533 23.5062 18.8414 23.5004 18.8026 23.5393Z" fill="black" stroke="#F0F8FF" stroke-width="0.5"/>
</g>
</g>
<defs>
<clipPath id="clip0_1070_1357">
<rect width="40" height="40" fill="white"/>
</clipPath>
</defs>
</svg>
