<svg width="41" height="40" viewBox="0 0 41 40" fill="none" xmlns="http://www.w3.org/2000/svg">
<g clip-path="url(#clip0_1070_1363)">
<path fill-rule="evenodd" clip-rule="evenodd" d="M18.8865 0.0353045C18.8865 0.054722 18.807 0.070609 18.7099 0.070609C18.6128 0.070609 18.5334 0.086496 18.5334 0.105914C18.5334 0.125331 18.4778 0.141218 18.4098 0.141218C18.3419 0.141218 18.2863 0.157105 18.2863 0.176523C18.2863 0.19594 18.2544 0.211827 18.2155 0.211827C18.1765 0.211827 18.0624 0.251545 17.9618 0.300088C17.8611 0.348632 17.75 0.38835 17.7148 0.38835C17.6796 0.38835 17.6508 0.404237 17.6508 0.423654C17.6508 0.443071 17.619 0.458959 17.5802 0.458959C17.5414 0.458959 17.5095 0.470891 17.5094 0.485437C17.5094 0.499982 17.4379 0.541289 17.3506 0.577193C17.2633 0.613098 17.1918 0.656805 17.1918 0.674281C17.1918 0.691792 17.168 0.70609 17.1389 0.70609C17.1098 0.70609 17.0859 0.721977 17.0859 0.741395C17.0859 0.760812 17.0541 0.776699 17.0153 0.776699C16.9765 0.776699 16.9447 0.792586 16.9447 0.812004C16.9447 0.831421 16.9129 0.847308 16.8741 0.847308C16.8353 0.847308 16.8035 0.859418 16.8035 0.874245C16.8035 0.901783 16.7765 0.918623 16.5358 1.04148C16.4597 1.08032 16.3922 1.12399 16.3857 1.13857C16.3792 1.15315 16.3508 1.16505 16.3224 1.16505C16.2941 1.16505 16.2517 1.18115 16.2283 1.20085C16.1401 1.27492 15.9165 1.41218 15.884 1.41218C15.8654 1.41218 15.8503 1.42807 15.8503 1.44748C15.8503 1.4669 15.8185 1.48279 15.7797 1.48279C15.7408 1.48279 15.709 1.49868 15.709 1.51809C15.709 1.53751 15.6852 1.5534 15.6561 1.5534C15.627 1.5534 15.6031 1.56929 15.6031 1.5887C15.6031 1.60812 15.5714 1.62401 15.5325 1.62401C15.4937 1.62401 15.4619 1.63958 15.4619 1.65864C15.4619 1.67767 15.4222 1.70323 15.3737 1.71541C15.3251 1.72759 15.2854 1.75174 15.2854 1.76904C15.2854 1.78637 15.2536 1.80053 15.2148 1.80053C15.1759 1.80053 15.1442 1.81642 15.1442 1.83583C15.1442 1.85525 15.1203 1.87114 15.0912 1.87114C15.0621 1.87114 15.0383 1.88703 15.0383 1.90644C15.0383 1.92586 15.0138 1.94175 14.9838 1.94175C14.9329 1.94175 14.8972 1.96431 14.7748 2.07414C14.7477 2.09843 14.7006 2.11827 14.6701 2.11827C14.6396 2.11827 14.6146 2.13416 14.6146 2.15357C14.6146 2.17299 14.5908 2.18888 14.5617 2.18888C14.5325 2.18888 14.5087 2.20477 14.5087 2.22418C14.5087 2.2436 14.4769 2.25949 14.4381 2.25949C14.3993 2.25949 14.3673 2.27142 14.3672 2.28597C14.3669 2.30051 14.2955 2.3438 14.2083 2.38214C14.1211 2.42048 14.0497 2.46415 14.0497 2.47922C14.0497 2.4943 14.0259 2.50662 13.9968 2.50662C13.9677 2.50662 13.9438 2.52251 13.9438 2.54192C13.9438 2.56134 13.912 2.57723 13.8732 2.57723C13.8344 2.57723 13.8026 2.59312 13.8026 2.61253C13.8026 2.63195 13.7708 2.64784 13.732 2.64784C13.6932 2.64784 13.6614 2.66122 13.6614 2.6776C13.6614 2.69395 13.6058 2.73726 13.5378 2.77387C13.4699 2.81049 13.4143 2.85267 13.4143 2.86768C13.4143 2.88268 13.3825 2.89497 13.3436 2.89497C13.3048 2.89497 13.273 2.91086 13.273 2.93027C13.273 2.94969 13.2452 2.96561 13.2113 2.96561C13.1773 2.96565 13.1033 3.00537 13.0469 3.05387C12.9905 3.10242 12.923 3.1421 12.8968 3.1421C12.8707 3.1421 12.8494 3.15799 12.8494 3.17741C12.8494 3.19682 12.8176 3.21271 12.7788 3.21271C12.7399 3.21271 12.7082 3.2286 12.7082 3.24801C12.7082 3.26743 12.6764 3.28332 12.6376 3.28332C12.5987 3.28332 12.5669 3.29921 12.5669 3.31862C12.5669 3.33804 12.5499 3.35393 12.5291 3.35393C12.5083 3.35393 12.4692 3.3738 12.4421 3.39806C12.3196 3.50789 12.284 3.53045 12.233 3.53045C12.2031 3.53045 12.1786 3.54634 12.1786 3.56575C12.1786 3.58517 12.1468 3.60106 12.108 3.60106C12.0692 3.60106 12.0374 3.61695 12.0374 3.63636C12.0374 3.65578 12.0135 3.67167 11.9844 3.67167C11.9553 3.67167 11.9315 3.68756 11.9315 3.70697C11.9315 3.72639 11.9089 3.74228 11.8814 3.74228C11.8184 3.74228 11.6143 3.8568 11.6139 3.89232C11.6138 3.90687 11.5899 3.9188 11.5608 3.9188C11.5316 3.9188 11.5078 3.93469 11.5078 3.9541C11.5078 3.97352 11.476 3.98941 11.4372 3.98941C11.3984 3.98941 11.3666 4.0053 11.3666 4.02471C11.3666 4.04413 11.3348 4.06002 11.296 4.06002C11.2572 4.06002 11.2254 4.0723 11.2254 4.08731C11.2254 4.10231 11.1698 4.1445 11.1018 4.18111C11.0338 4.21772 10.9782 4.26104 10.9782 4.27739C10.9782 4.29377 10.9465 4.30715 10.9076 4.30715C10.8688 4.30715 10.837 4.32304 10.837 4.34245C10.837 4.36187 10.8145 4.37776 10.7869 4.37776C10.7239 4.37776 10.5198 4.49229 10.5195 4.5278C10.5194 4.54235 10.4955 4.55428 10.4663 4.55428C10.4372 4.55428 10.4134 4.57017 10.4134 4.58959C10.4134 4.609 10.3816 4.62489 10.3428 4.62489C10.3039 4.62489 10.2722 4.64078 10.2722 4.66019C10.2722 4.67961 10.2404 4.6955 10.2015 4.6955C10.1627 4.6955 10.1309 4.7075 10.1309 4.72219C10.1309 4.73688 10.0793 4.77172 10.0162 4.79965C9.90568 4.84858 9.86801 4.87365 9.76157 4.96911C9.73449 4.9934 9.68294 5.01324 9.647 5.01324C9.61106 5.01324 9.55878 5.04501 9.53078 5.08385C9.50278 5.12268 9.46084 5.15446 9.43758 5.15446C9.38049 5.15446 9.17823 5.27135 9.17795 5.3045C9.17784 5.31905 9.14596 5.33098 9.10713 5.33098C9.06829 5.33098 9.03652 5.34687 9.03652 5.36628C9.03652 5.3857 9.01269 5.40159 8.98356 5.40159C8.95443 5.40159 8.9306 5.41748 8.9306 5.43689C8.9306 5.45631 8.89883 5.4722 8.85999 5.4722C8.82116 5.4722 8.78928 5.48413 8.78917 5.49868C8.78889 5.53183 8.58663 5.64872 8.52954 5.64872C8.50628 5.64872 8.46434 5.68049 8.43634 5.71933C8.40834 5.75816 8.36436 5.78994 8.33858 5.78994C8.31281 5.78994 8.20481 5.84554 8.09858 5.9135C7.99232 5.98147 7.88983 6.03707 7.8708 6.03707C7.85173 6.03707 7.83616 6.05296 7.83616 6.07237C7.83616 6.09179 7.80439 6.10768 7.76556 6.10768C7.72672 6.10768 7.69495 6.11968 7.69495 6.13437C7.69495 6.14906 7.6433 6.1838 7.58021 6.21162C7.51708 6.23944 7.44616 6.27908 7.42257 6.2997C7.29795 6.40851 7.26833 6.42542 7.20217 6.42542C7.16252 6.42542 7.13 6.43735 7.12997 6.4519C7.1299 6.46644 7.04252 6.52547 6.93579 6.58305C6.82903 6.64064 6.74172 6.70019 6.74172 6.71545C6.74172 6.7307 6.70995 6.74316 6.67112 6.74316C6.63228 6.74316 6.60051 6.75516 6.60051 6.76985C6.60051 6.78454 6.54886 6.81899 6.48577 6.84646C6.42268 6.87389 6.36308 6.90595 6.35338 6.91767C6.31239 6.96713 6.13985 7.0609 6.08983 7.0609C6.06003 7.0609 6.03564 7.07679 6.03564 7.0962C6.03564 7.11562 6.0118 7.13151 5.98268 7.13151C5.95355 7.13151 5.92972 7.1474 5.92972 7.16681C5.92972 7.18623 5.89795 7.20212 5.85911 7.20212C5.82028 7.20212 5.7885 7.21801 5.7885 7.23742C5.7885 7.25684 5.76354 7.27273 5.73304 7.27273C5.7025 7.27273 5.65541 7.2926 5.62833 7.31686C5.5115 7.42164 5.47158 7.44925 5.43694 7.44925C5.41671 7.44925 5.40015 7.46514 5.40015 7.48455C5.40015 7.50397 5.36838 7.51986 5.32955 7.51986C5.29071 7.51986 5.25894 7.53232 5.25894 7.54754C5.25894 7.56279 5.20729 7.60533 5.1442 7.64212C5.08107 7.67891 5.00376 7.73793 4.97237 7.77331C4.94095 7.80869 4.89759 7.8376 4.87602 7.8376C4.85445 7.8376 4.74942 7.92498 4.64263 8.03177C4.53583 8.13857 4.43945 8.22595 4.42843 8.22595C4.40192 8.22595 4.23511 8.39343 4.23511 8.42005C4.23511 8.43149 4.14773 8.52618 4.04093 8.63043C3.93413 8.73469 3.84676 8.83725 3.84676 8.85829C3.84676 8.87933 3.79115 8.95552 3.72319 9.02757C3.65523 9.09963 3.59962 9.1791 3.59962 9.20417C3.59962 9.22927 3.58374 9.24978 3.56432 9.24978C3.5449 9.24978 3.52902 9.28155 3.52902 9.32039C3.52902 9.35922 3.51564 9.391 3.49925 9.391C3.48291 9.391 3.43959 9.4466 3.40298 9.51456C3.36637 9.58252 3.32598 9.63813 3.31316 9.63813C3.30038 9.63813 3.28259 9.68791 3.27366 9.74877C3.26102 9.83488 3.27189 9.8632 3.32263 9.87643C3.35846 9.88583 3.3878 9.90754 3.3878 9.9247C3.3878 9.94182 3.41957 9.95587 3.45841 9.95587C3.49724 9.95587 3.52902 9.97176 3.52902 9.99117C3.52902 10.0106 3.55133 10.0265 3.57858 10.0265C3.60584 10.0265 3.72651 10.0821 3.84676 10.15C3.967 10.218 4.08767 10.2736 4.11493 10.2736C4.14218 10.2736 4.1645 10.2895 4.1645 10.3089C4.1645 10.3283 4.19627 10.3442 4.23511 10.3442C4.27394 10.3442 4.30579 10.3561 4.30586 10.3707C4.30593 10.3853 4.37742 10.4265 4.46473 10.4625C4.55203 10.4984 4.62346 10.5421 4.62346 10.5595C4.62346 10.5771 4.66317 10.5914 4.71172 10.5914C4.76026 10.5914 4.79998 10.6072 4.79998 10.6267C4.79998 10.6461 4.83175 10.662 4.87059 10.662C4.90942 10.662 4.94137 10.6739 4.94158 10.6884C4.94183 10.703 5.00933 10.7464 5.09163 10.785C5.17396 10.8235 5.25177 10.8698 5.26455 10.8878C5.2893 10.9226 5.40015 10.8311 5.40015 10.7759C5.40015 10.7581 5.43984 10.6974 5.48838 10.641C5.53689 10.5845 5.57661 10.5186 5.57664 10.4943C5.57664 10.47 5.59256 10.4501 5.61198 10.4501C5.6314 10.4501 5.64729 10.4335 5.64729 10.4132C5.64729 10.3929 5.68301 10.3397 5.72672 10.2949C5.8696 10.1483 5.96503 10.0266 5.96503 9.99089C5.96503 9.97165 5.98081 9.95587 6.00005 9.95587C6.03574 9.95587 6.15747 9.86044 6.30402 9.71756C6.34882 9.67386 6.4021 9.63813 6.4224 9.63813C6.4427 9.63813 6.45929 9.62224 6.45929 9.60282C6.45929 9.58341 6.48379 9.56752 6.51373 9.56752C6.54367 9.56752 6.58737 9.55142 6.61082 9.53172C6.69901 9.45765 6.92266 9.32039 6.95511 9.32039C6.97368 9.32039 6.98886 9.3045 6.98886 9.28508C6.98886 9.26567 7.02063 9.24978 7.05947 9.24978C7.0983 9.24978 7.13007 9.23389 7.13007 9.21447C7.13007 9.19506 7.14564 9.17917 7.16471 9.17917C7.18374 9.17917 7.28623 9.12357 7.39249 9.0556C7.49872 8.98764 7.60672 8.93204 7.63249 8.93204C7.65827 8.93204 7.70225 8.90026 7.73025 8.86143C7.75825 8.82259 7.80019 8.79082 7.82345 8.79082C7.88054 8.79082 8.0828 8.67393 8.08308 8.64078C8.08319 8.62623 8.11507 8.6143 8.1539 8.6143C8.19274 8.6143 8.22451 8.59841 8.22451 8.57899C8.22451 8.55958 8.24834 8.54369 8.27747 8.54369C8.3066 8.54369 8.33043 8.5278 8.33043 8.50838C8.33043 8.48897 8.3622 8.47308 8.40104 8.47308C8.43987 8.47308 8.47165 8.45959 8.47165 8.44314C8.47165 8.42665 8.53918 8.38344 8.62169 8.34708C8.70423 8.31075 8.79744 8.25271 8.82882 8.21815C8.86024 8.18362 8.91299 8.15534 8.9461 8.15534C8.97918 8.15534 9.0284 8.1355 9.05548 8.11121C9.17791 8.00138 9.21357 7.97882 9.26451 7.97882C9.29445 7.97882 9.31895 7.96293 9.31895 7.94351C9.31895 7.9241 9.34278 7.90821 9.37191 7.90821C9.40104 7.90821 9.42487 7.89232 9.42487 7.8729C9.42487 7.85349 9.45664 7.8376 9.49548 7.8376C9.53431 7.8376 9.56608 7.8256 9.56608 7.81091C9.56608 7.79622 9.6177 7.76177 9.68082 7.7343C9.74391 7.70687 9.80351 7.67481 9.81322 7.66309C9.8542 7.61363 10.0267 7.51986 10.0767 7.51986C10.1065 7.51986 10.1309 7.50397 10.1309 7.48455C10.1309 7.46514 10.1627 7.44925 10.2015 7.44925C10.2404 7.44925 10.2722 7.43587 10.2722 7.41949C10.2722 7.40314 10.3278 7.35982 10.3957 7.32321C10.4637 7.2866 10.5193 7.24441 10.5193 7.22941C10.5193 7.2144 10.5511 7.20212 10.5899 7.20212C10.6287 7.20212 10.6605 7.18623 10.6605 7.16681C10.6605 7.1474 10.6923 7.13151 10.7311 7.13151C10.7699 7.13151 10.8017 7.11562 10.8017 7.0962C10.8017 7.07679 10.8256 7.0609 10.8547 7.0609C10.8838 7.0609 10.9076 7.0466 10.9076 7.02909C10.9076 7.01162 10.9791 6.96791 11.0664 6.932C11.1537 6.8961 11.2252 6.85479 11.2252 6.84025C11.2253 6.8257 11.2572 6.81377 11.296 6.81377C11.3348 6.81377 11.3666 6.79788 11.3666 6.77846C11.3666 6.75905 11.3904 6.74316 11.4196 6.74316C11.4487 6.74316 11.4725 6.72727 11.4725 6.70786C11.4725 6.68844 11.5043 6.67255 11.5431 6.67255C11.582 6.67255 11.6137 6.66027 11.6137 6.64526C11.6137 6.63026 11.6693 6.58807 11.7373 6.55146C11.8053 6.51485 11.8609 6.47153 11.8609 6.45518C11.8609 6.4388 11.8926 6.42542 11.9315 6.42542C11.9703 6.42542 12.0021 6.40953 12.0021 6.39011C12.0021 6.3707 12.0338 6.35481 12.0727 6.35481C12.1115 6.35481 12.1433 6.33892 12.1433 6.31951C12.1433 6.30009 12.1647 6.2842 12.1908 6.2842C12.217 6.2842 12.2755 6.252 12.3209 6.21264C12.3663 6.17327 12.4402 6.13183 12.4852 6.12053C12.5302 6.10927 12.5669 6.08586 12.5669 6.06856C12.5669 6.05123 12.5987 6.03707 12.6376 6.03707C12.6764 6.03707 12.7082 6.02461 12.7082 6.00936C12.7082 5.9941 12.7955 5.93455 12.9022 5.87696C13.009 5.81938 13.0963 5.76035 13.0964 5.74581C13.0964 5.73126 13.1283 5.71933 13.1671 5.71933C13.206 5.71933 13.2377 5.70344 13.2377 5.68402C13.2377 5.66461 13.2616 5.64872 13.2907 5.64872C13.3198 5.64872 13.3436 5.63283 13.3436 5.61342C13.3436 5.594 13.3754 5.57811 13.4143 5.57811C13.4531 5.57811 13.4849 5.56254 13.4849 5.54348C13.4849 5.52445 13.5246 5.49889 13.5731 5.48671C13.6217 5.47453 13.6614 5.45038 13.6614 5.43308C13.6614 5.41575 13.6932 5.40159 13.732 5.40159C13.7708 5.40159 13.8026 5.3857 13.8026 5.36628C13.8026 5.34687 13.8264 5.33098 13.8556 5.33098C13.8847 5.33098 13.9085 5.31509 13.9085 5.29568C13.9085 5.27626 13.9403 5.26037 13.9791 5.26037C14.018 5.26037 14.0497 5.24703 14.0497 5.23075C14.0497 5.21444 14.1131 5.17077 14.1906 5.13366C14.268 5.09656 14.3315 5.05426 14.3318 5.03972C14.332 5.02517 14.356 5.01324 14.3851 5.01324C14.4143 5.01324 14.4381 4.99735 14.4381 4.97793C14.4381 4.95852 14.4699 4.94263 14.5087 4.94263C14.5475 4.94263 14.5793 4.92847 14.5793 4.91114C14.5793 4.89384 14.619 4.86969 14.6676 4.85751C14.7161 4.84533 14.7558 4.81977 14.7558 4.80074C14.7558 4.78168 14.7876 4.76611 14.8264 4.76611C14.8653 4.76611 14.897 4.75022 14.897 4.7308C14.897 4.71139 14.9209 4.6955 14.95 4.6955C14.9791 4.6955 15.003 4.67961 15.003 4.66019C15.003 4.64078 15.0347 4.62489 15.0736 4.62489C15.1124 4.62489 15.1442 4.609 15.1442 4.58959C15.1442 4.57017 15.1594 4.55428 15.1779 4.55428C15.2104 4.55428 15.434 4.41702 15.5222 4.34295C15.5457 4.32325 15.588 4.30715 15.6163 4.30715C15.6447 4.30715 15.6731 4.29522 15.6796 4.28067C15.6861 4.26609 15.7536 4.22242 15.8298 4.18358C16.0705 4.06072 16.0974 4.04388 16.0974 4.01635C16.0974 4.00152 16.1292 3.98941 16.168 3.98941C16.2068 3.98941 16.2386 3.97352 16.2386 3.9541C16.2386 3.93469 16.2704 3.9188 16.3092 3.9188C16.3481 3.9188 16.3798 3.90291 16.3798 3.8835C16.3798 3.86408 16.3969 3.84819 16.4176 3.84819C16.4385 3.84819 16.4776 3.82835 16.5047 3.80406C16.6271 3.69423 16.6628 3.67167 16.7137 3.67167C16.7437 3.67167 16.7682 3.65578 16.7682 3.63636C16.7682 3.61695 16.8079 3.60106 16.8564 3.60106C16.905 3.60106 16.9447 3.58768 16.9447 3.5713C16.9447 3.55495 17.0003 3.51163 17.0683 3.47502C17.1362 3.43841 17.1918 3.39622 17.1918 3.38122C17.1918 3.36621 17.2236 3.35393 17.2624 3.35393C17.3013 3.35393 17.3331 3.33804 17.3331 3.31862C17.3331 3.29921 17.3569 3.28332 17.386 3.28332C17.4151 3.28332 17.439 3.26743 17.439 3.24801C17.439 3.2286 17.4707 3.21271 17.5096 3.21271C17.5484 3.21271 17.5804 3.20078 17.5806 3.18623C17.5808 3.17169 17.6438 3.12964 17.7206 3.09285C17.7974 3.05606 17.8919 2.99651 17.9306 2.96046C17.9692 2.92445 18.0254 2.89497 18.0553 2.89497C18.0853 2.89497 18.1098 2.87908 18.1098 2.85966C18.1098 2.84025 18.1323 2.82436 18.1599 2.82436C18.2228 2.82436 18.427 2.70983 18.4273 2.67432C18.4274 2.65977 18.4593 2.64784 18.4981 2.64784C18.5369 2.64784 18.5687 2.63195 18.5687 2.61253C18.5687 2.59312 18.6084 2.57723 18.657 2.57723C18.7055 2.57723 18.7452 2.56134 18.7452 2.54192C18.7452 2.52251 18.785 2.50662 18.8335 2.50662C18.882 2.50662 18.9218 2.49073 18.9218 2.47132C18.9218 2.4519 18.9625 2.43601 19.0123 2.43601C19.0622 2.43601 19.1365 2.41808 19.1775 2.39612C19.4538 2.24823 20.7198 2.24823 20.9961 2.39612C21.0371 2.41808 21.1114 2.43601 21.1613 2.43601C21.2111 2.43601 21.2519 2.4519 21.2519 2.47132C21.2519 2.49073 21.2916 2.50662 21.3401 2.50662C21.3887 2.50662 21.4284 2.52251 21.4284 2.54192C21.4284 2.56134 21.4524 2.57723 21.4818 2.57723C21.5306 2.57723 21.6038 2.60812 21.7461 2.68886C21.7752 2.70535 21.8547 2.74658 21.9226 2.78044C21.9906 2.8143 22.0515 2.85391 22.058 2.86849C22.0645 2.88304 22.1002 2.89497 22.1374 2.89497C22.1746 2.89497 22.2051 2.90821 22.2051 2.92441C22.2051 2.94058 22.2925 2.99954 22.3992 3.05543C22.506 3.11128 22.5934 3.16953 22.5934 3.18485C22.5934 3.20018 22.6252 3.21271 22.664 3.21271C22.7029 3.21271 22.7346 3.2286 22.7346 3.24801C22.7346 3.26743 22.7585 3.28332 22.7876 3.28332C22.8167 3.28332 22.8406 3.29921 22.8406 3.31862C22.8406 3.33804 22.8723 3.35393 22.9112 3.35393C22.95 3.35393 22.9819 3.36586 22.982 3.38041C22.9823 3.41592 23.1864 3.53045 23.2494 3.53045C23.277 3.53045 23.2995 3.54634 23.2995 3.56575C23.2995 3.58517 23.3233 3.60106 23.3525 3.60106C23.3816 3.60106 23.4054 3.61695 23.4054 3.63636C23.4054 3.65578 23.4304 3.67167 23.4609 3.67167C23.4914 3.67167 23.5385 3.69151 23.5656 3.7158C23.688 3.82563 23.7237 3.84819 23.7746 3.84819C23.8046 3.84819 23.8291 3.86408 23.8291 3.8835C23.8291 3.90291 23.8529 3.9188 23.882 3.9188C23.9112 3.9188 23.935 3.93469 23.935 3.9541C23.935 3.97352 23.9668 3.98941 24.0056 3.98941C24.0444 3.98941 24.0762 4.00152 24.0762 4.01635C24.0762 4.04388 24.1032 4.06072 24.3439 4.18358C24.42 4.22242 24.4875 4.26609 24.494 4.28067C24.5005 4.29522 24.5362 4.30715 24.5734 4.30715C24.6107 4.30715 24.6412 4.31908 24.6412 4.33363C24.6413 4.34817 24.7286 4.4072 24.8354 4.46478C24.9421 4.52237 25.0294 4.58192 25.0294 4.59718C25.0294 4.61243 25.0612 4.62489 25.1 4.62489C25.1389 4.62489 25.1707 4.63689 25.1707 4.65158C25.1707 4.66627 25.2223 4.70101 25.2854 4.72883C25.3485 4.75665 25.4211 4.80025 25.4468 4.82574C25.4724 4.85119 25.5161 4.87202 25.5439 4.87202C25.5716 4.87202 25.5943 4.88791 25.5943 4.90733C25.5943 4.92674 25.6261 4.94263 25.6649 4.94263C25.7038 4.94263 25.7355 4.95852 25.7355 4.97793C25.7355 4.99735 25.7673 5.01324 25.8061 5.01324C25.845 5.01324 25.8767 5.02913 25.8767 5.04854C25.8767 5.06796 25.8938 5.08385 25.9146 5.08385C25.9354 5.08385 25.9745 5.10372 26.0016 5.12798C26.1241 5.23781 26.1597 5.26037 26.2107 5.26037C26.2406 5.26037 26.2651 5.27626 26.2651 5.29568C26.2651 5.31509 26.2889 5.33098 26.318 5.33098C26.3472 5.33098 26.371 5.34687 26.371 5.36628C26.371 5.3857 26.4028 5.40159 26.4416 5.40159C26.4804 5.40159 26.5122 5.41748 26.5122 5.43689C26.5122 5.45631 26.5421 5.4722 26.5785 5.4722C26.615 5.4722 26.6646 5.49603 26.6887 5.52515C26.7129 5.55428 26.7546 5.57811 26.7813 5.57811C26.8081 5.57811 26.83 5.594 26.83 5.61342C26.83 5.63283 26.8538 5.64872 26.8829 5.64872C26.912 5.64872 26.9359 5.66461 26.9359 5.68402C26.9359 5.70344 26.9677 5.71933 27.0065 5.71933C27.0453 5.71933 27.0771 5.73126 27.0772 5.74581C27.0772 5.76035 27.1646 5.81793 27.2713 5.87372C27.3781 5.9295 27.4654 5.98906 27.4654 6.00611C27.4654 6.02312 27.4972 6.03707 27.5361 6.03707C27.5749 6.03707 27.6067 6.05296 27.6067 6.07237C27.6067 6.09179 27.6345 6.10771 27.6684 6.10771C27.7024 6.10775 27.7764 6.14747 27.8328 6.19598C27.8892 6.24452 27.9567 6.2842 27.9829 6.2842C28.009 6.2842 28.0303 6.30009 28.0303 6.31951C28.0303 6.33892 28.0621 6.35481 28.1009 6.35481C28.1398 6.35481 28.1715 6.3707 28.1715 6.39011C28.1715 6.40953 28.2033 6.42542 28.2421 6.42542C28.281 6.42542 28.3128 6.44131 28.3128 6.46072C28.3128 6.48014 28.3366 6.49603 28.3657 6.49603C28.3948 6.49603 28.4187 6.50951 28.4187 6.52597C28.4187 6.54245 28.4822 6.58457 28.5599 6.61959C28.6376 6.65462 28.7011 6.69673 28.7011 6.71322C28.7011 6.72967 28.7329 6.74316 28.7717 6.74316C28.8105 6.74316 28.8423 6.75905 28.8423 6.77846C28.8423 6.79788 28.8662 6.81377 28.8953 6.81377C28.9244 6.81377 28.9483 6.8257 28.9484 6.84025C28.9484 6.85479 29.0199 6.8961 29.1072 6.932C29.1946 6.96791 29.266 7.01162 29.266 7.02909C29.266 7.0466 29.2977 7.0609 29.3366 7.0609C29.3754 7.0609 29.4072 7.07679 29.4072 7.0962C29.4072 7.11562 29.431 7.13151 29.4601 7.13151C29.4893 7.13151 29.5131 7.1474 29.5131 7.16681C29.5131 7.18623 29.5449 7.20212 29.5837 7.20212C29.6226 7.20212 29.6543 7.2144 29.6543 7.22941C29.6543 7.24441 29.7099 7.2866 29.7779 7.32321C29.8459 7.35982 29.9015 7.40314 29.9015 7.41949C29.9015 7.43587 29.9332 7.44925 29.9721 7.44925C30.0109 7.44925 30.0427 7.46514 30.0427 7.48455C30.0427 7.50397 30.0671 7.51986 30.0969 7.51986C30.1469 7.51986 30.3194 7.61363 30.3604 7.66309C30.3701 7.67481 30.4297 7.70687 30.4928 7.7343C30.5559 7.76177 30.6075 7.79622 30.6075 7.81091C30.6075 7.8256 30.6393 7.8376 30.6782 7.8376C30.717 7.8376 30.7488 7.8496 30.7488 7.86429C30.7488 7.87898 30.8004 7.91372 30.8635 7.94154C30.9266 7.96936 30.9976 8.009 31.0211 8.02962C31.1458 8.13843 31.1754 8.15534 31.2415 8.15534C31.2812 8.15534 31.3137 8.16727 31.3137 8.18182C31.3138 8.19636 31.4012 8.25539 31.5079 8.31297C31.6147 8.37056 31.702 8.43011 31.702 8.44537C31.702 8.46062 31.7338 8.47308 31.7726 8.47308C31.8114 8.47308 31.8432 8.48897 31.8432 8.50838C31.8432 8.5278 31.867 8.54369 31.8962 8.54369C31.9253 8.54369 31.9491 8.55958 31.9491 8.57899C31.9491 8.59841 31.9809 8.6143 32.0197 8.6143C32.0586 8.6143 32.0904 8.62623 32.0905 8.64078C32.0908 8.67393 32.2931 8.79082 32.3502 8.79082C32.3734 8.79082 32.4154 8.82259 32.4434 8.86143C32.4714 8.90026 32.5292 8.93204 32.5718 8.93204C32.6144 8.93204 32.6546 8.94397 32.6611 8.95852C32.678 8.99661 32.9647 9.17917 33.0075 9.17917C33.0273 9.17917 33.0436 9.19506 33.0436 9.21447C33.0436 9.23389 33.0753 9.24978 33.1142 9.24978C33.153 9.24978 33.1848 9.26567 33.1848 9.28508C33.1848 9.3045 33.2 9.32039 33.2185 9.32039C33.251 9.32039 33.4746 9.45765 33.5628 9.53172C33.5863 9.55142 33.63 9.56752 33.6599 9.56752C33.6898 9.56752 33.7143 9.58341 33.7143 9.60282C33.7143 9.62224 33.7309 9.63813 33.7512 9.63813C33.7715 9.63813 33.8248 9.67386 33.8696 9.71756C34.0162 9.86044 34.1379 9.95587 34.1736 9.95587C34.1928 9.95587 34.2086 9.97165 34.2086 9.99089C34.2086 10.0266 34.304 10.1483 34.4469 10.2949C34.4906 10.3397 34.5263 10.3929 34.5263 10.4132C34.5263 10.4335 34.5422 10.4501 34.5616 10.4501C34.5811 10.4501 34.597 10.47 34.597 10.4943C34.597 10.5186 34.6367 10.5845 34.6852 10.641C34.7338 10.6974 34.7735 10.7581 34.7735 10.7759C34.7735 10.8311 34.8843 10.9226 34.9091 10.8878C34.9219 10.8698 34.9997 10.8235 35.082 10.785C35.1643 10.7464 35.2318 10.703 35.232 10.6884C35.2323 10.6739 35.2642 10.662 35.303 10.662C35.3419 10.662 35.3737 10.6461 35.3737 10.6267C35.3737 10.6072 35.4134 10.5914 35.4619 10.5914C35.5105 10.5914 35.5502 10.5771 35.5502 10.5595C35.5502 10.5421 35.6216 10.4984 35.7089 10.4625C35.7962 10.4265 35.8677 10.3853 35.8678 10.3707C35.8678 10.3561 35.8997 10.3442 35.9385 10.3442C35.9774 10.3442 36.0091 10.3283 36.0091 10.3089C36.0091 10.2895 36.0314 10.2736 36.0587 10.2736C36.086 10.2736 36.2066 10.218 36.3269 10.15C36.4471 10.0821 36.5678 10.0265 36.595 10.0265C36.6223 10.0265 36.6446 10.0106 36.6446 9.99117C36.6446 9.97176 36.6764 9.95587 36.7152 9.95587C36.7541 9.95587 36.7858 9.94182 36.7858 9.9247C36.7858 9.90754 36.8152 9.88583 36.851 9.87643C36.9017 9.8632 36.9126 9.83488 36.9 9.74877C36.891 9.68791 36.8732 9.63813 36.8605 9.63813C36.8477 9.63813 36.8073 9.58252 36.7706 9.51456C36.734 9.4466 36.6907 9.391 36.6744 9.391C36.658 9.391 36.6446 9.35922 36.6446 9.32039C36.6446 9.28155 36.6287 9.24978 36.6093 9.24978C36.5899 9.24978 36.574 9.22927 36.574 9.20417C36.574 9.1791 36.5184 9.09963 36.4504 9.02757C36.3825 8.95552 36.3269 8.87933 36.3269 8.85829C36.3269 8.83725 36.2395 8.73469 36.1327 8.63043C36.0259 8.52618 35.9385 8.43149 35.9385 8.42005C35.9385 8.39294 35.7715 8.22595 35.7444 8.22595C35.7085 8.22595 35.5502 8.05455 35.5502 8.01571C35.5502 7.99541 35.5263 7.97882 35.4972 7.97882C35.4681 7.97882 35.4443 7.96293 35.4443 7.94351C35.4443 7.9241 35.4204 7.90821 35.3913 7.90821C35.3622 7.90821 35.3383 7.89232 35.3383 7.8729C35.3383 7.85349 35.3203 7.8376 35.2983 7.8376C35.2764 7.8376 35.2327 7.80869 35.2013 7.77331C35.1699 7.73793 35.0926 7.67891 35.0294 7.64212C34.9663 7.60533 34.9147 7.56279 34.9147 7.54754C34.9147 7.53232 34.8829 7.51986 34.8441 7.51986C34.8053 7.51986 34.7735 7.50397 34.7735 7.48455C34.7735 7.46514 34.7565 7.44925 34.7357 7.44925C34.7148 7.44925 34.6757 7.42941 34.6486 7.40512C34.5262 7.29529 34.4905 7.27273 34.4396 7.27273C34.4096 7.27273 34.3851 7.25684 34.3851 7.23742C34.3851 7.21801 34.3613 7.20212 34.3322 7.20212C34.303 7.20212 34.2792 7.18623 34.2792 7.16681C34.2792 7.1474 34.2474 7.13151 34.2086 7.13151C34.1698 7.13151 34.138 7.11562 34.138 7.0962C34.138 7.07679 34.1082 7.0609 34.0717 7.0609C34.0353 7.0609 33.9857 7.03707 33.9615 7.00794C33.9373 6.97882 33.8956 6.95499 33.8689 6.95499C33.8421 6.95499 33.8203 6.9391 33.8203 6.91968C33.8203 6.90026 33.7964 6.88438 33.7673 6.88438C33.7382 6.88438 33.7143 6.86849 33.7143 6.84907C33.7143 6.82966 33.6826 6.81377 33.6437 6.81377C33.6049 6.81377 33.5731 6.79788 33.5731 6.77846C33.5731 6.75905 33.5413 6.74316 33.5025 6.74316C33.4637 6.74316 33.4319 6.7307 33.4319 6.71545C33.4319 6.70019 33.3446 6.64064 33.2378 6.58305C33.1311 6.52547 33.0437 6.46644 33.0437 6.4519C33.0436 6.43735 33.0111 6.42542 32.9714 6.42542C32.9316 6.42542 32.8594 6.3857 32.8109 6.33716C32.7623 6.28861 32.6995 6.2489 32.6713 6.2489C32.643 6.2489 32.6199 6.23301 32.6199 6.21359C32.6199 6.19417 32.5881 6.17829 32.5493 6.17829C32.5105 6.17829 32.4787 6.1624 32.4787 6.14298C32.4787 6.12357 32.4469 6.10768 32.4081 6.10768C32.3692 6.10768 32.3375 6.09179 32.3375 6.07237C32.3375 6.05296 32.3136 6.03707 32.2845 6.03707C32.2554 6.03707 32.2316 6.02358 32.2316 6.00713C32.2316 5.99064 32.168 5.94853 32.0903 5.9135C32.0127 5.87848 31.9491 5.83636 31.9491 5.81988C31.9491 5.80342 31.9173 5.78994 31.8785 5.78994C31.8397 5.78994 31.8079 5.77405 31.8079 5.75463C31.8079 5.73522 31.7841 5.71933 31.7549 5.71933C31.7258 5.71933 31.702 5.70344 31.702 5.68402C31.702 5.66461 31.6794 5.64872 31.6519 5.64872C31.5889 5.64872 31.3848 5.53419 31.3845 5.49868C31.3843 5.48413 31.3525 5.4722 31.3136 5.4722C31.2748 5.4722 31.243 5.45631 31.243 5.43689C31.243 5.41748 31.2192 5.40159 31.1901 5.40159C31.1609 5.40159 31.1371 5.3857 31.1371 5.36628C31.1371 5.34687 31.1053 5.33098 31.0665 5.33098C31.0277 5.33098 30.9959 5.31852 30.9959 5.30327C30.9959 5.28801 30.9086 5.22846 30.8018 5.17087C30.6951 5.11329 30.6077 5.05426 30.6077 5.03972C30.6076 5.02517 30.5746 5.01324 30.5344 5.01324C30.4942 5.01324 30.4391 4.9934 30.4121 4.96911C30.3056 4.87365 30.268 4.84858 30.1574 4.79965C30.0943 4.77172 30.0427 4.73688 30.0427 4.72219C30.0427 4.7075 30.0109 4.6955 29.9721 4.6955C29.9332 4.6955 29.9015 4.6835 29.9015 4.66881C29.9015 4.65412 29.8498 4.61966 29.7867 4.5922C29.7236 4.56477 29.664 4.53271 29.6543 4.52099C29.6133 4.47153 29.4408 4.37776 29.3908 4.37776C29.361 4.37776 29.3366 4.36187 29.3366 4.34245C29.3366 4.32304 29.3048 4.30715 29.266 4.30715C29.2271 4.30715 29.1954 4.29377 29.1954 4.27739C29.1954 4.26104 29.1398 4.21772 29.0718 4.18111C29.0038 4.1445 28.9482 4.10231 28.9482 4.08731C28.9482 4.0723 28.9165 4.06002 28.8776 4.06002C28.8388 4.06002 28.807 4.04413 28.807 4.02471C28.807 4.0053 28.7832 3.98941 28.7541 3.98941C28.7249 3.98941 28.7011 3.97352 28.7011 3.9541C28.7011 3.93469 28.6693 3.9188 28.6305 3.9188C28.5917 3.9188 28.5598 3.90687 28.5597 3.89232C28.5594 3.85917 28.3571 3.74228 28.3 3.74228C28.2768 3.74228 28.2348 3.7105 28.2068 3.67167C28.1788 3.63283 28.1197 3.60106 28.0755 3.60106C28.0312 3.60106 27.995 3.58757 27.995 3.57112C27.995 3.55463 27.9315 3.51252 27.8538 3.47749C27.7761 3.44247 27.7126 3.40035 27.7126 3.38387C27.7126 3.36741 27.6887 3.35393 27.6596 3.35393C27.6305 3.35393 27.6067 3.33804 27.6067 3.31862C27.6067 3.29921 27.5749 3.28332 27.5361 3.28332C27.4972 3.28332 27.4654 3.26743 27.4654 3.24801C27.4654 3.2286 27.4337 3.21271 27.3948 3.21271C27.356 3.21271 27.3242 3.19933 27.3242 3.18295C27.3242 3.1666 27.2686 3.12328 27.2007 3.08667C27.1327 3.05006 27.0771 3.00787 27.0771 2.99287C27.0771 2.97786 27.0374 2.96558 26.9888 2.96558C26.9403 2.96558 26.9006 2.94969 26.9006 2.93027C26.9006 2.91086 26.8688 2.89497 26.83 2.89497C26.7911 2.89497 26.7594 2.88159 26.7594 2.86521C26.7594 2.84886 26.7038 2.80554 26.6358 2.76893C26.5678 2.73232 26.5122 2.69013 26.5122 2.67513C26.5122 2.66012 26.4804 2.64784 26.4416 2.64784C26.4028 2.64784 26.371 2.63195 26.371 2.61253C26.371 2.59312 26.3392 2.57723 26.3004 2.57723C26.2616 2.57723 26.2298 2.56134 26.2298 2.54192C26.2298 2.52251 26.206 2.50662 26.1768 2.50662C26.1477 2.50662 26.1239 2.4943 26.1239 2.47922C26.1239 2.46415 26.0525 2.42048 25.9653 2.38214C25.8782 2.3438 25.8067 2.30051 25.8065 2.28597C25.8063 2.27142 25.7744 2.25949 25.7355 2.25949C25.6967 2.25949 25.6649 2.2436 25.6649 2.22418C25.6649 2.20477 25.6411 2.18888 25.612 2.18888C25.5828 2.18888 25.559 2.17299 25.559 2.15357C25.559 2.13416 25.534 2.11827 25.5035 2.11827C25.473 2.11827 25.4259 2.09843 25.3988 2.07414C25.2924 1.97868 25.2547 1.95361 25.1442 1.90468C25.0811 1.87675 25.0294 1.84191 25.0294 1.82722C25.0294 1.81253 24.9977 1.80053 24.9588 1.80053C24.92 1.80053 24.8882 1.78464 24.8882 1.76523C24.8882 1.74581 24.8669 1.72992 24.8408 1.72992C24.8146 1.72992 24.7471 1.69024 24.6907 1.64169C24.6343 1.59319 24.5603 1.55347 24.5263 1.55343C24.4924 1.55343 24.4646 1.53751 24.4646 1.51809C24.4646 1.49868 24.4341 1.48279 24.3969 1.48279C24.3597 1.48279 24.3239 1.47089 24.3174 1.45631C24.3005 1.41822 24.0139 1.23566 23.971 1.23566C23.9512 1.23566 23.935 1.21977 23.935 1.20035C23.935 1.18094 23.9032 1.16505 23.8644 1.16505C23.8256 1.16505 23.7938 1.15089 23.7938 1.13356C23.7938 1.11626 23.757 1.09285 23.712 1.08159C23.6671 1.07029 23.5931 1.02884 23.5477 0.989479C23.5024 0.950115 23.4438 0.917917 23.4177 0.917917C23.3915 0.917917 23.3701 0.90203 23.3701 0.882613C23.3701 0.863195 23.3383 0.847308 23.2995 0.847308C23.2607 0.847308 23.2289 0.831421 23.2289 0.812004C23.2289 0.792586 23.2051 0.776699 23.1759 0.776699C23.1468 0.776699 23.123 0.760812 23.123 0.741395C23.123 0.721977 23.0912 0.70609 23.0524 0.70609C23.0135 0.70609 22.9817 0.694192 22.9816 0.679612C22.9812 0.644095 22.7771 0.529568 22.7141 0.529568C22.6866 0.529568 22.664 0.51368 22.664 0.494263C22.664 0.474846 22.6323 0.458959 22.5934 0.458959C22.5546 0.458959 22.5228 0.443071 22.5228 0.423654C22.5228 0.404237 22.494 0.38835 22.4588 0.38835C22.4236 0.38835 22.3125 0.348632 22.2119 0.300088C22.1112 0.251545 21.9971 0.211827 21.9581 0.211827C21.9192 0.211827 21.8873 0.19594 21.8873 0.176523C21.8873 0.157105 21.8317 0.141218 21.7638 0.141218C21.6958 0.141218 21.6402 0.125331 21.6402 0.105914C21.6402 0.086496 21.5608 0.070609 21.4637 0.070609C21.3666 0.070609 21.2872 0.054722 21.2872 0.0353045C21.2872 0.0124625 20.8635 0 20.0868 0C19.3101 0 18.8865 0.0124625 18.8865 0.0353045ZM19.9368 4.51043C19.8833 4.54355 19.8397 4.58284 19.8397 4.59778C19.8397 4.61267 19.8079 4.62489 19.7691 4.62489C19.7302 4.62489 19.6985 4.64078 19.6985 4.66019C19.6985 4.67961 19.668 4.6955 19.6308 4.6955C19.5936 4.6955 19.5578 4.70743 19.5513 4.72198C19.5449 4.73652 19.4773 4.78023 19.4012 4.81906C19.1605 4.94192 19.1336 4.95876 19.1336 4.9863C19.1336 5.00113 19.1018 5.01324 19.063 5.01324C19.0241 5.01324 18.9924 5.02913 18.9924 5.04854C18.9924 5.06796 18.9685 5.08385 18.9394 5.08385C18.9103 5.08385 18.8865 5.09974 18.8865 5.11915C18.8865 5.13857 18.8615 5.15446 18.831 5.15446C18.8005 5.15446 18.7534 5.17433 18.7263 5.19859C18.6038 5.30842 18.5682 5.33098 18.5172 5.33098C18.4873 5.33098 18.4628 5.34687 18.4628 5.36628C18.4628 5.3857 18.439 5.40159 18.4098 5.40159C18.3807 5.40159 18.3569 5.41748 18.3569 5.43689C18.3569 5.45631 18.3343 5.4722 18.3068 5.4722C18.2438 5.4722 18.0397 5.58673 18.0394 5.62224C18.0393 5.63679 18.0074 5.64872 17.9685 5.64872C17.9297 5.64872 17.8979 5.66461 17.8979 5.68402C17.8979 5.70344 17.8741 5.71933 17.845 5.71933C17.8158 5.71933 17.792 5.73522 17.792 5.75463C17.792 5.77405 17.7615 5.78994 17.7243 5.78994C17.6871 5.78994 17.6514 5.80187 17.6449 5.81642C17.628 5.85451 17.3414 6.03707 17.2985 6.03707C17.2787 6.03707 17.2624 6.05296 17.2624 6.07237C17.2624 6.09179 17.2346 6.10891 17.2007 6.11047C17.1667 6.11199 17.0674 6.15975 16.98 6.21663C16.8926 6.27347 16.7933 6.32967 16.7594 6.34154C16.7254 6.35336 16.6976 6.37709 16.6976 6.39425C16.6976 6.41137 16.6658 6.42542 16.627 6.42542C16.5881 6.42542 16.5564 6.43742 16.5564 6.45211C16.5564 6.4668 16.5047 6.50154 16.4416 6.52936C16.3785 6.55718 16.3076 6.59682 16.284 6.61744C16.162 6.72392 16.1315 6.74316 16.0842 6.74316C16.0558 6.74316 16.0274 6.75509 16.0209 6.76964C16.0144 6.78418 15.9178 6.84321 15.8061 6.90079C15.6945 6.95838 15.6031 7.01793 15.6031 7.03319C15.6031 7.04844 15.5714 7.0609 15.5325 7.0609C15.4937 7.0609 15.4619 7.07679 15.4619 7.0962C15.4619 7.11562 15.4301 7.13151 15.3913 7.13151C15.3525 7.13151 15.3207 7.1474 15.3207 7.16681C15.3207 7.18623 15.2969 7.20212 15.2677 7.20212C15.2386 7.20212 15.2147 7.21405 15.2147 7.2286C15.2146 7.24314 15.1273 7.30072 15.0205 7.3565C14.9138 7.41229 14.8264 7.47184 14.8264 7.4889C14.8264 7.50591 14.8046 7.51986 14.7779 7.51986C14.72 7.51986 14.3902 7.69829 14.3734 7.73871C14.3669 7.75428 14.3391 7.76699 14.3116 7.76699C14.2841 7.76699 14.2616 7.78288 14.2616 7.80229C14.2616 7.82171 14.2298 7.8376 14.191 7.8376C14.1521 7.8376 14.1203 7.85349 14.1203 7.8729C14.1203 7.89232 14.0886 7.90821 14.0497 7.90821C14.0109 7.90821 13.9791 7.9241 13.9791 7.94351C13.9791 7.96293 13.9591 7.97882 13.9346 7.97882C13.9102 7.97882 13.8473 8.01853 13.7949 8.06708C13.7426 8.11562 13.6673 8.15534 13.6276 8.15534C13.588 8.15534 13.5555 8.17123 13.5555 8.19064C13.5555 8.21006 13.5237 8.22595 13.4849 8.22595C13.446 8.22595 13.4143 8.24004 13.4143 8.25723C13.4143 8.27442 13.3571 8.31813 13.2873 8.35432C13.2174 8.3905 13.1301 8.4358 13.0931 8.45497C13.0561 8.47414 13.0259 8.50196 13.0259 8.51675C13.0259 8.53158 12.9941 8.54369 12.9553 8.54369C12.9165 8.54369 12.8847 8.55958 12.8847 8.57899C12.8847 8.59841 12.8609 8.6143 12.8317 8.6143C12.8026 8.6143 12.7788 8.6286 12.7788 8.64611C12.7788 8.66358 12.7074 8.70729 12.62 8.7432C12.5165 8.78581 12.4612 8.83019 12.4612 8.87096C12.461 8.93755 12.6278 9.22415 12.6781 9.24388C12.6946 9.25038 12.7082 9.2776 12.7082 9.30443C12.7082 9.3642 12.8839 9.68657 12.9254 9.70284C12.9418 9.70934 12.9553 9.73712 12.9553 9.76463C12.9553 9.79216 12.9712 9.81465 12.9906 9.81465C13.01 9.81465 13.0259 9.84643 13.0259 9.88526C13.0259 9.9241 13.0418 9.95587 13.0612 9.95587C13.0806 9.95587 13.0965 9.98764 13.0965 10.0265C13.0965 10.0653 13.1124 10.0971 13.1318 10.0971C13.1512 10.0971 13.1671 10.1141 13.1671 10.1349C13.1671 10.1557 13.187 10.1949 13.2113 10.222C13.3211 10.3444 13.3436 10.3801 13.3436 10.431C13.3436 10.4609 13.3595 10.4854 13.379 10.4854C13.3984 10.4854 13.4143 10.5252 13.4143 10.5737C13.4143 10.6222 13.4276 10.662 13.444 10.662C13.4604 10.662 13.5022 10.7147 13.5369 10.7792L13.6 10.8965L13.7808 10.8057C13.8802 10.7558 13.9668 10.703 13.9732 10.6884C13.9797 10.6739 14.0155 10.662 14.0527 10.662C14.0899 10.662 14.1203 10.648 14.1203 10.631C14.1203 10.6139 14.2077 10.5544 14.3144 10.4986C14.4212 10.4428 14.5086 10.3853 14.5086 10.3707C14.5087 10.3561 14.5405 10.3442 14.5793 10.3442C14.6181 10.3442 14.6499 10.3283 14.6499 10.3089C14.6499 10.2895 14.6737 10.2736 14.7029 10.2736C14.732 10.2736 14.7558 10.2577 14.7558 10.2383C14.7558 10.2189 14.7876 10.203 14.8264 10.203C14.8653 10.203 14.897 10.1888 14.897 10.1715C14.897 10.1542 14.9368 10.1301 14.9853 10.1179C15.0338 10.1057 15.0736 10.0801 15.0736 10.0611C15.0736 10.042 15.1053 10.0265 15.1442 10.0265C15.183 10.0265 15.2148 10.0106 15.2148 9.99117C15.2148 9.97176 15.2386 9.95587 15.2677 9.95587C15.2969 9.95587 15.3207 9.93998 15.3207 9.92056C15.3207 9.90115 15.3512 9.88526 15.3884 9.88526C15.4256 9.88526 15.4613 9.87336 15.4678 9.85878C15.4847 9.82069 15.7714 9.63813 15.8142 9.63813C15.834 9.63813 15.8503 9.62224 15.8503 9.60282C15.8503 9.58341 15.882 9.56752 15.9209 9.56752C15.9597 9.56752 15.9915 9.55336 15.9915 9.53603C15.9915 9.51873 16.0283 9.49532 16.0732 9.48406C16.1182 9.47276 16.1921 9.43132 16.2375 9.39195C16.2829 9.35259 16.3414 9.32039 16.3676 9.32039C16.3937 9.32039 16.4151 9.3045 16.4151 9.28508C16.4151 9.26567 16.4469 9.24978 16.4857 9.24978C16.5246 9.24978 16.5564 9.23389 16.5564 9.21447C16.5564 9.19506 16.5726 9.17917 16.5924 9.17917C16.6353 9.17917 16.9219 8.99661 16.9388 8.95852C16.9453 8.94397 16.981 8.93204 17.0182 8.93204C17.0555 8.93204 17.0859 8.91615 17.0859 8.89673C17.0859 8.87732 17.1098 8.86143 17.1389 8.86143C17.168 8.86143 17.1918 8.84554 17.1918 8.82613C17.1918 8.80671 17.2236 8.79082 17.2624 8.79082C17.3013 8.79082 17.3331 8.77666 17.3331 8.75933C17.3331 8.74203 17.3728 8.71788 17.4213 8.7057C17.4699 8.69352 17.5096 8.66796 17.5096 8.64893C17.5096 8.62987 17.5414 8.6143 17.5802 8.6143C17.619 8.6143 17.6508 8.59841 17.6508 8.57899C17.6508 8.55958 17.6746 8.54369 17.7038 8.54369C17.7329 8.54369 17.7567 8.5278 17.7567 8.50838C17.7567 8.48897 17.7885 8.47308 17.8273 8.47308C17.8662 8.47308 17.8979 8.45959 17.8979 8.44314C17.8979 8.42665 17.9615 8.38454 18.0391 8.34951C18.1168 8.31449 18.1804 8.27237 18.1804 8.25589C18.1804 8.23944 18.2042 8.22595 18.2333 8.22595C18.2624 8.22595 18.2863 8.21006 18.2863 8.19064C18.2863 8.17123 18.318 8.15534 18.3569 8.15534C18.3957 8.15534 18.4275 8.14118 18.4275 8.12385C18.4275 8.10655 18.4672 8.0824 18.5158 8.07022C18.5643 8.05804 18.604 8.03248 18.604 8.01345C18.604 7.99439 18.6358 7.97882 18.6746 7.97882C18.7135 7.97882 18.7452 7.96293 18.7452 7.94351C18.7452 7.9241 18.7691 7.90821 18.7982 7.90821C18.8273 7.90821 18.8511 7.89232 18.8511 7.8729C18.8511 7.85349 18.8829 7.8376 18.9218 7.8376C18.9606 7.8376 18.9924 7.82171 18.9924 7.80229C18.9924 7.78288 19.0086 7.76699 19.0284 7.76699C19.0713 7.76699 19.3579 7.58443 19.3748 7.54634C19.3813 7.53179 19.417 7.51986 19.4543 7.51986C19.4915 7.51986 19.5219 7.50397 19.5219 7.48455C19.5219 7.46514 19.5461 7.44925 19.5756 7.44925C19.6315 7.44925 19.9191 7.27495 19.9397 7.2286C19.9575 7.18856 20.228 7.19686 20.228 7.23742C20.228 7.25684 20.2507 7.27273 20.2785 7.27273C20.3062 7.27273 20.3499 7.29356 20.3756 7.31901C20.4012 7.3445 20.4738 7.3881 20.5369 7.41592C20.6001 7.44374 20.6517 7.47848 20.6517 7.49317C20.6517 7.50786 20.6821 7.51986 20.7194 7.51986C20.7566 7.51986 20.7923 7.53179 20.7988 7.54634C20.8157 7.58443 21.1023 7.76699 21.1452 7.76699C21.165 7.76699 21.1812 7.78288 21.1812 7.80229C21.1812 7.82171 21.2117 7.8376 21.2489 7.8376C21.2861 7.8376 21.3219 7.8495 21.3284 7.86408C21.3348 7.87862 21.4024 7.92233 21.4785 7.96117C21.7192 8.08402 21.7461 8.10087 21.7461 8.1284C21.7461 8.14323 21.7779 8.15534 21.8167 8.15534C21.8556 8.15534 21.8873 8.17123 21.8873 8.19064C21.8873 8.21006 21.9036 8.22595 21.9234 8.22595C21.9662 8.22595 22.2529 8.40851 22.2698 8.4466C22.2763 8.46115 22.312 8.47308 22.3492 8.47308C22.3865 8.47308 22.4169 8.48897 22.4169 8.50838C22.4169 8.5278 22.4407 8.54369 22.4699 8.54369C22.499 8.54369 22.5228 8.55958 22.5228 8.57899C22.5228 8.59841 22.5546 8.6143 22.5934 8.6143C22.6323 8.6143 22.664 8.62987 22.664 8.64893C22.664 8.66796 22.7038 8.69352 22.7523 8.7057C22.8008 8.71788 22.8406 8.74203 22.8406 8.75933C22.8406 8.77666 22.8723 8.79082 22.9112 8.79082C22.95 8.79082 22.9818 8.80671 22.9818 8.82613C22.9818 8.84554 23.0056 8.86143 23.0347 8.86143C23.0639 8.86143 23.0877 8.87732 23.0877 8.89673C23.0877 8.91615 23.1195 8.93204 23.1583 8.93204C23.1971 8.93204 23.2289 8.94457 23.2289 8.95989C23.2289 8.97522 23.3163 9.03347 23.4231 9.08932C23.5299 9.14521 23.6173 9.20417 23.6173 9.22033C23.6173 9.23654 23.649 9.24978 23.6879 9.24978C23.7267 9.24978 23.7585 9.26567 23.7585 9.28508C23.7585 9.3045 23.7812 9.32039 23.8089 9.32039C23.8366 9.32039 23.8803 9.34122 23.906 9.36667C23.9316 9.39216 24.0043 9.43576 24.0674 9.46358C24.1305 9.4914 24.1821 9.52614 24.1821 9.54083C24.1821 9.55552 24.2139 9.56752 24.2527 9.56752C24.2916 9.56752 24.3233 9.58341 24.3233 9.60282C24.3233 9.62224 24.3551 9.63813 24.394 9.63813C24.4328 9.63813 24.4646 9.65151 24.4646 9.66789C24.4646 9.68424 24.5202 9.72756 24.5881 9.76417C24.6561 9.80078 24.7117 9.84297 24.7117 9.85797C24.7117 9.87297 24.7435 9.88526 24.7823 9.88526C24.8211 9.88526 24.8529 9.90115 24.8529 9.92056C24.8529 9.93998 24.8854 9.95587 24.9251 9.95587C24.9648 9.95587 25.0401 9.99559 25.0924 10.0441C25.1447 10.0927 25.2076 10.1324 25.2321 10.1324C25.2565 10.1324 25.2766 10.1483 25.2766 10.1677C25.2766 10.1871 25.3083 10.203 25.3472 10.203C25.386 10.203 25.4178 10.2189 25.4178 10.2383C25.4178 10.2577 25.4496 10.2736 25.4884 10.2736C25.5272 10.2736 25.559 10.2895 25.559 10.3089C25.559 10.3283 25.5828 10.3442 25.612 10.3442C25.6411 10.3442 25.665 10.3561 25.665 10.3707C25.6651 10.3853 25.7524 10.4428 25.8592 10.4986C25.9659 10.5544 26.0533 10.6139 26.0533 10.631C26.0533 10.648 26.085 10.662 26.1239 10.662C26.1627 10.662 26.1945 10.6778 26.1945 10.6973C26.1945 10.7167 26.2186 10.7326 26.2481 10.7326C26.2777 10.7326 26.3622 10.7707 26.4361 10.8174L26.5705 10.9022L26.6352 10.7821C26.6707 10.716 26.7132 10.662 26.7296 10.662C26.746 10.662 26.7594 10.6222 26.7594 10.5737C26.7594 10.5252 26.7713 10.4853 26.7858 10.485C26.8004 10.4848 26.8427 10.4213 26.8798 10.3438C26.9169 10.2664 26.9606 10.203 26.9769 10.203C26.9931 10.203 27.0065 10.1792 27.0065 10.15C27.0065 10.1209 27.0224 10.0971 27.0418 10.0971C27.0612 10.0971 27.0771 10.0653 27.0771 10.0265C27.0771 9.98764 27.093 9.95587 27.1124 9.95587C27.1318 9.95587 27.1477 9.9241 27.1477 9.88526C27.1477 9.84643 27.1636 9.81465 27.183 9.81465C27.2024 9.81465 27.2183 9.79763 27.2183 9.77684C27.2183 9.75601 27.2382 9.71686 27.2624 9.68978C27.3718 9.56784 27.3948 9.53183 27.3948 9.48282C27.3948 9.45402 27.4107 9.42065 27.4301 9.40865C27.4496 9.39665 27.4654 9.35732 27.4654 9.32124C27.4654 9.28519 27.479 9.25038 27.4955 9.24388C27.5458 9.22415 27.7126 8.93755 27.7124 8.87096C27.7124 8.83019 27.6571 8.78581 27.5536 8.7432C27.4663 8.70729 27.3948 8.66358 27.3948 8.64611C27.3948 8.6286 27.371 8.6143 27.3419 8.6143C27.3128 8.6143 27.2889 8.59841 27.2889 8.57899C27.2889 8.55958 27.2571 8.54369 27.2183 8.54369C27.1795 8.54369 27.1477 8.5278 27.1477 8.50838C27.1477 8.48897 27.1325 8.47308 27.114 8.47308C27.0815 8.47308 26.8579 8.33582 26.7697 8.26175C26.7462 8.24205 26.7025 8.22595 26.6726 8.22595C26.6426 8.22595 26.6181 8.21006 26.6181 8.19064C26.6181 8.17123 26.5857 8.15534 26.546 8.15534C26.5063 8.15534 26.431 8.11562 26.3787 8.06708C26.3263 8.01853 26.2634 7.97882 26.239 7.97882C26.2145 7.97882 26.1945 7.96293 26.1945 7.94351C26.1945 7.9241 26.1627 7.90821 26.1239 7.90821C26.085 7.90821 26.0533 7.89232 26.0533 7.8729C26.0533 7.85349 26.0215 7.8376 25.9827 7.8376C25.9438 7.8376 25.912 7.82171 25.912 7.80229C25.912 7.78288 25.8896 7.76699 25.862 7.76699C25.8345 7.76699 25.8067 7.7535 25.8002 7.73705C25.7855 7.69952 25.4642 7.51986 25.4119 7.51986C25.3905 7.51986 25.3474 7.49034 25.316 7.4543C25.2846 7.41825 25.2232 7.37744 25.1795 7.36367C25.1358 7.34987 25.1 7.32378 25.1 7.30567C25.1 7.28756 25.0683 7.27273 25.0294 7.27273C24.9906 7.27273 24.9588 7.25684 24.9588 7.23742C24.9588 7.21801 24.935 7.20212 24.9059 7.20212C24.8767 7.20212 24.8529 7.18623 24.8529 7.16681C24.8529 7.1474 24.8211 7.13151 24.7823 7.13151C24.7435 7.13151 24.7117 7.11562 24.7117 7.0962C24.7117 7.07679 24.6799 7.0609 24.6411 7.0609C24.6023 7.0609 24.5705 7.04861 24.5705 7.03361C24.5705 7.01861 24.5149 6.97642 24.4469 6.93981C24.3789 6.9032 24.3233 6.85988 24.3233 6.84353C24.3233 6.82715 24.2916 6.81377 24.2527 6.81377C24.2139 6.81377 24.1821 6.79788 24.1821 6.77846C24.1821 6.75905 24.1492 6.74316 24.109 6.74316C24.0688 6.74316 24.0137 6.72332 23.9866 6.69903C23.8802 6.60357 23.8425 6.5785 23.732 6.52957C23.6689 6.50164 23.6173 6.4668 23.6173 6.45211C23.6173 6.43742 23.5855 6.42542 23.5466 6.42542C23.5078 6.42542 23.476 6.40953 23.476 6.39011C23.476 6.3707 23.4535 6.35481 23.426 6.35481C23.3985 6.35481 23.3707 6.34132 23.3642 6.32487C23.35 6.28861 23.0291 6.10768 22.9791 6.10768C22.9595 6.10768 22.9119 6.0782 22.8732 6.04219C22.8346 6.00614 22.7401 5.94658 22.6633 5.9098C22.5865 5.87301 22.5235 5.83096 22.5232 5.81642C22.523 5.80187 22.491 5.78994 22.4522 5.78994C22.4134 5.78994 22.3816 5.77405 22.3816 5.75463C22.3816 5.73522 22.3578 5.71933 22.3286 5.71933C22.2995 5.71933 22.2757 5.70344 22.2757 5.68402C22.2757 5.66461 22.2439 5.64872 22.2051 5.64872C22.1662 5.64872 22.1344 5.63679 22.1343 5.62224C22.1339 5.58673 21.9298 5.4722 21.8668 5.4722C21.8393 5.4722 21.8167 5.45631 21.8167 5.43689C21.8167 5.41748 21.7929 5.40159 21.7638 5.40159C21.7346 5.40159 21.7108 5.3857 21.7108 5.36628C21.7108 5.34687 21.6859 5.33098 21.6553 5.33098C21.6248 5.33098 21.5777 5.31114 21.5506 5.28685C21.4442 5.19139 21.4065 5.16632 21.296 5.11739C21.2329 5.08946 21.1812 5.05462 21.1812 5.03993C21.1812 5.02524 21.1495 5.01324 21.1106 5.01324C21.0718 5.01324 21.04 5.00113 21.04 4.9863C21.04 4.95876 21.0131 4.94192 20.7724 4.81906C20.6963 4.78023 20.6287 4.73652 20.6223 4.72198C20.6158 4.70743 20.5814 4.6955 20.5458 4.6955C20.5102 4.6955 20.4758 4.683 20.4693 4.66771C20.4518 4.62644 20.1346 4.44823 20.0805 4.44932C20.0549 4.44981 19.9902 4.47732 19.9368 4.51043ZM1.26953 20V25.8782H3.29954C4.62935 25.8782 5.32955 25.866 5.32955 25.8429C5.32955 25.8235 5.41692 25.8076 5.52372 25.8076C5.63052 25.8076 5.71789 25.7917 5.71789 25.7723C5.71789 25.7529 5.75782 25.737 5.80665 25.737C5.8953 25.737 5.91489 25.73 6.13558 25.6194C6.20026 25.587 6.27574 25.5605 6.30328 25.5605C6.33082 25.5605 6.35338 25.5446 6.35338 25.5252C6.35338 25.5057 6.38515 25.4899 6.42398 25.4899C6.46282 25.4899 6.49459 25.474 6.49459 25.4545C6.49459 25.4351 6.51842 25.4192 6.54755 25.4192C6.57668 25.4192 6.60051 25.4034 6.60051 25.3839C6.60051 25.3645 6.62504 25.3486 6.65502 25.3486C6.68499 25.3486 6.75235 25.3089 6.80467 25.2604C6.85703 25.2118 6.91345 25.1721 6.93004 25.1721C6.97544 25.1721 7.62434 24.4989 7.62434 24.4518C7.62434 24.4294 7.65611 24.3881 7.69495 24.3601C7.73378 24.3321 7.76556 24.281 7.76556 24.2464C7.76556 24.2119 7.78144 24.1836 7.80086 24.1836C7.82028 24.1836 7.83616 24.1611 7.83616 24.1336C7.83616 24.1061 7.85 24.0783 7.86695 24.0718C7.91101 24.0549 8.0833 23.6652 8.0833 23.5823C8.0833 23.5441 8.09918 23.5128 8.1186 23.5128C8.13802 23.5128 8.1539 23.4678 8.1539 23.4128C8.1539 23.3577 8.16531 23.3013 8.17925 23.2874C8.1932 23.2735 8.23214 23.1318 8.26582 22.9726C8.32075 22.7127 8.32714 22.407 8.32831 19.9823C8.32937 17.7092 8.32132 17.2508 8.27747 17.0874C8.2488 16.9806 8.22515 16.8495 8.22494 16.7961C8.22469 16.7427 8.20863 16.699 8.18921 16.699C8.16979 16.699 8.1539 16.6514 8.1539 16.5931C8.1539 16.5349 8.13802 16.4872 8.1186 16.4872C8.09918 16.4872 8.0833 16.4559 8.0833 16.4177C8.0833 16.3348 7.91101 15.9451 7.86695 15.9282C7.85 15.9217 7.83616 15.8939 7.83616 15.8664C7.83616 15.8389 7.82028 15.8164 7.80086 15.8164C7.78144 15.8164 7.76556 15.7881 7.76556 15.7536C7.76556 15.719 7.73378 15.6679 7.69495 15.6399C7.65611 15.6119 7.62434 15.5706 7.62434 15.5482C7.62434 15.5011 6.97544 14.8279 6.93004 14.8279C6.91345 14.8279 6.85703 14.7882 6.80467 14.7396C6.75235 14.6911 6.68499 14.6514 6.65502 14.6514C6.62504 14.6514 6.60051 14.6355 6.60051 14.6161C6.60051 14.5966 6.57668 14.5808 6.54755 14.5808C6.51842 14.5808 6.49459 14.5649 6.49459 14.5455C6.49459 14.526 6.46282 14.5102 6.42398 14.5102C6.38515 14.5102 6.35338 14.4943 6.35338 14.4748C6.35338 14.4554 6.32559 14.439 6.29159 14.4384C6.25759 14.4378 6.19895 14.414 6.16128 14.3855C6.12358 14.357 6.06402 14.3336 6.02889 14.3336C5.99376 14.3336 5.96503 14.3177 5.96503 14.2983C5.96503 14.2789 5.90942 14.263 5.84146 14.263C5.7735 14.263 5.71789 14.2471 5.71789 14.2277C5.71789 14.2083 5.63052 14.1924 5.52372 14.1924C5.41692 14.1924 5.32955 14.1765 5.32955 14.1571C5.32955 14.134 4.62935 14.1218 3.29954 14.1218H1.26953V20ZM10.6605 20V25.8782H14.191H17.7214V24.6955V23.5128H15.3737H13.0259V22.3477V21.1827H14.2086H15.3913V20V18.8173H14.2086H13.0259V17.6523V16.4872H15.3737H17.7214V15.3045V14.1218H14.191H10.6605V20ZM20.0868 20V25.8782H21.2695H22.4522V21.9594C22.4522 19.3704 22.4642 18.0406 22.4875 18.0406C22.5069 18.0406 22.5228 18.0724 22.5228 18.1112C22.5228 18.15 22.5387 18.1818 22.5581 18.1818C22.5775 18.1818 22.5934 18.2104 22.5934 18.2454C22.5934 18.2803 22.6073 18.324 22.6244 18.3425C22.6833 18.4063 22.8406 18.7141 22.8406 18.7656C22.8406 18.794 22.8564 18.8173 22.8759 18.8173C22.8953 18.8173 22.9112 18.8477 22.9112 18.885C22.9112 18.9222 22.9231 18.9579 22.9376 18.9644C22.9729 18.9801 23.1583 19.3538 23.1583 19.4092C23.1583 19.4332 23.1742 19.4528 23.1936 19.4528C23.213 19.4528 23.2289 19.4846 23.2289 19.5234C23.2289 19.5622 23.2448 19.594 23.2642 19.594C23.2836 19.594 23.2995 19.6226 23.2995 19.6575C23.2995 19.6925 23.3134 19.7362 23.3304 19.7546C23.3894 19.8185 23.5466 20.1263 23.5466 20.1778C23.5466 20.2062 23.5625 20.2295 23.582 20.2295C23.6014 20.2295 23.6173 20.2599 23.6173 20.2972C23.6173 20.3344 23.6292 20.3701 23.6437 20.3766C23.679 20.3923 23.8644 20.766 23.8644 20.8214C23.8644 20.8454 23.8803 20.865 23.8997 20.865C23.9191 20.865 23.935 20.8967 23.935 20.9356C23.935 20.9744 23.9509 21.0062 23.9703 21.0062C23.9897 21.0062 24.0056 21.0348 24.0056 21.0697C24.0056 21.1047 24.0195 21.1484 24.0365 21.1668C24.0955 21.2307 24.2527 21.5385 24.2527 21.5899C24.2527 21.6184 24.2686 21.6417 24.288 21.6417C24.3075 21.6417 24.3233 21.6721 24.3233 21.7093C24.3233 21.7465 24.3352 21.7823 24.3498 21.7888C24.3851 21.8044 24.5705 22.1781 24.5705 22.2336C24.5705 22.2575 24.5864 22.2771 24.6058 22.2771C24.6252 22.2771 24.6411 22.3089 24.6411 22.3477C24.6411 22.3866 24.6559 22.4184 24.6739 22.4184C24.692 22.4184 24.7119 22.4539 24.718 22.4974C24.7385 22.6409 24.836 22.61 24.9072 22.4375C24.9435 22.3493 24.9859 22.2771 25.0014 22.2771C25.0168 22.2771 25.0294 22.2374 25.0294 22.1889C25.0294 22.1403 25.0453 22.1006 25.0647 22.1006C25.0842 22.1006 25.1 22.0688 25.1 22.03C25.1 21.9912 25.1135 21.9594 25.13 21.9594C25.1465 21.9594 25.1895 21.8879 25.2255 21.8005C25.2616 21.7132 25.3037 21.6417 25.3191 21.6417C25.3345 21.6417 25.3472 21.6099 25.3472 21.5711C25.3472 21.5322 25.3631 21.5004 25.3825 21.5004C25.4019 21.5004 25.4178 21.4607 25.4178 21.4122C25.4178 21.3636 25.4314 21.3239 25.448 21.3239C25.4647 21.3239 25.5242 21.2207 25.5804 21.0945C25.6366 20.9684 25.6945 20.8651 25.709 20.865C25.7236 20.865 25.7355 20.8252 25.7355 20.7767C25.7355 20.7282 25.7514 20.6884 25.7708 20.6884C25.7902 20.6884 25.8061 20.6567 25.8061 20.6178C25.8061 20.579 25.8196 20.5472 25.8361 20.5472C25.8526 20.5472 25.8956 20.4757 25.9316 20.3883C25.9677 20.301 26.0098 20.2295 26.0252 20.2295C26.0406 20.2295 26.0533 20.1977 26.0533 20.1589C26.0533 20.12 26.0692 20.0883 26.0886 20.0883C26.108 20.0883 26.1239 20.0485 26.1239 20C26.1239 19.9515 26.1375 19.9117 26.1541 19.9117C26.1708 19.9117 26.2303 19.8085 26.2865 19.6823C26.3427 19.5562 26.4006 19.4529 26.4151 19.4529C26.4297 19.4528 26.4416 19.4131 26.4416 19.3645C26.4416 19.316 26.4575 19.2763 26.4769 19.2763C26.4963 19.2763 26.5122 19.2445 26.5122 19.2056C26.5122 19.1668 26.5257 19.135 26.5422 19.135C26.5587 19.135 26.6017 19.0635 26.6377 18.9762C26.6737 18.8888 26.7159 18.8173 26.7313 18.8173C26.7467 18.8173 26.7594 18.7855 26.7594 18.7467C26.7594 18.7079 26.7752 18.6761 26.7947 18.6761C26.8141 18.6761 26.83 18.6364 26.83 18.5878C26.83 18.5393 26.8443 18.4996 26.8618 18.4996C26.8792 18.4996 26.923 18.4281 26.9589 18.3408C26.9948 18.2535 27.036 18.182 27.0506 18.182C27.0652 18.1819 27.0771 18.15 27.0771 18.1112C27.0771 18.0724 27.093 18.0406 27.1124 18.0406C27.1357 18.0406 27.1477 19.3704 27.1477 21.9594V25.8782H28.3304H29.5131V20V14.1218H27.9421C26.586 14.1218 26.371 14.1289 26.371 14.1735C26.371 14.225 26.2138 14.5328 26.1548 14.5966C26.1378 14.6151 26.1239 14.6588 26.1239 14.6937C26.1239 14.7287 26.108 14.7573 26.0886 14.7573C26.0692 14.7573 26.0533 14.7891 26.0533 14.8279C26.0533 14.8667 26.0374 14.8985 26.018 14.8985C25.9985 14.8985 25.9827 14.9181 25.9827 14.9421C25.9827 14.9975 25.7973 15.3712 25.762 15.3869C25.7474 15.3934 25.7355 15.4291 25.7355 15.4663C25.7355 15.5035 25.7196 15.534 25.7002 15.534C25.6808 15.534 25.6649 15.5572 25.6649 15.5857C25.6649 15.6372 25.5077 15.945 25.4487 16.0088C25.4317 16.0273 25.4178 16.071 25.4178 16.1059C25.4178 16.1409 25.4019 16.1695 25.3825 16.1695C25.3631 16.1695 25.3472 16.2012 25.3472 16.2401C25.3472 16.2789 25.3313 16.3107 25.3119 16.3107C25.2925 16.3107 25.2766 16.3303 25.2766 16.3542C25.2766 16.4097 25.0912 16.7834 25.0559 16.799C25.0413 16.8055 25.0294 16.8413 25.0294 16.8785C25.0294 16.9157 25.0135 16.9462 24.9941 16.9462C24.9747 16.9462 24.9588 16.9676 24.9588 16.9937C24.9588 17.0198 24.9338 17.0913 24.9033 17.1526C24.8337 17.292 24.7117 17.3067 24.7117 17.1756C24.7117 17.1271 24.6958 17.0874 24.6764 17.0874C24.657 17.0874 24.6411 17.0556 24.6411 17.0168C24.6411 16.9779 24.6284 16.9462 24.613 16.9462C24.5976 16.9462 24.5555 16.8747 24.5194 16.7873C24.4834 16.6999 24.4404 16.6284 24.4239 16.6284C24.4074 16.6284 24.394 16.5966 24.394 16.5578C24.394 16.519 24.3781 16.4872 24.3586 16.4872C24.3392 16.4872 24.3233 16.4475 24.3233 16.3989C24.3233 16.3504 24.3114 16.3106 24.2969 16.3106C24.2823 16.3105 24.2244 16.2073 24.1683 16.0811C24.112 15.955 24.0525 15.8517 24.0359 15.8517C24.0192 15.8517 24.0056 15.812 24.0056 15.7635C24.0056 15.7149 23.9897 15.6752 23.9703 15.6752C23.9509 15.6752 23.935 15.6434 23.935 15.6046C23.935 15.5658 23.9224 15.534 23.9069 15.534C23.8915 15.534 23.8494 15.4625 23.8133 15.3751C23.7773 15.2877 23.7343 15.2162 23.7178 15.2162C23.7014 15.2162 23.6879 15.1845 23.6879 15.1456C23.6879 15.1068 23.672 15.075 23.6526 15.075C23.6331 15.075 23.6173 15.0353 23.6173 14.9868C23.6173 14.9382 23.6054 14.8985 23.5908 14.8984C23.5762 14.8984 23.5183 14.7951 23.4622 14.6689C23.406 14.5428 23.3464 14.4395 23.3298 14.4395C23.3131 14.4395 23.2995 14.3998 23.2995 14.3513C23.2995 14.3027 23.2836 14.263 23.2642 14.263C23.2448 14.263 23.2289 14.2312 23.2289 14.1924C23.2289 14.1229 23.2054 14.1218 21.6579 14.1218H20.0868V20ZM34.8441 14.1571C34.8441 14.1765 34.7567 14.1924 34.6499 14.1924C34.5431 14.1924 34.4557 14.2083 34.4557 14.2277C34.4557 14.2471 34.4309 14.263 34.4006 14.263C34.3184 14.263 33.9986 14.3727 33.9765 14.4085C33.966 14.4256 33.9265 14.4395 33.8888 14.4395C33.8511 14.4395 33.8203 14.4554 33.8203 14.4748C33.8203 14.4943 33.7885 14.5102 33.7496 14.5102C33.7108 14.5102 33.679 14.526 33.679 14.5455C33.679 14.5649 33.6552 14.5808 33.6261 14.5808C33.597 14.5808 33.5731 14.5966 33.5731 14.6161C33.5731 14.6355 33.5486 14.6514 33.5186 14.6514C33.4886 14.6514 33.4213 14.6911 33.369 14.7396C33.3166 14.7882 33.2602 14.8279 33.2436 14.8279C33.1982 14.8279 32.5493 15.5011 32.5493 15.5482C32.5493 15.5706 32.5175 15.6119 32.4787 15.6399C32.4398 15.6679 32.4081 15.719 32.4081 15.7536C32.4081 15.7881 32.3922 15.8164 32.3728 15.8164C32.3534 15.8164 32.3375 15.8389 32.3375 15.8664C32.3375 15.8939 32.3236 15.9217 32.3067 15.9282C32.2626 15.9451 32.0903 16.3348 32.0903 16.4177C32.0903 16.4559 32.0744 16.4872 32.055 16.4872C32.0356 16.4872 32.0197 16.5349 32.0197 16.5931C32.0197 16.6514 32.0038 16.699 31.9844 16.699C31.965 16.699 31.9486 16.7427 31.9478 16.7961C31.9472 16.8495 31.9236 16.9885 31.8955 17.105C31.8188 17.4227 31.8194 22.6266 31.8962 22.9126C31.9248 23.0194 31.9485 23.1505 31.9487 23.2039C31.9489 23.2573 31.965 23.301 31.9844 23.301C32.0038 23.301 32.0197 23.3486 32.0197 23.4069C32.0197 23.4651 32.0356 23.5128 32.055 23.5128C32.0744 23.5128 32.0903 23.5441 32.0903 23.5823C32.0903 23.6652 32.2626 24.0549 32.3067 24.0718C32.3236 24.0783 32.3375 24.1061 32.3375 24.1336C32.3375 24.1611 32.3534 24.1836 32.3728 24.1836C32.3922 24.1836 32.4081 24.2119 32.4081 24.2464C32.4081 24.281 32.4398 24.3321 32.4787 24.3601C32.5175 24.3881 32.5493 24.4294 32.5493 24.4518C32.5493 24.4989 33.1982 25.1721 33.2436 25.1721C33.2602 25.1721 33.3166 25.2118 33.369 25.2604C33.4213 25.3089 33.4886 25.3486 33.5186 25.3486C33.5486 25.3486 33.5731 25.3645 33.5731 25.3839C33.5731 25.4034 33.597 25.4192 33.6261 25.4192C33.6552 25.4192 33.679 25.4351 33.679 25.4545C33.679 25.474 33.7108 25.4899 33.7496 25.4899C33.7885 25.4899 33.8203 25.5057 33.8203 25.5252C33.8203 25.5446 33.8511 25.5605 33.8888 25.5605C33.9265 25.5605 33.966 25.5744 33.9765 25.5915C34.0032 25.6347 34.3262 25.737 34.4359 25.737C34.4856 25.737 34.5263 25.7529 34.5263 25.7723C34.5263 25.7917 34.5978 25.8076 34.6852 25.8076C34.7726 25.8076 34.8441 25.8235 34.8441 25.8429C34.8441 25.8649 35.05 25.8782 35.3913 25.8782C35.7326 25.8782 35.9385 25.8649 35.9385 25.8429C35.9385 25.8235 36.0259 25.8076 36.1327 25.8076C36.2395 25.8076 36.3269 25.7917 36.3269 25.7723C36.3269 25.7529 36.3668 25.737 36.4156 25.737C36.5043 25.737 36.5239 25.73 36.7446 25.6194C36.8092 25.587 36.8847 25.5605 36.9123 25.5605C36.9398 25.5605 36.9624 25.5446 36.9624 25.5252C36.9624 25.5057 36.9941 25.4899 37.033 25.4899C37.0718 25.4899 37.1036 25.474 37.1036 25.4545C37.1036 25.4351 37.1274 25.4192 37.1565 25.4192C37.1857 25.4192 37.2095 25.4034 37.2095 25.3839C37.2095 25.3645 37.2332 25.3486 37.2622 25.3486C37.3092 25.3486 37.4142 25.2738 37.5471 25.1456C37.5722 25.1214 37.6026 25.1015 37.6147 25.1015C37.6419 25.1015 38.1274 24.6161 38.1274 24.5888C38.1274 24.5665 38.1776 24.5033 38.2951 24.3777C38.3388 24.3309 38.3745 24.2681 38.3745 24.2381C38.3745 24.2081 38.3904 24.1836 38.4098 24.1836C38.4293 24.1836 38.4451 24.1611 38.4451 24.1336C38.4451 24.1061 38.4571 24.0783 38.4716 24.0718C38.5146 24.0527 38.6923 23.6587 38.6923 23.5826C38.6923 23.5442 38.7082 23.5128 38.7276 23.5128C38.747 23.5128 38.7629 23.4651 38.7629 23.4069C38.7629 23.3486 38.7773 23.301 38.7948 23.301C38.8123 23.301 38.8349 23.2255 38.8449 23.1333C38.855 23.0411 38.8794 22.8861 38.8992 22.7891C38.9481 22.5494 38.9481 17.4506 38.8992 17.2109C38.8794 17.1139 38.855 16.959 38.8449 16.8667C38.8349 16.7745 38.8123 16.699 38.7948 16.699C38.7773 16.699 38.7629 16.6514 38.7629 16.5931C38.7629 16.5349 38.747 16.4872 38.7276 16.4872C38.7082 16.4872 38.6923 16.4558 38.6923 16.4174C38.6923 16.3413 38.5146 15.9473 38.4716 15.9282C38.4571 15.9217 38.4451 15.8939 38.4451 15.8664C38.4451 15.8389 38.4293 15.8164 38.4098 15.8164C38.3904 15.8164 38.3745 15.7919 38.3745 15.7619C38.3745 15.7319 38.3388 15.6691 38.2951 15.6223C38.1776 15.4967 38.1274 15.4335 38.1274 15.4112C38.1274 15.3857 37.6428 14.8985 37.6175 14.8985C37.5991 14.8985 37.4609 14.7868 37.3662 14.6955C37.341 14.6712 37.2955 14.6514 37.265 14.6514C37.2344 14.6514 37.2095 14.6355 37.2095 14.6161C37.2095 14.5966 37.1857 14.5808 37.1565 14.5808C37.1274 14.5808 37.1036 14.5649 37.1036 14.5455C37.1036 14.526 37.0718 14.5102 37.033 14.5102C36.9941 14.5102 36.9624 14.4943 36.9624 14.4748C36.9624 14.4554 36.9294 14.4395 36.8892 14.4395C36.849 14.4395 36.7923 14.4157 36.7631 14.3866C36.734 14.3575 36.6805 14.3336 36.6442 14.3336C36.6079 14.3336 36.5684 14.3177 36.5564 14.2983C36.5443 14.2789 36.4878 14.263 36.4307 14.263C36.3736 14.263 36.3269 14.2471 36.3269 14.2277C36.3269 14.2083 36.2395 14.1924 36.1327 14.1924C36.0259 14.1924 35.9385 14.1765 35.9385 14.1571C35.9385 14.1351 35.7326 14.1218 35.3913 14.1218C35.05 14.1218 34.8441 14.1351 34.8441 14.1571ZM3.59962 20.0014V23.5156L4.31454 23.5016C5.02356 23.4878 5.25894 23.4632 5.25894 23.4029C5.25894 23.3857 5.29071 23.3716 5.32955 23.3716C5.36838 23.3716 5.40015 23.3557 5.40015 23.3363C5.40015 23.3169 5.42398 23.301 5.45311 23.301C5.48224 23.301 5.50607 23.2861 5.50607 23.268C5.50607 23.2499 5.53784 23.225 5.57668 23.2127C5.61551 23.2004 5.64729 23.1654 5.64729 23.135C5.64729 23.1046 5.67549 23.0541 5.70999 23.0227C5.81315 22.9287 5.89442 22.7797 5.89442 22.6844C5.89442 22.6352 5.9103 22.5949 5.92972 22.5949C5.95295 22.5949 5.96503 21.7064 5.96503 20C5.96503 18.2936 5.95295 17.4051 5.92972 17.4051C5.9103 17.4051 5.89442 17.3648 5.89442 17.3156C5.89442 17.2203 5.81315 17.0713 5.70999 16.9773C5.67549 16.9459 5.64729 16.8954 5.64729 16.865C5.64729 16.8346 5.61551 16.7996 5.57668 16.7873C5.53784 16.775 5.50607 16.7501 5.50607 16.732C5.50607 16.7139 5.48224 16.699 5.45311 16.699C5.42398 16.699 5.40015 16.6831 5.40015 16.6637C5.40015 16.6443 5.36838 16.6284 5.32955 16.6284C5.29071 16.6284 5.25894 16.6125 5.25894 16.5931C5.25894 16.5737 5.22017 16.5578 5.17276 16.5578C5.12534 16.5578 5.07676 16.5419 5.06476 16.5225C5.05138 16.5008 4.76432 16.4872 4.32128 16.4872H3.59962V20.0014ZM35.1105 16.5199C35.0976 16.5407 35.0483 16.5578 35.0009 16.5578C34.9535 16.5578 34.9147 16.5737 34.9147 16.5931C34.9147 16.6125 34.8829 16.6284 34.8441 16.6284C34.8053 16.6284 34.7735 16.6443 34.7735 16.6637C34.7735 16.6831 34.7496 16.699 34.7205 16.699C34.6914 16.699 34.6676 16.7139 34.6676 16.732C34.6676 16.7501 34.6358 16.775 34.597 16.7873C34.5581 16.7996 34.5263 16.8346 34.5263 16.865C34.5263 16.8954 34.4981 16.9459 34.4636 16.9773C34.3605 17.0713 34.2792 17.2203 34.2792 17.3156C34.2792 17.3648 34.2633 17.4051 34.2439 17.4051C34.2207 17.4051 34.2086 18.2936 34.2086 20C34.2086 21.7064 34.2207 22.5949 34.2439 22.5949C34.2633 22.5949 34.2792 22.6352 34.2792 22.6844C34.2792 22.7797 34.3605 22.9287 34.4636 23.0227C34.4981 23.0541 34.5263 23.1046 34.5263 23.135C34.5263 23.1654 34.5581 23.2004 34.597 23.2127C34.6358 23.225 34.6676 23.2499 34.6676 23.268C34.6676 23.2861 34.6914 23.301 34.7205 23.301C34.7496 23.301 34.7735 23.3169 34.7735 23.3363C34.7735 23.3557 34.8053 23.3716 34.8441 23.3716C34.8829 23.3716 34.9147 23.3875 34.9147 23.4069C34.9147 23.4263 34.9512 23.4422 34.9959 23.4422C35.0406 23.4422 35.0944 23.4595 35.1155 23.4806C35.1805 23.5456 35.8679 23.4746 35.8679 23.4029C35.8679 23.3857 35.8997 23.3716 35.9385 23.3716C35.9774 23.3716 36.0091 23.3557 36.0091 23.3363C36.0091 23.3169 36.0249 23.301 36.0442 23.301C36.0897 23.301 36.2563 23.1561 36.2563 23.1165C36.2563 23.0997 36.2943 23.0479 36.3408 23.0014C36.3872 22.955 36.4587 22.8133 36.4997 22.6867C36.5724 22.4615 36.574 22.4024 36.574 19.9506C36.574 18.318 36.5617 17.437 36.5387 17.4228C36.5193 17.4108 36.5034 17.3782 36.5034 17.3503C36.5034 17.2783 36.3861 17.0168 36.3538 17.0168C36.339 17.0168 36.3269 16.9993 36.3269 16.9779C36.3269 16.9274 36.0985 16.699 36.048 16.699C36.0266 16.699 36.0091 16.6831 36.0091 16.6637C36.0091 16.6443 35.9774 16.6284 35.9385 16.6284C35.8997 16.6284 35.8679 16.6143 35.8679 16.5971C35.8679 16.5257 35.152 16.4526 35.1105 16.5199ZM5.25862 29.1174C5.25841 29.132 5.18691 29.1752 5.09975 29.2136C5.01255 29.2519 4.9412 29.2956 4.9412 29.3106C4.9412 29.3257 4.90942 29.338 4.87059 29.338C4.83175 29.338 4.79998 29.3539 4.79998 29.3733C4.79998 29.3928 4.76026 29.4086 4.71172 29.4086C4.66317 29.4086 4.62346 29.4229 4.62346 29.4405C4.62346 29.4579 4.55203 29.5016 4.46473 29.5375C4.37742 29.5735 4.30593 29.6147 4.30586 29.6293C4.30579 29.6439 4.27394 29.6558 4.23511 29.6558C4.19627 29.6558 4.1645 29.6717 4.1645 29.6911C4.1645 29.7105 4.14218 29.7264 4.11493 29.7264C4.08767 29.7264 3.967 29.782 3.84676 29.85C3.72651 29.9179 3.60584 29.9735 3.57858 29.9735C3.55133 29.9735 3.52902 29.9894 3.52902 30.0088C3.52902 30.0282 3.49724 30.0441 3.45841 30.0441C3.41957 30.0441 3.3878 30.0582 3.3878 30.0753C3.3878 30.0925 3.35846 30.1142 3.32263 30.1236C3.27189 30.1368 3.26102 30.1651 3.27366 30.2512C3.28259 30.3121 3.30038 30.3619 3.31316 30.3619C3.32598 30.3619 3.36637 30.4175 3.40298 30.4854C3.43959 30.5534 3.48291 30.609 3.49925 30.609C3.51564 30.609 3.52902 30.6408 3.52902 30.6796C3.52902 30.7184 3.5449 30.7502 3.56432 30.7502C3.58374 30.7502 3.59962 30.7707 3.59962 30.7958C3.59962 30.8209 3.65523 30.9004 3.72319 30.9724C3.79115 31.0445 3.84676 31.1207 3.84676 31.1417C3.84676 31.1628 3.93413 31.2653 4.04093 31.3696C4.14773 31.4738 4.23511 31.5685 4.23511 31.5799C4.23511 31.607 4.4021 31.7741 4.42907 31.7741C4.44044 31.7741 4.50995 31.8336 4.58353 31.9064C4.74007 32.0613 4.8624 32.1624 4.89332 32.1624C4.9054 32.1624 4.94095 32.1913 4.97237 32.2267C5.00376 32.2621 5.08111 32.3211 5.1442 32.3579C5.20729 32.3947 5.25894 32.4372 5.25894 32.4525C5.25894 32.4677 5.29071 32.4801 5.32955 32.4801C5.36838 32.4801 5.40015 32.496 5.40015 32.5154C5.40015 32.5349 5.41671 32.5508 5.43694 32.5508C5.47158 32.5508 5.5115 32.5784 5.62833 32.6831C5.65541 32.7074 5.7025 32.7273 5.73304 32.7273C5.76354 32.7273 5.7885 32.7432 5.7885 32.7626C5.7885 32.782 5.82028 32.7979 5.85911 32.7979C5.89795 32.7979 5.92972 32.8138 5.92972 32.8332C5.92972 32.8526 5.95355 32.8685 5.98268 32.8685C6.0118 32.8685 6.03564 32.8844 6.03564 32.9038C6.03564 32.9232 6.06003 32.9391 6.08983 32.9391C6.13985 32.9391 6.31239 33.0329 6.35338 33.0823C6.36308 33.0941 6.42268 33.1261 6.48577 33.1535C6.54886 33.181 6.60051 33.2155 6.60051 33.2302C6.60051 33.2448 6.63228 33.2568 6.67112 33.2568C6.70995 33.2568 6.74172 33.2693 6.74172 33.2846C6.74172 33.2998 6.82903 33.3594 6.93579 33.4169C7.04252 33.4745 7.1299 33.5335 7.12997 33.5481C7.13 33.5627 7.16298 33.5746 7.20319 33.5746C7.24344 33.5746 7.29848 33.5945 7.32556 33.6187C7.432 33.7142 7.46967 33.7392 7.58021 33.7882C7.6433 33.8161 7.69495 33.8509 7.69495 33.8656C7.69495 33.8803 7.72672 33.8923 7.76556 33.8923C7.80439 33.8923 7.83616 33.9082 7.83616 33.9276C7.83616 33.947 7.85173 33.9629 7.8708 33.9629C7.88983 33.9629 7.99232 34.0185 8.09858 34.0865C8.20481 34.1545 8.31281 34.2101 8.33858 34.2101C8.36436 34.2101 8.40834 34.2418 8.43634 34.2807C8.46434 34.3195 8.50628 34.3513 8.52954 34.3513C8.58663 34.3513 8.78889 34.4682 8.78917 34.5013C8.78928 34.5159 8.82116 34.5278 8.85999 34.5278C8.89883 34.5278 8.9306 34.5437 8.9306 34.5631C8.9306 34.5825 8.95443 34.5984 8.98356 34.5984C9.01269 34.5984 9.03652 34.6143 9.03652 34.6337C9.03652 34.6531 9.06829 34.669 9.10713 34.669C9.14596 34.669 9.17784 34.6809 9.17795 34.6955C9.17823 34.7286 9.38049 34.8455 9.43758 34.8455C9.46084 34.8455 9.50278 34.8773 9.53078 34.9162C9.55878 34.955 9.6106 34.9868 9.64598 34.9868C9.70501 34.9868 9.73481 35.0044 9.85858 35.1125C9.88217 35.1331 9.95309 35.1727 10.0162 35.2006C10.0793 35.2284 10.1309 35.2631 10.1309 35.2778C10.1309 35.2925 10.1627 35.3045 10.2015 35.3045C10.2404 35.3045 10.2722 35.3204 10.2722 35.3398C10.2722 35.3592 10.3039 35.3751 10.3428 35.3751C10.3816 35.3751 10.4134 35.391 10.4134 35.4104C10.4134 35.4298 10.4372 35.4457 10.4663 35.4457C10.4955 35.4457 10.5194 35.4576 10.5195 35.4722C10.5198 35.5077 10.7239 35.6222 10.7869 35.6222C10.8145 35.6222 10.837 35.6381 10.837 35.6575C10.837 35.677 10.8688 35.6929 10.9076 35.6929C10.9465 35.6929 10.9782 35.7062 10.9782 35.7226C10.9782 35.739 11.0338 35.7823 11.1018 35.8189C11.1698 35.8555 11.2254 35.8977 11.2254 35.9127C11.2254 35.9277 11.2572 35.94 11.296 35.94C11.3348 35.94 11.3666 35.9559 11.3666 35.9753C11.3666 35.9947 11.3984 36.0106 11.4372 36.0106C11.476 36.0106 11.5078 36.0265 11.5078 36.0459C11.5078 36.0653 11.5316 36.0812 11.5608 36.0812C11.5899 36.0812 11.6138 36.0931 11.6139 36.1077C11.6143 36.1432 11.8184 36.2577 11.8814 36.2577C11.9089 36.2577 11.9315 36.2736 11.9315 36.293C11.9315 36.3124 11.9553 36.3283 11.9844 36.3283C12.0135 36.3283 12.0374 36.3442 12.0374 36.3636C12.0374 36.3831 12.0692 36.3989 12.108 36.3989C12.1468 36.3989 12.1786 36.4148 12.1786 36.4342C12.1786 36.4537 12.2036 36.4696 12.2341 36.4696C12.2646 36.4696 12.3117 36.4894 12.3388 36.5137C12.4556 36.6185 12.4955 36.6461 12.5302 36.6461C12.5504 36.6461 12.5669 36.662 12.5669 36.6814C12.5669 36.7008 12.5987 36.7167 12.6376 36.7167C12.6764 36.7167 12.7082 36.7326 12.7082 36.752C12.7082 36.7714 12.7399 36.7873 12.7788 36.7873C12.8176 36.7873 12.8494 36.8032 12.8494 36.8226C12.8494 36.842 12.8707 36.8579 12.8968 36.8579C12.923 36.8579 12.9905 36.8976 13.0469 36.9461C13.1033 36.9946 13.1773 37.0344 13.2113 37.0344C13.2452 37.0344 13.273 37.0503 13.273 37.0697C13.273 37.0891 13.3048 37.105 13.3436 37.105C13.3825 37.105 13.4143 37.1173 13.4143 37.1323C13.4143 37.1473 13.4699 37.1895 13.5378 37.2261C13.6058 37.2627 13.6614 37.3061 13.6614 37.3224C13.6614 37.3388 13.6932 37.3522 13.732 37.3522C13.7708 37.3522 13.8026 37.368 13.8026 37.3875C13.8026 37.4069 13.8344 37.4228 13.8732 37.4228C13.912 37.4228 13.9438 37.4387 13.9438 37.4581C13.9438 37.4775 13.9677 37.4934 13.9968 37.4934C14.0259 37.4934 14.0497 37.5057 14.0497 37.5208C14.0497 37.5359 14.1211 37.5795 14.2083 37.6179C14.2955 37.6562 14.3669 37.6995 14.3672 37.714C14.3673 37.7286 14.3993 37.7405 14.4381 37.7405C14.4769 37.7405 14.5087 37.7564 14.5087 37.7758C14.5087 37.7952 14.5325 37.8111 14.5617 37.8111C14.5908 37.8111 14.6146 37.827 14.6146 37.8464C14.6146 37.8658 14.6396 37.8817 14.6701 37.8817C14.7006 37.8817 14.7477 37.9016 14.7748 37.9259C14.8972 38.0357 14.9329 38.0583 14.9838 38.0583C15.0138 38.0583 15.0383 38.0741 15.0383 38.0936C15.0383 38.113 15.0621 38.1289 15.0912 38.1289C15.1203 38.1289 15.1442 38.1447 15.1442 38.1642C15.1442 38.1836 15.1759 38.1995 15.2148 38.1995C15.2536 38.1995 15.2854 38.2136 15.2854 38.231C15.2854 38.2483 15.3251 38.2724 15.3737 38.2846C15.4222 38.2968 15.4619 38.3223 15.4619 38.3414C15.4619 38.3604 15.4937 38.376 15.5325 38.376C15.5714 38.376 15.6031 38.3919 15.6031 38.4113C15.6031 38.4307 15.627 38.4466 15.6561 38.4466C15.6852 38.4466 15.709 38.4625 15.709 38.4819C15.709 38.5013 15.7408 38.5172 15.7797 38.5172C15.8185 38.5172 15.8503 38.5331 15.8503 38.5525C15.8503 38.5719 15.8654 38.5878 15.884 38.5878C15.9165 38.5878 16.1401 38.7251 16.2283 38.7992C16.2517 38.8189 16.2941 38.835 16.3224 38.835C16.3508 38.835 16.3792 38.8469 16.3857 38.8614C16.3922 38.876 16.4597 38.9197 16.5358 38.9585C16.7765 39.0814 16.8035 39.0982 16.8035 39.1258C16.8035 39.1406 16.8353 39.1527 16.8741 39.1527C16.9129 39.1527 16.9447 39.1686 16.9447 39.188C16.9447 39.2074 16.9765 39.2233 17.0153 39.2233C17.0541 39.2233 17.0859 39.2392 17.0859 39.2586C17.0859 39.278 17.1098 39.2939 17.1389 39.2939C17.168 39.2939 17.1918 39.3082 17.1918 39.3257C17.1918 39.3432 17.2633 39.3869 17.3506 39.4228C17.4379 39.4587 17.5094 39.5 17.5094 39.5146C17.5095 39.5291 17.5414 39.541 17.5802 39.541C17.619 39.541 17.6508 39.5569 17.6508 39.5763C17.6508 39.5958 17.6801 39.6117 17.716 39.6117C17.7754 39.6117 17.9254 39.6703 18.0828 39.7551C18.1165 39.7733 18.1761 39.7882 18.2152 39.7882C18.2543 39.7882 18.2863 39.8041 18.2863 39.8235C18.2863 39.8429 18.3419 39.8588 18.4098 39.8588C18.4778 39.8588 18.5334 39.8747 18.5334 39.8941C18.5334 39.9135 18.6128 39.9294 18.7099 39.9294C18.807 39.9294 18.8865 39.9453 18.8865 39.9647C18.8865 39.9875 19.3101 40 20.0868 40C20.8635 40 21.2872 39.9875 21.2872 39.9647C21.2872 39.9453 21.3666 39.9294 21.4637 39.9294C21.5608 39.9294 21.6402 39.9135 21.6402 39.8941C21.6402 39.8747 21.6958 39.8588 21.7638 39.8588C21.8317 39.8588 21.8873 39.8429 21.8873 39.8235C21.8873 39.8041 21.9192 39.7882 21.9581 39.7882C21.9971 39.7882 22.1112 39.7485 22.2119 39.6999C22.3125 39.6514 22.4236 39.6117 22.4588 39.6117C22.494 39.6117 22.5228 39.5958 22.5228 39.5763C22.5228 39.5569 22.5546 39.541 22.5934 39.541C22.6323 39.541 22.664 39.5252 22.664 39.5057C22.664 39.4863 22.6866 39.4704 22.7141 39.4704C22.7771 39.4704 22.9812 39.3559 22.9816 39.3204C22.9817 39.3058 23.0135 39.2939 23.0524 39.2939C23.0912 39.2939 23.123 39.278 23.123 39.2586C23.123 39.2392 23.1468 39.2233 23.1759 39.2233C23.2051 39.2233 23.2289 39.2074 23.2289 39.188C23.2289 39.1686 23.2607 39.1527 23.2995 39.1527C23.3383 39.1527 23.3701 39.1368 23.3701 39.1174C23.3701 39.098 23.3915 39.0821 23.4177 39.0821C23.4438 39.0821 23.5024 39.0499 23.5477 39.0105C23.5931 38.9712 23.6671 38.9297 23.712 38.9184C23.757 38.9072 23.7938 38.8837 23.7938 38.8664C23.7938 38.8491 23.8256 38.835 23.8644 38.835C23.9032 38.835 23.935 38.8191 23.935 38.7996C23.935 38.7802 23.9512 38.7643 23.971 38.7643C24.0139 38.7643 24.3005 38.5818 24.3174 38.5437C24.3239 38.5291 24.3597 38.5172 24.3969 38.5172C24.4341 38.5172 24.4646 38.5013 24.4646 38.4819C24.4646 38.4625 24.4924 38.4466 24.5263 38.4466C24.5603 38.4465 24.6343 38.4068 24.6907 38.3583C24.7471 38.3098 24.8146 38.2701 24.8408 38.2701C24.8669 38.2701 24.8882 38.2542 24.8882 38.2348C24.8882 38.2154 24.92 38.1995 24.9588 38.1995C24.9977 38.1995 25.0294 38.1865 25.0294 38.1708C25.0294 38.155 25.085 38.1202 25.153 38.0936C25.221 38.0669 25.2766 38.0347 25.2766 38.022C25.2766 38.0094 25.3399 37.9687 25.4174 37.9315C25.4948 37.8944 25.5584 37.8521 25.5586 37.8376C25.5588 37.8231 25.5828 37.8111 25.612 37.8111C25.6411 37.8111 25.6649 37.7952 25.6649 37.7758C25.6649 37.7564 25.6967 37.7405 25.7355 37.7405C25.7744 37.7405 25.8063 37.7286 25.8065 37.714C25.8067 37.6995 25.8782 37.6562 25.9653 37.6179C26.0525 37.5795 26.1239 37.5359 26.1239 37.5208C26.1239 37.5057 26.1477 37.4934 26.1768 37.4934C26.206 37.4934 26.2298 37.4775 26.2298 37.4581C26.2298 37.4387 26.2616 37.4228 26.3004 37.4228C26.3392 37.4228 26.371 37.4069 26.371 37.3875C26.371 37.368 26.4028 37.3522 26.4416 37.3522C26.4804 37.3522 26.5122 37.3399 26.5122 37.3249C26.5122 37.3099 26.5678 37.2677 26.6358 37.2311C26.7038 37.1945 26.7594 37.1511 26.7594 37.1348C26.7594 37.1184 26.7911 37.105 26.83 37.105C26.8688 37.105 26.9006 37.0891 26.9006 37.0697C26.9006 37.0503 26.9335 37.0344 26.9737 37.0344C27.0139 37.0344 27.069 37.0146 27.0961 36.9903C27.2129 36.8855 27.2528 36.8579 27.2874 36.8579C27.3077 36.8579 27.3242 36.842 27.3242 36.8226C27.3242 36.8032 27.356 36.7873 27.3948 36.7873C27.4337 36.7873 27.4654 36.7714 27.4654 36.752C27.4654 36.7326 27.4972 36.7167 27.5361 36.7167C27.5749 36.7167 27.6067 36.7008 27.6067 36.6814C27.6067 36.662 27.6305 36.6461 27.6596 36.6461C27.6887 36.6461 27.7126 36.6326 27.7126 36.6161C27.7126 36.5996 27.7761 36.5575 27.8538 36.5225C27.9315 36.4875 27.995 36.4454 27.995 36.4289C27.995 36.4124 28.0312 36.3989 28.0755 36.3989C28.1197 36.3989 28.1788 36.3672 28.2068 36.3283C28.2348 36.2895 28.2768 36.2577 28.3 36.2577C28.3571 36.2577 28.5594 36.1408 28.5597 36.1077C28.5598 36.0931 28.5917 36.0812 28.6305 36.0812C28.6693 36.0812 28.7011 36.0653 28.7011 36.0459C28.7011 36.0265 28.7249 36.0106 28.7541 36.0106C28.7832 36.0106 28.807 35.9947 28.807 35.9753C28.807 35.9559 28.8388 35.94 28.8776 35.94C28.9165 35.94 28.9482 35.9277 28.9482 35.9127C28.9482 35.8977 29.0038 35.8555 29.0718 35.8189C29.1398 35.7823 29.1954 35.739 29.1954 35.7226C29.1954 35.7062 29.2271 35.6929 29.266 35.6929C29.3048 35.6929 29.3366 35.677 29.3366 35.6575C29.3366 35.6381 29.361 35.6222 29.3908 35.6222C29.4408 35.6222 29.6133 35.5285 29.6543 35.479C29.664 35.4673 29.7236 35.4352 29.7867 35.4078C29.8498 35.3803 29.9015 35.3459 29.9015 35.3312C29.9015 35.3165 29.9332 35.3045 29.9721 35.3045C30.0109 35.3045 30.0427 35.2925 30.0427 35.2778C30.0427 35.2631 30.0943 35.2284 30.1574 35.2006C30.2205 35.1727 30.2915 35.1331 30.315 35.1125C30.4397 35.0037 30.4693 34.9868 30.5355 34.9868C30.5751 34.9868 30.6076 34.9749 30.6077 34.9603C30.6077 34.9457 30.6951 34.8867 30.8018 34.8291C30.9086 34.7715 30.9959 34.712 30.9959 34.6967C30.9959 34.6815 31.0277 34.669 31.0665 34.669C31.1053 34.669 31.1371 34.6531 31.1371 34.6337C31.1371 34.6143 31.1609 34.5984 31.1901 34.5984C31.2192 34.5984 31.243 34.5825 31.243 34.5631C31.243 34.5437 31.2748 34.5278 31.3136 34.5278C31.3525 34.5278 31.3843 34.5159 31.3845 34.5013C31.3848 34.4658 31.5889 34.3513 31.6519 34.3513C31.6794 34.3513 31.702 34.3354 31.702 34.316C31.702 34.2966 31.7258 34.2807 31.7549 34.2807C31.7841 34.2807 31.8081 34.2688 31.8085 34.2542C31.8088 34.2396 31.9041 34.1806 32.0203 34.123C32.1365 34.0654 32.2316 34.0059 32.2316 33.9906C32.2316 33.9754 32.2554 33.9629 32.2845 33.9629C32.3136 33.9629 32.3375 33.947 32.3375 33.9276C32.3375 33.9082 32.3692 33.8923 32.4081 33.8923C32.4469 33.8923 32.4787 33.8797 32.4787 33.8643C32.4787 33.8488 32.5476 33.8078 32.6319 33.773C32.7162 33.7383 32.8071 33.6794 32.8339 33.6422C32.8607 33.605 32.9188 33.5746 32.9631 33.5746C33.0073 33.5746 33.0436 33.5627 33.0437 33.5481C33.0437 33.5335 33.1311 33.4745 33.2378 33.4169C33.3446 33.3594 33.4319 33.2998 33.4319 33.2846C33.4319 33.2693 33.4637 33.2568 33.5025 33.2568C33.5413 33.2568 33.5731 33.241 33.5731 33.2215C33.5731 33.2021 33.6049 33.1862 33.6437 33.1862C33.6826 33.1862 33.7143 33.1703 33.7143 33.1509C33.7143 33.1315 33.7382 33.1156 33.7673 33.1156C33.7964 33.1156 33.8203 33.0997 33.8203 33.0803C33.8203 33.0609 33.8421 33.045 33.8689 33.045C33.8956 33.045 33.9373 33.0212 33.9615 32.9921C33.9857 32.9629 34.0353 32.9391 34.0717 32.9391C34.1082 32.9391 34.138 32.9232 34.138 32.9038C34.138 32.8844 34.1698 32.8685 34.2086 32.8685C34.2474 32.8685 34.2792 32.8526 34.2792 32.8332C34.2792 32.8138 34.303 32.7979 34.3322 32.7979C34.3613 32.7979 34.3851 32.782 34.3851 32.7626C34.3851 32.7432 34.4101 32.7273 34.4406 32.7273C34.4711 32.7273 34.5182 32.7074 34.5453 32.6831C34.6621 32.5784 34.7021 32.5508 34.7367 32.5508C34.7569 32.5508 34.7735 32.5349 34.7735 32.5154C34.7735 32.496 34.8053 32.4801 34.8441 32.4801C34.8829 32.4801 34.9147 32.4677 34.9147 32.4525C34.9147 32.4372 34.9663 32.3947 35.0294 32.3579C35.0926 32.3211 35.1699 32.2621 35.2013 32.2267C35.2327 32.1913 35.2764 32.1624 35.2983 32.1624C35.3203 32.1624 35.3383 32.1465 35.3383 32.1271C35.3383 32.1077 35.3561 32.0918 35.3779 32.0918C35.3996 32.0918 35.4859 32.0203 35.5697 31.9329C35.6534 31.8455 35.7316 31.7741 35.7435 31.7741C35.7713 31.7741 35.9385 31.6075 35.9385 31.5799C35.9385 31.5685 36.0259 31.4738 36.1327 31.3696C36.2395 31.2653 36.3269 31.1628 36.3269 31.1417C36.3269 31.1207 36.3825 31.0445 36.4504 30.9724C36.5184 30.9004 36.574 30.8209 36.574 30.7958C36.574 30.7707 36.5899 30.7502 36.6093 30.7502C36.6287 30.7502 36.6446 30.7184 36.6446 30.6796C36.6446 30.6408 36.6576 30.609 36.6734 30.609C36.7079 30.609 36.864 30.3431 36.8986 30.2256C36.9176 30.161 36.9077 30.1384 36.8544 30.1244C36.8167 30.1146 36.7858 30.0925 36.7858 30.0753C36.7858 30.0582 36.7541 30.0441 36.7152 30.0441C36.6764 30.0441 36.6446 30.0282 36.6446 30.0088C36.6446 29.9894 36.6223 29.9735 36.595 29.9735C36.5678 29.9735 36.4471 29.9179 36.3269 29.85C36.2066 29.782 36.086 29.7264 36.0587 29.7264C36.0314 29.7264 36.0091 29.7105 36.0091 29.6911C36.0091 29.6717 35.9774 29.6558 35.9385 29.6558C35.8997 29.6558 35.8678 29.6439 35.8678 29.6293C35.8677 29.6147 35.7962 29.5735 35.7089 29.5375C35.6216 29.5016 35.5502 29.4579 35.5502 29.4405C35.5502 29.4229 35.5105 29.4086 35.4619 29.4086C35.4134 29.4086 35.3737 29.3928 35.3737 29.3733C35.3737 29.3539 35.3419 29.338 35.303 29.338C35.2642 29.338 35.2323 29.3261 35.232 29.3116C35.2318 29.297 35.1643 29.2536 35.082 29.215C34.9997 29.1765 34.9219 29.1302 34.9091 29.1122C34.8843 29.0774 34.7735 29.1689 34.7735 29.2241C34.7735 29.2419 34.7338 29.3026 34.6852 29.359C34.6367 29.4155 34.597 29.4815 34.597 29.5057C34.597 29.53 34.5811 29.5499 34.5616 29.5499C34.5422 29.5499 34.5263 29.5665 34.5263 29.5868C34.5263 29.6071 34.4906 29.6603 34.4469 29.7051C34.304 29.8517 34.2086 29.9734 34.2086 30.0091C34.2086 30.0283 34.186 30.0441 34.1584 30.0441C34.1308 30.0441 34.0368 30.1156 33.9494 30.203C33.862 30.2904 33.7734 30.3619 33.7524 30.3619C33.7315 30.3619 33.7143 30.3778 33.7143 30.3972C33.7143 30.4166 33.6898 30.4325 33.6599 30.4325C33.63 30.4325 33.5863 30.4486 33.5628 30.4683C33.4746 30.5423 33.251 30.6796 33.2185 30.6796C33.2 30.6796 33.1848 30.6955 33.1848 30.7149C33.1848 30.7343 33.153 30.7502 33.1142 30.7502C33.0753 30.7502 33.0436 30.7661 33.0436 30.7855C33.0436 30.8049 33.0273 30.8208 33.0075 30.8208C32.9647 30.8208 32.678 31.0034 32.6611 31.0415C32.6546 31.0561 32.6144 31.068 32.5718 31.068C32.5292 31.068 32.4714 31.0997 32.4434 31.1386C32.4154 31.1774 32.3734 31.2092 32.3502 31.2092C32.2931 31.2092 32.0908 31.3261 32.0905 31.3592C32.0904 31.3738 32.0586 31.3857 32.0197 31.3857C31.9809 31.3857 31.9491 31.4016 31.9491 31.421C31.9491 31.4404 31.9253 31.4563 31.8962 31.4563C31.867 31.4563 31.8432 31.4722 31.8432 31.4916C31.8432 31.511 31.8114 31.5269 31.7726 31.5269C31.7338 31.5269 31.702 31.5394 31.702 31.5546C31.702 31.5699 31.6147 31.6294 31.5079 31.687C31.4012 31.7446 31.3138 31.8036 31.3137 31.8182C31.3137 31.8328 31.2807 31.8447 31.2405 31.8447C31.2003 31.8447 31.1452 31.8645 31.1182 31.8888C31.0117 31.9843 30.974 32.0093 30.8635 32.0583C30.8004 32.0862 30.7488 32.121 30.7488 32.1357C30.7488 32.1504 30.717 32.1624 30.6782 32.1624C30.6393 32.1624 30.6075 32.1744 30.6075 32.1891C30.6075 32.2038 30.5559 32.2382 30.4928 32.2657C30.4297 32.2931 30.3701 32.3252 30.3604 32.3369C30.3194 32.3864 30.1469 32.4801 30.0969 32.4801C30.0671 32.4801 30.0427 32.496 30.0427 32.5154C30.0427 32.5349 30.0109 32.5508 29.9721 32.5508C29.9332 32.5508 29.9015 32.5641 29.9015 32.5805C29.9015 32.5969 29.8459 32.6402 29.7779 32.6768C29.7099 32.7134 29.6543 32.7556 29.6543 32.7706C29.6543 32.7856 29.6226 32.7979 29.5837 32.7979C29.5449 32.7979 29.5131 32.8138 29.5131 32.8332C29.5131 32.8526 29.4893 32.8685 29.4601 32.8685C29.431 32.8685 29.4072 32.8844 29.4072 32.9038C29.4072 32.9232 29.3754 32.9391 29.3366 32.9391C29.2977 32.9391 29.266 32.9534 29.266 32.9709C29.266 32.9884 29.1946 33.0321 29.1072 33.068C29.0199 33.1039 28.9484 33.1452 28.9484 33.1598C28.9483 33.1743 28.9244 33.1862 28.8953 33.1862C28.8662 33.1862 28.8423 33.2021 28.8423 33.2215C28.8423 33.241 28.8105 33.2568 28.7717 33.2568C28.7329 33.2568 28.7011 33.2703 28.7011 33.2868C28.7011 33.3033 28.6376 33.3454 28.5599 33.3804C28.4822 33.4154 28.4187 33.4575 28.4187 33.474C28.4187 33.4905 28.3948 33.504 28.3657 33.504C28.3366 33.504 28.3128 33.5199 28.3128 33.5393C28.3128 33.5587 28.281 33.5746 28.2421 33.5746C28.2033 33.5746 28.1715 33.5905 28.1715 33.6099C28.1715 33.6293 28.1398 33.6452 28.1009 33.6452C28.0621 33.6452 28.0303 33.6611 28.0303 33.6805C28.0303 33.6999 28.009 33.7158 27.9829 33.7158C27.9567 33.7158 27.8892 33.7555 27.8328 33.804C27.7764 33.8525 27.7024 33.8923 27.6684 33.8923C27.6345 33.8923 27.6067 33.9082 27.6067 33.9276C27.6067 33.947 27.5749 33.9629 27.5361 33.9629C27.4972 33.9629 27.4654 33.9769 27.4654 33.9939C27.4654 34.0109 27.3781 34.0705 27.2713 34.1263C27.1646 34.1821 27.0772 34.2396 27.0772 34.2542C27.0771 34.2688 27.0453 34.2807 27.0065 34.2807C26.9677 34.2807 26.9359 34.2966 26.9359 34.316C26.9359 34.3354 26.912 34.3513 26.8829 34.3513C26.8538 34.3513 26.83 34.3672 26.83 34.3866C26.83 34.406 26.8081 34.4219 26.7813 34.4219C26.7546 34.4219 26.7129 34.4457 26.6887 34.4748C26.6646 34.504 26.615 34.5278 26.5785 34.5278C26.5421 34.5278 26.5122 34.5437 26.5122 34.5631C26.5122 34.5825 26.4804 34.5984 26.4416 34.5984C26.4028 34.5984 26.371 34.6143 26.371 34.6337C26.371 34.6531 26.3472 34.669 26.318 34.669C26.2889 34.669 26.2651 34.6849 26.2651 34.7043C26.2651 34.7237 26.2401 34.7396 26.2096 34.7396C26.1791 34.7396 26.132 34.7595 26.1049 34.7838C25.9881 34.8885 25.9482 34.9162 25.9135 34.9162C25.8933 34.9162 25.8767 34.932 25.8767 34.9515C25.8767 34.9709 25.845 34.9868 25.8061 34.9868C25.7673 34.9868 25.7355 35.0026 25.7355 35.0221C25.7355 35.0415 25.7038 35.0574 25.6649 35.0574C25.6261 35.0574 25.5943 35.0733 25.5943 35.0927C25.5943 35.1121 25.5716 35.128 25.5439 35.128C25.5161 35.128 25.4724 35.1488 25.4468 35.1743C25.4211 35.1998 25.3485 35.2434 25.2854 35.2712C25.2223 35.299 25.1707 35.3337 25.1707 35.3484C25.1707 35.3631 25.1389 35.3751 25.1 35.3751C25.0612 35.3751 25.0294 35.391 25.0294 35.4104C25.0294 35.4298 25.0143 35.4457 24.9957 35.4457C24.9632 35.4457 24.7396 35.583 24.6514 35.6571C24.628 35.6768 24.5856 35.6929 24.5573 35.6929C24.5289 35.6929 24.5005 35.7047 24.494 35.7193C24.4875 35.7339 24.42 35.7776 24.3439 35.8164C24.1032 35.9393 24.0762 35.9561 24.0762 35.9837C24.0762 35.9985 24.0444 36.0106 24.0056 36.0106C23.9668 36.0106 23.935 36.0265 23.935 36.0459C23.935 36.0653 23.9112 36.0812 23.882 36.0812C23.8529 36.0812 23.8291 36.0971 23.8291 36.1165C23.8291 36.1359 23.7973 36.1518 23.7585 36.1518C23.7196 36.1518 23.6879 36.1652 23.6879 36.1814C23.6879 36.1977 23.6245 36.2414 23.547 36.2785C23.4696 36.3156 23.4061 36.3579 23.4058 36.3725C23.4056 36.387 23.3816 36.3989 23.3525 36.3989C23.3233 36.3989 23.2995 36.4148 23.2995 36.4342C23.2995 36.4537 23.277 36.4696 23.2494 36.4696C23.1864 36.4696 22.9823 36.5841 22.982 36.6196C22.9819 36.6341 22.95 36.6461 22.9112 36.6461C22.8723 36.6461 22.8406 36.662 22.8406 36.6814C22.8406 36.7008 22.8167 36.7167 22.7876 36.7167C22.7585 36.7167 22.7346 36.7326 22.7346 36.752C22.7346 36.7714 22.7029 36.7873 22.664 36.7873C22.6252 36.7873 22.5934 36.7998 22.5934 36.8151C22.5934 36.8305 22.506 36.8887 22.3992 36.9446C22.2925 37.0005 22.2051 37.0594 22.2051 37.0756C22.2051 37.0918 22.1733 37.105 22.1345 37.105C22.0956 37.105 22.0638 37.117 22.0637 37.1315C22.0636 37.1461 21.9922 37.1874 21.9048 37.2233C21.8175 37.2592 21.7461 37.3029 21.7461 37.3204C21.7461 37.3379 21.7153 37.3522 21.6776 37.3522C21.6399 37.3522 21.5992 37.368 21.5872 37.3875C21.5752 37.4069 21.5346 37.4228 21.4969 37.4228C21.4592 37.4228 21.4284 37.4387 21.4284 37.4581C21.4284 37.4775 21.3887 37.4934 21.3401 37.4934C21.2916 37.4934 21.2519 37.5093 21.2519 37.5287C21.2519 37.5481 21.2111 37.564 21.1613 37.564C21.1114 37.564 21.0371 37.5819 20.9961 37.6039C20.8703 37.6712 20.5124 37.715 20.0868 37.715C19.6612 37.715 19.3033 37.6712 19.1775 37.6039C19.1365 37.5819 19.0622 37.564 19.0123 37.564C18.9625 37.564 18.9218 37.5481 18.9218 37.5287C18.9218 37.5093 18.882 37.4934 18.8335 37.4934C18.785 37.4934 18.7452 37.4775 18.7452 37.4581C18.7452 37.4387 18.7144 37.4228 18.6767 37.4228C18.639 37.4228 18.5984 37.4069 18.5864 37.3875C18.5744 37.368 18.5405 37.3522 18.5112 37.3522C18.4818 37.3522 18.4356 37.3323 18.4085 37.308C18.2829 37.1953 18.2491 37.1756 18.1818 37.1756C18.1422 37.1756 18.1098 37.1598 18.1098 37.1403C18.1098 37.1209 18.0853 37.105 18.0553 37.105C18.0254 37.105 17.9692 37.0756 17.9306 37.0395C17.8919 37.0035 17.7974 36.9439 17.7206 36.9072C17.6438 36.8704 17.5808 36.8283 17.5806 36.8138C17.5804 36.7992 17.5484 36.7873 17.5096 36.7873C17.4707 36.7873 17.439 36.7714 17.439 36.752C17.439 36.7326 17.4151 36.7167 17.386 36.7167C17.3569 36.7167 17.3331 36.7008 17.3331 36.6814C17.3331 36.662 17.3013 36.6461 17.2624 36.6461C17.2236 36.6461 17.1918 36.6338 17.1918 36.6188C17.1918 36.6038 17.1362 36.5616 17.0683 36.525C17.0003 36.4884 16.9447 36.445 16.9447 36.4287C16.9447 36.4123 16.905 36.3989 16.8564 36.3989C16.8079 36.3989 16.768 36.387 16.7678 36.3725C16.7675 36.3579 16.704 36.3156 16.6266 36.2785C16.5491 36.2414 16.4857 36.1977 16.4857 36.1814C16.4857 36.1652 16.4619 36.1518 16.4328 36.1518C16.4037 36.1518 16.3798 36.1359 16.3798 36.1165C16.3798 36.0971 16.3481 36.0812 16.3092 36.0812C16.2704 36.0812 16.2386 36.0653 16.2386 36.0459C16.2386 36.0265 16.2068 36.0106 16.168 36.0106C16.1292 36.0106 16.0974 35.9985 16.0974 35.9837C16.0974 35.9561 16.0705 35.9393 15.8298 35.8164C15.7536 35.7776 15.6861 35.7339 15.6796 35.7193C15.6731 35.7047 15.6447 35.6929 15.6163 35.6929C15.588 35.6929 15.5457 35.6768 15.5222 35.6571C15.434 35.583 15.2104 35.4457 15.1779 35.4457C15.1594 35.4457 15.1442 35.4298 15.1442 35.4104C15.1442 35.391 15.1124 35.3751 15.0736 35.3751C15.0347 35.3751 15.003 35.3592 15.003 35.3398C15.003 35.3204 14.9791 35.3045 14.95 35.3045C14.9209 35.3045 14.897 35.2886 14.897 35.2692C14.897 35.2498 14.8653 35.2339 14.8264 35.2339C14.7876 35.2339 14.7558 35.2183 14.7558 35.1993C14.7558 35.1802 14.7161 35.1547 14.6676 35.1425C14.619 35.1303 14.5793 35.1062 14.5793 35.0889C14.5793 35.0715 14.5475 35.0574 14.5087 35.0574C14.4699 35.0574 14.4381 35.0415 14.4381 35.0221C14.4381 35.0026 14.4143 34.9868 14.3851 34.9868C14.356 34.9868 14.332 34.9749 14.3318 34.9603C14.3315 34.9457 14.268 34.9034 14.1906 34.8663C14.1131 34.8292 14.0497 34.7856 14.0497 34.7692C14.0497 34.753 14.018 34.7396 13.9791 34.7396C13.9403 34.7396 13.9085 34.7237 13.9085 34.7043C13.9085 34.6849 13.8847 34.669 13.8556 34.669C13.8264 34.669 13.8026 34.6531 13.8026 34.6337C13.8026 34.6143 13.7708 34.5984 13.732 34.5984C13.6932 34.5984 13.6614 34.5843 13.6614 34.5669C13.6614 34.5496 13.6217 34.5255 13.5731 34.5133C13.5246 34.5011 13.4849 34.4756 13.4849 34.4565C13.4849 34.4375 13.4531 34.4219 13.4143 34.4219C13.3754 34.4219 13.3436 34.406 13.3436 34.3866C13.3436 34.3672 13.3198 34.3513 13.2907 34.3513C13.2616 34.3513 13.2377 34.3354 13.2377 34.316C13.2377 34.2966 13.206 34.2807 13.1671 34.2807C13.1283 34.2807 13.0964 34.2688 13.0964 34.2542C13.0963 34.2396 13.009 34.1806 12.9022 34.123C12.7955 34.0655 12.7082 34.0059 12.7082 33.9906C12.7082 33.9754 12.6764 33.9629 12.6376 33.9629C12.5987 33.9629 12.5669 33.9488 12.5669 33.9314C12.5669 33.9141 12.5302 33.8907 12.4852 33.8795C12.4402 33.8682 12.3663 33.8267 12.3209 33.7874C12.2755 33.748 12.217 33.7158 12.1908 33.7158C12.1647 33.7158 12.1433 33.6999 12.1433 33.6805C12.1433 33.6611 12.1115 33.6452 12.0727 33.6452C12.0338 33.6452 12.0021 33.6293 12.0021 33.6099C12.0021 33.5905 11.9703 33.5746 11.9315 33.5746C11.8926 33.5746 11.8609 33.5587 11.8609 33.5393C11.8609 33.5199 11.8443 33.504 11.8241 33.504C11.7894 33.504 11.7495 33.4764 11.6327 33.3716C11.6056 33.3473 11.5585 33.3274 11.528 33.3274C11.4975 33.3274 11.4725 33.3116 11.4725 33.2921C11.4725 33.2727 11.4487 33.2568 11.4196 33.2568C11.3904 33.2568 11.3666 33.241 11.3666 33.2215C11.3666 33.2021 11.3348 33.1862 11.296 33.1862C11.2572 33.1862 11.2253 33.1743 11.2252 33.1598C11.2252 33.1452 11.1537 33.1039 11.0664 33.068C10.9791 33.0321 10.9076 32.9884 10.9076 32.9709C10.9076 32.9534 10.8838 32.9391 10.8547 32.9391C10.8256 32.9391 10.8017 32.9232 10.8017 32.9038C10.8017 32.8844 10.7699 32.8685 10.7311 32.8685C10.6923 32.8685 10.6605 32.8526 10.6605 32.8332C10.6605 32.8138 10.6287 32.7979 10.5899 32.7979C10.5511 32.7979 10.5193 32.7856 10.5193 32.7706C10.5193 32.7556 10.4637 32.7134 10.3957 32.6768C10.3278 32.6402 10.2722 32.5969 10.2722 32.5805C10.2722 32.5641 10.2404 32.5508 10.2015 32.5508C10.1627 32.5508 10.1309 32.5349 10.1309 32.5154C10.1309 32.496 10.1065 32.4801 10.0767 32.4801C10.0267 32.4801 9.8542 32.3864 9.81322 32.3369C9.80351 32.3252 9.74395 32.2931 9.68082 32.2657C9.6177 32.2382 9.56608 32.2038 9.56608 32.1891C9.56608 32.1744 9.53431 32.1624 9.49548 32.1624C9.45664 32.1624 9.42487 32.1465 9.42487 32.1271C9.42487 32.1077 9.40104 32.0918 9.37191 32.0918C9.34278 32.0918 9.31895 32.0759 9.31895 32.0565C9.31895 32.0371 9.29399 32.0212 9.26349 32.0212C9.23295 32.0212 9.18586 32.0013 9.15878 31.9771C9.03532 31.8663 9.00033 31.8447 8.94508 31.8447C8.91253 31.8447 8.86024 31.8164 8.82882 31.7819C8.79744 31.7473 8.70423 31.6892 8.62169 31.6529C8.53915 31.6166 8.47165 31.5733 8.47165 31.5569C8.47165 31.5404 8.43987 31.5269 8.40104 31.5269C8.3622 31.5269 8.33043 31.511 8.33043 31.4916C8.33043 31.4722 8.3066 31.4563 8.27747 31.4563C8.24834 31.4563 8.22451 31.4404 8.22451 31.421C8.22451 31.4016 8.19274 31.3857 8.1539 31.3857C8.11507 31.3857 8.08319 31.3738 8.08308 31.3592C8.0828 31.3261 7.88054 31.2092 7.82345 31.2092C7.80019 31.2092 7.75825 31.1774 7.73025 31.1386C7.70225 31.0997 7.65827 31.068 7.63249 31.068C7.60672 31.068 7.49872 31.0124 7.39249 30.9444C7.28623 30.8764 7.18374 30.8208 7.16471 30.8208C7.14564 30.8208 7.13007 30.8049 7.13007 30.7855C7.13007 30.7661 7.0983 30.7502 7.05947 30.7502C7.02063 30.7502 6.98886 30.7343 6.98886 30.7149C6.98886 30.6955 6.97368 30.6796 6.95511 30.6796C6.92266 30.6796 6.69901 30.5423 6.61082 30.4683C6.58737 30.4486 6.54367 30.4325 6.51373 30.4325C6.48379 30.4325 6.45929 30.4166 6.45929 30.3972C6.45929 30.3778 6.4427 30.3619 6.4224 30.3619C6.4021 30.3619 6.34882 30.3261 6.30402 30.2824C6.15747 30.1396 6.03574 30.0441 6.00005 30.0441C5.98081 30.0441 5.96503 30.0283 5.96503 30.0091C5.96503 29.9734 5.8696 29.8517 5.72672 29.7051C5.68301 29.6603 5.64729 29.6071 5.64729 29.5868C5.64729 29.5665 5.6314 29.5499 5.61198 29.5499C5.59256 29.5499 5.57664 29.53 5.57664 29.5057C5.57661 29.4815 5.53689 29.4155 5.48838 29.359C5.43984 29.3026 5.40015 29.2419 5.40015 29.2241C5.40015 29.1887 5.31133 29.0909 5.27909 29.0909C5.26801 29.0909 5.25879 29.1028 5.25862 29.1174Z" fill="black" stroke="#F0F8FF" stroke-width="0.5"/>
</g>
<defs>
<clipPath id="clip0_1070_1363">
<rect width="41" height="40" fill="white"/>
</clipPath>
</defs>
</svg>
