<svg width="41" height="40" viewBox="0 0 41 40" fill="none" xmlns="http://www.w3.org/2000/svg">
<g clip-path="url(#clip0_1070_1365)">
<mask id="mask0_1070_1365" style="mask-type:luminance" maskUnits="userSpaceOnUse" x="-1" y="-1" width="42" height="42">
<path d="M40.1758 0H0.175781V40H40.1758V0Z" fill="white" stroke="white" stroke-width="0.5"/>
</mask>
<g mask="url(#mask0_1070_1365)">
<path fill-rule="evenodd" clip-rule="evenodd" d="M18.8518 0.0332215C18.8518 0.0515093 18.6651 0.0742101 18.437 0.083707C18.2089 0.0931686 17.903 0.115693 17.7574 0.133769C17.2017 0.202683 16.8903 0.253557 16.8312 0.285084C16.7974 0.303054 16.6902 0.317741 16.5928 0.317741C16.4955 0.317741 16.4158 0.333628 16.4158 0.353045C16.4158 0.372462 16.3284 0.38835 16.2217 0.38835C16.1149 0.38835 16.0275 0.402718 16.0275 0.420229C16.0275 0.437776 15.952 0.459629 15.8598 0.468773C15.7675 0.477917 15.5968 0.512515 15.4803 0.545666C15.3638 0.578817 15.2166 0.614334 15.1534 0.624607C15.0901 0.634881 15.0296 0.657405 15.0189 0.674669C15.0082 0.691968 14.9448 0.70609 14.878 0.70609C14.8112 0.70609 14.7565 0.721977 14.7565 0.741395C14.7565 0.760812 14.693 0.776699 14.6153 0.776699C14.5376 0.776699 14.4741 0.792586 14.4741 0.812004C14.4741 0.831421 14.4274 0.847308 14.3703 0.847308C14.3131 0.847308 14.2566 0.863195 14.2446 0.882613C14.2326 0.90203 14.1959 0.918023 14.1631 0.918129C14.1303 0.91827 14.0579 0.942101 14.0023 0.971086C13.9466 1.00011 13.8712 1.02383 13.8346 1.02383C13.798 1.02383 13.768 1.03972 13.768 1.05914C13.768 1.07855 13.7124 1.09444 13.6444 1.09444C13.5765 1.09444 13.5209 1.11033 13.5209 1.12974C13.5209 1.14916 13.4732 1.16505 13.4149 1.16505C13.3567 1.16505 13.309 1.18094 13.309 1.20035C13.309 1.21977 13.2778 1.23566 13.2396 1.23566C13.1622 1.23566 12.9096 1.34447 12.8913 1.3857C12.8848 1.40028 12.8332 1.41218 12.7765 1.41218C12.7199 1.41218 12.6736 1.42807 12.6736 1.44748C12.6736 1.4669 12.6338 1.48279 12.5853 1.48279C12.5367 1.48279 12.497 1.49868 12.497 1.51809C12.497 1.53751 12.4736 1.5534 12.4448 1.5534C12.3818 1.5534 11.9899 1.73677 11.9734 1.77405C11.9669 1.78863 11.9232 1.80053 11.8763 1.80053C11.8293 1.80053 11.7909 1.81642 11.7909 1.83583C11.7909 1.85525 11.7681 1.87114 11.7401 1.87114C11.7122 1.87114 11.5811 1.92667 11.4489 1.99453C11.3166 2.06238 11.1886 2.11799 11.1643 2.11809C11.14 2.1182 11.1202 2.13416 11.1202 2.15357C11.1202 2.17299 11.0884 2.18888 11.0495 2.18888C11.0107 2.18888 10.9789 2.20477 10.9789 2.22418C10.9789 2.2436 10.9551 2.25949 10.926 2.25949C10.8969 2.25949 10.873 2.27538 10.873 2.29479C10.873 2.31421 10.8505 2.3301 10.8229 2.3301C10.7599 2.3301 10.5558 2.44462 10.5555 2.48014C10.5554 2.49469 10.5235 2.50662 10.4847 2.50662C10.4458 2.50662 10.4141 2.52251 10.4141 2.54192C10.4141 2.56134 10.3823 2.57723 10.3435 2.57723C10.3046 2.57723 10.2728 2.59312 10.2728 2.61253C10.2728 2.63195 10.249 2.64784 10.2199 2.64784C10.1908 2.64784 10.1669 2.66372 10.1669 2.68314C10.1669 2.70256 10.1352 2.71845 10.0963 2.71845C10.0575 2.71845 10.0257 2.73402 10.0257 2.75308C10.0257 2.77211 9.98602 2.79767 9.93747 2.80985C9.88893 2.82203 9.84921 2.84618 9.84921 2.86348C9.84921 2.88081 9.82093 2.89497 9.7864 2.89497C9.75184 2.89497 9.70069 2.92674 9.67269 2.96558C9.64469 3.00441 9.59354 3.03619 9.55897 3.03619C9.52444 3.03619 9.49617 3.05207 9.49617 3.07149C9.49617 3.09091 9.47961 3.1068 9.45938 3.1068C9.42475 3.1068 9.38482 3.1344 9.26799 3.23919C9.24091 3.26348 9.20176 3.28332 9.18093 3.28332C9.16014 3.28332 9.14312 3.29921 9.14312 3.31862C9.14312 3.33804 9.11717 3.35393 9.08547 3.35393C9.05377 3.35393 9.00215 3.38284 8.97073 3.41822C8.93934 3.45359 8.86199 3.51262 8.7989 3.54941C8.73581 3.5862 8.68416 3.62874 8.68416 3.64399C8.68416 3.65921 8.65588 3.67167 8.62136 3.67167C8.58679 3.67167 8.53564 3.70344 8.50764 3.74228C8.47964 3.78111 8.4437 3.81289 8.42775 3.81289C8.39675 3.81289 8.34323 3.85363 8.20745 3.98058C8.16074 4.02429 8.11315 4.06002 8.10174 4.06002C8.07866 4.06002 8.01655 4.10913 7.88971 4.22771C7.843 4.27142 7.79167 4.30715 7.77564 4.30715C7.75964 4.30715 7.72363 4.33892 7.69564 4.37776C7.66764 4.41659 7.62365 4.44837 7.59784 4.44837C7.57204 4.44837 7.45592 4.54369 7.33977 4.66019C7.22362 4.7767 7.11548 4.87202 7.09945 4.87202C7.08342 4.87202 6.91442 5.02295 6.72384 5.20741C6.53327 5.39188 6.37225 5.54281 6.366 5.54281C6.30771 5.54281 5.71858 6.14055 5.71858 6.19968C5.71858 6.22814 5.46033 6.45889 5.42732 6.45991C5.41278 6.46037 5.40084 6.47622 5.40084 6.49518C5.40084 6.51414 5.32141 6.61296 5.22432 6.71474C5.12723 6.81652 5.0478 6.91174 5.0478 6.92632C5.0478 6.9409 4.95248 7.04784 4.83597 7.16399C4.71947 7.28014 4.62415 7.39626 4.62415 7.42207C4.62415 7.44787 4.59237 7.49186 4.55354 7.51986C4.5147 7.54786 4.48293 7.58387 4.48293 7.59986C4.48293 7.61589 4.44716 7.66722 4.40349 7.71393C4.2849 7.84078 4.2358 7.90288 4.2358 7.92597C4.2358 7.93737 4.20003 7.98496 4.15636 8.03167C4.02941 8.16745 3.98866 8.22097 3.98866 8.25197C3.98866 8.26793 3.95689 8.30387 3.91805 8.33186C3.87922 8.35986 3.84745 8.41101 3.84745 8.44558C3.84745 8.48011 3.83498 8.50838 3.81977 8.50838C3.80452 8.50838 3.76197 8.56 3.72519 8.62312C3.6884 8.68621 3.62937 8.76357 3.59399 8.79495C3.55862 8.82637 3.52971 8.87799 3.52971 8.90969C3.52971 8.94139 3.51382 8.96734 3.4944 8.96734C3.47498 8.96734 3.4591 8.98436 3.4591 9.00515C3.4591 9.02598 3.43926 9.06514 3.41497 9.09221C3.31018 9.20904 3.28257 9.24897 3.28257 9.2836C3.28257 9.30383 3.26669 9.32039 3.24727 9.32039C3.22785 9.32039 3.21196 9.34867 3.21196 9.38319C3.21196 9.41776 3.18019 9.46891 3.14136 9.49691C3.10252 9.52491 3.07075 9.57606 3.07075 9.61063C3.07075 9.64515 3.05659 9.67343 3.03926 9.67343C3.02196 9.67343 2.99781 9.71315 2.98563 9.76169C2.97345 9.81024 2.94789 9.84996 2.92886 9.84996C2.90979 9.84996 2.89422 9.88173 2.89422 9.92056C2.89422 9.9594 2.87834 9.99117 2.85892 9.99117C2.8395 9.99117 2.82362 10.015 2.82362 10.0441C2.82362 10.0733 2.80773 10.0971 2.78831 10.0971C2.76889 10.0971 2.75301 10.1289 2.75301 10.1677C2.75301 10.2065 2.73712 10.2383 2.7177 10.2383C2.69828 10.2383 2.6824 10.2701 2.6824 10.3089C2.6824 10.3477 2.67046 10.3796 2.65592 10.3797C2.6204 10.3801 2.50587 10.5842 2.50587 10.6472C2.50587 10.6747 2.48999 10.6973 2.47057 10.6973C2.45115 10.6973 2.43527 10.7211 2.43527 10.7502C2.43527 10.7793 2.41938 10.8032 2.39996 10.8032C2.38054 10.8032 2.36466 10.835 2.36466 10.8738C2.36466 10.9126 2.34877 10.9444 2.32935 10.9444C2.30993 10.9444 2.29398 10.9643 2.29387 10.9885C2.29377 11.0128 2.23816 11.1409 2.17031 11.2731C2.10245 11.4054 2.04692 11.5364 2.04692 11.5644C2.04692 11.5923 2.03103 11.6152 2.01161 11.6152C1.99219 11.6152 1.97631 11.6536 1.97631 11.7005C1.97631 11.7474 1.96441 11.7911 1.94983 11.7976C1.91255 11.8142 1.72918 12.206 1.72918 12.2691C1.72918 12.2978 1.71329 12.3213 1.69387 12.3213C1.67445 12.3213 1.65857 12.361 1.65857 12.4095C1.65857 12.4581 1.64268 12.4978 1.62326 12.4978C1.60384 12.4978 1.58796 12.5441 1.58796 12.6008C1.58796 12.6574 1.57606 12.709 1.56148 12.7155C1.52024 12.7338 1.41144 12.9865 1.41144 13.0639C1.41144 13.102 1.39555 13.1333 1.37613 13.1333C1.35671 13.1333 1.34083 13.1809 1.34083 13.2392C1.34083 13.2974 1.32494 13.3451 1.30552 13.3451C1.2861 13.3451 1.27022 13.4007 1.27022 13.4687C1.27022 13.5366 1.25828 13.5922 1.24374 13.5922C1.22916 13.5922 1.18662 13.6915 1.14923 13.8129C1.11181 13.9343 1.0681 14.0486 1.05214 14.0671C1.03615 14.0855 1.02309 14.1451 1.02309 14.1995C1.02309 14.2538 1.0072 14.2983 0.987784 14.2983C0.968367 14.2983 0.95248 14.3619 0.95248 14.4395C0.95248 14.5172 0.936593 14.5808 0.917175 14.5808C0.897758 14.5808 0.881871 14.6354 0.881871 14.7022C0.881871 14.7691 0.867749 14.8324 0.85045 14.8431C0.833186 14.8538 0.810662 14.9143 0.800388 14.9776C0.790114 15.0409 0.754598 15.188 0.721447 15.3045C0.688296 15.421 0.653698 15.5918 0.644554 15.684C0.63541 15.7763 0.613557 15.8517 0.59601 15.8517C0.578499 15.8517 0.56413 15.9391 0.56413 16.0459C0.56413 16.1527 0.548243 16.2401 0.528826 16.2401C0.509408 16.2401 0.493521 16.3197 0.493521 16.4171C0.493521 16.5144 0.478835 16.6217 0.460865 16.6554C0.429338 16.7145 0.378464 17.0259 0.30955 17.5816C0.291474 17.7273 0.268949 18.0331 0.259488 18.2613C0.249991 18.4894 0.22729 18.6761 0.209002 18.6761C0.188843 18.6761 0.175781 19.196 0.175781 20C0.175781 20.804 0.188843 21.3239 0.209002 21.3239C0.22729 21.3239 0.249991 21.5106 0.259488 21.7387C0.268949 21.9669 0.291474 22.2727 0.30955 22.4184C0.378464 22.9741 0.429338 23.2855 0.460865 23.3446C0.478835 23.3783 0.493521 23.4856 0.493521 23.5829C0.493521 23.6803 0.509408 23.7599 0.528826 23.7599C0.548243 23.7599 0.56413 23.8473 0.56413 23.9541C0.56413 24.0609 0.578499 24.1483 0.59601 24.1483C0.613557 24.1483 0.63541 24.2238 0.644554 24.316C0.653698 24.4082 0.688296 24.579 0.721447 24.6955C0.754598 24.812 0.790114 24.9591 0.800388 25.0224C0.810662 25.0857 0.833186 25.1462 0.85045 25.1569C0.867749 25.1676 0.881871 25.2309 0.881871 25.2978C0.881871 25.3646 0.897758 25.4192 0.917175 25.4192C0.936593 25.4192 0.95248 25.4828 0.95248 25.5605C0.95248 25.6381 0.968367 25.7017 0.987784 25.7017C1.0072 25.7017 1.02309 25.7462 1.02309 25.8005C1.02309 25.8549 1.03615 25.9145 1.05214 25.9329C1.0681 25.9514 1.11181 26.0658 1.14923 26.1871C1.18662 26.3085 1.22916 26.4078 1.24374 26.4078C1.25828 26.4078 1.27022 26.4634 1.27022 26.5313C1.27022 26.5993 1.2861 26.6549 1.30552 26.6549C1.32494 26.6549 1.34083 26.7026 1.34083 26.7608C1.34083 26.8191 1.35671 26.8667 1.37613 26.8667C1.39555 26.8667 1.41144 26.898 1.41144 26.9361C1.41144 27.0135 1.52024 27.2662 1.56148 27.2845C1.57606 27.291 1.58796 27.3426 1.58796 27.3992C1.58796 27.4559 1.60384 27.5022 1.62326 27.5022C1.64268 27.5022 1.65857 27.5419 1.65857 27.5905C1.65857 27.639 1.67445 27.6787 1.69387 27.6787C1.71329 27.6787 1.72918 27.7022 1.72918 27.7309C1.72918 27.794 1.91255 28.1858 1.94983 28.2024C1.96441 28.2089 1.97631 28.2526 1.97631 28.2995C1.97631 28.3464 1.99219 28.3848 2.01161 28.3848C2.03103 28.3848 2.04692 28.4077 2.04692 28.4356C2.04692 28.4636 2.10245 28.5946 2.17031 28.7269C2.23816 28.8591 2.29377 28.9872 2.29387 29.0115C2.29398 29.0358 2.30993 29.0556 2.32935 29.0556C2.34877 29.0556 2.36466 29.0874 2.36466 29.1262C2.36466 29.165 2.38054 29.1968 2.39996 29.1968C2.41938 29.1968 2.43527 29.2207 2.43527 29.2498C2.43527 29.2789 2.45115 29.3027 2.47057 29.3027C2.48999 29.3027 2.50587 29.3253 2.50587 29.3528C2.50587 29.4158 2.6204 29.6199 2.65592 29.6203C2.67046 29.6204 2.6824 29.6523 2.6824 29.6911C2.6824 29.7299 2.69828 29.7617 2.7177 29.7617C2.73712 29.7617 2.75301 29.7935 2.75301 29.8323C2.75301 29.8711 2.76889 29.9029 2.78831 29.9029C2.80773 29.9029 2.82362 29.9267 2.82362 29.9559C2.82362 29.985 2.8395 30.0088 2.85892 30.0088C2.87834 30.0088 2.89422 30.0406 2.89422 30.0794C2.89422 30.1183 2.90979 30.15 2.92886 30.15C2.94789 30.15 2.97345 30.1898 2.98563 30.2383C2.99781 30.2868 3.02196 30.3266 3.03926 30.3266C3.05659 30.3266 3.07075 30.3548 3.07075 30.3894C3.07075 30.4239 3.10252 30.4751 3.14136 30.5031C3.18019 30.5311 3.21196 30.5822 3.21196 30.6168C3.21196 30.6513 3.22785 30.6796 3.24727 30.6796C3.26669 30.6796 3.28257 30.6966 3.28257 30.7174C3.28257 30.7383 3.30242 30.7774 3.3267 30.8045C3.43149 30.9213 3.4591 30.9612 3.4591 30.9959C3.4591 31.0161 3.47498 31.0327 3.4944 31.0327C3.51382 31.0327 3.52971 31.0586 3.52971 31.0903C3.52971 31.122 3.55862 31.1736 3.59399 31.205C3.62937 31.2364 3.6884 31.3138 3.72519 31.3769C3.76197 31.44 3.80452 31.4916 3.81977 31.4916C3.83498 31.4916 3.84745 31.5199 3.84745 31.5544C3.84745 31.589 3.87922 31.6401 3.91805 31.6681C3.95689 31.6961 3.98866 31.7321 3.98866 31.748C3.98866 31.779 4.02941 31.8326 4.15636 31.9683C4.20007 32.015 4.2358 32.0626 4.2358 32.074C4.2358 32.0971 4.2849 32.1592 4.40349 32.2861C4.44716 32.3328 4.48293 32.3841 4.48293 32.4001C4.48293 32.4161 4.5147 32.4521 4.55354 32.4801C4.59237 32.5081 4.62415 32.5521 4.62415 32.5779C4.62415 32.6037 4.71947 32.7199 4.83597 32.836C4.95248 32.9522 5.0478 33.0603 5.0478 33.0763C5.0478 33.0924 5.19873 33.2614 5.38319 33.4519C5.56766 33.6425 5.71858 33.8035 5.71858 33.8098C5.71858 33.8681 6.31633 34.4572 6.37546 34.4572C6.40392 34.4572 6.63467 34.7154 6.63569 34.7485C6.63615 34.763 6.652 34.7749 6.67096 34.7749C6.68992 34.7749 6.78873 34.8544 6.89052 34.9515C6.9923 35.0485 7.08752 35.128 7.1021 35.128C7.11668 35.128 7.22362 35.2233 7.33977 35.3398C7.45592 35.4563 7.57204 35.5516 7.59784 35.5516C7.62365 35.5516 7.66764 35.5834 7.69564 35.6222C7.72363 35.6611 7.75964 35.6929 7.77564 35.6929C7.79167 35.6929 7.843 35.7286 7.88971 35.7723C8.01655 35.8909 8.07866 35.94 8.10174 35.94C8.11315 35.94 8.16074 35.9757 8.20745 36.0194C8.34323 36.1464 8.39675 36.1871 8.42775 36.1871C8.4437 36.1871 8.47964 36.2189 8.50764 36.2577C8.53564 36.2966 8.58679 36.3283 8.62136 36.3283C8.65588 36.3283 8.68416 36.3408 8.68416 36.356C8.68416 36.3713 8.73581 36.4138 8.7989 36.4506C8.86199 36.4874 8.93934 36.5464 8.97073 36.5818C9.00215 36.6172 9.05377 36.6461 9.08547 36.6461C9.11717 36.6461 9.14312 36.662 9.14312 36.6814C9.14312 36.7008 9.16014 36.7167 9.18093 36.7167C9.20176 36.7167 9.24091 36.7366 9.26799 36.7608C9.38482 36.8656 9.42475 36.8932 9.45938 36.8932C9.47961 36.8932 9.49617 36.9091 9.49617 36.9285C9.49617 36.9479 9.52444 36.9638 9.55897 36.9638C9.59354 36.9638 9.64469 36.9956 9.67269 37.0344C9.70069 37.0733 9.75184 37.105 9.7864 37.105C9.82093 37.105 9.84921 37.1192 9.84921 37.1365C9.84921 37.1538 9.88893 37.178 9.93747 37.1902C9.98602 37.2023 10.0257 37.2279 10.0257 37.2469C10.0257 37.266 10.0575 37.2816 10.0963 37.2816C10.1352 37.2816 10.1669 37.2974 10.1669 37.3169C10.1669 37.3363 10.1908 37.3522 10.2199 37.3522C10.249 37.3522 10.2728 37.368 10.2728 37.3875C10.2728 37.4069 10.3033 37.4228 10.3405 37.4228C10.3777 37.4228 10.4135 37.4355 10.42 37.4511C10.4368 37.4915 10.7666 37.6699 10.8245 37.6699C10.8512 37.6699 10.873 37.6858 10.873 37.7052C10.873 37.7246 10.8969 37.7405 10.926 37.7405C10.9551 37.7405 10.9789 37.7564 10.9789 37.7758C10.9789 37.7952 11.0107 37.8111 11.0495 37.8111C11.0884 37.8111 11.1202 37.827 11.1202 37.8464C11.1202 37.8658 11.14 37.8818 11.1643 37.8819C11.1886 37.882 11.3166 37.9376 11.4489 38.0055C11.5811 38.0733 11.7122 38.1289 11.7401 38.1289C11.7681 38.1289 11.7909 38.1447 11.7909 38.1642C11.7909 38.1836 11.8293 38.1995 11.8763 38.1995C11.9232 38.1995 11.9669 38.2114 11.9734 38.2259C11.9899 38.2632 12.3818 38.4466 12.4448 38.4466C12.4736 38.4466 12.497 38.4625 12.497 38.4819C12.497 38.5013 12.5367 38.5172 12.5853 38.5172C12.6338 38.5172 12.6736 38.5331 12.6736 38.5525C12.6736 38.5719 12.7199 38.5878 12.7765 38.5878C12.8332 38.5878 12.8848 38.5997 12.8913 38.6143C12.9096 38.6555 13.1622 38.7643 13.2396 38.7643C13.2778 38.7643 13.309 38.7802 13.309 38.7996C13.309 38.8191 13.3567 38.835 13.4149 38.835C13.4732 38.835 13.5209 38.8508 13.5209 38.8703C13.5209 38.8897 13.5765 38.9056 13.6444 38.9056C13.7124 38.9056 13.768 38.9175 13.768 38.932C13.768 38.9466 13.8673 38.9892 13.9886 39.0265C14.11 39.064 14.2244 39.1077 14.2428 39.1236C14.2613 39.1396 14.3209 39.1527 14.3752 39.1527C14.4296 39.1527 14.4741 39.1686 14.4741 39.188C14.4741 39.2074 14.5376 39.2233 14.6153 39.2233C14.693 39.2233 14.7565 39.2392 14.7565 39.2586C14.7565 39.278 14.8112 39.2939 14.878 39.2939C14.9448 39.2939 15.0082 39.308 15.0189 39.3253C15.0296 39.3426 15.0901 39.3651 15.1534 39.3754C15.2166 39.3857 15.3638 39.4212 15.4803 39.4543C15.5968 39.4875 15.7675 39.5221 15.8598 39.5312C15.952 39.5404 16.0275 39.5622 16.0275 39.5798C16.0275 39.5973 16.1149 39.6117 16.2217 39.6117C16.3284 39.6117 16.4158 39.6275 16.4158 39.647C16.4158 39.6664 16.4955 39.6823 16.5928 39.6823C16.6902 39.6823 16.7974 39.6969 16.8312 39.7149C16.8903 39.7464 17.2017 39.7973 17.7574 39.8662C17.903 39.8843 18.2089 39.9068 18.437 39.9163C18.6651 39.9258 18.8518 39.9485 18.8518 39.9668C18.8518 39.9869 19.3718 40 20.1758 40C20.9797 40 21.4997 39.9869 21.4997 39.9668C21.4997 39.9485 21.6864 39.9258 21.9145 39.9163C22.1426 39.9068 22.4485 39.8843 22.5941 39.8662C23.1498 39.7973 23.4613 39.7464 23.5204 39.7149C23.5541 39.6969 23.6613 39.6823 23.7587 39.6823C23.856 39.6823 23.9357 39.6664 23.9357 39.647C23.9357 39.6275 24.0231 39.6117 24.1299 39.6117C24.2367 39.6117 24.324 39.5973 24.324 39.5798C24.324 39.5622 24.3995 39.5404 24.4917 39.5312C24.5839 39.5221 24.7548 39.4875 24.8713 39.4543C24.9878 39.4212 25.1349 39.3857 25.1981 39.3754C25.2614 39.3651 25.322 39.3426 25.3326 39.3253C25.3433 39.308 25.4067 39.2939 25.4735 39.2939C25.5403 39.2939 25.595 39.278 25.595 39.2586C25.595 39.2392 25.6585 39.2233 25.7362 39.2233C25.8139 39.2233 25.8774 39.2074 25.8774 39.188C25.8774 39.1686 25.9219 39.1527 25.9763 39.1527C26.0307 39.1527 26.0902 39.1396 26.1087 39.1236C26.1271 39.1077 26.2415 39.064 26.3629 39.0265C26.4842 38.9892 26.5835 38.9466 26.5835 38.932C26.5835 38.9175 26.6391 38.9056 26.7071 38.9056C26.7751 38.9056 26.8307 38.8897 26.8307 38.8703C26.8307 38.8508 26.8783 38.835 26.9366 38.835C26.9948 38.835 27.0425 38.8191 27.0425 38.7996C27.0425 38.7802 27.0737 38.7643 27.1119 38.7643C27.1893 38.7643 27.4419 38.6555 27.4602 38.6143C27.4667 38.5997 27.5184 38.5878 27.575 38.5878C27.6316 38.5878 27.678 38.5719 27.678 38.5525C27.678 38.5331 27.7177 38.5172 27.7662 38.5172C27.8148 38.5172 27.8545 38.5013 27.8545 38.4819C27.8545 38.4625 27.878 38.4466 27.9067 38.4466C27.9698 38.4466 28.3616 38.2632 28.3782 38.2259C28.3847 38.2114 28.4283 38.1995 28.4752 38.1995C28.5222 38.1995 28.5606 38.1836 28.5606 38.1642C28.5606 38.1447 28.5835 38.1289 28.6114 38.1289C28.6393 38.1289 28.7704 38.0733 28.9026 38.0055C29.0349 37.9376 29.163 37.882 29.1872 37.8819C29.2115 37.8818 29.2314 37.8658 29.2314 37.8464C29.2314 37.827 29.2631 37.8111 29.302 37.8111C29.3408 37.8111 29.3726 37.7952 29.3726 37.7758C29.3726 37.7564 29.3964 37.7405 29.4255 37.7405C29.4547 37.7405 29.4785 37.7246 29.4785 37.7052C29.4785 37.6858 29.5003 37.6699 29.527 37.6699C29.5849 37.6699 29.9148 37.4915 29.9316 37.4511C29.9381 37.4355 29.9738 37.4228 30.011 37.4228C30.0482 37.4228 30.0787 37.4069 30.0787 37.3875C30.0787 37.368 30.1025 37.3522 30.1316 37.3522C30.1608 37.3522 30.1846 37.3363 30.1846 37.3169C30.1846 37.2974 30.2164 37.2816 30.2552 37.2816C30.294 37.2816 30.3258 37.266 30.3258 37.2469C30.3258 37.2279 30.3655 37.2023 30.4141 37.1902C30.4626 37.178 30.5023 37.1538 30.5023 37.1365C30.5023 37.1192 30.5306 37.105 30.5651 37.105C30.5997 37.105 30.6509 37.0733 30.6788 37.0344C30.7068 36.9956 30.758 36.9638 30.7926 36.9638C30.8271 36.9638 30.8554 36.9479 30.8554 36.9285C30.8554 36.9091 30.8724 36.8932 30.8932 36.8932C30.914 36.8932 30.9532 36.8734 30.9802 36.8491C31.0971 36.7443 31.137 36.7167 31.1716 36.7167C31.1919 36.7167 31.2084 36.7008 31.2084 36.6814C31.2084 36.662 31.2344 36.6461 31.2661 36.6461C31.2978 36.6461 31.3494 36.6172 31.3808 36.5818C31.4122 36.5464 31.4895 36.4874 31.5526 36.4506C31.6158 36.4138 31.6674 36.3713 31.6674 36.356C31.6674 36.3408 31.6957 36.3283 31.7302 36.3283C31.7647 36.3283 31.8159 36.2966 31.8439 36.2577C31.8719 36.2189 31.9078 36.1871 31.9238 36.1871C31.9548 36.1871 32.0083 36.1464 32.1441 36.0194C32.1908 35.9757 32.2384 35.94 32.2498 35.94C32.2729 35.94 32.335 35.8909 32.4618 35.7723C32.5085 35.7286 32.5599 35.6929 32.5759 35.6929C32.5919 35.6929 32.6279 35.6611 32.6559 35.6222C32.6839 35.5834 32.7279 35.5516 32.7537 35.5516C32.7795 35.5516 32.8956 35.4563 33.0118 35.3398C33.1279 35.2233 33.2361 35.128 33.2521 35.128C33.2681 35.128 33.4371 34.9771 33.6277 34.7926C33.8183 34.6081 33.9793 34.4572 33.9855 34.4572C34.0438 34.4572 34.633 33.8595 34.633 33.8003C34.633 33.7719 34.8912 33.5411 34.9242 33.5401C34.9388 33.5396 34.9507 33.5238 34.9507 33.5048C34.9507 33.4859 35.0301 33.387 35.1272 33.2853C35.2243 33.1835 35.3037 33.0883 35.3037 33.0737C35.3037 33.0591 35.3991 32.9522 35.5156 32.836C35.6321 32.7199 35.7274 32.6037 35.7274 32.5779C35.7274 32.5521 35.7592 32.5081 35.798 32.4801C35.8368 32.4521 35.8686 32.4161 35.8686 32.4001C35.8686 32.3841 35.9044 32.3328 35.948 32.2861C36.0666 32.1592 36.1157 32.0971 36.1157 32.074C36.1157 32.0626 36.1515 32.015 36.1952 31.9683C36.3221 31.8326 36.3629 31.779 36.3629 31.748C36.3629 31.7321 36.3946 31.6961 36.4335 31.6681C36.4723 31.6401 36.5041 31.589 36.5041 31.5544C36.5041 31.5199 36.5166 31.4916 36.5318 31.4916C36.547 31.4916 36.5896 31.44 36.6263 31.3769C36.6631 31.3138 36.7222 31.2364 36.7575 31.205C36.7929 31.1736 36.8218 31.122 36.8218 31.0903C36.8218 31.0586 36.8377 31.0327 36.8571 31.0327C36.8766 31.0327 36.8924 31.0156 36.8924 30.9948C36.8924 30.974 36.9123 30.9349 36.9366 30.9078C37.0414 30.791 37.069 30.751 37.069 30.7164C37.069 30.6962 37.0848 30.6796 37.1043 30.6796C37.1237 30.6796 37.1396 30.6513 37.1396 30.6168C37.1396 30.5822 37.1713 30.5311 37.2102 30.5031C37.249 30.4751 37.2808 30.4239 37.2808 30.3894C37.2808 30.3548 37.2949 30.3266 37.3123 30.3266C37.3296 30.3266 37.3537 30.2868 37.3659 30.2383C37.3781 30.1898 37.4037 30.15 37.4227 30.15C37.4417 30.15 37.4573 30.1183 37.4573 30.0794C37.4573 30.0406 37.4732 30.0088 37.4926 30.0088C37.512 30.0088 37.5279 29.985 37.5279 29.9559C37.5279 29.9267 37.5438 29.9029 37.5632 29.9029C37.5826 29.9029 37.5985 29.8725 37.5985 29.8352C37.5985 29.798 37.6112 29.7623 37.6268 29.7558C37.6672 29.739 37.8457 29.4091 37.8457 29.3512C37.8457 29.3246 37.8615 29.3027 37.881 29.3027C37.9004 29.3027 37.9163 29.2789 37.9163 29.2498C37.9163 29.2207 37.9322 29.1968 37.9516 29.1968C37.971 29.1968 37.9869 29.165 37.9869 29.1262C37.9869 29.0874 38.0028 29.0556 38.0222 29.0556C38.0416 29.0556 38.0576 29.0358 38.0577 29.0115C38.0578 28.9872 38.1134 28.8591 38.1812 28.7269C38.2491 28.5946 38.3046 28.4636 38.3046 28.4356C38.3046 28.4077 38.3205 28.3848 38.3399 28.3848C38.3593 28.3848 38.3752 28.3464 38.3752 28.2995C38.3752 28.2526 38.3872 28.2089 38.4017 28.2024C38.439 28.1858 38.6224 27.794 38.6224 27.7309C38.6224 27.7022 38.6382 27.6787 38.6577 27.6787C38.6771 27.6787 38.693 27.639 38.693 27.5905C38.693 27.5419 38.7089 27.5022 38.7283 27.5022C38.7477 27.5022 38.7636 27.4559 38.7636 27.3992C38.7636 27.3426 38.7755 27.291 38.7901 27.2845C38.8313 27.2662 38.9401 27.0135 38.9401 26.9361C38.9401 26.898 38.956 26.8667 38.9754 26.8667C38.9948 26.8667 39.0107 26.8191 39.0107 26.7608C39.0107 26.7026 39.0266 26.6549 39.046 26.6549C39.0654 26.6549 39.0813 26.5993 39.0813 26.5313C39.0813 26.4634 39.0972 26.4078 39.1166 26.4078C39.136 26.4078 39.1519 26.3778 39.1519 26.3412C39.1519 26.3046 39.1757 26.2291 39.2047 26.1735C39.2337 26.1179 39.2575 26.0455 39.2576 26.0127C39.2577 25.9798 39.2737 25.9432 39.2931 25.9312C39.3126 25.9192 39.3285 25.8626 39.3285 25.8055C39.3285 25.7484 39.3443 25.7017 39.3638 25.7017C39.3832 25.7017 39.3991 25.6381 39.3991 25.5605C39.3991 25.4828 39.4149 25.4192 39.4344 25.4192C39.4538 25.4192 39.4697 25.3646 39.4697 25.2978C39.4697 25.2309 39.4838 25.1676 39.5011 25.1569C39.5184 25.1462 39.5409 25.0857 39.5512 25.0224C39.5614 24.9591 39.5969 24.812 39.6301 24.6955C39.6632 24.579 39.6978 24.4082 39.707 24.316C39.7161 24.2238 39.738 24.1483 39.7555 24.1483C39.773 24.1483 39.7874 24.0609 39.7874 23.9541C39.7874 23.8473 39.8033 23.7599 39.8227 23.7599C39.8421 23.7599 39.858 23.6803 39.858 23.5829C39.858 23.4856 39.8727 23.3783 39.8907 23.3446C39.9519 23.2297 40.0679 22.3107 40.0922 21.7477C40.1052 21.4457 40.1227 21.3346 40.1604 21.3135C40.2367 21.2708 40.2365 18.6332 40.1602 18.6625C40.1183 18.6786 40.1063 18.6087 40.0921 18.2642C40.0826 18.0344 40.0601 17.7273 40.042 17.5816C39.9731 17.0259 39.9222 16.7145 39.8907 16.6554C39.8727 16.6217 39.858 16.5144 39.858 16.4171C39.858 16.3197 39.8421 16.2401 39.8227 16.2401C39.8033 16.2401 39.7874 16.1527 39.7874 16.0459C39.7874 15.9391 39.773 15.8517 39.7555 15.8517C39.738 15.8517 39.7161 15.7763 39.707 15.684C39.6978 15.5918 39.6632 15.421 39.6301 15.3045C39.5969 15.188 39.5614 15.0409 39.5512 14.9776C39.5409 14.9143 39.5184 14.8538 39.5011 14.8431C39.4838 14.8324 39.4697 14.7691 39.4697 14.7022C39.4697 14.6354 39.4538 14.5808 39.4344 14.5808C39.4149 14.5808 39.3991 14.5172 39.3991 14.4395C39.3991 14.3619 39.3832 14.2983 39.3638 14.2983C39.3443 14.2983 39.3285 14.2516 39.3285 14.1945C39.3285 14.1374 39.3126 14.0808 39.2931 14.0688C39.2737 14.0568 39.2577 14.0202 39.2576 13.9873C39.2575 13.9545 39.2337 13.8821 39.2047 13.8265C39.1757 13.7709 39.1519 13.6954 39.1519 13.6588C39.1519 13.6222 39.136 13.5922 39.1166 13.5922C39.0972 13.5922 39.0813 13.5366 39.0813 13.4687C39.0813 13.4007 39.0654 13.3451 39.046 13.3451C39.0266 13.3451 39.0107 13.2974 39.0107 13.2392C39.0107 13.1809 38.9948 13.1333 38.9754 13.1333C38.956 13.1333 38.9401 13.102 38.9401 13.0639C38.9401 12.9865 38.8313 12.7338 38.7901 12.7155C38.7755 12.709 38.7636 12.6574 38.7636 12.6008C38.7636 12.5441 38.7477 12.4978 38.7283 12.4978C38.7089 12.4978 38.693 12.4581 38.693 12.4095C38.693 12.361 38.6771 12.3213 38.6577 12.3213C38.6382 12.3213 38.6224 12.2978 38.6224 12.2691C38.6224 12.206 38.439 11.8142 38.4017 11.7976C38.3872 11.7911 38.3752 11.7474 38.3752 11.7005C38.3752 11.6536 38.3593 11.6152 38.3399 11.6152C38.3205 11.6152 38.3046 11.5923 38.3046 11.5644C38.3046 11.5364 38.2491 11.4054 38.1812 11.2731C38.1134 11.1409 38.0578 11.0128 38.0577 10.9885C38.0576 10.9643 38.0416 10.9444 38.0222 10.9444C38.0028 10.9444 37.9869 10.9126 37.9869 10.8738C37.9869 10.835 37.971 10.8032 37.9516 10.8032C37.9322 10.8032 37.9163 10.7793 37.9163 10.7502C37.9163 10.7211 37.9004 10.6973 37.881 10.6973C37.8615 10.6973 37.8457 10.6754 37.8457 10.6488C37.8457 10.5909 37.6672 10.261 37.6268 10.2442C37.6112 10.2377 37.5985 10.202 37.5985 10.1648C37.5985 10.1276 37.5826 10.0971 37.5632 10.0971C37.5438 10.0971 37.5279 10.0733 37.5279 10.0441C37.5279 10.015 37.512 9.99117 37.4926 9.99117C37.4732 9.99117 37.4573 9.9594 37.4573 9.92056C37.4573 9.88173 37.4417 9.84996 37.4227 9.84996C37.4037 9.84996 37.3781 9.81024 37.3659 9.76169C37.3537 9.71315 37.3296 9.67343 37.3123 9.67343C37.2949 9.67343 37.2808 9.64515 37.2808 9.61063C37.2808 9.57606 37.249 9.52491 37.2102 9.49691C37.1713 9.46891 37.1396 9.41776 37.1396 9.38319C37.1396 9.34867 37.1237 9.32039 37.1043 9.32039C37.0848 9.32039 37.069 9.30383 37.069 9.2836C37.069 9.24897 37.0414 9.20904 36.9366 9.09221C36.9123 9.06514 36.8924 9.02598 36.8924 9.00515C36.8924 8.98436 36.8766 8.96734 36.8571 8.96734C36.8377 8.96734 36.8218 8.94139 36.8218 8.90969C36.8218 8.87799 36.7929 8.82637 36.7575 8.79495C36.7222 8.76357 36.6631 8.68625 36.6263 8.62312C36.5896 8.56004 36.547 8.50838 36.5318 8.50838C36.5166 8.50838 36.5041 8.48011 36.5041 8.44558C36.5041 8.41101 36.4723 8.35986 36.4335 8.33186C36.3946 8.30387 36.3629 8.26793 36.3629 8.25197C36.3629 8.22097 36.3221 8.16745 36.1952 8.03167C36.1515 7.98496 36.1157 7.93737 36.1157 7.92597C36.1157 7.90288 36.0666 7.84078 35.948 7.71393C35.9044 7.66722 35.8686 7.61589 35.8686 7.59986C35.8686 7.58387 35.8368 7.54786 35.798 7.51986C35.7592 7.49186 35.7274 7.44787 35.7274 7.42207C35.7274 7.39626 35.6321 7.28014 35.5156 7.16399C35.3991 7.04784 35.3037 6.9397 35.3037 6.92367C35.3037 6.90764 35.1528 6.73864 34.9683 6.54807C34.7839 6.35749 34.633 6.19647 34.633 6.19022C34.633 6.13193 34.0352 5.54281 33.9761 5.54281C33.9476 5.54281 33.7169 5.28455 33.7158 5.25154C33.7154 5.237 33.6995 5.22507 33.6806 5.22507C33.6616 5.22507 33.5628 5.14563 33.461 5.04854C33.3592 4.95146 33.264 4.87202 33.2494 4.87202C33.2349 4.87202 33.1279 4.7767 33.0118 4.66019C32.8956 4.54369 32.7795 4.44837 32.7537 4.44837C32.7279 4.44837 32.6839 4.41659 32.6559 4.37776C32.6279 4.33892 32.5919 4.30715 32.5759 4.30715C32.5599 4.30715 32.5085 4.27142 32.4618 4.22771C32.335 4.10913 32.2729 4.06002 32.2498 4.06002C32.2384 4.06002 32.1908 4.02429 32.1441 3.98058C32.0083 3.85363 31.9548 3.81289 31.9238 3.81289C31.9078 3.81289 31.8719 3.78111 31.8439 3.74228C31.8159 3.70344 31.7647 3.67167 31.7302 3.67167C31.6957 3.67167 31.6674 3.65921 31.6674 3.64399C31.6674 3.62874 31.6158 3.5862 31.5526 3.54941C31.4895 3.51262 31.4122 3.45359 31.3808 3.41822C31.3494 3.38284 31.2978 3.35393 31.2661 3.35393C31.2344 3.35393 31.2084 3.33804 31.2084 3.31862C31.2084 3.29921 31.1914 3.28332 31.1706 3.28332C31.1498 3.28332 31.1106 3.26344 31.0835 3.23919C30.9667 3.1344 30.9268 3.1068 30.8922 3.1068C30.8719 3.1068 30.8554 3.09091 30.8554 3.07149C30.8554 3.05207 30.8271 3.03619 30.7926 3.03619C30.758 3.03619 30.7068 3.00441 30.6788 2.96558C30.6509 2.92674 30.5997 2.89497 30.5651 2.89497C30.5306 2.89497 30.5023 2.88081 30.5023 2.86348C30.5023 2.84618 30.4626 2.82203 30.4141 2.80985C30.3655 2.79767 30.3258 2.77211 30.3258 2.75308C30.3258 2.73402 30.294 2.71845 30.2552 2.71845C30.2164 2.71845 30.1846 2.70256 30.1846 2.68314C30.1846 2.66372 30.1608 2.64784 30.1316 2.64784C30.1025 2.64784 30.0787 2.63195 30.0787 2.61253C30.0787 2.59312 30.0469 2.57723 30.0081 2.57723C29.9692 2.57723 29.9375 2.56134 29.9375 2.54192C29.9375 2.52251 29.9057 2.50662 29.8668 2.50662C29.828 2.50662 29.7961 2.49469 29.796 2.48014C29.7957 2.44462 29.5916 2.3301 29.5286 2.3301C29.5011 2.3301 29.4785 2.31421 29.4785 2.29479C29.4785 2.27538 29.4547 2.25949 29.4255 2.25949C29.3964 2.25949 29.3726 2.2436 29.3726 2.22418C29.3726 2.20477 29.3408 2.18888 29.302 2.18888C29.2631 2.18888 29.2314 2.17299 29.2314 2.15357C29.2314 2.13416 29.2115 2.1182 29.1872 2.11809C29.163 2.11799 29.0349 2.06238 28.9026 1.99453C28.7704 1.92667 28.6393 1.87114 28.6114 1.87114C28.5835 1.87114 28.5606 1.85525 28.5606 1.83583C28.5606 1.81642 28.5222 1.80053 28.4752 1.80053C28.4283 1.80053 28.3847 1.78863 28.3782 1.77405C28.3616 1.73677 27.9698 1.5534 27.9067 1.5534C27.878 1.5534 27.8545 1.53751 27.8545 1.51809C27.8545 1.49868 27.8148 1.48279 27.7662 1.48279C27.7177 1.48279 27.678 1.4669 27.678 1.44748C27.678 1.42807 27.6316 1.41218 27.575 1.41218C27.5184 1.41218 27.4667 1.40025 27.4602 1.3857C27.4419 1.34447 27.1893 1.23566 27.1119 1.23566C27.0737 1.23566 27.0425 1.21977 27.0425 1.20035C27.0425 1.18094 26.9948 1.16505 26.9366 1.16505C26.8783 1.16505 26.8307 1.14916 26.8307 1.12974C26.8307 1.11033 26.7751 1.09444 26.7071 1.09444C26.6391 1.09444 26.5835 1.07855 26.5835 1.05914C26.5835 1.03972 26.5536 1.02383 26.5169 1.02383C26.4803 1.02383 26.4049 1.00011 26.3492 0.971086C26.2936 0.942101 26.2213 0.91827 26.1884 0.918129C26.1556 0.918023 26.1189 0.90203 26.1069 0.882613C26.0949 0.863195 26.0384 0.847308 25.9813 0.847308C25.9241 0.847308 25.8774 0.831421 25.8774 0.812004C25.8774 0.792586 25.8139 0.776699 25.7362 0.776699C25.6585 0.776699 25.595 0.760812 25.595 0.741395C25.595 0.721977 25.5403 0.70609 25.4735 0.70609C25.4067 0.70609 25.3433 0.691968 25.3326 0.674669C25.322 0.657405 25.2614 0.634881 25.1981 0.624607C25.1349 0.614334 24.9878 0.578817 24.8713 0.545666C24.7548 0.512515 24.5839 0.477917 24.4917 0.468773C24.3995 0.459629 24.324 0.437776 24.324 0.420229C24.324 0.402718 24.2367 0.38835 24.1299 0.38835C24.0231 0.38835 23.9357 0.372462 23.9357 0.353045C23.9357 0.333628 23.856 0.317741 23.7587 0.317741C23.6613 0.317741 23.5541 0.303054 23.5204 0.285084C23.4613 0.253557 23.1498 0.202683 22.5941 0.133769C22.4485 0.115693 22.1426 0.0931686 21.9145 0.083707C21.6864 0.0742101 21.4997 0.0515093 21.4997 0.0332215C21.4997 0.0130627 20.9797 0 20.1758 0C19.3718 0 18.8518 0.0130627 18.8518 0.0332215ZM19.1696 2.54192C19.1696 2.56371 18.9872 2.57723 18.693 2.57723C18.3988 2.57723 18.2164 2.59075 18.2164 2.61253C18.2164 2.63195 18.125 2.64794 18.0134 2.64805C17.9017 2.64816 17.7548 2.66362 17.6868 2.6824C17.6188 2.70118 17.452 2.73433 17.3161 2.75608C17.1802 2.77783 16.9816 2.81087 16.8748 2.82955C16.768 2.84823 16.6052 2.87209 16.5129 2.88265C16.4207 2.89317 16.3452 2.91615 16.3452 2.9337C16.3452 2.95121 16.2737 2.96558 16.1863 2.96558C16.099 2.96558 16.0275 2.98147 16.0275 3.00088C16.0275 3.0203 15.9868 3.03619 15.937 3.03619C15.8414 3.03619 15.5223 3.12473 15.419 3.17995C15.3853 3.19795 15.3177 3.21271 15.2689 3.21271C15.2201 3.21271 15.1802 3.2286 15.1802 3.24801C15.1802 3.26743 15.1087 3.28332 15.0213 3.28332C14.9339 3.28332 14.8624 3.29921 14.8624 3.31862C14.8624 3.33804 14.8325 3.35393 14.7958 3.35393C14.7592 3.35393 14.6838 3.37765 14.6282 3.40667C14.5725 3.43566 14.4992 3.45949 14.4653 3.45963C14.4313 3.45974 14.4035 3.47573 14.4035 3.49515C14.4035 3.51456 14.3794 3.53045 14.35 3.53045C14.2643 3.53045 14.0151 3.61568 14.0151 3.64494C14.0151 3.65966 13.9595 3.67167 13.8916 3.67167C13.8236 3.67167 13.768 3.68756 13.768 3.70697C13.768 3.72639 13.7372 3.74228 13.6995 3.74228C13.6618 3.74228 13.6219 3.75693 13.6108 3.77486C13.5997 3.7928 13.5432 3.8179 13.4852 3.83064C13.4271 3.84339 13.3796 3.86842 13.3796 3.88628C13.3796 3.90418 13.3488 3.9188 13.3111 3.9188C13.2734 3.9188 13.2328 3.93469 13.2208 3.9541C13.2088 3.97352 13.1681 3.98941 13.1304 3.98941C13.0927 3.98941 13.0619 4.0053 13.0619 4.02471C13.0619 4.04413 13.0311 4.06002 12.9934 4.06002C12.9557 4.06002 12.915 4.0759 12.903 4.09532C12.891 4.11474 12.8523 4.13063 12.817 4.13063C12.7817 4.13063 12.733 4.15446 12.7089 4.18358C12.6847 4.21271 12.6351 4.23654 12.5986 4.23654C12.5622 4.23654 12.5323 4.25243 12.5323 4.27184C12.5323 4.29126 12.5015 4.30715 12.4638 4.30715C12.4261 4.30715 12.3855 4.32304 12.3735 4.34245C12.3615 4.36187 12.3208 4.37776 12.2831 4.37776C12.2454 4.37776 12.2146 4.3904 12.2146 4.40583C12.2146 4.42125 12.1431 4.46337 12.0557 4.49942C11.9683 4.53543 11.8969 4.57546 11.8969 4.58831C11.8969 4.6012 11.8412 4.63354 11.7733 4.66019C11.7053 4.68685 11.6497 4.72159 11.6497 4.73741C11.6497 4.75319 11.6179 4.76611 11.5791 4.76611C11.5403 4.76611 11.5085 4.78199 11.5085 4.80141C11.5085 4.82083 11.4923 4.83672 11.4725 4.83672C11.4296 4.83672 11.143 5.01928 11.126 5.05737C11.1196 5.07192 11.0838 5.08385 11.0466 5.08385C11.0094 5.08385 10.9789 5.09974 10.9789 5.11915C10.9789 5.13857 10.9564 5.15446 10.9289 5.15446C10.9014 5.15446 10.8736 5.16639 10.8671 5.18094C10.8502 5.21903 10.5636 5.40159 10.5207 5.40159C10.5009 5.40159 10.4847 5.41748 10.4847 5.43689C10.4847 5.45631 10.4608 5.4722 10.4317 5.4722C10.4026 5.4722 10.3788 5.48808 10.3788 5.5075C10.3788 5.52692 10.3549 5.54281 10.3258 5.54281C10.2967 5.54281 10.2728 5.55527 10.2728 5.57049C10.2728 5.58574 10.2212 5.62828 10.1581 5.66507C10.095 5.70185 10.0177 5.76088 9.9863 5.79626C9.95488 5.83163 9.91121 5.86055 9.88921 5.86055C9.86722 5.86055 9.84921 5.87643 9.84921 5.89585C9.84921 5.91527 9.82566 5.93116 9.79689 5.93116C9.76812 5.93116 9.68734 5.98676 9.61733 6.05472C9.54736 6.12268 9.47505 6.17829 9.45666 6.17829C9.43827 6.17829 9.36759 6.23389 9.29963 6.30185C9.23167 6.36981 9.1636 6.42542 9.14831 6.42542C9.13306 6.42542 9.01839 6.52067 8.89352 6.63711C8.76868 6.7535 8.65518 6.84883 8.6413 6.84893C8.62743 6.849 8.48882 6.97617 8.33327 7.13151C8.17772 7.28685 8.03417 7.41395 8.01426 7.41395C7.99435 7.41395 7.97807 7.42856 7.97807 7.44646C7.97807 7.48883 7.6646 7.80229 7.62224 7.80229C7.60434 7.80229 7.58972 7.81857 7.58972 7.83848C7.58972 7.85839 7.4634 8.00533 7.30902 8.16505C6.97578 8.50976 6.88363 8.61116 6.88363 8.63315C6.88363 8.64215 6.82009 8.71499 6.74242 8.79502C6.66475 8.87506 6.6012 8.954 6.6012 8.97042C6.6012 8.98687 6.54559 9.05589 6.47763 9.12385C6.40967 9.19181 6.35407 9.26249 6.35407 9.28088C6.35407 9.29928 6.29846 9.37158 6.2305 9.44155C6.16254 9.51156 6.10693 9.59234 6.10693 9.62111C6.10693 9.64989 6.09105 9.67343 6.07163 9.67343C6.05221 9.67343 6.03633 9.69144 6.03633 9.71343C6.03633 9.73543 6.00741 9.7791 5.97204 9.81052C5.93666 9.84191 5.87763 9.91922 5.84084 9.98235C5.80406 10.0455 5.76151 10.0971 5.74626 10.0971C5.73105 10.0971 5.71858 10.1209 5.71858 10.15C5.71858 10.1792 5.7027 10.203 5.68328 10.203C5.66386 10.203 5.64798 10.2268 5.64798 10.256C5.64798 10.2851 5.63209 10.3089 5.61267 10.3089C5.59325 10.3089 5.57737 10.3252 5.57737 10.345C5.57737 10.3878 5.39481 10.6745 5.35671 10.6914C5.34217 10.6979 5.33024 10.7256 5.33024 10.7532C5.33024 10.7807 5.31435 10.8032 5.29493 10.8032C5.27551 10.8032 5.25963 10.8336 5.25963 10.8709C5.25963 10.9081 5.24773 10.9438 5.23315 10.9503C5.19505 10.9672 5.01249 11.2538 5.01249 11.2967C5.01249 11.3165 4.99661 11.3327 4.97719 11.3327C4.95777 11.3327 4.94189 11.3645 4.94189 11.4034C4.94189 11.4422 4.92896 11.474 4.91318 11.474C4.89737 11.474 4.86263 11.5296 4.83597 11.5975C4.80932 11.6655 4.77698 11.7211 4.76409 11.7211C4.75124 11.7211 4.71121 11.7926 4.6752 11.88C4.63915 11.9673 4.59703 12.0388 4.5816 12.0388C4.56617 12.0388 4.55354 12.0697 4.55354 12.1074C4.55354 12.1451 4.53765 12.1857 4.51823 12.1977C4.49881 12.2097 4.48293 12.2503 4.48293 12.288C4.48293 12.3258 4.46704 12.3566 4.44762 12.3566C4.42821 12.3566 4.41232 12.3864 4.41232 12.4229C4.41232 12.4593 4.38849 12.5089 4.35936 12.5331C4.33024 12.5573 4.3064 12.6059 4.3064 12.6412C4.3064 12.6766 4.29052 12.7153 4.2711 12.7273C4.25168 12.7393 4.2358 12.7799 4.2358 12.8176C4.2358 12.8553 4.21991 12.8861 4.20049 12.8861C4.18107 12.8861 4.16519 12.917 4.16519 12.9547C4.16519 12.9924 4.1493 13.033 4.12988 13.045C4.11046 13.057 4.09458 13.0977 4.09458 13.1354C4.09458 13.1731 4.07996 13.2039 4.06206 13.2039C4.0442 13.2039 4.01917 13.2514 4.00642 13.3094C3.99368 13.3674 3.96858 13.424 3.95064 13.4351C3.93271 13.4461 3.91805 13.486 3.91805 13.5237C3.91805 13.5614 3.90217 13.5922 3.88275 13.5922C3.86333 13.5922 3.84745 13.6478 3.84745 13.7158C3.84745 13.7838 3.83442 13.8394 3.81853 13.8394C3.80261 13.8394 3.76769 13.9198 3.74093 14.0181C3.71414 14.1164 3.6795 14.2048 3.66393 14.2144C3.64836 14.224 3.63551 14.2587 3.63541 14.2916C3.63527 14.3244 3.61144 14.3968 3.58245 14.4524C3.55343 14.508 3.52971 14.5835 3.52971 14.6201C3.52971 14.6567 3.51382 14.6867 3.4944 14.6867C3.47498 14.6867 3.4591 14.7582 3.4591 14.8455C3.4591 14.9329 3.44321 15.0044 3.42379 15.0044C3.40437 15.0044 3.38849 15.0443 3.38849 15.0932C3.38849 15.142 3.37373 15.2095 3.35572 15.2432C3.30104 15.3456 3.21196 15.6652 3.21196 15.7592C3.21196 15.8078 3.19608 15.8574 3.17666 15.8694C3.15724 15.8814 3.14136 15.9538 3.14136 16.0303C3.14136 16.1069 3.12699 16.1695 3.10948 16.1695C3.09193 16.1695 3.06895 16.2449 3.05843 16.3372C3.04787 16.4294 3.024 16.5922 3.00533 16.699C2.98665 16.8058 2.95361 17.0044 2.93186 17.1403C2.91011 17.2763 2.87696 17.4431 2.85818 17.511C2.8394 17.579 2.82393 17.7259 2.82383 17.8376C2.82372 17.9493 2.80773 18.0406 2.78831 18.0406C2.76653 18.0406 2.75301 18.223 2.75301 18.5172C2.75301 18.8114 2.73948 18.9938 2.7177 18.9938C2.695 18.9938 2.6824 19.3528 2.6824 20C2.6824 20.6472 2.695 21.0062 2.7177 21.0062C2.73948 21.0062 2.75301 21.1886 2.75301 21.4828C2.75301 21.777 2.76653 21.9594 2.78831 21.9594C2.80773 21.9594 2.82372 22.0507 2.82383 22.1624C2.82393 22.2741 2.8394 22.421 2.85818 22.489C2.87696 22.5569 2.91011 22.7237 2.93186 22.8597C2.95361 22.9956 2.98665 23.1942 3.00533 23.301C3.024 23.4078 3.04787 23.5706 3.05843 23.6628C3.06895 23.7551 3.09193 23.8305 3.10948 23.8305C3.12699 23.8305 3.14136 23.902 3.14136 23.9894C3.14136 24.0768 3.15724 24.1483 3.17666 24.1483C3.19608 24.1483 3.21196 24.189 3.21196 24.2387C3.21196 24.3344 3.30051 24.6535 3.35572 24.7568C3.37373 24.7905 3.38849 24.858 3.38849 24.9068C3.38849 24.9557 3.40437 24.9956 3.42379 24.9956C3.44321 24.9956 3.4591 25.0671 3.4591 25.1545C3.4591 25.2418 3.47498 25.3133 3.4944 25.3133C3.51382 25.3133 3.52971 25.3433 3.52971 25.3799C3.52971 25.4165 3.55343 25.492 3.58245 25.5476C3.61144 25.6032 3.63527 25.6765 3.63541 25.7105C3.63551 25.7445 3.65151 25.7723 3.67092 25.7723C3.69034 25.7723 3.70623 25.7964 3.70623 25.8258C3.70623 25.9114 3.79145 26.1606 3.82072 26.1606C3.83544 26.1606 3.84745 26.2162 3.84745 26.2842C3.84745 26.3522 3.86333 26.4078 3.88275 26.4078C3.90217 26.4078 3.91805 26.4386 3.91805 26.4763C3.91805 26.514 3.93271 26.5539 3.95064 26.5649C3.96858 26.576 3.99368 26.6326 4.00642 26.6906C4.01917 26.7486 4.0442 26.7961 4.06206 26.7961C4.07996 26.7961 4.09458 26.8269 4.09458 26.8646C4.09458 26.9023 4.11046 26.943 4.12988 26.955C4.1493 26.967 4.16519 27.0076 4.16519 27.0453C4.16519 27.083 4.18107 27.1139 4.20049 27.1139C4.21991 27.1139 4.2358 27.1447 4.2358 27.1824C4.2358 27.2201 4.25168 27.2607 4.2711 27.2727C4.29052 27.2847 4.3064 27.3234 4.3064 27.3588C4.3064 27.3941 4.33024 27.4427 4.35936 27.4669C4.38849 27.4911 4.41232 27.5407 4.41232 27.5771C4.41232 27.6136 4.42821 27.6434 4.44762 27.6434C4.46704 27.6434 4.48293 27.6742 4.48293 27.712C4.48293 27.7497 4.49881 27.7903 4.51823 27.8023C4.53765 27.8143 4.55354 27.8549 4.55354 27.8926C4.55354 27.9303 4.56617 27.9612 4.5816 27.9612C4.59703 27.9612 4.63915 28.0327 4.6752 28.12C4.71121 28.2074 4.75124 28.2789 4.76409 28.2789C4.77698 28.2789 4.80932 28.3345 4.83597 28.4025C4.86263 28.4704 4.89737 28.526 4.91318 28.526C4.92896 28.526 4.94189 28.5578 4.94189 28.5966C4.94189 28.6355 4.95777 28.6673 4.97719 28.6673C4.99661 28.6673 5.01249 28.6835 5.01249 28.7033C5.01249 28.7462 5.19505 29.0328 5.23315 29.0497C5.24773 29.0562 5.25963 29.0919 5.25963 29.1291C5.25963 29.1664 5.27551 29.1968 5.29493 29.1968C5.31435 29.1968 5.33024 29.2193 5.33024 29.2468C5.33024 29.2744 5.34217 29.3021 5.35671 29.3086C5.39481 29.3255 5.57737 29.6122 5.57737 29.655C5.57737 29.6748 5.59325 29.6911 5.61267 29.6911C5.63209 29.6911 5.64798 29.7149 5.64798 29.744C5.64798 29.7732 5.66386 29.797 5.68328 29.797C5.7027 29.797 5.71858 29.8208 5.71858 29.85C5.71858 29.8791 5.73105 29.9029 5.74626 29.9029C5.76151 29.9029 5.80406 29.9545 5.84084 30.0177C5.87763 30.0808 5.93666 30.1581 5.97204 30.1895C6.00741 30.2209 6.03633 30.2646 6.03633 30.2866C6.03633 30.3086 6.05221 30.3266 6.07163 30.3266C6.09105 30.3266 6.10693 30.3501 6.10693 30.3789C6.10693 30.4077 6.16254 30.4884 6.2305 30.5584C6.29846 30.6284 6.35407 30.7007 6.35407 30.7191C6.35407 30.7375 6.40967 30.8082 6.47763 30.8762C6.54559 30.9441 6.6012 31.0122 6.6012 31.0275C6.6012 31.0427 6.69645 31.1574 6.81288 31.2823C6.92928 31.4071 7.0246 31.5206 7.02471 31.5345C7.02478 31.5483 7.15195 31.687 7.30729 31.8425C7.46263 31.9981 7.58972 32.1416 7.58972 32.1615C7.58972 32.1814 7.60434 32.1977 7.62224 32.1977C7.6646 32.1977 7.97807 32.5112 7.97807 32.5535C7.97807 32.5714 7.99435 32.5861 8.01426 32.5861C8.03417 32.5861 8.18111 32.7124 8.34083 32.8668C8.68554 33.2 8.78693 33.2921 8.80893 33.2921C8.81793 33.2921 8.89076 33.3557 8.9708 33.4334C9.05084 33.511 9.12978 33.5746 9.14619 33.5746C9.16264 33.5746 9.23167 33.6302 9.29963 33.6981C9.36759 33.7661 9.43827 33.8217 9.45666 33.8217C9.47505 33.8217 9.54736 33.8773 9.61733 33.9453C9.68734 34.0132 9.76812 34.0688 9.79689 34.0688C9.82566 34.0688 9.84921 34.0847 9.84921 34.1041C9.84921 34.1236 9.86722 34.1395 9.88921 34.1395C9.91121 34.1395 9.95488 34.1684 9.9863 34.2037C10.0177 34.2391 10.095 34.2981 10.1581 34.3349C10.2212 34.3717 10.2728 34.4143 10.2728 34.4295C10.2728 34.4447 10.2967 34.4572 10.3258 34.4572C10.3549 34.4572 10.3788 34.4731 10.3788 34.4925C10.3788 34.5119 10.4026 34.5278 10.4317 34.5278C10.4608 34.5278 10.4847 34.5437 10.4847 34.5631C10.4847 34.5825 10.5009 34.5984 10.5207 34.5984C10.5636 34.5984 10.8502 34.781 10.8671 34.8191C10.8736 34.8336 10.9014 34.8455 10.9289 34.8455C10.9564 34.8455 10.9789 34.8614 10.9789 34.8808C10.9789 34.9003 11.0094 34.9162 11.0466 34.9162C11.0838 34.9162 11.1196 34.928 11.126 34.9426C11.143 34.9807 11.4296 35.1633 11.4725 35.1633C11.4923 35.1633 11.5085 35.1792 11.5085 35.1986C11.5085 35.218 11.5403 35.2339 11.5791 35.2339C11.6179 35.2339 11.6497 35.2468 11.6497 35.2626C11.6497 35.2784 11.7053 35.3132 11.7733 35.3398C11.8412 35.3665 11.8969 35.3988 11.8969 35.4117C11.8969 35.4245 11.9683 35.4646 12.0557 35.5006C12.1431 35.5366 12.2146 35.5787 12.2146 35.5942C12.2146 35.6096 12.2454 35.6222 12.2831 35.6222C12.3208 35.6222 12.3615 35.6381 12.3735 35.6575C12.3855 35.677 12.4261 35.6929 12.4638 35.6929C12.5015 35.6929 12.5323 35.7087 12.5323 35.7282C12.5323 35.7476 12.5622 35.7635 12.5986 35.7635C12.6351 35.7635 12.6847 35.7873 12.7089 35.8164C12.733 35.8455 12.7817 35.8694 12.817 35.8694C12.8523 35.8694 12.891 35.8853 12.903 35.9047C12.915 35.9241 12.9557 35.94 12.9934 35.94C13.0311 35.94 13.0619 35.9559 13.0619 35.9753C13.0619 35.9947 13.0927 36.0106 13.1304 36.0106C13.1681 36.0106 13.2088 36.0265 13.2208 36.0459C13.2328 36.0653 13.2734 36.0812 13.3111 36.0812C13.3488 36.0812 13.3796 36.0958 13.3796 36.1137C13.3796 36.1316 13.4271 36.1566 13.4852 36.1694C13.5432 36.1821 13.5997 36.2072 13.6108 36.2251C13.6219 36.2431 13.6618 36.2577 13.6995 36.2577C13.7372 36.2577 13.768 36.2736 13.768 36.293C13.768 36.3124 13.8236 36.3283 13.8916 36.3283C13.9595 36.3283 14.0151 36.3414 14.0151 36.3572C14.0151 36.3732 14.0956 36.4081 14.1939 36.4348C14.2922 36.4616 14.3805 36.4963 14.3901 36.5118C14.3998 36.5274 14.4345 36.5403 14.4673 36.5404C14.5002 36.5405 14.5725 36.5643 14.6282 36.5933C14.6838 36.6223 14.7592 36.6461 14.7958 36.6461C14.8325 36.6461 14.8624 36.662 14.8624 36.6814C14.8624 36.7008 14.9339 36.7167 15.0213 36.7167C15.1087 36.7167 15.1802 36.7326 15.1802 36.752C15.1802 36.7714 15.2201 36.7873 15.2689 36.7873C15.3177 36.7873 15.3853 36.802 15.419 36.8201C15.5213 36.8747 15.841 36.9638 15.9349 36.9638C15.9836 36.9638 16.0331 36.9797 16.0451 36.9991C16.0571 37.0185 16.1295 37.0344 16.2061 37.0344C16.2826 37.0344 16.3452 37.0488 16.3452 37.0663C16.3452 37.0838 16.4207 37.1068 16.5129 37.1174C16.6052 37.1279 16.768 37.1518 16.8748 37.1705C16.9816 37.1891 17.1802 37.2222 17.3161 37.2439C17.452 37.2657 17.6188 37.2988 17.6868 37.3176C17.7548 37.3364 17.9017 37.3518 18.0134 37.352C18.125 37.3521 18.2164 37.368 18.2164 37.3875C18.2164 37.4093 18.3988 37.4228 18.693 37.4228C18.9872 37.4228 19.1696 37.4363 19.1696 37.4581C19.1696 37.4808 19.5285 37.4934 20.1758 37.4934C20.823 37.4934 21.1819 37.4808 21.1819 37.4581C21.1819 37.4363 21.3644 37.4228 21.6585 37.4228C21.9527 37.4228 22.1352 37.4093 22.1352 37.3875C22.1352 37.368 22.2265 37.3521 22.3382 37.352C22.4498 37.3518 22.5968 37.3364 22.6647 37.3176C22.7327 37.2988 22.8995 37.2657 23.0354 37.2439C23.1713 37.2222 23.3699 37.1891 23.4767 37.1705C23.5835 37.1518 23.7464 37.1279 23.8386 37.1174C23.9308 37.1068 24.0063 37.0838 24.0063 37.0663C24.0063 37.0488 24.0778 37.0344 24.1652 37.0344C24.2525 37.0344 24.324 37.0185 24.324 36.9991C24.324 36.9797 24.3647 36.9638 24.4145 36.9638C24.5101 36.9638 24.8292 36.8753 24.9325 36.8201C24.9663 36.802 25.0338 36.7873 25.0826 36.7873C25.1314 36.7873 25.1713 36.7714 25.1713 36.752C25.1713 36.7326 25.2428 36.7167 25.3302 36.7167C25.4176 36.7167 25.4891 36.7008 25.4891 36.6814C25.4891 36.662 25.5191 36.6461 25.5557 36.6461C25.5923 36.6461 25.6677 36.6223 25.7234 36.5933C25.779 36.5643 25.8523 36.5405 25.8863 36.5404C25.9202 36.5403 25.948 36.5243 25.948 36.5049C25.948 36.4854 25.9721 36.4696 26.0016 36.4696C26.0872 36.4696 26.3364 36.3843 26.3364 36.3551C26.3364 36.3403 26.392 36.3283 26.46 36.3283C26.5279 36.3283 26.5835 36.3124 26.5835 36.293C26.5835 36.2736 26.6143 36.2577 26.6521 36.2577C26.6898 36.2577 26.7297 36.2431 26.7407 36.2251C26.7518 36.2072 26.8083 36.1821 26.8663 36.1694C26.9244 36.1566 26.9719 36.1316 26.9719 36.1137C26.9719 36.0958 27.0027 36.0812 27.0404 36.0812C27.0781 36.0812 27.1187 36.0653 27.1307 36.0459C27.1427 36.0265 27.1834 36.0106 27.2211 36.0106C27.2588 36.0106 27.2896 35.9947 27.2896 35.9753C27.2896 35.9559 27.3204 35.94 27.3581 35.94C27.3958 35.94 27.4365 35.9241 27.4485 35.9047C27.4605 35.8853 27.4992 35.8694 27.5345 35.8694C27.5698 35.8694 27.6185 35.8455 27.6427 35.8164C27.6668 35.7873 27.7164 35.7635 27.7529 35.7635C27.7894 35.7635 27.8192 35.7476 27.8192 35.7282C27.8192 35.7087 27.85 35.6929 27.8877 35.6929C27.9254 35.6929 27.966 35.677 27.9781 35.6575C27.9901 35.6381 28.0307 35.6222 28.0684 35.6222C28.1061 35.6222 28.1369 35.6096 28.1369 35.5942C28.1369 35.5787 28.2084 35.5366 28.2958 35.5006C28.3832 35.4646 28.4547 35.4245 28.4547 35.4117C28.4547 35.3988 28.5103 35.3665 28.5782 35.3398C28.6462 35.3132 28.7018 35.2784 28.7018 35.2626C28.7018 35.2468 28.7336 35.2339 28.7724 35.2339C28.8112 35.2339 28.843 35.218 28.843 35.1986C28.843 35.1792 28.8593 35.1633 28.8791 35.1633C28.9219 35.1633 29.2086 34.9807 29.2255 34.9426C29.232 34.928 29.2677 34.9162 29.3049 34.9162C29.3421 34.9162 29.3726 34.9003 29.3726 34.8808C29.3726 34.8614 29.3951 34.8455 29.4226 34.8455C29.4501 34.8455 29.4779 34.8336 29.4844 34.8191C29.5013 34.781 29.7879 34.5984 29.8308 34.5984C29.8506 34.5984 29.8668 34.5825 29.8668 34.5631C29.8668 34.5437 29.8907 34.5278 29.9198 34.5278C29.9489 34.5278 29.9728 34.5119 29.9728 34.4925C29.9728 34.4731 29.9966 34.4572 30.0257 34.4572C30.0548 34.4572 30.0787 34.4447 30.0787 34.4295C30.0787 34.4143 30.1303 34.3717 30.1934 34.3349C30.2565 34.2981 30.3339 34.2391 30.3652 34.2037C30.3967 34.1684 30.4403 34.1395 30.4623 34.1395C30.4843 34.1395 30.5023 34.1236 30.5023 34.1041C30.5023 34.0847 30.5259 34.0688 30.5546 34.0688C30.5834 34.0688 30.6642 34.0132 30.7342 33.9453C30.8042 33.8773 30.8765 33.8217 30.8949 33.8217C30.9133 33.8217 30.9839 33.7661 31.0519 33.6981C31.1199 33.6302 31.1879 33.5746 31.2032 33.5746C31.2185 33.5746 31.3331 33.4793 31.458 33.3629C31.5829 33.2465 31.6964 33.1512 31.7102 33.1511C31.7241 33.151 31.8627 33.0238 32.0183 32.8685C32.1738 32.7132 32.3174 32.5861 32.3373 32.5861C32.3572 32.5861 32.3735 32.5714 32.3735 32.5535C32.3735 32.5112 32.6869 32.1977 32.7293 32.1977C32.7472 32.1977 32.7618 32.1814 32.7618 32.1615C32.7618 32.1416 32.8881 31.9947 33.0425 31.835C33.3758 31.4902 33.4679 31.3888 33.4679 31.3668C33.4679 31.3578 33.5315 31.285 33.6091 31.205C33.6868 31.1249 33.7503 31.046 33.7503 31.0296C33.7503 31.0131 33.8059 30.9441 33.8739 30.8762C33.9419 30.8082 33.9975 30.7375 33.9975 30.7191C33.9975 30.7007 34.0531 30.6284 34.121 30.5584C34.189 30.4884 34.2446 30.4077 34.2446 30.3789C34.2446 30.3501 34.2605 30.3266 34.2799 30.3266C34.2993 30.3266 34.3152 30.3086 34.3152 30.2866C34.3152 30.2646 34.3441 30.2209 34.3795 30.1895C34.4149 30.1581 34.4739 30.0808 34.5107 30.0177C34.5475 29.9545 34.59 29.9029 34.6053 29.9029C34.6205 29.9029 34.633 29.8791 34.633 29.85C34.633 29.8208 34.6488 29.797 34.6683 29.797C34.6877 29.797 34.7036 29.7732 34.7036 29.744C34.7036 29.7149 34.7194 29.6911 34.7389 29.6911C34.7583 29.6911 34.7742 29.6748 34.7742 29.655C34.7742 29.6122 34.9567 29.3255 34.9948 29.3086C35.0094 29.3021 35.0213 29.2744 35.0213 29.2468C35.0213 29.2193 35.0372 29.1968 35.0566 29.1968C35.076 29.1968 35.0919 29.1664 35.0919 29.1291C35.0919 29.0919 35.1038 29.0562 35.1184 29.0497C35.1565 29.0328 35.339 28.7462 35.339 28.7033C35.339 28.6835 35.3549 28.6673 35.3743 28.6673C35.3938 28.6673 35.4097 28.6355 35.4097 28.5966C35.4097 28.5578 35.4226 28.526 35.4384 28.526C35.4542 28.526 35.4889 28.4704 35.5156 28.4025C35.5422 28.3345 35.5746 28.2789 35.5874 28.2789C35.6003 28.2789 35.6403 28.2074 35.6763 28.12C35.7124 28.0327 35.7545 27.9612 35.7699 27.9612C35.7854 27.9612 35.798 27.9303 35.798 27.8926C35.798 27.8549 35.8139 27.8143 35.8333 27.8023C35.8527 27.7903 35.8686 27.7497 35.8686 27.712C35.8686 27.6742 35.8845 27.6434 35.9039 27.6434C35.9233 27.6434 35.9392 27.6136 35.9392 27.5771C35.9392 27.5407 35.963 27.4911 35.9922 27.4669C36.0213 27.4427 36.0451 27.3941 36.0451 27.3588C36.0451 27.3234 36.061 27.2847 36.0804 27.2727C36.0999 27.2607 36.1157 27.2201 36.1157 27.1824C36.1157 27.1447 36.1316 27.1139 36.151 27.1139C36.1705 27.1139 36.1863 27.083 36.1863 27.0453C36.1863 27.0076 36.2022 26.967 36.2217 26.955C36.2411 26.943 36.257 26.9023 36.257 26.8646C36.257 26.8269 36.2716 26.7961 36.2895 26.7961C36.3073 26.7961 36.3324 26.7486 36.3451 26.6906C36.3579 26.6326 36.383 26.576 36.4009 26.5649C36.4188 26.5539 36.4335 26.514 36.4335 26.4763C36.4335 26.4386 36.4494 26.4078 36.4688 26.4078C36.4882 26.4078 36.5041 26.3522 36.5041 26.2842C36.5041 26.2162 36.5171 26.1606 36.533 26.1606C36.5489 26.1606 36.5838 26.0802 36.6106 25.9819C36.6374 25.8836 36.672 25.7952 36.6876 25.7856C36.7032 25.776 36.716 25.7413 36.7161 25.7084C36.7163 25.6756 36.7401 25.6032 36.7691 25.5476C36.7981 25.492 36.8218 25.4165 36.8218 25.3799C36.8218 25.3433 36.8377 25.3133 36.8571 25.3133C36.8766 25.3133 36.8924 25.2418 36.8924 25.1545C36.8924 25.0671 36.9083 24.9956 36.9277 24.9956C36.9472 24.9956 36.963 24.9557 36.963 24.9068C36.963 24.858 36.9778 24.7905 36.9958 24.7568C37.0505 24.6544 37.1396 24.3348 37.1396 24.2408C37.1396 24.1922 37.1555 24.1426 37.1749 24.1306C37.1943 24.1186 37.2102 24.0462 37.2102 23.9697C37.2102 23.8931 37.2245 23.8305 37.2421 23.8305C37.2596 23.8305 37.2826 23.7551 37.2931 23.6628C37.3037 23.5706 37.3275 23.4078 37.3462 23.301C37.3649 23.1942 37.3979 22.9956 37.4197 22.8597C37.4414 22.7237 37.4746 22.5569 37.4934 22.489C37.5121 22.421 37.5276 22.2741 37.5277 22.1624C37.5278 22.0507 37.5438 21.9594 37.5632 21.9594C37.585 21.9594 37.5985 21.777 37.5985 21.4828C37.5985 21.1886 37.6121 21.0062 37.6338 21.0062C37.6565 21.0062 37.6691 20.6472 37.6691 20C37.6691 19.3528 37.6565 18.9938 37.6338 18.9938C37.6121 18.9938 37.5985 18.8114 37.5985 18.5172C37.5985 18.223 37.585 18.0406 37.5632 18.0406C37.5438 18.0406 37.5278 17.9493 37.5277 17.8376C37.5276 17.7259 37.5121 17.579 37.4934 17.511C37.4746 17.4431 37.4414 17.2763 37.4197 17.1403C37.3979 17.0044 37.3649 16.8058 37.3462 16.699C37.3275 16.5922 37.3037 16.4294 37.2931 16.3372C37.2826 16.2449 37.2596 16.1695 37.2421 16.1695C37.2245 16.1695 37.2102 16.098 37.2102 16.0106C37.2102 15.9232 37.1943 15.8517 37.1749 15.8517C37.1555 15.8517 37.1396 15.811 37.1396 15.7613C37.1396 15.6656 37.051 15.3465 36.9958 15.2432C36.9778 15.2095 36.963 15.142 36.963 15.0932C36.963 15.0443 36.9472 15.0044 36.9277 15.0044C36.9083 15.0044 36.8924 14.9329 36.8924 14.8455C36.8924 14.7582 36.8766 14.6867 36.8571 14.6867C36.8377 14.6867 36.8218 14.6567 36.8218 14.6201C36.8218 14.5835 36.7981 14.508 36.7691 14.4524C36.7401 14.3968 36.7163 14.3235 36.7161 14.2895C36.716 14.2555 36.7 14.2277 36.6806 14.2277C36.6612 14.2277 36.6453 14.2036 36.6453 14.1742C36.6453 14.0886 36.5601 13.8394 36.5308 13.8394C36.5161 13.8394 36.5041 13.7838 36.5041 13.7158C36.5041 13.6478 36.4882 13.5922 36.4688 13.5922C36.4494 13.5922 36.4335 13.5614 36.4335 13.5237C36.4335 13.486 36.4188 13.4461 36.4009 13.4351C36.383 13.424 36.3579 13.3674 36.3451 13.3094C36.3324 13.2514 36.3073 13.2039 36.2895 13.2039C36.2716 13.2039 36.257 13.1731 36.257 13.1354C36.257 13.0977 36.2411 13.057 36.2217 13.045C36.2022 13.033 36.1863 12.9924 36.1863 12.9547C36.1863 12.917 36.1705 12.8861 36.151 12.8861C36.1316 12.8861 36.1157 12.8553 36.1157 12.8176C36.1157 12.7799 36.0999 12.7393 36.0804 12.7273C36.061 12.7153 36.0451 12.6766 36.0451 12.6412C36.0451 12.6059 36.0213 12.5573 35.9922 12.5331C35.963 12.5089 35.9392 12.4593 35.9392 12.4229C35.9392 12.3864 35.9233 12.3566 35.9039 12.3566C35.8845 12.3566 35.8686 12.3258 35.8686 12.288C35.8686 12.2503 35.8527 12.2097 35.8333 12.1977C35.8139 12.1857 35.798 12.1451 35.798 12.1074C35.798 12.0697 35.7854 12.0388 35.7699 12.0388C35.7545 12.0388 35.7124 11.9673 35.6763 11.88C35.6403 11.7926 35.6003 11.7211 35.5874 11.7211C35.5746 11.7211 35.5422 11.6655 35.5156 11.5975C35.4889 11.5296 35.4542 11.474 35.4384 11.474C35.4226 11.474 35.4097 11.4422 35.4097 11.4034C35.4097 11.3645 35.3938 11.3327 35.3743 11.3327C35.3549 11.3327 35.339 11.3165 35.339 11.2967C35.339 11.2538 35.1565 10.9672 35.1184 10.9503C35.1038 10.9438 35.0919 10.9081 35.0919 10.8709C35.0919 10.8336 35.076 10.8032 35.0566 10.8032C35.0372 10.8032 35.0213 10.7807 35.0213 10.7532C35.0213 10.7256 35.0094 10.6979 34.9948 10.6914C34.9567 10.6745 34.7742 10.3878 34.7742 10.345C34.7742 10.3252 34.7583 10.3089 34.7389 10.3089C34.7194 10.3089 34.7036 10.2851 34.7036 10.256C34.7036 10.2268 34.6877 10.203 34.6683 10.203C34.6488 10.203 34.633 10.1792 34.633 10.15C34.633 10.1209 34.6205 10.0971 34.6053 10.0971C34.59 10.0971 34.5475 10.0454 34.5107 9.98235C34.4739 9.91922 34.4149 9.84191 34.3795 9.81052C34.3441 9.7791 34.3152 9.73543 34.3152 9.71343C34.3152 9.69144 34.2993 9.67343 34.2799 9.67343C34.2605 9.67343 34.2446 9.64989 34.2446 9.62111C34.2446 9.59234 34.189 9.51156 34.121 9.44155C34.0531 9.37158 33.9975 9.29928 33.9975 9.28088C33.9975 9.26249 33.9419 9.19181 33.8739 9.12385C33.8059 9.05589 33.7503 8.98782 33.7503 8.97253C33.7503 8.95728 33.6551 8.84261 33.5387 8.71774C33.4223 8.5929 33.3269 8.4794 33.3268 8.46553C33.3268 8.45165 33.1996 8.31305 33.0442 8.15749C32.8889 8.00194 32.7618 7.85839 32.7618 7.83848C32.7618 7.81857 32.7472 7.80229 32.7293 7.80229C32.6869 7.80229 32.3735 7.48883 32.3735 7.44646C32.3735 7.42856 32.3572 7.41395 32.3373 7.41395C32.3174 7.41395 32.1704 7.28763 32.0107 7.13324C31.666 6.8 31.5646 6.70786 31.5426 6.70786C31.5336 6.70786 31.4608 6.64431 31.3807 6.56664C31.3007 6.48897 31.2218 6.42542 31.2053 6.42542C31.1889 6.42542 31.1199 6.36981 31.0519 6.30185C30.9839 6.23389 30.9133 6.17829 30.8949 6.17829C30.8765 6.17829 30.8042 6.12268 30.7342 6.05472C30.6642 5.98676 30.5834 5.93116 30.5546 5.93116C30.5259 5.93116 30.5023 5.91527 30.5023 5.89585C30.5023 5.87643 30.4843 5.86055 30.4623 5.86055C30.4403 5.86055 30.3967 5.83163 30.3652 5.79626C30.3339 5.76088 30.2565 5.70185 30.1934 5.66507C30.1303 5.62828 30.0787 5.58574 30.0787 5.57049C30.0787 5.55527 30.0548 5.54281 30.0257 5.54281C29.9966 5.54281 29.9728 5.52692 29.9728 5.5075C29.9728 5.48808 29.9489 5.4722 29.9198 5.4722C29.8907 5.4722 29.8668 5.45631 29.8668 5.43689C29.8668 5.41748 29.8506 5.40159 29.8308 5.40159C29.7879 5.40159 29.5013 5.21903 29.4844 5.18094C29.4779 5.16639 29.4501 5.15446 29.4226 5.15446C29.3951 5.15446 29.3726 5.13857 29.3726 5.11915C29.3726 5.09974 29.3421 5.08385 29.3049 5.08385C29.2677 5.08385 29.232 5.07192 29.2255 5.05737C29.2086 5.01928 28.9219 4.83672 28.8791 4.83672C28.8593 4.83672 28.843 4.82083 28.843 4.80141C28.843 4.78199 28.8112 4.76611 28.7724 4.76611C28.7336 4.76611 28.7018 4.75319 28.7018 4.73741C28.7018 4.72159 28.6462 4.68685 28.5782 4.66019C28.5103 4.63354 28.4547 4.6012 28.4547 4.58831C28.4547 4.57546 28.3832 4.53543 28.2958 4.49942C28.2084 4.46337 28.1369 4.42125 28.1369 4.40583C28.1369 4.3904 28.1061 4.37776 28.0684 4.37776C28.0307 4.37776 27.9901 4.36187 27.9781 4.34245C27.966 4.32304 27.9254 4.30715 27.8877 4.30715C27.85 4.30715 27.8192 4.29126 27.8192 4.27184C27.8192 4.25243 27.7894 4.23654 27.7529 4.23654C27.7164 4.23654 27.6668 4.21271 27.6427 4.18358C27.6185 4.15446 27.5698 4.13063 27.5345 4.13063C27.4992 4.13063 27.4605 4.11474 27.4485 4.09532C27.4365 4.0759 27.3958 4.06002 27.3581 4.06002C27.3204 4.06002 27.2896 4.04413 27.2896 4.02471C27.2896 4.0053 27.2588 3.98941 27.2211 3.98941C27.1834 3.98941 27.1427 3.97352 27.1307 3.9541C27.1187 3.93469 27.0781 3.9188 27.0404 3.9188C27.0027 3.9188 26.9719 3.90418 26.9719 3.88628C26.9719 3.86842 26.9244 3.84339 26.8663 3.83064C26.8083 3.8179 26.7518 3.7928 26.7407 3.77486C26.7297 3.75693 26.6898 3.74228 26.6521 3.74228C26.6143 3.74228 26.5835 3.72639 26.5835 3.70697C26.5835 3.68756 26.5279 3.67167 26.46 3.67167C26.392 3.67167 26.3364 3.65864 26.3364 3.64275C26.3364 3.62683 26.2559 3.59192 26.1576 3.56515C26.0593 3.53836 25.971 3.50372 25.9614 3.48816C25.9518 3.47259 25.917 3.45974 25.8842 3.45963C25.8513 3.45949 25.779 3.43566 25.7234 3.40667C25.6677 3.37765 25.5923 3.35393 25.5557 3.35393C25.5191 3.35393 25.4891 3.33804 25.4891 3.31862C25.4891 3.29921 25.4176 3.28332 25.3302 3.28332C25.2428 3.28332 25.1713 3.26743 25.1713 3.24801C25.1713 3.2286 25.1314 3.21271 25.0826 3.21271C25.0338 3.21271 24.9663 3.19795 24.9325 3.17995C24.8302 3.12526 24.5105 3.03619 24.4166 3.03619C24.368 3.03619 24.3184 3.0203 24.3064 3.00088C24.2944 2.98147 24.222 2.96558 24.1454 2.96558C24.0689 2.96558 24.0063 2.95121 24.0063 2.9337C24.0063 2.91615 23.9308 2.89317 23.8386 2.88265C23.7464 2.87209 23.5835 2.84823 23.4767 2.82955C23.3699 2.81087 23.1713 2.77783 23.0354 2.75608C22.8995 2.73433 22.7327 2.70118 22.6647 2.6824C22.5968 2.66362 22.4498 2.64816 22.3382 2.64805C22.2265 2.64794 22.1352 2.63195 22.1352 2.61253C22.1352 2.59075 21.9527 2.57723 21.6585 2.57723C21.3644 2.57723 21.1819 2.56371 21.1819 2.54192C21.1819 2.51922 20.823 2.50662 20.1758 2.50662C19.5285 2.50662 19.1696 2.51922 19.1696 2.54192ZM19.8404 10.025C19.8112 10.0413 19.7199 10.0824 19.6374 10.1165C19.5549 10.1506 19.4873 10.1919 19.4873 10.2084C19.4873 10.2248 19.4709 10.2383 19.4508 10.2383C19.4123 10.2383 19.1696 10.468 19.1696 10.5044C19.1696 10.5162 19.1497 10.5479 19.1254 10.575C19.0096 10.7041 18.9931 10.7369 18.9931 10.837C18.9931 10.8961 18.9772 10.9444 18.9578 10.9444C18.9343 10.9444 18.9224 13.2156 18.9224 17.6876C18.9224 21.3963 18.913 24.4307 18.9013 24.4307C18.8897 24.4307 18.8356 24.3831 18.7812 24.3248C18.7268 24.2665 18.6716 24.2189 18.6586 24.2189C18.6291 24.2189 18.5341 24.1256 18.5341 24.0967C18.5341 24.0688 18.2958 23.8305 18.268 23.8305C18.2403 23.8305 18.1457 23.736 18.1457 23.7083C18.1457 23.6718 17.903 23.4422 17.8645 23.4422C17.8444 23.4422 17.828 23.4258 17.828 23.4057C17.828 23.3672 17.5984 23.1244 17.5619 23.1244C17.5342 23.1244 17.4397 23.0299 17.4397 23.0022C17.4397 22.9744 17.2014 22.7361 17.1735 22.7361C17.1458 22.7361 17.0513 22.6416 17.0513 22.6139C17.0513 22.5774 16.8086 22.3477 16.77 22.3477C16.75 22.3477 16.7336 22.3313 16.7336 22.3113C16.7336 22.2727 16.5039 22.03 16.4674 22.03C16.4397 22.03 16.3452 21.9355 16.3452 21.9078C16.3452 21.88 16.1069 21.6417 16.0791 21.6417C16.0514 21.6417 15.9569 21.5472 15.9569 21.5194C15.9569 21.4916 15.7186 21.2533 15.6907 21.2533C15.6628 21.2533 15.5685 21.1587 15.5685 21.1307C15.5685 21.1023 15.4018 20.9356 15.3734 20.9356C15.3454 20.9356 15.2508 20.8413 15.2508 20.8133C15.2508 20.7855 15.0125 20.5472 14.9847 20.5472C14.9569 20.5472 14.8624 20.4527 14.8624 20.425C14.8624 20.3972 14.6241 20.1589 14.5963 20.1589C14.5686 20.1589 14.4741 20.0644 14.4741 20.0366C14.4741 20.0002 14.2314 19.7705 14.1928 19.7705C14.1728 19.7705 14.1563 19.7541 14.1563 19.7341C14.1563 19.6955 13.9267 19.4528 13.8902 19.4528C13.8607 19.4528 13.768 19.3574 13.768 19.327C13.768 19.2805 13.5741 19.1351 13.512 19.1351C13.4781 19.1351 13.4503 19.1192 13.4503 19.0997C13.4503 19.0803 13.4118 19.0644 13.3649 19.0644C13.318 19.0644 13.274 19.0475 13.2671 19.0268C13.2593 19.0034 13.1152 18.9892 12.8854 18.9892C12.6556 18.9892 12.5115 19.0034 12.5037 19.0268C12.4968 19.0475 12.4448 19.0644 12.3882 19.0644C12.3316 19.0644 12.2852 19.0769 12.2852 19.0921C12.2852 19.1074 12.2415 19.1463 12.1881 19.1786C12.0432 19.2664 11.8969 19.4025 11.8969 19.4495C11.8969 19.4724 11.864 19.5261 11.8238 19.569C11.7837 19.6119 11.7419 19.6906 11.7311 19.744C11.7203 19.7975 11.6976 19.8411 11.6806 19.8411C11.624 19.8411 11.6454 20.4806 11.7075 20.6431C11.7393 20.7263 11.779 20.7944 11.7957 20.7944C11.8125 20.7944 11.8262 20.8226 11.8262 20.8572C11.8262 20.8917 11.858 20.9429 11.8969 20.9709C11.9357 20.9989 11.9675 21.0349 11.9675 21.0509C11.9675 21.0846 12.1301 21.2533 12.1626 21.2533C12.1906 21.2533 12.2852 21.3476 12.2852 21.3755C12.2852 21.4034 12.5235 21.6417 12.5513 21.6417C12.5793 21.6417 12.6736 21.7363 12.6736 21.7643C12.6736 21.7921 12.84 21.9594 12.8677 21.9594C12.8792 21.9594 12.9276 21.9984 12.9752 22.0461C13.0229 22.0937 13.0619 22.1421 13.0619 22.1536C13.0619 22.1808 13.2289 22.3477 13.2561 22.3477C13.2833 22.3477 13.4503 22.5147 13.4503 22.5419C13.4503 22.5696 13.6175 22.7361 13.6453 22.7361C13.6734 22.7361 13.768 22.8304 13.768 22.8583C13.768 22.8861 14.0063 23.1244 14.0341 23.1244C14.0621 23.1244 14.1563 23.2191 14.1563 23.2471C14.1563 23.2749 14.3228 23.4422 14.3505 23.4422C14.3777 23.4422 14.5447 23.6092 14.5447 23.6364C14.5447 23.6641 14.712 23.8305 14.7398 23.8305C14.7678 23.8305 14.8624 23.9248 14.8624 23.9528C14.8624 23.9806 15.1007 24.2189 15.1286 24.2189C15.1565 24.2189 15.2508 24.3135 15.2508 24.3415C15.2508 24.3694 15.4172 24.5366 15.445 24.5366C15.4721 24.5366 15.6391 24.7036 15.6391 24.7308C15.6391 24.7585 15.8064 24.925 15.8342 24.925C15.8623 24.925 15.9569 25.0192 15.9569 25.0472C15.9569 25.075 16.1952 25.3133 16.223 25.3133C16.251 25.3133 16.3452 25.4079 16.3452 25.436C16.3452 25.4638 16.5117 25.6311 16.5394 25.6311C16.5666 25.6311 16.7336 25.7981 16.7336 25.8252C16.7336 25.853 16.9008 26.0194 16.9287 26.0194C16.9567 26.0194 17.0513 26.1137 17.0513 26.1416C17.0513 26.1695 17.2896 26.4078 17.3174 26.4078C17.3454 26.4078 17.4397 26.5024 17.4397 26.5304C17.4397 26.5582 17.6061 26.7255 17.6338 26.7255C17.661 26.7255 17.828 26.8925 17.828 26.9197C17.828 26.9469 17.995 27.1139 18.0222 27.1139C18.0494 27.1139 18.2164 27.2808 18.2164 27.308C18.2164 27.3357 18.3836 27.5022 18.4115 27.5022C18.4395 27.5022 18.5341 27.5965 18.5341 27.6244C18.5341 27.6523 18.7724 27.8906 18.8002 27.8906C18.8282 27.8906 18.9224 27.9852 18.9224 28.0132C18.9224 28.0456 19.0912 28.2083 19.1249 28.2083C19.1409 28.2083 19.1769 28.2401 19.2049 28.2789C19.2329 28.3177 19.284 28.3495 19.3186 28.3495C19.3531 28.3495 19.3814 28.3647 19.3814 28.3832C19.3814 28.4018 19.437 28.4274 19.505 28.4401C19.5729 28.4529 19.6285 28.4774 19.6285 28.4947C19.6285 28.5119 19.8748 28.526 20.1758 28.526C20.4767 28.526 20.723 28.5119 20.723 28.4947C20.723 28.4774 20.7786 28.4529 20.8465 28.4401C20.9145 28.4274 20.9701 28.4018 20.9701 28.3832C20.9701 28.3647 20.9984 28.3495 21.0329 28.3495C21.0675 28.3495 21.1186 28.3177 21.1466 28.2789C21.1746 28.2401 21.2106 28.2083 21.2266 28.2083C21.2603 28.2083 21.4291 28.0456 21.4291 28.0132C21.4291 27.9852 21.5233 27.8906 21.5513 27.8906C21.5791 27.8906 21.8174 27.6523 21.8174 27.6244C21.8174 27.5965 21.912 27.5022 21.9401 27.5022C21.9679 27.5022 22.1352 27.3357 22.1352 27.308C22.1352 27.2808 22.3021 27.1139 22.3293 27.1139C22.3565 27.1139 22.5235 26.9469 22.5235 26.9197C22.5235 26.8925 22.6905 26.7255 22.7177 26.7255C22.7454 26.7255 22.9119 26.5582 22.9119 26.5304C22.9119 26.5024 23.0061 26.4078 23.0341 26.4078C23.0619 26.4078 23.3002 26.1695 23.3002 26.1416C23.3002 26.1137 23.3948 26.0194 23.4229 26.0194C23.4507 26.0194 23.6179 25.853 23.6179 25.8252C23.6179 25.7981 23.7849 25.6311 23.8121 25.6311C23.8398 25.6311 24.0063 25.4638 24.0063 25.436C24.0063 25.4079 24.1006 25.3133 24.1285 25.3133C24.1563 25.3133 24.3946 25.075 24.3946 25.0472C24.3946 25.0192 24.4893 24.925 24.5173 24.925C24.5451 24.925 24.7124 24.7585 24.7124 24.7308C24.7124 24.7036 24.8794 24.5366 24.9066 24.5366C24.9343 24.5366 25.1007 24.3694 25.1007 24.3415C25.1007 24.3135 25.195 24.2189 25.223 24.2189C25.2508 24.2189 25.4891 23.9806 25.4891 23.9528C25.4891 23.9248 25.5837 23.8305 25.6117 23.8305C25.6396 23.8305 25.8068 23.6641 25.8068 23.6364C25.8068 23.6092 25.9738 23.4422 26.001 23.4422C26.0287 23.4422 26.1952 23.2749 26.1952 23.2471C26.1952 23.2191 26.2894 23.1244 26.3174 23.1244C26.3452 23.1244 26.5835 22.8861 26.5835 22.8583C26.5835 22.8306 26.678 22.7361 26.7057 22.7361C26.7336 22.7361 26.9719 22.4978 26.9719 22.47C26.9719 22.442 27.0665 22.3477 27.0945 22.3477C27.1223 22.3477 27.2896 22.1813 27.2896 22.1536C27.2896 22.1421 27.3286 22.0937 27.3763 22.0461C27.4239 21.9984 27.4723 21.9594 27.4838 21.9594C27.5115 21.9594 27.678 21.7921 27.678 21.7643C27.678 21.7363 27.7722 21.6417 27.8002 21.6417C27.828 21.6417 28.0663 21.4034 28.0663 21.3755C28.0663 21.3476 28.1609 21.2533 28.189 21.2533C28.2185 21.2533 28.3841 21.086 28.3841 21.0561C28.3841 21.0429 28.4131 21.0064 28.4486 20.975C28.4841 20.9436 28.5556 20.8275 28.6075 20.7171C28.6891 20.5433 28.7018 20.4709 28.7018 20.1787C28.7018 19.993 28.6879 19.8411 28.6709 19.8411C28.6539 19.8411 28.6312 19.7975 28.6204 19.744C28.6096 19.6906 28.5678 19.6119 28.5277 19.569C28.4875 19.5261 28.4547 19.4724 28.4547 19.4495C28.4547 19.4025 28.3083 19.2664 28.1634 19.1786C28.11 19.1463 28.0663 19.1074 28.0663 19.0921C28.0663 19.0769 28.02 19.0644 27.9633 19.0644C27.9067 19.0644 27.8547 19.0475 27.8479 19.0268C27.84 19.0034 27.6959 18.9892 27.4661 18.9892C27.2363 18.9892 27.0922 19.0034 27.0844 19.0268C27.0775 19.0475 27.0335 19.0644 26.9866 19.0644C26.9396 19.0644 26.9013 19.0803 26.9013 19.0997C26.9013 19.1192 26.8734 19.1351 26.8395 19.1351C26.7774 19.1351 26.5835 19.2805 26.5835 19.327C26.5835 19.3574 26.4909 19.4528 26.4613 19.4528C26.4248 19.4528 26.1952 19.6955 26.1952 19.7341C26.1952 19.7541 26.1788 19.7705 26.1587 19.7705C26.1202 19.7705 25.8774 20.0002 25.8774 20.0366C25.8774 20.0644 25.7829 20.1589 25.7552 20.1589C25.7274 20.1589 25.4891 20.3972 25.4891 20.425C25.4891 20.4527 25.3946 20.5472 25.3669 20.5472C25.339 20.5472 25.1007 20.7855 25.1007 20.8133C25.1007 20.8413 25.0061 20.9356 24.9781 20.9356C24.9497 20.9356 24.783 21.1023 24.783 21.1307C24.783 21.1587 24.6887 21.2533 24.6608 21.2533C24.633 21.2533 24.3946 21.4916 24.3946 21.5194C24.3946 21.5472 24.3001 21.6417 24.2724 21.6417C24.2446 21.6417 24.0063 21.88 24.0063 21.9078C24.0063 21.9355 23.9118 22.03 23.8841 22.03C23.8476 22.03 23.6179 22.2727 23.6179 22.3113C23.6179 22.3313 23.6015 22.3477 23.5815 22.3477C23.5429 22.3477 23.3002 22.5774 23.3002 22.6139C23.3002 22.6416 23.2057 22.7361 23.178 22.7361C23.1502 22.7361 22.9119 22.9744 22.9119 23.0022C22.9119 23.0299 22.8173 23.1244 22.7896 23.1244C22.7532 23.1244 22.5235 23.3672 22.5235 23.4057C22.5235 23.4258 22.5071 23.4422 22.487 23.4422C22.4485 23.4422 22.2058 23.6718 22.2058 23.7083C22.2058 23.736 22.1113 23.8305 22.0835 23.8305C22.0557 23.8305 21.8174 24.0688 21.8174 24.0967C21.8174 24.1256 21.7224 24.2189 21.6929 24.2189C21.6799 24.2189 21.6247 24.2665 21.5703 24.3248C21.5159 24.3831 21.4618 24.4307 21.4502 24.4307C21.4386 24.4307 21.4291 21.3963 21.4291 17.6876C21.4291 13.2156 21.4172 10.9444 21.3938 10.9444C21.3743 10.9444 21.3585 10.9059 21.3585 10.859C21.3585 10.7688 21.2533 10.5566 21.2084 10.5563C21.1938 10.5562 21.1819 10.5396 21.1819 10.5196C21.1819 10.4721 20.9482 10.2383 20.9007 10.2383C20.8806 10.2383 20.8642 10.2248 20.8642 10.2084C20.8642 10.1919 20.7967 10.1505 20.7142 10.1165C20.6316 10.0824 20.5365 10.0403 20.5028 10.0228C20.4262 9.98327 19.912 9.98489 19.8404 10.025ZM0.191809 20C0.191774 20.7379 0.196469 21.0447 0.202189 20.6819C0.207943 20.3192 0.207943 19.7154 0.202224 19.3404C0.196505 18.9653 0.191809 19.2621 0.191809 20Z" fill="black" stroke="#F0F8FF" stroke-width="0.5"/>
</g>
</g>
<defs>
<clipPath id="clip0_1070_1365">
<rect width="41" height="40" fill="white"/>
</clipPath>
</defs>
</svg>
