<svg width="41" height="40" viewBox="0 0 41 40" fill="none" xmlns="http://www.w3.org/2000/svg">
<g clip-path="url(#clip0_1070_1371)">
<mask id="mask0_1070_1371" style="mask-type:luminance" maskUnits="userSpaceOnUse" x="-1" y="-1" width="42" height="42">
<path d="M40.1765 0H0V40H40.1765V0Z" fill="white" stroke="white" stroke-width="0.5"/>
</mask>
<g mask="url(#mask0_1070_1371)">
<path fill-rule="evenodd" clip-rule="evenodd" d="M13.2256 2.2853C13.2106 2.30044 13.0366 2.32336 12.8392 2.33617C12.6417 2.34902 12.3292 2.3862 12.1447 2.41878C11.9603 2.45137 11.718 2.48597 11.6064 2.49568C11.4947 2.50535 11.4034 2.52777 11.4034 2.54546C11.4034 2.56314 11.3239 2.57762 11.2268 2.57762C11.1297 2.57762 11.0503 2.59351 11.0503 2.61292C11.0503 2.63234 10.9865 2.64823 10.9086 2.64823C10.8307 2.64823 10.7393 2.66189 10.7056 2.67855C10.5947 2.73342 10.2832 2.82475 10.2071 2.82475C10.166 2.82475 10.1324 2.84064 10.1324 2.86006C10.1324 2.87947 10.0768 2.89536 10.0088 2.89536C9.94087 2.89536 9.88526 2.91125 9.88526 2.93066C9.88526 2.95008 9.8376 2.96597 9.77935 2.96597C9.72109 2.96597 9.67343 2.98186 9.67343 3.00127C9.67343 3.02069 9.64777 3.03658 9.61638 3.03658C9.53751 3.03658 9.19947 3.15418 9.18507 3.18662C9.17857 3.20117 9.1349 3.2131 9.08798 3.2131C9.04102 3.2131 9.00265 3.22899 9.00265 3.2484C9.00265 3.26782 8.95499 3.28371 8.89673 3.28371C8.83848 3.28371 8.79082 3.2996 8.79082 3.31901C8.79082 3.33843 8.76 3.35432 8.7223 3.35432C8.68459 3.35432 8.64395 3.37021 8.63195 3.38962C8.61995 3.40904 8.58609 3.42493 8.55675 3.42493C8.52738 3.42493 8.47951 3.44876 8.45038 3.47788C8.42125 3.50701 8.36678 3.53084 8.32936 3.53084C8.2919 3.53084 8.26125 3.54673 8.26125 3.56615C8.26125 3.58556 8.22154 3.60145 8.17299 3.60145C8.12445 3.60145 8.08473 3.61734 8.08473 3.63675C8.08473 3.65617 8.05296 3.67206 8.01412 3.67206C7.97529 3.67206 7.94344 3.68399 7.94337 3.69854C7.9433 3.71308 7.87181 3.75439 7.7845 3.79029C7.69719 3.8262 7.62577 3.86991 7.62577 3.88738C7.62577 3.90489 7.58605 3.91919 7.53751 3.91919C7.48897 3.91919 7.44925 3.93119 7.44925 3.94588C7.44925 3.96057 7.3976 3.99531 7.33451 4.02313C7.27142 4.05095 7.20046 4.09059 7.17688 4.11121C7.05444 4.21811 7.02411 4.23693 6.97412 4.23693C6.94418 4.23693 6.91968 4.25282 6.91968 4.27224C6.91968 4.29165 6.89585 4.30754 6.86673 4.30754C6.8376 4.30754 6.81377 4.32343 6.81377 4.34284C6.81377 4.36226 6.78199 4.37815 6.74316 4.37815C6.70432 4.37815 6.67255 4.39043 6.67255 4.40544C6.67255 4.42044 6.61695 4.46263 6.54899 4.49924C6.48102 4.53585 6.42542 4.57917 6.42542 4.59552C6.42542 4.6119 6.40046 4.62528 6.36996 4.62528C6.33942 4.62528 6.2944 4.64516 6.26987 4.66941C6.24533 4.6937 6.18115 4.74532 6.12724 4.78415C6.07336 4.82299 6.0083 4.87464 5.98274 4.89889C5.95714 4.92318 5.91919 4.94302 5.89836 4.94302C5.87756 4.94302 5.86055 4.95891 5.86055 4.97833C5.86055 4.99774 5.83601 5.01363 5.806 5.01363C5.77599 5.01363 5.71478 5.04936 5.66997 5.09307C5.5427 5.21713 5.40321 5.33137 5.37899 5.33137C5.36685 5.33137 5.33123 5.35933 5.29981 5.39354C5.26842 5.42775 5.17917 5.50253 5.1015 5.55976C5.02383 5.61695 4.91816 5.70814 4.86669 5.76237C4.81522 5.81656 4.76244 5.86094 4.74941 5.86094C4.71922 5.86094 4.62489 5.95453 4.62489 5.9845C4.62489 6.01324 4.53109 6.10807 4.50267 6.10807C4.4829 6.10807 4.35075 6.22616 4.15771 6.41642C4.01176 6.56025 3.9188 6.67005 3.9188 6.69861C3.9188 6.71411 3.87806 6.75739 3.82831 6.79474C3.67933 6.90662 3.60106 6.97977 3.60106 7.00713C3.60106 7.02133 3.55668 7.0751 3.50249 7.12657C3.44826 7.17804 3.35693 7.28336 3.29949 7.3606C3.24205 7.43785 3.15139 7.54743 3.09797 7.60413C3.04455 7.66083 3.00088 7.72025 3.00088 7.73614C3.00088 7.75202 2.94528 7.82062 2.87732 7.88858C2.80936 7.95654 2.75375 8.02786 2.75375 8.04703C2.75375 8.06623 2.71403 8.12163 2.66549 8.17017C2.61695 8.21871 2.57723 8.27506 2.57723 8.29536C2.57723 8.31566 2.56134 8.33225 2.54192 8.33225C2.52251 8.33225 2.50662 8.3582 2.50662 8.38991C2.50662 8.42161 2.47859 8.47322 2.44434 8.50464C2.36618 8.57631 2.18888 8.84816 2.18888 8.89638C2.18888 8.91619 2.17299 8.93243 2.15357 8.93243C2.13416 8.93243 2.11827 8.95693 2.11827 8.98687C2.11827 9.01681 2.08879 9.07294 2.05278 9.1116C2.01673 9.15026 1.95718 9.24473 1.92039 9.32156C1.8836 9.39834 1.84159 9.46136 1.82701 9.46161C1.81243 9.46182 1.80053 9.48583 1.80053 9.51495C1.80053 9.54408 1.78464 9.56791 1.76523 9.56791C1.74581 9.56791 1.72992 9.59022 1.72992 9.61748C1.72992 9.64473 1.67432 9.7654 1.60635 9.88565C1.53839 10.0059 1.48279 10.1266 1.48279 10.1538C1.48279 10.1811 1.4669 10.2034 1.44748 10.2034C1.42807 10.2034 1.41218 10.2352 1.41218 10.274C1.41218 10.3128 1.39629 10.3446 1.37688 10.3446C1.35746 10.3446 1.34157 10.3754 1.34157 10.4131C1.34157 10.4508 1.32568 10.4915 1.30627 10.5035C1.28685 10.5155 1.27096 10.5493 1.27096 10.5787C1.27096 10.6081 1.24713 10.6559 1.21801 10.6851C1.18888 10.7142 1.16505 10.7687 1.16505 10.8061C1.16505 10.8435 1.14916 10.8742 1.12974 10.8742C1.11033 10.8742 1.09444 10.9139 1.09444 10.9624C1.09444 11.011 1.07855 11.0507 1.05914 11.0507C1.03972 11.0507 1.02383 11.0795 1.02383 11.1147C1.02383 11.1499 0.991633 11.2453 0.952304 11.3267C0.912939 11.4082 0.871245 11.5223 0.859629 11.5805C0.847979 11.6386 0.824572 11.6862 0.80759 11.6862C0.790609 11.6862 0.776699 11.7338 0.776699 11.7921C0.776699 11.8503 0.760812 11.898 0.741395 11.898C0.721977 11.898 0.70609 11.9536 0.70609 12.0216C0.70609 12.0895 0.690203 12.1451 0.670786 12.1451C0.651368 12.1451 0.635481 12.1764 0.635481 12.2145C0.635481 12.2527 0.613557 12.3361 0.586761 12.3999C0.506125 12.5918 0.458959 12.7625 0.458959 12.8626C0.458959 12.9146 0.443071 12.9571 0.423654 12.9571C0.404237 12.9571 0.38835 13.0286 0.38835 13.116C0.38835 13.2034 0.372462 13.2749 0.353045 13.2749C0.333628 13.2749 0.317741 13.3437 0.317741 13.4279C0.317741 13.512 0.306019 13.5926 0.291721 13.6069C0.233857 13.6648 0.106408 14.5017 0.082895 14.9783C0.0735746 15.1677 0.0510856 15.3225 0.0329744 15.3225C0.0132392 15.3225 0 15.783 0 16.4699C0 17.1569 0.0132392 17.6173 0.0329744 17.6173C0.0510856 17.6173 0.0727273 17.7723 0.0810944 17.9616C0.0894263 18.1509 0.105207 18.3455 0.116187 18.394C0.127132 18.4426 0.162471 18.6491 0.194669 18.853C0.226867 19.0569 0.267749 19.2513 0.285472 19.285C0.30323 19.3187 0.317741 19.4101 0.317741 19.488C0.317741 19.5659 0.333628 19.6297 0.353045 19.6297C0.372462 19.6297 0.38835 19.6935 0.38835 19.7714C0.38835 19.8493 0.402295 19.9407 0.419312 19.9744C0.46256 20.0599 0.520918 20.2584 0.54902 20.4152C0.562048 20.488 0.586867 20.5476 0.604095 20.5476C0.621359 20.5476 0.635481 20.6032 0.635481 20.6712C0.635481 20.7391 0.651368 20.7947 0.670786 20.7947C0.690203 20.7947 0.70609 20.8424 0.70609 20.9007C0.70609 20.9589 0.721977 21.0066 0.741395 21.0066C0.760812 21.0066 0.776699 21.0622 0.776699 21.1301C0.776699 21.1981 0.792586 21.2537 0.812004 21.2537C0.831421 21.2537 0.847802 21.2815 0.848402 21.3155C0.849003 21.3494 0.888579 21.4567 0.936346 21.5538C0.984113 21.6509 1.02334 21.7661 1.02351 21.8097C1.02369 21.8534 1.03972 21.8892 1.05914 21.8892C1.07855 21.8892 1.09444 21.921 1.09444 21.9598C1.09444 21.9986 1.11033 22.0304 1.12974 22.0304C1.14916 22.0304 1.16505 22.0633 1.16505 22.1035C1.16505 22.1438 1.18888 22.2005 1.21801 22.2296C1.24713 22.2588 1.27096 22.3132 1.27096 22.3506C1.27096 22.3881 1.28685 22.4188 1.30627 22.4188C1.32568 22.4188 1.34157 22.4585 1.34157 22.507C1.34157 22.5556 1.35746 22.5953 1.37688 22.5953C1.39629 22.5953 1.41218 22.6257 1.41218 22.663C1.41218 22.7002 1.42411 22.7359 1.43866 22.7424C1.45324 22.7488 1.5122 22.8495 1.56971 22.966C1.62726 23.0825 1.689 23.188 1.70694 23.2005C1.72491 23.213 1.72837 23.2686 1.71467 23.3241C1.70097 23.3796 1.67707 23.5044 1.66157 23.6015C1.56635 24.1979 1.54475 24.3184 1.51541 24.416C1.49748 24.4756 1.48279 24.5987 1.48279 24.6896C1.48279 24.7804 1.4669 24.8548 1.44748 24.8548C1.42757 24.8548 1.41218 24.9548 1.41218 25.0842C1.41218 25.2105 1.39771 25.3137 1.38002 25.3137C1.36233 25.3137 1.34058 25.4051 1.33169 25.5167C1.31047 25.7831 1.24381 26.1877 1.19996 26.3163C1.18076 26.3726 1.16505 26.4869 1.16505 26.5702C1.16505 26.6536 1.14916 26.7315 1.12974 26.7436C1.11033 26.7556 1.09444 26.8677 1.09444 26.9928C1.09444 27.1179 1.07996 27.2202 1.06228 27.2202C1.04459 27.2202 1.02192 27.3115 1.01193 27.4232C0.989797 27.6701 0.938147 27.9948 0.887026 28.2087C0.829903 28.4476 0.83947 28.795 0.908561 28.9895C0.942242 29.0843 0.981959 29.1619 0.996823 29.1619C1.01169 29.1619 1.02383 29.1785 1.02383 29.1987C1.02383 29.2966 1.3988 29.6562 1.50083 29.6562C1.52974 29.6562 1.5534 29.6721 1.5534 29.6915C1.5534 29.7109 1.609 29.7268 1.67696 29.7268C1.74492 29.7268 1.80053 29.7427 1.80053 29.7621C1.80053 29.782 1.89988 29.7974 2.02793 29.7974C2.15301 29.7974 2.26514 29.7815 2.27714 29.7621C2.28914 29.7427 2.39333 29.7268 2.5087 29.7268C2.62408 29.7268 2.71845 29.7122 2.71845 29.6945C2.71845 29.6767 2.81776 29.654 2.9391 29.644C3.06048 29.634 3.24713 29.6108 3.35393 29.5925C3.46072 29.5741 3.67312 29.5401 3.82588 29.5169C3.97868 29.4937 4.14252 29.46 4.19004 29.4419C4.23756 29.4238 4.35485 29.409 4.45066 29.409C4.54648 29.409 4.62489 29.3932 4.62489 29.3737C4.62489 29.3538 4.72491 29.3384 4.85437 29.3384C4.98383 29.3384 5.08385 29.323 5.08385 29.3031C5.08385 29.2837 5.17144 29.2678 5.27852 29.2678C5.38556 29.2678 5.50076 29.2535 5.53448 29.236C5.56819 29.2186 5.78641 29.1774 6.01942 29.1447C6.25243 29.112 6.47064 29.0706 6.50436 29.0529C6.53808 29.0352 6.66122 29.0207 6.77797 29.0207C6.89599 29.0207 6.99029 29.005 6.99029 28.9854C6.99029 28.965 7.1021 28.9501 7.25508 28.9501C7.40805 28.9501 7.51986 28.965 7.51986 28.9854C7.51986 29.0048 7.55958 29.0207 7.60812 29.0207C7.65666 29.0207 7.69638 29.035 7.69638 29.0525C7.69638 29.07 7.7678 29.1137 7.85511 29.1496C7.94242 29.1855 8.01391 29.2268 8.01398 29.2413C8.01405 29.2559 8.0459 29.2678 8.08473 29.2678C8.12357 29.2678 8.15534 29.2837 8.15534 29.3031C8.15534 29.3225 8.19506 29.3384 8.2436 29.3384C8.29214 29.3384 8.33186 29.3543 8.33186 29.3737C8.33186 29.3932 8.35682 29.409 8.38733 29.409C8.41786 29.409 8.46666 29.4329 8.49578 29.462C8.52491 29.4911 8.57843 29.515 8.61472 29.515C8.65105 29.515 8.69056 29.5308 8.70256 29.5503C8.71456 29.5697 8.7552 29.5856 8.7929 29.5856C8.83061 29.5856 8.86143 29.6015 8.86143 29.6209C8.86143 29.6403 8.91703 29.6562 8.985 29.6562C9.05296 29.6562 9.10856 29.6721 9.10856 29.6915C9.10856 29.7109 9.1326 29.7268 9.16201 29.7268C9.19139 29.7268 9.24304 29.7407 9.27675 29.7578C9.44046 29.8406 9.61204 29.9033 9.67463 29.9033C9.7128 29.9033 9.74404 29.9192 9.74404 29.9386C9.74404 29.958 9.7917 29.9739 9.84996 29.9739C9.90821 29.9739 9.95587 29.9898 9.95587 30.0092C9.95587 30.0286 10.0274 30.0445 10.1147 30.0445C10.2021 30.0445 10.2736 30.0586 10.2736 30.0758C10.2736 30.093 10.3173 30.1157 10.3707 30.1263C10.4241 30.1368 10.5631 30.1721 10.6796 30.2048C10.7961 30.2375 10.9511 30.272 11.024 30.2816C11.097 30.2913 11.1654 30.3133 11.1762 30.3307C11.1869 30.3481 11.2742 30.3623 11.3701 30.3623C11.4661 30.3623 11.5446 30.3782 11.5446 30.3976C11.5446 30.4175 11.6446 30.4329 11.7741 30.4329C11.9035 30.4329 12.0035 30.4483 12.0035 30.4682C12.0035 30.4876 12.0711 30.504 12.1536 30.5046C12.2361 30.5052 12.4625 30.5287 12.6567 30.5569C12.8508 30.585 13.1474 30.6083 13.3157 30.6087C13.6521 30.6095 13.7335 30.6275 13.7335 30.7014C13.7335 30.7285 13.7467 30.7506 13.7629 30.7506C13.7791 30.7506 13.838 30.838 13.8939 30.9448C13.9498 31.0516 14.008 31.139 14.0233 31.139C14.0387 31.139 14.0512 31.1628 14.0512 31.1919C14.0512 31.221 14.0671 31.2449 14.0865 31.2449C14.1059 31.2449 14.1218 31.2708 14.1218 31.3025C14.1218 31.3342 14.1507 31.3858 14.1861 31.4173C14.2215 31.4487 14.2805 31.526 14.3173 31.5891C14.3541 31.6522 14.3966 31.7038 14.4119 31.7038C14.4271 31.7038 14.4395 31.7321 14.4395 31.7666C14.4395 31.8012 14.4713 31.8524 14.5102 31.8804C14.549 31.9084 14.5808 31.9443 14.5808 31.9603C14.5808 31.9912 14.6215 32.0448 14.7485 32.1806C14.7922 32.2273 14.8279 32.2749 14.8279 32.2864C14.8279 32.2978 14.8637 32.3461 14.9073 32.3935C15.1076 32.6111 15.1456 32.6559 15.1456 32.6746C15.1456 32.6857 15.1972 32.7474 15.2604 32.8117C15.3993 32.9533 15.534 33.1109 15.534 33.1319C15.534 33.1527 16.2752 33.8927 16.2961 33.8927C16.3116 33.8927 16.3603 33.9363 16.6804 34.2369C16.7476 34.3 16.8122 34.3517 16.8239 34.3517C16.8595 34.3517 16.9462 34.45 16.9462 34.4904C16.9462 34.5112 16.9744 34.5282 17.009 34.5282C17.0435 34.5282 17.0947 34.56 17.1227 34.5988C17.1507 34.6376 17.1867 34.6694 17.2027 34.6694C17.2187 34.6694 17.27 34.7052 17.3168 34.7488C17.4525 34.8758 17.5061 34.9165 17.5371 34.9165C17.553 34.9165 17.5889 34.9483 17.6169 34.9872C17.6449 35.026 17.6842 35.058 17.7042 35.0583C17.7242 35.0586 17.7936 35.1057 17.8585 35.1629C17.9234 35.2201 18.0068 35.2765 18.0438 35.2883C18.0809 35.3 18.1112 35.3245 18.1112 35.3426C18.1112 35.3607 18.1312 35.3755 18.1557 35.3755C18.1802 35.3755 18.243 35.4152 18.2954 35.4638C18.3477 35.5123 18.4151 35.552 18.445 35.552C18.475 35.552 18.4996 35.5679 18.4996 35.5873C18.4996 35.6067 18.5234 35.6226 18.5525 35.6226C18.5816 35.6226 18.6055 35.6385 18.6055 35.6579C18.6055 35.6774 18.6359 35.6932 18.6732 35.6932C18.7104 35.6932 18.7461 35.7064 18.7526 35.7225C18.7701 35.766 19.2013 36.011 19.2605 36.011C19.2886 36.011 19.3116 36.0269 19.3116 36.0463C19.3116 36.0657 19.3433 36.0816 19.3822 36.0816C19.421 36.0816 19.4529 36.0935 19.453 36.1081C19.4533 36.1436 19.6574 36.2581 19.7204 36.2581C19.748 36.2581 19.7705 36.274 19.7705 36.2934C19.7705 36.3128 19.8023 36.3287 19.8411 36.3287C19.88 36.3287 19.9117 36.3446 19.9117 36.364C19.9117 36.3834 19.9515 36.3993 20 36.3993C20.0485 36.3993 20.0883 36.4152 20.0883 36.4346C20.0883 36.4541 20.1105 36.4699 20.1376 36.4699C20.1648 36.4699 20.2561 36.5095 20.3406 36.5578C20.4251 36.6061 20.5221 36.6458 20.556 36.646C20.59 36.6463 20.6178 36.6624 20.6178 36.6818C20.6178 36.7012 20.6575 36.7171 20.7061 36.7171C20.7546 36.7171 20.7944 36.733 20.7944 36.7524C20.7944 36.7718 20.8343 36.7877 20.8831 36.7877C20.9718 36.7877 20.9914 36.7947 21.212 36.9053C21.2767 36.9377 21.3681 36.9642 21.415 36.9642C21.462 36.9642 21.5004 36.9801 21.5004 36.9995C21.5004 37.0189 21.5481 37.0348 21.6064 37.0348C21.6646 37.0348 21.7123 37.0507 21.7123 37.0701C21.7123 37.0895 21.7679 37.1054 21.8358 37.1054C21.9038 37.1054 21.9594 37.1213 21.9594 37.1407C21.9594 37.1601 22.015 37.176 22.083 37.176C22.1509 37.176 22.2065 37.1898 22.2065 37.2066C22.2065 37.2235 22.2899 37.2561 22.3919 37.2791C22.4938 37.3021 22.6487 37.3373 22.7361 37.3572C22.8235 37.3772 22.9705 37.4017 23.0627 37.4117C23.1549 37.4218 23.2304 37.4443 23.2304 37.4619C23.2304 37.4794 23.3177 37.4938 23.4245 37.4938C23.5313 37.4938 23.6187 37.5062 23.6187 37.5214C23.6187 37.5517 24.1069 37.6248 24.6602 37.6774C25.1802 37.7268 26.9057 37.7501 26.9903 37.7088C27.0291 37.6899 27.2118 37.666 27.3963 37.6557C27.5808 37.6454 27.8747 37.6114 28.0494 37.5801C28.2242 37.5487 28.4585 37.5151 28.5702 37.5053C28.6818 37.4955 28.7732 37.473 28.7732 37.4553C28.7732 37.4376 28.8526 37.4232 28.9497 37.4232C29.0468 37.4232 29.1262 37.4089 29.1262 37.3914C29.1262 37.3739 29.1938 37.3523 29.2763 37.3434C29.3588 37.3344 29.5137 37.2998 29.6205 37.2664C29.7273 37.2331 29.8663 37.1974 29.9294 37.187C29.9925 37.1767 30.0441 37.1541 30.0441 37.1369C30.0441 37.1196 30.0997 37.1054 30.1677 37.1054C30.2357 37.1054 30.2913 37.0895 30.2913 37.0701C30.2913 37.0507 30.3469 37.0348 30.4148 37.0348C30.4828 37.0348 30.5384 37.0223 30.5384 37.007C30.5384 36.9917 30.6417 36.948 30.7679 36.9099C30.8941 36.8718 30.9974 36.8287 30.9974 36.8142C30.9974 36.7996 31.0371 36.7877 31.0856 36.7877C31.1342 36.7877 31.1739 36.7718 31.1739 36.7524C31.1739 36.733 31.2215 36.7171 31.2798 36.7171C31.338 36.7171 31.3857 36.7012 31.3857 36.6818C31.3857 36.6624 31.4165 36.6465 31.4542 36.6465C31.4919 36.6465 31.5326 36.6306 31.5446 36.6112C31.5566 36.5917 31.5961 36.5759 31.6324 36.5759C31.6687 36.5759 31.7222 36.552 31.7514 36.5229C31.7805 36.4938 31.8293 36.4699 31.8598 36.4699C31.8903 36.4699 31.9153 36.4541 31.9153 36.4346C31.9153 36.4152 31.955 36.3993 32.0035 36.3993C32.0521 36.3993 32.0918 36.3834 32.0918 36.364C32.0918 36.3446 32.1236 36.3287 32.1624 36.3287C32.2012 36.3287 32.233 36.3128 32.233 36.2934C32.233 36.274 32.2659 36.2581 32.3061 36.2581C32.3464 36.2581 32.4014 36.2383 32.4285 36.214C32.5541 36.1013 32.5879 36.0816 32.6552 36.0816C32.6948 36.0816 32.7273 36.0657 32.7273 36.0463C32.7273 36.0269 32.7988 36.011 32.8861 36.011C32.9735 36.011 33.045 36.0269 33.045 36.0463C33.045 36.0662 33.145 36.0816 33.2745 36.0816C33.404 36.0816 33.504 36.097 33.504 36.1169C33.504 36.1363 33.5636 36.1522 33.6366 36.1522C33.7096 36.1522 33.8247 36.1695 33.8926 36.1906C34.0223 36.2311 34.3718 36.2846 34.7132 36.3162C34.8248 36.3265 34.9162 36.3495 34.9162 36.3672C34.9162 36.3849 35.0194 36.3993 35.1456 36.3993C35.2751 36.3993 35.3751 36.4147 35.3751 36.4346C35.3751 36.4541 35.4522 36.4699 35.5464 36.4699C35.6406 36.4699 35.7637 36.4858 35.82 36.505C35.9433 36.5474 36.309 36.6101 36.5755 36.6347C36.6823 36.6446 36.7847 36.6672 36.8032 36.6849C36.8216 36.7026 36.9368 36.7171 37.0591 36.7171C37.1839 36.7171 37.2816 36.7326 37.2816 36.7524C37.2816 36.7723 37.3816 36.7877 37.511 36.7877C37.6405 36.7877 37.7405 36.8031 37.7405 36.823C37.7405 36.8443 37.8869 36.8583 38.1091 36.8583C38.3168 36.8583 38.4873 36.8429 38.4996 36.823C38.5116 36.8036 38.5601 36.7877 38.6076 36.7877C38.655 36.7877 38.6937 36.7718 38.6937 36.7524C38.6937 36.733 38.7183 36.7171 38.7484 36.7171C38.8195 36.7171 39.1527 36.3838 39.1527 36.3128C39.1527 36.2827 39.1662 36.2581 39.1826 36.2581C39.2315 36.2581 39.3291 35.91 39.33 35.7333C39.3309 35.534 39.228 34.8518 39.1843 34.767C39.1669 34.7333 39.1527 34.6101 39.1527 34.4934C39.1527 34.3754 39.137 34.2811 39.1174 34.2811C39.0975 34.2811 39.0821 34.181 39.0821 34.0516C39.0821 33.9254 39.0677 33.8221 39.0501 33.8221C39.0324 33.8221 39.0104 33.7387 39.0011 33.6368C38.9709 33.3078 38.9032 32.895 38.8686 32.8305C38.8501 32.7959 38.835 32.6871 38.835 32.5888C38.835 32.4904 38.8191 32.4099 38.7996 32.4099C38.7797 32.4099 38.7643 32.3099 38.7643 32.1804C38.7643 32.0542 38.7498 31.951 38.732 31.951C38.7143 31.951 38.6918 31.8517 38.682 31.7303C38.6722 31.609 38.6496 31.4302 38.6317 31.3331C38.6137 31.236 38.5791 31.0295 38.5546 30.8742C38.5301 30.7188 38.4958 30.5642 38.4784 30.5305C38.4399 30.4562 38.4363 30.2917 38.4731 30.2915C38.4876 30.2914 38.5289 30.2199 38.5648 30.1326C38.6007 30.0453 38.6444 29.9739 38.6619 29.9739C38.6794 29.9739 38.6937 29.9342 38.6937 29.8857C38.6937 29.8371 38.7096 29.7974 38.729 29.7974C38.7485 29.7974 38.7643 29.7656 38.7643 29.7268C38.7643 29.6879 38.7802 29.6562 38.7996 29.6562C38.8191 29.6562 38.835 29.634 38.835 29.6068C38.835 29.5797 38.8745 29.4883 38.9228 29.4038C38.9711 29.3193 39.0108 29.2224 39.0111 29.1884C39.0113 29.1544 39.0274 29.1266 39.0468 29.1266C39.0662 29.1266 39.0821 29.0869 39.0821 29.0383C39.0821 28.9898 39.098 28.9501 39.1174 28.9501C39.1368 28.9501 39.1527 28.9104 39.1527 28.8618C39.1527 28.8133 39.1652 28.7736 39.1805 28.7736C39.1958 28.7736 39.2395 28.6703 39.2776 28.5441C39.3157 28.4179 39.3588 28.3146 39.3733 28.3146C39.3879 28.3146 39.3998 28.2669 39.3998 28.2087C39.3998 28.1504 39.4157 28.1028 39.4351 28.1028C39.4545 28.1028 39.4704 28.0472 39.4704 27.9792C39.4704 27.9112 39.4863 27.8556 39.5057 27.8556C39.5252 27.8556 39.541 27.8244 39.541 27.7862C39.541 27.7481 39.563 27.6646 39.5898 27.6009C39.6704 27.409 39.7176 27.2383 39.7176 27.1382C39.7176 27.0862 39.7335 27.0436 39.7529 27.0436C39.7723 27.0436 39.7882 26.9721 39.7882 26.8848C39.7882 26.7974 39.8041 26.7259 39.8235 26.7259C39.8429 26.7259 39.8588 26.6465 39.8588 26.5494C39.8588 26.4523 39.8712 26.3729 39.8864 26.3729C39.9015 26.3729 39.9422 26.1782 39.9768 25.9404C40.0113 25.7025 40.0545 25.4591 40.0728 25.3995C40.091 25.3398 40.1059 25.1611 40.1059 25.0023C40.1059 24.8333 40.1206 24.7135 40.1412 24.7135C40.164 24.7135 40.1765 24.3075 40.1765 23.5661C40.1765 22.8792 40.1633 22.4188 40.1435 22.4188C40.1254 22.4188 40.1029 22.2638 40.0936 22.0745C40.0843 21.8852 40.0616 21.635 40.0432 21.5185C39.9553 20.9606 39.9194 20.7722 39.8903 20.7158C39.873 20.6821 39.8588 20.5907 39.8588 20.5128C39.8588 20.4348 39.8429 20.3711 39.8235 20.3711C39.8041 20.3711 39.7882 20.3073 39.7882 20.2294C39.7882 20.1515 39.7742 20.0601 39.7572 20.0264C39.714 19.9408 39.6556 19.7424 39.6275 19.5856C39.6145 19.5128 39.5897 19.4532 39.5724 19.4532C39.5552 19.4532 39.541 19.3976 39.541 19.3296C39.541 19.2616 39.5252 19.206 39.5057 19.206C39.4863 19.206 39.4704 19.1584 39.4704 19.1001C39.4704 19.0419 39.4545 18.9942 39.4351 18.9942C39.4157 18.9942 39.3998 18.9629 39.3998 18.9246C39.3998 18.8863 39.3601 18.7652 39.3116 18.6554C39.263 18.5457 39.2233 18.434 39.2233 18.4073C39.2233 18.3806 39.2074 18.3587 39.188 18.3587C39.1686 18.3587 39.1527 18.3111 39.1527 18.2528C39.1527 18.1946 39.1368 18.1469 39.1174 18.1469C39.098 18.1469 39.0821 18.1072 39.0821 18.0586C39.0821 18.0101 39.0662 17.9704 39.0468 17.9704C39.0274 17.9704 39.0115 17.9396 39.0115 17.9019C39.0115 17.8642 38.9956 17.8235 38.9762 17.8115C38.9568 17.7995 38.9409 17.7608 38.9409 17.7255C38.9409 17.6902 38.917 17.6415 38.8879 17.6173C38.8588 17.5932 38.835 17.5436 38.835 17.5071C38.835 17.4706 38.8191 17.4408 38.7996 17.4408C38.7802 17.4408 38.7643 17.4011 38.7643 17.3526C38.7643 17.304 38.7517 17.2643 38.7363 17.2643C38.7208 17.2643 38.6787 17.1928 38.6427 17.1054C38.6067 17.018 38.5666 16.9466 38.5538 16.9466C38.5409 16.9466 38.5086 16.8909 38.4819 16.823C38.4553 16.755 38.4205 16.6994 38.4047 16.6994C38.3889 16.6994 38.376 16.6676 38.376 16.6288C38.376 16.59 38.3618 16.5582 38.3445 16.5582C38.3272 16.5582 38.3031 16.5185 38.2909 16.4699C38.2787 16.4214 38.2551 16.3817 38.2384 16.3817C38.2217 16.3817 38.1883 16.334 38.1642 16.2758C38.1401 16.2175 38.1063 16.1699 38.0893 16.1699C38.0722 16.1699 38.0583 16.136 38.0583 16.0945C38.0583 16.0531 38.0293 15.9936 37.994 15.9622C37.9586 15.9308 37.8996 15.8535 37.8628 15.7903C37.826 15.7272 37.7834 15.6756 37.7682 15.6756C37.753 15.6756 37.7405 15.6438 37.7405 15.605C37.7405 15.5661 37.728 15.5344 37.7128 15.5344C37.6976 15.5344 37.6553 15.4839 37.6189 15.4222C37.5538 15.3121 37.4836 15.219 37.3963 15.127C37.372 15.1014 37.3522 15.0634 37.3522 15.0426C37.3522 15.0218 37.3363 15.0048 37.3169 15.0048C37.2974 15.0048 37.2816 14.989 37.2816 14.9698C37.2816 14.9379 37.1923 14.8204 37.0786 14.7025C37.0543 14.6774 37.0344 14.648 37.0344 14.6372C37.0344 14.6265 36.9629 14.5431 36.8756 14.4519C36.7882 14.3607 36.7167 14.272 36.7167 14.2548C36.7167 14.2119 35.3429 12.8512 35.2995 12.8512C35.2803 12.8512 35.1786 12.7639 35.0735 12.6571C34.9684 12.5503 34.8655 12.4629 34.8447 12.4629C34.824 12.4629 34.7709 12.4272 34.7267 12.3834C34.6826 12.3398 34.6021 12.2722 34.5479 12.2334C34.4937 12.1946 34.4284 12.143 34.4029 12.1187C34.3773 12.0944 34.3466 12.0745 34.3347 12.0745C34.3228 12.0745 34.2938 12.0589 34.2704 12.0398C34.0677 11.8745 34.0003 11.8274 33.9667 11.8274C33.9452 11.8274 33.9276 11.8115 33.9276 11.7921C33.9276 11.7727 33.9038 11.7568 33.8747 11.7568C33.8455 11.7568 33.8217 11.7409 33.8217 11.7215C33.8217 11.7021 33.7979 11.6862 33.7688 11.6862C33.7396 11.6862 33.7158 11.6728 33.7158 11.6566C33.7158 11.6402 33.6524 11.5966 33.575 11.5595C33.4975 11.5224 33.434 11.4801 33.4338 11.4655C33.4335 11.4509 33.4095 11.439 33.3804 11.439C33.3513 11.439 33.3274 11.4232 33.3274 11.4037C33.3274 11.3843 33.2957 11.3684 33.2568 11.3684C33.218 11.3684 33.1862 11.3565 33.1861 11.342C33.1861 11.3274 33.0987 11.2684 32.992 11.2108C32.8852 11.1532 32.7979 11.0937 32.7979 11.0784C32.7979 11.0632 32.7661 11.0507 32.7273 11.0507C32.6884 11.0507 32.6567 11.0348 32.6567 11.0154C32.6567 10.996 32.6169 10.9801 32.5684 10.9801C32.5199 10.9801 32.4801 10.9658 32.4801 10.9483C32.4801 10.9308 32.4087 10.8871 32.3214 10.8512C32.2341 10.8153 32.1626 10.774 32.1625 10.7594C32.1625 10.7449 32.1306 10.733 32.0918 10.733C32.053 10.733 32.0212 10.7171 32.0212 10.6977C32.0212 10.6782 31.9815 10.6624 31.9329 10.6624C31.8844 10.6624 31.8447 10.6465 31.8447 10.627C31.8447 10.6076 31.8129 10.5917 31.7741 10.5917C31.7352 10.5917 31.7034 10.5766 31.7034 10.558C31.7034 10.5395 31.6478 10.5139 31.5799 10.5011C31.5119 10.4884 31.4563 10.4638 31.4563 10.4466C31.4563 10.4293 31.4245 10.4152 31.3857 10.4152C31.3469 10.4152 31.3151 10.3993 31.3151 10.3799C31.3151 10.3605 31.2595 10.3446 31.1915 10.3446C31.1236 10.3446 31.068 10.3287 31.068 10.3093C31.068 10.2899 31.0439 10.274 31.0145 10.274C30.9851 10.274 30.9335 10.2601 30.8998 10.243C30.7361 10.1602 30.5645 10.0975 30.5019 10.0975C30.4637 10.0975 30.4325 10.0816 30.4325 10.0622C30.4325 10.0428 30.3848 10.0269 30.3266 10.0269C30.2683 10.0269 30.2207 10.011 30.2207 9.99156C30.2207 9.97215 30.165 9.95626 30.0971 9.95626C30.0291 9.95626 29.9735 9.94203 29.9735 9.92466C29.9735 9.90729 29.914 9.88491 29.8411 9.87492C29.7683 9.86493 29.6134 9.82973 29.4969 9.79668C29.3804 9.76364 29.2215 9.72879 29.1439 9.71926C29.0662 9.70969 28.9875 9.68763 28.9691 9.67022C28.9506 9.65278 28.8673 9.63852 28.7838 9.63852C28.7003 9.63852 28.632 9.62263 28.632 9.60322C28.632 9.58359 28.5377 9.56791 28.4196 9.56791C28.3029 9.56791 28.1797 9.55365 28.146 9.53621C28.0579 9.49063 27.1448 9.39008 26.8255 9.39079C26.5244 9.39146 26.4431 9.37201 26.4431 9.29935C26.4431 9.27231 26.4298 9.25017 26.4136 9.25017C26.3975 9.25017 26.3385 9.16279 26.2826 9.056C26.2268 8.9492 26.1685 8.86182 26.1532 8.86182C26.1379 8.86182 26.1253 8.83799 26.1253 8.80886C26.1253 8.77974 26.1094 8.75591 26.09 8.75591C26.0706 8.75591 26.0547 8.72996 26.0547 8.69825C26.0547 8.66655 26.0258 8.61494 25.9904 8.58352C25.9551 8.55213 25.896 8.47478 25.8592 8.41169C25.8225 8.34856 25.7799 8.29695 25.7647 8.29695C25.7494 8.29695 25.737 8.26867 25.737 8.23414C25.737 8.19958 25.7052 8.14842 25.6664 8.12043C25.6275 8.09243 25.5958 8.05649 25.5958 8.04053C25.5958 8.00953 25.555 7.95601 25.4281 7.82023C25.3844 7.77352 25.3486 7.7259 25.3486 7.71442C25.3486 7.70295 25.3129 7.65472 25.2692 7.60731C25.0689 7.38973 25.0309 7.34493 25.0309 7.32615C25.0309 7.3151 24.9793 7.25342 24.9162 7.18909C24.7783 7.04855 24.6425 6.88989 24.6425 6.8693C24.6425 6.84805 23.8316 6.03746 23.8103 6.03746C23.7923 6.03746 23.7117 5.96728 23.4957 5.76385C23.4287 5.70076 23.3575 5.64911 23.3374 5.64911C23.3174 5.64911 23.301 5.63209 23.301 5.6113C23.301 5.5624 23.2112 5.47259 23.1623 5.47259C23.1415 5.47259 23.1244 5.4567 23.1244 5.43728C23.1244 5.41787 23.1006 5.40198 23.0715 5.40198C23.0424 5.40198 23.0185 5.38609 23.0185 5.36667C23.0185 5.34726 23.0019 5.33137 22.9816 5.33137C22.9613 5.33137 22.9065 5.29564 22.8598 5.25194C22.724 5.12498 22.6705 5.08424 22.6395 5.08424C22.6235 5.08424 22.5876 5.05246 22.5596 5.01363C22.5316 4.97479 22.4923 4.94277 22.4723 4.94246C22.4524 4.94214 22.3829 4.89508 22.318 4.83788C22.2531 4.78069 22.1697 4.72427 22.1327 4.71252C22.0956 4.70076 22.0653 4.67633 22.0653 4.65822C22.0653 4.64011 22.0488 4.62528 22.0285 4.62528C21.9939 4.62528 21.954 4.59767 21.8371 4.49289C21.8101 4.46863 21.763 4.44876 21.7324 4.44876C21.7019 4.44876 21.677 4.43287 21.677 4.41345C21.677 4.39404 21.6531 4.37815 21.624 4.37815C21.5949 4.37815 21.5711 4.36226 21.5711 4.34284C21.5711 4.32343 21.5393 4.30754 21.5004 4.30754C21.4616 4.30754 21.4298 4.29525 21.4298 4.28025C21.4298 4.26524 21.3742 4.22306 21.3063 4.18645C21.2383 4.14983 21.1827 4.10652 21.1827 4.09017C21.1827 4.07379 21.1519 4.06041 21.1142 4.06041C21.0765 4.06041 21.0358 4.04452 21.0238 4.0251C21.0118 4.00569 20.9712 3.9898 20.9335 3.9898C20.8958 3.9898 20.865 3.97391 20.865 3.95449C20.865 3.93508 20.8332 3.91919 20.7944 3.91919C20.7555 3.91919 20.7236 3.90726 20.7235 3.89271C20.7232 3.8572 20.5191 3.74267 20.4561 3.74267C20.4286 3.74267 20.406 3.72678 20.406 3.70736C20.406 3.68795 20.3742 3.67206 20.3354 3.67206C20.2966 3.67206 20.2648 3.65617 20.2648 3.63675C20.2648 3.61734 20.2251 3.60145 20.1765 3.60145C20.128 3.60145 20.0883 3.58556 20.0883 3.56615C20.0883 3.54673 20.0661 3.53084 20.0389 3.53084C20.0118 3.53084 19.9204 3.4913 19.8359 3.443C19.7514 3.39471 19.6544 3.35499 19.6205 3.35474C19.5865 3.35449 19.5587 3.33843 19.5587 3.31901C19.5587 3.2996 19.519 3.28371 19.4704 3.28371C19.4219 3.28371 19.3822 3.26782 19.3822 3.2484C19.3822 3.22899 19.3422 3.2131 19.2934 3.2131C19.2446 3.2131 19.1771 3.19954 19.1434 3.18299C19.0694 3.14666 18.8716 3.06062 18.7362 3.0059C18.6819 2.98394 18.5985 2.96597 18.5509 2.96597C18.5032 2.96597 18.4643 2.95008 18.4643 2.93066C18.4643 2.91125 18.4086 2.89536 18.3407 2.89536C18.2727 2.89536 18.2171 2.87947 18.2171 2.86006C18.2171 2.84064 18.1615 2.82475 18.0936 2.82475C18.0256 2.82475 17.97 2.81098 17.97 2.79414C17.97 2.76314 17.7098 2.69345 17.4669 2.65938C17.3941 2.64918 17.3345 2.62659 17.3345 2.60922C17.3345 2.59185 17.2471 2.57762 17.1403 2.57762C17.0335 2.57762 16.9462 2.56173 16.9462 2.54231C16.9462 2.5229 16.8588 2.50701 16.752 2.50701C16.6452 2.50701 16.5578 2.49458 16.5578 2.47937C16.5578 2.44911 16.0699 2.37603 15.5163 2.32339C15.0552 2.27954 13.2611 2.24971 13.2256 2.2853ZM13.4863 4.65843C13.4863 4.67668 13.3076 4.69921 13.0891 4.70846C12.8707 4.71774 12.5887 4.74179 12.4625 4.76187C11.9845 4.83803 11.7721 4.88032 11.7128 4.91114C11.679 4.92869 11.5877 4.94302 11.5098 4.94302C11.4318 4.94302 11.368 4.95891 11.368 4.97833C11.368 4.99774 11.3045 5.01363 11.2268 5.01363C11.1492 5.01363 11.0856 5.02952 11.0856 5.04893C11.0856 5.06835 11.0377 5.08424 10.9792 5.08424C10.9207 5.08424 10.8452 5.09818 10.8115 5.11524C10.6494 5.19721 10.4765 5.26076 10.4157 5.26076C10.3787 5.26076 10.3386 5.27665 10.3266 5.29607C10.3146 5.31548 10.258 5.33137 10.2009 5.33137C10.1438 5.33137 10.0971 5.34726 10.0971 5.36667C10.0971 5.38609 10.0494 5.40198 9.99117 5.40198C9.93292 5.40198 9.88526 5.41787 9.88526 5.43728C9.88526 5.4567 9.85744 5.47308 9.82348 5.47372C9.78951 5.47432 9.73084 5.49815 9.69317 5.52667C9.65546 5.55517 9.5959 5.5785 9.56078 5.5785C9.52565 5.5785 9.49691 5.59439 9.49691 5.61381C9.49691 5.63322 9.46514 5.64911 9.4263 5.64911C9.38747 5.64911 9.35569 5.665 9.35569 5.68442C9.35569 5.70383 9.31598 5.71972 9.26743 5.71972C9.21889 5.71972 9.17917 5.73561 9.17917 5.75502C9.17917 5.77444 9.1559 5.79033 9.12745 5.79033C9.07598 5.79033 8.76819 5.94757 8.70432 6.00653C8.68586 6.02355 8.64219 6.03746 8.60724 6.03746C8.57229 6.03746 8.54369 6.05335 8.54369 6.07276C8.54369 6.09218 8.51192 6.10807 8.47308 6.10807C8.43425 6.10807 8.40247 6.12396 8.40247 6.14337C8.40247 6.16279 8.38729 6.17868 8.36872 6.17868C8.33628 6.17868 8.11262 6.31594 8.02443 6.39001C8.00099 6.40971 7.95728 6.42581 7.92734 6.42581C7.89741 6.42581 7.8729 6.4417 7.8729 6.46111C7.8729 6.48053 7.85589 6.49642 7.83509 6.49642C7.81426 6.49642 7.77511 6.5163 7.74803 6.54055C7.63121 6.64533 7.59128 6.67294 7.55665 6.67294C7.53642 6.67294 7.51986 6.68883 7.51986 6.70825C7.51986 6.72766 7.49589 6.74355 7.46658 6.74355C7.43728 6.74355 7.36342 6.79121 7.30249 6.84946C7.24152 6.90772 7.17885 6.95538 7.16318 6.95538C7.14754 6.95538 7.095 6.9951 7.04646 7.04364C6.99792 7.09218 6.94966 7.1319 6.93921 7.1319C6.91763 7.1319 6.7725 7.25204 6.6513 7.37021C6.6065 7.41391 6.5606 7.44964 6.54934 7.44964C6.52861 7.44964 6.45398 7.51397 6.23181 7.72325C6.16484 7.78634 6.09737 7.83799 6.08194 7.83799C6.06648 7.83799 6.02323 7.87873 5.98588 7.92848C5.87506 8.07605 5.80092 8.15573 5.77444 8.15573C5.74418 8.15573 5.64872 8.24833 5.64872 8.27771C5.64872 8.28932 5.58118 8.3677 5.49868 8.4519C5.41613 8.5361 5.31785 8.64791 5.28021 8.70034C5.16501 8.8609 5.09507 8.93243 5.05324 8.93243C5.03124 8.93243 5.01324 8.95626 5.01324 8.98539C5.01324 9.01451 4.99735 9.03834 4.97793 9.03834C4.95852 9.03834 4.94263 9.06217 4.94263 9.0913C4.94263 9.12043 4.92674 9.14426 4.90733 9.14426C4.88791 9.14426 4.87202 9.16085 4.87202 9.18115C4.87202 9.20145 4.83626 9.25631 4.79259 9.30302C4.66563 9.4388 4.62489 9.49232 4.62489 9.52332C4.62489 9.53928 4.59312 9.57522 4.55428 9.60322C4.51545 9.63121 4.48367 9.68237 4.48367 9.71693C4.48367 9.75146 4.47029 9.77974 4.45391 9.77974C4.43756 9.77974 4.39425 9.83534 4.35763 9.9033C4.32102 9.97126 4.27884 10.0269 4.26383 10.0269C4.24883 10.0269 4.23654 10.0507 4.23654 10.0798C4.23654 10.109 4.22065 10.1328 4.20124 10.1328C4.18182 10.1328 4.16593 10.1646 4.16593 10.2034C4.16593 10.2422 4.15365 10.274 4.13864 10.274C4.12364 10.274 4.08145 10.3296 4.04484 10.3976C4.00823 10.4655 3.96491 10.5211 3.94856 10.5211C3.93218 10.5211 3.9188 10.5529 3.9188 10.5917C3.9188 10.6306 3.90291 10.6624 3.8835 10.6624C3.86408 10.6624 3.84819 10.6941 3.84819 10.733C3.84819 10.7718 3.83626 10.8036 3.82171 10.8037C3.80717 10.8038 3.76586 10.8753 3.72996 10.9626C3.69405 11.0499 3.65034 11.1213 3.63287 11.1213C3.61536 11.1213 3.60106 11.1531 3.60106 11.1919C3.60106 11.2308 3.58517 11.2625 3.56575 11.2625C3.54634 11.2625 3.53045 11.3022 3.53045 11.3508C3.53045 11.3993 3.51456 11.439 3.49515 11.439C3.47573 11.439 3.45984 11.4708 3.45984 11.5097C3.45984 11.5485 3.44395 11.5803 3.42454 11.5803C3.40512 11.5803 3.38923 11.62 3.38923 11.6685C3.38923 11.7171 3.37642 11.7568 3.36071 11.7568C3.32508 11.7568 3.21271 12.0071 3.21271 12.0864C3.21271 12.1187 3.19682 12.1451 3.17741 12.1451C3.15799 12.1451 3.1421 12.1849 3.1421 12.2334C3.1421 12.2819 3.12621 12.3217 3.1068 12.3217C3.08738 12.3217 3.07149 12.3616 3.07149 12.4104C3.07149 12.4592 3.05755 12.5267 3.04049 12.5605C2.95771 12.7242 2.89497 12.8957 2.89497 12.9583C2.89497 12.9965 2.87908 13.0278 2.85966 13.0278C2.84025 13.0278 2.82436 13.0992 2.82436 13.1866C2.82436 13.274 2.8102 13.3455 2.7929 13.3455C2.77564 13.3455 2.75269 13.3971 2.74192 13.4602C2.73116 13.5233 2.70602 13.6465 2.686 13.7338C2.56646 14.2564 2.53165 14.4473 2.5171 14.6606C2.50814 14.7916 2.48727 14.8989 2.47068 14.8989C2.42694 14.8989 2.39689 15.5389 2.39689 16.4699C2.39689 17.4215 2.42715 18.041 2.47357 18.041C2.49176 18.041 2.50662 18.1433 2.50662 18.2684C2.50662 18.3935 2.52251 18.5056 2.54192 18.5176C2.56134 18.5296 2.57793 18.5981 2.57878 18.6697C2.57963 18.7414 2.60321 18.8636 2.63121 18.9413C2.65917 19.0189 2.68233 19.1252 2.68261 19.1775C2.6829 19.2297 2.69903 19.2823 2.71845 19.2943C2.73786 19.3063 2.75375 19.3787 2.75375 19.4553C2.75375 19.5318 2.76964 19.5944 2.78906 19.5944C2.80847 19.5944 2.82436 19.65 2.82436 19.718C2.82436 19.7859 2.84025 19.8415 2.85966 19.8415C2.87908 19.8415 2.89497 19.8971 2.89497 19.9651C2.89497 20.033 2.9069 20.0887 2.92145 20.0887C2.93599 20.0887 2.9791 20.1919 3.01719 20.3181C3.05529 20.4443 3.09899 20.5476 3.11428 20.5476C3.12957 20.5476 3.1421 20.6032 3.1421 20.6712C3.1421 20.7391 3.15799 20.7947 3.17741 20.7947C3.19682 20.7947 3.21271 20.8265 3.21271 20.8654C3.21271 20.9042 3.22683 20.936 3.2441 20.936C3.26132 20.936 3.2859 20.9916 3.29864 21.0595C3.31139 21.1275 3.33698 21.1831 3.35552 21.1831C3.37405 21.1831 3.38923 21.2149 3.38923 21.2537C3.38923 21.2925 3.40512 21.3243 3.42454 21.3243C3.44395 21.3243 3.45984 21.364 3.45984 21.4126C3.45984 21.4611 3.47573 21.5008 3.49515 21.5008C3.51456 21.5008 3.53045 21.5326 3.53045 21.5714C3.53045 21.6103 3.54634 21.6421 3.56575 21.6421C3.58517 21.6421 3.60106 21.6646 3.60106 21.6921C3.60106 21.7551 3.71559 21.9593 3.7511 21.9596C3.76565 21.9597 3.77758 21.9906 3.77758 22.0283C3.77758 22.066 3.79347 22.1067 3.81289 22.1187C3.8323 22.1307 3.84819 22.1713 3.84819 22.209C3.84819 22.2467 3.86012 22.2776 3.87467 22.2776C3.90966 22.2777 4.08166 22.6195 4.11449 22.7541C4.15075 22.9028 4.1468 23.1761 4.10475 23.4249C4.08508 23.5414 4.04939 23.7559 4.02545 23.9015C4.00152 24.0472 3.96773 24.1939 3.95036 24.2276C3.93299 24.2613 3.9188 24.3845 3.9188 24.5012C3.9188 24.618 3.90432 24.7135 3.88664 24.7135C3.86895 24.7135 3.84586 24.8049 3.83534 24.9165C3.81031 25.1819 3.76095 25.5073 3.68939 25.8786C3.65758 26.0436 3.6233 26.27 3.61317 26.3817C3.60307 26.4933 3.5803 26.5847 3.56261 26.5847C3.54493 26.5847 3.53045 26.6879 3.53045 26.8142C3.53045 26.9436 3.51506 27.0436 3.49515 27.0436C3.47573 27.0436 3.45984 27.0675 3.45984 27.0966C3.45984 27.1601 3.65126 27.169 3.80018 27.1124C3.91096 27.0703 4.29596 27.008 4.59841 26.9833C4.71004 26.9742 4.80141 26.9523 4.80141 26.9346C4.80141 26.9169 4.90468 26.9024 5.03089 26.9024C5.16035 26.9024 5.26037 26.887 5.26037 26.8671C5.26037 26.8477 5.33472 26.8318 5.42556 26.8318C5.5164 26.8318 5.63954 26.817 5.69917 26.7989C5.87417 26.7459 6.5779 26.6306 6.92851 26.5975C7.04018 26.587 7.13151 26.5639 7.13151 26.5462C7.13151 26.5285 7.32215 26.5141 7.55516 26.5141C7.81405 26.5141 7.97882 26.5278 7.97882 26.5494C7.97882 26.5688 8.01853 26.5847 8.06708 26.5847C8.11562 26.5847 8.15534 26.6006 8.15534 26.62C8.15534 26.6394 8.1779 26.6553 8.20544 26.6553C8.26842 26.6553 8.47255 26.7698 8.47287 26.8053C8.47297 26.8199 8.49691 26.8318 8.52604 26.8318C8.55516 26.8318 8.57899 26.8477 8.57899 26.8671C8.57899 26.8865 8.61077 26.9024 8.6496 26.9024C8.68844 26.9024 8.72021 26.9183 8.72021 26.9377C8.72021 26.9571 8.75199 26.973 8.79082 26.973C8.82966 26.973 8.86143 26.9889 8.86143 27.0083C8.86143 27.0278 8.88399 27.0436 8.91153 27.0436C8.97451 27.0436 9.17864 27.1582 9.17896 27.1937C9.17906 27.2083 9.22683 27.2202 9.28508 27.2202C9.34334 27.2202 9.391 27.236 9.391 27.2555C9.391 27.2749 9.43072 27.2908 9.47926 27.2908C9.5278 27.2908 9.56752 27.3067 9.56752 27.3261C9.56752 27.3455 9.59008 27.3614 9.61762 27.3614C9.64515 27.3614 9.72064 27.3879 9.78531 27.4203C10.006 27.5309 10.0256 27.5379 10.1142 27.5379C10.1631 27.5379 10.203 27.5538 10.203 27.5732C10.203 27.5926 10.235 27.6085 10.2741 27.6085C10.3132 27.6085 10.3728 27.6228 10.4065 27.6404C10.4402 27.6579 10.5393 27.6912 10.6267 27.7144C10.714 27.7376 10.8377 27.7788 10.9015 27.8061C10.9652 27.8333 11.0645 27.8556 11.1221 27.8556C11.1797 27.8556 11.2268 27.8715 11.2268 27.8909C11.2268 27.9104 11.2904 27.9263 11.368 27.9263C11.4457 27.9263 11.5093 27.9421 11.5093 27.9616C11.5093 27.981 11.5798 27.9969 11.6661 27.9969C11.7523 27.9969 11.8327 28.0127 11.8447 28.0322C11.8567 28.0516 11.936 28.0675 12.021 28.0675C12.1059 28.0675 12.2172 28.0833 12.2682 28.1027C12.3192 28.1221 12.4751 28.1472 12.6147 28.1585C12.7543 28.1697 12.9003 28.194 12.9391 28.2125C12.9814 28.2326 13.4918 28.2405 14.2101 28.2322C15.3048 28.2195 15.8163 28.1877 16.0335 28.1188C16.1116 28.094 16.3874 28.0479 16.6902 28.009C16.7727 27.9984 16.8402 27.9755 16.8402 27.958C16.8402 27.9406 16.9117 27.9263 16.9991 27.9263C17.0865 27.9263 17.158 27.9104 17.158 27.8909C17.158 27.8715 17.2126 27.8556 17.2795 27.8556C17.3463 27.8556 17.4099 27.8411 17.4209 27.8234C17.4318 27.8057 17.5042 27.7805 17.5816 27.7674C17.6591 27.7543 17.7314 27.7291 17.7424 27.7114C17.7534 27.6936 17.809 27.6791 17.8662 27.6791C17.9233 27.6791 17.97 27.6632 17.97 27.6438C17.97 27.6244 18.0177 27.6085 18.0759 27.6085C18.1342 27.6085 18.1818 27.5926 18.1818 27.5732C18.1818 27.5538 18.2215 27.5379 18.2701 27.5379C18.3186 27.5379 18.3583 27.5238 18.3583 27.5065C18.3583 27.4893 18.4139 27.4647 18.4819 27.452C18.5499 27.4392 18.6055 27.4136 18.6055 27.3951C18.6055 27.3766 18.6442 27.3614 18.6916 27.3614C18.7391 27.3614 18.7876 27.3455 18.7996 27.3261C18.8117 27.3067 18.8523 27.2908 18.89 27.2908C18.9277 27.2908 18.9585 27.2749 18.9585 27.2555C18.9585 27.236 18.9969 27.2202 19.0438 27.2202C19.0908 27.2202 19.1344 27.2083 19.1409 27.1937C19.1566 27.1584 19.5303 26.973 19.5857 26.973C19.6097 26.973 19.6293 26.9571 19.6293 26.9377C19.6293 26.9183 19.6611 26.9024 19.6999 26.9024C19.7387 26.9024 19.7705 26.8865 19.7705 26.8671C19.7705 26.8477 19.7861 26.8318 19.8052 26.8318C19.8242 26.8318 19.9267 26.7762 20.0329 26.7082C20.1392 26.6403 20.2428 26.5847 20.2631 26.5847C20.2834 26.5847 20.3001 26.5688 20.3001 26.5494C20.3001 26.53 20.3239 26.5141 20.353 26.5141C20.3822 26.5141 20.406 26.4982 20.406 26.4788C20.406 26.4594 20.431 26.4435 20.4615 26.4435C20.492 26.4435 20.5391 26.4236 20.5662 26.3993C20.683 26.2945 20.7229 26.2669 20.7576 26.2669C20.7778 26.2669 20.7944 26.2511 20.7944 26.2316C20.7944 26.2122 20.8182 26.1963 20.8473 26.1963C20.8764 26.1963 20.9003 26.1804 20.9003 26.161C20.9003 26.1416 20.9241 26.1257 20.9532 26.1257C20.9823 26.1257 21.0062 26.1098 21.0062 26.0904C21.0062 26.071 21.0232 26.0551 21.044 26.0551C21.0648 26.0551 21.104 26.0353 21.1311 26.011C21.2366 25.9163 21.2865 25.8786 21.3059 25.8786C21.3171 25.8786 21.3805 25.827 21.4467 25.7639C21.6058 25.6123 21.6692 25.5609 21.6966 25.5609C21.7091 25.5609 21.7614 25.5165 21.8129 25.4623C21.8643 25.4081 21.9691 25.3167 22.0457 25.2593C22.2032 25.1412 22.9832 24.366 22.9832 24.3276C22.9832 24.3138 23.0547 24.2279 23.1421 24.1367C23.2295 24.0455 23.301 23.9634 23.301 23.9541C23.301 23.9345 23.4258 23.7848 23.5393 23.6685C23.5829 23.6237 23.6187 23.5704 23.6187 23.5501C23.6187 23.5298 23.6346 23.5132 23.654 23.5132C23.6734 23.5132 23.6893 23.4887 23.6893 23.4586C23.6893 23.4286 23.7251 23.3658 23.7688 23.3191C23.9012 23.1775 23.9365 23.1295 23.9365 23.091C23.9365 23.0708 23.9523 23.0542 23.9718 23.0542C23.9912 23.0542 24.0071 23.0225 24.0071 22.9836C24.0071 22.9448 24.0195 22.913 24.0347 22.913C24.05 22.913 24.0925 22.8614 24.1293 22.7983C24.1661 22.7351 24.2251 22.6578 24.2605 22.6264C24.2959 22.595 24.3248 22.5355 24.3248 22.4941C24.3248 22.4526 24.3407 22.4188 24.3601 22.4188C24.3795 22.4188 24.3954 22.3942 24.3954 22.3643C24.3954 22.3344 24.4286 22.2748 24.4692 22.2319C24.5098 22.1891 24.5691 22.0944 24.6011 22.0216C24.633 21.9488 24.6714 21.8892 24.6862 21.8892C24.701 21.8892 24.7132 21.8495 24.7132 21.8009C24.7132 21.7524 24.729 21.7127 24.7485 21.7127C24.7679 21.7127 24.7838 21.6877 24.7838 21.6572C24.7838 21.6267 24.8056 21.5799 24.8322 21.5532C24.8589 21.5266 24.9021 21.4324 24.9282 21.3439C24.9543 21.2555 24.9881 21.1831 25.0033 21.1831C25.0185 21.1831 25.0309 21.1434 25.0309 21.0948C25.0309 21.0463 25.0468 21.0066 25.0662 21.0066C25.0856 21.0066 25.1015 20.9748 25.1015 20.936C25.1015 20.8971 25.1156 20.8654 25.1329 20.8654C25.1501 20.8654 25.1747 20.8097 25.1874 20.7418C25.2002 20.6738 25.2258 20.6182 25.2443 20.6182C25.2628 20.6182 25.278 20.5706 25.278 20.5123C25.278 20.4541 25.2939 20.4064 25.3133 20.4064C25.3327 20.4064 25.3486 20.3508 25.3486 20.2828C25.3486 20.2149 25.3645 20.1593 25.3839 20.1593C25.4034 20.1593 25.4192 20.1273 25.4192 20.0882C25.4192 20.0491 25.4332 19.9895 25.4503 19.9558C25.5068 19.8441 25.5961 19.5427 25.5959 19.4641C25.5958 19.4215 25.6117 19.3769 25.6311 19.3649C25.6505 19.3529 25.6664 19.2805 25.6664 19.204C25.6664 19.1274 25.6823 19.0648 25.7017 19.0648C25.7211 19.0648 25.737 18.9774 25.737 18.8706C25.737 18.7639 25.7529 18.6765 25.7723 18.6765C25.7917 18.6765 25.8076 18.6101 25.8076 18.5289C25.8076 18.4478 25.8224 18.3326 25.8405 18.273C25.8586 18.2133 25.8987 17.958 25.9296 17.7056C25.994 17.179 26.0063 15.6425 25.9482 15.3684C25.9109 15.1917 25.8518 14.744 25.8199 14.3958C25.8097 14.2842 25.7868 14.1928 25.7691 14.1928C25.7515 14.1928 25.737 14.1213 25.737 14.0339C25.737 13.9466 25.7211 13.8751 25.7017 13.8751C25.6823 13.8751 25.6663 13.8155 25.6662 13.7427C25.6661 13.6699 25.6268 13.4991 25.5787 13.3631C25.5307 13.2272 25.491 13.0803 25.4906 13.0366C25.4902 12.9929 25.474 12.9571 25.4545 12.9571C25.4351 12.9571 25.4192 12.9015 25.4192 12.8336C25.4192 12.7656 25.4034 12.71 25.3839 12.71C25.3645 12.71 25.3484 12.6822 25.3481 12.6482C25.3475 12.5767 25.2777 12.3742 25.2152 12.2622C25.1915 12.2198 25.1721 12.1602 25.1721 12.1298C25.1721 12.0994 25.1562 12.0745 25.1368 12.0745C25.1174 12.0745 25.1015 12.0269 25.1015 11.9686C25.1015 11.9104 25.0856 11.8627 25.0662 11.8627C25.0468 11.8627 25.0309 11.823 25.0309 11.7744C25.0309 11.7259 25.015 11.6862 24.9956 11.6862C24.9762 11.6862 24.9603 11.6544 24.9603 11.6156C24.9603 11.5767 24.9479 11.545 24.9327 11.545C24.9176 11.545 24.8744 11.4655 24.8367 11.3684C24.799 11.2714 24.7558 11.1919 24.7407 11.1919C24.7255 11.1919 24.7132 11.1601 24.7132 11.1213C24.7132 11.0825 24.6973 11.0507 24.6778 11.0507C24.6584 11.0507 24.6425 11.0189 24.6425 10.9801C24.6425 10.9413 24.6267 10.9095 24.6072 10.9095C24.5878 10.9095 24.5719 10.8869 24.5719 10.8594C24.5719 10.7964 24.4574 10.5923 24.4219 10.592C24.4073 10.5918 24.3954 10.5679 24.3954 10.5388C24.3954 10.5097 24.3795 10.4858 24.3601 10.4858C24.3407 10.4858 24.3248 10.4613 24.3248 10.4314C24.3248 10.4015 24.3087 10.3577 24.289 10.3343C24.2149 10.2461 24.0777 10.0225 24.0777 9.99001C24.0777 9.97144 24.0618 9.95626 24.0424 9.95626C24.0229 9.95626 24.0071 9.93243 24.0071 9.9033C24.0071 9.87418 23.9912 9.85035 23.9718 9.85035C23.9523 9.85035 23.9365 9.82652 23.9365 9.79739C23.9365 9.76826 23.9206 9.74443 23.9011 9.74443C23.8817 9.74443 23.8658 9.72788 23.8658 9.70765C23.8658 9.66916 23.8306 9.62119 23.6981 9.47954C23.6545 9.43284 23.6187 9.38479 23.6187 9.37282C23.6187 9.36085 23.5989 9.3301 23.5746 9.3045C23.5503 9.27894 23.4987 9.21367 23.4598 9.15947C23.421 9.10528 23.3571 9.02803 23.3177 8.98786C23.2784 8.94765 23.1992 8.85123 23.1416 8.77356C23.0151 8.60297 21.8634 7.44964 21.8195 7.44964C21.8024 7.44964 21.717 7.37815 21.6296 7.29077C21.5422 7.20339 21.4524 7.1319 21.4301 7.1319C21.4078 7.1319 21.3694 7.11206 21.3449 7.08777C21.3204 7.06352 21.2562 7.01186 21.2023 6.97303C21.1484 6.93419 21.0833 6.88258 21.0578 6.85829C21.0322 6.83404 20.9977 6.81416 20.9812 6.81416C20.9647 6.81416 20.9283 6.78239 20.9003 6.74355C20.8723 6.70472 20.8284 6.67294 20.8027 6.67294C20.777 6.67294 20.7131 6.63322 20.6608 6.58468C20.6084 6.53614 20.5456 6.49642 20.5211 6.49642C20.4966 6.49642 20.4766 6.48053 20.4766 6.46111C20.4766 6.4417 20.4448 6.42581 20.406 6.42581C20.3672 6.42581 20.3354 6.40992 20.3354 6.39051C20.3354 6.37109 20.3184 6.3552 20.2976 6.3552C20.2768 6.3552 20.2376 6.33536 20.2105 6.31107C20.0881 6.20124 20.0524 6.17868 20.0015 6.17868C19.9715 6.17868 19.947 6.16279 19.947 6.14337C19.947 6.12396 19.9232 6.10807 19.8941 6.10807C19.865 6.10807 19.8411 6.09218 19.8411 6.07276C19.8411 6.05335 19.8213 6.03764 19.797 6.03785C19.7417 6.03834 19.2275 5.78217 19.2115 5.7462C19.205 5.73165 19.1547 5.71972 19.0997 5.71972C19.0447 5.71972 18.9944 5.70715 18.9879 5.69183C18.9723 5.6548 18.582 5.47259 18.5183 5.47259C18.4909 5.47259 18.4586 5.4567 18.4466 5.43728C18.4346 5.41787 18.394 5.40198 18.3563 5.40198C18.3186 5.40198 18.2877 5.38609 18.2877 5.36667C18.2877 5.34726 18.2321 5.33137 18.1642 5.33137C18.0962 5.33137 18.0406 5.31728 18.0406 5.30006C18.0406 5.28286 17.9969 5.26083 17.9435 5.25109C17.8901 5.24138 17.7593 5.19986 17.6527 5.15884C17.5462 5.11781 17.4151 5.08424 17.3615 5.08424C17.3078 5.08424 17.2639 5.06835 17.2639 5.04893C17.2639 5.02952 17.1924 5.01363 17.105 5.01363C17.0177 5.01363 16.9462 4.99774 16.9462 4.97833C16.9462 4.95891 16.8903 4.94302 16.8221 4.94302C16.7539 4.94302 16.6705 4.9289 16.6368 4.91167C16.4738 4.82832 15.8257 4.73525 15.2251 4.70899C15.0066 4.69942 14.8279 4.67668 14.8279 4.65843C14.8279 4.63891 14.552 4.62528 14.1571 4.62528C13.7623 4.62528 13.4863 4.63891 13.4863 4.65843ZM13.5922 8.64999C13.5631 8.66881 13.4996 8.68431 13.451 8.68445C13.3256 8.6848 12.8861 8.80141 12.8861 8.83432C12.8861 8.84946 12.8464 8.86182 12.7979 8.86182C12.7493 8.86182 12.7096 8.87771 12.7096 8.89713C12.7096 8.91654 12.6714 8.93243 12.6247 8.93243C12.5364 8.93243 12.1006 9.16057 12.08 9.21758C12.0735 9.23552 12.0378 9.25017 12.0006 9.25017C11.9634 9.25017 11.9329 9.26606 11.9329 9.28547C11.9329 9.30489 11.9181 9.32078 11.9001 9.32078C11.8393 9.32078 11.6182 9.47919 11.6167 9.52378C11.6159 9.54807 11.5994 9.56791 11.5802 9.56791C11.5073 9.56791 10.9091 10.1532 10.9091 10.2245C10.9091 10.2375 10.8802 10.2738 10.8448 10.3052C10.8094 10.3366 10.7504 10.4139 10.7136 10.477C10.6768 10.5401 10.6343 10.5917 10.619 10.5917C10.6038 10.5917 10.5914 10.6235 10.5914 10.6624C10.5914 10.7012 10.5755 10.733 10.556 10.733C10.5366 10.733 10.5207 10.7552 10.5207 10.7823C10.5207 10.8095 10.4812 10.9008 10.4329 10.9853C10.3846 11.0698 10.3449 11.1668 10.3446 11.2007C10.3444 11.2347 10.3283 11.2625 10.3089 11.2625C10.2895 11.2625 10.2736 11.3022 10.2736 11.3508C10.2736 11.3993 10.2577 11.439 10.2383 11.439C10.2189 11.439 10.203 11.5105 10.203 11.5979C10.203 11.6853 10.1871 11.7568 10.1677 11.7568C10.1483 11.7568 10.1318 11.8005 10.1311 11.8539C10.1304 11.9073 10.1069 12.0463 10.0787 12.1628C10.008 12.4555 10.0116 12.8989 10.0862 13.1072C10.1193 13.1994 10.1591 13.2749 10.1747 13.2749C10.1903 13.2749 10.203 13.3032 10.203 13.3377C10.203 13.3723 10.2348 13.4234 10.2736 13.4514C10.3124 13.4794 10.3442 13.5221 10.3442 13.5462C10.3442 13.5704 10.3799 13.6091 10.4237 13.6322C10.4674 13.6554 10.5288 13.7036 10.5602 13.7394C10.5916 13.7752 10.6432 13.8045 10.6749 13.8045C10.7066 13.8045 10.7326 13.8203 10.7326 13.8398C10.7326 13.8592 10.7882 13.8751 10.8561 13.8751C10.9241 13.8751 10.9797 13.8909 10.9797 13.9104C10.9797 13.9302 11.079 13.9457 11.2071 13.9457C11.3322 13.9457 11.4443 13.9298 11.4563 13.9104C11.4683 13.8909 11.5248 13.8751 11.582 13.8751C11.6391 13.8751 11.6858 13.8592 11.6858 13.8398C11.6858 13.8203 11.7165 13.8045 11.7541 13.8045C11.8383 13.8045 12.2507 13.4127 12.2507 13.3328C12.2507 13.3009 12.2665 13.2749 12.286 13.2749C12.3054 13.2749 12.3213 13.2272 12.3213 13.169C12.3213 13.1107 12.3372 13.0631 12.3566 13.0631C12.3771 13.0631 12.392 12.9482 12.392 12.7894C12.3921 12.5951 12.4156 12.4494 12.473 12.2864C12.581 11.9796 12.6506 11.8274 12.6829 11.8274C12.6976 11.8274 12.7096 11.8047 12.7096 11.7768C12.7096 11.7113 13.1188 11.2978 13.1837 11.2978C13.211 11.2978 13.2386 11.2859 13.2451 11.2714C13.2687 11.2183 13.6478 11.0496 13.7423 11.0501C13.7957 11.0505 13.8394 11.0348 13.8394 11.0154C13.8394 10.9944 13.9747 10.9801 14.1748 10.9801C14.3748 10.9801 14.5102 10.9944 14.5102 11.0154C14.5102 11.0348 14.5618 11.0509 14.6249 11.0511C14.688 11.0514 14.8088 11.0911 14.8933 11.1394C14.9778 11.1877 15.0656 11.2272 15.0885 11.2272C15.1114 11.2272 15.1529 11.259 15.1809 11.2978C15.2089 11.3367 15.2447 11.3684 15.2605 11.3684C15.2979 11.3684 15.534 11.6046 15.534 11.6419C15.534 11.6577 15.5658 11.6935 15.6046 11.7215C15.6434 11.7495 15.6752 11.7908 15.6752 11.8132C15.6752 11.8357 15.699 11.8738 15.7282 11.898C15.7573 11.9222 15.7811 11.9718 15.7811 12.0082C15.7811 12.0447 15.797 12.0745 15.8164 12.0745C15.8358 12.0745 15.8517 12.1222 15.8517 12.1804C15.8517 12.2387 15.8676 12.2864 15.887 12.2864C15.9088 12.2864 15.9223 12.4688 15.9223 12.763C15.9223 13.0572 15.9088 13.2396 15.887 13.2396C15.8676 13.2396 15.8517 13.2952 15.8517 13.3631C15.8517 13.4311 15.8394 13.4867 15.8244 13.4867C15.8094 13.4867 15.7672 13.5423 15.7306 13.6103C15.694 13.6782 15.6507 13.7338 15.6344 13.7338C15.618 13.7338 15.6046 13.7579 15.6046 13.7873C15.6046 13.8561 15.2671 14.1928 15.1981 14.1928C15.1692 14.1928 15.1456 14.2056 15.1456 14.2212C15.1456 14.2628 14.8046 14.4399 14.7243 14.4399C14.6865 14.4399 14.6457 14.4558 14.6337 14.4752C14.6217 14.4947 14.4699 14.5105 14.2962 14.5105C14.1093 14.5105 13.9806 14.5249 13.9806 14.5458C13.9806 14.5653 13.925 14.5811 13.857 14.5811C13.7891 14.5811 13.7335 14.597 13.7335 14.6165C13.7335 14.6359 13.7079 14.6518 13.6768 14.6518C13.5699 14.6518 13.1686 15.013 13.1686 15.1092C13.1686 15.1295 13.1527 15.146 13.1333 15.146C13.1139 15.146 13.098 15.1857 13.098 15.2343C13.098 15.2828 13.0821 15.3225 13.0627 15.3225C13.0395 15.3225 13.0274 16.058 13.0274 17.4585C13.0274 18.8589 13.0395 19.5944 13.0627 19.5944C13.0821 19.5944 13.098 19.6269 13.098 19.6666C13.098 19.7063 13.1337 19.7771 13.1774 19.8238C13.3098 19.9654 13.3451 20.0134 13.3451 20.0519C13.3451 20.0721 13.3689 20.0887 13.3981 20.0887C13.4272 20.0887 13.451 20.1045 13.451 20.124C13.451 20.1434 13.4748 20.1593 13.504 20.1593C13.5331 20.1593 13.5569 20.1751 13.5569 20.1946C13.5569 20.214 13.5953 20.2299 13.6423 20.2299C13.6892 20.2299 13.7329 20.2428 13.7393 20.2585C13.7458 20.2742 13.8411 20.3123 13.9511 20.3432C14.1329 20.3943 14.1739 20.3944 14.4012 20.3445C14.5388 20.3144 14.6514 20.2762 14.6514 20.2597C14.6514 20.2433 14.6844 20.2299 14.7248 20.2299C14.8076 20.2299 15.2162 19.8407 15.2162 19.762C15.2162 19.7345 15.2271 19.7012 15.2404 19.6879C15.2537 19.6746 15.2885 19.6044 15.3177 19.5319C15.3608 19.4249 15.3732 19.1469 15.3837 18.0498L15.3966 16.6994H15.483C15.5305 16.6994 15.5693 16.6835 15.5693 16.6641C15.5693 16.6447 15.6169 16.6288 15.6752 16.6288C15.7335 16.6288 15.7811 16.6129 15.7811 16.5935C15.7811 16.5741 15.8129 16.5582 15.8517 16.5582C15.8906 16.5582 15.9225 16.5463 15.9226 16.5317C15.9229 16.5171 15.9944 16.4739 16.0815 16.4356C16.1687 16.3972 16.2401 16.3535 16.2401 16.3385C16.2401 16.3234 16.2718 16.3111 16.3107 16.3111C16.3495 16.3111 16.3813 16.2952 16.3813 16.2758C16.3813 16.2563 16.3978 16.2405 16.4181 16.2405C16.4566 16.2405 16.5045 16.2052 16.6462 16.0728C16.6929 16.0291 16.7392 15.9933 16.7492 15.9933C16.7701 15.9933 16.9939 15.7969 17.0911 15.6932C17.1274 15.6544 17.2329 15.5423 17.3253 15.4442C17.4178 15.346 17.5159 15.2229 17.5435 15.1706C17.571 15.1182 17.6068 15.0754 17.6229 15.0754C17.639 15.0754 17.6523 15.0529 17.6523 15.0254C17.6523 14.9979 17.665 14.9701 17.6805 14.9636C17.721 14.9468 17.8994 14.6169 17.8994 14.559C17.8994 14.5324 17.9153 14.5105 17.9347 14.5105C17.9541 14.5105 17.97 14.4722 17.97 14.4252C17.97 14.3783 17.9819 14.3346 17.9965 14.3281C18.0358 14.3108 18.2171 13.7503 18.2171 13.6465C18.2171 13.5975 18.233 13.5573 18.2524 13.5573C18.2736 13.5573 18.2877 13.4161 18.2877 13.2043C18.2877 12.9924 18.3019 12.8512 18.323 12.8512C18.3425 12.8512 18.3583 12.8195 18.3583 12.7806C18.3583 12.7418 18.3425 12.71 18.323 12.71C18.3017 12.71 18.2877 12.5636 18.2877 12.3414C18.2877 12.1337 18.2723 11.9633 18.2524 11.951C18.233 11.939 18.2171 11.8885 18.2171 11.8389C18.2171 11.7347 18.1064 11.3918 18.0671 11.3743C18.0525 11.3678 18.0406 11.3162 18.0406 11.2596C18.0406 11.203 18.0247 11.1566 18.0053 11.1566C17.9859 11.1566 17.97 11.1169 17.97 11.0684C17.97 11.0198 17.9578 10.9801 17.943 10.9801C17.9282 10.9801 17.888 10.9154 17.8538 10.8363C17.8195 10.7572 17.7601 10.6589 17.7219 10.6178C17.6836 10.5767 17.6523 10.5223 17.6523 10.4968C17.6523 10.4714 17.6364 10.4505 17.6169 10.4505C17.5975 10.4505 17.5816 10.4267 17.5816 10.3976C17.5816 10.3684 17.5697 10.3445 17.5552 10.3444C17.5406 10.3442 17.489 10.285 17.4404 10.2127C17.3254 10.0413 16.8593 9.57483 16.6904 9.462C16.6178 9.41345 16.5582 9.36184 16.5581 9.34726C16.5579 9.33268 16.534 9.32078 16.5049 9.32078C16.4757 9.32078 16.4519 9.30489 16.4519 9.28547C16.4519 9.26606 16.4214 9.25017 16.3842 9.25017C16.347 9.25017 16.3113 9.23668 16.3048 9.22023C16.288 9.17765 15.9654 9.00304 15.9034 9.00304C15.875 9.00304 15.8517 8.98715 15.8517 8.96773C15.8517 8.94832 15.812 8.93243 15.7635 8.93243C15.7149 8.93243 15.6752 8.91654 15.6752 8.89713C15.6752 8.87771 15.6275 8.86182 15.5693 8.86182C15.511 8.86182 15.4634 8.84773 15.4634 8.83051C15.4634 8.81331 15.4197 8.79054 15.3663 8.77991C15.1736 8.74157 14.914 8.68014 14.8077 8.64773C14.6649 8.60417 13.6603 8.60604 13.5922 8.64999ZM27.6296 11.9559C27.6432 12.0114 27.6678 12.0622 27.6842 12.0686C27.7006 12.0751 27.714 12.1258 27.714 12.1813C27.714 12.2368 27.7299 12.292 27.7493 12.304C27.7688 12.316 27.7846 12.3725 27.7846 12.4297C27.7846 12.4868 27.8005 12.5335 27.8199 12.5335C27.8394 12.5335 27.8553 12.605 27.8553 12.6924C27.8553 12.7797 27.8711 12.8512 27.8906 12.8512C27.91 12.8512 27.9259 12.8928 27.9259 12.9436C27.9259 12.9944 27.9514 13.1175 27.9826 13.2172C28.0894 13.5584 28.1024 13.6155 28.1024 13.7431C28.1024 13.8134 28.1183 13.8807 28.1377 13.8927C28.1571 13.9047 28.173 14.0168 28.173 14.1419C28.173 14.267 28.1877 14.3693 28.2056 14.3693C28.2235 14.3693 28.2467 14.4925 28.2571 14.6429C28.2675 14.7934 28.2912 15.0992 28.3098 15.3225C28.3284 15.5458 28.3449 16.0485 28.3465 16.4397C28.3491 17.0538 28.3571 17.1538 28.4054 17.1723C28.4361 17.184 29.3496 17.1937 30.4354 17.1937C31.7279 17.1937 32.4095 17.2059 32.4095 17.229C32.4095 17.2484 32.4562 17.2643 32.5134 17.2643C32.5705 17.2643 32.627 17.2802 32.639 17.2996C32.651 17.319 32.685 17.3349 32.7145 17.3349C32.7961 17.3349 33.1862 17.7413 33.1862 17.8263C33.1862 17.8667 33.1997 17.8998 33.2161 17.8998C33.2326 17.8998 33.2708 18.0129 33.3012 18.1512C33.3498 18.3728 33.3503 18.4243 33.3057 18.5837C33.2778 18.6833 33.2395 18.7923 33.2206 18.826C33.2017 18.8597 33.1862 18.9114 33.1862 18.9408C33.1862 18.9702 33.1703 18.9942 33.1509 18.9942C33.1315 18.9942 33.1156 19.0202 33.1156 19.0519C33.1156 19.1137 33.0452 19.184 32.8503 19.3167C32.7829 19.3627 32.7277 19.4121 32.7275 19.4267C32.7274 19.4413 32.6889 19.4532 32.6419 19.4532C32.595 19.4532 32.55 19.473 32.5419 19.4973C32.5305 19.5318 32.0388 19.5439 30.2828 19.5528L28.0382 19.5642L27.9821 19.736C27.9511 19.8304 27.9259 19.9485 27.9259 19.9982C27.9259 20.0479 27.91 20.0887 27.8906 20.0887C27.8711 20.0887 27.8553 20.1522 27.8553 20.2299C27.8553 20.3075 27.8394 20.3711 27.8199 20.3711C27.8005 20.3711 27.7846 20.4267 27.7846 20.4947C27.7846 20.5626 27.7688 20.6182 27.7493 20.6182C27.7299 20.6182 27.7135 20.654 27.7128 20.6977C27.7121 20.7413 27.6888 20.8168 27.6611 20.8654C27.6333 20.9139 27.6101 20.9894 27.6094 21.033C27.6087 21.0767 27.5922 21.1125 27.5728 21.1125C27.5534 21.1125 27.5375 21.1601 27.5375 21.2184C27.5375 21.2766 27.5216 21.3243 27.5022 21.3243C27.4828 21.3243 27.4669 21.364 27.4669 21.4126C27.4669 21.4611 27.451 21.5008 27.4316 21.5008C27.4122 21.5008 27.3963 21.5472 27.3963 21.6038C27.3963 21.6604 27.3844 21.7121 27.3698 21.7186C27.3335 21.7347 27.2198 21.9854 27.2198 22.0493C27.2198 22.0777 27.2039 22.101 27.1845 22.101C27.165 22.101 27.1492 22.1407 27.1492 22.1893C27.1492 22.2378 27.1333 22.2775 27.1139 22.2775C27.0944 22.2775 27.0786 22.2934 27.0786 22.3128C27.0786 22.3361 27.9906 22.3481 29.744 22.3481C31.4975 22.3481 32.4095 22.3602 32.4095 22.3834C32.4095 22.4029 32.4421 22.4188 32.4819 22.4188C32.5739 22.4188 32.7631 22.5155 32.8373 22.6005C32.8687 22.6365 32.9052 22.6659 32.9184 22.6659C32.9565 22.6659 33.1156 22.8354 33.1156 22.8761C33.1156 22.8964 33.1315 22.913 33.1509 22.913C33.1703 22.913 33.1862 22.9448 33.1862 22.9836C33.1862 23.0225 33.2003 23.0542 33.2175 23.0542C33.2347 23.0542 33.2576 23.0979 33.2683 23.1513C33.279 23.2047 33.3028 23.3176 33.3212 23.4022C33.3461 23.5164 33.3405 23.6141 33.2998 23.7818C33.2697 23.9059 33.2318 24.0075 33.2156 24.0075C33.1995 24.0075 33.1862 24.0392 33.1862 24.0781C33.1862 24.1169 33.1703 24.1487 33.1509 24.1487C33.1315 24.1487 33.1156 24.1652 33.1156 24.1855C33.1156 24.2057 33.0958 24.2462 33.0715 24.2754C32.9661 24.4024 32.8632 24.5017 32.837 24.5017C32.8214 24.5017 32.772 24.5335 32.7273 24.5723C32.6825 24.6112 32.6086 24.6429 32.563 24.6429C32.5174 24.6429 32.4801 24.6588 32.4801 24.6782C32.4801 24.7015 31.3218 24.7135 29.0756 24.7135C25.7115 24.7135 25.6709 24.7144 25.6489 24.7836C25.6367 24.8221 25.5641 24.9168 25.4877 24.994C25.4112 25.0712 25.3486 25.1589 25.3486 25.1888C25.3486 25.2186 25.3327 25.2431 25.3133 25.2431C25.2939 25.2431 25.278 25.2603 25.278 25.2813C25.278 25.3024 25.2224 25.3736 25.1545 25.4396C25.0865 25.5056 25.0309 25.5758 25.0309 25.5955C25.0309 25.6153 25.0177 25.6315 25.0016 25.6315C24.9854 25.6315 24.951 25.6712 24.925 25.7197C24.899 25.7683 24.8566 25.808 24.8308 25.808C24.8049 25.808 24.7838 25.8242 24.7838 25.844C24.7838 25.881 23.4607 27.2202 23.4241 27.2202C23.4014 27.2202 23.3684 27.2461 23.2039 27.3931C23.1408 27.4495 23.0891 27.5051 23.0891 27.5168C23.0891 27.5284 25.1862 27.5379 27.7493 27.5379C30.8326 27.5379 32.4095 27.5498 32.4095 27.5732C32.4095 27.5926 32.4651 27.6085 32.5331 27.6085C32.6011 27.6085 32.6567 27.6244 32.6567 27.6438C32.6567 27.6632 32.6812 27.6791 32.7113 27.6791C32.7721 27.6791 33.1156 28.0076 33.1156 28.0658C33.1156 28.0861 33.1315 28.1028 33.1509 28.1028C33.1703 28.1028 33.1862 28.1345 33.1862 28.1734C33.1862 28.2122 33.1991 28.244 33.2149 28.244C33.2539 28.244 33.3371 28.5796 33.3371 28.7373C33.3371 28.8651 33.2677 29.1141 33.2143 29.1778C33.1989 29.1963 33.1862 29.2399 33.1862 29.2749C33.1862 29.3098 33.1703 29.3384 33.1509 29.3384C33.1315 29.3384 33.1156 29.3548 33.1156 29.3749C33.1156 29.4207 32.8826 29.6562 32.8373 29.6562C32.8189 29.6562 32.7985 29.6687 32.792 29.6841C32.7855 29.6994 32.6884 29.755 32.5763 29.8076L32.3723 29.9033L26.0273 29.9035C20.0679 29.9037 19.6715 29.8999 19.5057 29.8417C19.4086 29.8076 19.3239 29.7678 19.3175 29.7533C19.3021 29.7187 19.0644 29.7187 19.0644 29.7533C19.0644 29.7678 18.9612 29.8109 18.835 29.849C18.7087 29.8871 18.6055 29.9308 18.6055 29.9461C18.6055 29.9614 18.5499 29.9739 18.4819 29.9739C18.4139 29.9739 18.3583 29.9898 18.3583 30.0092C18.3583 30.0286 18.3027 30.0445 18.2348 30.0445C18.1668 30.0445 18.1112 30.0604 18.1112 30.0798C18.1112 30.0992 18.0776 30.1151 18.0365 30.1151C17.9954 30.1151 17.8802 30.1407 17.7805 30.1719C17.4489 30.2757 17.3832 30.2917 17.2879 30.2917C17.2359 30.2917 17.1933 30.3075 17.1933 30.327C17.1933 30.3466 17.0991 30.3623 16.9815 30.3623C16.8638 30.3623 16.7696 30.3779 16.7696 30.3976C16.7696 30.417 16.707 30.4329 16.6305 30.4329C16.4714 30.4329 16.4275 30.474 16.5045 30.5511C16.5338 30.5804 16.5578 30.6145 16.5578 30.627C16.5578 30.6395 16.5777 30.6707 16.6019 30.6963C16.6262 30.7218 16.6778 30.7871 16.7167 30.8413C16.7555 30.8955 16.8191 30.973 16.8579 31.0135C16.8967 31.054 16.9917 31.1663 17.0691 31.2631C17.25 31.4896 18.3147 32.5511 18.3611 32.5511C18.3804 32.5511 18.4658 32.6226 18.5507 32.71C18.6356 32.7974 18.7235 32.8689 18.7461 32.8689C18.7686 32.8689 18.8071 32.8888 18.8316 32.913C18.8562 32.9373 18.9204 32.9889 18.9743 33.0278C19.0281 33.0666 19.0932 33.1182 19.1188 33.1425C19.1444 33.1668 19.1788 33.1866 19.1953 33.1866C19.2119 33.1866 19.2483 33.2184 19.2763 33.2572C19.3043 33.2961 19.3554 33.3278 19.39 33.3278C19.4245 33.3278 19.4528 33.3401 19.4528 33.3551C19.4528 33.3701 19.5084 33.4123 19.5763 33.4489C19.6443 33.4855 19.6999 33.5289 19.6999 33.5452C19.6999 33.5616 19.7317 33.575 19.7705 33.575C19.8094 33.575 19.8411 33.5909 19.8411 33.6103C19.8411 33.6297 19.865 33.6456 19.8941 33.6456C19.9232 33.6456 19.947 33.658 19.947 33.6733C19.947 33.6885 20.0421 33.7481 20.1583 33.8057C20.2745 33.8632 20.3698 33.9223 20.3701 33.9368C20.3705 33.9514 20.3945 33.9633 20.4237 33.9633C20.4528 33.9633 20.4766 33.9792 20.4766 33.9986C20.4766 34.018 20.4962 34.0339 20.5202 34.0339C20.5756 34.0339 20.9493 34.2193 20.965 34.2546C20.9715 34.2691 21.0231 34.2811 21.0797 34.2811C21.1364 34.2811 21.1827 34.2969 21.1827 34.3164C21.1827 34.3358 21.2023 34.3517 21.2263 34.3517C21.2502 34.3517 21.3575 34.394 21.4646 34.4457C21.5717 34.4973 21.6869 34.5529 21.7206 34.5692C21.7543 34.5855 21.8139 34.5988 21.853 34.5988C21.8921 34.5988 21.9241 34.6147 21.9241 34.6341C21.9241 34.6535 21.9718 34.6694 22.03 34.6694C22.0883 34.6694 22.1359 34.6853 22.1359 34.7047C22.1359 34.7241 22.1744 34.74 22.2213 34.74C22.2683 34.74 22.3517 34.7623 22.4067 34.7894C22.5444 34.8576 22.7435 34.9165 22.8357 34.9165C22.878 34.9165 22.9126 34.9324 22.9126 34.9518C22.9126 34.9713 22.9841 34.9872 23.0715 34.9872C23.1589 34.9872 23.2304 35.003 23.2304 35.0225C23.2304 35.0419 23.3019 35.0578 23.3892 35.0578C23.4766 35.0578 23.5481 35.0707 23.5481 35.0865C23.5481 35.1132 23.6743 35.139 24.2895 35.2385C24.4157 35.2589 24.7057 35.2831 24.9338 35.2923C25.1619 35.3015 25.3486 35.324 25.3486 35.3423C25.3486 35.3619 25.6237 35.3755 26.0194 35.3755C26.4143 35.3755 26.6902 35.3619 26.6902 35.3424C26.6902 35.3241 26.8689 35.3016 27.0874 35.2923C27.6139 35.27 28.0791 35.2007 28.4403 35.0907C28.4999 35.0726 28.6072 35.0578 28.6786 35.0578C28.75 35.0578 28.8085 35.0419 28.8085 35.0225C28.8085 35.003 28.872 34.9872 28.9497 34.9872C29.0274 34.9872 29.0909 34.9713 29.0909 34.9518C29.0909 34.9324 29.1456 34.9165 29.2124 34.9165C29.2792 34.9165 29.3428 34.902 29.3538 34.8843C29.3648 34.8666 29.4372 34.8413 29.5147 34.8282C29.5923 34.8152 29.6558 34.7899 29.6558 34.7722C29.6558 34.7545 29.7025 34.74 29.7596 34.74C29.8167 34.74 29.8733 34.7241 29.8853 34.7047C29.8973 34.6853 29.9458 34.6694 29.9933 34.6694C30.0407 34.6694 30.0794 34.6535 30.0794 34.6341C30.0794 34.6147 30.1271 34.5988 30.1853 34.5988C30.2436 34.5988 30.2913 34.5829 30.2913 34.5635C30.2913 34.5441 30.3191 34.5277 30.353 34.5271C30.387 34.5265 30.4457 34.5026 30.4834 34.4741C30.5211 34.4456 30.5806 34.4223 30.6157 34.4223C30.6509 34.4223 30.6796 34.4064 30.6796 34.387C30.6796 34.3676 30.7193 34.3517 30.7679 34.3517C30.8164 34.3517 30.8561 34.3358 30.8561 34.3164C30.8561 34.2969 30.8879 34.2811 30.9267 34.2811C30.9656 34.2811 30.9974 34.2652 30.9974 34.2458C30.9974 34.2263 31.0282 34.2105 31.0659 34.2105C31.1036 34.2105 31.1442 34.1946 31.1562 34.1751C31.1682 34.1557 31.2089 34.1398 31.2466 34.1398C31.2843 34.1398 31.3151 34.1243 31.3151 34.1052C31.3151 34.0862 31.3548 34.0606 31.4034 34.0484C31.4519 34.0363 31.4916 34.0121 31.4916 33.9948C31.4916 33.9775 31.5234 33.9633 31.5622 33.9633C31.6011 33.9633 31.6328 33.9474 31.6328 33.928C31.6328 33.9086 31.6646 33.8927 31.7034 33.8927C31.7423 33.8927 31.7742 33.8808 31.7743 33.8662C31.7746 33.8307 31.9787 33.7162 32.0417 33.7162C32.0692 33.7162 32.0918 33.7003 32.0918 33.6809C32.0918 33.6615 32.1395 33.6456 32.1977 33.6456C32.256 33.6456 32.3036 33.6297 32.3036 33.6103C32.3036 33.5897 32.4213 33.575 32.5861 33.575C32.7414 33.575 32.8685 33.5894 32.8685 33.6071C32.8685 33.6248 32.9598 33.6476 33.0715 33.6578C33.1832 33.6679 33.3619 33.6905 33.4687 33.708C33.5755 33.7254 33.7899 33.7599 33.9453 33.7845C34.1006 33.8091 34.2553 33.8435 34.289 33.8609C34.3227 33.8784 34.4379 33.8927 34.545 33.8927C34.652 33.8927 34.7396 33.9086 34.7396 33.928C34.7396 33.9482 34.8455 33.9633 34.9868 33.9633C35.128 33.9633 35.2339 33.9785 35.2339 33.9986C35.2339 34.018 35.3144 34.0339 35.4127 34.0339C35.5111 34.0339 35.6203 34.0493 35.6555 34.0681C35.804 34.1476 36.7167 34.2421 36.7167 34.178C36.7167 34.157 36.7008 34.1398 36.6814 34.1398C36.6612 34.1398 36.6461 34.0339 36.6461 33.8927C36.6461 33.7515 36.6309 33.6456 36.6108 33.6456C36.5914 33.6456 36.5755 33.5651 36.5755 33.4667C36.5755 33.3684 36.5609 33.2607 36.5431 33.2274C36.5051 33.1564 36.4323 32.7269 36.409 32.4364C36.4 32.3248 36.3782 32.2334 36.3605 32.2334C36.3428 32.2334 36.3283 32.1301 36.3283 32.0039C36.3283 31.8745 36.3129 31.7744 36.293 31.7744C36.2735 31.7744 36.2577 31.681 36.2577 31.5647C36.2577 31.4493 36.2418 31.3451 36.2224 31.3331C36.203 31.3211 36.1867 31.2527 36.1863 31.181C36.1858 31.1093 36.1683 30.9872 36.1473 30.9095C36.0123 30.4088 36.008 29.7597 36.1389 29.6288C36.1654 29.6022 36.1871 29.5578 36.1871 29.5301C36.1871 29.5024 36.203 29.4797 36.2224 29.4797C36.2418 29.4797 36.2577 29.4479 36.2577 29.409C36.2577 29.3702 36.2736 29.3384 36.293 29.3384C36.3124 29.3384 36.3283 29.3067 36.3283 29.2678C36.3283 29.229 36.3405 29.1972 36.3553 29.1972C36.3701 29.1972 36.4138 29.1313 36.4524 29.0508C36.5641 28.8174 36.5905 28.7736 36.6191 28.7736C36.634 28.7736 36.6461 28.7259 36.6461 28.6676C36.6461 28.6094 36.6581 28.5617 36.6728 28.5617C36.6874 28.5617 36.7217 28.5101 36.7489 28.447C36.7761 28.3839 36.8356 28.2538 36.8811 28.158C36.9266 28.0621 36.9638 27.9548 36.9638 27.9197C36.9638 27.8845 36.9797 27.8556 36.9991 27.8556C37.0185 27.8556 37.0344 27.8159 37.0344 27.7674C37.0344 27.7188 37.0503 27.6791 37.0697 27.6791C37.0891 27.6791 37.105 27.6392 37.105 27.5904C37.105 27.5416 37.119 27.474 37.136 27.4403C37.2188 27.2766 37.2816 27.105 37.2816 27.0424C37.2816 27.0043 37.2974 26.973 37.3169 26.973C37.3363 26.973 37.3522 26.9015 37.3522 26.8142C37.3522 26.7268 37.368 26.6553 37.3875 26.6553C37.4069 26.6553 37.4228 26.6006 37.4228 26.5338C37.4228 26.467 37.4387 26.4025 37.4581 26.3905C37.4775 26.3785 37.4932 26.3339 37.4931 26.2913C37.4928 26.2139 37.5777 25.8154 37.6379 25.6113C37.6555 25.5517 37.6699 25.4126 37.6699 25.3024C37.6699 25.1921 37.6858 25.1019 37.7052 25.1019C37.7264 25.1019 37.7405 24.9607 37.7405 24.7488C37.7405 24.5291 37.7543 24.3958 37.7771 24.3958C37.8017 24.3958 37.8079 24.1228 37.796 23.5573C37.7732 22.4645 37.7438 21.9598 37.7029 21.9598C37.6848 21.9598 37.6699 21.8575 37.6699 21.7324C37.6699 21.6073 37.654 21.4952 37.6346 21.4832C37.6152 21.4712 37.5993 21.4087 37.5993 21.3443C37.5993 21.2799 37.5755 21.1597 37.5463 21.0772C37.5172 20.9946 37.4934 20.8824 37.4934 20.8277C37.4934 20.773 37.4775 20.7185 37.4581 20.7065C37.4387 20.6945 37.4228 20.6221 37.4228 20.5455C37.4228 20.469 37.4069 20.4064 37.3875 20.4064C37.368 20.4064 37.3522 20.3508 37.3522 20.2828C37.3522 20.2149 37.3363 20.1593 37.3169 20.1593C37.2974 20.1593 37.2816 20.1148 37.2816 20.0604C37.2816 20.006 37.2685 19.9464 37.2525 19.928C37.2365 19.9096 37.1928 19.7952 37.1554 19.6738C37.118 19.5525 37.0755 19.4532 37.0609 19.4532C37.0464 19.4532 37.0344 19.4055 37.0344 19.3473C37.0344 19.289 37.0185 19.2413 36.9991 19.2413C36.9797 19.2413 36.9638 19.2016 36.9638 19.1531C36.9638 19.1045 36.9479 19.0648 36.9285 19.0648C36.9091 19.0648 36.8932 19.0361 36.8932 19.001C36.8932 18.9658 36.8699 18.9063 36.8414 18.8686C36.8129 18.8309 36.789 18.7722 36.7884 18.7383C36.7878 18.7043 36.7714 18.6765 36.752 18.6765C36.7326 18.6765 36.7167 18.6368 36.7167 18.5882C36.7167 18.5397 36.7008 18.4999 36.6814 18.4999C36.662 18.4999 36.6461 18.4682 36.6461 18.4293C36.6461 18.3905 36.6302 18.3587 36.6108 18.3587C36.5914 18.3587 36.5755 18.3362 36.5755 18.3086C36.5755 18.2457 36.4609 18.0415 36.4254 18.0412C36.4109 18.0411 36.3989 18.0092 36.3989 17.9704C36.3989 17.9315 36.3831 17.8998 36.3636 17.8998C36.3442 17.8998 36.3283 17.8659 36.3283 17.8245C36.3283 17.7831 36.2988 17.7235 36.2628 17.6921C36.2267 17.6607 36.1859 17.5993 36.1721 17.5556C36.1583 17.5118 36.1323 17.4761 36.1141 17.4761C36.096 17.4761 36.0812 17.4478 36.0812 17.4133C36.0812 17.3787 36.0494 17.3276 36.0106 17.2996C35.9718 17.2716 35.94 17.2197 35.94 17.1843C35.94 17.1488 35.9042 17.0816 35.8605 17.0349C35.7281 16.8933 35.6929 16.8453 35.6929 16.8068C35.6929 16.7866 35.677 16.77 35.6575 16.77C35.6381 16.77 35.6222 16.7462 35.6222 16.7171C35.6222 16.6881 35.5666 16.6053 35.4987 16.5333C35.4307 16.4612 35.3751 16.3852 35.3751 16.3645C35.3751 16.3437 35.3433 16.3038 35.3045 16.2758C35.2657 16.2478 35.2339 16.2119 35.2339 16.1961C35.2339 16.1676 35.1812 16.1048 34.9603 15.8703C34.8972 15.8034 34.8455 15.739 34.8455 15.7272C34.8455 15.6916 34.7472 15.605 34.7068 15.605C34.686 15.605 34.669 15.5887 34.669 15.5689C34.669 15.5218 33.9049 14.7577 33.8578 14.7577C33.838 14.7577 33.8217 14.7407 33.8217 14.7199C33.8217 14.6792 33.735 14.5811 33.6991 14.5811C33.6871 14.5811 33.6403 14.5454 33.5951 14.5017C33.5499 14.458 33.4683 14.3905 33.4138 14.3517C33.3593 14.3128 33.2786 14.2453 33.2344 14.2016C33.1903 14.1579 33.1367 14.1222 33.1153 14.1222C33.0939 14.1222 33.0257 14.0745 32.9637 14.0162C32.9016 13.9579 32.823 13.9012 32.7891 13.8902C32.7551 13.8793 32.7273 13.8555 32.7273 13.8374C32.7273 13.8193 32.7034 13.8045 32.6743 13.8045C32.6452 13.8045 32.6214 13.7886 32.6214 13.7691C32.6214 13.7497 32.5968 13.7338 32.5668 13.7338C32.5368 13.7338 32.4725 13.6941 32.424 13.6456C32.3754 13.597 32.3126 13.5573 32.2844 13.5573C32.2561 13.5573 32.233 13.5414 32.233 13.522C32.233 13.5026 32.2092 13.4867 32.1801 13.4867C32.1509 13.4867 32.1271 13.4708 32.1271 13.4514C32.1271 13.432 32.1033 13.4161 32.0741 13.4161C32.045 13.4161 32.0212 13.4002 32.0212 13.3808C32.0212 13.3614 31.9986 13.3455 31.9711 13.3455C31.9081 13.3455 31.704 13.231 31.7037 13.1954C31.7035 13.1809 31.6717 13.169 31.6328 13.169C31.594 13.169 31.5622 13.1531 31.5622 13.1337C31.5622 13.1142 31.5384 13.0984 31.5093 13.0984C31.4801 13.0984 31.4563 13.0825 31.4563 13.0631C31.4563 13.0436 31.433 13.0278 31.4046 13.0278C31.3762 13.0278 31.2818 12.988 31.1948 12.9395C31.1079 12.8909 31.012 12.8512 30.9817 12.8512C30.9515 12.8512 30.9267 12.8353 30.9267 12.8159C30.9267 12.7965 30.887 12.7806 30.8385 12.7806C30.7899 12.7806 30.7502 12.7647 30.7502 12.7453C30.7502 12.7259 30.7184 12.71 30.6796 12.71C30.6408 12.71 30.609 12.6941 30.609 12.6747C30.609 12.6553 30.5781 12.6394 30.5403 12.6394C30.5025 12.6394 30.3968 12.5997 30.3055 12.5511C30.2142 12.5026 30.1022 12.4629 30.0565 12.4629C30.0109 12.4629 29.9735 12.447 29.9735 12.4276C29.9735 12.4082 29.9415 12.3923 29.9024 12.3923C29.8633 12.3923 29.8037 12.3782 29.77 12.3611C29.6617 12.3059 29.1305 12.1451 29.0566 12.1451C29.0172 12.1451 28.985 12.1293 28.985 12.1098C28.985 12.0904 28.9135 12.0745 28.8261 12.0745C28.7387 12.0745 28.6673 12.0586 28.6673 12.0392C28.6673 12.0198 28.5878 12.0039 28.4907 12.0039C28.3936 12.0039 28.3142 11.9899 28.3142 11.9729C28.3142 11.9558 28.2229 11.932 28.1112 11.92C27.9995 11.908 27.84 11.8885 27.7565 11.8766L27.6048 11.855L27.6296 11.9559ZM13.8041 21.9951C13.8041 22.0145 13.782 22.0304 13.7551 22.0304C13.7282 22.0304 13.6682 22.0503 13.6218 22.0745C13.4913 22.1427 13.098 22.5434 13.098 22.6082C13.098 22.6399 13.0821 22.6659 13.0627 22.6659C13.0413 22.6659 13.0274 22.8189 13.0274 23.0542C13.0274 23.2896 13.0413 23.4426 13.0627 23.4426C13.0821 23.4426 13.098 23.4754 13.098 23.5155C13.098 23.606 13.1531 23.7114 13.2617 23.8286C13.3076 23.878 13.3451 23.9385 13.3451 23.963C13.3451 23.9874 13.3711 24.0075 13.4028 24.0075C13.4345 24.0075 13.4861 24.0357 13.5175 24.0703C13.6602 24.2273 14.2878 24.3926 14.3513 24.2899C14.3633 24.2705 14.4034 24.2546 14.4404 24.2546C14.5241 24.2546 14.7573 24.1458 14.7573 24.1068C14.7573 24.091 14.7891 24.0781 14.8279 24.0781C14.8667 24.0781 14.8985 24.0649 14.8985 24.0487C14.8985 24.0326 14.9382 23.9981 14.9868 23.9721C15.0353 23.9462 15.075 23.9073 15.075 23.8857C15.075 23.8642 15.1068 23.8236 15.1456 23.7956C15.1845 23.7676 15.2162 23.7165 15.2162 23.6819C15.2162 23.6474 15.2291 23.6191 15.2447 23.6191C15.2604 23.6191 15.3013 23.5109 15.3356 23.3787C15.3953 23.1486 15.3953 23.1282 15.335 22.9021C15.3004 22.7722 15.2595 22.6659 15.2442 22.6659C15.2288 22.6659 15.2162 22.6341 15.2162 22.5953C15.2162 22.5564 15.2004 22.5247 15.1809 22.5247C15.1615 22.5247 15.1456 22.5008 15.1456 22.4717C15.1456 22.4426 15.1297 22.4188 15.1103 22.4188C15.0909 22.4188 15.075 22.387 15.075 22.3481C15.075 22.3093 15.058 22.2775 15.0372 22.2775C15.0164 22.2775 14.9788 22.2577 14.9536 22.2334C14.8111 22.0959 14.7135 22.0304 14.6511 22.0304C14.6124 22.0304 14.5808 22.0145 14.5808 21.9951C14.5808 21.9737 14.4278 21.9598 14.1924 21.9598C13.957 21.9598 13.8041 21.9737 13.8041 21.9951Z" fill="black" stroke="#F0F8FF" stroke-width="0.5"/>
</g>
</g>
<defs>
<clipPath id="clip0_1070_1371">
<rect width="41" height="40" fill="white"/>
</clipPath>
</defs>
</svg>
