<svg width="40" height="40" viewBox="0 0 40 40" fill="none" xmlns="http://www.w3.org/2000/svg">
<g clip-path="url(#clip0_1070_1377)">
<path fill-rule="evenodd" clip-rule="evenodd" d="M10.063 0.0353045C10.063 0.054722 9.98864 0.070609 9.89781 0.070609C9.80697 0.070609 9.68383 0.0857899 9.6242 0.104325C9.56457 0.12286 9.4166 0.166531 9.29544 0.201412C9.17424 0.236258 9.07493 0.276717 9.07479 0.291262C9.07461 0.305808 9.03475 0.317741 8.98621 0.317741C8.93766 0.317741 8.89795 0.333628 8.89795 0.353045C8.89795 0.372462 8.85029 0.38835 8.79203 0.38835C8.73378 0.38835 8.68612 0.404237 8.68612 0.423654C8.68612 0.443071 8.66197 0.458959 8.63246 0.458959C8.60294 0.458959 8.51955 0.495075 8.44711 0.539206C8.3747 0.583336 8.27172 0.641624 8.21833 0.668738C8.16495 0.695852 8.12125 0.731227 8.12125 0.747361C8.12125 0.763495 8.08947 0.776699 8.05064 0.776699C8.0118 0.776699 7.98003 0.792586 7.98003 0.812004C7.98003 0.831421 7.96347 0.847308 7.94324 0.847308C7.90476 0.847308 7.85678 0.882577 7.71514 1.015C7.66843 1.05871 7.61357 1.09444 7.59327 1.09444C7.57297 1.09444 7.55638 1.10644 7.55638 1.12113C7.55638 1.13582 7.50871 1.1689 7.45046 1.1947C7.39221 1.22048 7.34455 1.25684 7.34455 1.27552C7.34455 1.31216 7.18472 1.48279 7.15037 1.48279C7.1234 1.48279 6.9562 1.64971 6.9562 1.67661C6.9562 1.69578 6.9186 1.74019 6.71789 1.9582C6.67419 2.00561 6.63846 2.05974 6.63846 2.07841C6.63846 2.09709 6.62653 2.11767 6.61198 2.12417C6.57364 2.14118 6.39133 2.41589 6.39133 2.45659C6.39133 2.47555 6.35955 2.51393 6.32072 2.54192C6.28188 2.56992 6.25011 2.62902 6.25011 2.67329C6.25011 2.71753 6.23422 2.75375 6.2148 2.75375C6.19539 2.75375 6.1795 2.78553 6.1795 2.82436C6.1795 2.8632 6.16654 2.89497 6.15073 2.89497C6.11122 2.89497 6.00298 3.12865 6.00298 3.21391C6.00298 3.25207 5.98709 3.28332 5.96767 3.28332C5.94826 3.28332 5.93237 3.32304 5.93237 3.37158C5.93237 3.42012 5.91648 3.45984 5.89706 3.45984C5.87765 3.45984 5.86176 3.5075 5.86176 3.56575C5.86176 3.62401 5.84753 3.67167 5.83016 3.67167C5.81279 3.67167 5.78999 3.73126 5.77954 3.80406C5.76033 3.93762 5.70924 4.19813 5.64792 4.47534C5.59913 4.69592 5.60315 34.8285 5.65202 35.1082C5.67256 35.2259 5.70578 35.3857 5.72587 35.4634C5.74596 35.541 5.7705 35.6642 5.78045 35.737C5.79041 35.8098 5.81279 35.8694 5.83016 35.8694C5.84753 35.8694 5.86176 35.9329 5.86176 36.0106C5.86176 36.0883 5.87765 36.1518 5.89706 36.1518C5.91648 36.1518 5.93237 36.1915 5.93237 36.2401C5.93237 36.2886 5.94826 36.3283 5.96767 36.3283C5.98709 36.3283 6.00298 36.3596 6.00298 36.3977C6.00298 36.483 6.11122 36.7167 6.15073 36.7167C6.16654 36.7167 6.1795 36.7564 6.1795 36.8049C6.1795 36.8535 6.19539 36.8932 6.2148 36.8932C6.23422 36.8932 6.25011 36.925 6.25011 36.9638C6.25011 37.0026 6.266 37.0344 6.28541 37.0344C6.30483 37.0344 6.32072 37.0662 6.32072 37.105C6.32072 37.1439 6.3366 37.1756 6.35602 37.1756C6.37544 37.1756 6.39133 37.1957 6.39133 37.2201C6.39133 37.2446 6.43104 37.3075 6.47959 37.3598C6.52813 37.4121 6.56785 37.4795 6.56785 37.5095C6.56785 37.5395 6.58374 37.564 6.60315 37.564C6.62257 37.564 6.63846 37.5806 6.63846 37.6009C6.63846 37.6212 6.67422 37.676 6.71789 37.7228C6.83662 37.8497 6.88559 37.9117 6.88559 37.9349C6.88559 37.9831 7.76944 38.835 7.81943 38.835C7.84951 38.835 7.87412 38.8508 7.87412 38.8703C7.87412 38.8897 7.89212 38.9056 7.91412 38.9056C7.93611 38.9056 7.97978 38.9345 8.0112 38.9699C8.04259 39.0052 8.11994 39.0643 8.18303 39.101C8.24612 39.1378 8.29777 39.1804 8.29777 39.1956C8.29777 39.2108 8.32954 39.2233 8.36838 39.2233C8.40721 39.2233 8.43899 39.2392 8.43899 39.2586C8.43899 39.278 8.47076 39.2939 8.5096 39.2939C8.54843 39.2939 8.58021 39.3081 8.58021 39.3254C8.58021 39.3427 8.61992 39.3668 8.66847 39.379C8.71701 39.3912 8.75673 39.4168 8.75673 39.4358C8.75673 39.4549 8.7885 39.4704 8.82734 39.4704C8.86617 39.4704 8.89795 39.4863 8.89795 39.5057C8.89795 39.5252 8.93766 39.541 8.98621 39.541C9.03475 39.541 9.07447 39.5569 9.07447 39.5763C9.07447 39.5958 9.12213 39.6117 9.18038 39.6117C9.23863 39.6117 9.2863 39.6275 9.2863 39.647C9.2863 39.6664 9.32601 39.6823 9.37456 39.6823C9.4231 39.6823 9.46282 39.6967 9.46282 39.7145C9.46282 39.7322 9.5263 39.7574 9.60386 39.7705C9.68142 39.7836 9.75383 39.8088 9.76481 39.8266C9.77576 39.8443 9.8464 39.8588 9.92178 39.8588C9.99715 39.8588 10.0687 39.8747 10.0807 39.8941C10.0927 39.9135 10.1889 39.9294 10.2946 39.9294C10.4002 39.9294 10.4867 39.9453 10.4867 39.9647C10.4867 39.9882 14.3408 40 21.9783 40C29.6158 40 33.4699 39.9882 33.4699 39.9647C33.4699 39.9453 33.5176 39.9294 33.5758 39.9294C33.6341 39.9294 33.6817 39.9146 33.6817 39.8965C33.6817 39.8783 33.7114 39.8541 33.7477 39.8426C33.8311 39.8161 34.1407 39.5257 34.1407 39.4739C34.1407 39.4526 34.1542 39.4351 34.1706 39.4351C34.1871 39.4351 34.2285 39.3676 34.2625 39.2851C34.2966 39.2025 34.3387 39.1075 34.3561 39.0738C34.4417 38.9081 34.3491 38.1995 34.2418 38.1995C34.225 38.1995 34.2113 38.1677 34.2113 38.1289C34.2113 38.09 34.1954 38.0583 34.176 38.0583C34.1566 38.0583 34.1407 38.0418 34.1407 38.0218C34.1407 37.9743 33.9069 37.7405 33.8594 37.7405C33.8394 37.7405 33.8229 37.7282 33.8229 37.7132C33.8229 37.6861 33.6832 37.6095 33.4947 37.5333C33.422 37.5039 30.4285 37.4934 22.1355 37.4934C14.652 37.4934 10.875 37.4816 10.875 37.4581C10.875 37.4384 10.7809 37.4228 10.6632 37.4228C10.5455 37.4228 10.4514 37.4071 10.4514 37.3875C10.4514 37.368 10.4037 37.3522 10.3455 37.3522C10.2872 37.3522 10.2395 37.337 10.2395 37.3184C10.2395 37.2999 10.1839 37.2743 10.116 37.2616C10.048 37.2488 9.99239 37.2243 9.99239 37.207C9.99239 37.1898 9.96061 37.1756 9.92178 37.1756C9.88294 37.1756 9.85117 37.1598 9.85117 37.1403C9.85117 37.1209 9.81939 37.105 9.78056 37.105C9.74172 37.105 9.70995 37.0909 9.70995 37.0735C9.70995 37.0562 9.67147 37.0324 9.62441 37.0206C9.57738 37.0088 9.4912 36.9515 9.43295 36.8932C9.3747 36.835 9.30808 36.7873 9.28495 36.7873C9.24287 36.7873 9.00386 36.5463 9.00386 36.5039C9.00386 36.4916 8.96414 36.4602 8.9156 36.4342C8.86705 36.4083 8.82734 36.3614 8.82734 36.3302C8.82734 36.2989 8.79556 36.2504 8.75673 36.2224C8.71789 36.1944 8.68612 36.1512 8.68612 36.1264C8.68612 36.1015 8.67263 36.0812 8.65618 36.0812C8.63969 36.0812 8.59758 36.0177 8.56255 35.94C8.52753 35.8623 8.48541 35.7988 8.46893 35.7988C8.45247 35.7988 8.43899 35.759 8.43899 35.7105C8.43899 35.662 8.4231 35.6222 8.40368 35.6222C8.38427 35.6222 8.36838 35.5903 8.36838 35.5511C8.36838 35.5121 8.35443 35.4525 8.33742 35.4187C8.09759 34.9441 8.08044 34.0519 8.29915 33.431C8.33724 33.3229 8.36838 33.2077 8.36838 33.175C8.36838 33.1424 8.38427 33.1156 8.40368 33.1156C8.4231 33.1156 8.43899 33.0838 8.43899 33.045C8.43899 33.0062 8.45487 32.9744 8.47429 32.9744C8.49371 32.9744 8.5096 32.9426 8.5096 32.9038C8.5096 32.865 8.52442 32.8332 8.54254 32.8332C8.56065 32.8332 8.58674 32.7974 8.60054 32.7538C8.61431 32.71 8.65512 32.6486 8.69117 32.6172C8.72721 32.5858 8.75673 32.5421 8.75673 32.5201C8.75673 32.4981 8.77262 32.4801 8.79203 32.4801C8.81145 32.4801 8.82734 32.4484 8.82734 32.4095C8.82734 32.3707 8.8446 32.3389 8.86568 32.3389C8.88679 32.3389 8.98801 32.2515 9.0906 32.1447C9.19323 32.038 9.29512 31.9506 9.31705 31.9506C9.33897 31.9506 9.3569 31.9347 9.3569 31.9153C9.3569 31.8959 9.3735 31.88 9.3938 31.88C9.4141 31.88 9.47044 31.8402 9.51899 31.7917C9.56753 31.7432 9.63034 31.7034 9.65858 31.7034C9.68683 31.7034 9.70995 31.6876 9.70995 31.6681C9.70995 31.6487 9.74172 31.6328 9.78056 31.6328C9.81939 31.6328 9.85117 31.6169 9.85117 31.5975C9.85117 31.5781 9.88294 31.5622 9.92178 31.5622C9.96061 31.5622 9.99239 31.5463 9.99239 31.5269C9.99239 31.5075 10.0204 31.4916 10.0547 31.4916C10.0889 31.4916 10.2041 31.4596 10.3106 31.4205C10.4172 31.3814 10.5882 31.3395 10.6907 31.3273C10.7931 31.3151 10.8854 31.2915 10.8957 31.2748C10.9061 31.258 15.9536 31.2445 22.2098 31.2445C29.7165 31.2445 33.5052 31.2327 33.5052 31.2092C33.5052 31.1898 33.5449 31.1739 33.5935 31.1739C33.642 31.1739 33.6817 31.158 33.6817 31.1386C33.6817 31.1192 33.7064 31.1033 33.7366 31.1033C33.7668 31.1033 33.8423 31.0557 33.9043 30.9975C33.9664 30.9393 34.029 30.8917 34.0436 30.8916C34.0582 30.8915 34.0701 30.8734 34.0701 30.8514C34.0701 30.8294 34.0979 30.7855 34.1319 30.7539C34.1997 30.6906 34.2713 30.5853 34.3023 30.5031C34.3134 30.474 34.3371 30.4226 34.3551 30.3888C34.375 30.3515 34.3878 24.5991 34.3878 15.6559V0.984148L34.2936 0.783336C34.2417 0.672904 34.1861 0.577229 34.17 0.570768C34.1539 0.564272 34.1407 0.542842 34.1407 0.523142C34.1407 0.473539 33.8285 0.183054 33.7477 0.157387C33.7114 0.145878 33.6817 0.121659 33.6817 0.103548C33.6817 0.0854369 33.642 0.070609 33.5935 0.070609C33.5449 0.070609 33.5052 0.054722 33.5052 0.0353045C33.5052 0.011827 29.5746 0 21.7841 0C13.9936 0 10.063 0.011827 10.063 0.0353045ZM10.4161 2.54192C10.4161 2.56134 10.3366 2.57723 10.2395 2.57723C10.1425 2.57723 10.063 2.59312 10.063 2.61253C10.063 2.63195 10.0154 2.64784 9.95708 2.64784C9.89883 2.64784 9.85117 2.66245 9.85117 2.68035C9.85117 2.69822 9.80368 2.72325 9.74564 2.73599C9.68764 2.74874 9.63108 2.77384 9.61999 2.79177C9.60894 2.80971 9.56905 2.82436 9.53134 2.82436C9.49364 2.82436 9.46282 2.84025 9.46282 2.85966C9.46282 2.87908 9.43899 2.89497 9.40986 2.89497C9.38074 2.89497 9.3569 2.91086 9.3569 2.93027C9.3569 2.94969 9.33632 2.96558 9.31119 2.96558C9.26607 2.96558 8.75673 3.4353 8.75673 3.47693C8.75673 3.48872 8.721 3.53659 8.67729 3.5833C8.54487 3.72494 8.5096 3.77292 8.5096 3.8114C8.5096 3.83163 8.49371 3.84819 8.47429 3.84819C8.45487 3.84819 8.43899 3.87996 8.43899 3.9188C8.43899 3.95763 8.4231 3.98941 8.40368 3.98941C8.38427 3.98941 8.36838 4.02139 8.36838 4.06051C8.36838 4.09959 8.35408 4.15919 8.3366 4.1929C8.31909 4.22662 8.27793 4.34951 8.2451 4.46602C8.21223 4.58252 8.17092 4.72664 8.1533 4.78627C8.10741 4.94147 8.11066 29.645 8.15655 29.6734C8.17597 29.6854 8.19186 29.6809 8.19186 29.6634C8.19186 29.6459 8.24746 29.6017 8.31542 29.565C8.38338 29.5284 8.43899 29.4862 8.43899 29.4712C8.43899 29.4562 8.47076 29.444 8.5096 29.444C8.54843 29.444 8.58021 29.4281 8.58021 29.4086C8.58021 29.3892 8.61992 29.3733 8.66847 29.3733C8.71701 29.3733 8.75673 29.3575 8.75673 29.338C8.75673 29.3186 8.7885 29.3027 8.82734 29.3027C8.86617 29.3027 8.89795 29.2899 8.89795 29.2742C8.89795 29.2386 9.14822 29.1262 9.22755 29.1262C9.25985 29.1262 9.2863 29.1103 9.2863 29.0909C9.2863 29.0715 9.32601 29.0556 9.37456 29.0556C9.4231 29.0556 9.46282 29.0397 9.46282 29.0203C9.46282 29.0009 9.52637 28.985 9.60404 28.985C9.68171 28.985 9.74525 28.9708 9.74525 28.9534C9.74525 28.936 9.80485 28.9136 9.87765 28.9037C9.95048 28.8937 10.0736 28.8692 10.1513 28.8491C10.4262 28.7781 10.7235 28.7379 10.9742 28.7379H11.2281V15.6222V2.50662H10.8221C10.5749 2.50662 10.4161 2.52042 10.4161 2.54192ZM13.77 15.6222V28.7379H22.8256H31.8812V15.6222V2.50662H22.8256H13.77V15.6222ZM10.7691 33.2076C10.6623 33.256 10.5696 33.3106 10.5632 33.3291C10.5567 33.3476 10.5363 33.3628 10.5178 33.3628C10.4725 33.3628 10.2395 33.5982 10.2395 33.644C10.2395 33.6641 10.2257 33.6805 10.2089 33.6805C10.192 33.6805 10.1364 33.7769 10.0853 33.8947C9.95585 34.1931 9.95397 34.5762 10.0807 34.8388C10.1292 34.9394 10.1689 35.0304 10.1689 35.0411C10.1689 35.0833 10.5549 35.4402 10.6244 35.4622C10.6651 35.4752 10.6985 35.5006 10.6985 35.5187C10.6985 35.5368 10.7382 35.5516 10.7868 35.5516C10.8353 35.5516 10.875 35.5675 10.875 35.5869C10.875 35.6104 14.6644 35.6222 22.1725 35.6222C29.6806 35.6222 33.4699 35.6104 33.4699 35.5869C33.4699 35.5675 33.5176 35.5516 33.5758 35.5516C33.6341 35.5516 33.6817 35.5368 33.6817 35.5187C33.6817 35.5006 33.7151 35.4752 33.7559 35.4622C33.8786 35.4233 34.1897 35.0859 34.2593 34.9162C34.2951 34.8288 34.3387 34.7297 34.3561 34.696C34.4417 34.5303 34.3491 33.8217 34.2418 33.8217C34.225 33.8217 34.2113 33.7899 34.2113 33.7511C34.2113 33.7123 34.1954 33.6805 34.176 33.6805C34.1566 33.6805 34.1407 33.6641 34.1407 33.644C34.1407 33.5965 33.9069 33.3628 33.8594 33.3628C33.8394 33.3628 33.8229 33.3489 33.8229 33.3321C33.8229 33.3152 33.7266 33.2596 33.6088 33.2085L33.3946 33.1156L22.179 33.1177L10.9633 33.1197L10.7691 33.2076Z" fill="black" stroke="#F0F8FF" stroke-width="0.5"/>
</g>
<defs>
<clipPath id="clip0_1070_1377">
<rect width="40" height="40" fill="white"/>
</clipPath>
</defs>
</svg>
