<svg xmlns="http://www.w3.org/2000/svg" width="200" height="200" preserveAspectRatio="xMidYMid meet" version="1.0" viewBox="0 0 150 150"><metadata>Created by potrace 1.14, written by Peter Selinger 2001-2017</metadata><g fill="#000" stroke="none"><path d="M428 1109 c-18 -22 -32 -45 -30 -50 1 -5 -4 -8 -10 -6 -7 1 -12 -6 -12 -15 1 -10 -1 -16 -5 -13 -7 4 -41 -30 -41 -41 0 -4 -8 -14 -18 -23 -26 -24 -252 -309 -271 -342 -20 -36 -12 -50 78 -143 64 -68 86 -84 109 -80 6 1 16 2 21 3 4 0 29 27 54 58 25 32 56 70 69 85 13 14 41 48 62 74 l39 47 45 -49 c25 -27 70 -76 101 -110 31 -33 75 -82 99 -107 24 -26 51 -47 61 -47 10 0 48 36 87 83 141 168 186 218 178 195 -6 -17 5 -23 29 -19 5 1 6 -3 3 -8 -3 -5 24 -40 60 -78 36 -37 72 -78 81 -90 21 -32 69 -31 99 2 14 15 21 32 18 43 -4 12 -3 13 3 4 7 -10 19 -1 49 35 21 26 49 59 61 73 26 28 28 39 11 75 -8 19 -17 25 -31 21 -14 -3 -17 -2 -9 6 12 12 -16 50 -31 41 -6 -3 -7 -2 -4 4 4 5 -5 20 -18 31 -14 12 -25 27 -25 33 0 6 -7 8 -16 5 -8 -3 -13 -2 -10 3 6 9 -1 18 -79 106 -137 157 -191 208 -210 201 -11 -4 -69 -67 -130 -141 -60 -74 -111 -135 -114 -135 -2 0 -12 10 -23 22 -11 13 -61 67 -111 122 -51 54 -105 114 -121 132 -16 19 -37 34 -46 34 -10 0 -33 -18 -52 -41z m-5 -84 c-7 -21 -12 -19 -10 4 0 11 5 18 9 15 4 -3 5 -11 1 -19z m41 -11 c3 -8 2 -12 -4 -9 -6 3 -10 10 -10 16 0 14 7 11 14 -7z m-78 -56 c3 -4 -1 -5 -10 -4 -8 1 -18 5 -22 8 -3 4 1 5 10 4 8 -1 18 -5 22 -8z m-16 -54 c0 -8 -19 -13 -24 -6 -3 5 1 9 9 9 8 0 15 -2 15 -3z m920 -78 c0 -2 -7 -7 -16 -10 -8 -3 -12 -2 -9 4 6 10 25 14 25 6z m-85 -54 c-3 -3 -11 0 -18 7 -9 10 -8 11 6 5 10 -3 15 -9 12 -12z m9 -31 c3 -4 -4 -7 -14 -6 -27 2 -33 10 -10 12 11 1 22 -2 24 -6z m156 4 c0 -7 -30 -13 -34 -7 -3 4 4 9 15 9 10 1 19 0 19 -2z m-227 -80 c-3 -9 -8 -14 -10 -11 -3 3 -2 9 2 15 9 16 15 13 8 -4z m157 1 c0 -2 -8 -10 -17 -17 -16 -13 -17 -12 -4 4 13 16 21 21 21 13z m-160 -40 c0 -2 -8 -10 -17 -17 -16 -13 -17 -12 -4 4 13 16 21 21 21 13z m154 -4 c2 -4 -4 -8 -14 -8 -10 0 -16 4 -14 8 3 4 9 8 14 8 5 0 11 -4 14 -8z m-124 -26 c0 -2 -8 -10 -17 -17 -16 -13 -17 -12 -4 4 13 16 21 21 21 13z m117 -73 c-4 -3 -1 -13 6 -22 11 -14 10 -14 -5 -2 -16 12 -16 31 -1 31 4 0 3 -3 0 -7z m83 -1 c0 -5 -7 -9 -15 -9 -8 0 -12 4 -9 9 3 4 9 8 15 8 5 0 9 -4 9 -8z m-155 -22 c-3 -5 -12 -10 -18 -10 -7 0 -6 4 3 10 19 12 23 12 15 0z" transform="translate(0.000000,150.000000) scale(0.100000,-0.100000)"/></g></svg>